<svg xmlns="http://www.w3.org/2000/svg" width="90" height="104" fill="none"><g clip-path="url(#a)"><path fill="#292733" d="m.035 81.526 44.516 22.03 44.516-22.03V.528H.035z" style="fill:#292733;fill:color(display-p3 .1608 .1529 .2);fill-opacity:1"/><path fill="#292733" d="m.035 81.526 44.516 22.03 44.516-22.03V.528H.035z" style="fill:#292733;fill:color(display-p3 .1608 .1529 .2);fill-opacity:1"/><path fill="#fff" d="m13.936 12.879 1.354-4.763h.949l-1.423 4.763zm-2.865 0L9.668 8.116h.948l1.345 4.763zm.126 0 1.297-4.763h.832l-1.287 4.763zm2.652 0L12.57 8.116h.842l1.316 4.763zm3.638 0V8.116h.92v4.763zm2.633 0V8.116h.967l2.313 3.198V8.116h.93v4.763h-.93l-2.35-3.257v3.257zm6.919 0V8.97h-1.423v-.855h3.765v.846l-1.423.01v3.907zm3.629 0V8.116h3v.846l-2.071.01v1.078h1.78v.826h-1.78v1.157h2.1v.846zm4.665 0V8.116h1.76q.504 0 .891.194.387.204.6.545.213.34.213.797 0 .447-.223.797a1.5 1.5 0 0 1-.619.544q-.396.195-.89.194h-.803v1.692zm2.612 0-1.103-1.915.716-.506 1.432 2.42zm-1.684-2.537h.842q.204 0 .378-.088a.67.67 0 0 0 .358-.603q0-.3-.223-.495-.213-.185-.561-.185h-.794zm6.242 2.537v-.69a1 1 0 0 1 .117-.428 2.2 2.2 0 0 1 .338-.476q.223-.244.513-.448l.716-.515q.145-.107.28-.233a1 1 0 0 0 .214-.282.58.58 0 0 0 0-.612.5.5 0 0 0-.242-.224.84.84 0 0 0-.397-.087.8.8 0 0 0-.368.087.8.8 0 0 0-.26.214q-.098.136-.146.292l-.949-.166q.069-.34.29-.631.224-.292.581-.477.369-.175.823-.175.532 0 .91.195.377.185.59.515.203.33.203.768 0 .437-.242.787-.24.34-.658.642l-.638.466q-.204.135-.34.302-.144.165-.222.36h2.158v.816zm6.446.077q-.572 0-1.017-.31a2.2 2.2 0 0 1-.687-.876 3.05 3.05 0 0 1-.251-1.273q0-.72.251-1.273.252-.554.688-.875.435-.31 1.006-.31.58 0 1.026.31.444.321.687.875.25.555.251 1.273 0 .72-.251 1.274-.242.553-.687.874-.436.312-1.016.311m0-.836a.78.78 0 0 0 .541-.213 1.33 1.33 0 0 0 .378-.574q.135-.36.135-.836t-.135-.845a1.33 1.33 0 0 0-.378-.574.8.8 0 0 0-.551-.204.82.82 0 0 0-.542.204 1.4 1.4 0 0 0-.368.574 2.6 2.6 0 0 0-.126.845q0 .477.126.836.135.37.378.574a.8.8 0 0 0 .542.213m3.222.759v-.69a1 1 0 0 1 .116-.428q.126-.243.339-.476.223-.244.513-.448l.716-.515q.145-.107.28-.233a1 1 0 0 0 .214-.282.58.58 0 0 0 0-.612.5.5 0 0 0-.242-.224.86.86 0 0 0-.407-.087.7.7 0 0 0-.358.087.8.8 0 0 0-.261.214q-.097.136-.145.292l-.949-.166q.068-.34.29-.631.224-.292.581-.477a1.9 1.9 0 0 1 .823-.175q.532 0 .91.195.377.185.59.515.203.33.203.768 0 .437-.242.787-.241.34-.658.642l-.648.466q-.194.135-.339.302-.135.165-.213.36h2.158v.816zm6.271.077a1.84 1.84 0 0 1-.813-.165 1.5 1.5 0 0 1-.551-.486 2 2 0 0 1-.31-.71 3.8 3.8 0 0 1-.097-.874q0-.545.116-1.03.117-.486.349-.856.231-.379.6-.593.367-.204.88-.204.368 0 .726.107t.639.311l-.455.68a1.65 1.65 0 0 0-.9-.282q-.523 0-.813.457-.3.466-.29 1.468l-.184-.136q.154-.37.484-.593t.774-.223q.454 0 .803.204.349.213.542.583.203.36.203.807t-.213.797a1.4 1.4 0 0 1-.59.544q-.377.195-.9.194m0-.787a.8.8 0 0 0 .407-.097.76.76 0 0 0 .27-.282.77.77 0 0 0 .107-.408.77.77 0 0 0-.106-.409.74.74 0 0 0-.678-.398.74.74 0 0 0-.397.107.7.7 0 0 0-.28.291.77.77 0 0 0-.107.409.77.77 0 0 0 .107.408q.096.175.28.282a.8.8 0 0 0 .397.097M36.523 44.954V34.748h2.332l.01 10.206zm-6.562 0V34.738h2.342v10.216zm1.655-4.121v-2.168h6.155v2.168zm9.107 4.12v-7.289h2.264v7.29zm1.132-8.222q-.513 0-.9-.389a1.23 1.23 0 0 1-.377-.894q0-.534.377-.914.387-.37.9-.37.522 0 .9.37.378.38.377.914 0 .515-.377.894-.378.39-.9.389m6.165 11.343a9 9 0 0 1-1.549-.117 6 6 0 0 1-1.122-.301 3.4 3.4 0 0 1-.765-.428l.88-1.808.552.253q.32.156.784.272.465.117 1.123.117.502 0 .9-.195.396-.194.629-.612.222-.418.222-1.04v-6.551h2.265v6.463q0 1.225-.465 2.11a3.16 3.16 0 0 1-1.335 1.36q-.87.477-2.12.477m-.523-3.392q-1.016 0-1.752-.418a2.9 2.9 0 0 1-1.132-1.186q-.397-.778-.397-1.837 0-1.167.397-2.002.397-.827 1.132-1.293.736-.457 1.752-.457.842 0 1.461.457.61.466.949 1.312t.338 2.022q0 1.05-.338 1.807-.339.759-.949 1.177-.62.417-1.461.418m.668-1.896q.435 0 .745-.214a1.45 1.45 0 0 0 .484-.573q.164-.37.164-.836 0-.495-.174-.855a1.36 1.36 0 0 0-.484-.574 1.3 1.3 0 0 0-.745-.204q-.425 0-.755.204-.319.205-.503.574a1.94 1.94 0 0 0 0 1.69q.184.36.513.574t.755.214m5.284 2.168V34.748h2.264v10.206zm4.674 0V41.22h2.264v3.733zm0-3.733q0-.582-.126-.923a1.07 1.07 0 0 0-.377-.505 1.2 1.2 0 0 0-.581-.175q-.659-.02-.987.36-.339.368-.339 1.127h-.677q0-1.148.348-1.964.348-.807.948-1.234a2.36 2.36 0 0 1 1.384-.418q.89 0 1.48.36.6.36.891 1.088.3.729.3 1.866v.418zM11.37 59.533V49.328h3.997q1.103 0 1.955.447a3.4 3.4 0 0 1 1.345 1.224q.483.778.484 1.818 0 1.001-.475 1.798-.465.797-1.306 1.244-.841.457-1.935.457h-1.723v3.217zm2.342-5.375h1.665q.628 0 1.006-.379.378-.37.377-.962 0-.603-.406-.972-.397-.37-1.045-.37h-1.597zm9.668 5.55q-1.133 0-2.003-.486a3.5 3.5 0 0 1-1.365-1.35q-.494-.856-.494-1.984 0-1.137.494-1.992a3.5 3.5 0 0 1 1.374-1.342q.87-.486 2.023-.486 1.026 0 1.858.496.822.495 1.306 1.477.494.974.494 2.43H21.61l.242-.272q0 .495.203.875t.57.574q.359.195.814.194.532 0 .9-.243.377-.233.522-.603l2.004.69a3.05 3.05 0 0 1-.823 1.138 3.6 3.6 0 0 1-1.21.67 4.9 4.9 0 0 1-1.451.214m-1.471-4.461-.233-.292h3.252l-.203.292q0-.536-.213-.855a1.33 1.33 0 0 0-.542-.467 1.6 1.6 0 0 0-.639-.136q-.32 0-.648.136a1.4 1.4 0 0 0-.552.467q-.222.32-.222.855m7.78.515q0-1.185.475-1.973.474-.788 1.19-1.176a3.04 3.04 0 0 1 1.5-.399v2.216q-.668 0-1.258.146-.58.145-.949.447a.96.96 0 0 0-.358.768zm-1.664 3.771v-7.29h2.264v7.29zm6.503 0v-7.96q0-1.195.62-1.876.629-.69 1.916-.69.484 0 1.006.165.523.175.9.389l-.842 1.603a1.2 1.2 0 0 0-.668-.213q-.348 0-.512.233-.155.243-.155.797v7.552zm-1.152-5.492v-1.798h5.052v1.798zm9.572 5.667q-1.152 0-2.023-.486a3.6 3.6 0 0 1-1.374-1.35q-.495-.856-.494-1.984 0-1.118.484-1.982.484-.855 1.365-1.352.88-.486 1.993-.486 1.152 0 2.032.486.872.495 1.355 1.352.494.864.494 1.982 0 1.128-.494 1.983a3.45 3.45 0 0 1-1.355 1.351q-.87.486-1.983.486m0-2.1q.435 0 .774-.213.339-.224.532-.613.203-.378.203-.894 0-.505-.203-.894-.194-.39-.542-.602a1.44 1.44 0 0 0-.794-.224q-.454 0-.803.224a1.44 1.44 0 0 0-.542.602q-.193.39-.193.894 0 .516.193.895.194.389.552.612.358.213.823.214m6.6-1.846q0-1.185.474-1.973t1.19-1.176a3.04 3.04 0 0 1 1.5-.399v2.216q-.667 0-1.248.146-.59.145-.958.447a.96.96 0 0 0-.358.768zm-1.665 3.771v-7.29h2.264v7.29zm5.777 0v-7.29h2.13l.087.924q.348-.544.87-.817.513-.282 1.133-.282.9 0 1.49.37.59.379.861 1.137.34-.73.92-1.118t1.306-.389q1.307 0 1.965.807.657.797.648 2.488v4.17h-2.264v-3.732q0-.584-.126-.924a1.04 1.04 0 0 0-.358-.505 1.1 1.1 0 0 0-.552-.175q-.62-.01-.948.36-.33.37-.33 1.127v3.85H58.23V55.8q0-.584-.126-.924-.115-.34-.348-.505a1.1 1.1 0 0 0-.552-.175q-.629-.01-.948.36-.33.37-.33 1.127v3.85zm16.268.175q-1.132 0-2.003-.486a3.5 3.5 0 0 1-1.365-1.35q-.493-.856-.493-1.984 0-1.137.503-1.992a3.5 3.5 0 0 1 1.374-1.342q.87-.486 2.013-.486 1.035 0 1.858.496.833.495 1.316 1.477.484.974.484 2.43h-5.458l.252-.272q0 .495.203.875t.561.574q.367.195.813.194.543 0 .91-.243.367-.233.513-.603l2.003.69a3.1 3.1 0 0 1-.813 1.138 3.6 3.6 0 0 1-1.22.67 4.8 4.8 0 0 1-1.45.214m-1.461-4.461-.232-.292h3.251l-.203.292q0-.536-.223-.855a1.26 1.26 0 0 0-.532-.467 1.6 1.6 0 0 0-.639-.136q-.32 0-.648.136-.33.146-.552.467-.222.32-.222.855m7.78.515q0-1.185.475-1.973.465-.788 1.19-1.176a3.04 3.04 0 0 1 1.5-.399v2.216q-.667 0-1.258.146-.591.145-.948.447a.95.95 0 0 0-.368.768zm-1.674 3.771v-7.29h2.265v7.29z" style="fill:#fff;fill-opacity:1"/><path fill="#4A4658" d="M68.744.528h20.323V20.94H68.744z" style="fill:#4a4658;fill:color(display-p3 .2902 .2745 .3451);fill-opacity:1"/><path fill="#A7A4B5" fill-rule="evenodd" d="M83.308 8.345h-1.736c.047-.274.215-.426.555-.6l.32-.162c.573-.295.877-.626.877-1.167a.95.95 0 0 0-.393-.805 1.5 1.5 0 0 0-.934-.29 1.45 1.45 0 0 0-.793.227 1.34 1.34 0 0 0-.524.574l.503.504q.291-.59.85-.589c.315 0 .51.163.51.389 0 .19-.095.347-.457.53l-.204.1q-.669.34-.934.778c-.18.29-.268.663-.268 1.11v.12h2.628zM83.071 9.9h-2.87l-1.435 2.498h2.87l1.435 2.498 1.436-2.498z" clip-rule="evenodd" style="fill:#a7a4b5;fill:color(display-p3 .6549 .6431 .7098);fill-opacity:1"/><path fill="#A7A4B5" fill-rule="evenodd" d="M79.01 14.067c-.88 0-1.724-.352-2.346-.976a3.34 3.34 0 0 1-.974-2.355c.001-.884.352-1.73.974-2.355a3.32 3.32 0 0 1 2.345-.976l1.136-2.388a5.78 5.78 0 0 0-4.819 1.21 5.83 5.83 0 0 0-2.125 4.509 5.85 5.85 0 0 0 1.702 4.123 5.8 5.8 0 0 0 4.106 1.707 5.77 5.77 0 0 0 3.421-1.117l-1.258-2.19a3.3 3.3 0 0 1-2.163.808" clip-rule="evenodd" style="fill:#a7a4b5;fill:color(display-p3 .6549 .6431 .7098);fill-opacity:1"/><path fill="#A7A4B5" d="M69.217 1.177v19.311z" style="fill:#a7a4b5;fill:color(display-p3 .6549 .6431 .7098);fill-opacity:1"/><path stroke="#4A4658" stroke-width=".973" d="M69.217 1.177v19.311" style="stroke:#4a4658;stroke:color(display-p3 .2902 .2745 .3451);stroke-opacity:1"/><path fill="#A7A4B5" d="M.035 81.707v-6.318l44.516 22.396 44.516-22.396v6.318l-44.516 21.849z" style="fill:#a7a4b5;fill:color(display-p3 .6549 .6431 .7098);fill-opacity:1"/><path fill="#6D697D" d="M.035 75.92v-6.318l44.516 22.396 44.516-22.396v6.317L44.551 97.77z" style="fill:#6d697d;fill:color(display-p3 .4275 .4118 .4902);fill-opacity:1"/><path fill="#5B576B" d="M.035 70.15v-6.317L44.551 86.23l44.516-22.397v6.318L44.551 92z" style="fill:#5b576b;fill:color(display-p3 .3569 .3412 .4196);fill-opacity:1"/><path stroke="#4A4658" stroke-width=".973" d="M88.656 20.487H.64m87.902 60.71-43.99 21.771L.56 81.198V1.055h87.98z" style="stroke:#4a4658;stroke:color(display-p3 .2902 .2745 .3451);stroke-opacity:1"/></g><defs><clipPath id="a"><path fill="#fff" d="M0 0h90v104H0z" style="fill:#fff;fill-opacity:1"/></clipPath></defs></svg>