<svg xmlns="http://www.w3.org/2000/svg" width="97" height="104" fill="none"><g clip-path="url(#a)"><path fill="#292733" d="M95.94 26.223v51.554l-47.71 25.776L.52 77.777V26.223L48.23.447z" style="fill:#292733;fill:color(display-p3 .1608 .1529 .2);fill-opacity:1"/><path fill="#4A4658" d="m48.1 104-.182-.099L0 78.013V26l.205-.109L48.1 0l.182.1L96.2 26v52.026zM.78 77.54l47.32 25.565L95.42 77.54V26.46L48.1.895.78 26.46z" style="fill:#4a4658;fill:color(display-p3 .2902 .2745 .3451);fill-opacity:1"/><path fill="#4A4658" d="M93.6 27.626v48.748L48.1 100.75 2.6 76.374V27.627L48.1 3.25z" style="fill:#4a4658;fill:color(display-p3 .2902 .2745 .3451);fill-opacity:1"/><path fill="#1C1B24" d="M93.6 37.7h-91v28.6h91z" style="fill:#1c1b24;fill:color(display-p3 .1098 .1059 .1412);fill-opacity:1"/><path fill="#292733" d="M89.18 29.575v44.85L48.23 96.85 7.28 74.426V29.575L48.23 7.15z" style="fill:#292733;fill:color(display-p3 .1608 .1529 .2);fill-opacity:1"/><path fill="#1C1B24" d="M92.3 40.3H3.9v23.4h88.4z" style="fill:#1c1b24;fill:color(display-p3 .1098 .1059 .1412);fill-opacity:1"/><path stroke="#4A4658" stroke-miterlimit="10" stroke-width=".15" d="M13.65 66.3h68.9m-68.9-28.6h68.9" style="stroke:#4a4658;stroke:color(display-p3 .2902 .2745 .3451);stroke-opacity:1"/><path fill="#fff" d="M38.763 45.76h-2.34v12.22h2.34zm7.54 8.58c0 1.903-1.802 2.054-2.306 2.054-1.264 0-1.594-1.113-1.594-1.783V49.92h-1.82v4.68c0 1.18.372 2.155 1.063 2.803.681.601 1.565.92 2.473.889a4.3 4.3 0 0 0 2.184-.66v.348h2.08v-8.06h-2.08zm6.5-7.28h-2.34v2.86h-1.3v1.56h1.3v6.5h2.34v-6.5h1.56v-1.56h-1.56zm8.297 8.68a2.7 2.7 0 0 1-1.745.605c-1.482 0-2.57-1.017-2.57-2.413 0-1.397 1.04-2.37 2.57-2.37.638-.01 1.259.2 1.758.596l.322.26 1.435-1.341-.36-.302a4.88 4.88 0 0 0-3.168-1.115c-2.66 0-4.592 1.797-4.592 4.264s1.98 4.316 4.592 4.316a4.84 4.84 0 0 0 3.18-1.126l.345-.304-1.456-1.341zm9.42-5.061a3.65 3.65 0 0 0-2.504-.887 3.9 3.9 0 0 0-2.213.66V45.76h-2.08v12.22h2.08v-4.238c0-1.903 1.672-2.057 2.176-2.057 1.264 0 1.464 1.115 1.464 1.786v4.509h2.08v-4.498c0-1.18-.301-2.153-1.003-2.803" style="fill:#fff;fill-opacity:1"/><path fill="#A7A4B5" d="M59.272 55.394c.85 0 1.537-.645 1.537-1.441s-.688-1.44-1.537-1.44-1.537.644-1.537 1.44.688 1.44 1.537 1.44" style="fill:#a7a4b5;fill:color(display-p3 .6549 .6431 .7098);fill-opacity:1"/><path fill="#fff" d="M33.857 55.143a4.4 4.4 0 0 1-3.063 1.2c-2.371 0-4.095-1.741-4.095-4.133s1.724-4.145 4.095-4.145a4.45 4.45 0 0 1 3.052 1.192l.323.304 1.422-1.331-.312-.304a6.4 6.4 0 0 0-4.485-1.753c-3.492 0-6.118 2.6-6.118 6.047 0 3.448 2.637 6.02 6.118 6.02a6.43 6.43 0 0 0 4.498-1.765l.312-.302-1.412-1.352zm9.774-41.126v-.375h2.618v.375h-1.097v3.116h-.423v-3.116zm6.07 1.37q0 .553-.199.955a1.5 1.5 0 0 1-.547.62 1.46 1.46 0 0 1-.794.219q-.447 0-.794-.218a1.5 1.5 0 0 1-.547-.62 2.1 2.1 0 0 1-.2-.955q0-.553.2-.955t.547-.62.794-.218.794.218q.349.218.547.62.2.402.2.955m-.408 0q0-.452-.152-.764a1.1 1.1 0 0 0-.407-.473 1.06 1.06 0 0 0-.573-.16q-.317 0-.574.16t-.408.473-.15.765.15.765.408.472.574.16q.316 0 .573-.16a1.1 1.1 0 0 0 .407-.472 1.74 1.74 0 0 0 .152-.765m1.12 1.746v-3.49h1.18q.41 0 .67.148.263.146.39.397.126.25.126.559t-.127.56a.94.94 0 0 1-.385.403q-.26.148-.668.148h-.845v-.375h.831a.9.9 0 0 0 .452-.097.58.58 0 0 0 .247-.262.9.9 0 0 0 .079-.377.9.9 0 0 0-.079-.375.56.56 0 0 0-.249-.26.94.94 0 0 0-.456-.095h-.744v3.116zm-20.73 5.175h.505l1.186 2.897h.04l1.187-2.898h.505V25.8h-.396v-2.652h-.034l-1.09 2.652h-.383l-1.09-2.652h-.035V25.8h-.395zm4.413 3.49h-.443l1.282-3.49h.437l1.281 3.49h-.443l-1.043-2.939h-.027zm.164-1.364h1.786v.375h-1.786zm5.705-2.127V25.8h-.409l-1.902-2.74h-.034v2.74h-.423v-3.49h.41l1.908 2.747h.034v-2.748zm.99 3.491h-.444l1.282-3.49h.436l1.282 3.49h-.443l-1.043-2.939h-.028zm.163-1.364h1.786v.375H41.12zm5.16-1.036a1.2 1.2 0 0 0-.15-.308.96.96 0 0 0-.499-.384 1.1 1.1 0 0 0-.347-.051q-.31 0-.565.16t-.404.472-.15.766.152.765.411.472q.26.16.583.16.3 0 .528-.128a.9.9 0 0 0 .358-.364q.13-.237.13-.558l.13.028h-1.05v-.375h1.329v.375q0 .43-.184.75-.183.318-.505.494a1.5 1.5 0 0 1-.736.174q-.464 0-.815-.218a1.47 1.47 0 0 1-.545-.62 2.2 2.2 0 0 1-.195-.955q0-.414.111-.745.112-.333.317-.566.205-.234.484-.358.28-.125.616-.125.276 0 .514.084a1.38 1.38 0 0 1 .744.593q.126.209.174.462zm1.18 2.4v-3.49h2.107v.374h-1.684v1.18h1.575v.375h-1.575v1.186h1.711v.375zm3.946 0h-1.077v-3.49h1.125q.507 0 .87.209.36.208.553.598t.193.93q0 .546-.195.94-.195.392-.566.603t-.903.21m-.654-.375h.627q.433 0 .717-.167.285-.167.425-.476t.14-.734q0-.423-.138-.728a1.02 1.02 0 0 0-.413-.47q-.274-.165-.684-.166h-.674zm6.286-2.243a.54.54 0 0 0-.249-.402.96.96 0 0 0-.535-.144q-.232 0-.406.075a.65.65 0 0 0-.27.207.5.5 0 0 0-.028.538.6.6 0 0 0 .174.166q.105.065.221.107t.213.067l.355.095q.136.036.303.099.17.064.322.172a.8.8 0 0 1 .356.69.9.9 0 0 1-.148.512 1 1 0 0 1-.43.363q-.28.135-.683.134a1.6 1.6 0 0 1-.65-.12 1.03 1.03 0 0 1-.429-.338.96.96 0 0 1-.175-.503h.436a.55.55 0 0 0 .133.327.7.7 0 0 0 .297.191q.18.062.388.062.242 0 .435-.079a.75.75 0 0 0 .305-.221.53.53 0 0 0 .113-.334.4.4 0 0 0-.098-.284.7.7 0 0 0-.255-.177 3 3 0 0 0-.343-.119l-.43-.123a1.6 1.6 0 0 1-.647-.336.74.74 0 0 1-.239-.57q0-.294.159-.512.16-.22.43-.34a1.45 1.45 0 0 1 .604-.124q.337 0 .6.121.263.12.416.328a.8.8 0 0 1 .164.472zm1.574-.873V25.8h-.422v-3.49zm.848 3.491v-3.49h2.107v.374h-1.684v1.18h1.575v.375h-1.575v1.186h1.711v.375zm2.869-3.49h.504l1.187 2.897h.04l1.187-2.898h.505V25.8h-.396v-2.652h-.034L64.23 25.8h-.382l-1.09-2.652h-.035V25.8h-.395zm-36.461 9.539a.54.54 0 0 0-.249-.403.96.96 0 0 0-.535-.143q-.232 0-.406.075a.65.65 0 0 0-.269.206.5.5 0 0 0-.029.539.6.6 0 0 0 .174.165q.105.065.221.108.117.041.214.066l.354.096q.137.035.303.098.169.064.323.173a.8.8 0 0 1 .356.69q0 .283-.148.511a1 1 0 0 1-.43.363q-.28.135-.683.135a1.6 1.6 0 0 1-.65-.121 1.03 1.03 0 0 1-.43-.337.96.96 0 0 1-.175-.503h.436q.018.197.133.327a.7.7 0 0 0 .297.19q.18.063.389.062.241 0 .434-.078a.75.75 0 0 0 .305-.222.53.53 0 0 0 .113-.334.4.4 0 0 0-.097-.283.7.7 0 0 0-.256-.177 3 3 0 0 0-.343-.12l-.43-.122a1.6 1.6 0 0 1-.647-.336.74.74 0 0 1-.238-.571q0-.293.158-.511.16-.22.43-.341a1.45 1.45 0 0 1 .605-.123q.338 0 .6.121.262.12.416.327a.8.8 0 0 1 .163.473zm1.152 2.618v-3.491h2.107v.375h-1.684v1.18h1.575v.374h-1.575v1.187h1.711v.375zm2.869 0v-3.491h1.18q.408 0 .67.14a.9.9 0 0 1 .39.38q.126.242.126.55t-.127.547a.9.9 0 0 1-.386.375q-.26.135-.667.135h-.955v-.382h.941q.28 0 .45-.082a.52.52 0 0 0 .25-.231.8.8 0 0 0 .078-.362.8.8 0 0 0-.079-.366.54.54 0 0 0-.25-.242 1 1 0 0 0-.455-.087h-.744v3.116zm1.643-1.569.859 1.569h-.49l-.846-1.569zm1.49-1.922 1.037 2.938h.04l1.037-2.938h.443l-1.282 3.49h-.436l-1.282-3.49zm3.524 0v3.49h-.423v-3.49zm3.657 1.09h-.423a.88.88 0 0 0-.357-.552 1 1 0 0 0-.291-.143 1.2 1.2 0 0 0-.334-.047q-.317 0-.575.16-.255.16-.407.472-.15.312-.15.765 0 .454.15.766.152.311.407.472.258.16.575.16.174 0 .334-.048a1 1 0 0 0 .291-.141.9.9 0 0 0 .357-.554h.422q-.048.267-.173.479a1.3 1.3 0 0 1-.735.583 1.6 1.6 0 0 1-.496.076q-.447 0-.794-.218a1.5 1.5 0 0 1-.547-.62 2.1 2.1 0 0 1-.2-.955q0-.552.2-.954.198-.402.547-.62.347-.219.794-.219.264 0 .496.077.234.076.421.225.188.147.314.358.126.21.174.479m.683 2.4v-3.49h2.106v.375h-1.684v1.18h1.575v.374h-1.575v1.187h1.712v.375zm4.777-2.617a.54.54 0 0 0-.248-.403.96.96 0 0 0-.536-.143q-.232 0-.405.075a.65.65 0 0 0-.27.206.5.5 0 0 0-.029.539.6.6 0 0 0 .174.165q.106.065.222.108.115.041.213.066l.354.096q.137.035.304.098.169.064.322.173a.8.8 0 0 1 .356.69q0 .283-.148.511a1 1 0 0 1-.43.363q-.28.135-.683.135a1.6 1.6 0 0 1-.65-.121 1.03 1.03 0 0 1-.43-.337.96.96 0 0 1-.175-.503h.437q.016.197.133.327a.7.7 0 0 0 .296.19q.18.063.389.062.242 0 .434-.078a.75.75 0 0 0 .306-.222.53.53 0 0 0 .112-.334.4.4 0 0 0-.097-.283.7.7 0 0 0-.256-.177 3 3 0 0 0-.342-.12l-.43-.122a1.6 1.6 0 0 1-.648-.336.74.74 0 0 1-.238-.571q0-.293.158-.511.16-.22.43-.341.27-.123.605-.123.337 0 .6.121.263.12.416.327a.8.8 0 0 1 .163.473zm5.311.218h-.422a.88.88 0 0 0-.357-.553 1 1 0 0 0-.291-.143 1.2 1.2 0 0 0-.334-.047q-.317 0-.575.16-.255.16-.407.472-.15.312-.15.765 0 .454.15.766.152.311.407.472.258.16.575.16.174 0 .334-.048a1 1 0 0 0 .291-.141.9.9 0 0 0 .357-.554h.422a1.4 1.4 0 0 1-.173.479 1.3 1.3 0 0 1-.735.583 1.6 1.6 0 0 1-.496.076q-.447 0-.794-.218a1.5 1.5 0 0 1-.548-.62 2.1 2.1 0 0 1-.2-.955q0-.552.2-.954t.548-.62q.347-.219.794-.219.264 0 .496.077.234.076.42.225.188.147.315.358.126.21.173.479m3.629.654q0 .553-.2.955a1.5 1.5 0 0 1-.547.62 1.46 1.46 0 0 1-.794.218q-.447 0-.794-.218a1.5 1.5 0 0 1-.548-.62 2.1 2.1 0 0 1-.199-.955q0-.552.2-.954t.547-.62q.347-.219.794-.219t.794.218.548.62q.198.403.199.955m-.41 0q0-.453-.15-.765a1.1 1.1 0 0 0-.408-.472 1.06 1.06 0 0 0-.573-.16q-.317 0-.574.16t-.408.472-.15.765.15.766q.151.311.408.472t.574.16q.316 0 .573-.16a1.1 1.1 0 0 0 .407-.472 1.74 1.74 0 0 0 .152-.766m1.12-1.745h.505l1.187 2.898h.04l1.187-2.898h.504v3.49h-.395v-2.652h-.034l-1.091 2.653h-.382l-1.09-2.653h-.035v2.653h-.395zm4.271 3.49v-3.49h1.18q.41 0 .671.148.263.147.389.397t.126.56-.126.56a.94.94 0 0 1-.385.402q-.261.15-.669.149h-.845v-.375h.832a.9.9 0 0 0 .452-.098.58.58 0 0 0 .247-.262.9.9 0 0 0 .078-.377.9.9 0 0 0-.078-.375.56.56 0 0 0-.25-.259.94.94 0 0 0-.456-.095h-.743v3.116zm2.834 0h-.443l1.282-3.49h.436l1.282 3.49h-.444l-1.043-2.938h-.027zm.163-1.363h1.787v.375H62.58zm5.706-2.127v3.49h-.41l-1.902-2.74h-.034v2.74h-.423v-3.49h.41l1.909 2.748h.034v-2.748zm.546 0h.484l.968 1.63h.04l.969-1.63h.484l-1.261 2.052v1.439h-.423v-1.439zM37.772 70.939v3.49h-.41l-1.902-2.74h-.034v2.74h-.423v-3.49h.41l1.909 2.748h.034v-2.748zm.845 3.49v-3.49h2.107v.375H39.04v1.18h1.575v.374H39.04v1.187h1.712v.375zm3.503 0-.954-3.49h.43l.729 2.843h.034l.743-2.843h.477l.743 2.843h.035l.73-2.843h.429l-.955 3.49h-.436l-.77-2.781h-.028l-.77 2.782zm4.972-3.49h.485l.968 1.63h.04l.969-1.63h.484l-1.261 2.052v1.439h-.423v-1.44zm6.274 1.745q0 .552-.2.955a1.5 1.5 0 0 1-.547.62 1.46 1.46 0 0 1-.794.218q-.447 0-.794-.218a1.5 1.5 0 0 1-.547-.62 2.1 2.1 0 0 1-.2-.955q0-.552.2-.954.2-.403.547-.62.348-.219.794-.219t.794.218q.348.22.547.62.2.403.2.955m-.41 0q0-.453-.15-.765a1.1 1.1 0 0 0-.408-.472 1.06 1.06 0 0 0-.573-.16q-.317 0-.574.16t-.408.472-.15.765.15.766q.152.311.408.472.257.16.574.16t.573-.16a1.1 1.1 0 0 0 .407-.472 1.74 1.74 0 0 0 .152-.766m1.12 1.746v-3.491h1.18q.41 0 .672.14a.9.9 0 0 1 .389.38q.126.242.126.55t-.127.547a.9.9 0 0 1-.386.375q-.26.135-.667.135h-.954v-.382h.94q.28 0 .45-.082a.52.52 0 0 0 .25-.231.8.8 0 0 0 .078-.362.8.8 0 0 0-.079-.366.53.53 0 0 0-.25-.242 1 1 0 0 0-.455-.087H54.5v3.116zm1.644-1.569.859 1.569h-.49l-.846-1.569zm1.427 1.569v-3.491h.423v1.732h.04l1.569-1.732h.552l-1.466 1.575 1.466 1.916h-.511l-1.214-1.623-.436.49v1.133zm-15.435 8.666v-.306l1.152-1.262a8 8 0 0 0 .334-.385q.132-.165.195-.31a.75.75 0 0 0 .065-.307.57.57 0 0 0-.328-.527.8.8 0 0 0-.34-.073.7.7 0 0 0-.352.083.57.57 0 0 0-.23.23.7.7 0 0 0-.08.348h-.402q0-.306.141-.538a1 1 0 0 1 .385-.362q.246-.13.551-.13t.544.13a1 1 0 0 1 .371.35q.135.22.135.489 0 .192-.07.377a1.7 1.7 0 0 1-.239.407 7 7 0 0 1-.468.545l-.784.839v.027h1.622v.375zm4.045.048a1.04 1.04 0 0 1-.656-.21 1.3 1.3 0 0 1-.414-.612 2.9 2.9 0 0 1-.144-.971q0-.566.144-.967.144-.402.415-.613.273-.213.655-.213t.653.213q.273.21.416.613.145.401.145.967 0 .57-.144.971a1.3 1.3 0 0 1-.414.612q-.271.21-.656.21m0-.375q.382 0 .593-.368.212-.369.212-1.05 0-.454-.098-.772a1.06 1.06 0 0 0-.276-.486.6.6 0 0 0-.431-.167q-.379 0-.592.373-.213.371-.213 1.052 0 .453.096.77.095.318.274.483t.435.165m1.861.327v-.306l1.153-1.262q.202-.222.334-.385.13-.165.194-.31a.75.75 0 0 0 .065-.307.57.57 0 0 0-.328-.527.8.8 0 0 0-.34-.073.7.7 0 0 0-.352.083.57.57 0 0 0-.23.23.7.7 0 0 0-.08.348h-.402q0-.306.141-.538a1 1 0 0 1 .386-.362q.245-.13.55-.13.307 0 .544.13a1 1 0 0 1 .372.35q.135.22.134.489 0 .192-.07.377a1.7 1.7 0 0 1-.238.407q-.17.223-.469.545l-.784.839v.027h1.623v.375zm3.998.048q-.3 0-.54-.12a1 1 0 0 1-.386-.327.9.9 0 0 1-.159-.473h.41a.56.56 0 0 0 .214.392.72.72 0 0 0 .46.153q.215 0 .382-.1a.7.7 0 0 0 .265-.277.8.8 0 0 0 .097-.4.8.8 0 0 0-.1-.408.74.74 0 0 0-.67-.39 1.1 1.1 0 0 0-.33.05.9.9 0 0 0-.278.127l-.395-.047.211-1.719h1.814v.375h-1.46l-.122 1.03h.02a1.02 1.02 0 0 1 .607-.198 1.07 1.07 0 0 1 .967.57q.145.264.145.603 0 .334-.15.597a1.1 1.1 0 0 1-.41.412q-.259.15-.593.15" style="fill:#fff;fill-opacity:1"/></g><defs><clipPath id="a"><path fill="#fff" d="M0 0h96.2v104H0z" style="fill:#fff;fill-opacity:1"/></clipPath></defs></svg>