<svg xmlns="http://www.w3.org/2000/svg" width="180" height="56" fill="none"><path fill="#A7A4B5" d="M131.741 32.281a3.25 3.25 0 0 0 .206-1.59 3.3 3.3 0 0 0-.58-1.504 3.8 3.8 0 0 0-1.171-.904 4 4 0 0 0-1.445-.406l-21.682-.238c-.124 0-.249-.119-.373-.119a.22.22 0 0 1-.094-.178.22.22 0 0 1 .094-.179c.124-.238.249-.357.498-.357L129 26.568a8.06 8.06 0 0 0 3.82-1.438 7.55 7.55 0 0 0 2.535-3.085l1.246-3.095c0-.119.124-.238 0-.357-.678-2.882-2.321-5.474-4.682-7.383s-5.309-3.028-8.397-3.19a14.7 14.7 0 0 0-8.711 2.295c-2.565 1.65-4.496 4.056-5.499 6.85a7.04 7.04 0 0 0-4.486-1.19 6.6 6.6 0 0 0-3.87 1.778 6.1 6.1 0 0 0-1.861 3.697 6.2 6.2 0 0 0 .124 2.142c-2.369.063-4.618 1.006-6.27 2.629-1.653 1.622-2.577 3.797-2.577 6.06-.02.44.022.88.125 1.31.005.093.047.18.116.246s.16.105.258.11h39.998c.249 0 .498-.118.498-.356zm6.854-13.331h-.623c-.124 0-.249.12-.374.238l-.872 2.857a3.26 3.26 0 0 0 .374 3.095c.325.371.723.678 1.172.903s.94.363 1.445.406l4.61.238c.125 0 .249.119.374.119q.043.031.069.079a.22.22 0 0 1-.069.278c-.125.238-.249.357-.499.357l-4.735.238a8.05 8.05 0 0 0-3.819 1.438 7.55 7.55 0 0 0-2.535 3.085l-.25 1.071c-.124.12 0 .357.25.357h16.447a.35.35 0 0 0 .281-.089.3.3 0 0 0 .08-.123.3.3 0 0 0 .013-.145 12.4 12.4 0 0 0 .499-3.094c-.02-2.993-1.274-5.859-3.489-7.975-2.216-2.117-5.215-3.314-8.349-3.333m13.458 21.425c-.222 0-.439-.062-.623-.18a1.1 1.1 0 0 1-.413-.481 1.03 1.03 0 0 1-.064-.619 1.05 1.05 0 0 1 .307-.548 1.14 1.14 0 0 1 .574-.294 1.17 1.17 0 0 1 .648.061c.205.081.38.219.503.395a1.03 1.03 0 0 1 .105 1.006q-.086.197-.243.348-.158.15-.364.232-.207.08-.43.08m0-1.904a.9.9 0 0 0-.485.14.85.85 0 0 0-.321.374.8.8 0 0 0 .189.908.91.91 0 0 0 .951.18.87.87 0 0 0 .391-.306.8.8 0 0 0 .147-.463.8.8 0 0 0-.249-.595.86.86 0 0 0-.623-.238m.498 1.428h-.249l-.249-.357h-.249v.357h-.25v-1.071h.623a.35.35 0 0 1 .281.09.3.3 0 0 1 .08.123.3.3 0 0 1 .013.144c0 .12-.124.238-.249.357zm-.374-.595c.125 0 .125 0 .125-.119a.1.1 0 0 0-.009-.046.1.1 0 0 0-.027-.039.1.1 0 0 0-.04-.026.1.1 0 0 0-.049-.008h-.373v.357h.373zm-111.77-1.071h2.74v7.141h4.736v2.262h-7.477zm10.342 4.642c0-.661.14-1.316.413-1.923a4.9 4.9 0 0 1 1.172-1.613c.5-.456 1.093-.81 1.742-1.042a5.3 5.3 0 0 1 2.03-.302 5.2 5.2 0 0 1 2.01.309c.64.233 1.224.59 1.715 1.047a4.8 4.8 0 0 1 1.137 1.612c.26.606.386 1.257.372 1.912a4.7 4.7 0 0 1-.413 1.923 4.9 4.9 0 0 1-1.172 1.613 5.2 5.2 0 0 1-1.742 1.041 5.3 5.3 0 0 1-2.031.303 5.3 5.3 0 0 1-1.998-.33 5.1 5.1 0 0 1-1.703-1.049 4.85 4.85 0 0 1-1.14-1.602 4.7 4.7 0 0 1-.392-1.9m7.85 0a2.35 2.35 0 0 0-.135-.974 2.4 2.4 0 0 0-.525-.845 2.6 2.6 0 0 0-.83-.579 2.7 2.7 0 0 0-1.002-.22 2.68 2.68 0 0 0-1.77.773 2.44 2.44 0 0 0-.723 1.726c0 .642.26 1.26.723 1.726a2.68 2.68 0 0 0 1.77.773c1.495.238 2.492-.952 2.492-2.38m6.105.595v-5.237h2.742v5.237c0 1.31.747 2.023 1.869 2.023.262.021.525-.015.77-.105a1.75 1.75 0 0 0 .646-.415 1.65 1.65 0 0 0 .392-.643c.079-.24.1-.493.06-.741v-5.356h2.742v5.237c0 3.095-1.869 4.404-4.61 4.404-2.866-.12-4.61-1.428-4.61-4.404m13.333-5.237H81.9c3.489 0 5.607 1.904 5.607 4.642 0 2.737-2.118 4.76-5.607 4.76h-3.738v-9.402zm3.863 7.022c.347.032.697-.006 1.028-.111s.636-.276.894-.5.464-.497.605-.802a2.3 2.3 0 0 0 0-1.935 2.4 2.4 0 0 0-.605-.802 2.5 2.5 0 0 0-.894-.5 2.6 2.6 0 0 0-1.028-.11h-1.122v4.76zm9.47-7.022h7.85v2.261h-5.109v1.548h4.61v2.142h-4.61v3.452H91.37zm11.713 0h2.741v7.141h4.735v2.262h-7.476zm14.579-.12h2.741l4.237 9.523h-2.991l-.748-1.667h-3.862l-.748 1.667h-2.866zm2.492 5.833-1.122-2.618-1.121 2.618zm7.975-5.713h4.61a4.5 4.5 0 0 1 1.738.21 4.3 4.3 0 0 1 1.502.861c.357.368.616.812.755 1.296.139.483.154.992.044 1.482a3.1 3.1 0 0 1-.676 1.335c-.334.386-.761.69-1.245.886l2.368 3.333h-3.115l-1.994-2.857h-1.246v2.857h-2.741zm4.485 4.523c.873 0 1.496-.476 1.496-1.071 0-.715-.623-1.072-1.496-1.072h-1.744v2.262h1.744zm8.1-4.523h7.974v2.142h-5.233v1.429h4.735v2.142h-4.735v1.428h5.358v2.262h-8.099zm-106.29 5.833c-.188.42-.5.78-.898 1.034-.399.253-.866.39-1.345.394a2.68 2.68 0 0 1-1.77-.773 2.44 2.44 0 0 1-.722-1.726c0-.643.259-1.26.723-1.726a2.68 2.68 0 0 1 1.77-.774 2.7 2.7 0 0 1 1.425.436c.42.275.748.661.942 1.112h2.866a4.9 4.9 0 0 0-1.864-2.88 5.3 5.3 0 0 0-3.37-1.048 5.4 5.4 0 0 0-2.019.323 5.2 5.2 0 0 0-1.73 1.044 5 5 0 0 0-1.175 1.602 4.8 4.8 0 0 0-.434 1.91c-.004.653.13 1.299.393 1.9a4.85 4.85 0 0 0 1.14 1.602 5.1 5.1 0 0 0 1.703 1.05 5.3 5.3 0 0 0 1.998.329 5.55 5.55 0 0 0 3.297-1.051 5.14 5.14 0 0 0 1.936-2.758z" style="fill:#a7a4b5;fill:color(display-p3 .6549 .6431 .7098);fill-opacity:1"/></svg>