<svg xmlns="http://www.w3.org/2000/svg" width="180" height="56" fill="none"><path fill="#A7A4B5" fill-rule="evenodd" d="M33.349 31.341v-.295l-2.498-2.15h-.29c-.688.76-1.748 1.328-2.934 1.328-1.852 0-3.31-1.412-3.31-3.35s1.458-3.35 3.31-3.35c1.186 0 2.246.568 2.933 1.327h.291l2.498-2.15v-.295c-1.312-1.601-3.371-2.633-5.702-2.633-4.286 0-7.532 3.034-7.532 7.1 0 .158.036.303.046.458 1.754 1.193 3.303 2.148 4.636 3.022 1.922 1.216 3.473 2.335 4.75 3.375a7.17 7.17 0 0 0 3.802-2.387m-11.671-.076c1 1.23 2.414 2.111 4.08 2.488-1.125-.633-2.216-1.254-3.23-1.942-.299-.185-.564-.363-.85-.546m26.126 1.805-.625-2.697-.228-.148c-.125.063-.229.148-.541.148-.48 0-.77-.506-1.02-.906-.416-.633-.75-.97-1.04-1.117 1.518-.674 2.538-1.939 2.538-3.751 0-2.803-1.914-4.573-5.472-4.573h-6.201v13.697h4.12V28.92h.374c.916 0 2.082 1.98 2.622 2.866 1.124 1.791 2.018 2.19 3.62 2.19.75 0 1.374-.273 1.749-.61zm-5.12-8.24c0 .907-.665 1.35-1.435 1.35h-1.914v-2.783h1.914c.77 0 1.436.507 1.436 1.434m21.037 2.048c0-4.067-3.246-7.102-7.553-7.102s-7.554 3.035-7.554 7.102c0 4.066 3.246 7.1 7.554 7.1s7.553-3.055 7.553-7.1m-4.204 0c0 1.96-1.498 3.35-3.35 3.35-1.851 0-3.35-1.39-3.35-3.35s1.499-3.35 3.35-3.35c1.852 0 3.35 1.39 3.35 3.35m13.385-6.849-2.565 7.539-2.43-7.54H63.97l-.183.317 5.033 13.38h2.498l2.833-7.463 2.844 7.463h2.497l5.043-13.38-.192-.316h-3.929l-2.44 7.587L75.4 20.03zm26.712 6.828c0-4.088-2.726-6.827-7.158-6.827h-6.305v13.697h6.305c4.432 0 7.158-2.74 7.158-6.87m-4.203.021c0 2.234-1.311 3.477-3.12 3.477h-2.02v-6.954h2.02c1.809 0 3.12 1.244 3.12 3.477m17.834-3.478h4.034v10.325h4.131V23.401h4.13V20.03h-12.295zm25.453 1.201c0-2.803-1.914-4.573-5.472-4.573h-6.201v13.697h4.12v-4.805h.978l2.559 4.805h4.1l.187-.316-2.747-5.078c1.477-.696 2.476-1.939 2.476-3.73m-4.203.231c0 .907-.666 1.349-1.436 1.349h-1.914V23.4h1.914c.77 0 1.436.507 1.436 1.433m6.701 8.893h4.131V20.03h-4.131zm10.855-8.828V20.03h-4.13v13.696h4.13v-4.217l.769-.883 3.458 5.1h4.322l.192-.317-4.995-7.252 4.611-5.811-.096-.316h-4.419zm14.022 5.457v-1.893h4.706v-3.165h-4.706v-1.896h6.147V20.03h-10.278v13.697h10.374v-3.371zm-59.456 3.531c3.018 0 5.637-1.474 5.637-4.318 0-3.098-2.64-3.9-4.971-4.574-.916-.273-1.853-.59-1.853-1.265 0-.485.52-.78 1.312-.78 1.353 0 2.497.844 3.079 1.392h.291l1.935-2.318v-.294c-1.019-1.159-3.099-2.043-5.389-2.043-3.204 0-5.429 1.727-5.429 4.234 0 2.698 2.453 3.878 4.534 4.468 1.353.38 2.271.443 2.271 1.18 0 .528-.647.844-1.647.844-1.27 0-2.808-.822-3.557-1.56h-.291l-1.913 2.402v.295c1.227 1.369 3.431 2.337 5.991 2.337M35.557 46.479c-.998-2.284-3.003-5.215-10.855-9.4-3.62-2.013-9.807-5.113-15.368-11.008.504 2.127 3.088 6.8 14.197 12.631 3.077 1.684 8.281 3.263 12.026 7.77" clip-rule="evenodd" style="fill:#a7a4b5;fill:color(display-p3 .6549 .6431 .7098);fill-opacity:1"/><path fill="#A7A4B5" fill-rule="evenodd" d="M35.058 42.57c-.947-2.7-2.657-6.156-10.768-11.287-3.949-2.588-9.75-5.837-17.376-14.12.546 2.233 2.957 8.04 15.11 15.58 3.991 2.705 9.144 4.373 13.034 9.826" clip-rule="evenodd" style="fill:#a7a4b5;fill:color(display-p3 .6549 .6431 .7098);fill-opacity:1"/></svg>