<svg xmlns="http://www.w3.org/2000/svg" width="180" height="56" fill="none"><path fill="#A7A4B5" d="M81.184 28.72c0 5.664-4.43 9.838-9.87 9.838-5.437 0-9.869-4.174-9.869-9.839 0-5.704 4.432-9.838 9.87-9.838s9.87 4.134 9.87 9.838m-4.32 0c0-3.54-2.568-5.962-5.55-5.962-2.98 0-5.548 2.422-5.548 5.961 0 3.505 2.568 5.962 5.549 5.962 2.98 0 5.549-2.462 5.549-5.962m25.61.002c0 5.664-4.43 9.838-9.87 9.838-5.437 0-9.869-4.174-9.869-9.839 0-5.7 4.432-9.838 9.87-9.838s9.869 4.134 9.869 9.838m-4.32 0c0-3.54-2.568-5.962-5.55-5.962-2.98 0-5.548 2.422-5.548 5.961 0 3.505 2.568 5.962 5.549 5.962 2.98 0 5.549-2.462 5.549-5.962m24.725-9.243v17.663c0 7.266-4.285 10.234-9.35 10.234-4.769 0-7.639-3.19-8.721-5.798l3.762-1.566c.669 1.602 2.311 3.491 4.954 3.491 3.243 0 5.252-2 5.252-5.766v-1.415h-.151c-.967 1.193-2.83 2.235-5.181 2.235-4.919 0-9.425-4.285-9.425-9.798 0-5.554 4.506-9.874 9.425-9.874 2.347 0 4.21 1.042 5.181 2.2h.151V19.48h4.103zm-3.797 9.28c0-3.464-2.311-5.997-5.252-5.997-2.98 0-5.478 2.533-5.478 5.997 0 3.429 2.498 5.926 5.478 5.926 2.941 0 5.252-2.497 5.252-5.926m10.561-19.633v28.832h-4.214V9.122zm16.422 22.836 3.353 2.235c-1.082 1.601-3.69 4.36-8.197 4.36-5.589 0-9.763-4.32-9.763-9.838 0-5.85 4.21-9.838 9.28-9.838 5.105 0 7.602 4.063 8.419 6.258l.448 1.118-13.152 5.447c1.007 1.974 2.572 2.981 4.768 2.981 2.2 0 3.726-1.082 4.844-2.723m-10.322-3.54 8.792-3.65c-.484-1.23-1.939-2.086-3.651-2.086-2.196 0-5.252 1.939-5.141 5.736m-90.25-2.258v-4.174H59.56c.137.727.208 1.588.208 2.52 0 3.131-.856 7.003-3.615 9.763-2.684 2.794-6.112 4.284-10.654 4.284-8.42 0-15.499-6.857-15.499-15.276S37.08 8 45.499 8c4.657 0 7.975 1.828 10.468 4.21l-2.945 2.945c-1.788-1.677-4.21-2.981-7.528-2.981-6.148 0-10.956 4.955-10.956 11.103s4.808 11.102 10.956 11.102c3.988 0 6.259-1.6 7.714-3.056 1.18-1.18 1.956-2.865 2.262-5.167z" style="fill:#a7a4b5;fill:color(display-p3 .6549 .6431 .7098);fill-opacity:1"/></svg>