<svg xmlns="http://www.w3.org/2000/svg" width="24" height="24" fill="none"><g clip-path="url(#a)"><path fill="#A7A4B5" d="M19.79 0A4.21 4.21 0 0 1 24 4.21v4.488a5 5 0 0 0-.304-.01h-.022c-.537 0-1.196.13-1.664.367a3.9 3.9 0 0 0-1.395 1.1c-.63.78-1.011 1.836-1.104 3.022l-.009.106-.006.102a7 7 0 0 0-.008.5c.063 2.686 1.514 4.832 4.09 4.832q.217 0 .422-.02v1.092A4.21 4.21 0 0 1 19.79 24H4.21A4.21 4.21 0 0 1 0 19.79V4.21A4.21 4.21 0 0 1 4.21 0zM4.406 5.583v.146l.02.004c.705.16 1.063.398 1.063 1.254v10.026c0 .856-.36 1.093-1.065 1.253l-.019.005v.146h2.826v-.147l-.018-.003c-.706-.16-1.065-.397-1.065-1.253V7.568l4.61 10.849h.262l4.745-11.151v9.995c-.06.676-.415.885-1.054 1.029l-.019.005v.145h4.922v-.145l-.018-.005c-.64-.144-1.003-.353-1.064-1.03L18.53 6.988h.003c0-.856.358-1.094 1.064-1.254l.018-.004v-.146H15.75l-3.589 8.435-3.589-8.435zM24 16.518c-1.343-.396-2.303-1.88-2.204-3.635H24zm-.342-7.267q.181.004.342.048v3.076h-2.155c.08-1.801.728-3.102 1.813-3.124" style="fill:#a7a4b5;fill:color(display-p3 .6549 .6431 .7098);fill-opacity:1"/></g><defs><clipPath id="a"><path fill="#fff" d="M0 0h24v24H0z" style="fill:#fff;fill-opacity:1"/></clipPath></defs></svg>