<svg xmlns="http://www.w3.org/2000/svg" width="66" height="40" fill="none"><path fill="#6D697D" d="M6.549 13.329V7.875H.32v5.454zM.321 15.44v16.685h6.228V15.44zm16.799-2.111V7.875h-6.227v5.454zm-6.227 2.111v16.685h6.228V15.44zm15.967 0v16.685h6.228V15.44zm-6.77-7.565v5.454h19.733V7.875zm42.268 3.273q-3.64-3.273-9.431-3.273H42.789v5.454h10.174q3.187 0 4.924 1.854t1.738 4.799q0 2.8-1.81 4.744-1.811 1.945-4.888 1.945h-3.91V15.44h-6.228v16.684h10.174q5.758 0 9.396-3.29 3.64-3.29 3.64-8.853t-3.64-8.834" style="fill:#6d697d;fill:color(display-p3 .4275 .4118 .4902);fill-opacity:1"/></svg>