<svg xmlns="http://www.w3.org/2000/svg" width="166" height="40" fill="none"><path fill="#6D697D" d="M85.698 21.899v-.005h-4.115v5.192q0 .743.087 1.21.086.471.317.732c.155.177.376.288.665.346.285.057.656.086 1.099.086h2.308l-.52 2.64h-2.01q-1.556 0-2.563-.222c-.665-.149-1.19-.409-1.585-.779-.386-.37-.656-.87-.8-1.495-.14-.624-.222-1.403-.222-2.345V16.265l3.224-.52v3.515h4.63zm7.767 7.662c-.574 0-1.06-.034-1.45-.115q-.584-.108-.916-.447c-.222-.221-.376-.543-.467-.976-.092-.423-.135-.99-.135-1.678V25.01c0-.692.043-1.255.13-1.678.087-.432.236-.76.462-.976.222-.22.526-.37.901-.447a8 8 0 0 1 1.484-.115 71 71 0 0 1 3.055.077l.52-2.591a124 124 0 0 0-3.642-.077c-1.137 0-2.1.106-2.881.313-.79.206-1.422.538-1.908 1-.492.46-.839 1.062-1.05 1.807q-.32 1.119-.319 2.692v1.336c0 1.067.101 1.976.313 2.706.207.731.554 1.332 1.046 1.793.491.462 1.123.794 1.908 1 .78.207 1.754.313 2.91.313.395 0 .897-.005 1.484-.015a90 90 0 0 0 1.682-.033l.52-2.591c-.53.014-1.122.029-1.782.033-.694 0-1.301.005-1.865.005m61.684-7.82q.27.868.27 1.912v.409q0 .839-.101 1.375c-.063.355-.178.63-.332.827a1.1 1.1 0 0 1-.603.394c-.25.062-.554.1-.915.1h-6.437q0 .895.101 1.457c.072.385.207.678.409.894q.311.317.853.447c.362.077.839.12 1.436.12h1.98a92 92 0 0 0 2.747-.047l-.496 2.47c-.463.015-.873.03-1.234.034s-.708.014-1.05.014h-2.096q-1.756 0-2.896-.399c-.761-.269-1.354-.644-1.797-1.139a4.1 4.1 0 0 1-.916-1.812c-.178-.716-.26-1.538-.26-2.457v-1.38c0-.99.087-1.86.27-2.619.178-.76.496-1.394.949-1.913.453-.524 1.065-.913 1.831-1.178s1.739-.394 2.91-.394c1.084 0 1.995.12 2.713.36s1.291.572 1.73 1q.645.65.934 1.524m-2.804 2.114q0-.72-.13-1.211a1.6 1.6 0 0 0-.419-.793q-.295-.296-.814-.433c-.347-.091-.781-.134-1.292-.134q-.84-.001-1.363.134-.52.136-.815.495c-.197.24-.332.558-.395.962-.062.403-.101.923-.101 1.543h5.329zm-92.233 2.86-8.446-12.21h-2.848v17.6h3.296v-12.11l8.398 12.11h2.877v-17.6h-3.272v12.21zM76.38 21.74c.178.582.27 1.216.27 1.913v.409q0 .839-.102 1.375c-.062.355-.178.63-.332.827a1.13 1.13 0 0 1-.612.394c-.25.062-.554.1-.915.1H68.25q0 .895.102 1.457c.072.385.207.678.41.894q.309.317.852.447c.361.077.838.12 1.436.12h1.98q1.106.001 2.747-.047l-.497 2.47c-.462.015-.872.03-1.233.034s-.709.014-1.05.014H70.9q-1.754 0-2.895-.399c-.762-.269-1.354-.644-1.798-1.139a4.1 4.1 0 0 1-.915-1.812c-.178-.716-.265-1.538-.265-2.457v-1.38c0-.99.087-1.86.27-2.619.178-.76.496-1.394.949-1.913.453-.524 1.065-.913 1.83-1.178.767-.264 1.74-.394 2.911-.394 1.084 0 1.995.12 2.713.36s1.291.572 1.73 1c.448.433.751.942.949 1.524m-2.81 2.115c0-.48-.033-.884-.12-1.211a1.6 1.6 0 0 0-.419-.793q-.294-.296-.814-.433c-.347-.091-.78-.134-1.291-.134q-.842-.001-1.364.134-.52.136-.814.495c-.198.24-.333.558-.395.962-.063.403-.102.923-.102 1.543h5.325v-.563zm52.704 5.706c-.573 0-1.055-.034-1.45-.115q-.585-.108-.916-.447c-.221-.221-.376-.543-.467-.976-.092-.423-.135-.99-.135-1.678V25.01c0-.692.043-1.255.13-1.678.087-.432.236-.76.463-.976.221-.22.525-.37.901-.447a8 8 0 0 1 1.484-.115 71 71 0 0 1 3.045.077l.52-2.591a124 124 0 0 0-3.642-.077q-1.709.001-2.882.313c-.79.206-1.421.538-1.908 1-.491.46-.838 1.062-1.05 1.807q-.318 1.119-.318 2.692v1.336c0 1.067.101 1.976.313 2.706.207.731.554 1.332 1.045 1.793.492.462 1.123.794 1.909 1 .78.207 1.753.313 2.91.313.395 0 .896-.005 1.484-.015a91 91 0 0 0 1.682-.033l.52-2.591c-.525.014-1.123.029-1.783.033-.684 0-1.296.005-1.855.005m17.418-10.31h-3.888l-4.876 4.864v-9.177h-3.224v17.166h3.224v-5.932l5.324 5.937h4.009l-6.486-7.12zm-39.833-.049q-1.237-.001-2.207.236c-.645.154-1.185.408-1.633.76-.448.345-.78.797-1.017 1.374-.236.567-.347 1.269-.347 2.091v8.446h3.224v-7.932c0-.399.019-.735.062-1.028.044-.289.14-.53.314-.717.163-.192.395-.331.693-.432.299-.101.709-.15 1.243-.15q.399 0 .993.015c.395.005.761.02 1.094.034l.52-2.668a39 39 0 0 0-1.315-.029zm60.143 0h-1.61c-.823 0-1.561.077-2.206.236-.646.154-1.186.408-1.634.76-.448.345-.78.797-1.016 1.374-.237.567-.347 1.269-.347 2.091v8.446h3.223v-7.932c0-.399.019-.735.063-1.028.043-.289.14-.53.313-.717.164-.192.395-.331.694-.432s.708-.15 1.243-.15q.398 0 .993.015c.395.005.761.02 1.084.034l.52-2.668a38 38 0 0 0-1.32-.029M118.352 23.6v6.177c0 .87-.198 1.471-.598 1.813-.395.341-1.084.51-2.057.51h-4.038c-1.768 0-3.026-.332-3.754-.991-.732-.659-1.098-1.6-1.098-2.84v-.544c0-1.375.405-2.365 1.214-2.98q1.213-.926 3.792-.928c.858 0 1.576.072 2.144.211.574.14 1.003.298 1.277.481v-.447c0-.447-.043-.812-.135-1.11a1.4 1.4 0 0 0-.462-.702c-.212-.178-.511-.298-.882-.36a8.6 8.6 0 0 0-1.397-.102h-1.046q-.565 0-1.152.015c-.385.014-.775.019-1.151.028-.386.005-.733.015-1.046.015l.521-2.591a70 70 0 0 1 1.729-.034c.694-.005 1.456-.014 2.28-.014q3.021.002 4.437 1.062c.94.702 1.417 1.822 1.422 3.332m-3.137 6.182v-2.004q0-.448-.087-.76a.9.9 0 0 0-.356-.505c-.179-.13-.439-.225-.767-.283-.332-.058-.766-.087-1.315-.087h-.371c-.944 0-1.585.116-1.908.346q-.497.352-.496 1.26v.466q0 .794.462 1.178.458.383 1.696.384h3.142zM15.542 16.15l-6.91 17.045H5.068l7.406-18.271a5.93 5.93 0 0 1 5.517-3.711 5.92 5.92 0 0 1 5.517 3.71l4.428 10.942-1.783 4.403-5.714-14.109a2.63 2.63 0 0 0-2.448-1.648 2.62 2.62 0 0 0-2.448 1.639m2.448-6.047a7.03 7.03 0 0 1 6.539 4.398l4.004 9.888 1.782-4.403-2.722-6.725a10.31 10.31 0 0 0-9.598-6.46c-4.245-.001-8.013 2.532-9.598 6.46L.32 33.195h3.566l7.574-18.694a7.01 7.01 0 0 1 6.529-4.398m1.426 6.46c-.52-1.274-2.327-1.274-2.847 0L9.832 33.195h3.566l4.592-11.344 3.537 8.739a2.42 2.42 0 0 0 3.907.846zM36.17 8.458l-9.131 22.54a3.52 3.52 0 0 1-3.267 2.202h5.797c2.25 0 4.264-1.36 5.112-3.442l8.625-21.3z" style="fill:#6d697d;fill:color(display-p3 .4275 .4118 .4902);fill-opacity:1"/></svg>