<svg xmlns="http://www.w3.org/2000/svg" width="175" height="40" fill="none"><path fill="#6D697D" d="M15.036 27.836v-5.222h-4.414v5.221H7.248l4.098 4.122a2.1 2.1 0 0 0 2.981 0l4.098-4.122zm-9.999-2.224V14.38L.94 18.5a2.126 2.126 0 0 0 0 2.998zm5.585-13.448v5.222h4.414v-5.222h3.374l-4.098-4.12a2.1 2.1 0 0 0-2.981 0l-4.098 4.12zm14.089 6.337-4.098-4.121v11.232L24.71 21.5a2.126 2.126 0 0 0 0-2.998m24.458-6.349v15.694h-6.825L38.325 15.88h-.235v11.966h-4.125V16.23h-2.22v-4.078h7.836c.365-.01.723.1 1.02.313.29.197.505.486.608.822l3.625 10.83h.235V12.154zm14.514 7.81v.006-.01z" style="fill:#6d697d;fill:color(display-p3 .4275 .4118 .4902);fill-opacity:1"/><path fill="#6D697D" fill-rule="evenodd" d="M51.828 19.97a7.9 7.9 0 0 0 1.092 4.107 8 8 0 0 0 2.976 2.912 8.2 8.2 0 0 0 4.171 1.079 8.13 8.13 0 0 0 4.135-1.079 7.9 7.9 0 0 0 2.946-2.922 8.04 8.04 0 0 0 1.072-4.108 7.96 7.96 0 0 0-1.072-4.078 7.76 7.76 0 0 0-2.961-2.927 8.26 8.26 0 0 0-4.135-1.027 8.36 8.36 0 0 0-4.171 1.058 7.9 7.9 0 0 0-2.96 2.907 7.83 7.83 0 0 0-1.093 4.077m11.61 1.446c.176-.464.259-.957.243-1.453a3.67 3.67 0 0 0-1.051-2.644 3.48 3.48 0 0 0-2.578-1.078 3.6 3.6 0 0 0-2.604 1.053 3.6 3.6 0 0 0-1.072 2.665 3.73 3.73 0 0 0 1.072 2.706 3.54 3.54 0 0 0 2.63 1.1 3.42 3.42 0 0 0 2.577-1.1c.341-.36.608-.785.784-1.25" clip-rule="evenodd" style="fill:#6d697d;fill:color(display-p3 .4275 .4118 .4902);fill-opacity:1"/><path fill="#6D697D" d="m74.029 27.847-5.656-15.694h4.757l4.018 11.688h.235l4.058-11.688h4.64l-5.696 15.694z" style="fill:#6d697d;fill:color(display-p3 .4275 .4118 .4902);fill-opacity:1"/><path fill="#6D697D" fill-rule="evenodd" d="m96.139 24.981.974 2.866h4.799l-6.044-15.694h-5.58l-6.08 15.694h4.595l1.02-2.866zm-1.21-3.533h-3.86l1.833-5.253h.235zm29.512-4.118a4.8 4.8 0 0 1-.37 2.062 4.8 4.8 0 0 1-1.208 1.707 6.07 6.07 0 0 1-4.197 1.412h-4.017v5.336h-4.441V16.23h-2.221v-4.077h10.685a6.07 6.07 0 0 1 4.196 1.412 4.8 4.8 0 0 1 1.573 3.765m-4.952 1.099a1.42 1.42 0 0 0 .435-1.027 1.43 1.43 0 0 0-.435-1.028 1.6 1.6 0 0 0-1.133-.39h-3.707v2.824h3.707c.411.024.817-.112 1.133-.38m6.335 1.542a7.96 7.96 0 0 0 1.092 4.107 8.04 8.04 0 0 0 2.966 2.902 8.54 8.54 0 0 0 8.306 0 7.9 7.9 0 0 0 2.97-2.965 8 8 0 0 0 1.048-4.076 8 8 0 0 0-1.072-4.077 7.8 7.8 0 0 0-2.946-2.907 8.68 8.68 0 0 0-8.306 0 7.93 7.93 0 0 0-2.966 2.938 7.9 7.9 0 0 0-1.092 4.077m11.6-1.435c.181.454.269.94.259 1.428v-.004.01-.006c.013.5-.073.997-.254 1.462a3.7 3.7 0 0 1-.803 1.25 3.42 3.42 0 0 1-2.552 1.1 3.52 3.52 0 0 1-2.63-1.1 3.7 3.7 0 0 1-1.071-2.706 3.6 3.6 0 0 1 1.071-2.665 3.6 3.6 0 0 1 2.63-1.063 3.45 3.45 0 0 1 2.552 1.078c.345.347.617.76.798 1.216" clip-rule="evenodd" style="fill:#6d697d;fill:color(display-p3 .4275 .4118 .4902);fill-opacity:1"/><path fill="#6D697D" d="M143.722 22.901h4.595q.583 1.372 2.92 1.372a4.6 4.6 0 0 0 1.894-.314c.454-.205.684-.482.684-.821a.985.985 0 0 0-.705-.925 11 11 0 0 0-2.731-.513q-3.002-.315-4.64-1.649a4.16 4.16 0 0 1-1.634-3.374 4.05 4.05 0 0 1 1.889-3.471q1.89-1.32 4.973-1.315a8.64 8.64 0 0 1 5.105 1.392 5.4 5.4 0 0 1 2.317 3.785h-5.018a1.63 1.63 0 0 0-.842-.96 3.5 3.5 0 0 0-1.619-.335q-2.297 0-2.297 1.064-.001.506.664.744c.749.212 1.52.343 2.297.39q3.317.32 5.034 1.608a4.36 4.36 0 0 1 1.713 3.644 4.37 4.37 0 0 1-1.989 3.5q-1.992 1.335-5.264 1.33a8.5 8.5 0 0 1-4.972-1.372 5.6 5.6 0 0 1-1.574-1.643 5.7 5.7 0 0 1-.8-2.137m25.33-6.352h5.269v-4.396h-14.978v4.396h5.263v11.298h4.446z" style="fill:#6d697d;fill:color(display-p3 .4275 .4118 .4902);fill-opacity:1"/></svg>