<svg xmlns="http://www.w3.org/2000/svg" width="143" height="40" fill="none"><path fill="#6D697D" fill-rule="evenodd" d="M137.466 16.137c-1.872 0-3.584.847-5.169 2.133l-.349-1.757h-2.791v14.843h3.298V20.781c1.206-1.004 2.568-1.79 3.964-1.79 1.999 0 2.442 1.57 2.442 3.516v8.85h3.299v-9.885c0-4.08-2.316-5.335-4.694-5.335m-18.27 12.865c-2.506 0-3.933-2.134-3.933-5.114 0-2.95 1.427-5.085 3.933-5.085s3.902 2.135 3.902 5.084c0 2.981-1.396 5.115-3.902 5.115m0-12.865c-4.408 0-7.325 3.326-7.325 7.75 0 4.426 2.949 7.782 7.325 7.782s7.294-3.357 7.294-7.782-2.918-7.75-7.294-7.75m-13.34 12.865c-2.726 0-4.503-1.82-4.503-5.052 0-2.949 1.777-5.146 4.694-5.146 1.458 0 2.6.408 3.647 1.098v-2.793c-.856-.501-2.189-.973-3.964-.973-4.504 0-7.77 3.39-7.77 7.908 0 4.268 2.664 7.625 7.452 7.625 1.966 0 3.807-.627 4.948-1.412l-.952-2.258c-1.047.564-2.093 1.003-3.552 1.003m-10.708-.28c-.73 0-1.11-.315-1.11-1.414V9.139H90.74v19.079c0 2.166 1.142 3.357 3.456 3.357.793 0 1.776-.156 2.57-.502l-.667-2.541c-.285.095-.73.19-.95.19m-11.236-1.07c-.603.535-1.744 1.414-3.267 1.414-1.49 0-2.441-.879-2.441-2.291 0-.848.348-1.507 1.046-1.883.572-.314 1.332-.471 2.41-.502l2.252-.095zm3.298-6.212c0-3.61-2.092-5.303-5.803-5.303a11.33 11.33 0 0 0-5.646 1.475l1.142 2.165c1.047-.596 2.41-1.099 3.996-1.099 1.777 0 3.013.817 3.013 2.762v.628l-2.696.093c-1.522.064-2.79.251-3.837.786-1.522.752-2.505 2.039-2.505 4.015 0 2.856 2.062 4.707 4.884 4.707 1.87 0 3.267-.783 4.375-1.82l.54 1.507h2.823c-.222-.784-.285-2.07-.285-4.205zm-15.487-9.477c.602 0 1.205.157 1.808.376l.665-2.604a7.3 7.3 0 0 0-2.885-.596c-2.728 0-4.821 1.6-4.821 5.147v2.227h-2.156v2.574h2.156v12.27h3.299v-12.27h3.043l.825-2.574H69.79v-2.291c0-1.443.602-2.26 1.933-2.26M59.43 29.003c-.983 0-1.49-.534-1.49-1.882v-8.034h3.679l.824-2.574H57.94v-4.425l-3.297 1.005v3.42H52.01v2.574h2.633v8.754c0 2.416 1.49 3.828 3.995 3.828 1.491 0 3.14-.438 4.187-1.161l-1.047-2.26c-.602.41-1.427.754-2.347.754M43.435 20.31c0-1.162 1.047-1.57 2.38-1.57 1.553 0 2.853.408 4.026.91v-2.79c-1.14-.44-2.57-.723-4.154-.723-3.456 0-5.487 1.852-5.487 4.363 0 4.926 7.04 3.954 7.04 6.714 0 1.319-1.236 1.853-2.822 1.853-1.585 0-2.95-.534-3.995-1.193l-1.016 2.416c1.143.69 2.95 1.38 5.17 1.38 3.172 0 5.93-1.348 5.93-4.518 0-5.146-7.072-4.143-7.072-6.84m-19.171 3.781-5.725-9.21.554-1.302-.554-4.932L28.605 20l-1.57 3.444z" clip-rule="evenodd" style="fill:#6d697d;fill:color(display-p3 .4275 .4118 .4902);fill-opacity:1"/><path fill="#6D697D" fill-rule="evenodd" d="M9.672 18.325.509 7.17l-.35-2.521 17.456 10.606 6.65 8.838 2.77-.65 2.586-.093 2.494 2.138-1.386.373-3.325 2.885-2.123.65-5.82 2.235-7.388.557-2.586 1.302-1.108-.372-4.803 2.233-.923-.372 11.36-6.606z" clip-rule="evenodd" style="fill:#6d697d;fill:color(display-p3 .4275 .4118 .4902);fill-opacity:1"/></svg>