<svg xmlns="http://www.w3.org/2000/svg" width="129" height="40" fill="none"><path fill="#6D697D" d="M77.462 10.473v8.781c0 3.598-1.48 5.309-3.99 5.309-2.285 0-3.29-1.334-3.29-3.85v-10.24h-6.4V21.82c0 4.882 2.208 7.926 7.078 7.926 3.289 0 5.397-1.56 6.602-4v3.396h6.402v-18.67zm21.865 8.454-.025-.076c0 .177.025.328.025.529 0 3.02-1.054 4.529-4.167 4.529-3.213 0-4.443-1.258-4.443-4.53 0-3.17 1.205-4.453 4.343-4.478l4.267.05L96.04 9.92h-3.09c-6.15 0-8.635 4.303-8.635 9.335 0 4.932 2.485 9.335 8.635 9.335 3.063 0 5.096-1.057 6.376-2.843v3.32c0 2.492-1.305 3.548-4.142 3.548-2.761 0-3.941-1.132-4.167-2.767h-6.225c.25 4.026 3.087 7.573 10.066 7.573 7.882 0 10.869-3.321 10.869-9.36V10.473h-6.4zm20.459-9.058c-3.163 0-5.297 1.208-6.552 3.17V3h-6.401v26.142h6.401v-9.334c0-3.322 1.13-4.932 4.393-4.932 3.163 0 4.293 1.46 4.293 4.932s-1.13 4.931-4.293 4.931h-4.393l3.916 5.007h2.636c6.1 0 8.535-4.63 8.535-9.964 0-5.208-2.435-9.913-8.535-9.913M28.16 20.462c2.51-1.988 3.866-4.705 3.866-7.926 0-.83-.15-1.887-.326-2.541.878.83 1.08 2.138 1.08 3.296v.05c0 3.322-1.482 6.215-3.892 8.152l-.05.026c-2.334 1.862-3.665 4.654-3.665 7.8 0 .15 0 .276.026.427.075 2.139 1.029 4.051 2.46 5.435a6.7 6.7 0 0 1-.502-2.566 6.75 6.75 0 0 1 3.087-5.662 13.4 13.4 0 0 0 6.125-11.272c0-4.906-2.636-9.183-6.552-11.524v.554c0 4.076-1.631 7.599-4.468 10.266l-.1.1c-2.084 1.912-3.54 4.705-3.54 7.825 0 2.214.753 4.252 1.908 5.964.025-3.9 1.957-6.442 4.543-8.404" style="fill:#6d697d;fill:color(display-p3 .4275 .4118 .4902);fill-opacity:1"/><path fill="#6D697D" d="m23.39 32.64-1.656-2.441c-1.506-2.24-2.31-4.73-2.31-7.272 0-3.547 1.557-7.045 4.293-9.56l.1-.076c2.435-2.29 3.716-5.234 3.716-8.53v-.704L.32 19.782 23.617 33.27a3 3 0 0 1-.226-.63M36.67 7.957c1.305 2.34 2.059 5.007 2.059 7.75 0 5.333-2.636 10.24-7.08 13.159l-.025.025-.1.075a4.36 4.36 0 0 0-2.008 3.674c0 .578.1 1.132.326 1.66l.427 1.007 26.86-15.55z" style="fill:#6d697d;fill:color(display-p3 .4275 .4118 .4902);fill-opacity:1"/></svg>