<svg xmlns="http://www.w3.org/2000/svg" width="24" height="24" fill="none"><path fill="#A7A4B5" d="M5.202 2.902c2.752 2.036 5.712 6.164 6.798 8.38v5.85c0-.124-.049.017-.154.32-.567 1.642-2.781 8.05-7.846 2.927-2.666-2.697-1.432-5.394 3.422-6.208-2.777.466-5.899-.304-6.755-3.321C.42 9.982 0 4.635 0 3.913c0-3.617 3.217-2.48 5.202-1.011m13.596 0c-2.752 2.036-5.712 6.164-6.798 8.38v5.85c0-.124.049.017.154.32.567 1.642 2.781 8.05 7.846 2.927 2.666-2.697 1.432-5.394-3.422-6.208 2.777.466 5.899-.304 6.755-3.321.247-.868.667-6.215.667-6.937 0-3.617-3.217-2.48-5.202-1.011" style="fill:#a7a4b5;fill:color(display-p3 .6549 .6431 .7098);fill-opacity:1"/></svg>