<svg xmlns="http://www.w3.org/2000/svg" width="24" height="24" fill="none"><path fill="#A7A4B5" d="M12.53 15.529c2.12 0 3.84-1.713 3.84-3.825a3.83 3.83 0 0 0-3.84-3.825 3.83 3.83 0 0 0-3.84 3.825 3.83 3.83 0 0 0 3.84 3.825" style="fill:#a7a4b5;fill:color(display-p3 .6549 .6431 .7098);fill-opacity:1"/><path fill="#A7A4B5" d="M12.73 18.06c1.675 0 3.205-.576 4.36-1.611l.808-.72 3.638 3.567-.866.805c-2.079 1.927-4.908 2.991-7.94 2.991a11.3 11.3 0 0 1-4.432-.819 11.3 11.3 0 0 1-3.754-2.484 11.2 11.2 0 0 1-2.476-3.753 11.2 11.2 0 0 1-.8-4.419C1.269 5.062 6.09.287 12.73.287a11.75 11.75 0 0 1 7.882 2.962l.895.805-3.58 3.566-.808-.69c-1.184-1.035-2.743-1.582-4.389-1.582-3.782 0-6.409 2.588-6.409 6.298a6.2 6.2 0 0 0 1.813 4.587 6.24 6.24 0 0 0 4.596 1.826" style="fill:#a7a4b5;fill:color(display-p3 .6549 .6431 .7098);fill-opacity:1"/></svg>