<svg xmlns="http://www.w3.org/2000/svg" width="28" height="28" fill="none"><path stroke="#7C5CFF" stroke-linecap="round" stroke-linejoin="round" stroke-width="2" d="M5.25 25.667v-5.834m0-11.666V2.333M2.333 5.25h5.834m-5.834 17.5h5.834m7-19.25-2.024 5.26c-.329.856-.493 1.284-.749 1.643a3.5 3.5 0 0 1-.824.824c-.36.256-.788.42-1.643.75L4.667 14l5.26 2.023c.855.33 1.283.494 1.643.75a3.5 3.5 0 0 1 .824.824c.256.36.42.787.75 1.643l2.023 5.26 2.023-5.26c.329-.856.493-1.283.75-1.643.226-.32.505-.598.823-.825.36-.255.788-.42 1.643-.749L25.666 14l-5.26-2.023c-.855-.33-1.283-.494-1.643-.75a3.5 3.5 0 0 1-.824-.824c-.256-.36-.42-.787-.75-1.643z" style="stroke:#7c5cff;stroke:color(display-p3 .4863 .3608 1);stroke-opacity:1"/></svg>