<svg xmlns="http://www.w3.org/2000/svg" width="1088" height="612" fill="none"><defs><style>@keyframes ripple{0%{opacity:.8;transform:scale(.3)}50%{opacity:.4}to{opacity:0;transform:scale(2)}}@keyframes pulse-glow{0%,to{filter:drop-shadow(0 0 8px rgba(109,74,255,.6))}50%{filter:drop-shadow(0 0 16px rgba(109,74,255,.9))}}.pulse-ring{transform-origin:center;transform-box:fill-box}</style></defs><rect width="1087" height="611" x=".5" y=".5" fill="#1E1C26" rx="7.5" style="fill:#1e1c26;fill:color(display-p3 .1176 .1098 .149);fill-opacity:1"/><rect width="1087" height="611" x=".5" y=".5" stroke="#343140" rx="7.5" style="stroke:#343140;stroke:color(display-p3 .2039 .1922 .251);stroke-opacity:1"/><path fill="#343140" d="M543 551.5a.5.5 0 0 0 1 0zm1-487a.5.5 0 0 0-1 0zm368 487a.5.5 0 0 0 1 0zm1-487a.5.5 0 0 0-1 0zm-124 487a.5.5 0 0 0 1 0zm1-487a.5.5 0 0 0-1 0zm-124 487a.5.5 0 0 0 1 0zm1-487a.5.5 0 0 0-1 0zm-615.5 487H51v.5h.5zm122.5 0a.5.5 0 0 0 1 0zm1-487a.5.5 0 0 0-1 0zm122 487a.5.5 0 0 0 1 0zm1-487a.5.5 0 0 0-1 0zm122 487a.5.5 0 0 0 1 0zm1-487a.5.5 0 0 0-1 0zM51.5 307a.5.5 0 0 0 0 1zm984 1c.28 0 .5-.224.5-.5s-.22-.5-.5-.5zm-984-62a.5.5 0 0 0 0 1zm984 1c.28 0 .5-.224.5-.5s-.22-.5-.5-.5zm0 305c.28 0 .5-.224.5-.5s-.22-.5-.5-.5zM52 185a.5.5 0 0 0 0 1zm983.5 1c.28 0 .5-.224.5-.5s-.22-.5-.5-.5zM52 490a.5.5 0 0 0 0 1zm983.5 1c.28 0 .5-.224.5-.5s-.22-.5-.5-.5zm-492 60.5h.5v-487h-1v487zm492 1.5h.5V64h-1v489zm-123-1.5h.5v-487h-1v487zm-123 0h.5v-487h-1v487zm-123 0h.5v-487h-1v487zm-615 0h.5V64h-1v487.5zm123 0h.5v-487h-1v487zm123 0h.5v-487h-1v487zm123 0h.5v-487h-1v487zm-369-244v.5h984v-1h-984zm0-61v.5h984v-1h-984zm0 305v.5h984v-1h-984zm.5-366v.5h983.5v-1H52zm0 305v.5h983.5v-1H52zm-.5-366v.5h984v-1h-984zm0 305v.5h984v-1h-984zm-.5-366v.5h985v-1H51zm0 305v.5h985v-1H51z" style="fill:#343140;fill:color(display-p3 .2039 .1922 .251);fill-opacity:1"/><path fill="#A7A4B5" d="M35.108 34.29h-2.125a2.7 2.7 0 0 0-.335-.926 2.5 2.5 0 0 0-1.438-1.12 3.2 3.2 0 0 0-.994-.147q-.949 0-1.682.477-.732.471-1.148 1.386-.414.91-.414 2.222 0 1.335.414 2.25.42.909 1.148 1.375.733.46 1.676.46.523 0 .977-.136.46-.142.824-.415.37-.273.62-.67.255-.399.352-.91l2.125.012a4.6 4.6 0 0 1-.517 1.556 4.6 4.6 0 0 1-1.029 1.285q-.636.55-1.488.863a5.6 5.6 0 0 1-1.892.307q-1.534 0-2.739-.71t-1.898-2.051-.693-3.216q0-1.881.7-3.216.698-1.341 1.902-2.051 1.206-.71 2.728-.71.972 0 1.807.272a4.6 4.6 0 0 1 1.488.801q.654.523 1.074 1.285.426.755.557 1.727m5.646 7.88q-1.277 0-2.216-.562a3.8 3.8 0 0 1-1.454-1.574q-.512-1.011-.512-2.364 0-1.351.512-2.369a3.8 3.8 0 0 1 1.454-1.58q.938-.562 2.216-.562t2.216.563a3.77 3.77 0 0 1 1.449 1.58q.517 1.016.517 2.368 0 1.353-.517 2.364a3.8 3.8 0 0 1-1.449 1.574q-.938.563-2.216.563m.012-1.647q.693 0 1.159-.381.465-.387.693-1.034.233-.648.233-1.443 0-.8-.233-1.45-.228-.652-.693-1.039t-1.16-.386q-.71 0-1.181.386-.465.387-.7 1.04a4.4 4.4 0 0 0-.226 1.449q0 .795.227 1.443.233.648.699 1.034.471.38 1.182.38m7.973-3.637V42h-2.057v-8.727h1.966v1.483h.102q.3-.733.96-1.165.664-.432 1.642-.432.904 0 1.574.386.676.387 1.046 1.12.375.732.369 1.778V42h-2.057v-5.239q0-.875-.454-1.369-.45-.494-1.245-.494-.54 0-.96.238-.414.234-.653.676-.233.444-.233 1.074m12.05-3.613v1.59h-5.016v-1.59zm-3.778-2.091h2.057v8.193q0 .415.125.636.13.216.341.296.21.08.466.08.193 0 .352-.029.166-.029.25-.051l.347 1.608q-.165.057-.472.125-.3.068-.738.08a3.35 3.35 0 0 1-1.392-.234 2.17 2.17 0 0 1-.983-.806q-.358-.546-.353-1.364zM66.28 42.17q-1.312 0-2.267-.545a3.7 3.7 0 0 1-1.46-1.557q-.512-1.011-.512-2.38 0-1.347.512-2.364a3.87 3.87 0 0 1 1.443-1.591q.925-.574 2.176-.574.806 0 1.523.261.72.256 1.272.796.557.54.875 1.375.32.83.319 1.977v.63h-7.154v-1.386h5.182a2.2 2.2 0 0 0-.256-1.05q-.25-.467-.699-.734a1.97 1.97 0 0 0-1.034-.267q-.63 0-1.108.307-.477.3-.744.796a2.3 2.3 0 0 0-.267 1.074v1.21q0 .761.278 1.306.28.54.779.83.5.285 1.17.284.45 0 .813-.125.363-.13.63-.38t.404-.62l1.92.216q-.18.761-.693 1.33a3.4 3.4 0 0 1-1.295.875q-.791.306-1.807.306m7.677-5.284V42h-2.056v-8.727h1.966v1.483h.102q.3-.733.96-1.165.664-.432 1.642-.432.903 0 1.574.386.676.387 1.045 1.12.375.732.37 1.778V42h-2.057v-5.239q0-.875-.455-1.369-.449-.494-1.244-.494-.54 0-.96.238-.415.234-.654.676-.233.444-.233 1.074m10.932 5.267q-1.028 0-1.84-.528t-1.285-1.534-.471-2.443q0-1.455.477-2.455.483-1.005 1.301-1.517a3.34 3.34 0 0 1 1.824-.517q.767 0 1.261.261.495.255.784.62.29.358.45.676h.084v-4.352h2.063V42h-2.023v-1.375h-.125q-.16.319-.46.676-.3.353-.796.602-.494.25-1.244.25m.574-1.687q.654 0 1.114-.352.46-.358.699-.995.238-.636.238-1.483 0-.846-.238-1.471-.234-.625-.694-.972-.454-.345-1.119-.346-.686 0-1.148.358-.459.358-.693.988t-.233 1.443q0 .82.233 1.46.24.637.699 1.006.465.364 1.142.364m10.13 1.704q-1.313 0-2.268-.545a3.7 3.7 0 0 1-1.46-1.557q-.51-1.011-.511-2.38 0-1.347.511-2.364a3.87 3.87 0 0 1 1.443-1.591q.927-.574 2.176-.574.807 0 1.523.261.721.256 1.273.796.557.54.875 1.375.318.83.318 1.977v.63H92.32v-1.386h5.18a2.2 2.2 0 0 0-.255-1.05q-.25-.467-.7-.734a1.97 1.97 0 0 0-1.033-.267q-.63 0-1.108.307-.477.3-.745.796a2.3 2.3 0 0 0-.266 1.074v1.21q0 .761.278 1.306.279.54.778.83.501.285 1.17.284.45 0 .813-.125.364-.13.63-.38.268-.25.404-.62l1.92.216q-.181.761-.692 1.33a3.4 3.4 0 0 1-1.296.875q-.79.306-1.807.306m5.62-.17v-8.727h1.994v1.454h.091q.239-.755.818-1.164a2.26 2.26 0 0 1 1.336-.415q.17 0 .38.017.216.01.358.04v1.892a2 2 0 0 0-.414-.08 4 4 0 0 0-.54-.04q-.562 0-1.012.245-.443.238-.698.664a1.87 1.87 0 0 0-.256.983V42zm13.242-6.42-1.875.204a1.5 1.5 0 0 0-.279-.534 1.4 1.4 0 0 0-.523-.403q-.329-.154-.806-.154-.642 0-1.08.279-.432.278-.426.721a.76.76 0 0 0 .278.62q.29.239.955.392l1.489.318q1.238.267 1.84.846.608.58.614 1.517a2.38 2.38 0 0 1-.483 1.455q-.472.625-1.312.977-.842.352-1.932.352-1.602 0-2.58-.67-.977-.676-1.165-1.88l2.006-.194q.136.59.58.892.443.3 1.153.301.734 0 1.176-.3.449-.303.449-.745a.77.77 0 0 0-.29-.62q-.284-.243-.886-.374l-1.489-.313q-1.255-.262-1.858-.88-.602-.626-.596-1.58-.006-.807.437-1.398.45-.596 1.245-.92.8-.33 1.846-.33 1.534 0 2.415.654.886.653 1.097 1.767M1002.73 42V30.364h2.1v9.869h5.13V42zm12.83.17c-.87 0-1.63-.181-2.27-.545a3.7 3.7 0 0 1-1.46-1.557q-.51-1.011-.51-2.38 0-1.347.51-2.364c.35-.682.83-1.212 1.45-1.591.61-.383 1.34-.574 2.17-.574q.81 0 1.53.261c.48.17.9.436 1.27.796q.555.54.87 1.375c.22.553.32 1.212.32 1.977v.63h-7.15v-1.386h5.18c0-.393-.09-.744-.26-1.05-.16-.311-.4-.556-.69-.734-.3-.178-.64-.267-1.04-.267q-.63 0-1.11.307c-.31.2-.56.466-.74.796q-.255.488-.27 1.074v1.21c0 .507.1.943.28 1.306q.285.54.78.83.495.285 1.17.284.45 0 .81-.125.36-.13.63-.38c.18-.167.32-.374.41-.62l1.92.216c-.12.508-.36.95-.7 1.33-.33.375-.77.666-1.29.875-.53.204-1.13.306-1.81.306m8.13.006a3.6 3.6 0 0 1-1.49-.295q-.66-.301-1.05-.887c-.25-.39-.38-.87-.38-1.443 0-.492.09-.9.28-1.221.18-.322.43-.58.74-.773s.67-.34 1.06-.438c.4-.102.81-.176 1.24-.221.51-.053.92-.1 1.24-.142q.48-.069.69-.205c.15-.095.22-.24.22-.437v-.034c0-.428-.12-.76-.38-.995-.25-.235-.62-.352-1.09-.352q-.765 0-1.2.33c-.29.22-.49.479-.59.778l-1.92-.273q.225-.795.75-1.33c.35-.36.77-.628 1.28-.806.5-.182 1.06-.273 1.67-.273.42 0 .83.05 1.25.148q.63.147 1.14.488c.35.224.62.529.83.915.22.387.32.87.32 1.45V42h-1.98v-1.199h-.06c-.13.243-.31.47-.53.682-.23.208-.51.377-.85.506-.34.125-.73.187-1.19.187m.54-1.511c.41 0 .77-.082 1.07-.245.3-.166.54-.386.7-.659.17-.272.25-.57.25-.892v-1.028q-.09.08-.33.148-.225.068-.51.119c-.19.034-.38.064-.56.09l-.49.069c-.3.042-.58.11-.82.205a1.4 1.4 0 0 0-.57.397q-.21.25-.21.648c0 .379.13.665.41.858s.63.29 1.06.29m9.38 1.488c-.69 0-1.3-.176-1.84-.528q-.81-.528-1.29-1.534c-.31-.67-.47-1.485-.47-2.443q0-1.455.48-2.455c.32-.67.75-1.176 1.3-1.517a3.34 3.34 0 0 1 1.82-.517c.52 0 .94.087 1.27.261.32.17.59.377.78.62q.285.358.45.676h.08v-4.352h2.07V42h-2.03v-1.375h-.12a3.7 3.7 0 0 1-.46.676c-.2.235-.47.436-.8.602-.33.167-.74.25-1.24.25m.57-1.687c.44 0 .81-.117 1.12-.352.3-.239.54-.57.69-.995q.24-.636.24-1.483 0-.846-.24-1.471-.225-.625-.69-.972c-.3-.23-.67-.346-1.12-.346-.46 0-.84.119-1.15.358q-.45.358-.69.988c-.15.42-.23.902-.23 1.443 0 .546.08 1.033.23 1.46.16.425.39.76.7 1.006q.465.364 1.14.364m10.13 1.704c-.87 0-1.63-.181-2.27-.545a3.7 3.7 0 0 1-1.46-1.557q-.51-1.011-.51-2.38 0-1.347.51-2.364c.35-.682.83-1.212 1.45-1.591.61-.383 1.34-.574 2.17-.574q.81 0 1.53.261c.48.17.9.436 1.27.796q.555.54.87 1.375c.22.553.32 1.212.32 1.977v.63h-7.15v-1.386h5.18c0-.393-.09-.744-.26-1.05-.16-.311-.4-.556-.69-.734-.3-.178-.64-.267-1.04-.267q-.63 0-1.11.307c-.31.2-.56.466-.74.796q-.255.488-.27 1.074v1.21c0 .507.1.943.28 1.306q.285.54.78.83.495.285 1.17.284.45 0 .81-.125.36-.13.63-.38c.18-.167.32-.374.41-.62l1.92.216c-.12.508-.36.95-.7 1.33-.33.375-.77.666-1.29.875-.53.204-1.13.306-1.81.306m5.62-.17v-8.727h2v1.454h.09c.16-.503.43-.892.82-1.164.39-.277.83-.415 1.33-.415.11 0 .24.005.38.017.15.007.26.02.36.04v1.892q-.135-.045-.42-.08-.27-.04-.54-.04c-.37 0-.71.082-1.01.245-.29.159-.53.38-.7.664s-.25.612-.25.983V42zm13.24-6.42-1.87.204c-.05-.19-.15-.367-.28-.534a1.4 1.4 0 0 0-.52-.403q-.33-.154-.81-.154-.645 0-1.08.279c-.29.185-.43.426-.43.721 0 .254.09.46.28.62.2.159.51.29.96.392l1.49.318c.82.178 1.44.46 1.84.846.4.387.61.892.61 1.517q0 .824-.48 1.455c-.32.417-.75.742-1.31.977-.57.235-1.21.352-1.94.352q-1.59 0-2.58-.67c-.65-.45-1.04-1.078-1.16-1.88l2-.194c.1.394.29.691.58.892.3.2.68.301 1.16.301q.735 0 1.17-.3.45-.303.45-.745c0-.25-.09-.457-.29-.62-.19-.162-.48-.287-.88-.374l-1.49-.313q-1.26-.262-1.86-.88-.6-.626-.6-1.58c0-.538.15-1.004.44-1.398.3-.398.72-.704 1.25-.92.53-.22 1.14-.33 1.84-.33 1.02 0 1.83.218 2.42.654.59.435.95 1.024 1.09 1.767m2.47 205.661v2.58l-8.44 3.455v.136l8.44 3.454v2.58H1054v-2.023h7.99v-.108l-7.96-3.216v-1.511l7.98-3.216v-.108H1054v-2.023zm-11.82 16.921q0-.83.3-1.494c.2-.44.5-.788.89-1.046q.585-.381 1.44-.381c.49 0 .9.091 1.22.273s.58.43.77.745c.2.314.34.668.44 1.062.1.398.18.809.22 1.233.06.511.1.926.14 1.244q.075.478.21.693c.09.148.24.222.44.222h.03q.645 0 .99-.381.36-.38.36-1.096 0-.756-.33-1.199a1.63 1.63 0 0 0-.78-.591l.27-1.92c.53.151.98.401 1.33.75q.54.522.81 1.278t.27 1.67q0 .631-.15 1.256c-.1.417-.26.797-.49 1.142a2.4 2.4 0 0 1-.91.83c-.39.212-.87.318-1.45.318H1054v-1.977h1.2v-.069a2.5 2.5 0 0 1-1.19-1.375 3.5 3.5 0 0 1-.19-1.187m1.52.534q0 .62.24 1.074.255.454.66.699c.27.166.57.25.89.25h1.03q-.075-.097-.15-.33-.06-.227-.12-.511l-.09-.563c-.03-.185-.05-.346-.07-.483a3.8 3.8 0 0 0-.2-.823c-.1-.243-.23-.434-.4-.574s-.38-.211-.65-.211c-.38 0-.66.139-.86.415-.19.277-.28.629-.28 1.057m-1.34 6.142h8.73v1.994h-1.46v.091c.51.159.89.432 1.17.818.27.391.41.836.41 1.336 0 .113 0 .24-.01.38-.01.144-.03.264-.04.358h-1.9c.03-.087.06-.225.08-.414.03-.186.04-.366.04-.54q0-.562-.24-1.012a1.76 1.76 0 0 0-.67-.698 1.85 1.85 0 0 0-.98-.256H1054zm2.74 8.219 2.48-.006v.33l3.51 3.136v2.403l-4.3-3.858v-.426zm-2.74-1.875h11.64v2.057H1054zm0 5.477 3.97-2.841 1.45 1.387-5.42 3.914zm-.17 7.136q0-1.312.54-2.267.555-.948 1.56-1.46c.68-.341 1.47-.511 2.38-.511q1.35 0 2.37.511 1.02.518 1.59 1.443.57.927.57 2.176c0 .538-.09 1.046-.26 1.523-.17.481-.44.906-.8 1.273-.36.371-.81.663-1.37.875q-.825.318-1.98.318h-.63v-7.153h1.39v5.182q.585-.006 1.05-.256c.31-.167.55-.4.73-.699q.27-.443.27-1.034c0-.421-.1-.79-.31-1.108a2.1 2.1 0 0 0-.79-.744 2.3 2.3 0 0 0-1.08-.267h-1.21c-.51 0-.94.092-1.3.278s-.64.445-.83.778c-.19.334-.29.724-.29 1.171 0 .299.04.57.13.812.08.243.21.453.38.631.16.178.37.313.62.403l-.22 1.921a3 3 0 0 1-1.33-.693 3.3 3.3 0 0 1-.87-1.296c-.21-.526-.31-1.129-.31-1.807m8.9 9.979h-1.59v-5.017h1.59zm2.09-3.778v2.057h-8.2q-.405 0-.63.125c-.15.087-.24.2-.3.34-.05.141-.08.296-.08.466q0 .194.03.353c.02.109.04.193.05.25l-1.6.346c-.04-.11-.08-.267-.13-.471a3.7 3.7 0 0 1-.08-.739c-.01-.515.06-.979.23-1.392q.27-.62.81-.983c.36-.239.82-.356 1.36-.352zm-10.82 9.558h11.64v4.364c0 .894-.17 1.644-.5 2.25q-.51.914-1.38 1.38-.87.472-1.98.472c-.74 0-1.41-.157-1.98-.472a3.34 3.34 0 0 1-1.37-1.392c-.33-.613-.5-1.369-.5-2.267v-2.892h1.73v2.608c0 .523.1.951.28 1.284q.27.5.75.739c.32.163.68.244 1.09.244.42 0 .78-.081 1.09-.244.32-.159.56-.407.74-.744.18-.334.26-.764.26-1.29v-1.932H1054zm0 10.206h8.73v1.994h-1.46v.091c.51.159.89.432 1.17.818.27.391.41.836.41 1.336 0 .113 0 .24-.01.38-.01.144-.03.264-.04.358h-1.9c.03-.087.06-.225.08-.415.03-.185.04-.365.04-.539q0-.562-.24-1.012a1.77 1.77 0 0 0-.67-.699 1.86 1.86 0 0 0-.98-.255H1054zm-.17 9.848q0-1.313.54-2.267.555-.949 1.56-1.46c.68-.341 1.47-.512 2.38-.512q1.35 0 2.37.512 1.02.516 1.59 1.443.57.926.57 2.176a4.5 4.5 0 0 1-.26 1.523 3.44 3.44 0 0 1-.8 1.272c-.36.372-.81.663-1.37.875q-.825.32-1.98.319h-.63v-7.154h1.39v5.182q.585-.006 1.05-.256c.31-.166.55-.399.73-.699q.27-.443.27-1.034c0-.42-.1-.789-.31-1.108a2.1 2.1 0 0 0-.79-.744 2.3 2.3 0 0 0-1.08-.267h-1.21c-.51 0-.94.093-1.3.278s-.64.446-.83.779-.29.723-.29 1.17c0 .3.04.57.13.813.08.242.21.453.38.631.16.178.37.312.62.403l-.22 1.92a3 3 0 0 1-1.33-.693 3.34 3.34 0 0 1-.87-1.295c-.21-.527-.31-1.129-.31-1.807m6.59 12.518-.2-1.875c.19-.053.36-.145.53-.278.17-.129.3-.303.4-.523.11-.219.16-.488.16-.807 0-.428-.1-.787-.28-1.079q-.285-.432-.72-.426a.75.75 0 0 0-.62.278q-.24.29-.39.955l-.32 1.488c-.18.826-.46 1.44-.85 1.841-.39.406-.89.61-1.52.614a2.36 2.36 0 0 1-1.45-.483c-.42-.314-.74-.752-.98-1.313-.23-.56-.35-1.204-.35-1.931 0-1.069.22-1.928.67-2.58.45-.651 1.08-1.04 1.88-1.165l.19 2.006c-.39.091-.69.284-.89.58q-.3.442-.3 1.153 0 .733.3 1.176.3.449.75.449c.25 0 .45-.097.62-.29.16-.189.28-.485.37-.886l.31-1.489c.18-.837.47-1.456.88-1.858.42-.401.95-.6 1.58-.596.54-.004 1.01.142 1.4.437.4.299.71.714.92 1.244q.33.802.33 1.847c0 1.023-.22 1.828-.65 2.415a2.77 2.77 0 0 1-1.77 1.096m-6.59 5.748q0-1.313.54-2.267a3.7 3.7 0 0 1 1.56-1.461c.68-.341 1.47-.511 2.38-.511q1.35 0 2.37.511 1.02.518 1.59 1.443.57.926.57 2.177a4.5 4.5 0 0 1-.26 1.522c-.17.481-.44.906-.8 1.273-.36.371-.81.663-1.37.875q-.825.318-1.98.318h-.63v-7.153h1.39v5.182q.585-.006 1.05-.256c.31-.167.55-.4.73-.699q.27-.443.27-1.034c0-.42-.1-.79-.31-1.108a2.1 2.1 0 0 0-.79-.744 2.3 2.3 0 0 0-1.08-.267h-1.21c-.51 0-.94.093-1.3.278s-.64.445-.83.779c-.19.333-.29.723-.29 1.17 0 .299.04.57.13.812.08.243.21.453.38.631.16.178.37.313.62.404l-.22 1.92a3 3 0 0 1-1.33-.693 3.3 3.3 0 0 1-.87-1.296c-.21-.526-.31-1.128-.31-1.806m5.28 7.677H1054v-2.057h8.73v1.966h-1.49v.102q.735.301 1.17.961c.29.443.43.99.43 1.642q0 .903-.39 1.574c-.25.45-.63.799-1.11 1.045-.49.25-1.09.373-1.78.369H1054v-2.056h5.24c.58 0 1.04-.152 1.37-.455.33-.299.49-.714.49-1.244q0-.54-.24-.961a1.64 1.64 0 0 0-.67-.653q-.45-.233-1.08-.233m-5.28 11.5q0-1.307.57-2.244c.39-.621.91-1.101 1.59-1.438q1.02-.5 2.34-.5c.89 0 1.67.171 2.35.512q1.02.512 1.59 1.443.57.937.57 2.216 0 1.062-.39 1.88c-.26.55-.62.987-1.1 1.313q-.705.489-1.65.557v-1.966c.42-.08.78-.269 1.06-.568q.42-.444.42-1.188c0-.42-.11-.79-.34-1.108-.22-.318-.54-.566-.97-.744-.42-.174-.92-.261-1.51-.261q-.885 0-1.53.261c-.42.174-.75.418-.98.733-.23.318-.34.691-.34 1.119 0 .303.05.574.17.813.11.242.28.445.5.608s.49.274.8.335v1.966a3.45 3.45 0 0 1-1.64-.546 3.25 3.25 0 0 1-1.11-1.284c-.27-.541-.4-1.178-.4-1.909m0 9.291q0-1.312.54-2.267.555-.948 1.56-1.46c.68-.341 1.47-.511 2.38-.511q1.35 0 2.37.511 1.02.518 1.59 1.443.57.927.57 2.176c0 .538-.09 1.046-.26 1.523-.17.481-.44.905-.8 1.273-.36.371-.81.663-1.37.875q-.825.318-1.98.318h-.63v-7.153h1.39v5.181q.585-.005 1.05-.255c.31-.167.55-.4.73-.699q.27-.443.27-1.034c0-.421-.1-.79-.31-1.108a2.1 2.1 0 0 0-.79-.744 2.3 2.3 0 0 0-1.08-.268h-1.21c-.51 0-.94.093-1.3.279-.36.185-.64.445-.83.778-.19.334-.29.724-.29 1.171 0 .299.04.57.13.812.08.243.21.453.38.631.16.178.37.312.62.403l-.22 1.921a3 3 0 0 1-1.33-.693 3.34 3.34 0 0 1-.87-1.296c-.21-.526-.31-1.129-.31-1.807M34.71 570.364V582h-1.875l-5.483-7.926h-.096V582h-2.108v-11.636h1.886l5.477 7.931h.103v-7.931zM36.916 582v-8.727h2.057V582zm1.034-9.966a1.2 1.2 0 0 1-.84-.324 1.04 1.04 0 0 1-.353-.79q0-.465.352-.789.352-.33.841-.33.495 0 .841.33.353.324.353.789 0 .461-.353.79a1.2 1.2 0 0 1-.84.324m6.945 10.136q-1.307 0-2.244-.573a3.83 3.83 0 0 1-1.438-1.586q-.5-1.017-.5-2.341 0-1.329.511-2.346a3.8 3.8 0 0 1 1.444-1.591q.937-.574 2.215-.574 1.064 0 1.881.392.825.387 1.313 1.097.489.704.556 1.647h-1.965q-.12-.63-.569-1.051-.442-.426-1.187-.426-.63 0-1.108.341-.477.336-.744.966-.262.63-.262 1.511 0 .892.262 1.534.26.637.733.983a1.87 1.87 0 0 0 1.119.341q.455 0 .812-.17.365-.176.608-.506.245-.33.336-.801h1.965a3.4 3.4 0 0 1-.545 1.642 3.23 3.23 0 0 1-1.284 1.114q-.812.397-1.91.397m7.484-5.284V582h-2.057v-11.636h2.012v4.392h.102q.307-.74.949-1.165.648-.432 1.648-.432.909 0 1.585.381t1.045 1.113q.375.734.375 1.79V582h-2.056v-5.239q0-.88-.455-1.369-.45-.495-1.261-.494-.546 0-.978.238a1.7 1.7 0 0 0-.67.676q-.24.444-.239 1.074M64 582.17q-1.313 0-2.268-.545a3.7 3.7 0 0 1-1.46-1.557q-.51-1.011-.511-2.38 0-1.347.511-2.364a3.87 3.87 0 0 1 1.444-1.591q.925-.574 2.176-.574.807 0 1.522.261.722.256 1.273.796.557.54.875 1.375.318.83.318 1.977v.631h-7.153v-1.387h5.182a2.2 2.2 0 0 0-.256-1.051q-.25-.466-.699-.733a1.97 1.97 0 0 0-1.034-.267q-.63 0-1.108.307a2.1 2.1 0 0 0-.744.796 2.3 2.3 0 0 0-.267 1.074v1.21q0 .76.278 1.307.279.539.778.829.5.284 1.171.284.45 0 .813-.125.363-.13.63-.381.267-.25.404-.619l1.92.216a3 3 0 0 1-.693 1.33 3.4 3.4 0 0 1-1.296.875q-.789.306-1.806.306m441.722-8.608a1.55 1.55 0 0 0-.671-1.159q-.585-.414-1.523-.414-.659 0-1.13.199-.472.198-.722.539a1.3 1.3 0 0 0-.256.779q0 .363.165.63.17.267.46.455.29.181.643.307.351.125.71.21l1.091.273q.658.153 1.267.414.613.262 1.096.66.49.398.773.96t.284 1.318q0 1.023-.523 1.801-.522.773-1.511 1.21-.983.432-2.381.432-1.357 0-2.358-.42-.994-.421-1.556-1.228-.557-.806-.603-1.966h2.074q.045.609.375 1.012.33.404.858.602a3.4 3.4 0 0 0 1.193.199q.688 0 1.205-.205.522-.21.818-.579.295-.375.301-.875-.006-.454-.267-.75-.26-.302-.733-.5a7 7 0 0 0-1.091-.364l-1.324-.341q-1.437-.369-2.272-1.119-.83-.755-.83-2.006 0-1.028.557-1.801.562-.773 1.528-1.199.966-.432 2.188-.431 1.239 0 2.17.431.938.426 1.472 1.188.534.756.551 1.738zm6.487 8.614a3.65 3.65 0 0 1-1.495-.295 2.45 2.45 0 0 1-1.045-.887q-.381-.585-.381-1.443 0-.738.273-1.221t.744-.773a3.8 3.8 0 0 1 1.063-.438 9 9 0 0 1 1.233-.221q.767-.08 1.244-.142.477-.069.693-.205.222-.142.222-.437v-.034q0-.642-.381-.995-.38-.352-1.096-.352-.756 0-1.199.329-.438.33-.591.779l-1.921-.273q.228-.795.75-1.329.523-.54 1.279-.807a4.9 4.9 0 0 1 1.67-.273q.631 0 1.256.148.625.147 1.142.488.517.336.83.915.318.58.318 1.449V582h-1.978v-1.199h-.068q-.187.364-.528.682a2.6 2.6 0 0 1-.847.506q-.506.187-1.187.187m.534-1.511q.62 0 1.074-.245a1.8 1.8 0 0 0 .699-.659q.25-.409.25-.892v-1.028a1 1 0 0 1-.33.148 5 5 0 0 1-.511.119q-.284.05-.563.091l-.483.068a3.6 3.6 0 0 0-.824.205 1.36 1.36 0 0 0-.573.397q-.211.25-.211.648 0 .568.415.858t1.057.29m10.5-7.392v1.591h-5.017v-1.591zm-3.779-2.091h2.057v8.193q0 .416.125.636a.68.68 0 0 0 .341.296q.21.08.466.079.193 0 .352-.028a3 3 0 0 0 .25-.051l.347 1.608q-.165.056-.472.125-.3.068-.738.079a3.35 3.35 0 0 1-1.392-.233 2.16 2.16 0 0 1-.983-.806q-.358-.546-.353-1.364zM524.963 582v-8.727h2.057V582zm1.034-9.966a1.2 1.2 0 0 1-.841-.324 1.04 1.04 0 0 1-.352-.79q0-.465.352-.789.352-.33.841-.33.495 0 .841.33.352.324.352.789 0 .461-.352.79a1.2 1.2 0 0 1-.841.324m10.036 3.546-1.875.204a1.5 1.5 0 0 0-.279-.534 1.4 1.4 0 0 0-.522-.403q-.33-.154-.807-.154-.642 0-1.08.279-.432.278-.426.721a.75.75 0 0 0 .278.619q.29.24.955.393l1.489.318q1.238.267 1.841.846.607.58.613 1.517a2.38 2.38 0 0 1-.483 1.455q-.471.625-1.312.977t-1.932.352q-1.602 0-2.58-.67-.976-.677-1.164-1.881l2.005-.193q.136.59.58.892.443.301 1.153.301.733 0 1.176-.301.45-.302.449-.744a.77.77 0 0 0-.29-.619q-.283-.244-.886-.375l-1.489-.313q-1.255-.261-1.858-.881-.602-.625-.596-1.579-.006-.807.437-1.398.45-.596 1.245-.92.8-.33 1.846-.33 1.534 0 2.415.653.887.654 1.097 1.768m6.304-2.307v1.591h-5.159v-1.591zm-3.87 8.727v-9.551q0-.88.364-1.466a2.3 2.3 0 0 1 .989-.875q.619-.29 1.375-.29.534 0 .948.085.416.085.614.154l-.409 1.591a4 4 0 0 0-.33-.08 2 2 0 0 0-.443-.045q-.573 0-.812.278-.233.273-.233.784V582zm7.695.176a3.6 3.6 0 0 1-1.494-.295 2.44 2.44 0 0 1-1.046-.887q-.381-.585-.381-1.443 0-.738.273-1.221t.745-.773a3.8 3.8 0 0 1 1.062-.438 9 9 0 0 1 1.233-.221q.767-.08 1.244-.142.478-.069.693-.205.222-.142.222-.437v-.034q0-.642-.381-.995-.38-.352-1.096-.352-.756 0-1.199.329-.438.33-.591.779l-1.92-.273q.226-.795.75-1.329.522-.54 1.278-.807a4.9 4.9 0 0 1 1.67-.273q.631 0 1.256.148.625.147 1.142.488.517.336.83.915.318.58.318 1.449V582h-1.977v-1.199h-.069q-.188.364-.528.682a2.6 2.6 0 0 1-.847.506q-.506.187-1.187.187m.534-1.511q.62 0 1.074-.245a1.8 1.8 0 0 0 .699-.659q.25-.409.25-.892v-1.028a1 1 0 0 1-.33.148 5 5 0 0 1-.511.119q-.285.05-.563.091l-.483.068a3.6 3.6 0 0 0-.823.205 1.36 1.36 0 0 0-.574.397q-.21.25-.211.648 0 .568.415.858t1.057.29m9.949 1.505q-1.306 0-2.244-.573a3.83 3.83 0 0 1-1.438-1.586q-.5-1.017-.5-2.341 0-1.329.511-2.346a3.8 3.8 0 0 1 1.444-1.591q.937-.574 2.216-.574 1.062 0 1.88.392.824.387 1.313 1.097.488.704.557 1.647h-1.966q-.12-.63-.569-1.051-.443-.426-1.187-.426-.631 0-1.108.341-.477.336-.744.966-.262.63-.262 1.511 0 .892.262 1.534.26.637.733.983a1.87 1.87 0 0 0 1.119.341q.455 0 .812-.17.365-.176.608-.506a1.95 1.95 0 0 0 .336-.801h1.966a3.44 3.44 0 0 1-.546 1.642 3.2 3.2 0 0 1-1.284 1.114q-.813.397-1.909.397m9.785-8.897v1.591h-5.017v-1.591zm-3.778-2.091h2.057v8.193q0 .416.125.636a.68.68 0 0 0 .341.296q.21.08.466.079.192 0 .352-.028.165-.028.25-.051l.346 1.608a5 5 0 0 1-.471.125 4 4 0 0 1-.739.079 3.35 3.35 0 0 1-1.392-.233 2.17 2.17 0 0 1-.983-.806q-.358-.546-.352-1.364zM568.151 582v-8.727h2.056V582zm1.034-9.966a1.2 1.2 0 0 1-.841-.324 1.04 1.04 0 0 1-.353-.79q0-.465.353-.789.352-.33.841-.33.494 0 .841.33.351.324.352.789 0 .461-.352.79a1.2 1.2 0 0 1-.841.324m6.944 10.136q-1.278 0-2.216-.562a3.8 3.8 0 0 1-1.454-1.574q-.512-1.011-.512-2.364t.512-2.369a3.8 3.8 0 0 1 1.454-1.579q.938-.563 2.216-.563t2.216.563a3.77 3.77 0 0 1 1.449 1.579q.517 1.017.517 2.369t-.517 2.364a3.8 3.8 0 0 1-1.449 1.574q-.937.562-2.216.562m.012-1.647q.693 0 1.159-.381.465-.387.693-1.034.233-.648.233-1.443 0-.801-.233-1.449-.228-.654-.693-1.04-.466-.386-1.159-.386-.711 0-1.182.386-.467.387-.699 1.04a4.4 4.4 0 0 0-.227 1.449q0 .795.227 1.443.233.648.699 1.034.471.381 1.182.381m7.973-3.637V582h-2.057v-8.727h1.966v1.483h.102q.302-.733.96-1.165.665-.432 1.642-.432.904 0 1.574.386.676.387 1.046 1.12.375.732.369 1.778V582h-2.057v-5.239q0-.874-.454-1.369-.45-.495-1.245-.494-.54 0-.96.238a1.66 1.66 0 0 0-.653.676q-.233.444-.233 1.074M938.07 582v-11.636h2.108v4.926h5.392v-4.926h2.113V582h-2.113v-4.943h-5.392V582zm11.815 0v-8.727h2.057V582zm1.034-9.966a1.2 1.2 0 0 1-.841-.324 1.04 1.04 0 0 1-.352-.79q0-.465.352-.789.352-.33.841-.33.495 0 .841.33.352.324.352.789 0 .461-.352.79a1.2 1.2 0 0 1-.841.324m6.933 13.421q-1.108 0-1.903-.302-.796-.295-1.279-.795a2.75 2.75 0 0 1-.67-1.108l1.852-.449q.126.256.364.506.239.255.642.42.409.171 1.028.171.876 0 1.449-.426.574-.421.574-1.387v-1.653h-.102q-.16.318-.466.653a2.4 2.4 0 0 1-.801.563q-.495.227-1.245.227-1.005 0-1.823-.472-.813-.477-1.296-1.42-.477-.949-.477-2.375 0-1.437.477-2.426.483-.995 1.301-1.506a3.34 3.34 0 0 1 1.824-.517q.768 0 1.261.261.5.256.796.62.296.358.449.676h.113v-1.443h2.029v8.869q0 1.12-.534 1.852-.534.733-1.46 1.097-.927.364-2.103.364m.017-5.194q.654 0 1.114-.318t.699-.915.238-1.431q0-.825-.238-1.444-.233-.619-.693-.96-.454-.346-1.12-.346-.688 0-1.147.358-.46.357-.694.983a4 4 0 0 0-.233 1.409q0 .8.233 1.403.24.596.699.932.467.33 1.142.329m8.245-3.375V582h-2.057v-11.636h2.011v4.392h.102q.307-.74.949-1.165.648-.432 1.648-.432.91 0 1.585.381.677.381 1.046 1.113.375.734.375 1.79V582h-2.057v-5.239q0-.88-.455-1.369-.448-.495-1.261-.494-.546 0-.977.238a1.7 1.7 0 0 0-.671.676q-.238.444-.238 1.074M977.929 582v-11.636h4.364q1.341 0 2.25.5.914.5 1.38 1.375.472.869.472 1.977 0 1.119-.472 1.989a3.37 3.37 0 0 1-1.392 1.369q-.92.494-2.267.494h-2.892v-1.733h2.608q.784 0 1.284-.273a1.7 1.7 0 0 0 .739-.75q.244-.477.244-1.096t-.244-1.091a1.66 1.66 0 0 0-.744-.733q-.501-.267-1.29-.267h-1.932V582zm13.945.17q-1.313 0-2.267-.545a3.7 3.7 0 0 1-1.461-1.557q-.511-1.011-.511-2.38 0-1.347.511-2.364a3.87 3.87 0 0 1 1.443-1.591q.927-.574 2.177-.574.807 0 1.522.261.722.256 1.273.796.557.54.875 1.375.318.83.318 1.977v.631h-7.153v-1.387h5.182a2.2 2.2 0 0 0-.256-1.051q-.25-.466-.699-.733a1.96 1.96 0 0 0-1.034-.267q-.63 0-1.108.307a2.1 2.1 0 0 0-.744.796 2.3 2.3 0 0 0-.267 1.074v1.21q0 .76.278 1.307.279.539.779.829.5.284 1.17.284.449 0 .812-.125.364-.13.631-.381.267-.25.404-.619l1.92.216a3 3 0 0 1-.693 1.33 3.4 3.4 0 0 1-1.296.875q-.789.306-1.806.306m5.62-.17v-8.727h1.995v1.454h.091q.237-.756.82-1.165c.39-.276.83-.414 1.33-.414.12 0 .24.005.38.017q.225.011.36.04v1.892a2 2 0 0 0-.41-.08q-.285-.04-.54-.04c-.38 0-.72.082-1.01.245q-.449.238-.703.664a1.87 1.87 0 0 0-.256.983V582zm11.236-8.727v1.591h-5.16v-1.591zm-3.87 8.727v-9.551q0-.88.36-1.466.375-.585.99-.875t1.38-.29c.35 0 .67.029.94.085.28.057.49.108.62.154l-.41 1.591a4 4 0 0 0-.33-.08c-.13-.03-.28-.045-.44-.045-.39 0-.66.093-.82.278-.15.182-.23.443-.23.784V582zm8.96.17c-.86 0-1.59-.187-2.22-.562-.62-.375-1.11-.9-1.45-1.574s-.52-1.462-.52-2.364.18-1.691.52-2.369.83-1.204 1.45-1.579c.63-.375 1.36-.563 2.22-.563.85 0 1.59.188 2.21.563.63.375 1.11.901 1.45 1.579.35.678.52 1.468.52 2.369s-.17 1.69-.52 2.364a3.75 3.75 0 0 1-1.45 1.574c-.62.375-1.36.562-2.21.562m.01-1.647c.46 0 .85-.127 1.16-.381q.465-.387.69-1.034c.16-.432.23-.913.23-1.443 0-.534-.07-1.017-.23-1.449q-.225-.654-.69-1.04c-.31-.257-.7-.386-1.16-.386-.48 0-.87.129-1.18.386-.31.258-.55.604-.7 1.04-.15.432-.23.915-.23 1.449 0 .53.08 1.011.23 1.443s.39.776.7 1.034c.31.254.7.381 1.18.381m5.91 1.477v-8.727h2v1.454h.09c.16-.504.43-.892.82-1.165.39-.276.83-.414 1.33-.414.12 0 .24.005.38.017q.225.011.36.04v1.892a2 2 0 0 0-.41-.08q-.285-.04-.54-.04c-.38 0-.72.082-1.01.245-.3.159-.53.38-.7.664a1.9 1.9 0 0 0-.26.983V582zm6.35 0v-8.727h1.96v1.483h.11q.27-.75.9-1.171c.42-.284.92-.426 1.51-.426s1.08.144 1.49.432c.41.284.7.672.86 1.165h.09c.2-.485.52-.872.98-1.159.46-.292 1.01-.438 1.64-.438.81 0 1.46.254 1.97.761.51.508.76 1.249.76 2.222V582h-2.06v-5.54c0-.541-.15-.937-.43-1.187a1.55 1.55 0 0 0-1.06-.381c-.5 0-.88.155-1.17.466-.27.307-.41.706-.41 1.199V582h-2.02v-5.625c0-.451-.13-.811-.41-1.08-.26-.268-.62-.403-1.05-.403q-.45 0-.81.227c-.24.148-.44.358-.58.631-.14.269-.22.583-.22.943V582zm18.22.17c-.87 0-1.63-.181-2.27-.545a3.7 3.7 0 0 1-1.46-1.557q-.51-1.011-.51-2.38 0-1.347.51-2.364c.35-.682.83-1.212 1.45-1.591.61-.383 1.34-.574 2.17-.574q.81 0 1.53.261c.48.171.9.436 1.27.796q.555.54.87 1.375c.22.553.32 1.212.32 1.977v.631h-7.15v-1.387h5.18c0-.393-.09-.744-.26-1.051a1.86 1.86 0 0 0-.69-.733c-.3-.178-.64-.267-1.04-.267q-.63 0-1.11.307c-.31.201-.56.466-.74.796q-.255.487-.27 1.074v1.21c0 .507.1.943.28 1.307q.285.539.78.829.495.284 1.17.284.45 0 .81-.125.36-.13.63-.381c.18-.166.32-.373.41-.619l1.92.216c-.12.508-.36.951-.7 1.33-.33.375-.77.666-1.29.875-.53.204-1.13.306-1.81.306m5.62-.17v-8.727h2v1.454h.09c.16-.504.43-.892.82-1.165.39-.276.83-.414 1.33-.414.11 0 .24.005.38.017.15.007.26.021.36.04v1.892a2.2 2.2 0 0 0-.42-.08q-.27-.04-.54-.04c-.37 0-.71.082-1.01.245-.29.159-.53.38-.7.664s-.25.612-.25.983V582zm13.24-6.42-1.87.204a1.5 1.5 0 0 0-.28-.534c-.13-.167-.3-.301-.52-.403q-.33-.154-.81-.154-.645 0-1.08.279c-.29.185-.43.426-.43.721 0 .254.09.46.28.619.2.16.51.29.96.393l1.49.318c.82.178 1.44.46 1.84.846.4.387.61.892.61 1.517q0 .824-.48 1.455c-.32.417-.75.742-1.31.977-.57.235-1.21.352-1.94.352q-1.59 0-2.58-.67c-.65-.451-1.04-1.078-1.16-1.881l2-.193c.1.394.29.691.58.892.3.201.68.301 1.16.301q.735 0 1.17-.301.45-.302.45-.744c0-.25-.09-.457-.29-.619-.19-.163-.48-.288-.88-.375l-1.49-.313q-1.26-.261-1.86-.881-.6-.625-.6-1.579c0-.538.15-1.004.44-1.398.3-.398.72-.704 1.25-.92.53-.22 1.14-.33 1.84-.33 1.02 0 1.83.218 2.42.653s.95 1.025 1.09 1.768" style="fill:#a7a4b5;fill:color(display-p3 .6549 .6431 .7098);fill-opacity:1"/><circle cx="969" cy="256" r="11.5" fill="#3F3B4C" stroke="#4A4658" style="fill:#3f3b4c;fill:color(display-p3 .2471 .2314 .298);fill-opacity:1;stroke:#4a4658;stroke:color(display-p3 .2902 .2745 .3451);stroke-opacity:1"/><circle cx="939" cy="438" r="5.5" fill="#16141C" stroke="#4A4658" style="fill:#16141c;fill:color(display-p3 .0863 .0784 .1098);fill-opacity:1;stroke:#4a4658;stroke:color(display-p3 .2902 .2745 .3451);stroke-opacity:1"/><circle cx="887" cy="442" r="11.5" fill="#3F3B4C" stroke="#4A4658" style="fill:#3f3b4c;fill:color(display-p3 .2471 .2314 .298);fill-opacity:1;stroke:#4a4658;stroke:color(display-p3 .2902 .2745 .3451);stroke-opacity:1"/><circle cx="528" cy="481" r="11.5" fill="#3F3B4C" stroke="#4A4658" style="fill:#3f3b4c;fill:color(display-p3 .2471 .2314 .298);fill-opacity:1;stroke:#4a4658;stroke:color(display-p3 .2902 .2745 .3451);stroke-opacity:1"/><circle cx="279" cy="475" r="11.5" fill="#3F3B4C" stroke="#4A4658" style="fill:#3f3b4c;fill:color(display-p3 .2471 .2314 .298);fill-opacity:1;stroke:#4a4658;stroke:color(display-p3 .2902 .2745 .3451);stroke-opacity:1"/><circle cx="276" cy="426" r="11.5" fill="#3F3B4C" stroke="#4A4658" style="fill:#3f3b4c;fill:color(display-p3 .2471 .2314 .298);fill-opacity:1;stroke:#4a4658;stroke:color(display-p3 .2902 .2745 .3451);stroke-opacity:1"/><circle cx="203" cy="357" r="11.5" fill="#3F3B4C" stroke="#4A4658" style="fill:#3f3b4c;fill:color(display-p3 .2471 .2314 .298);fill-opacity:1;stroke:#4a4658;stroke:color(display-p3 .2902 .2745 .3451);stroke-opacity:1"/><circle cx="380" cy="324" r="11.5" fill="#3F3B4C" stroke="#4A4658" style="fill:#3f3b4c;fill:color(display-p3 .2471 .2314 .298);fill-opacity:1;stroke:#4a4658;stroke:color(display-p3 .2902 .2745 .3451);stroke-opacity:1"/><circle cx="380" cy="81" r="11.5" fill="#3F3B4C" stroke="#4A4658" style="fill:#3f3b4c;fill:color(display-p3 .2471 .2314 .298);fill-opacity:1;stroke:#4a4658;stroke:color(display-p3 .2902 .2745 .3451);stroke-opacity:1"/><circle cx="276" cy="88" r="11.5" fill="#3F3B4C" stroke="#4A4658" style="fill:#3f3b4c;fill:color(display-p3 .2471 .2314 .298);fill-opacity:1;stroke:#4a4658;stroke:color(display-p3 .2902 .2745 .3451);stroke-opacity:1"/><circle cx="296" cy="110" r="11.5" fill="#3F3B4C" stroke="#4A4658" style="fill:#3f3b4c;fill:color(display-p3 .2471 .2314 .298);fill-opacity:1;stroke:#4a4658;stroke:color(display-p3 .2902 .2745 .3451);stroke-opacity:1"/><g style="filter:drop-shadow(0 0 8px rgba(109,74,255,.6));animation:pulse-glow 5s ease-in-out infinite"><circle cx="939" cy="438" r="28" stroke="#6D4AFF" stroke-width="2" class="pulse-ring" style="animation:ripple 5s cubic-bezier(.4,0,.2,1) infinite"/><circle cx="939" cy="438" r="28" stroke="#6D4AFF" stroke-width="1.5" class="pulse-ring" style="animation:ripple 5s cubic-bezier(.4,0,.2,1) infinite;animation-delay:1.66s"/><circle cx="939" cy="438" r="28" stroke="#6D4AFF" class="pulse-ring" style="animation:ripple 5s cubic-bezier(.4,0,.2,1) infinite;animation-delay:3.33s"/><rect width="56" height="56" x="911" y="410" fill="#6D4AFF" rx="28" style="fill:#6d4aff;fill:color(display-p3 .4275 .2902 1);fill-opacity:1"/><path fill="#fff" d="M952.834 442.046a4 4 0 0 1-2.723 1.142c-.01.003-.022 0-.031.003h-.072a7.16 7.16 0 0 0-4.912 2.071c-1.376 1.349-2.084 3.095-2.11 4.809v.018q-.001.092-.005.183.003.003 0 .009a2 2 0 0 1-.014.183l-.017.154-.01.061a2 2 0 0 1-.028.156q-.018.094-.04.185a3 3 0 0 1-.051.182q-.028.092-.059.18l-.069.178-.055.126q-.09.2-.205.391-.042.07-.091.14a3.7 3.7 0 0 1-.524.638 4.04 4.04 0 0 1-5.919-.309 3 3 0 0 1-.113-.144c-.04-.054-.078-.105-.114-.162a3.7 3.7 0 0 1-.474-.979q-.022-.066-.04-.136-.01-.029-.017-.058l-.028-.117a3 3 0 0 1-.048-.25q-.01-.053-.017-.105-.015-.121-.024-.241l-.007-.143v-.014q-.003-.054-.002-.108v-.03c-.029-1.711-.736-3.451-2.111-4.797a7.16 7.16 0 0 0-4.9-2.071q-.058-.004-.114-.003a4.02 4.02 0 0 1-2.724-1.142 3.863 3.863 0 0 1 0-5.532 4.04 4.04 0 0 1 5.637 0 3.87 3.87 0 0 1 1.167 2.673v.1c.024 1.718.731 3.467 2.111 4.821 1.377 1.348 3.154 2.045 4.9 2.07h.05a7.16 7.16 0 0 0 4.888-2.07c1.377-1.352 2.085-3.096 2.111-4.809 0-.038.003-.076 0-.112a3.87 3.87 0 0 1 1.168-2.673 4.04 4.04 0 0 1 5.636 0 3.863 3.863 0 0 1 0 5.532" style="fill:#fff;fill-opacity:1"/><path fill="#fff" d="M952.834 430.676a4 4 0 0 1-2.723 1.143c-.01.003-.022 0-.031.003h-.072a7.16 7.16 0 0 0-4.912 2.071c-1.376 1.349-2.084 3.095-2.11 4.809v.019q-.001.09-.005.182.003.002 0 .009a2 2 0 0 1-.014.182l-.017.155-.01.06a2 2 0 0 1-.028.157q-.018.094-.04.185a3 3 0 0 1-.051.182q-.028.092-.059.18-.034.091-.069.178l-.055.126q-.09.201-.205.39-.042.07-.091.141a3.7 3.7 0 0 1-.524.638 4.04 4.04 0 0 1-5.919-.309 2 2 0 0 1-.113-.145 3 3 0 0 1-.114-.161 3.7 3.7 0 0 1-.474-.979q-.022-.066-.04-.136-.01-.029-.017-.059l-.028-.117a3 3 0 0 1-.048-.249q-.01-.054-.017-.106-.015-.12-.024-.24l-.007-.143v-.014q-.003-.053-.002-.107v-.031c-.029-1.711-.736-3.45-2.111-4.797a7.15 7.15 0 0 0-4.9-2.071q-.058-.004-.114-.003a4.02 4.02 0 0 1-2.724-1.143 3.86 3.86 0 0 1 0-5.531 4.04 4.04 0 0 1 5.637 0 3.87 3.87 0 0 1 1.167 2.672v.1c.024 1.719.731 3.468 2.111 4.821a7.17 7.17 0 0 0 4.9 2.071h.05a7.16 7.16 0 0 0 4.888-2.071c1.377-1.351 2.085-3.095 2.111-4.809 0-.037.003-.075 0-.112a3.87 3.87 0 0 1 1.168-2.672 4.04 4.04 0 0 1 5.636 0 3.86 3.86 0 0 1 0 5.531" style="fill:#fff;fill-opacity:1"/></g></svg>