<svg xmlns="http://www.w3.org/2000/svg" width="59" height="20" fill="none"><g fill="#A7A4B5" clip-path="url(#a)"><path d="M.299 7.949C.299 3.897 3.698.614 7.754.614c2.238 0 3.833.88 5.036 2.026l-1.427 1.41c-.853-.81-2.014-1.438-3.609-1.438-2.951 0-5.26 2.375-5.26 5.323 0 2.947 2.309 5.322 5.26 5.322 1.917 0 3.008-.768 3.707-1.467.573-.572.951-1.397 1.091-2.514H7.754V7.278h6.756c.07.363.112.782.112 1.257 0 1.51-.405 3.367-1.734 4.68-1.301 1.342-2.952 2.054-5.134 2.054C3.698 15.27.3 11.986.3 7.95m19.764-2.111c-2.616 0-4.742 1.984-4.742 4.722 0 2.724 2.126 4.722 4.742 4.722s4.742-1.998 4.742-4.722c0-2.738-2.126-4.722-4.742-4.722m0 7.572c-1.427 0-2.672-1.173-2.672-2.864 0-1.704 1.231-2.864 2.672-2.864 1.427 0 2.672 1.16 2.672 2.864 0 1.69-1.245 2.864-2.672 2.864m10.35-7.572c-2.616 0-4.742 1.984-4.742 4.722 0 2.724 2.126 4.722 4.742 4.722s4.742-1.998 4.742-4.722c0-2.738-2.127-4.722-4.742-4.722m0 7.572c-1.427 0-2.672-1.173-2.672-2.864 0-1.704 1.231-2.864 2.672-2.864 1.44 0 2.671 1.16 2.671 2.864 0 1.69-1.245 2.864-2.671 2.864m12.701-7.293v.769h-.07c-.461-.559-1.357-1.062-2.49-1.062-2.364 0-4.532 2.068-4.532 4.736 0 2.64 2.168 4.708 4.532 4.708 1.133 0 2.029-.503 2.49-1.076h.07v.685c0 1.802-.965 2.766-2.518 2.766-1.273 0-2.056-.908-2.378-1.676l-1.804.754c.518 1.257 1.902 2.794 4.196 2.794 2.434 0 4.49-1.425 4.49-4.917v-8.48zm-2.378 7.293c-1.427 0-2.63-1.201-2.63-2.85 0-1.662 1.203-2.878 2.63-2.878 1.413 0 2.518 1.216 2.518 2.878.014 1.662-1.105 2.85-2.518 2.85m7.861 1.579h-2.07V1.117h2.07zm5.693-1.579c-1.063 0-1.804-.489-2.294-1.425l6.323-2.612-.21-.531c-.392-1.062-1.595-3.004-4.042-3.004-2.434 0-4.463 1.914-4.463 4.722 0 2.64 2 4.722 4.686 4.722 2.168 0 3.413-1.327 3.945-2.095l-1.609-1.076c-.545.782-1.273 1.299-2.336 1.299m-.154-5.756c.826 0 1.525.405 1.749 1.006l-4.224 1.746c-.056-1.816 1.412-2.752 2.475-2.752" style="fill:#a7a4b5;fill:color(display-p3 .6549 .6431 .7098);fill-opacity:1"/></g><defs><clipPath id="a"><path fill="#fff" d="M0 0h59v20H0z" style="fill:#fff;fill-opacity:1"/></clipPath></defs></svg>