<svg xmlns="http://www.w3.org/2000/svg" width="48" height="48" fill="none"><path fill="#6D4AFF" d="M0 12C0 5.373 5.373 0 12 0h24c6.627 0 12 5.373 12 12v24c0 6.627-5.373 12-12 12H12C5.373 48 0 42.627 0 36z" style="fill:#6d4aff;fill:color(display-p3 .4275 .2902 1);fill-opacity:1"/><path stroke="#fff" stroke-linecap="round" stroke-linejoin="round" stroke-width="2" d="M20 15h-.2c-1.68 0-2.52 0-3.162.327a3 3 0 0 0-1.311 1.311C15 17.28 15 18.12 15 19.8v.2m5 13h-.2c-1.68 0-2.52 0-3.162-.327a3 3 0 0 1-1.311-1.311C15 30.72 15 29.88 15 28.2V28m18-8v-.2c0-1.68 0-2.52-.327-3.162a3 3 0 0 0-1.311-1.311C30.72 15 29.88 15 28.2 15H28m5 13v.2c0 1.68 0 2.52-.327 3.162a3 3 0 0 1-1.311 1.311C30.72 33 29.88 33 28.2 33H28m-13-9h.01m4.49 0h.01m8.99 0h.01M24 24h.01M33 24h.01" style="stroke:#fff;stroke-opacity:1"/></svg>