<svg xmlns="http://www.w3.org/2000/svg" width="28" height="28" fill="none"><path stroke="#7C5CFF" stroke-linecap="round" stroke-linejoin="round" stroke-width="2" d="M16.333 12.833h-7m2.334 4.667H9.333m9.334-9.333H9.333m14 3.5V7.933c0-1.96 0-2.94-.381-3.689a3.5 3.5 0 0 0-1.53-1.53c-.748-.38-1.729-.38-3.689-.38h-7.466c-1.96 0-2.94 0-3.69.38a3.5 3.5 0 0 0-1.529 1.53c-.381.749-.381 1.73-.381 3.69v12.133c0 1.96 0 2.94.381 3.689a3.5 3.5 0 0 0 1.53 1.53c.748.38 1.728.38 3.689.38h4.316M21 24.5s3.5-1.668 3.5-4.17v-2.92l-2.552-.912a2.8 2.8 0 0 0-1.897 0l-2.551.912v2.92c0 2.502 3.5 4.17 3.5 4.17" style="stroke:#7c5cff;stroke:color(display-p3 .4863 .3608 1);stroke-opacity:1"/></svg>