<svg xmlns="http://www.w3.org/2000/svg" width="20" height="20" fill="none"><g clip-path="url(#a)"><path fill="#4A4658" d="M9.538 1.61a.5.5 0 0 1 .924 0l2.066 4.967a.5.5 0 0 0 .422.307l5.362.43a.5.5 0 0 1 .286.878l-4.086 3.5a.5.5 0 0 0-.161.496l1.248 5.233a.5.5 0 0 1-.747.543l-4.591-2.805a.5.5 0 0 0-.522 0l-4.59 2.804a.5.5 0 0 1-.748-.542l1.248-5.233a.5.5 0 0 0-.16-.496l-4.087-3.5a.5.5 0 0 1 .286-.878l5.363-.43a.5.5 0 0 0 .421-.307z" style="fill:#4a4658;fill:color(display-p3 .2902 .2745 .3451);fill-opacity:1"/><g clip-path="url(#b)"><path fill="#7C5CFF" d="M9.538 1.61a.5.5 0 0 1 .924 0l2.066 4.967a.5.5 0 0 0 .422.307l5.362.43a.5.5 0 0 1 .286.878l-4.086 3.5a.5.5 0 0 0-.161.496l1.248 5.233a.5.5 0 0 1-.747.543l-4.591-2.805a.5.5 0 0 0-.522 0l-4.59 2.804a.5.5 0 0 1-.748-.542l1.248-5.233a.5.5 0 0 0-.16-.496l-4.087-3.5a.5.5 0 0 1 .286-.878l5.363-.43a.5.5 0 0 0 .421-.307z" style="fill:#7c5cff;fill:color(display-p3 .4863 .3608 1);fill-opacity:1"/></g></g><defs><clipPath id="a"><path fill="#fff" d="M0 0h20v20H0z" style="fill:#fff;fill-opacity:1"/></clipPath><clipPath id="b"><path fill="#fff" d="M0 0h20v20H0z" style="fill:#fff;fill-opacity:1"/></clipPath></defs></svg>