<svg xmlns="http://www.w3.org/2000/svg" width="180" height="56" fill="none"><path fill="#A7A4B5" d="M89.346 35.88c-.122-.033-1.993-.515-3.982-.515-3.765 0-6.032 2.033-6.032 5.06 0 2.68 1.897 4.017 4.173 4.736.252.083.624.2.871.282 1.013.318 1.822.792 1.822 1.612 0 .917-.934 1.511-2.966 1.511-1.786 0-3.498-.51-3.858-.601v3.725c.2.043 2.235.442 4.409.442 3.125 0 6.701-1.366 6.701-5.432 0-1.973-1.207-3.788-3.858-4.63l-1.127-.36c-.673-.212-1.873-.556-1.873-1.541 0-.779.89-1.327 2.527-1.327 1.413 0 3.132.475 3.193.494zm34.521 7.868c0 2.356-1.804 4.261-4.225 4.261-2.424 0-4.223-1.905-4.223-4.26 0-2.351 1.799-4.257 4.223-4.257 2.421 0 4.225 1.906 4.225 4.257m-4.225-8.378c-4.979 0-8.55 3.755-8.55 8.379 0 4.63 3.571 8.383 8.55 8.383 4.978 0 8.554-3.753 8.554-8.383 0-4.624-3.576-8.38-8.554-8.38M73.855 51.844h-4.086V35.657h4.086m-9.702.293c-.384-.114-1.803-.58-3.724-.58-4.971 0-8.62 3.544-8.62 8.378 0 5.216 4.028 8.384 8.62 8.384 1.824 0 3.217-.433 3.724-.577V47.21c-.175.098-1.51.86-3.431.86-2.722 0-4.477-1.916-4.477-4.322 0-2.479 1.831-4.317 4.477-4.317 1.953 0 3.267.778 3.431.864m42.637-4.345c-.384-.114-1.803-.58-3.725-.58-4.97 0-8.62 3.544-8.62 8.378 0 5.216 4.029 8.384 8.62 8.384 1.825 0 3.217-.433 3.725-.577V47.21c-.176.098-1.511.86-3.432.86-2.721 0-4.477-1.916-4.477-4.322 0-2.479 1.832-4.317 4.477-4.317 1.954 0 3.268.778 3.432.864M69.757 5.052c0-1.115-.912-2.02-2.029-2.02a2.027 2.027 0 0 0-2.028 2.02v21.496a2.028 2.028 0 0 0 4.057 0zm-11.14 7.63c0-1.115-.91-2.02-2.028-2.02a2.027 2.027 0 0 0-2.028 2.02v9.827a2.028 2.028 0 0 0 4.056 0zm-11.14 5.578c0-1.116-.91-2.02-2.027-2.02a2.027 2.027 0 0 0-2.028 2.02v4.25a2.028 2.028 0 0 0 4.056 0" style="fill:#a7a4b5;fill:color(display-p3 .6549 .6431 .7098);fill-opacity:1"/><path fill="#A7A4B5" d="M65.7 5.052c0-1.115.912-2.02 2.029-2.02s2.028.905 2.028 2.02v21.496a2.028 2.028 0 0 1-4.057 0zm11.14 7.63c0-1.115.911-2.02 2.028-2.02s2.028.905 2.028 2.02v9.827a2.028 2.028 0 0 1-4.056 0zm11.14 5.578c0-1.116.91-2.02 2.027-2.02s2.028.904 2.028 2.02v4.25a2.028 2.028 0 0 1-4.056 0m22.266-17.458c0-1.115.912-2.02 2.029-2.02s2.028.905 2.028 2.02v21.496a2.028 2.028 0 0 1-4.057 0zm11.14 7.63c0-1.115.911-2.02 2.028-2.02s2.028.905 2.028 2.02v9.827a2.028 2.028 0 0 1-4.056 0zm11.139 5.578c0-1.116.911-2.02 2.028-2.02s2.028.904 2.028 2.02v4.25a2.028 2.028 0 0 1-4.056 0" style="fill:#a7a4b5;fill:color(display-p3 .6549 .6431 .7098);fill-opacity:1"/><path fill="#A7A4B5" d="M114.302 5.052c0-1.115-.912-2.02-2.029-2.02a2.027 2.027 0 0 0-2.028 2.02v21.496a2.028 2.028 0 0 0 4.057 0zm-11.14 7.63a2.027 2.027 0 0 0-2.028-2.02 2.027 2.027 0 0 0-2.028 2.02v9.827a2.028 2.028 0 0 0 4.056 0zm-11.14 5.578c0-1.116-.91-2.02-2.027-2.02a2.027 2.027 0 0 0-2.028 2.02v4.25a2.028 2.028 0 0 0 4.056 0" style="fill:#a7a4b5;fill:color(display-p3 .6549 .6431 .7098);fill-opacity:1"/></svg>