<svg xmlns="http://www.w3.org/2000/svg" width="180" height="56" fill="none"><path fill="#A7A4B5" d="M38.873 25.537q.001 1.306-.55 2.414a5.4 5.4 0 0 1-1.528 1.876q-.979.773-2.332 1.207t-2.958.435c-1.283 0-2.43-.175-3.45-.529-1.02-.353-2.035-.938-3.055-1.752l1.684-2.76q1.213 1.026 2.193 1.502a4.55 4.55 0 0 0 1.997.473q1.251 0 2.019-.652.764-.652.766-1.758-.001-.474-.136-.89-.14-.416-.508-.85A7 7 0 0 0 32 23.307a73 73 0 0 0-1.663-1.267 37 37 0 0 1-1.528-1.147 11.3 11.3 0 0 1-1.35-1.267 5.7 5.7 0 0 1-.978-1.501q-.373-.83-.372-1.898 0-1.222.508-2.235.507-1.007 1.388-1.718.878-.713 2.111-1.105a8.7 8.7 0 0 1 2.675-.396q1.524-.001 2.958.413a9.9 9.9 0 0 1 2.645 1.199l-1.527 2.478q-1.568-1.106-3.293-1.105c-.702 0-1.286.183-1.743.554s-.686.828-.686 1.382.203 1.002.605 1.425q.604.633 2.09 1.778a54 54 0 0 1 2.48 1.936q.984.832 1.554 1.561c.38.486.643.985.787 1.484q.216.75.216 1.66m17.326-4.65q0 1.148-.237 2.474a8.8 8.8 0 0 1-.808 2.452q-.571 1.125-1.499 1.86-.926.729-2.348.729-2.37.001-3.729-1.898c-.906-1.266-1.363-3.002-1.363-5.22s.462-4.064 1.38-5.395q1.38-1.995 3.75-1.996c1.578 0 2.683.627 3.55 1.877q1.303 1.881 1.304 5.118m5.476-.2c0-1.476-.212-2.815-.626-4.026q-.63-1.817-1.786-3.122a8.25 8.25 0 0 0-2.747-2.034q-1.588-.73-3.512-.73-2.122 0-3.729.811-1.605.813-2.983 2.546l-.026-2.883h-5.036v29.615h5.036V28.348q.75.869 1.435 1.462.685.596 1.397.969.709.372 1.493.533a8.5 8.5 0 0 0 1.693.157 8.75 8.75 0 0 0 3.737-.806 8.8 8.8 0 0 0 2.988-2.273q1.257-1.458 1.968-3.416.709-1.957.707-4.286m2.23 10.295h5.167V2h-5.167zm27.242.009V11.22h-5.168v10.64c0 .952-.038 1.681-.118 2.197q-.12.772-.394 1.403c-.732 1.634-2.074 2.453-4.016 2.453q-2.285 0-3.191-1.664a4.4 4.4 0 0 1-.49-1.424q-.14-.792-.14-2.294V11.22h-5.168v11.233q.001 1.146.021 1.94.02.791.098 1.403.076.614.177 1.088.094.473.297.908.706 1.817 2.293 2.75c1.063.62 2.362.926 3.906.926 1.389 0 2.603-.243 3.653-.729 1.045-.486 2.065-1.288 3.06-2.392l.012 2.644zm22.294-.009V19.775q0-1.145-.021-1.953a14 14 0 0 0-.097-1.403 9 9 0 0 0-.195-1.045 9 9 0 0 0-.275-.887q-.705-1.777-2.298-2.742-1.591-.967-3.906-.968c-1.389 0-2.603.243-3.653.733-1.049.487-2.065 1.288-3.064 2.393l-.008-2.644h-5.214v19.729h5.214V20.334q.001-1.381.097-2.15a5.7 5.7 0 0 1 .377-1.44c.338-.79.859-1.387 1.553-1.796s1.528-.61 2.501-.61q2.285.002 3.191 1.655.35.633.491 1.42.14.787.14 2.286v11.284zm21.401-1.3-7.875-9.87 6.661-7.185-3.919-1.698-6.932 8.095h-.55V2.009h-5.214v28.979h5.214V20.483l7.795 10.897zM155 22.598v-3.233l-15.671-7.924v3.548l12.146 5.954-12.146 6.035v3.471L155 22.603zM47.553 47.147h-1.215a1.88 1.88 0 0 1 .88-1.455q.705-.468 1.778-.469 1.275.001 1.955.674.572.577.572 1.493v4.269h-.944l-.144-.853c-.487.69-1.177 1.032-2.078 1.032q-1.061 0-1.66-.576-.489-.48-.49-1.215.002-.929.63-1.43c.373-.298.949-.51 1.719-.647l1.815-.312v-.311q0-.614-.419-.925-.368-.277-1.015-.278-1.264 0-1.397 1.011zm1.088 3.714q.727.002 1.265-.482.477-.441.478-1.023v-.806l-1.54.277q-.85.145-1.16.443-.249.241-.25.649-.001.46.31.695.31.241.892.239v.008zm20.55-7.873h-2.154v8.679h2.154zm10.855 4.342c0 2.797 2.125 4.495 4.546 4.495.956 0 1.692-.23 1.963-.307v-2.329c-.093.051-.8.46-1.811.46-1.435 0-2.362-1.027-2.362-2.315s.965-2.316 2.362-2.316c1.028 0 1.722.422 1.811.465V43.15c-.203-.06-.952-.307-1.963-.307-2.624 0-4.546 1.898-4.546 4.491zm-22.476 0c0 2.798 2.125 4.495 4.541 4.495.965 0 1.697-.23 1.968-.307V49.19c-.097.05-.8.46-1.807.46-1.439 0-2.362-1.027-2.362-2.315s.965-2.316 2.362-2.316c1.028 0 1.718.422 1.807.465V43.15c-.203-.06-.952-.307-1.968-.307-2.62 0-4.54 1.898-4.54 4.49zm35.76-4.49c-2.623 0-4.506 2.008-4.506 4.49s1.883 4.495 4.507 4.495 4.507-2.013 4.507-4.495-1.883-4.49-4.507-4.49m0 6.776c-1.277 0-2.23-1.023-2.23-2.286 0-1.262.949-2.282 2.23-2.282 1.283 0 2.231 1.024 2.231 2.282s-.952 2.286-2.23 2.286M75.924 46.43l-.592-.192c-.351-.115-.986-.298-.986-.823 0-.418.465-.712 1.333-.712.74 0 1.65.256 1.684.264v-1.855a9 9 0 0 0-2.099-.277c-1.985 0-3.182 1.092-3.182 2.712 0 1.438 1.003 2.154 2.2 2.538.136.047.33.106.462.153.533.171.956.423.956.862 0 .495-.49.814-1.566.814-.94 0-1.845-.273-2.031-.324v2c.106.022 1.18.235 2.323.235 1.647 0 3.534-.733 3.534-2.913 0-1.057-.639-2.03-2.036-2.482m32.511 3.216h1.253a2.4 2.4 0 0 1-.944 1.625c-.487.375-1.079.567-1.777.567q-1.373 0-2.184-.951c-.5-.584-.754-1.356-.754-2.307q0-1.657.906-2.572.775-.78 2.015-.78 1.143 0 1.887.614.654.543.8 1.42h-1.265q-.122-.506-.483-.78-.362-.277-.914-.278c-.563 0-.999.226-1.299.674q-.43.626-.428 1.744c0 .747.191 1.365.572 1.766.304.32.689.482 1.168.482q.622 0 1.015-.363.345-.314.428-.853v-.008zm2.327-1.118q0-1.72 1.016-2.597.81-.709 2.052-.708 1.442-.001 2.269.926.787.863.787 2.38 0 1.695-.991 2.584-.81.722-2.073.72-1.443 0-2.281-.96c-.517-.583-.775-1.368-.775-2.345zm1.193 0q0 1.204.61 1.838.502.53 1.278.53.908-.002 1.396-.687c.305-.418.453-.977.453-1.685q0-1.227-.596-1.85-.49-.518-1.266-.517-.895 0-1.396.687c-.318.418-.479.976-.479 1.684m7.505 3.126h-1.147v-6.252h.943l.119.734q.63-.914 1.824-.913 1.302 0 1.824.985c.415-.657 1.083-.985 2.014-.985.694 0 1.223.213 1.6.636q.5.589.499 1.612v4.183h-1.142v-4.098q0-1.349-1.206-1.348-.717 0-1.147.563a1.74 1.74 0 0 0-.347 1.07v3.813h-1.147v-4.098q0-1.349-1.206-1.348-.67-.001-1.109.53a1.6 1.6 0 0 0-.381 1.07v3.846zm9.412-6.252h.943l.178.82q.764-.999 2.099-.999t2.074.96q.655.864.656 2.298c0 1.13-.301 1.996-.893 2.598-.499.503-1.143.759-1.921.759q-1.327 0-1.994-.985v2.968h-1.147v-8.414zm4.761 3.054q0-1.177-.584-1.766-.465-.481-1.215-.482-.87.001-1.384.636-.49.615-.491 1.612 0 1.204.584 1.838.49.555 1.291.554.896 0 1.359-.66.442-.614.44-1.732m3.602-1.309h-1.215a1.89 1.89 0 0 1 .88-1.455q.705-.468 1.778-.469 1.275.001 1.955.674.571.577.571 1.493v4.269h-.943l-.144-.853q-.728 1.034-2.078 1.032-1.061 0-1.659-.576-.49-.48-.491-1.215 0-.929.63-1.43c.373-.298.948-.51 1.719-.647l1.815-.312v-.311q0-.614-.419-.925-.368-.277-1.015-.278-1.264 0-1.397 1.011zm1.087 3.714c.487 0 .906-.158 1.266-.482q.477-.441.478-1.023v-.806l-1.541.277q-.85.145-1.159.443-.249.241-.25.649 0 .46.309.695.31.241.893.239v.008zm5.759.793h-1.147v-6.252h.944l.131.794q.693-.973 1.887-.973 1.097 0 1.68.687c.343.41.512.964.512 1.672v4.077h-1.142v-4.065q.001-1.38-1.325-1.381c-.461 0-.838.157-1.134.481q-.406.434-.406 1.105v3.86zm10.92-6.252-2.158 6.338c-.288.84-.563 1.416-.825 1.718a1.52 1.52 0 0 1-1.207.542q-.31-.002-.74-.107v-.938c.224.056.419.086.597.086q.368 0 .571-.26c.135-.175.305-.547.512-1.126h-.368l-2.281-6.253h1.24l1.752 5.314 1.752-5.314z" style="fill:#a7a4b5;fill:color(display-p3 .6549 .6431 .7098);fill-opacity:1"/></svg>