<svg xmlns="http://www.w3.org/2000/svg" width="180" height="56" fill="none"><path fill="#A7A4B5" d="M158.979 21.16a1.27 1.27 0 0 1 .656 1.114q0 .35-.175.644a1.27 1.27 0 0 1-.481.463q-.307.17-.677.17-.362 0-.665-.17a1.27 1.27 0 0 1-.479-.463 1.2 1.2 0 0 1-.176-.644q0-.35.176-.645.174-.294.479-.469.303-.172.665-.172.37-.001.677.172m-.137 2.012a.96.96 0 0 0 .372-.367q.135-.236.134-.53 0-.296-.134-.534a.96.96 0 0 0-.372-.373 1.1 1.1 0 0 0-.541-.136 1.05 1.05 0 0 0-.53.136.97.97 0 0 0-.369.373 1.07 1.07 0 0 0-.134.533q0 .296.134.53a.96.96 0 0 0 .369.368q.236.133.53.133.303 0 .541-.133m-.065-.946a.56.56 0 0 1-.246.142l.387.576h-.351l-.319-.53h-.126v.53h-.298v-1.381h.407q.639 0 .639.42a.33.33 0 0 1-.093.243m-.653-.032h.157q.283 0 .283-.21 0-.105-.07-.152a.4.4 0 0 0-.223-.047h-.146v.409zm-93.018 3.132a.43.43 0 0 1-.31.123h-3.728q-.182 0-.182.176v8.47q0 1.337.602 1.933.603.598 1.919.597h1.097q.183 0 .31.123a.4.4 0 0 1 .13.299v2.636q0 .387-.439.457l-1.9.035q-2.888 0-4.313-.95-1.425-.949-1.462-3.585V25.623q0-.175-.182-.175h-2.084a.43.43 0 0 1-.31-.123.4.4 0 0 1-.129-.299v-2.46q0-.176.129-.299a.43.43 0 0 1 .31-.123h2.084q.182 0 .182-.175v-4.112q0-.176.129-.299a.43.43 0 0 1 .31-.122h3.18q.183 0 .31.122a.4.4 0 0 1 .13.299v4.112q0 .175.182.175h3.727q.182 0 .311.123a.4.4 0 0 1 .129.299v2.46a.42.42 0 0 1-.132.3m16.766 5.748-.036 1.09q0 .422-.438.421h-11.44q-.182.001-.182.176.109 1.16.329 1.582.877 2.53 4.276 2.566 2.485 0 3.947-1.97.146-.21.367-.21.145 0 .255.104l2.266 1.792q.33.246.11.563-1.135 1.546-3.016 2.39t-4.185.844q-2.85 0-4.842-1.23t-2.906-3.444q-.84-1.899-.84-5.272 0-2.038.438-3.304.731-2.46 2.76-3.884t4.878-1.423q7.2 0 8.113 7.241.147.878.146 1.968m-10.507-5.045q-.896.65-1.262 1.81-.22.599-.292 1.547-.074.175.146.175h7.42q.182 0 .182-.175-.074-.878-.22-1.337-.33-1.265-1.297-1.968-.969-.704-2.43-.704-1.352.003-2.247.652M97.16 23.55q1.771 1.687 1.772 4.606v11.528a.4.4 0 0 1-.128.299.43.43 0 0 1-.311.123H95.13a.43.43 0 0 1-.311-.123.4.4 0 0 1-.129-.299V29q0-1.617-.95-2.619-.95-1-2.522-1.001-1.57 0-2.54.983-.967.985-.968 2.602v10.72a.4.4 0 0 1-.128.299.43.43 0 0 1-.311.123h-3.363a.43.43 0 0 1-.31-.123.4.4 0 0 1-.13-.299V22.567q0-.176.13-.298a.43.43 0 0 1 .31-.123h3.363q.183 0 .31.123a.4.4 0 0 1 .13.298v1.125q-.001.105.073.14.072.035.109-.07 1.498-1.898 4.532-1.898 2.961 0 4.734 1.687m15.674-.913q1.755.773 2.704 2.127t.951 3.075v11.845a.4.4 0 0 1-.129.298.43.43 0 0 1-.31.123h-3.363a.43.43 0 0 1-.311-.123.4.4 0 0 1-.129-.298V38.56q0-.104-.073-.123-.074-.016-.146.053-1.791 1.898-5.19 1.898-2.741.001-4.514-1.336-1.772-1.336-1.772-3.972 0-2.741 1.992-4.27 1.993-1.53 5.609-1.53h3.911q.182 0 .182-.175v-.845q0-1.37-.84-2.126-.841-.756-2.522-.756-1.389 0-2.248.474-.86.475-1.077 1.318-.11.424-.511.351l-3.546-.421a.8.8 0 0 1-.311-.123q-.128-.087-.091-.228.291-2.145 2.395-3.515 2.102-1.37 5.28-1.37 2.307 0 4.059.774m-2.002 13.603q1.28-.915 1.28-2.32v-1.653q0-.175-.182-.175h-3.071q-1.936 0-3.052.703-1.115.704-1.115 2.004 0 1.125.86 1.74.859.614 2.21.614 1.792.002 3.07-.913m23.674-5.167q0 2.496-.695 4.394-.804 2.32-2.594 3.62-1.791 1.3-4.386 1.3-2.558 0-4.203-1.863-.074-.105-.146-.07-.074.035-.073.14v1.09a.4.4 0 0 1-.129.3.43.43 0 0 1-.311.122h-3.363a.43.43 0 0 1-.31-.123.4.4 0 0 1-.129-.298V15.924q0-.176.129-.298a.43.43 0 0 1 .31-.123h3.363a.434.434 0 0 1 .44.421v7.627q-.001.106.073.14.072.036.146-.034 1.571-1.792 4.167-1.792 2.705 0 4.477 1.3t2.613 3.62q.621 1.969.621 4.29m-4.349.07q0-2.742-1.097-4.29-.987-1.475-2.924-1.475-1.79 0-2.741 1.546-.913 1.442-.913 4.182 0 2.707.84 4.078.95 1.686 2.85 1.686 1.022 0 1.828-.439a3.3 3.3 0 0 0 1.28-1.248q.877-1.473.877-4.04m6.1 8.865a.4.4 0 0 1-.129-.298v-23.76q0-.177.129-.299a.43.43 0 0 1 .31-.123h3.363a.434.434 0 0 1 .44.422v23.76a.4.4 0 0 1-.129.298.43.43 0 0 1-.311.123h-3.364a.42.42 0 0 1-.309-.123" style="fill:#a7a4b5;fill:color(display-p3 .6549 .6431 .7098);fill-opacity:1"/><path fill="#A7A4B5" d="m158.342 31.046-.035 1.09q0 .422-.438.421h-11.44q-.183.001-.183.176.11 1.16.329 1.582.876 2.53 4.276 2.565 2.485 0 3.948-1.969.145-.21.364-.211.146 0 .256.105l2.266 1.792q.328.246.109.562-1.133 1.547-3.015 2.39-1.882.845-4.185.845-2.85 0-4.843-1.23-1.991-1.23-2.905-3.444-.84-1.898-.84-5.273 0-2.038.438-3.303.73-2.46 2.759-3.884t4.879-1.423q7.198 0 8.113 7.241.147.879.147 1.968M147.835 26q-.896.65-1.261 1.81-.22.598-.293 1.546-.074.176.146.176h7.42q.182 0 .182-.176-.074-.878-.22-1.336-.329-1.265-1.297-1.969-.968-.703-2.43-.703-1.352.004-2.247.652m-95.909 3.94L47.7 17.39a2.67 2.67 0 0 0-2.019-1.767L32.49 13.049a2.68 2.68 0 0 0-2.502.843L21.04 23.92a2.67 2.67 0 0 0-.538 2.627l4.227 12.551a2.67 2.67 0 0 0 2.018 1.767L39.94 43.44q.253.049.506.048c.753 0 1.487-.32 1.996-.891l8.948-10.028c.637-.713.843-1.72.537-2.628M46.82 17.688l2.78 8.254-5.908-9.32a2.4 2.4 0 0 0-.459-.53l2.273.444c.61.119 1.115.56 1.314 1.152m-4.355 21.768-5.15.261 8.33-4.822.038-.023-2.005 3.809c-.238.453-.703.75-1.213.775m-12.942-.082-2.91-4.59q.083.06.172.112l8.396 4.861q.059.033.119.064l-4.475.226a1.46 1.46 0 0 1-1.302-.673m.44-22.338 5.15-.261-8.328 4.822-.038.023 2.005-3.809a1.46 1.46 0 0 1 1.212-.775m12.944.083 2.91 4.59a2 2 0 0 0-.172-.112l-8.396-4.86a2 2 0 0 0-.119-.063l4.475-.227a1.45 1.45 0 0 1 1.302.672m2.84 15.991c0 .403-.218.78-.567.984l-8.396 4.859a1.14 1.14 0 0 1-1.139 0l-8.395-4.86a1.14 1.14 0 0 1-.566-.984V23.38c0-.404.217-.78.566-.984l8.397-4.86a1.15 1.15 0 0 1 1.138 0l8.395 4.861c.35.202.566.58.566.984zm-19.957.374-2.439-3.847a1.46 1.46 0 0 1-.058-1.455l2.46-4.677v9.604q0 .191.037.375m20.85-10.477 2.439 3.848c.278.438.3.996.058 1.455l-2.462 4.677v-9.604q-.001-.191-.035-.376m-15.958-8.495a1.75 1.75 0 0 1 1.632-.55l8.236 1.607-10.632.538a2.4 2.4 0 0 0-.84.202zM21.734 24.54l5.918-6.63-5.18 9.84a2.4 2.4 0 0 0-.267.943l-.82-2.439a1.74 1.74 0 0 1 .35-1.714m3.876 14.264-2.78-8.254 5.908 9.32c.127.2.283.379.459.53l-2.272-.444a1.74 1.74 0 0 1-1.315-1.152m16.139 3.178a1.75 1.75 0 0 1-1.632.55l-8.236-1.608 10.632-.538a2.4 2.4 0 0 0 .84-.202zm8.947-10.03-5.916 6.632 5.18-9.841c.156-.296.243-.618.267-.943l.82 2.439a1.74 1.74 0 0 1-.35 1.713" style="fill:#a7a4b5;fill:color(display-p3 .6549 .6431 .7098);fill-opacity:1"/></svg>