<svg xmlns="http://www.w3.org/2000/svg" width="180" height="56" fill="none"><path fill="#A7A4B5" d="M71.119 20.918c0 1.054.115 1.908.316 2.535.23.627.519 1.31.921 2.051.144.228.202.456.202.656 0 .285-.173.57-.547.854l-1.813 1.197c-.26.17-.518.256-.749.256-.287 0-.575-.142-.863-.398a9 9 0 0 1-1.036-1.34 22 22 0 0 1-.893-1.68q-3.367 3.93-8.462 3.931c-2.417 0-4.346-.684-5.756-2.051-1.41-1.368-2.13-3.191-2.13-5.47 0-2.422.863-4.388 2.619-5.87 1.756-1.48 4.087-2.221 7.052-2.221.978 0 1.986.085 3.05.227 1.066.143 2.16.37 3.31.627v-2.08c0-2.165-.46-3.675-1.352-4.558-.921-.883-2.475-1.31-4.692-1.31-1.007 0-2.043.114-3.108.37s-2.101.57-3.109.969c-.46.199-.806.313-1.007.37a1.8 1.8 0 0 1-.46.085c-.404 0-.605-.284-.605-.883V5.79c0-.456.058-.797.201-.997s.403-.399.806-.598q1.512-.77 3.627-1.282c1.41-.37 2.907-.542 4.49-.542 3.425 0 5.93.77 7.541 2.308 1.583 1.539 2.39 3.875 2.39 7.009v9.23zm-11.686 4.33c.95 0 1.928-.171 2.965-.513s1.957-.968 2.734-1.823c.46-.541.806-1.14.978-1.824.173-.683.288-1.51.288-2.478v-1.197c-.834-.2-1.727-.37-2.648-.484a22 22 0 0 0-2.705-.171c-1.929 0-3.34.37-4.289 1.14-.95.769-1.41 1.851-1.41 3.276 0 1.339.345 2.336 1.065 3.02.69.712 1.698 1.054 3.022 1.054m23.113 3.077c-.519 0-.864-.086-1.094-.285-.23-.171-.432-.57-.605-1.111L74.083 4.906c-.172-.57-.259-.94-.259-1.14 0-.455.23-.712.691-.712h2.82c.548 0 .922.086 1.123.285.23.171.403.57.576 1.111l4.836 18.86 4.49-18.86c.144-.57.316-.94.547-1.11.23-.172.633-.286 1.15-.286h2.303c.547 0 .922.086 1.152.285.23.171.432.57.547 1.111l4.547 19.088 4.98-19.088c.173-.57.374-.94.576-1.11.23-.172.604-.286 1.122-.286h2.677c.46 0 .719.228.719.712 0 .143-.028.285-.057.456s-.086.4-.202.713l-6.936 22.022q-.259.855-.605 1.111c-.23.171-.604.285-1.093.285H97.31c-.547 0-.92-.085-1.151-.285s-.432-.57-.547-1.14l-4.46-18.374L86.719 26.9c-.144.57-.316.94-.547 1.14-.23.2-.633.285-1.151.285zm36.986.77c-1.497 0-2.994-.172-4.433-.514s-2.562-.712-3.31-1.14c-.461-.256-.777-.54-.892-.797a2 2 0 0 1-.173-.798v-1.453c0-.598.23-.883.662-.883q.259 0 .518.085c.173.058.432.172.72.285.978.428 2.043.77 3.166.998 1.151.227 2.274.341 3.425.341 1.813 0 3.224-.313 4.202-.94.979-.626 1.497-1.538 1.497-2.706 0-.798-.259-1.453-.777-1.995-.518-.54-1.497-1.025-2.907-1.481l-4.174-1.282c-2.101-.655-3.655-1.624-4.605-2.906-.95-1.254-1.439-2.65-1.439-4.131q0-1.794.777-3.163a7.35 7.35 0 0 1 2.072-2.336c.864-.655 1.842-1.14 2.994-1.481 1.151-.342 2.36-.485 3.626-.485.634 0 1.296.029 1.929.114.662.086 1.266.2 1.871.314.575.142 1.122.285 1.64.456q.777.256 1.209.512c.403.228.691.456.864.713q.258.342.259.94V6.7c0 .598-.23.912-.662.912-.23 0-.605-.114-1.094-.342q-2.462-1.111-5.526-1.111c-1.641 0-2.936.256-3.828.797-.893.542-1.353 1.368-1.353 2.536 0 .798.288 1.481.863 2.023.576.541 1.641 1.082 3.166 1.567l4.088 1.282c2.072.655 3.569 1.567 4.461 2.735s1.324 2.507 1.324 3.988c0 1.226-.259 2.337-.748 3.305a7.7 7.7 0 0 1-2.102 2.507c-.892.713-1.957 1.225-3.194 1.596a13.8 13.8 0 0 1-4.116.598" style="fill:#a7a4b5;fill:color(display-p3 .6549 .6431 .7098);fill-opacity:1"/><path fill="#A7A4B5" fill-rule="evenodd" d="M124.972 42.94c-9.47 6.923-23.228 10.598-35.058 10.598-16.579 0-31.517-6.068-42.8-16.153-.892-.798-.086-1.88.979-1.254C60.296 43.14 75.35 47.385 90.92 47.385c10.506 0 22.048-2.166 32.669-6.61 1.583-.712 2.936 1.026 1.382 2.165" clip-rule="evenodd" style="fill:#a7a4b5;fill:color(display-p3 .6549 .6431 .7098);fill-opacity:1"/><path fill="#A7A4B5" fill-rule="evenodd" d="M128.915 38.496c-1.209-1.539-8.002-.741-11.081-.37-.921.113-1.065-.684-.231-1.283 5.412-3.76 14.306-2.678 15.342-1.424 1.036 1.282-.288 10.085-5.354 14.302-.777.655-1.525.313-1.18-.541 1.151-2.821 3.713-9.174 2.504-10.684" clip-rule="evenodd" style="fill:#a7a4b5;fill:color(display-p3 .6549 .6431 .7098);fill-opacity:1"/></svg>