<svg xmlns="http://www.w3.org/2000/svg" width="180" height="56" fill="none"><path fill="#A7A4B5" d="M78.069 19.025v18.074h-3.151V22.916h-.042l-5.63 14.183h-2.1L61.39 22.916h-.042v14.183H58.45V19.025h4.538l5.21 13.388h.083l5.504-13.388zm2.605 1.38c0-.502.168-.92.546-1.255a1.88 1.88 0 0 1 1.302-.502c.546 0 1.008.168 1.345.502.336.335.546.754.546 1.256s-.168.92-.546 1.255a1.9 1.9 0 0 1-1.345.502c-.546 0-.966-.168-1.302-.502-.336-.377-.546-.795-.546-1.255m3.403 3.724V37.1H81.01V24.13zm9.284 10.753c.462 0 .967-.084 1.513-.335a6.7 6.7 0 0 0 1.512-.837v2.845a5.4 5.4 0 0 1-1.68.628c-.63.125-1.303.21-2.059.21-1.932 0-3.487-.587-4.663-1.8-1.218-1.213-1.807-2.761-1.807-4.602 0-2.092.63-3.808 1.849-5.146 1.218-1.34 2.94-2.009 5.21-2.009.587 0 1.176.084 1.722.21.588.125 1.05.334 1.386.502v2.928c-.462-.334-.966-.627-1.428-.795-.504-.167-1.008-.293-1.513-.293-1.218 0-2.184.377-2.94 1.172-.757.795-1.093 1.84-1.093 3.18 0 1.297.378 2.343 1.093 3.054.714.711 1.68 1.088 2.898 1.088m11.722-10.962c.252 0 .462 0 .672.042q.315.063.504.125v3.096a1.9 1.9 0 0 0-.714-.334c-.336-.084-.672-.168-1.134-.168-.757 0-1.387.335-1.891.963s-.798 1.59-.798 2.928V37.1h-3.067V24.13h3.067v2.05h.042c.294-.711.714-1.255 1.26-1.673a3.7 3.7 0 0 1 2.059-.586m1.344 6.903c0-2.133.63-3.849 1.807-5.104q1.828-1.883 5.041-1.883c2.017 0 3.613.586 4.748 1.8 1.134 1.213 1.722 2.844 1.722 4.895 0 2.092-.63 3.765-1.806 5.02-1.219 1.255-2.857 1.883-4.958 1.883q-3.025 0-4.789-1.757c-1.177-1.214-1.765-2.845-1.765-4.854m3.193-.125c0 1.339.294 2.385.924 3.096s1.513 1.088 2.647 1.088c1.092 0 1.975-.335 2.563-1.088.588-.711.882-1.757.882-3.18 0-1.38-.294-2.426-.882-3.18-.588-.71-1.471-1.087-2.521-1.087-1.134 0-1.974.376-2.605 1.13-.714.794-1.008 1.84-1.008 3.22m14.704-3.138c0 .418.126.795.421 1.046.294.251.882.544 1.848.92 1.218.503 2.101 1.046 2.563 1.632.504.628.756 1.339.756 2.218 0 1.213-.462 2.175-1.428 2.928-.925.753-2.227 1.088-3.823 1.088-.547 0-1.135-.084-1.807-.21-.672-.125-1.218-.292-1.681-.501v-3.013a7.4 7.4 0 0 0 1.807.92c.63.21 1.218.336 1.765.336.672 0 1.218-.084 1.512-.293.336-.21.504-.502.504-.963 0-.418-.168-.753-.504-1.087-.336-.293-1.008-.628-1.933-1.005-1.134-.46-1.932-1.004-2.394-1.59-.462-.585-.714-1.338-.714-2.259q0-1.756 1.386-2.887c.924-.753 2.143-1.13 3.613-1.13.462 0 .966.043 1.512.168a17 17 0 0 1 1.429.377v2.97a9 9 0 0 0-1.429-.711 4.5 4.5 0 0 0-1.596-.293c-.588 0-1.05.126-1.344.335-.295.293-.463.586-.463 1.004m6.89 3.263c0-2.133.631-3.849 1.807-5.104q1.827-1.883 5.041-1.883c2.017 0 3.613.586 4.748 1.8 1.134 1.213 1.722 2.844 1.722 4.895 0 2.092-.63 3.765-1.806 5.02-1.219 1.255-2.857 1.883-4.958 1.883q-3.024 0-4.789-1.757c-1.134-1.214-1.765-2.845-1.765-4.854m3.193-.125c0 1.339.294 2.385.925 3.096.63.711 1.512 1.088 2.646 1.088 1.093 0 1.975-.335 2.563-1.088.588-.711.882-1.757.882-3.18 0-1.38-.294-2.426-.882-3.18-.588-.71-1.47-1.087-2.521-1.087-1.134 0-1.974.376-2.604 1.13-.673.794-1.009 1.84-1.009 3.22m20.334-4.058h-4.579V37.1h-3.109V26.64h-2.185v-2.51h2.185v-1.8c0-1.339.462-2.468 1.344-3.347s2.017-1.297 3.403-1.297c.379 0 .715.042 1.009.042s.546.084.756.167v2.636a5 5 0 0 0-.546-.21 2.8 2.8 0 0 0-.882-.125c-.631 0-1.135.21-1.471.586-.336.377-.504 1.004-.504 1.757v1.548h4.579V21.16l3.067-.92v3.848h3.109v2.51h-3.109v6.067c0 .795.168 1.34.42 1.674q.442.502 1.387.502.252 0 .63-.126c.252-.083.462-.167.63-.292v2.51c-.21.125-.504.21-.966.293a7.3 7.3 0 0 1-1.345.125q-1.953 0-2.898-1.004c-.631-.67-.967-1.715-.967-3.096zM33.452 13H19.084v14.309h14.368zm15.881 0H34.965v14.309h14.368zM33.452 28.815H19.084v14.309h14.368zm15.881 0H34.965v14.309h14.368z" style="fill:#a7a4b5;fill:color(display-p3 .6549 .6431 .7098);fill-opacity:1"/></svg>