<svg xmlns="http://www.w3.org/2000/svg" width="367" height="503" fill="none"><g clip-path="url(#a)"><path fill="#fff" d="M362.39 5.02H5v420.49l178.7 71.91 178.69-71.91z"/><path fill="#000" d="M211.59 328.964q-.225-1.036-.784-1.54-.561-.532-1.596-.532-1.596 0-2.296 1.4-.7 1.373-.728 4.368.615-.98 1.764-1.54a5.9 5.9 0 0 1 2.576-.56q2.743 0 4.396 1.736 1.68 1.736 1.68 4.844 0 2.044-.84 3.584-.812 1.54-2.408 2.408-1.569.868-3.724.868-4.312 0-5.992-2.688-1.68-2.716-1.68-7.784 0-5.32 1.764-7.896 1.791-2.604 5.712-2.604 2.1 0 3.528.84 1.455.812 2.184 2.156a7.2 7.2 0 0 1 .896 2.94zm-2.212 5.376q-1.204 0-2.016.728-.784.7-.784 2.016 0 1.344.728 2.1.756.756 2.128.756 1.232 0 1.932-.728.728-.756.728-2.044 0-1.316-.7-2.072t-2.016-.756m-24.06 5.712q.952-.756.868-.7 2.743-2.268 4.312-3.724 1.596-1.456 2.688-3.052t1.092-3.108q0-1.148-.532-1.792t-1.596-.644-1.68.812q-.588.784-.588 2.24h-4.62q.055-2.38 1.008-3.976.98-1.596 2.548-2.352 1.596-.756 3.528-.756 3.332 0 5.012 1.708 1.707 1.709 1.708 4.452 0 2.996-2.044 5.572-2.044 2.548-5.208 4.984h7.56v3.892h-14.056zm-18.098-6.664q0-4.816 1.848-7.588 1.876-2.772 6.02-2.772t5.992 2.772q1.876 2.772 1.876 7.588 0 4.872-1.876 7.644-1.848 2.772-5.992 2.772t-6.02-2.772q-1.848-2.772-1.848-7.644m11.032 0q0-2.828-.616-4.34-.616-1.54-2.548-1.54t-2.548 1.54q-.616 1.512-.616 4.34 0 1.904.224 3.164.224 1.231.896 2.016.7.756 2.044.756t2.016-.756q.7-.784.924-2.016.224-1.26.224-3.164m-27.196 6.664q.952-.756.868-.7 2.744-2.268 4.312-3.724 1.596-1.456 2.688-3.052t1.092-3.108q0-1.148-.532-1.792t-1.596-.644-1.68.812q-.588.784-.588 2.24H151q.055-2.38 1.008-3.976.98-1.596 2.548-2.352 1.596-.756 3.528-.756 3.332 0 5.012 1.708 1.708 1.709 1.708 4.452 0 2.996-2.044 5.572-2.044 2.548-5.208 4.984h7.56v3.892h-14.056z"/><path fill="url(#b)" d="M183.5 502.81 0 428.96V0h367v428.96L183.5 502.8zM9.61 422.06l173.89 69.98 173.89-69.98V10.05H9.61z"/><path fill="#FC584E" d="M28.82 387.71v23.06l154.68 59.51 154.68-59.51v-23.06L183.5 447.22z"/><path fill="#FF7E6E" d="M28.82 355.53v23.05l154.68 59.51 154.68-59.51v-23.05l-154.68 59.5z"/><path fill="#FFA090" d="M28.82 323.34v23.06l154.68 59.51 154.68-59.51v-23.06L183.5 382.85z"/><path fill="#B41D1B" d="M79.07 127.08v3.39H77a5.77 5.77 0 0 1-3.99-1.26c-.96-.85-1.38-2.25-1.38-4.2v-6.73h-2.16v-3.32h2.15v-3.84h3.95v3.84h3.47v3.32h-3.47v6.73c-.06.56.1 1.12.44 1.57.43.35.97.51 1.52.45zm17.27-3.62H84.97c-.04 1.13.36 2.22 1.11 3.06.7.65 1.62.99 2.57.96.82.03 1.62-.2 2.29-.67a3 3 0 0 0 1.16-1.82h4.17a6.7 6.7 0 0 1-3.91 4.92c-1.1.5-2.3.75-3.51.73-1.4.03-2.79-.3-4.04-.96a6.84 6.84 0 0 1-2.74-2.75 9.62 9.62 0 0 1 0-8.47 6.7 6.7 0 0 1 2.74-2.76c1.24-.65 2.63-.98 4.04-.96 1.4-.03 2.78.3 4.02.96a6.77 6.77 0 0 1 2.66 2.62 7.5 7.5 0 0 1 .96 3.79c-.02.46-.07.91-.16 1.35zm-4.8-4.61a3.83 3.83 0 0 0-2.64-.96c-.99-.04-1.95.31-2.69.96-.78.76-1.21 1.8-1.2 2.88h7.52c.13-1.07-.25-2.13-1.02-2.88zm19.7-2.47a7.1 7.1 0 0 1 2.51 4.42h-4.17c-.14-.76-.55-1.44-1.15-1.92a3.55 3.55 0 0 0-2.27-.71c-1-.02-1.96.41-2.61 1.16a6.03 6.03 0 0 0 0 6.8c.66.75 1.61 1.18 2.61 1.16a3.5 3.5 0 0 0 2.27-.72c.6-.48 1.01-1.16 1.15-1.92h4.17a7.1 7.1 0 0 1-2.51 4.42 7.64 7.64 0 0 1-5 1.62c-1.4.03-2.79-.3-4.04-.96a6.84 6.84 0 0 1-2.74-2.75 9.62 9.62 0 0 1 0-8.47 6.7 6.7 0 0 1 2.74-2.76c1.24-.65 2.63-.98 4.04-.96 1.8-.07 3.57.49 5 1.59m18.82.12a7.06 7.06 0 0 1 1.59 4.95v9.02h-3.88v-8.57a4.08 4.08 0 0 0-.96-2.88 3.43 3.43 0 0 0-2.6-1.03c-1.01-.04-2 .36-2.69 1.1-.71.88-1.05 2-.96 3.13v8.23h-3.95v-20.69h3.95v8.31c.39-1.02 1.1-1.88 2.03-2.45.98-.6 2.12-.91 3.27-.88 1.59-.05 3.13.59 4.21 1.77zm11.31-.92a6.16 6.16 0 0 1 3.19-.86v4.23h-1.14c-2.89 0-4.34 1.35-4.34 4.04v7.47h-3.94v-15.51h3.94v2.96c.55-.96 1.34-1.76 2.3-2.33zm19.82 7.88h-11.32c-.04 1.13.36 2.22 1.12 3.06.7.65 1.62 1 2.57.96.81.03 1.61-.2 2.28-.67.6-.44 1.02-1.09 1.16-1.82h4.17c-.2 1.05-.65 2.04-1.32 2.88-.69.87-1.57 1.56-2.58 2.01a8.85 8.85 0 0 1-7.54-.24 6.75 6.75 0 0 1-2.75-2.75 9.62 9.62 0 0 1 0-8.47 6.7 6.7 0 0 1 2.75-2.76c1.24-.65 2.62-.98 4.03-.96 1.4-.03 2.78.3 4.02.96a6.64 6.64 0 0 1 2.66 2.62 7.5 7.5 0 0 1 .96 3.79c-.02.47-.1.94-.21 1.39m-4.8-4.61c-.72-.65-1.67-.99-2.64-.96-.99-.04-1.95.31-2.69.96-.77.76-1.2 1.8-1.2 2.88h7.53c.12-1.07-.26-2.13-1.03-2.88zm14.48 7.67 3.92-11.53h4.2l-5.76 15.51h-4.8l-5.76-15.51h4.23l3.99 11.53zm10.52-17.56c1.04-.81 2.5-.81 3.54 0 .85.8.89 2.14.09 2.99l-.09.09c-1.04.81-2.5.81-3.54 0a2.116 2.116 0 0 1 0-3.08m3.73 6v15.51h-3.95v-15.51zm18.03 8.5h-11.37c-.04 1.13.36 2.22 1.12 3.06.7.65 1.62.99 2.57.96.81.03 1.61-.2 2.28-.67.6-.44 1.02-1.09 1.16-1.82h4.18a6.7 6.7 0 0 1-1.33 2.88c-.68.87-1.57 1.56-2.58 2.01a8.85 8.85 0 0 1-7.54-.24 6.8 6.8 0 0 1-2.75-2.75 9.62 9.62 0 0 1 0-8.47 6.7 6.7 0 0 1 2.75-2.76c1.24-.65 2.62-.98 4.03-.96 1.4-.03 2.78.3 4.02.96a6.64 6.64 0 0 1 2.66 2.62 7.5 7.5 0 0 1 .96 3.79c0 .47-.06.94-.16 1.39m-4.81-4.61c-.73-.64-1.68-.99-2.65-.96-.98-.03-1.94.31-2.68.96-.78.76-1.21 1.8-1.21 2.88h7.53c.12-1.06-.25-2.13-1.01-2.88zm29.94-3.89-4.17 15.51h-4.36l-3.33-11.28-3.41 11.28h-4.37l-4.14-15.51h3.99l2.52 11.98 3.44-11.98h4.18l3.47 11.98 2.55-11.98h3.65zm16.41 8.5h-11.37c-.04 1.12.36 2.22 1.11 3.06.7.65 1.62.99 2.57.96.82.03 1.62-.2 2.29-.67a3 3 0 0 0 1.16-1.82h4.17a6.7 6.7 0 0 1-3.91 4.92c-1.1.5-2.3.75-3.51.73-1.4.03-2.79-.3-4.04-.96a6.84 6.84 0 0 1-2.74-2.75 9.62 9.62 0 0 1 0-8.47 6.7 6.7 0 0 1 2.74-2.76c1.24-.65 2.63-.98 4.04-.96 1.4-.03 2.78.3 4.02.96a6.77 6.77 0 0 1 2.66 2.62 7.5 7.5 0 0 1 .96 3.79c-.02.46-.07.91-.16 1.35zm-4.81-4.61c-.72-.65-1.67-.99-2.64-.96-.99-.04-1.95.31-2.69.96-.77.76-1.21 1.8-1.2 2.88h7.52c.13-1.07-.25-2.13-1.02-2.88zm13.98-3.27a6.16 6.16 0 0 1 3.19-.86v4.23h-1.14c-2.89 0-4.34 1.35-4.34 4.04v7.47h-3.94v-15.51h3.94v2.96c.55-.96 1.34-1.77 2.3-2.33zm8.65 10.77v4.12h-4.25v-4.12zm14.6-9.97a7.1 7.1 0 0 1 2.51 4.42h-4.17c-.14-.76-.55-1.44-1.15-1.92a3.55 3.55 0 0 0-2.27-.71c-1-.02-1.96.41-2.61 1.16a5.99 5.99 0 0 0 0 6.8c.66.75 1.61 1.18 2.61 1.16a3.5 3.5 0 0 0 2.27-.72c.6-.48 1.01-1.16 1.15-1.92h4.17a7.1 7.1 0 0 1-2.51 4.42 7.64 7.64 0 0 1-5 1.62c-1.4.03-2.79-.3-4.04-.96a6.84 6.84 0 0 1-2.74-2.75 9.62 9.62 0 0 1 0-8.47 6.7 6.7 0 0 1 2.74-2.76c1.24-.65 2.63-.98 4.04-.96 1.8-.07 3.57.49 5 1.59m16.55-.67c1.19.62 2.18 1.58 2.83 2.76a9.18 9.18 0 0 1 0 8.47 7.06 7.06 0 0 1-2.83 2.75 9.07 9.07 0 0 1-8.15 0c-1.2-.62-2.2-1.58-2.88-2.75a9.18 9.18 0 0 1 0-8.47 6.96 6.96 0 0 1 2.88-2.76 9.2 9.2 0 0 1 8.15 0m-6.88 3.62a5.565 5.565 0 0 0 0 6.73 3.953 3.953 0 0 0 5.6 0 5.536 5.536 0 0 0 0-6.73 3.97 3.97 0 0 0-5.6 0M153.06 32.35h20.29c0 11.21-9.08 20.29-20.29 20.29z"/><path fill="#FF7E6E" d="M193.64 32.35v20.28h-20.29c0-11.2 9.09-20.28 20.29-20.28"/><path fill="#FC584E" d="M193.64 52.63h-20.29v40.58h20.29z"/><path fill="#FFA090" d="M213.93 32.35h-20.29v20.29h20.29z"/><path fill="#000" d="M161.18 162.43v7.62h-10.75v31.98h-9.63v-31.98h-10.64v-7.62zm33.01 1.99c3.04 1.74 5.44 4.14 7.2 7.22s2.63 6.56 2.63 10.44-.89 7.37-2.66 10.47-4.18 5.52-7.22 7.25c-3.04 1.74-6.41 2.6-10.11 2.6s-7.07-.87-10.11-2.6c-3.04-1.74-5.45-4.15-7.22-7.25s-2.66-6.59-2.66-10.47.89-7.36 2.66-10.44 4.18-5.49 7.22-7.22c3.04-1.74 6.41-2.6 10.11-2.6s7.12.87 10.16 2.6m-17.64 9.35c-1.85 2.04-2.77 4.81-2.77 8.32s.92 6.24 2.77 8.29 4.34 3.08 7.48 3.08 5.58-1.03 7.45-3.08 2.8-4.82 2.8-8.29-.92-6.23-2.77-8.29c-1.85-2.05-4.34-3.08-7.48-3.08s-5.63 1.02-7.48 3.05m42.42 14.36v13.89h-9.58v-39.59h15.51c4.7 0 8.29 1.17 10.75 3.5s3.7 5.48 3.7 9.44c0 2.46-.55 4.66-1.65 6.58s-2.74 3.44-4.9 4.54c-2.17 1.1-4.8 1.65-7.9 1.65h-5.94zm10.64-12.76c0-3.47-1.92-5.21-5.77-5.21h-4.87v10.3h4.87c3.84 0 5.77-1.7 5.77-5.1zm46.027 116.902q-2.482 0-4.42-.85t-3.06-2.312a6.2 6.2 0 0 1-1.258-3.332h5.746q.102.986.918 1.598.815.612 2.006.612 1.087 0 1.666-.408.612-.443.612-1.122 0-.816-.85-1.19-.85-.408-2.754-.884-2.04-.476-3.4-.986a6.1 6.1 0 0 1-2.346-1.666q-.986-1.156-.986-3.094a5.2 5.2 0 0 1 .884-2.958q.918-1.36 2.652-2.142 1.767-.782 4.182-.782 3.57 0 5.61 1.768 2.074 1.768 2.38 4.692h-5.372q-.137-.986-.884-1.564-.714-.578-1.904-.578-1.02 0-1.564.408-.544.374-.544 1.054 0 .816.85 1.224.884.408 2.72.816 2.108.544 3.434 1.088 1.326.51 2.312 1.7 1.02 1.156 1.054 3.128a5 5 0 0 1-.952 2.992q-.918 1.291-2.686 2.04-1.734.748-4.046.748m-10.786-10.064q0 .816-.102 1.7h-13.158q.137 1.768 1.122 2.72 1.02.918 2.482.918 2.177 0 3.026-1.836h6.188a8.4 8.4 0 0 1-1.734 3.366q-1.224 1.495-3.094 2.346-1.869.85-4.182.85-2.787 0-4.964-1.19-2.175-1.19-3.4-3.4-1.224-2.21-1.224-5.168t1.19-5.168q1.225-2.21 3.4-3.4 2.176-1.19 4.998-1.19 2.754 0 4.896 1.156a8.2 8.2 0 0 1 3.332 3.298q1.224 2.142 1.224 4.998m-5.95-1.53q0-1.496-1.02-2.38t-2.55-.884q-1.461 0-2.482.85-.986.85-1.224 2.414zm-19.037-9.622q-1.53 0-2.516-.884a3 3 0 0 1-.952-2.244q0-1.36.952-2.244.986-.918 2.516-.918 1.495 0 2.448.918.986.883.986 2.244 0 1.326-.986 2.244-.952.884-2.448.884m2.89 1.972V292h-5.814v-18.972zm-17.164-.204q3.332 0 5.304 2.176 2.006 2.142 2.006 5.916V292h-5.78v-10.302q0-1.904-.986-2.958t-2.652-1.054-2.652 1.054-.986 2.958V292h-5.814v-18.972h5.814v2.516q.884-1.258 2.38-1.972 1.495-.748 3.366-.748m-35.792 9.656q0-2.924 1.088-5.134 1.121-2.21 3.026-3.4t4.25-1.19q2.005 0 3.502.816 1.53.816 2.346 2.142v-2.686h5.814V292h-5.814v-2.686q-.85 1.326-2.38 2.142-1.497.816-3.502.816-2.313 0-4.216-1.19-1.905-1.224-3.026-3.434-1.088-2.244-1.088-5.168m14.212.034q0-2.176-1.224-3.434-1.19-1.258-2.924-1.258t-2.958 1.258q-1.19 1.224-1.19 3.4t1.19 3.468q1.224 1.258 2.958 1.258t2.924-1.258q1.224-1.258 1.224-3.434m-30.318-6.8q.849-1.326 2.346-2.142 1.495-.816 3.502-.816 2.345 0 4.25 1.19 1.903 1.19 2.992 3.4 1.122 2.21 1.122 5.134t-1.122 5.168q-1.089 2.21-2.992 3.434-1.905 1.19-4.25 1.19-1.972 0-3.502-.816-1.497-.816-2.346-2.108v11.696h-5.814v-28.016h5.814zm8.296 6.766q0-2.176-1.224-3.4-1.191-1.258-2.958-1.258-1.734 0-2.958 1.258-1.19 1.258-1.19 3.434t1.19 3.434q1.224 1.258 2.958 1.258t2.958-1.258q1.224-1.292 1.224-3.468m-25.895-9.656q3.537 0 5.61 2.142 2.108 2.142 2.108 5.95V292h-5.78v-10.302q0-1.836-.986-2.822-.951-1.02-2.652-1.02-1.7 0-2.686 1.02-.951.986-.952 2.822V292h-5.78v-10.302q0-1.836-.986-2.822-.951-1.02-2.652-1.02-1.7 0-2.686 1.02-.952.986-.952 2.822V292h-5.814v-18.972h5.814v2.38q.885-1.19 2.312-1.87 1.428-.714 3.23-.714 2.143 0 3.808.918a6.55 6.55 0 0 1 2.652 2.618q.987-1.564 2.686-2.55a7.26 7.26 0 0 1 3.706-.986m-37.22 19.448q-2.788 0-5.032-1.19-2.21-1.19-3.502-3.4-1.258-2.21-1.258-5.168 0-2.924 1.292-5.134 1.292-2.244 3.536-3.434t5.032-1.19 5.032 1.19 3.536 3.434q1.292 2.21 1.292 5.134t-1.326 5.168a8.74 8.74 0 0 1-3.57 3.4q-2.244 1.19-5.032 1.19m0-5.032q1.666 0 2.822-1.224 1.19-1.224 1.19-3.502t-1.156-3.502q-1.122-1.224-2.788-1.224-1.7 0-2.822 1.224-1.122 1.19-1.122 3.502 0 2.278 1.088 3.502 1.122 1.224 2.788 1.224m-35.52-7.208q0-3.536 1.53-6.29 1.53-2.788 4.25-4.318 2.754-1.564 6.222-1.564 4.25 0 7.275 2.244t4.046 6.12h-6.392q-.714-1.496-2.04-2.278-1.291-.782-2.957-.782-2.686 0-4.353 1.87-1.665 1.87-1.665 4.998 0 3.127 1.665 4.998 1.666 1.87 4.353 1.87 1.665 0 2.957-.782 1.327-.782 2.04-2.278h6.392q-1.02 3.876-4.046 6.12-3.025 2.21-7.275 2.21-3.468 0-6.223-1.53a11.1 11.1 0 0 1-4.25-4.318q-1.53-2.754-1.53-6.29m237.86-47.276q2.007 0 3.502.816 1.53.816 2.346 2.142v-2.686h5.814v18.938q0 2.618-1.054 4.726-1.02 2.142-3.162 3.4-2.108 1.258-5.27 1.258-4.215 0-6.834-2.006-2.617-1.972-2.992-5.372h5.746q.273 1.088 1.292 1.7 1.02.646 2.516.646 1.803 0 2.856-1.054 1.089-1.02 1.088-3.298v-2.686q-.849 1.326-2.346 2.176-1.495.816-3.502.816-2.346 0-4.25-1.19-1.904-1.224-3.026-3.434-1.088-2.244-1.088-5.168t1.088-5.134q1.122-2.21 3.026-3.4t4.25-1.19m5.848 9.758q0-2.176-1.224-3.434-1.19-1.258-2.924-1.258t-2.958 1.258q-1.19 1.224-1.19 3.4t1.19 3.468q1.224 1.258 2.958 1.258t2.924-1.258q1.224-1.258 1.224-3.434m-24.406-9.69q3.333 0 5.304 2.176 2.007 2.142 2.006 5.916V252h-5.78v-10.302q0-1.903-.986-2.958-.986-1.054-2.652-1.054-1.665 0-2.652 1.054-.986 1.055-.986 2.958V252h-5.814v-18.972h5.814v2.516q.885-1.258 2.38-1.972 1.497-.748 3.366-.748m-18.663-1.768q-1.53 0-2.516-.884a3 3 0 0 1-.952-2.244q0-1.36.952-2.244.986-.918 2.516-.918 1.495 0 2.448.918.986.883.986 2.244 0 1.326-.986 2.244-.953.884-2.448.884m2.89 1.972V252h-5.814v-18.972zm-9.053 14.042V252h-2.958q-3.162 0-4.93-1.53-1.767-1.564-1.768-5.066v-7.548h-2.312v-4.828h2.312v-4.624h5.814v4.624h3.808v4.828h-3.808v7.616q0 .85.408 1.224.409.374 1.36.374zm-14.787-20.23V252h-5.814v-25.16zm-9.99 6.188V252h-5.814v-2.584q-.884 1.259-2.414 2.04-1.496.748-3.332.748-2.176 0-3.842-.952-1.666-.986-2.584-2.822t-.918-4.318v-11.084h5.78v10.302q0 1.903.986 2.958.986 1.054 2.652 1.054 1.7 0 2.686-1.054t.986-2.958v-10.302zm-29.975 19.244q-2.482 0-4.42-.85t-3.06-2.312a6.2 6.2 0 0 1-1.258-3.332h5.746q.102.986.918 1.598t2.006.612q1.088 0 1.666-.408.612-.443.612-1.122 0-.816-.85-1.19-.85-.408-2.754-.884-2.04-.476-3.4-.986a6.1 6.1 0 0 1-2.346-1.666q-.986-1.156-.986-3.094 0-1.632.884-2.958.918-1.36 2.652-2.142 1.769-.782 4.182-.782 3.57 0 5.61 1.768 2.074 1.768 2.38 4.692h-5.372q-.136-.986-.884-1.564-.714-.578-1.904-.578-1.02 0-1.564.408-.544.374-.544 1.054 0 .816.85 1.224.884.408 2.72.816 2.108.544 3.434 1.088 1.326.51 2.312 1.7 1.02 1.156 1.054 3.128a5 5 0 0 1-.952 2.992q-.918 1.291-2.686 2.04-1.734.748-4.046.748m-19.068-19.448q3.331 0 5.304 2.176 2.006 2.142 2.006 5.916V252h-5.78v-10.302q0-1.903-.986-2.958-.986-1.054-2.652-1.054t-2.652 1.054q-.986 1.055-.986 2.958V252h-5.814v-18.972h5.814v2.516q.884-1.258 2.38-1.972 1.495-.748 3.366-.748m-24.573 19.448q-2.788 0-5.032-1.19-2.21-1.19-3.502-3.4-1.257-2.21-1.258-5.168 0-2.924 1.292-5.134 1.292-2.244 3.536-3.434 2.245-1.19 5.032-1.19t5.032 1.19q2.244 1.19 3.536 3.434 1.292 2.21 1.292 5.134t-1.326 5.168a8.74 8.74 0 0 1-3.57 3.4q-2.244 1.19-5.032 1.19m0-5.032q1.667 0 2.822-1.224 1.19-1.224 1.19-3.502t-1.156-3.502q-1.122-1.224-2.788-1.224-1.7 0-2.822 1.224-1.122 1.19-1.122 3.502 0 2.278 1.088 3.502 1.122 1.224 2.788 1.224m-35.52-7.208q0-3.536 1.53-6.29 1.53-2.788 4.25-4.318 2.754-1.564 6.222-1.564 4.25 0 7.276 2.244t4.046 6.12h-6.392q-.714-1.496-2.04-2.278-1.292-.782-2.958-.782-2.686 0-4.352 1.87t-1.666 4.998 1.666 4.998 4.352 1.87q1.666 0 2.958-.782 1.326-.782 2.04-2.278h6.392q-1.02 3.876-4.046 6.12-3.026 2.21-7.276 2.21-3.468 0-6.222-1.53a11.1 11.1 0 0 1-4.25-4.318q-1.53-2.754-1.53-6.29m-30.451 2.448q0-2.924 1.088-5.134 1.122-2.21 3.026-3.4t4.25-1.19q1.87 0 3.4.782 1.563.782 2.448 2.108v-8.806h5.814V252h-5.814v-2.72q-.816 1.36-2.346 2.176-1.497.816-3.502.816-2.346 0-4.25-1.19-1.905-1.224-3.026-3.434-1.088-2.244-1.088-5.168m14.212.034q0-2.176-1.224-3.434-1.19-1.258-2.924-1.258t-2.958 1.258q-1.19 1.224-1.19 3.4t1.19 3.468q1.224 1.258 2.958 1.258 1.733 0 2.924-1.258 1.224-1.258 1.224-3.434m-17.232-9.486V252h-5.814v-2.584q-.885 1.259-2.414 2.04-1.497.748-3.332.748-2.177 0-3.842-.952-1.666-.986-2.584-2.822t-.918-4.318v-11.084h5.78v10.302q0 1.903.986 2.958.985 1.054 2.652 1.054 1.7 0 2.686-1.054t.986-2.958v-10.302zm-31.747 19.244q-2.788 0-5.032-1.19-2.21-1.19-3.502-3.4-1.257-2.21-1.258-5.168 0-2.924 1.292-5.134 1.292-2.244 3.536-3.434t5.032-1.19 5.032 1.19 3.536 3.434q1.292 2.21 1.292 5.134t-1.326 5.168a8.74 8.74 0 0 1-3.57 3.4q-2.244 1.19-5.032 1.19m0-5.032q1.666 0 2.822-1.224 1.19-1.224 1.19-3.502t-1.156-3.502q-1.122-1.224-2.788-1.224-1.7 0-2.822 1.224-1.122 1.19-1.122 3.502 0 2.278 1.088 3.502 1.122 1.224 2.788 1.224m-12.849-20.4V252h-5.814v-25.16zM33.15 240.032q0-3.536 1.53-6.29 1.53-2.788 4.25-4.318 2.754-1.564 6.221-1.564 4.25 0 7.276 2.244 3.027 2.244 4.046 6.12h-6.392q-.714-1.496-2.04-2.278-1.291-.782-2.958-.782-2.685 0-4.352 1.87-1.666 1.87-1.666 4.998t1.666 4.998q1.667 1.87 4.352 1.87 1.666 0 2.958-.782 1.326-.782 2.04-2.278h6.392q-1.02 3.876-4.046 6.12-3.025 2.21-7.276 2.21-3.468 0-6.222-1.53a11.1 11.1 0 0 1-4.25-4.318q-1.53-2.754-1.53-6.29"/></g><defs><linearGradient id="b" x1="183.5" x2="183.5" y1="502.8" y2="0" gradientUnits="userSpaceOnUse"><stop stop-color="#B41D1B"/><stop offset=".12" stop-color="#BD2522"/><stop offset=".31" stop-color="#D73A34"/><stop offset=".54" stop-color="#FC584E"/><stop offset=".78" stop-color="#FF7E6E"/><stop offset="1" stop-color="#FFA090"/></linearGradient><clipPath id="a"><path fill="#fff" d="M0 0h367v502.81H0z"/></clipPath></defs></svg>