<svg xmlns="http://www.w3.org/2000/svg" width="83" height="24" fill="none"><path fill="#A7A4B5" d="M25.555 1.412h-3.774v20.51h3.774zm12.544 14.295c0 3.21-2.957 3.45-3.807 3.45-2.105 0-2.631-1.886-2.631-3.009v-7.9h-2.997v7.9c0 1.965.608 3.608 1.74 4.733 1.013.962 2.43 1.484 4.09 1.484 1.296 0 2.348-.401 3.603-1.122v.562h3.44V8.253h-3.44v7.459zM48.54 3.618h-3.78v4.797h-2.11v2.638h2.11v10.87h3.78v-10.87h2.547V8.415H48.54zm13.635 14.345a4.18 4.18 0 0 1-2.857.994c-2.416 0-4.225-1.711-4.225-4.02 0-2.31 1.732-3.941 4.225-3.941 1.045 0 2.093.357 2.897.995l.524.438 2.333-2.23-.604-.518c-1.407-1.195-3.259-1.872-5.19-1.872-4.347 0-7.526 2.986-7.526 7.128s3.259 7.207 7.526 7.207a7.8 7.8 0 0 0 5.232-1.872l.564-.518-2.375-2.23zm15.41-8.313c-1.01-.96-2.462-1.48-4.119-1.48-1.292 0-2.664.4-3.631 1.12V1.416h-3.433v20.51h3.433V14.81c0-3.198 2.743-3.439 3.592-3.439 2.057 0 2.421 1.88 2.421 3v7.555h3.433V14.37c-.04-1.998-.524-3.64-1.696-4.718z" style="fill:#a7a4b5;fill:color(display-p3 .6549 .6431 .7098);fill-opacity:1"/><path fill="#A7A4B5" d="M59.188 17.511c1.41 0 2.553-1.085 2.553-2.426 0-1.34-1.144-2.426-2.553-2.426s-2.553 1.085-2.553 2.426 1.143 2.426 2.553 2.426m-41.566-.35c-1.334 1.282-3.152 2.043-5.05 2-3.92 0-6.75-2.922-6.75-6.922s2.83-6.963 6.75-6.963c1.898 0 3.718.722 5.01 2l.526.521 2.345-2.24-.526-.52c-1.94-1.922-4.607-2.963-7.395-2.963C6.793 2.074 2.47 6.437 2.47 12.24s4.324 10.125 10.06 10.125c2.79 0 5.455-1.041 7.396-2.962l.526-.52-2.305-2.28z" style="fill:#a7a4b5;fill:color(display-p3 .6549 .6431 .7098);fill-opacity:1"/></svg>