<svg xmlns="http://www.w3.org/2000/svg" width="56" height="56" fill="none"><rect width="56" height="56" fill="#6D4AFF" rx="28" style="fill:#6d4aff;fill:color(display-p3 .4275 .2902 1);fill-opacity:1"/><path fill="#fff" d="M41.834 32.046a4 4 0 0 1-2.723 1.142c-.01.003-.022 0-.031.003h-.072a7.17 7.17 0 0 0-4.912 2.07c-1.376 1.35-2.084 3.096-2.11 4.81v.018a4 4 0 0 1-.02.375l-.016.154-.01.06a5 5 0 0 1-.069.341 3 3 0 0 1-.05.183q-.028.092-.06.18-.031.091-.068.178l-.055.126q-.09.2-.205.39-.042.07-.091.141a3.6 3.6 0 0 1-.524.638 4.04 4.04 0 0 1-5.92-.309 3 3 0 0 1-.112-.144 3 3 0 0 1-.114-.162q-.054-.08-.105-.163a3.7 3.7 0 0 1-.369-.816q-.022-.066-.04-.136-.01-.03-.017-.058l-.028-.117a3 3 0 0 1-.048-.25l-.017-.105q-.017-.121-.023-.241l-.008-.143v-.014q-.003-.054-.002-.108v-.03c-.029-1.711-.736-3.45-2.11-4.797a7.16 7.16 0 0 0-4.901-2.071q-.058-.004-.114-.003a4.02 4.02 0 0 1-2.724-1.142 3.863 3.863 0 0 1 0-5.532 4.04 4.04 0 0 1 5.637 0 3.87 3.87 0 0 1 1.167 2.672v.1c.024 1.719.731 3.468 2.11 4.822a7.18 7.18 0 0 0 4.901 2.07h.05a7.17 7.17 0 0 0 4.888-2.07c1.377-1.352 2.085-3.096 2.111-4.81q.002-.056 0-.111a3.87 3.87 0 0 1 1.168-2.673 4.04 4.04 0 0 1 5.636 0 3.863 3.863 0 0 1 0 5.532" style="fill:#fff;fill-opacity:1"/><path fill="#fff" d="M41.834 20.676a4 4 0 0 1-2.723 1.143c-.01.003-.022 0-.031.003h-.072a7.17 7.17 0 0 0-4.912 2.07c-1.376 1.35-2.084 3.096-2.11 4.81v.019a4 4 0 0 1-.02.373q-.007.078-.016.154l-.01.061a5 5 0 0 1-.069.341 5 5 0 0 1-.179.54l-.054.127q-.09.201-.205.39-.042.07-.091.14a3.7 3.7 0 0 1-.524.638 4.04 4.04 0 0 1-5.92-.308 3 3 0 0 1-.112-.145 3 3 0 0 1-.114-.161 3.7 3.7 0 0 1-.474-.98q-.022-.065-.04-.135-.01-.029-.017-.058l-.028-.118a3 3 0 0 1-.048-.25l-.017-.105a4 4 0 0 1-.023-.24l-.008-.143v-.014q-.003-.053-.002-.107v-.031c-.029-1.711-.736-3.45-2.11-4.797a7.16 7.16 0 0 0-4.901-2.071q-.058-.004-.114-.003a4.02 4.02 0 0 1-2.724-1.143 3.86 3.86 0 0 1 0-5.53 4.04 4.04 0 0 1 5.637 0 3.86 3.86 0 0 1 1.167 2.671v.1c.024 1.719.731 3.467 2.11 4.821a7.17 7.17 0 0 0 4.901 2.071h.05a7.16 7.16 0 0 0 4.888-2.07c1.377-1.352 2.085-3.096 2.111-4.81q.002-.056 0-.112a3.87 3.87 0 0 1 1.168-2.672 4.04 4.04 0 0 1 5.636 0 3.86 3.86 0 0 1 0 5.531" style="fill:#fff;fill-opacity:1"/></svg>