<svg xmlns="http://www.w3.org/2000/svg" width="32" height="32" fill="none"><g clip-path="url(#a)"><path fill="#A7A4B5" d="M16 0c8.837 0 16 7.163 16 16s-7.163 16-16 16S0 24.837 0 16 7.163 0 16 0m.164 6.857A9.14 9.14 0 0 0 7.021 16a9.142 9.142 0 0 0 14.525 7.389l-1.978-3.431a5.2 5.2 0 0 1-3.404 1.268A5.233 5.233 0 0 1 10.938 16a5.233 5.233 0 0 1 5.226-5.226l1.79-3.74a9 9 0 0 0-1.79-.177m-.39 11.754h4.524l2.263 3.92 2.262-3.92-2.262-3.917h-4.525zm5.087-11.1a2.27 2.27 0 0 0-1.245.354c-.374.23-.652.529-.825.9l.79.794c.307-.621.752-.925 1.338-.925.496 0 .8.256.8.611 0 .298-.148.544-.717.832l-.323.156c-.701.356-1.187.762-1.469 1.223-.282.46-.419 1.04-.419 1.741v.192h4.135v-1.133h-2.734c.074-.429.34-.669.877-.94l.503-.256c.9-.461 1.38-.983 1.38-1.834q-.002-.804-.622-1.261c-.413-.304-.9-.454-1.469-.454" style="fill:#a7a4b5;fill:color(display-p3 .6549 .6431 .7098);fill-opacity:1"/></g><defs><clipPath id="a"><path fill="#fff" d="M0 0h32v32H0z" style="fill:#fff;fill-opacity:1"/></clipPath></defs></svg>