<svg xmlns="http://www.w3.org/2000/svg" width="24" height="24" fill="none"><path fill="#A7A4B5" d="M20.655 7.496h-3.377c.091-.515.42-.804 1.084-1.131l.62-.308c1.112-.555 1.705-1.182 1.705-2.207q-.001-.965-.767-1.517c-.51-.365-1.112-.546-1.815-.546a2.86 2.86 0 0 0-1.539.427c-.462.277-.806.635-1.02 1.082l.977.955c.38-.747.93-1.113 1.653-1.113.613 0 .988.308.988.735 0 .359-.182.655-.886 1.002l-.399.188c-.866.428-1.467.917-1.815 1.47-.348.555-.518 1.252-.518 2.095v.231h5.11zm-.45 2.934h-5.592l-2.796 4.713h5.592l2.795 4.716L23 15.143z" style="fill:#a7a4b5;fill:color(display-p3 .6549 .6431 .7098);fill-opacity:1"/><path fill="#A7A4B5" d="M12.298 18.287c-3.56 0-6.458-2.822-6.458-6.287s2.899-6.287 6.458-6.287l2.21-4.501A11.6 11.6 0 0 0 12.298 1C6.057 1 1 5.924 1 12s5.058 11 11.298 11a11.43 11.43 0 0 0 6.65-2.11l-2.443-4.127a6.54 6.54 0 0 1-4.207 1.524" style="fill:#a7a4b5;fill:color(display-p3 .6549 .6431 .7098);fill-opacity:1"/></svg>