<svg xmlns="http://www.w3.org/2000/svg" width="128" height="32" fill="none"><g fill="#fff" clip-path="url(#a)"><path d="M52.335 10.717a1.2 1.2 0 0 1-.111.484l-4.56 10.377q-.165.36-.47.53t-.618.17a1.2 1.2 0 0 1-.573-.188 1.1 1.1 0 0 1-.424-.493l-4.56-10.413a.8.8 0 0 1-.074-.225 1.5 1.5 0 0 1-.018-.224q0-.52.387-.8.388-.278.739-.278.7 0 1.015.7l3.71 8.484 3.397-8.484q.314-.681 1.015-.682.462 0 .803.297a.94.94 0 0 1 .342.745m9.459 9.811q.323.315.323.727 0 .45-.323.736a1.16 1.16 0 0 1-.803.288h-6.185q-.48 0-.802-.315a1.05 1.05 0 0 1-.323-.78V10.807q0-.467.323-.782.322-.314.802-.314h6.185q.48 0 .803.296a.99.99 0 0 1 .323.764q0 .449-.323.726a1.2 1.2 0 0 1-.803.279h-5.003v3.052h4.172q.48 0 .803.297a1 1 0 0 1 .323.762q0 .45-.323.727a1.2 1.2 0 0 1-.803.279h-4.172v3.32h5.003q.48 0 .803.315m10.307.71q0 .448-.323.745a1.14 1.14 0 0 1-.803.296h-6q-.479 0-.802-.315a1.04 1.04 0 0 1-.323-.78V10.806q0-.467.332-.782.333-.314.85-.314.441 0 .784.314.341.315.342.782v9.372h4.817q.48 0 .803.295a.99.99 0 0 1 .323.764m5.867 1.221q-1.293 0-2.326-.314t-1.975-1.104a1.4 1.4 0 0 1-.37-.449 1.1 1.1 0 0 1-.129-.503q0-.412.305-.727.305-.314.766-.314.35 0 .628.216a6 6 0 0 0 1.393.843q.693.288 1.708.288.683 0 1.255-.207.573-.206.923-.556t.351-.8q0-.538-.332-.915t-1.016-.637-1.735-.404a8 8 0 0 1-1.753-.44 4.1 4.1 0 0 1-1.265-.754 3 3 0 0 1-.766-1.077 3.6 3.6 0 0 1-.258-1.392q0-1.167.618-1.993t1.67-1.256 2.326-.431q1.2 0 2.225.35t1.67.889q.536.413.536.951 0 .396-.314.718a1 1 0 0 1-.738.323.83.83 0 0 1-.499-.161 3.4 3.4 0 0 0-.793-.476 7 7 0 0 0-1.053-.377 4 4 0 0 0-1.034-.153q-.793 0-1.338.198t-.821.538-.277.79q0 .54.323.89t.932.556 1.458.368a15 15 0 0 1 1.948.467q.84.27 1.394.69.554.423.83 1.06.277.638.277 1.553 0 1.167-.664 2.01-.665.844-1.745 1.293a6 6 0 0 1-2.335.45m16.034-11.706q0 .467-.323.744-.323.279-.803.279h-2.898v9.407q0 .468-.342.781-.342.315-.876.315-.517 0-.85-.315-.331-.314-.332-.78v-9.408H84.68q-.48 0-.803-.287a.96.96 0 0 1-.323-.754q0-.467.323-.745.323-.279.803-.279h8.196q.48 0 .803.287a.96.96 0 0 1 .323.755m3.133 6.642 1.837-4.201 1.854 4.201zm7.517 3.483-4.541-10.52a1.1 1.1 0 0 0-1.034-.718 1 1 0 0 0-.655.16 1.2 1.2 0 0 0-.453.557l-4.596 10.737q-.055.18-.055.34 0 .397.24.665.24.27.739.27.314 0 .58-.189.27-.188.397-.53l.958-2.19h5.505l.958 2.172q.149.342.416.539a1 1 0 0 0 .6.197q.387 0 .71-.287.324-.287.324-.772 0-.197-.093-.43m10.283-2.792q-.342.96-1.079 1.544-.74.583-1.902.583h-3.046v-8.438h3.046q.867 0 1.495.341.628.342 1.034.925t.6 1.346a6.5 6.5 0 0 1 .193 1.607q0 1.131-.341 2.092m2.381-4.525a6 6 0 0 0-1.07-2.01 4.9 4.9 0 0 0-1.745-1.356q-1.034-.485-2.363-.485h-4.412q-.479 0-.802.314-.323.315-.323.782v10.377q0 .466.323.78.323.315.802.315h4.412q1.791 0 3.019-.844 1.227-.844 1.873-2.27.646-1.428.646-3.17 0-1.292-.36-2.433m11.051-2.809q0 .467-.324.744-.322.279-.802.279h-2.899v9.407q0 .468-.341.781-.342.315-.877.315-.517 0-.849-.315a1.03 1.03 0 0 1-.332-.78v-9.408h-2.899q-.48 0-.803-.287a.96.96 0 0 1-.322-.754q0-.467.322-.745.324-.279.803-.279h8.197q.48 0 .802.287a.96.96 0 0 1 .324.755m-98.533 8.293a4.02 4.02 0 0 1-2.723 1.142c-.01.003-.022 0-.031.003h-.072a7.17 7.17 0 0 0-4.912 2.07c-1.376 1.35-2.084 3.096-2.11 4.81v.018a4 4 0 0 1-.02.375l-.016.154-.01.06a5 5 0 0 1-.069.341 3 3 0 0 1-.05.183q-.028.091-.06.18-.031.091-.068.178l-.055.126q-.09.2-.205.39-.042.07-.091.141a3.6 3.6 0 0 1-.524.638 4.04 4.04 0 0 1-5.92-.309 3 3 0 0 1-.112-.144 3 3 0 0 1-.114-.162q-.054-.08-.104-.163a3.7 3.7 0 0 1-.37-.816q-.022-.067-.04-.136-.01-.03-.017-.058l-.028-.117a3 3 0 0 1-.048-.25l-.017-.105q-.016-.121-.024-.241l-.007-.143v-.014q-.003-.054-.002-.108v-.03c-.029-1.711-.736-3.45-2.11-4.797a7.16 7.16 0 0 0-4.901-2.071q-.058-.004-.114-.003a4.02 4.02 0 0 1-2.724-1.142 3.863 3.863 0 0 1 0-5.532 4.04 4.04 0 0 1 5.637 0 3.87 3.87 0 0 1 1.167 2.672v.1c.024 1.719.731 3.468 2.11 4.822a7.18 7.18 0 0 0 4.901 2.07h.05a7.17 7.17 0 0 0 4.888-2.07c1.377-1.352 2.085-3.096 2.111-4.81q.002-.056 0-.111a3.87 3.87 0 0 1 1.168-2.673 4.04 4.04 0 0 1 5.636 0 3.863 3.863 0 0 1 0 5.532" style="fill:#fff;fill-opacity:1"/><path d="M29.834 7.676A4 4 0 0 1 27.11 8.82c-.01.003-.022 0-.031.003h-.072a7.17 7.17 0 0 0-4.912 2.07c-1.376 1.35-2.084 3.096-2.11 4.81v.019a4 4 0 0 1-.02.373q-.007.078-.016.154l-.01.061a5 5 0 0 1-.069.341 5 5 0 0 1-.179.54l-.054.127q-.09.201-.205.39-.042.07-.091.14a3.7 3.7 0 0 1-.524.638 4.04 4.04 0 0 1-5.92-.308 3 3 0 0 1-.112-.145 3 3 0 0 1-.114-.161 3.7 3.7 0 0 1-.474-.98q-.022-.065-.04-.135-.01-.029-.017-.058l-.028-.118a3 3 0 0 1-.048-.25l-.017-.105a4 4 0 0 1-.024-.24l-.007-.143v-.014q-.003-.053-.002-.107v-.031c-.029-1.711-.736-3.45-2.11-4.797a7.16 7.16 0 0 0-4.901-2.071q-.058-.004-.114-.003a4.02 4.02 0 0 1-2.724-1.143 3.86 3.86 0 0 1 0-5.53 4.04 4.04 0 0 1 5.637 0A3.86 3.86 0 0 1 8.97 4.816v.1c.024 1.719.731 3.468 2.11 4.821a7.17 7.17 0 0 0 4.901 2.071h.05a7.16 7.16 0 0 0 4.888-2.07c1.377-1.352 2.085-3.096 2.111-4.81q.002-.056 0-.112a3.87 3.87 0 0 1 1.168-2.672 4.04 4.04 0 0 1 5.636 0 3.86 3.86 0 0 1 0 5.531" style="fill:#fff;fill-opacity:1"/></g><defs><clipPath id="a"><path fill="#fff" d="M0 0h128v32H0z" style="fill:#fff;fill-opacity:1"/></clipPath></defs></svg>