<svg xmlns="http://www.w3.org/2000/svg" width="16" height="16" fill="none"><path fill="#7C5CFF" d="m8 1.333 1.341 3.488c.188.488.282.733.428.938q.197.276.472.471c.205.147.45.24.938.429l3.488 1.34-3.488 1.342c-.489.188-.733.282-.938.428a2 2 0 0 0-.472.471c-.146.206-.24.45-.428.94L8 14.666l-1.341-3.488c-.188-.489-.282-.733-.428-.939a2 2 0 0 0-.471-.47c-.206-.147-.45-.24-.94-.429L1.334 8l3.488-1.341c.489-.188.733-.282.939-.429a2 2 0 0 0 .47-.47c.147-.206.24-.45.429-.94z" style="fill:#7c5cff;fill:color(display-p3 .4863 .3608 1);fill-opacity:1"/></svg>