<svg xmlns="http://www.w3.org/2000/svg" width="151" height="40" fill="none"><path fill="#6D697D" d="m143.263 21.5 4.473 6.143-3.252 2.376-4.474-6.144-4.461 6.144-3.251-2.376 4.473-6.144-7.262-2.322 1.275-3.888 7.195 2.375v-7.59h4.062v7.59l7.195-2.375 1.288 3.888zm-129.51 0 4.473 6.143-3.252 2.376-4.474-6.144-4.46 6.144-3.252-2.376 4.46-6.144L0 19.177l1.274-3.888 7.195 2.375v-7.59h4.063v7.59l7.195-2.375L21 19.177zm13.407 2.521c.253 2.561 2.855 3.132 4.421 3.132 1.54 0 4.275-.319 4.275-3.132 0-5.533-11.895-.199-11.895-8.493 0-3.503 3.253-5.785 7.527-5.732 3.903.053 7.01 2.057 7.474 5.016l-3.77.49c-.319-2.11-2.337-2.507-3.704-2.507-1.42 0-3.823.172-3.823 2.733 0 4.698 11.894-.371 11.894 8.493 0 2.628-1.858 6.184-7.978 6.184-5.814 0-7.899-3.198-8.15-5.706zm26.099-13.973h3.703v19.958H53.26v-8.347h-8.496v8.347h-3.717V10.048h3.717v8.36h8.496zm19.699 3.278H62.352v5.082h9.16v3.251h-9.16v5.07h10.606v3.277H58.675V10.048h14.283zm17.377 16.68h-4.048l-3.332-6.184c-.226.027-.491.027-.744.027h-4.048v6.157h-3.704V10.048h7.752c4.846 0 7.873 2.654 7.873 6.9 0 2.853-1.368 4.99-3.73 6.078zM78.15 13.246v7.418h4.049c2.456 0 3.903-1.221 3.903-3.703s-1.46-3.702-3.903-3.702H78.15zm17.363-3.198h-3.704v19.958h3.704zm16.009 3.278h-10.606v5.082h9.146v3.251h-9.146v8.347h-3.691V10.048h14.297zm15.77 0h-10.619v5.082h9.159v3.251h-9.159v8.347h-3.678V10.048h14.297z" style="fill:#6d697d;fill:color(display-p3 .4275 .4118 .4902);fill-opacity:1"/></svg>