<svg xmlns="http://www.w3.org/2000/svg" width="71" height="40" fill="none"><path fill="#6D697D" d="m.16 20.92 6.764-.041c.167 1.13.52 1.569 1.041 2.155.833.962 2.04 1.444 3.58 1.444 1.166 0 2.061-.252 2.685-.733s.937-1.067.937-1.695c0-.606-.291-1.171-.895-1.652-.604-.482-1.977-.942-4.163-1.381-3.538-.712-6.078-1.674-7.597-2.867-1.54-1.192-2.29-2.72-2.29-4.582 0-1.213.396-2.364 1.166-3.452.79-1.088 1.956-1.925 3.538-2.553s3.726-.92 6.453-.92c3.351 0 5.516.774 7.264 1.904 1.77 1.13 2.893 2.699 3.226 5.168l-7.326.042c-.208-1.067-.625-1.486-1.29-1.967-.646-.481-1.562-.732-2.707-.732-.936 0-1.665.188-2.144.544-.478.355-.707.795-.707 1.318 0 .376.208.711.582 1.025.375.314 1.29.607 2.727.879 3.58.67 5.85 1.59 7.39 2.301s2.539 1.402 3.226 2.448c.707 1.046.936 2.092.936 3.39 0 1.527-.27 2.887-1.186 4.163-.937 1.276-1.915 2.364-3.601 3.034-1.665.67-3.788 1.004-6.328 1.004-4.475 0-6.973-.753-8.7-2.301C1.013 25.293.389 23.327.16 20.92M23.701 4.58h6.723l8.763 13.579V4.58h6.786v24.542h-6.786l-8.721-13.474v13.474H23.7zm46.812 0v6.068h-7.701v18.495h-7.556V10.648h-7.701V4.58zM2.304 31.717q-.031.063-.063.063c-.02.02-.041.02-.083.02s-.063-.02-.104-.041c-.042-.021-.083-.063-.146-.084s-.125-.063-.187-.084a1 1 0 0 0-.25-.042.8.8 0 0 0-.229.042c-.062.021-.125.042-.166.084s-.084.084-.105.146c-.02.063-.041.105-.041.168 0 .083.02.146.062.209a.45.45 0 0 0 .188.146c.083.042.166.063.25.105.103.021.187.063.29.105.105.041.209.083.292.125a.8.8 0 0 1 .25.168c.083.062.125.146.187.25q.063.157.063.377c0 .147-.021.293-.084.44a1 1 0 0 1-.228.355.9.9 0 0 1-.375.23 1.3 1.3 0 0 1-.5.084c-.104 0-.208-.02-.333-.042-.104-.02-.208-.062-.312-.083a1.1 1.1 0 0 1-.27-.147c-.084-.063-.167-.125-.23-.188l.188-.314.062-.063c.021-.02.063-.02.084-.02.041 0 .083.02.124.041.042.042.104.063.167.105a.8.8 0 0 0 .229.104c.083.042.187.042.312.042.187 0 .333-.042.416-.125.104-.084.146-.21.146-.377a.4.4 0 0 0-.062-.23.45.45 0 0 0-.188-.147c-.083-.041-.166-.062-.25-.104a1.2 1.2 0 0 0-.29-.084c-.105-.042-.188-.063-.292-.104a.8.8 0 0 1-.25-.168c-.083-.063-.125-.167-.187-.272a1.1 1.1 0 0 1-.063-.397c0-.126.021-.251.083-.377a.8.8 0 0 1 .209-.314c.104-.084.208-.167.353-.23.146-.063.292-.084.48-.084.207 0 .395.042.561.105s.312.146.437.272zm2.789.376L3.76 35.232c-.021.042-.042.063-.063.104-.02.021-.062.042-.125.042h-.437l.458-.983-.999-2.28h.52c.042 0 .084.02.104.041.021.021.042.042.063.084l.52 1.276a.3.3 0 0 1 .042.126c.02.041.02.083.042.125.02-.042.02-.084.041-.125.021-.042.021-.084.042-.126l.5-1.276a.3.3 0 0 1 .062-.084c.02-.02.062-.02.104-.02h.458zm1.748.482c-.02.02-.041.041-.041.062-.021 0-.042.021-.063.021s-.062 0-.083-.02c-.042-.022-.063-.042-.104-.063-.042-.021-.083-.042-.146-.063s-.125-.021-.187-.021c-.125 0-.208.02-.27.084-.063.062-.105.104-.105.188 0 .063.02.105.042.125.041.042.083.063.145.105l.188.063c.062.02.145.042.208.063.083.02.146.062.208.083.062.042.146.084.187.126a.46.46 0 0 1 .146.188c.042.063.042.147.042.251 0 .126-.021.23-.063.335a.57.57 0 0 1-.187.251 1.1 1.1 0 0 1-.312.167 1.3 1.3 0 0 1-.417.063c-.083 0-.166 0-.25-.02-.083-.022-.166-.043-.228-.064-.084-.02-.146-.062-.208-.104a1 1 0 0 1-.167-.126l.146-.23.062-.063c.021-.02.063-.02.083-.02.042 0 .063 0 .104.02.042.021.063.042.105.063s.083.042.145.063a.7.7 0 0 0 .23.02c.062 0 .124 0 .187-.02l.124-.063a.12.12 0 0 0 .063-.104c.02-.042.02-.063.02-.105a.3.3 0 0 0-.04-.146c-.043-.042-.084-.063-.147-.105l-.187-.063c-.062-.02-.146-.042-.229-.063s-.146-.062-.229-.083c-.062-.042-.146-.084-.187-.126a1 1 0 0 1-.146-.188c-.042-.084-.042-.168-.042-.272s.021-.188.063-.293a1 1 0 0 1 .166-.23c.084-.063.167-.126.292-.168s.25-.062.395-.062c.167 0 .313.02.458.083s.25.126.354.23zm1.416 2.008a.67.67 0 0 1-.5-.188.77.77 0 0 1-.166-.502v-1.36h-.25c-.042 0-.063 0-.084-.021-.02-.021-.041-.042-.041-.084v-.23l.395-.063.125-.67c0-.041.021-.062.042-.083.02-.02.041-.02.083-.02h.312v.773h.646v.419h-.646v1.339q0 .125.063.188a.2.2 0 0 0 .145.063c.042 0 .063 0 .084-.021.02 0 .041-.021.062-.021s.042-.021.042-.021c.02 0 .02-.02.041-.02s.042 0 .042.02c.02 0 .02.021.042.042l.166.293a1.3 1.3 0 0 1-.291.167c-.083-.02-.208 0-.312 0m1.394-1.193c0 .126.042.23.063.335a.9.9 0 0 0 .145.23.43.43 0 0 0 .209.126c.083.02.166.042.27.042a.8.8 0 0 0 .25-.042.7.7 0 0 0 .187-.084c.042-.02.104-.041.146-.083a.4.4 0 0 1 .104-.042c.042 0 .083.02.104.063l.167.209a.65.65 0 0 1-.23.188l-.25.126c-.083.02-.187.062-.27.062-.083.021-.187.021-.27.021a1.2 1.2 0 0 1-.48-.083 1.2 1.2 0 0 1-.374-.251 1.2 1.2 0 0 1-.25-.419 1.6 1.6 0 0 1-.083-.565c0-.167.021-.335.083-.481a1.1 1.1 0 0 1 .23-.377q.155-.157.374-.25c.146-.064.312-.105.5-.105.145 0 .291.02.416.083.125.042.25.126.333.21.104.104.166.209.229.355.062.147.083.293.083.481 0 .084 0 .147-.02.189a.16.16 0 0 1-.105.042h-1.56zm1.103-.355a.6.6 0 0 0-.041-.21 1 1 0 0 0-.104-.188 1 1 0 0 0-.167-.125.8.8 0 0 0-.229-.042c-.166 0-.312.042-.395.146a.65.65 0 0 0-.188.419zm.979-.942h.353c.084 0 .125.042.146.105l.042.188.125-.125a.6.6 0 0 1 .145-.105c.063-.02.104-.042.167-.063.062-.02.125-.02.208-.02a.58.58 0 0 1 .375.125.8.8 0 0 1 .229.335.8.8 0 0 1 .145-.21c.063-.062.125-.104.188-.146.062-.042.146-.063.208-.084.083-.02.146-.02.229-.02.125 0 .25.02.354.062a.8.8 0 0 1 .27.189 1 1 0 0 1 .167.292c.041.105.062.252.062.398v1.57h-.562v-1.57a.6.6 0 0 0-.104-.356c-.062-.083-.166-.125-.291-.125-.063 0-.125 0-.167.02-.041.022-.104.043-.145.084a.34.34 0 0 0-.084.147c-.02.063-.041.125-.041.209v1.57h-.583v-1.57c0-.167-.042-.293-.104-.356-.063-.083-.167-.104-.292-.104a.55.55 0 0 0-.25.063.8.8 0 0 0-.207.167v1.8h-.583zm5.495.482c-.021.02-.042.041-.042.062-.02 0-.041.021-.062.021s-.063 0-.084-.02c-.041-.022-.062-.042-.104-.063s-.083-.042-.145-.063c-.063-.021-.125-.021-.188-.021-.125 0-.208.02-.27.084-.063.062-.104.104-.104.188 0 .063.02.105.041.125.042.042.084.063.146.105l.187.063c.063.02.146.042.208.063.084.02.146.062.209.083.062.042.145.084.187.126a.46.46 0 0 1 .146.188c.041.063.041.147.041.251 0 .126-.02.23-.062.335a.57.57 0 0 1-.187.251 1.1 1.1 0 0 1-.313.167c-.125.042-.27.063-.416.063-.083 0-.167 0-.25-.02a3 3 0 0 1-.229-.064c-.083-.02-.146-.062-.208-.104s-.125-.084-.166-.126l.145-.23.063-.063c.02-.02.062-.02.083-.02.042 0 .062 0 .104.02.042.021.062.042.104.063s.083.042.146.063a.7.7 0 0 0 .229.02c.062 0 .125 0 .187-.02l.125-.063a.12.12 0 0 0 .062-.104c.021-.042.021-.063.021-.105a.3.3 0 0 0-.041-.146c-.042-.042-.084-.063-.146-.105l-.187-.063a4 4 0 0 0-.23-.063c-.083-.02-.145-.062-.228-.083-.063-.042-.146-.084-.188-.126a1 1 0 0 1-.145-.188c-.042-.084-.042-.168-.042-.272s.02-.188.062-.293a1 1 0 0 1 .167-.23 1 1 0 0 1 .291-.168c.125-.042.25-.062.396-.062.166 0 .312.02.458.083s.25.126.354.23zm.499 1.653c0-.042 0-.105.021-.147.02-.042.042-.084.083-.105.042-.041.063-.062.104-.083.042-.021.084-.021.146-.021.042 0 .104 0 .146.02.041.022.083.043.104.084.041.042.062.063.083.105s.021.084.021.146c0 .042 0 .105-.02.147-.022.042-.043.084-.084.105a.4.4 0 0 1-.104.083c-.042.021-.083.021-.146.021-.041 0-.104 0-.146-.02-.041-.022-.083-.043-.104-.084a.4.4 0 0 1-.083-.105c0-.042-.02-.105-.02-.147m5.39-3.137v3.472h-.333c-.041 0-.083 0-.125-.02a.4.4 0 0 1-.104-.084l-1.79-2.302c0 .105.021.21.021.293v2.134h-.583V31.11h.396c.02 0 .041 0 .062.02.021 0 .021.022.042.022.02.02.02.042.041.063l1.811 2.322c0-.063 0-.105-.02-.167v-2.26h.582zm1.041 2.3c0 .126.042.23.063.335a.8.8 0 0 0 .145.23.43.43 0 0 0 .208.126c.084.02.167.042.27.042a.8.8 0 0 0 .25-.042.7.7 0 0 0 .188-.084c.042-.02.104-.041.146-.083a.3.3 0 0 1 .104-.042c.041 0 .083.02.104.063l.166.209a.65.65 0 0 1-.229.188l-.25.126c-.083.02-.187.062-.27.062-.083.021-.187.021-.27.021-.167 0-.334-.02-.48-.083a1.2 1.2 0 0 1-.374-.251 1.2 1.2 0 0 1-.25-.419 1.6 1.6 0 0 1-.083-.565c0-.167.02-.335.083-.481s.125-.272.23-.377a1.25 1.25 0 0 1 .874-.356c.145 0 .29.022.416.084.125.042.25.126.333.21.104.104.166.209.229.355.062.147.083.293.083.481 0 .084 0 .147-.02.189a.16.16 0 0 1-.105.042h-1.56zm1.124-.355a.6.6 0 0 0-.042-.21.8.8 0 0 0-.104-.188c-.041-.041-.104-.083-.166-.125a.8.8 0 0 0-.23-.042c-.166 0-.311.042-.395.146a.65.65 0 0 0-.187.419zm1.769 1.548a.67.67 0 0 1-.5-.188.77.77 0 0 1-.166-.502v-1.36h-.25c-.041 0-.062 0-.083-.021-.02-.021-.041-.042-.041-.084v-.23l.395-.063.125-.67c0-.041.02-.062.041-.083.021-.02.042-.02.084-.02h.312v.773h.645v.419h-.645v1.339q0 .125.063.188a.2.2 0 0 0 .145.063c.042 0 .063 0 .083-.021.021 0 .042-.021.063-.021s.041-.021.041-.021c.021 0 .021-.02.042-.02.02 0 .042 0 .042.02.02 0 .02.021.041.042l.167.293a1.3 1.3 0 0 1-.291.167c-.084-.02-.209 0-.313 0m4.455-2.49-.77 2.448h-.48c-.062 0-.083-.041-.103-.104l-.437-1.423c-.021-.042-.021-.105-.042-.147-.02-.041-.02-.104-.02-.146a.4.4 0 0 1-.043.147c-.02.041-.02.104-.041.146l-.437 1.423c-.021.063-.063.104-.125.104h-.479l-.77-2.448h.479c.041 0 .083 0 .104.021s.041.042.062.084l.354 1.318c.02.063.042.147.042.21.02.062.02.146.041.209.021-.063.042-.147.063-.21.02-.062.041-.146.062-.209l.396-1.318c0-.042.02-.063.062-.084.021-.02.063-.02.104-.02h.25c.042 0 .083 0 .104.02.02.021.042.042.063.084l.395 1.318c.02.063.042.147.062.21.021.062.042.146.063.209.02-.126.041-.272.083-.419l.354-1.318c.02-.042.02-.063.062-.084.021-.02.063-.02.105-.02zm1.373-.042c.188 0 .354.021.5.084q.218.095.375.251a1.3 1.3 0 0 1 .25.398c.062.146.083.335.083.523s-.021.377-.084.523a1.3 1.3 0 0 1-.25.398 1.2 1.2 0 0 1-.374.25 1.3 1.3 0 0 1-.5.084c-.187 0-.353-.02-.5-.083a1.2 1.2 0 0 1-.374-.252 1.3 1.3 0 0 1-.25-.397 1.4 1.4 0 0 1-.083-.523c0-.188.021-.377.083-.523a1.3 1.3 0 0 1 .25-.398q.157-.157.375-.25a1.7 1.7 0 0 1 .5-.085m0 2.072c.209 0 .354-.063.458-.21.104-.146.146-.334.146-.606s-.042-.46-.146-.607-.25-.21-.458-.21-.354.064-.458.21c-.104.147-.145.335-.145.607s.041.46.145.607c.084.146.25.209.458.209m2.206-1.611a1.2 1.2 0 0 1 .27-.356.58.58 0 0 1 .375-.125c.104 0 .208.02.27.083l-.041.44c0 .02-.02.041-.042.062-.02.021-.041.021-.062.021s-.062 0-.104-.02c-.042 0-.083-.021-.146-.021s-.125 0-.166.02c-.042.021-.105.042-.146.084-.042.042-.083.084-.104.126s-.063.104-.083.167v1.506h-.583v-2.448h.354c.062 0 .104.021.125.042.02.021.041.063.041.126zm1.811-1.527v2.029h.104c.041 0 .062 0 .104-.021.02 0 .041-.042.062-.063l.604-.753c.02-.042.062-.063.083-.084.02-.02.063-.02.125-.02h.541l-.77.92c-.062.063-.104.126-.166.167a.16.16 0 0 1 .083.084c.02.042.041.063.083.105l.812 1.192h-.541c-.042 0-.084 0-.125-.02a.16.16 0 0 1-.084-.084l-.624-.942q-.031-.063-.062-.063c-.021-.02-.063-.02-.105-.02h-.124v1.13h-.583v-3.558zm3.455 1.59c-.02.02-.042.041-.042.062-.02 0-.041.021-.062.021s-.063 0-.084-.02c-.041-.022-.062-.042-.103-.063-.042-.021-.084-.042-.146-.063-.063-.021-.125-.021-.188-.021-.124 0-.208.02-.27.084a.22.22 0 0 0-.104.188c0 .063.02.105.041.125.042.042.084.063.146.105l.187.063c.063.02.146.042.209.063.083.02.145.062.208.083.062.042.145.084.187.126a.46.46 0 0 1 .146.188c.041.063.041.147.041.251 0 .126-.02.23-.062.335a.57.57 0 0 1-.187.251 1.1 1.1 0 0 1-.313.167c-.124.042-.27.063-.416.063-.083 0-.166 0-.25-.02-.083-.022-.166-.043-.229-.064-.083-.02-.145-.062-.208-.104-.062-.042-.125-.084-.166-.126l.145-.23.063-.063c.02-.02.062-.02.083-.02.042 0 .063 0 .104.02.042.021.063.042.104.063.042.021.084.042.146.063a.7.7 0 0 0 .229.02c.062 0 .125 0 .187-.02l.125-.063a.12.12 0 0 0 .063-.104c.02-.042.02-.063.02-.105a.3.3 0 0 0-.041-.146c-.042-.042-.083-.063-.146-.105l-.187-.063a4 4 0 0 0-.23-.063c-.083-.02-.145-.062-.228-.083-.063-.042-.146-.084-.187-.126a1 1 0 0 1-.146-.188c-.042-.084-.042-.168-.042-.272s.021-.188.063-.293a1 1 0 0 1 .166-.23 1 1 0 0 1 .291-.168c.125-.042.25-.062.396-.062.167 0 .312.02.458.083s.25.126.354.23zm.499 1.653c0-.042 0-.105.021-.147s.042-.084.084-.105a.4.4 0 0 1 .104-.083c.041-.021.083-.021.145-.021.042 0 .104 0 .146.02.042.022.083.043.104.084.042.042.063.063.083.105s.021.084.021.146c0 .042 0 .105-.02.147-.021.042-.042.084-.084.105-.042.041-.062.062-.104.083s-.083.021-.146.021c-.041 0-.104 0-.145-.02-.042-.022-.084-.043-.105-.084-.041-.042-.062-.063-.083-.105 0-.042-.02-.105-.02-.147m4.745-2.615h-1.04v2.93h-.646v-2.93h-1.04v-.523h2.726zm.229 1.778c0 .126.042.23.063.335a.9.9 0 0 0 .145.23.43.43 0 0 0 .209.126c.083.02.166.042.27.042a.8.8 0 0 0 .25-.042.7.7 0 0 0 .187-.084c.042-.02.104-.041.146-.083a.4.4 0 0 1 .104-.042c.042 0 .083.02.104.063l.166.209a.65.65 0 0 1-.228.188l-.25.126c-.084.02-.188.062-.27.062-.084.021-.188.021-.271.021a1.2 1.2 0 0 1-.48-.083 1.2 1.2 0 0 1-.374-.251 1.2 1.2 0 0 1-.25-.419 1.6 1.6 0 0 1-.083-.565c0-.167.021-.335.083-.481a1.1 1.1 0 0 1 .23-.377q.155-.157.374-.25c.146-.064.312-.105.5-.105.145 0 .291.02.416.083.125.042.25.126.333.21.104.104.166.209.229.355.062.147.083.293.083.481 0 .084 0 .147-.02.189a.16.16 0 0 1-.105.042h-1.56zm1.124-.355a.6.6 0 0 0-.041-.21.8.8 0 0 0-.105-.188c-.041-.041-.104-.083-.166-.125a.8.8 0 0 0-.229-.042c-.167 0-.312.042-.395.146a.65.65 0 0 0-.188.419zm2.727-.419c-.02.021-.042.042-.042.063-.02.021-.041.021-.062.021s-.063 0-.084-.02c-.02-.022-.062-.043-.104-.064-.041-.02-.083-.041-.145-.062a.6.6 0 0 0-.208-.021.6.6 0 0 0-.271.063c-.083.041-.146.083-.187.167a1.4 1.4 0 0 0-.125.251c-.021.105-.042.21-.042.335s.021.25.042.355q.03.157.125.252c.062.062.125.125.187.167a.55.55 0 0 0 .25.063c.104 0 .166-.021.229-.042a.34.34 0 0 0 .145-.084.4.4 0 0 0 .104-.084.16.16 0 0 1 .105-.041c.041 0 .083.02.104.062l.166.21a.9.9 0 0 1-.208.188c-.083.042-.146.084-.229.125-.083.021-.166.063-.25.063-.083.021-.166.021-.25.021a.9.9 0 0 1-.416-.084 1.4 1.4 0 0 1-.354-.25.95.95 0 0 1-.229-.398 1.5 1.5 0 0 1-.083-.544c0-.189.021-.356.083-.502a.95.95 0 0 1 .23-.398c.104-.104.228-.21.374-.272a1.3 1.3 0 0 1 .52-.105c.188 0 .334.021.48.084q.218.095.374.251zm1.124-.251c.104-.083.208-.167.312-.209a.8.8 0 0 1 .396-.084c.125 0 .25.021.353.063a.57.57 0 0 1 .25.189c.063.083.125.188.167.292q.062.157.062.377v1.57h-.583v-1.57a.6.6 0 0 0-.104-.356q-.093-.125-.312-.125a.7.7 0 0 0-.291.063 1 1 0 0 0-.25.188v1.778h-.583v-3.556h.583zm2.664.021c.042-.042.104-.104.167-.146.062-.042.104-.084.166-.105s.125-.062.188-.062c.062-.022.145-.022.228-.022.125 0 .25.021.354.063a.57.57 0 0 1 .25.189c.063.083.125.188.167.293q.062.156.062.376v1.57h-.583v-1.57a.6.6 0 0 0-.104-.356q-.093-.125-.312-.125a.7.7 0 0 0-.291.063 1 1 0 0 0-.25.188v1.778h-.583v-2.448h.354c.083 0 .125.042.145.105zm3.206-.335c.187 0 .354.021.5.084q.218.095.374.251a1.3 1.3 0 0 1 .25.398c.062.146.083.335.083.523s-.02.377-.083.523a1.3 1.3 0 0 1-.25.398 1.2 1.2 0 0 1-.375.25 1.3 1.3 0 0 1-.5.084c-.187 0-.353-.02-.499-.083a1.2 1.2 0 0 1-.375-.252 1.3 1.3 0 0 1-.25-.397 1.4 1.4 0 0 1-.083-.523c0-.188.021-.377.084-.523.062-.147.145-.293.25-.398q.155-.157.374-.25a2 2 0 0 1 .5-.085m0 2.072c.208 0 .354-.063.458-.21.104-.146.145-.334.145-.606s-.041-.46-.145-.607c-.105-.146-.25-.21-.458-.21s-.354.064-.458.21c-.104.147-.146.335-.146.607s.042.46.146.607.25.209.458.209m2.268-3.138v3.556h-.582v-3.556zm1.666 1.066c.187 0 .353.021.5.084q.218.095.374.251a1.3 1.3 0 0 1 .25.398c.062.146.083.335.083.523s-.021.377-.083.523a1.3 1.3 0 0 1-.25.398 1.2 1.2 0 0 1-.375.25 1.3 1.3 0 0 1-.5.084c-.187 0-.353-.02-.499-.083a1.2 1.2 0 0 1-.375-.252 1.3 1.3 0 0 1-.25-.397 1.4 1.4 0 0 1-.083-.523c0-.188.021-.377.084-.523.062-.147.145-.293.25-.398q.155-.157.374-.25a1.7 1.7 0 0 1 .5-.085m0 2.072c.208 0 .353-.063.457-.21.105-.146.146-.334.146-.606s-.041-.46-.146-.607-.25-.21-.457-.21c-.209 0-.354.064-.458.21-.104.147-.146.335-.146.607s.042.46.146.607.25.209.458.209m3.788-1.716q0 .094-.125.126l-.229.042c.042.083.042.167.042.272a.9.9 0 0 1-.063.334.6.6 0 0 1-.208.251 1.1 1.1 0 0 1-.312.168q-.187.063-.375.063h-.146c-.041 0-.083-.021-.124-.021-.084.041-.105.104-.105.146s.021.084.063.105.104.042.187.042c.084 0 .167.02.25.02.104 0 .187 0 .291.021.105 0 .209.021.292.042.104.021.187.042.25.105.083.042.125.105.187.167a.6.6 0 0 1 .062.293c0 .105-.02.21-.083.314a.9.9 0 0 1-.229.272 1.1 1.1 0 0 1-.374.188 1.8 1.8 0 0 1-.5.063c-.187 0-.354-.02-.479-.063a1 1 0 0 1-.333-.146c-.083-.063-.166-.126-.208-.21a.56.56 0 0 1-.062-.25c0-.105.041-.21.104-.293a.6.6 0 0 1 .291-.189c-.062-.041-.125-.083-.146-.125a.38.38 0 0 1-.062-.23c0-.042 0-.084.02-.105l.063-.125a.25.25 0 0 1 .104-.105.33.33 0 0 1 .146-.084.6.6 0 0 1-.291-.272.87.87 0 0 1-.042-.732.6.6 0 0 1 .208-.251c.083-.063.187-.126.312-.168.125-.041.25-.062.396-.062.104 0 .208.02.291.041.084.021.167.063.25.105h.687zm-.604 2.26a.3.3 0 0 0-.041-.126c-.021-.02-.063-.062-.125-.062-.042-.021-.104-.021-.167-.042-.062 0-.145-.021-.208-.021-.083 0-.146 0-.229-.021-.083 0-.146 0-.229-.021-.062.042-.125.084-.166.125a.24.24 0 0 0-.063.168.3.3 0 0 0 .042.125c.02.042.062.063.104.105q.062.03.187.063c.083.02.167.02.27.02.105 0 .209 0 .292-.02a1 1 0 0 0 .188-.063.25.25 0 0 0 .104-.105c.041-.041.041-.083.041-.125m-.666-1.402c.083 0 .146 0 .188-.02.062-.022.104-.043.124-.085.042-.041.063-.083.084-.125.02-.042.02-.105.02-.167a.46.46 0 0 0-.104-.293c-.062-.063-.187-.105-.333-.105a.53.53 0 0 0-.333.105.42.42 0 0 0-.104.292c0 .063 0 .105.021.168.02.042.042.084.083.125a.34.34 0 0 0 .146.084c.083 0 .146.021.208.021m2.331-1.883c0 .042 0 .105-.02.146-.021.042-.042.084-.084.126a.4.4 0 0 1-.124.084c-.042.02-.105.02-.146.02-.042 0-.104 0-.146-.02a.4.4 0 0 1-.125-.084.27.27 0 0 1-.083-.125c-.02-.042-.02-.084-.02-.147s0-.105.02-.147a.4.4 0 0 1 .083-.125.27.27 0 0 1 .125-.084c.042-.02.083-.02.146-.02s.104 0 .145.02c.042.021.084.042.125.084.042.042.063.084.084.125 0 .042.02.084.02.147m-.083.711v2.448h-.583v-2.448zm1.041 1.297c0 .126.041.23.062.335a.9.9 0 0 0 .146.23.43.43 0 0 0 .208.126c.084.02.167.042.27.042a.8.8 0 0 0 .25-.042.7.7 0 0 0 .188-.084c.041-.02.104-.041.146-.083a.4.4 0 0 1 .104-.042c.041 0 .083.02.104.063l.166.209a.65.65 0 0 1-.229.188l-.25.126c-.083.02-.187.062-.27.062-.083.021-.187.021-.27.021-.167 0-.334-.02-.48-.083a1.2 1.2 0 0 1-.374-.251 1.2 1.2 0 0 1-.25-.419 1.6 1.6 0 0 1-.083-.565c0-.167.02-.335.083-.481a1.1 1.1 0 0 1 .23-.377q.155-.157.374-.25c.145-.064.312-.105.5-.105.145 0 .29.02.416.083.125.042.25.126.333.21.104.104.166.209.229.355.062.147.083.293.083.481 0 .084 0 .147-.02.189a.16.16 0 0 1-.105.042h-1.561zm1.124-.355a.6.6 0 0 0-.042-.21c-.02-.062-.062-.125-.104-.188-.041-.041-.104-.083-.166-.125a.8.8 0 0 0-.23-.042c-.166 0-.312.042-.395.146a.65.65 0 0 0-.187.419zm2.477-.46c-.021.02-.042.041-.042.062-.02 0-.041.021-.062.021s-.063 0-.084-.02c-.041-.022-.062-.042-.103-.063-.042-.021-.084-.042-.146-.063-.063-.021-.125-.021-.188-.021-.124 0-.208.02-.27.084-.063.062-.104.104-.104.188 0 .063.02.105.041.125.042.042.084.063.146.105l.187.063c.063.02.146.042.209.063.083.02.145.062.208.083.062.042.145.084.187.126a.46.46 0 0 1 .146.188c.041.063.041.147.041.251a.9.9 0 0 1-.062.335.57.57 0 0 1-.187.251 1.1 1.1 0 0 1-.313.167c-.124.042-.27.063-.416.063-.083 0-.166 0-.25-.02-.083-.022-.166-.043-.229-.064-.083-.02-.145-.062-.208-.104-.062-.042-.125-.084-.166-.126l.145-.23.063-.063c.02-.02.062-.02.083-.02.042 0 .063 0 .104.02.042.021.063.042.104.063.042.021.084.042.146.063a.7.7 0 0 0 .229.02c.062 0 .125 0 .187-.02l.125-.063a.12.12 0 0 0 .063-.104c.02-.042.02-.063.02-.105a.3.3 0 0 0-.041-.146c-.042-.042-.084-.063-.146-.105l-.187-.063a4 4 0 0 0-.23-.063c-.082-.02-.145-.062-.228-.083-.063-.042-.146-.084-.187-.126a1 1 0 0 1-.146-.188c-.042-.084-.042-.168-.042-.272a.7.7 0 0 1 .063-.293 1 1 0 0 1 .166-.23 1 1 0 0 1 .291-.168c.125-.042.25-.062.396-.062.166 0 .312.02.458.083s.25.126.354.23z" style="fill:#6d697d;fill:color(display-p3 .4275 .4118 .4902);fill-opacity:1"/></svg>