<svg xmlns="http://www.w3.org/2000/svg" width="78" height="104" fill="none"><path fill="#4A4658" d="M.287 21.96 37.831.079a.58.58 0 0 1 .577-.003L76.875 21.96a.58.58 0 0 1 .292.503v59.368c0 .21-.112.402-.295.505l-38.466 21.589a.58.58 0 0 1-.572-.003L.29 82.338a.58.58 0 0 1-.29-.502V22.46a.58.58 0 0 1 .287-.5" style="fill:#4a4658;fill:color(display-p3 .2902 .2745 .3451);fill-opacity:1"/><path fill="#292733" d="m1.732 22.844 36.115-21.22a.58.58 0 0 1 .58-.003L75.43 22.845a.58.58 0 0 1 .29.502V80.94a.58.58 0 0 1-.293.504l-37.002 20.938a.58.58 0 0 1-.575-.003L1.734 81.444a.58.58 0 0 1-.288-.5v-57.6a.58.58 0 0 1 .285-.5" style="fill:#292733;fill:color(display-p3 .1608 .1529 .2);fill-opacity:1"/><path fill="#fff" fill-rule="evenodd" d="M31.456 20.918h1.39v-8.371h-1.39zm6.088-2.643c0 1.278-1.095 1.38-1.42 1.38-.814 0-.962-.748-.962-1.199v-3.197h-1.361v3.19c0 .792.253 1.445.697 1.881.392.385.98.596 1.616.596.45 0 1.09-.138 1.43-.443v.456h1.362v-5.68h-1.362zm4.076-5.023h-1.362v2.005h-1.02v1.337h1.02v4.345h1.362v-4.345h1.02v-1.337h-1.02zm5.315 5.986a1.68 1.68 0 0 1-1.12.407c-.95 0-1.648-.683-1.648-1.621s.676-1.592 1.648-1.592c.422 0 .823.138 1.127.4l.208.174.92-.901-.23-.204a3.05 3.05 0 0 0-2.025-.749c-1.707 0-2.946 1.207-2.946 2.865 0 1.65 1.269 2.9 2.946 2.9.779 0 1.506-.268 2.04-.756l.222-.203-.934-.901zm5.986-3.494c-.392-.386-.853-.598-1.49-.598-.452 0-.964.139-1.305.444v-3.022h-1.364v8.371h1.364v-3.136c0-1.28.926-1.383 1.253-1.383.815 0 .792.75.792 1.201v3.318h1.364v-3.31c0-.794-.17-1.45-.614-1.886" clip-rule="evenodd" style="fill:#fff;fill-opacity:1"/><path fill="#A7A4B5" fill-rule="evenodd" d="M45.764 17.074c.544 0 .985.435.985.972a.98.98 0 0 1-.985.971.98.98 0 0 1-.986-.971c0-.537.441-.972.986-.972" clip-rule="evenodd" style="fill:#a7a4b5;fill:color(display-p3 .6549 .6431 .7098);fill-opacity:1"/><path fill="#fff" fill-rule="evenodd" d="M29.508 18.847a2.74 2.74 0 0 1-1.96.809c-1.518 0-2.62-1.174-2.62-2.785 0-1.618 1.102-2.792 2.62-2.792a2.77 2.77 0 0 1 1.953.802l.207.204.91-.897-.2-.204a4 4 0 0 0-2.87-1.18c-2.235 0-3.915 1.749-3.915 4.074 0 2.318 1.687 4.061 3.915 4.061a4 4 0 0 0 2.878-1.188l.2-.205-.903-.91z" clip-rule="evenodd" style="fill:#fff;fill-opacity:1"/><path fill="#4A4658" d="M3.666 26.148h70.222c.213 0 .386.173.386.386V78.9a.96.96 0 0 1-.49.84L38.811 99.475a.97.97 0 0 1-.957-.005L3.761 79.742a.97.97 0 0 1-.481-.835V26.534c0-.213.172-.386.386-.386" style="fill:#4a4658;fill:color(display-p3 .2902 .2745 .3451);fill-opacity:1"/><path fill="#4A4658" d="M3.666 26.148h70.222c.213 0 .386.173.386.386v52.348c0 .283-.294.47-.55.35l-33.6-15.78a.96.96 0 0 0-.803-.008L3.822 79.248a.386.386 0 0 1-.542-.352V26.534c0-.213.172-.386.386-.386" style="fill:#4a4658;fill:color(display-p3 .2902 .2745 .3451);fill-opacity:1"/><path fill="#fff" d="M25.677 33.597v3.017h-.394v-3.017zm.97 0v.327h-2.332v-.327zm2.712 1.413v.191q0 .34-.085.61a1.3 1.3 0 0 1-.244.457 1.1 1.1 0 0 1-.384.288q-.221.1-.497.1-.267 0-.491-.1a1.1 1.1 0 0 1-.386-.288 1.3 1.3 0 0 1-.25-.458q-.09-.27-.09-.609v-.19q0-.34.087-.608.09-.27.251-.458.162-.19.384-.29.223-.1.49-.1.276 0 .498.1.225.1.383.29.162.19.247.458.087.267.087.607m-.396.191v-.195q0-.27-.056-.476a1 1 0 0 0-.16-.349.7.7 0 0 0-.258-.213.8.8 0 0 0-.344-.073.71.71 0 0 0-.595.286q-.105.14-.164.349a1.8 1.8 0 0 0-.058.476v.195q0 .271.058.48t.166.351q.11.14.259.214.15.072.338.072a.8.8 0 0 0 .346-.072q.15-.073.255-.214.105-.143.16-.35.053-.21.053-.481m2.108.23h-.806v-.325h.806a.8.8 0 0 0 .38-.075.47.47 0 0 0 .21-.207.65.65 0 0 0 .069-.303.65.65 0 0 0-.069-.292.5.5 0 0 0-.21-.22.75.75 0 0 0-.38-.085h-.713v2.69h-.4v-3.017h1.113q.342 0 .578.118a.84.84 0 0 1 .358.328.9.9 0 0 1 .123.474.95.95 0 0 1-.123.495.8.8 0 0 1-.358.313q-.237.106-.578.106m4.439.224h.398q-.032.285-.164.512a.96.96 0 0 1-.375.358q-.242.13-.605.13-.266 0-.483-.099a1.1 1.1 0 0 1-.371-.281 1.3 1.3 0 0 1-.24-.442 1.9 1.9 0 0 1-.083-.576v-.3q0-.318.083-.575.084-.258.242-.443.16-.185.383-.284.224-.1.504-.1.342 0 .578.13a.9.9 0 0 1 .367.355q.132.227.164.525h-.398a1.1 1.1 0 0 0-.108-.363.56.56 0 0 0-.224-.236.76.76 0 0 0-.379-.083.71.71 0 0 0-.61.294 1 1 0 0 0-.153.338 1.7 1.7 0 0 0-.051.437v.305q0 .222.045.416.048.195.143.343a.7.7 0 0 0 .243.232.7.7 0 0 0 .348.083q.255 0 .406-.081a.53.53 0 0 0 .228-.233q.078-.15.112-.362m3.266-.645v.191q0 .34-.085.61t-.245.457a1.1 1.1 0 0 1-.383.288q-.222.1-.497.1-.268 0-.492-.1a1.1 1.1 0 0 1-.385-.288 1.3 1.3 0 0 1-.25-.458q-.09-.27-.09-.609v-.19q0-.34.087-.608.09-.27.251-.458.162-.19.383-.29.224-.1.492-.1.275 0 .497.1.224.1.383.29.162.19.247.458.087.267.087.607m-.396.191v-.195q0-.27-.056-.476a1 1 0 0 0-.16-.349.7.7 0 0 0-.258-.213.8.8 0 0 0-.344-.073.72.72 0 0 0-.595.286q-.105.14-.164.349a1.8 1.8 0 0 0-.058.476v.195q0 .271.058.48t.166.351q.11.14.259.214.15.072.338.072a.8.8 0 0 0 .346-.072q.15-.073.255-.214.105-.143.16-.35.053-.21.053-.481m1.121-1.604h.388l.988 2.46.987-2.46h.39l-1.227 3.017h-.303zm-.126 0h.342l.056 1.84v1.177h-.398zm2.66 0h.343v3.017h-.398v-1.177zm2.158 1.834h-.806v-.325h.806a.8.8 0 0 0 .38-.075.47.47 0 0 0 .21-.207.65.65 0 0 0 .07-.303.65.65 0 0 0-.07-.292.5.5 0 0 0-.21-.22.75.75 0 0 0-.38-.085h-.713v2.69h-.4v-3.017h1.113q.342 0 .578.118a.84.84 0 0 1 .359.328.9.9 0 0 1 .122.474.95.95 0 0 1-.122.495.8.8 0 0 1-.359.313q-.236.106-.578.106m2.396-1.567-1 2.75h-.407l1.15-3.017h.263zm.837 2.75-1.001-2.75-.006-.267h.263l1.154 3.017zm-.052-1.117v.328H45.68v-.328zm3.188-1.9v3.017h-.403l-1.519-2.327v2.327h-.4v-3.017h.4l1.526 2.334v-2.334zm.789 0 .783 1.515.786-1.515h.454l-1.04 1.89v1.127h-.4v-1.127l-1.041-1.89z" style="fill:#fff;fill-opacity:1"/><path fill="#292733" d="M26.526 75.053h24.115v8.681H26.526z" style="fill:#292733;fill:color(display-p3 .1608 .1529 .2);fill-opacity:1"/><path fill="#A7A4B5" d="M0 56.726h77.167v18.327H0z" style="fill:#a7a4b5;fill:color(display-p3 .6549 .6431 .7098);fill-opacity:1"/><path fill="#1C1B24" d="M15.351 59.582v4.265h-.876v-4.265zm1.312 0v.688h-3.48v-.688zm1.272-.235v4.5h-.844v-4.5zm-.12 2.804h-.232a2.1 2.1 0 0 1 .088-.61q.085-.28.243-.485.159-.21.378-.323.223-.114.492-.114.235 0 .425.067a.8.8 0 0 1 .331.211.95.95 0 0 1 .217.378q.076.235.076.569v2.003h-.85v-2.01q0-.21-.06-.33a.34.34 0 0 0-.174-.173.64.64 0 0 0-.275-.053.66.66 0 0 0-.31.068.53.53 0 0 0-.203.187.8.8 0 0 0-.111.275 1.6 1.6 0 0 0-.035.34m3.504-.782v2.478h-.844v-3.17h.794zm.955-.712-.015.782a2 2 0 0 0-.15-.014 2 2 0 0 0-.155-.01.9.9 0 0 0-.31.048.55.55 0 0 0-.217.132.6.6 0 0 0-.129.214q-.04.126-.047.287l-.17-.053q0-.308.062-.566.061-.26.179-.454a.9.9 0 0 1 .293-.299.74.74 0 0 1 .395-.105 1 1 0 0 1 .264.038m1.799 3.25q-.37 0-.663-.118a1.5 1.5 0 0 1-.497-.331 1.5 1.5 0 0 1-.311-.49 1.7 1.7 0 0 1-.108-.597v-.117q0-.36.102-.66.102-.299.293-.518.193-.22.469-.337.275-.12.62-.12.338 0 .598.111.261.112.437.317.18.205.27.492.09.284.09.633v.351h-2.52v-.562h1.691v-.065a.7.7 0 0 0-.064-.313.5.5 0 0 0-.188-.223.6.6 0 0 0-.322-.082.54.54 0 0 0-.287.073.6.6 0 0 0-.196.206 1.1 1.1 0 0 0-.112.31 2 2 0 0 0-.035.387v.117q0 .19.053.351.056.161.155.279a.7.7 0 0 0 .246.181.8.8 0 0 0 .331.065q.229 0 .425-.088a.9.9 0 0 0 .343-.272l.41.445a1.3 1.3 0 0 1-.272.275q-.17.132-.41.217-.24.082-.548.082m3.492-.774V61.72a.6.6 0 0 0-.05-.261.37.37 0 0 0-.155-.173.5.5 0 0 0-.267-.062.55.55 0 0 0-.243.05.35.35 0 0 0-.158.138.4.4 0 0 0-.056.208h-.844q0-.202.094-.384a1 1 0 0 1 .273-.32q.178-.14.424-.219.25-.08.557-.079.37 0 .656.123.288.123.451.37.168.245.167.614v1.357q0 .26.033.428.032.164.093.287v.05h-.852a1.2 1.2 0 0 1-.094-.323q-.03-.195-.03-.392m.111-1.216.006.477h-.472a1 1 0 0 0-.29.038.54.54 0 0 0-.202.109.4.4 0 0 0-.117.158.6.6 0 0 0-.035.2q0 .108.05.196a.36.36 0 0 0 .143.134.5.5 0 0 0 .22.047.7.7 0 0 0 .33-.076.6.6 0 0 0 .218-.187.4.4 0 0 0 .082-.211l.222.357q-.046.12-.128.25-.079.128-.203.242-.123.111-.296.185-.173.07-.41.07-.301 0-.547-.12a1 1 0 0 1-.387-.337.9.9 0 0 1-.14-.492q0-.25.093-.443a.86.86 0 0 1 .275-.325q.185-.135.46-.202.276-.07.639-.07zm2.942-1.24v.598h-1.846v-.597zm-1.39-.782h.845v2.997q0 .138.035.211a.2.2 0 0 0 .111.103.6.6 0 0 0 .185.026q.079 0 .14-.006.065-.008.109-.017l.003.621a1.6 1.6 0 0 1-.513.076q-.279 0-.486-.09a.67.67 0 0 1-.317-.3q-.111-.204-.111-.539zm4.352-.313v4.265h-.876v-4.265zm1.596 1.772v2.493h-.844v-3.17h.791zm-.123.797h-.228q0-.351.09-.633.092-.284.255-.483.165-.202.39-.308.228-.108.51-.108.222 0 .407.065a.8.8 0 0 1 .316.205.9.9 0 0 1 .205.372q.075.23.074.565v2.021h-.85v-2.024q0-.21-.059-.328a.33.33 0 0 0-.172-.164.7.7 0 0 0-.276-.05.6.6 0 0 0-.296.068.6.6 0 0 0-.205.187.9.9 0 0 0-.12.275 1.4 1.4 0 0 0-.04.34m4.213-1.473v.597H37.42v-.597zm-1.389-.783h.844v2.997q0 .138.035.211a.2.2 0 0 0 .112.103.6.6 0 0 0 .184.026q.08 0 .14-.006.066-.008.11-.017l.002.621a1.6 1.6 0 0 1-.513.076q-.278 0-.486-.09a.67.67 0 0 1-.316-.3q-.112-.204-.112-.539zm3.328 4.011q-.368 0-.662-.117a1.5 1.5 0 0 1-.498-.331 1.5 1.5 0 0 1-.31-.49 1.7 1.7 0 0 1-.109-.597v-.117q0-.36.103-.66.102-.299.293-.518.193-.22.469-.337.275-.12.62-.12.338 0 .598.111.261.112.437.317.178.205.27.492.09.284.09.633v.351h-2.52v-.562h1.691v-.065a.7.7 0 0 0-.064-.313.5.5 0 0 0-.188-.223.6.6 0 0 0-.322-.082.54.54 0 0 0-.287.073.6.6 0 0 0-.197.206 1.1 1.1 0 0 0-.11.31 2 2 0 0 0-.036.387v.117q0 .19.053.351.056.161.155.279a.7.7 0 0 0 .246.181.8.8 0 0 0 .331.065q.228 0 .425-.088a.9.9 0 0 0 .343-.272l.41.445a1.3 1.3 0 0 1-.273.275q-.17.132-.41.217-.24.082-.548.082m2.672-4.559v4.5h-.846v-4.5zm1.588 0v4.5h-.847v-4.5zm1.588 1.33v3.17h-.847v-3.17zm-.9-.826q0-.184.13-.304a.5.5 0 0 1 .345-.12q.214 0 .343.12.132.12.132.304a.4.4 0 0 1-.132.305q-.129.12-.343.12a.5.5 0 0 1-.345-.12.4.4 0 0 1-.13-.305m3.604.827h.765v3.064q0 .434-.194.735a1.2 1.2 0 0 1-.533.46 1.9 1.9 0 0 1-.797.159q-.199 0-.421-.053a1.7 1.7 0 0 1-.422-.164 1.1 1.1 0 0 1-.334-.282l.372-.497q.145.169.34.263a.94.94 0 0 0 .427.097.8.8 0 0 0 .387-.085.56.56 0 0 0 .243-.243.8.8 0 0 0 .085-.384V61.41zM47.624 62.3v-.062q0-.363.088-.659.09-.3.255-.513.167-.214.404-.33.238-.118.537-.118.315 0 .53.117.214.117.351.334.138.214.214.507.08.29.123.636v.134q-.044.331-.131.616-.089.284-.232.498-.144.21-.357.328-.211.117-.504.117t-.53-.12a1.2 1.2 0 0 1-.402-.337 1.6 1.6 0 0 1-.258-.51 2.2 2.2 0 0 1-.088-.638m.844-.062v.062q0 .196.038.366.039.17.117.302a.6.6 0 0 0 .203.202q.122.07.29.07.231 0 .377-.097a.6.6 0 0 0 .22-.272q.074-.173.085-.398v-.384a1.3 1.3 0 0 0-.05-.331.8.8 0 0 0-.123-.255.53.53 0 0 0-.205-.164.7.7 0 0 0-.299-.059.54.54 0 0 0-.29.076.6.6 0 0 0-.202.202 1 1 0 0 0-.12.305 1.6 1.6 0 0 0-.04.375m4.17 1.667q-.37 0-.663-.117a1.5 1.5 0 0 1-.498-.331 1.5 1.5 0 0 1-.31-.49 1.7 1.7 0 0 1-.109-.597v-.117q0-.36.102-.66.104-.299.294-.518.193-.22.468-.337.275-.12.621-.12.337 0 .598.111.261.112.437.317.178.205.269.492.09.284.09.633v.351h-2.519v-.562h1.69v-.065a.7.7 0 0 0-.064-.313.5.5 0 0 0-.187-.223.6.6 0 0 0-.322-.082.54.54 0 0 0-.288.073.6.6 0 0 0-.196.206 1.1 1.1 0 0 0-.111.31 2 2 0 0 0-.035.387v.117q0 .19.052.351.057.161.156.279.102.118.246.181a.8.8 0 0 0 .33.065q.23 0 .426-.088a.9.9 0 0 0 .342-.272l.41.445a1.3 1.3 0 0 1-.272.275q-.17.132-.41.217a1.7 1.7 0 0 1-.548.082m2.607-2.552v2.493H54.4v-3.17h.79zm-.123.797h-.23q0-.351.092-.633.09-.284.255-.483.163-.202.39-.308.228-.108.51-.108.221 0 .406.065a.8.8 0 0 1 .317.205.9.9 0 0 1 .205.372q.073.23.073.565v2.021h-.85v-2.024q0-.21-.058-.328a.33.33 0 0 0-.173-.164.7.7 0 0 0-.275-.05.6.6 0 0 0-.296.068.6.6 0 0 0-.205.187.9.9 0 0 0-.12.275 1.4 1.4 0 0 0-.041.34m3.97 1.096q.154 0 .275-.059a.47.47 0 0 0 .187-.17.5.5 0 0 0 .073-.26h.794q-.003.333-.178.594a1.23 1.23 0 0 1-.472.408 1.5 1.5 0 0 1-.662.146q-.369 0-.645-.123a1.26 1.26 0 0 1-.454-.34 1.5 1.5 0 0 1-.272-.51 2.1 2.1 0 0 1-.091-.626v-.085q0-.337.09-.627.092-.294.273-.51.182-.22.454-.343a1.5 1.5 0 0 1 .639-.123q.39 0 .682.15.297.149.463.427.17.275.173.654h-.794a.7.7 0 0 0-.067-.288.51.51 0 0 0-.472-.284.53.53 0 0 0-.302.08.5.5 0 0 0-.181.21 1 1 0 0 0-.091.302 3 3 0 0 0-.023.352v.084q0 .186.023.355a1 1 0 0 0 .088.302.53.53 0 0 0 .184.208.55.55 0 0 0 .305.076m3.278.66q-.37 0-.663-.118a1.5 1.5 0 0 1-.498-.331 1.5 1.5 0 0 1-.31-.49 1.7 1.7 0 0 1-.109-.597v-.117q0-.36.103-.66.102-.299.293-.518.193-.22.469-.337.275-.12.62-.12.338 0 .598.111.261.112.437.317.18.205.27.492.09.284.09.633v.351h-2.52v-.562h1.691v-.065a.7.7 0 0 0-.064-.313.5.5 0 0 0-.188-.223.6.6 0 0 0-.322-.082.54.54 0 0 0-.287.073.6.6 0 0 0-.196.206 1.1 1.1 0 0 0-.112.31 2 2 0 0 0-.035.387v.117q0 .19.053.351.056.161.155.279a.7.7 0 0 0 .246.181.8.8 0 0 0 .331.065q.229 0 .425-.088a.9.9 0 0 0 .343-.272l.41.445a1.3 1.3 0 0 1-.273.275q-.17.132-.41.217-.24.082-.547.082m-46.705 6.35a.6.6 0 0 0-.035-.205.4.4 0 0 0-.123-.17 1 1 0 0 0-.255-.155q-.163-.076-.425-.158a5 5 0 0 1-.55-.211 2.3 2.3 0 0 1-.457-.273 1.2 1.2 0 0 1-.31-.366 1 1 0 0 1-.112-.483 1 1 0 0 1 .117-.484q.117-.219.328-.375.21-.157.498-.243.291-.085.636-.085.472 0 .823.17.352.17.545.466.196.296.196.677h-.873a.66.66 0 0 0-.079-.329.54.54 0 0 0-.234-.225.84.84 0 0 0-.393-.082.9.9 0 0 0-.38.07.5.5 0 0 0-.23.185.45.45 0 0 0-.075.258q0 .108.053.196a.6.6 0 0 0 .164.164q.107.076.266.144.159.066.366.131.35.106.613.238a2 2 0 0 1 .445.296q.18.163.27.372.09.207.09.471 0 .279-.108.498-.108.22-.313.372-.205.154-.49.232-.284.08-.636.079-.315 0-.624-.082a1.9 1.9 0 0 1-.56-.255 1.3 1.3 0 0 1-.398-.434q-.15-.262-.149-.624h.882q0 .2.061.337a.56.56 0 0 0 .173.223.7.7 0 0 0 .27.123q.157.038.345.038a.9.9 0 0 0 .375-.064.46.46 0 0 0 .293-.437m2.883 1.175q-.37 0-.662-.117a1.5 1.5 0 0 1-.498-.331 1.5 1.5 0 0 1-.31-.49 1.7 1.7 0 0 1-.109-.597v-.117q0-.36.103-.66.102-.299.293-.518.194-.22.468-.337.276-.12.621-.12.337 0 .598.111t.437.317q.178.204.27.492.09.284.09.633v.351h-2.52v-.562h1.69v-.065a.7.7 0 0 0-.064-.313.5.5 0 0 0-.187-.223.6.6 0 0 0-.322-.082.54.54 0 0 0-.287.073.6.6 0 0 0-.197.205 1.1 1.1 0 0 0-.111.31 2 2 0 0 0-.035.388v.117q0 .19.053.351.055.161.155.279a.7.7 0 0 0 .246.181.8.8 0 0 0 .331.065q.228 0 .425-.088a.9.9 0 0 0 .343-.273l.41.446a1.3 1.3 0 0 1-.273.275q-.17.132-.41.217-.24.082-.548.082m2.625-2.537v2.478h-.844v-3.17h.794zm.955-.712-.014.782a2 2 0 0 0-.15-.014 2 2 0 0 0-.155-.01.9.9 0 0 0-.31.048.55.55 0 0 0-.217.131.6.6 0 0 0-.13.214q-.04.126-.046.287l-.17-.052q0-.308.062-.566.06-.26.178-.454a.9.9 0 0 1 .293-.299.74.74 0 0 1 .396-.105 1 1 0 0 1 .263.038m1.53 2.575.703-2.555h.882l-1.07 3.17h-.533zm-.484-2.555.706 2.558.015.612h-.536l-1.07-3.17zm3.337 0v3.17h-.847v-3.17zm-.9-.826q0-.184.13-.304a.5.5 0 0 1 .345-.12q.214 0 .343.12.132.12.132.304a.4.4 0 0 1-.132.305q-.129.12-.343.12a.5.5 0 0 1-.345-.12.4.4 0 0 1-.13-.305m2.907 3.396q.155 0 .275-.059a.47.47 0 0 0 .261-.43h.794q-.003.333-.179.594a1.23 1.23 0 0 1-.471.407 1.5 1.5 0 0 1-.662.147q-.37 0-.645-.123a1.26 1.26 0 0 1-.454-.34 1.5 1.5 0 0 1-.273-.51 2.1 2.1 0 0 1-.09-.627v-.085q0-.336.09-.627.091-.293.273-.51.181-.219.454-.342t.639-.123q.39 0 .682.15.297.148.463.427.17.275.173.653h-.794a.7.7 0 0 0-.067-.287.51.51 0 0 0-.472-.284.53.53 0 0 0-.302.08.5.5 0 0 0-.181.21 1 1 0 0 0-.091.302 3 3 0 0 0-.024.351v.085q0 .185.024.355a1 1 0 0 0 .088.302.53.53 0 0 0 .184.208.55.55 0 0 0 .305.076m3.278.659q-.37 0-.662-.117a1.5 1.5 0 0 1-.498-.331 1.5 1.5 0 0 1-.31-.49 1.7 1.7 0 0 1-.109-.597v-.117q0-.36.103-.66.102-.299.293-.518.194-.22.468-.337.276-.12.622-.12.336 0 .597.111t.437.317q.178.204.27.492.09.284.09.633v.351h-2.52v-.562h1.691v-.065a.7.7 0 0 0-.065-.313.5.5 0 0 0-.187-.223.6.6 0 0 0-.322-.082.54.54 0 0 0-.287.073.6.6 0 0 0-.197.205 1.1 1.1 0 0 0-.111.31 2 2 0 0 0-.035.388v.117q0 .19.053.351.055.161.155.279.102.117.246.181a.8.8 0 0 0 .331.065q.228 0 .425-.088a.9.9 0 0 0 .343-.273l.41.446a1.3 1.3 0 0 1-.273.275q-.17.132-.41.217a1.7 1.7 0 0 1-.548.082m3.495-.935a.27.27 0 0 0-.052-.164.46.46 0 0 0-.197-.135 2 2 0 0 0-.407-.117q-.24-.053-.448-.131a1.6 1.6 0 0 1-.358-.197.75.75 0 0 1-.32-.63q.002-.198.086-.375a1 1 0 0 1 .25-.31q.162-.138.398-.214.237-.08.533-.08.412 0 .709.133.298.131.457.363a.9.9 0 0 1 .16.521h-.843a.45.45 0 0 0-.053-.22.35.35 0 0 0-.158-.155.56.56 0 0 0-.275-.058.55.55 0 0 0-.243.05.4.4 0 0 0-.159.129.31.31 0 0 0-.023.307.3.3 0 0 0 .103.103q.07.046.181.088.114.037.282.07.342.07.612.184.27.112.428.305a.76.76 0 0 1 .158.501q0 .21-.094.387a.9.9 0 0 1-.27.308 1.4 1.4 0 0 1-.421.202q-.244.07-.548.07-.443 0-.75-.158a1.2 1.2 0 0 1-.463-.402.93.93 0 0 1-.155-.504h.8a.47.47 0 0 0 .087.279.5.5 0 0 0 .214.152.8.8 0 0 0 .284.047q.164 0 .273-.044a.4.4 0 0 0 .164-.123.3.3 0 0 0 .058-.182m5.388-.539h.876a1.6 1.6 0 0 1-.237.765 1.4 1.4 0 0 1-.583.521q-.372.188-.897.188-.41 0-.735-.14a1.6 1.6 0 0 1-.557-.41 1.8 1.8 0 0 1-.348-.645 2.8 2.8 0 0 1-.12-.847v-.296q0-.469.123-.847a1.9 1.9 0 0 1 .357-.647q.234-.267.56-.41a1.8 1.8 0 0 1 .726-.144q.533 0 .9.194.369.193.57.533.207.34.247.773h-.879a1.1 1.1 0 0 0-.102-.436.58.58 0 0 0-.267-.273 1 1 0 0 0-.469-.093.85.85 0 0 0-.384.081.7.7 0 0 0-.275.25q-.111.166-.167.421a3 3 0 0 0-.053.592v.302q0 .33.05.583.05.25.152.422.105.17.27.258a.9.9 0 0 0 .401.085q.276 0 .454-.088a.6.6 0 0 0 .273-.261q.096-.173.114-.43m1.266-.137v-.062q0-.348.1-.642.099-.296.29-.512t.468-.337q.279-.123.639-.123t.641.123q.282.12.472.337.194.216.293.513.1.293.1.641v.062q0 .345-.1.641a1.5 1.5 0 0 1-.293.513 1.3 1.3 0 0 1-.469.337q-.278.12-.638.12t-.642-.12a1.3 1.3 0 0 1-.472-.337 1.5 1.5 0 0 1-.29-.513 2 2 0 0 1-.1-.641m.843-.062v.062q0 .198.036.372.035.172.111.304a.6.6 0 0 0 .205.203.6.6 0 0 0 .308.073.6.6 0 0 0 .301-.073.56.56 0 0 0 .203-.203q.075-.132.11-.304.039-.174.039-.372v-.062q0-.194-.038-.363a1 1 0 0 0-.114-.305.6.6 0 0 0-.203-.21.6.6 0 0 0-.304-.077q-.179 0-.305.076a.6.6 0 0 0-.202.211q-.076.132-.111.305a2 2 0 0 0-.035.363m3.522-.9v2.514h-.847v-3.17h.794zm-.117.818h-.235q0-.33.08-.61.081-.28.237-.486.157-.207.39-.322.23-.114.536-.114.211 0 .386.064a.74.74 0 0 1 .302.197.9.9 0 0 1 .2.345q.07.21.07.507v2.115h-.844V69.35a.8.8 0 0 0-.059-.334.33.33 0 0 0-.167-.164.6.6 0 0 0-.255-.047.6.6 0 0 0-.287.067.6.6 0 0 0-.199.188.8.8 0 0 0-.117.275 1.5 1.5 0 0 0-.038.34m1.886-.097-.301.038q0-.31.076-.577a1.5 1.5 0 0 1 .231-.468q.156-.203.384-.314.228-.114.527-.114.229 0 .416.067a.76.76 0 0 1 .32.208.9.9 0 0 1 .205.37q.073.228.073.559v2.024h-.846v-2.024a.75.75 0 0 0-.06-.334.3.3 0 0 0-.163-.161.6.6 0 0 0-.252-.047.55.55 0 0 0-.457.225.8.8 0 0 0-.114.247 1.1 1.1 0 0 0-.038.301m3.428-.767v3.78h-.843V68.2h.782zm2.007.94v.062q0 .345-.082.641a1.6 1.6 0 0 1-.234.516 1.1 1.1 0 0 1-.387.34q-.228.12-.527.12-.291 0-.504-.117a1.05 1.05 0 0 1-.36-.328 2 2 0 0 1-.232-.495 4 4 0 0 1-.135-.604v-.161q.047-.346.135-.633.088-.29.231-.5.147-.216.358-.332.214-.117.5-.117.303 0 .531.114.231.114.387.328.157.215.237.51.082.296.082.656m-.847.062v-.062q0-.203-.035-.372a1 1 0 0 0-.105-.302.51.51 0 0 0-.466-.272.7.7 0 0 0-.296.056.5.5 0 0 0-.196.16.8.8 0 0 0-.114.253 1.6 1.6 0 0 0-.047.33v.408q.015.216.082.39a.6.6 0 0 0 .208.27q.14.099.369.099a.5.5 0 0 0 .281-.073.56.56 0 0 0 .185-.208 1 1 0 0 0 .102-.305q.032-.173.032-.372m3.082.843v-1.412a.6.6 0 0 0-.05-.26.37.37 0 0 0-.155-.173.5.5 0 0 0-.266-.062.55.55 0 0 0-.243.05.35.35 0 0 0-.159.138.4.4 0 0 0-.055.208h-.844q0-.203.094-.384a1 1 0 0 1 .272-.32q.179-.14.425-.22.248-.078.557-.078.37 0 .656.123t.451.369q.167.247.167.615v1.357q0 .26.032.427.033.165.094.287v.05h-.852a1.2 1.2 0 0 1-.094-.322 3 3 0 0 1-.03-.393m.112-1.215.006.477h-.472a1 1 0 0 0-.29.038.54.54 0 0 0-.202.109.4.4 0 0 0-.117.158.6.6 0 0 0-.036.2q0 .107.05.195a.36.36 0 0 0 .144.135.5.5 0 0 0 .22.047.7.7 0 0 0 .33-.076.6.6 0 0 0 .217-.188.4.4 0 0 0 .082-.21l.223.357q-.046.12-.129.249-.08.129-.202.243-.123.111-.296.185-.173.07-.41.07-.302 0-.548-.12a1 1 0 0 1-.387-.337.9.9 0 0 1-.14-.492q0-.25.093-.443a.86.86 0 0 1 .276-.325q.184-.135.46-.202.274-.07.639-.07zm2.215-.563v2.493h-.844v-3.17h.79zm-.123.797h-.229q0-.351.09-.633.091-.284.256-.483.164-.202.39-.308.228-.108.51-.108.222 0 .406.064a.8.8 0 0 1 .317.205.9.9 0 0 1 .205.372q.073.232.073.566v2.021h-.85v-2.024q0-.21-.058-.328a.33.33 0 0 0-.173-.164.7.7 0 0 0-.275-.05.6.6 0 0 0-.296.067.6.6 0 0 0-.205.188.9.9 0 0 0-.12.275 1.4 1.4 0 0 0-.041.34m3.6 1.339.84-2.813h.906l-1.274 3.648q-.042.12-.111.258a1 1 0 0 1-.185.26.9.9 0 0 1-.29.206 1 1 0 0 1-.425.079 1 1 0 0 1-.196-.015 4 4 0 0 1-.182-.041v-.618h.068l.067.003a.8.8 0 0 0 .272-.038.4.4 0 0 0 .17-.118.6.6 0 0 0 .103-.199zm-.351-2.813.688 2.297.12.894-.574.061-1.14-3.252z" style="fill:#1c1b24;fill:color(display-p3 .1098 .1059 .1412);fill-opacity:1"/><path fill="#fff" d="M36.548 80.11v.258h-1.616v-.226l.809-.9q.15-.166.23-.282a1 1 0 0 0 .116-.208.6.6 0 0 0 .034-.19.5.5 0 0 0-.051-.22.4.4 0 0 0-.146-.16.44.44 0 0 0-.234-.06.54.54 0 0 0-.275.065.4.4 0 0 0-.162.177.6.6 0 0 0-.055.26h-.313q0-.208.091-.38a.7.7 0 0 1 .272-.276.9.9 0 0 1 .442-.103q.234 0 .4.083.166.081.255.23.09.148.09.347a.7.7 0 0 1-.038.22 1 1 0 0 1-.1.22 2 2 0 0 1-.147.218 3 3 0 0 1-.178.21l-.662.717zm1.886-1.173v.376q0 .303-.055.512a.9.9 0 0 1-.156.336.6.6 0 0 1-.245.185.9.9 0 0 1-.323.056 1 1 0 0 1-.263-.036.6.6 0 0 1-.217-.114.7.7 0 0 1-.162-.206 1.1 1.1 0 0 1-.104-.31 2.2 2.2 0 0 1-.035-.423v-.376q0-.304.054-.51a.9.9 0 0 1 .158-.328.6.6 0 0 1 .244-.18.9.9 0 0 1 .322-.054 1 1 0 0 1 .264.036.6.6 0 0 1 .379.31q.068.124.103.303.036.18.036.423m-.316.427v-.48q0-.165-.02-.292a1 1 0 0 0-.056-.217.4.4 0 0 0-.095-.145.34.34 0 0 0-.13-.082.5.5 0 0 0-.165-.027.45.45 0 0 0-.199.042.36.36 0 0 0-.145.131.7.7 0 0 0-.089.236q-.03.145-.03.354v.48q0 .166.019.293a1 1 0 0 0 .059.22.5.5 0 0 0 .095.152q.056.06.129.088.075.027.164.027a.44.44 0 0 0 .202-.044.36.36 0 0 0 .144-.138.7.7 0 0 0 .088-.242q.03-.15.03-.356m2.337.746v.258H38.84v-.226l.809-.9q.15-.166.23-.282a1 1 0 0 0 .115-.208.6.6 0 0 0 .034-.19.5.5 0 0 0-.05-.22.4.4 0 0 0-.146-.16.44.44 0 0 0-.234-.06.54.54 0 0 0-.275.065.4.4 0 0 0-.163.177.6.6 0 0 0-.054.26h-.314q0-.208.092-.38a.7.7 0 0 1 .271-.276.9.9 0 0 1 .443-.103q.234 0 .4.083.165.081.254.23.09.148.09.347a.7.7 0 0 1-.037.22 1 1 0 0 1-.1.22 2 2 0 0 1-.148.218 3 3 0 0 1-.178.21l-.661.717zm2.004-.573v.258h-1.784v-.185l1.106-1.711h.256l-.275.495-.73 1.143zm-.344-1.638v2.469H41.8v-2.47z" style="fill:#fff;fill-opacity:1"/><path stroke="#fff" stroke-width=".193" d="M43.889 47.176h28.455m-67.135 0h28.455" style="stroke:#fff;stroke-opacity:1"/><path fill="#fff" d="m38.777 45.037.728.444-.193-.838.654-.56-.86-.075-.33-.787-.335.787-.854.075.648.56-.202.838zm-2.38 1.789.729.444-.193-.838.654-.56-.86-.075-.33-.787-.336.787-.853.075.648.56-.202.838zm4.759-.895.729.445-.194-.838.655-.56-.86-.075-.33-.788-.336.788-.854.074.649.56-.203.839zm-1.487 3.85h-1.785v-3.877h1.785zm-2.38 0h-1.784v-1.79h1.784zm4.76 0h-1.785v-2.982h1.784z" style="fill:#fff;fill-opacity:1"/></svg>