<svg xmlns="http://www.w3.org/2000/svg" width="121" height="104" fill="none"><g clip-path="url(#a)"><path fill="#6D697D" fill-rule="evenodd" d="M17.366 67.91H0l6.127-9.31L0 48.796h17.366zm86.269 0h17.366l-6.128-9.309 6.128-9.805h-17.366z" clip-rule="evenodd" style="fill:#6d697d;fill:color(display-p3 .4275 .4118 .4902);fill-opacity:1"/><path fill="#5B576B" d="m8.963 62.277 11.54 6.42-4.095-10.457H8.963zm102.962 0-11.54 6.42 4.095-10.457h7.445z" style="fill:#5b576b;fill:color(display-p3 .3569 .3412 .4196);fill-opacity:1"/><path fill="#292733" d="M107.555 25.989v52L60.791 104 14.004 77.989v-52L60.79 0z" style="fill:#292733;fill:color(display-p3 .1608 .1529 .2);fill-opacity:1"/><path fill="url(#b)" d="M104.42 27.467v49.29l-43.794 24.656-43.82-24.657V27.467l43.82-24.656z"/><path fill="#292733" d="M104.42 27.467v49.29l-43.794 24.656-43.82-24.657V27.467l43.82-24.656z" style="fill:#292733;fill:color(display-p3 .1608 .1529 .2);fill-opacity:1"/><path stroke="#4A4658" stroke-miterlimit="10" stroke-width="1.038" d="M104.42 27.467v49.29l-43.795 24.656-43.818-24.657V27.467L60.625 2.811z" style="stroke:#4a4658;stroke:color(display-p3 .2902 .2745 .3451);stroke-opacity:1"/><path fill="#A7A4B5" fill-rule="evenodd" d="M8.963 62.288c0 .062.05.112.112.112h102.85c.062 0 .112-.05.112-.112V43.399a.11.11 0 0 0-.112-.112H9.075a.113.113 0 0 0-.112.112z" clip-rule="evenodd" style="fill:#a7a4b5;fill:color(display-p3 .6549 .6431 .7098);fill-opacity:1"/><path fill="#fff" d="M52.77 23.498h-1.905v10.456h1.905zm6.33 7.288c0 1.636-1.493 1.758-1.922 1.758-1.062 0-1.328-.961-1.328-1.533v-4.028h-1.512v4.028c0 1.002.307 1.84.878 2.412.511.49 1.226.757 2.064.757.654 0 1.185-.204 1.818-.572v.287h1.737v-6.91h-1.737v3.803zm5.269-6.163H62.46v2.445h-1.064v1.345h1.064v5.542h1.908v-5.542h1.285V27.07h-1.285zm6.881 7.313a2.1 2.1 0 0 1-1.442.507c-1.219 0-2.132-.873-2.132-2.05s.874-2.01 2.132-2.01c.528 0 1.057.183 1.462.508l.265.224 1.178-1.137-.305-.264a4.03 4.03 0 0 0-2.62-.955c-2.193 0-3.798 1.523-3.798 3.634s1.645 3.674 3.798 3.674c.975.02 1.91-.325 2.641-.954l.285-.264-1.2-1.137zm7.776-4.238c-.51-.489-1.242-.754-2.078-.754-.652 0-1.345.203-1.833.57V23.5h-1.732v10.456h1.732v-3.628c0-1.63 1.385-1.753 1.813-1.753 1.038 0 1.222.958 1.222 1.53v3.851h1.732v-3.852c-.02-1.018-.264-1.855-.856-2.405" style="fill:#fff;fill-opacity:1"/><path fill="#A7A4B5" d="M69.744 31.706c.71 0 1.288-.553 1.288-1.237s-.577-1.237-1.288-1.237-1.289.553-1.289 1.237.577 1.237 1.288 1.237" style="fill:#a7a4b5;fill:color(display-p3 .6549 .6431 .7098);fill-opacity:1"/><path fill="#fff" d="M48.766 31.527a3.57 3.57 0 0 1-2.55 1.02c-1.978 0-3.405-1.49-3.405-3.53s1.427-3.549 3.406-3.549c.958 0 1.876.368 2.529 1.02l.265.266 1.183-1.143-.265-.265c-.98-.98-2.325-1.51-3.732-1.51-2.897 0-5.078 2.224-5.078 5.182s2.183 5.162 5.078 5.162c1.407 0 2.752-.531 3.732-1.51l.265-.266-1.163-1.162zM54.85 77v-5.885h2.273v.589H55.67v1.961h1.126v.582H55.67V77zm2.248 0 1.25-5.885h.791L60.396 77h-.777l-.269-1.482h-1.199L57.868 77zm1.162-2.07h.981l-.494-2.652zM60.993 77v-5.885h.821v5.297h1.504V77zm2.888 0v-5.885h.82v5.297h1.505V77zM54.54 90v-.473l1.283-2q.144-.224.262-.416a2 2 0 0 0 .2-.405q.08-.218.08-.498 0-.349-.112-.548t-.392-.2a.5.5 0 0 0-.368.131.7.7 0 0 0-.18.343 2 2 0 0 0-.05.454v.168h-.666v-.174q0-.454.118-.778.125-.33.392-.51.275-.181.723-.181.61 0 .909.348.3.343.299.953 0 .324-.081.567-.075.242-.2.454a9 9 0 0 1-.273.436l-1.159 1.769h1.594V90zm4.332.056q-.43 0-.71-.193a1.17 1.17 0 0 1-.411-.53 2.1 2.1 0 0 1-.13-.765v-2.173q0-.443.13-.773.13-.336.405-.523.28-.186.716-.187.435 0 .71.187.273.188.404.523.132.33.131.773v2.173q0 .435-.137.772a1.13 1.13 0 0 1-.405.53q-.273.186-.703.186m0-.548q.236 0 .355-.137a.7.7 0 0 0 .168-.349q.05-.217.05-.448v-2.186q0-.243-.044-.454a.7.7 0 0 0-.168-.349q-.119-.13-.361-.13-.243 0-.368.13a.7.7 0 0 0-.168.349q-.043.21-.043.454v2.186q0 .23.043.448a.8.8 0 0 0 .175.35.48.48 0 0 0 .36.136m1.86.492v-.473l1.282-2a28 28 0 0 0 .261-.416q.126-.194.2-.405.08-.218.08-.498 0-.349-.111-.548-.113-.2-.393-.2a.5.5 0 0 0-.367.131.7.7 0 0 0-.18.343 2 2 0 0 0-.05.454v.168h-.667v-.174q0-.454.119-.778.124-.33.392-.51.273-.181.722-.181.61 0 .91.348.298.343.298.953 0 .324-.08.567-.075.242-.2.454a9 9 0 0 1-.274.436l-1.158 1.769h1.594V90zm4.387 0v-1.351h-1.463v-.698l1.314-2.995h.785v3.101h.566v.592h-.566V90zm-.822-1.943h.822v-2.291z" style="fill:#fff;fill-opacity:1"/><path fill="#1C1B24" d="M41.591 57.506q-.91 0-1.418-.38a2 2 0 0 1-.699-1.028 5 5 0 0 1-.19-1.44v-3.027q0-.868.19-1.514.201-.645.699-.995.508-.36 1.418-.36.805 0 1.27.297.477.296.678.847.212.55.212 1.323v.677h-1.133v-.603q0-.476-.053-.836-.042-.371-.254-.572-.211-.201-.71-.201-.507 0-.74.222-.233.212-.307.614a6 6 0 0 0-.064.921v3.398q0 .646.106 1.027.105.37.35.53.243.158.656.158.487 0 .699-.212.21-.222.264-.603.053-.38.053-.89v-.635h1.133v.636q0 .783-.19 1.386a1.8 1.8 0 0 1-.657.932q-.465.328-1.313.328m3.3-.095v-8.575h1.196v3.705h2.201v-3.705h1.197v8.575h-1.197v-4.012h-2.201v4.012zm5.468 0 1.82-8.575h1.154l1.832 8.575h-1.133l-.392-2.16h-1.746l-.413 2.16zm1.693-3.017h1.43l-.72-3.864zm3.961 3.017.16-8.575h1.174l1.514 6.955 1.524-6.955h1.165l.159 8.575h-.964l-.095-6.225-1.45 6.225h-.678l-1.44-6.225-.095 6.225zm7.01 0v-8.575h2.128q.772 0 1.228.286.465.276.677.805t.212 1.28q0 .678-.243 1.176-.234.497-.7.772-.465.265-1.164.265h-.942v3.99zm1.196-4.849h.55q.519 0 .816-.116a.74.74 0 0 0 .423-.402q.127-.297.127-.826 0-.614-.095-.942a.64.64 0 0 0-.37-.455q-.286-.127-.89-.127h-.56zm3.954 4.849v-8.575h1.175v8.575zm4.753.095q-.867 0-1.386-.339a1.86 1.86 0 0 1-.742-.963q-.222-.635-.222-1.482v-3.25q0-.846.223-1.45.233-.614.74-.932.52-.328 1.387-.328.869 0 1.376.328.51.33.73.932.234.603.234 1.45v3.26q0 .837-.233 1.462a1.93 1.93 0 0 1-.73.973q-.51.34-1.377.34m0-.942q.477 0 .72-.19a1 1 0 0 0 .328-.551q.085-.36.085-.836V51.23a3.4 3.4 0 0 0-.085-.815.9.9 0 0 0-.328-.53q-.243-.19-.72-.19-.475 0-.73.19a.9.9 0 0 0-.328.53 3.4 3.4 0 0 0-.085.815v3.758q0 .476.085.836a1 1 0 0 0 .328.55q.255.191.73.191m3.516.847v-8.575h.815l2.434 5.696v-5.696h.995v8.575h-.762l-2.466-5.854v5.854z" style="fill:#1c1b24;fill:color(display-p3 .1098 .1059 .1412);fill-opacity:1"/></g><defs><radialGradient id="b" cx="0" cy="0" r="1" gradientTransform="matrix(-85.7114 98.5995 197.516 172.912 94.287 11.512)" gradientUnits="userSpaceOnUse"><stop stop-color="#17313B" style="stop-color:#17313b;stop-color:color(display-p3 .0902 .1922 .2314);stop-opacity:1"/><stop offset="1" stop-color="#2E5272" style="stop-color:#2e5272;stop-color:color(display-p3 .1804 .3216 .4471);stop-opacity:1"/></radialGradient><clipPath id="a"><path fill="#fff" d="M0 0h121v104H0z" style="fill:#fff;fill-opacity:1"/></clipPath></defs></svg>