<svg xmlns="http://www.w3.org/2000/svg" width="122" height="104" fill="none"><g clip-path="url(#a)"><path fill="#6D697D" fill-rule="evenodd" d="M17.51 67.91H0l6.178-9.31L0 48.796h17.51zm86.982 0h17.509l-6.177-9.309 6.177-9.805h-17.509z" clip-rule="evenodd" style="fill:#6d697d;fill:color(display-p3 .4275 .4118 .4902);fill-opacity:1"/><path fill="#5B576B" d="m9.04 62.277 11.634 6.42-4.128-10.457H9.039zm103.81 0-11.635 6.42 4.129-10.457h7.506z" style="fill:#5b576b;fill:color(display-p3 .3569 .3412 .4196);fill-opacity:1"/><path fill="#292733" d="M108.445 25.989v52L61.295 104 14.12 77.989v-52L61.295 0z" style="fill:#292733;fill:color(display-p3 .1608 .1529 .2);fill-opacity:1"/><path fill="url(#b)" d="M105.282 27.467v49.29l-44.156 24.656-44.18-24.657V27.467l44.18-24.656z"/><path fill="#292733" d="M105.282 27.467v49.29l-44.156 24.656-44.18-24.657V27.467l44.18-24.656z" style="fill:#292733;fill:color(display-p3 .1608 .1529 .2);fill-opacity:1"/><path stroke="#4A4658" stroke-miterlimit="10" stroke-width="1.038" d="M105.282 27.467v49.29l-44.156 24.656-44.18-24.657V27.467l44.18-24.656z" style="stroke:#4a4658;stroke:color(display-p3 .2902 .2745 .3451);stroke-opacity:1"/><path fill="#A7A4B5" fill-rule="evenodd" d="M9.04 62.288c0 .062.05.112.112.112h103.7c.062 0 .113-.05.113-.112V43.399a.113.113 0 0 0-.113-.112H9.152a.113.113 0 0 0-.113.112z" clip-rule="evenodd" style="fill:#a7a4b5;fill:color(display-p3 .6549 .6431 .7098);fill-opacity:1"/><path fill="#fff" d="M53.206 23.498h-1.92v10.456h1.92zm6.382 7.288c0 1.636-1.505 1.758-1.937 1.758-1.071 0-1.339-.961-1.339-1.533v-4.028h-1.525v4.028c0 1.002.31 1.84.886 2.412.515.49 1.236.757 2.08.757.66 0 1.196-.204 1.834-.572v.287h1.75v-6.91h-1.75v3.803zm5.313-6.163h-1.924v2.445h-1.073v1.345h1.073v5.542h1.924v-5.542h1.296V27.07H64.9zm6.939 7.313c-.41.345-.921.527-1.453.507-1.23 0-2.15-.873-2.15-2.05s.881-2.01 2.15-2.01c.532 0 1.065.183 1.474.508l.267.224 1.187-1.137-.307-.264a4.1 4.1 0 0 0-2.641-.955c-2.212 0-3.83 1.523-3.83 3.634s1.658 3.674 3.83 3.674a3.97 3.97 0 0 0 2.662-.954l.287-.264-1.209-1.137zm7.84-4.238c-.514-.489-1.253-.754-2.095-.754-.658 0-1.356.203-1.848.57V23.5H73.99v10.456h1.747v-3.628c0-1.63 1.396-1.753 1.827-1.753 1.048 0 1.233.958 1.233 1.53v3.851h1.746v-3.852c-.02-1.018-.266-1.855-.863-2.405" style="fill:#fff;fill-opacity:1"/><path fill="#A7A4B5" d="M70.32 31.706c.718 0 1.3-.553 1.3-1.237s-.582-1.237-1.3-1.237c-.717 0-1.298.553-1.298 1.237s.581 1.237 1.299 1.237" style="fill:#a7a4b5;fill:color(display-p3 .6549 .6431 .7098);fill-opacity:1"/><path fill="#fff" d="M49.169 31.527a3.6 3.6 0 0 1-2.57 1.02c-1.995 0-3.434-1.49-3.434-3.53s1.439-3.549 3.434-3.549c.966 0 1.892.368 2.55 1.02l.267.266 1.193-1.143-.268-.265c-.987-.98-2.344-1.51-3.763-1.51-2.92 0-5.119 2.224-5.119 5.182s2.2 5.162 5.12 5.162c1.418 0 2.775-.531 3.762-1.51l.268-.266-1.173-1.162zM55.784 77v-5.885h2.274v.589h-1.453v1.961h1.126v.582h-1.126V77zm2.249 0 1.25-5.885h.79L61.332 77h-.778l-.268-1.482h-1.2L58.804 77zm1.162-2.07h.98l-.493-2.652zM61.928 77v-5.885h.82v5.297h1.505V77zm2.887 0v-5.885h.821v5.297h1.504V77zm-9.84 13v-.473l1.283-2q.143-.224.261-.416.126-.194.2-.405.08-.218.08-.498 0-.349-.111-.548-.113-.2-.393-.2a.5.5 0 0 0-.367.131.7.7 0 0 0-.18.343 2 2 0 0 0-.05.454v.168h-.667v-.174q0-.454.119-.778.124-.33.392-.51.273-.181.722-.181.61 0 .91.348.298.343.298.953 0 .324-.08.567-.075.242-.2.454a9 9 0 0 1-.274.436L55.76 89.44h1.594V90zm4.331.056q-.43 0-.71-.193a1.17 1.17 0 0 1-.41-.53 2.1 2.1 0 0 1-.131-.765v-2.173q0-.443.13-.773.131-.336.405-.523.28-.186.716-.187.436 0 .71.187.274.188.405.523.13.33.13.773v2.173q0 .435-.136.772a1.13 1.13 0 0 1-.405.53q-.274.186-.704.186m0-.548q.237 0 .355-.137a.7.7 0 0 0 .168-.349q.05-.217.05-.448v-2.186q0-.243-.043-.454a.7.7 0 0 0-.169-.349q-.118-.13-.36-.13-.244 0-.368.13a.7.7 0 0 0-.168.349q-.044.21-.044.454v2.186q0 .23.044.448a.8.8 0 0 0 .174.35.48.48 0 0 0 .361.136m1.86.492v-.473l1.282-2q.144-.224.262-.416a2 2 0 0 0 .2-.405q.08-.218.08-.498 0-.349-.112-.548t-.392-.2a.5.5 0 0 0-.368.131.7.7 0 0 0-.18.343 2 2 0 0 0-.05.454v.168h-.666v-.174q0-.454.118-.778.125-.33.392-.51.275-.181.723-.181.61 0 .909.348.3.343.299.953 0 .324-.081.567-.075.242-.2.454a9 9 0 0 1-.273.436L61.95 89.44h1.594V90zm4.388 0v-1.351H64.09v-.698l1.313-2.995h.785v3.101h.567v.592h-.567V90zm-.822-1.943h.822v-2.291z" style="fill:#fff;fill-opacity:1"/><path fill="#1C1B24" d="M49.258 57.517q-.805 0-1.292-.339-.476-.35-.698-1.006-.213-.656-.212-1.577v-2.869q0-.941.19-1.598.2-.667.7-1.017.507-.348 1.407-.349.804 0 1.291.275.498.265.72.826.223.55.223 1.398v.317h-1.123v-.265q0-.56-.074-.91-.073-.36-.307-.53-.222-.18-.709-.18-.529 0-.773.244-.233.244-.296.667-.053.413-.053.942v3.176q0 .615.085 1.027.095.413.35.614.253.201.719.201t.72-.222q.255-.222.35-.657.094-.434.094-1.08v-.592h-1.09v-.847h2.17v4.245h-.75l-.117-.985a1.8 1.8 0 0 1-.53.784q-.359.306-.994.307m3.622-.106v-8.575h1.196v7.717h2.191v.858zm6.337.095q-.869 0-1.387-.339a1.86 1.86 0 0 1-.741-.963q-.222-.635-.222-1.482v-3.25q0-.846.222-1.45.233-.614.74-.932.52-.328 1.388-.328t1.376.328q.508.33.73.932.233.603.233 1.45v3.26q0 .837-.233 1.462a1.93 1.93 0 0 1-.73.973q-.509.34-1.376.34m0-.942q.476 0 .72-.19a1 1 0 0 0 .328-.551q.084-.36.084-.836V51.23q0-.477-.084-.815a.9.9 0 0 0-.329-.53q-.243-.19-.72-.19-.475 0-.73.19a.9.9 0 0 0-.328.53 3.4 3.4 0 0 0-.085.815v3.758q0 .476.085.836a1 1 0 0 0 .328.55q.255.191.73.191m3.515.847v-8.575H64.7q.582 0 1.005.127.435.128.72.392t.424.678q.137.402.137.952 0 .53-.137.921a1.27 1.27 0 0 1-.403.604 1.36 1.36 0 0 1-.688.285q.519.117.837.403.317.275.465.72.16.434.16 1.047 0 .551-.128 1.006a2 2 0 0 1-.402.773 1.8 1.8 0 0 1-.688.498q-.413.168-.985.169zm1.196-.858h.805q.804 0 1.069-.37.275-.381.275-1.218 0-.54-.148-.9a1 1 0 0 0-.456-.55q-.306-.19-.836-.19h-.709zm0-4.139h.71q.507 0 .793-.137a.82.82 0 0 0 .402-.466q.117-.318.117-.826 0-.592-.18-.857t-.561-.328a5.4 5.4 0 0 0-.995-.075h-.286zm3.879 4.997 1.82-8.575h1.155l1.831 8.575H71.48l-.391-2.16h-1.747l-.413 2.16zm1.694-3.017h1.429l-.72-3.864zm3.982 3.017v-8.575h1.196v7.717h2.192v.858z" style="fill:#1c1b24;fill:color(display-p3 .1098 .1059 .1412);fill-opacity:1"/></g><defs><radialGradient id="b" cx="0" cy="0" r="1" gradientTransform="matrix(-86.4197 98.5995 199.149 172.912 95.066 11.512)" gradientUnits="userSpaceOnUse"><stop stop-color="#17313B" style="stop-color:#17313b;stop-color:color(display-p3 .0902 .1922 .2314);stop-opacity:1"/><stop offset="1" stop-color="#2E5272" style="stop-color:#2e5272;stop-color:color(display-p3 .1804 .3216 .4471);stop-opacity:1"/></radialGradient><clipPath id="a"><path fill="#fff" d="M0 0h122v104H0z" style="fill:#fff;fill-opacity:1"/></clipPath></defs></svg>