<svg xmlns="http://www.w3.org/2000/svg" width="96" height="104" fill="none"><g clip-path="url(#a)"><path fill="#292733" d="M95.74 26.224v51.553l-47.612 25.776L.518 77.777V26.224L48.128.447z" style="fill:#292733;fill:color(display-p3 .1608 .1529 .2);fill-opacity:1"/><path fill="#4A4658" d="m48 104-.182-.099L0 78.013V26l.205-.109L48 0l.182.1L96 26v52.026zM.778 77.54 48 103.105 95.222 77.54V26.46L48 .895.778 26.46z" style="fill:#4a4658;fill:color(display-p3 .2902 .2745 .3451);fill-opacity:1"/><path fill="#4A4658" d="M93.405 27.626v48.748L47.999 100.75 2.594 76.374V27.627L47.999 3.25z" style="fill:#4a4658;fill:color(display-p3 .2902 .2745 .3451);fill-opacity:1"/><path fill="#1C1B24" d="M93.405 37.7H2.594v28.6h90.81z" style="fill:#1c1b24;fill:color(display-p3 .1098 .1059 .1412);fill-opacity:1"/><path fill="#292733" d="M89.033 29.575v44.85L48.168 96.85 7.303 74.426V29.575L48.168 7.15z" style="fill:#292733;fill:color(display-p3 .1608 .1529 .2);fill-opacity:1"/><path fill="#1C1B24" d="M92.107 40.3H3.89v23.4h88.216z" style="fill:#1c1b24;fill:color(display-p3 .1098 .1059 .1412);fill-opacity:1"/><path stroke="#17313B" stroke-miterlimit="10" stroke-width=".089" d="M13.62 66.3h68.758M13.62 37.7h68.758" style="stroke:#17313b;stroke:color(display-p3 .0902 .1922 .2314);stroke-opacity:1"/><path fill="#fff" d="M38.683 45.76h-2.336v12.22h2.336zm7.523 8.58c0 1.903-1.798 2.054-2.301 2.054-1.261 0-1.59-1.113-1.59-1.783v-4.69h-1.817v4.68c0 1.18.371 2.155 1.06 2.803.68.6 1.563.92 2.469.888a4.3 4.3 0 0 0 2.18-.66v.349h2.075v-8.06h-2.076zm6.487-7.28h-2.335v2.86H49.06v1.56h1.297v6.5h2.335v-6.5h1.557v-1.56h-1.557zm8.278 8.679a2.68 2.68 0 0 1-1.74.605c-1.48 0-2.565-1.017-2.565-2.413s1.038-2.369 2.564-2.369c.636-.011 1.256.2 1.754.595l.322.26 1.432-1.341-.359-.301a4.86 4.86 0 0 0-3.162-1.115c-2.654 0-4.582 1.796-4.582 4.264s1.974 4.316 4.582 4.316a4.82 4.82 0 0 0 3.173-1.126l.345-.304-1.453-1.342zm9.402-5.06a3.63 3.63 0 0 0-2.499-.887 3.86 3.86 0 0 0-2.208.66V45.76H63.59v12.22h2.076v-4.238c0-1.903 1.668-2.057 2.172-2.057 1.26 0 1.46 1.115 1.46 1.786v4.509h2.076v-4.498c0-1.18-.3-2.153-1.001-2.803" style="fill:#fff;fill-opacity:1"/><path fill="#A7A4B5" d="M59.149 55.394c.847 0 1.534-.645 1.534-1.44 0-.796-.687-1.441-1.534-1.441s-1.534.645-1.534 1.44c0 .796.687 1.441 1.534 1.441" style="fill:#a7a4b5;fill:color(display-p3 .6549 .6431 .7098);fill-opacity:1"/><path fill="#fff" d="M33.785 55.143a4.37 4.37 0 0 1-3.057 1.201c-2.366 0-4.086-1.742-4.086-4.134s1.72-4.145 4.086-4.145a4.44 4.44 0 0 1 3.046 1.192l.322.304 1.42-1.33-.312-.305a6.4 6.4 0 0 0-4.476-1.753c-3.484 0-6.105 2.6-6.105 6.048s2.631 6.02 6.105 6.02a6.4 6.4 0 0 0 4.489-1.766l.311-.301-1.409-1.352-.334.322m9.305-41.126v-.375h2.617v.375H44.61v3.116h-.423v-3.116zm6.07 1.37q0 .553-.2.955a1.5 1.5 0 0 1-.547.62 1.46 1.46 0 0 1-.794.218q-.447 0-.794-.218a1.5 1.5 0 0 1-.547-.62 2.1 2.1 0 0 1-.2-.955q0-.552.2-.954t.547-.62.794-.219.794.218q.348.22.548.62.2.403.199.955m-.41 0q0-.453-.15-.765a1.1 1.1 0 0 0-.408-.472 1.06 1.06 0 0 0-.573-.16q-.317 0-.574.16t-.408.472-.15.765.15.766.408.472.574.16q.316 0 .573-.16a1.1 1.1 0 0 0 .407-.472 1.74 1.74 0 0 0 .152-.766m1.12 1.746v-3.491h1.18q.411 0 .672.148.262.147.389.397.126.25.126.56 0 .308-.127.56a.94.94 0 0 1-.385.402q-.26.15-.668.149h-.845v-.375h.831a.9.9 0 0 0 .452-.097.58.58 0 0 0 .247-.263.9.9 0 0 0 .079-.377.9.9 0 0 0-.079-.375.56.56 0 0 0-.248-.259.94.94 0 0 0-.457-.095h-.743v3.116zM36.285 25.8h-1.077v-3.49h1.125q.508 0 .87.21.36.207.553.598.193.389.193.93 0 .546-.194.94-.195.39-.566.603-.372.21-.904.21m-.654-.375h.627q.433 0 .717-.167.285-.167.425-.475t.14-.735q0-.422-.138-.728a1 1 0 0 0-.413-.47q-.274-.165-.683-.166h-.675zm3.006.375h-.443l1.282-3.49h.436l1.282 3.49h-.443l-1.043-2.938h-.028zm.164-1.363h1.786v.375h-1.786zm2.937 1.363v-3.49h1.18q.409 0 .67.14a.9.9 0 0 1 .39.38q.125.24.125.55 0 .309-.126.547a.9.9 0 0 1-.387.375q-.261.135-.666.135h-.955v-.382h.941q.28 0 .45-.082a.52.52 0 0 0 .25-.232.8.8 0 0 0 .078-.361.8.8 0 0 0-.079-.366.54.54 0 0 0-.25-.243 1 1 0 0 0-.456-.087h-.743V25.8zm1.643-1.568.859 1.568h-.491l-.846-1.568zm1.427 1.568v-3.49h.423v1.731h.04l1.569-1.732h.552l-1.466 1.575 1.466 1.916h-.511l-1.214-1.622-.436.49V25.8zm5.115 0-.954-3.49h.43l.729 2.843h.034l.743-2.843h.477l.744 2.843h.034l.73-2.843h.429l-.955 3.49h-.436l-.77-2.781h-.028l-.77 2.781zm3.922 0v-3.49h2.107v.375h-1.684v1.18h1.575v.374h-1.575v1.186h1.712v.375zm2.87 0v-3.49h1.22q.364 0 .601.126a.83.83 0 0 1 .353.335q.116.21.116.466a.8.8 0 0 1-.08.371.6.6 0 0 1-.208.232 1 1 0 0 1-.278.126V24a.7.7 0 0 1 .322.113.8.8 0 0 1 .271.293q.11.19.11.467 0 .262-.12.472a.82.82 0 0 1-.377.333q-.257.122-.67.122zm.422-.375h.838q.415 0 .589-.16a.51.51 0 0 0 .175-.392.6.6 0 0 0-.09-.327.65.65 0 0 0-.258-.242.8.8 0 0 0-.395-.092h-.86zm0-1.581h.784a.8.8 0 0 0 .344-.075.6.6 0 0 0 .246-.212.56.56 0 0 0 .092-.32.53.53 0 0 0-.16-.39q-.161-.163-.508-.163h-.798zm-39.033 7.131h.505l1.186 2.898h.041l1.187-2.898h.504v3.491h-.395v-2.652h-.035l-1.09 2.652h-.382l-1.091-2.652H18.5v2.652h-.396zm7.216 1.746q0 .552-.2.954a1.5 1.5 0 0 1-.547.62 1.46 1.46 0 0 1-.794.219q-.446 0-.794-.218a1.5 1.5 0 0 1-.547-.62 2.1 2.1 0 0 1-.2-.955q0-.553.2-.955t.547-.62.794-.218.794.218.548.62q.2.402.2.955m-.409 0q0-.454-.152-.766a1.1 1.1 0 0 0-.407-.472 1.06 1.06 0 0 0-.573-.16q-.317 0-.574.16-.255.16-.408.472-.15.312-.15.766 0 .453.15.765.151.312.408.472t.574.16.573-.16a1.1 1.1 0 0 0 .407-.472q.152-.312.152-.765m3.888-1.746v3.491h-.409l-1.902-2.74h-.034v2.74h-.423v-3.49h.409l1.91 2.747h.033v-2.748zm1.269 0v3.491h-.423v-3.49zm.656.375v-.375h2.619v.375h-1.098v3.116h-.423v-3.116zm6.071 1.37q0 .553-.2.955a1.5 1.5 0 0 1-.547.62 1.46 1.46 0 0 1-.794.219q-.446 0-.794-.218a1.5 1.5 0 0 1-.547-.62 2.1 2.1 0 0 1-.2-.955q0-.553.2-.955t.547-.62.794-.218.794.218.548.62q.2.402.2.955m-.409 0q0-.453-.152-.765a1.1 1.1 0 0 0-.407-.472 1.06 1.06 0 0 0-.573-.16q-.317 0-.574.16-.255.16-.408.472-.15.312-.15.766 0 .453.15.765.152.312.408.472.257.16.574.16.318 0 .573-.16a1.1 1.1 0 0 0 .407-.472q.152-.312.152-.765m1.12 1.746v-3.49h1.18q.408 0 .671.139a.9.9 0 0 1 .389.38q.126.243.126.55 0 .31-.126.548a.9.9 0 0 1-.387.375q-.26.135-.667.134h-.954v-.381h.94q.28 0 .45-.082a.52.52 0 0 0 .25-.232.8.8 0 0 0 .078-.361.8.8 0 0 0-.079-.367.54.54 0 0 0-.25-.242 1 1 0 0 0-.455-.087h-.743v3.116zm1.643-1.568.86 1.568h-.492l-.845-1.568zM41 30.976v3.491h-.423v-3.49zm3.616 0v3.491h-.41l-1.902-2.74h-.034v2.74h-.422v-3.49h.409l1.909 2.747h.034v-2.748zm3.232 1.091a1.2 1.2 0 0 0-.148-.308.95.95 0 0 0-.5-.384 1.1 1.1 0 0 0-.347-.051q-.31 0-.565.16t-.404.472-.15.766.152.765.41.472q.26.16.584.16.3 0 .528-.127a.9.9 0 0 0 .358-.365q.13-.237.13-.558l.13.028h-1.05v-.375h1.329v.375q0 .43-.184.75-.183.318-.505.494a1.5 1.5 0 0 1-.736.174q-.464 0-.815-.218a1.47 1.47 0 0 1-.545-.62 2.2 2.2 0 0 1-.195-.955q0-.414.111-.745.112-.332.317-.566t.484-.358.616-.125q.276 0 .514.084a1.38 1.38 0 0 1 .743.593q.127.208.174.462zm5.34 0h-.423a.88.88 0 0 0-.356-.552 1 1 0 0 0-.292-.143 1.2 1.2 0 0 0-.334-.048q-.316 0-.574.16-.255.16-.407.472-.15.312-.15.766 0 .453.15.765t.407.472.574.16q.175 0 .334-.047a1 1 0 0 0 .292-.142.9.9 0 0 0 .356-.554h.423q-.048.268-.174.48a1.3 1.3 0 0 1-.735.582 1.6 1.6 0 0 1-.496.077q-.446 0-.794-.218a1.5 1.5 0 0 1-.547-.62 2.1 2.1 0 0 1-.2-.955q0-.553.2-.955t.547-.62.794-.218q.265 0 .496.076.234.076.421.225.188.147.314.358.126.21.174.48m3.628.655q0 .552-.199.954a1.5 1.5 0 0 1-.547.62 1.46 1.46 0 0 1-.794.219q-.447 0-.795-.218a1.5 1.5 0 0 1-.547-.62 2.1 2.1 0 0 1-.2-.955q0-.553.2-.955t.547-.62.795-.218.794.218.547.62q.2.402.2.955m-.409 0q0-.454-.151-.766a1.1 1.1 0 0 0-.408-.472 1.06 1.06 0 0 0-.572-.16q-.317 0-.575.16-.255.16-.407.472-.15.312-.15.766 0 .453.15.765.151.312.407.472.258.16.575.16t.572-.16q.258-.16.408-.472a1.74 1.74 0 0 0 .151-.765m1.12-1.746h.505l1.186 2.898h.041l1.186-2.898h.505v3.491h-.395v-2.652h-.035l-1.09 2.652h-.382l-1.091-2.652h-.034v2.652h-.396zm4.27 3.491v-3.49h1.18q.411 0 .672.148.262.146.388.397.126.25.126.559 0 .308-.126.56a.94.94 0 0 1-.385.403q-.261.148-.668.148h-.845v-.375h.831a.9.9 0 0 0 .452-.097.58.58 0 0 0 .247-.262.9.9 0 0 0 .079-.377.9.9 0 0 0-.079-.375.56.56 0 0 0-.249-.26.94.94 0 0 0-.456-.095h-.744v3.116zm2.834 0h-.443l1.282-3.49h.436l1.282 3.49h-.443l-1.043-2.938h-.027zm.164-1.364h1.786v.375h-1.786zm5.705-2.127v3.491h-.409l-1.902-2.74h-.034v2.74h-.423v-3.49h.409l1.91 2.747h.033v-2.748zm.546 0h.484l.968 1.63h.041l.968-1.63h.484l-1.26 2.053v1.438h-.424V33.03zM42.162 74.43v-.307l1.152-1.261q.204-.221.334-.386.132-.165.195-.31a.75.75 0 0 0 .065-.307.57.57 0 0 0-.328-.526.8.8 0 0 0-.34-.074.7.7 0 0 0-.352.084.57.57 0 0 0-.23.23.7.7 0 0 0-.08.348h-.402q0-.307.141-.539a1 1 0 0 1 .386-.361q.245-.13.55-.13.307 0 .544.13a1 1 0 0 1 .371.35q.135.22.135.488 0 .193-.07.377a1.7 1.7 0 0 1-.238.407q-.17.224-.47.546l-.783.839v.027h1.622v.375zm4.045.047a1.04 1.04 0 0 1-.656-.21 1.3 1.3 0 0 1-.414-.611 2.9 2.9 0 0 1-.144-.972q0-.566.144-.966.144-.402.416-.614.272-.213.654-.213t.653.213q.273.212.416.614.145.401.145.966 0 .57-.143.972a1.3 1.3 0 0 1-.415.612q-.271.21-.656.21m0-.374q.382 0 .593-.369.212-.368.212-1.05 0-.454-.098-.772a1.06 1.06 0 0 0-.276-.486.6.6 0 0 0-.431-.167q-.379 0-.591.374-.213.371-.213 1.051 0 .455.095.77.096.318.274.483.18.165.435.166m1.861.327v-.307l1.153-1.261q.202-.221.334-.386.13-.165.194-.31a.75.75 0 0 0 .065-.307.57.57 0 0 0-.327-.526.8.8 0 0 0-.341-.074.7.7 0 0 0-.352.084.57.57 0 0 0-.23.23.7.7 0 0 0-.08.348h-.402q0-.307.142-.539a1 1 0 0 1 .385-.361q.245-.13.55-.13.307 0 .544.13a1 1 0 0 1 .372.35q.135.22.134.488 0 .193-.07.377a1.7 1.7 0 0 1-.238.407 7 7 0 0 1-.469.546l-.784.839v.027h1.623v.375zm3.998.047q-.3 0-.54-.119a1 1 0 0 1-.386-.327.9.9 0 0 1-.159-.474h.41a.56.56 0 0 0 .214.392.72.72 0 0 0 .46.154q.216 0 .382-.101a.7.7 0 0 0 .265-.276.8.8 0 0 0 .097-.4.8.8 0 0 0-.1-.408.74.74 0 0 0-.67-.39 1.1 1.1 0 0 0-.33.049.9.9 0 0 0-.278.128l-.395-.048.211-1.718h1.814v.375h-1.46l-.122 1.03h.02a1.02 1.02 0 0 1 .607-.198 1.07 1.07 0 0 1 .967.569q.145.264.145.603 0 .334-.15.597a1.1 1.1 0 0 1-.41.412q-.26.15-.592.15" style="fill:#fff;fill-opacity:1"/></g><defs><clipPath id="a"><path fill="#fff" d="M0 0h96v104H0z" style="fill:#fff;fill-opacity:1"/></clipPath></defs></svg>