<svg width="180" height="56" viewBox="0 0 180 56" fill="none" xmlns="http://www.w3.org/2000/svg">
<path d="M71.1188 20.9175C71.1188 21.9716 71.2339 22.8263 71.4354 23.4531C71.6656 24.0799 71.9535 24.7636 72.3564 25.5044C72.5003 25.7323 72.5579 25.9602 72.5579 26.1596C72.5579 26.4445 72.3852 26.7294 72.011 27.0143L70.1977 28.2109C69.9387 28.3819 69.6796 28.4673 69.4493 28.4673C69.1615 28.4673 68.8737 28.3249 68.5859 28.0685C68.1829 27.6411 67.8375 27.1853 67.5497 26.7294C67.2618 26.2451 66.974 25.7038 66.6574 25.0485C64.4123 27.6696 61.5916 28.9801 58.1952 28.9801C55.7775 28.9801 53.849 28.2964 52.4387 26.9289C51.0283 25.5613 50.3087 23.738 50.3087 21.4588C50.3087 19.0371 51.1722 17.0713 52.928 15.5898C54.6837 14.1083 57.0151 13.3676 59.9798 13.3676C60.9584 13.3676 61.9658 13.4531 63.0308 13.5955C64.0957 13.738 65.1895 13.9659 66.3408 14.2223V12.1425C66.3408 9.97729 65.8803 8.46732 64.988 7.58413C64.0669 6.70094 62.5127 6.27359 60.2964 6.27359C59.289 6.27359 58.2528 6.38755 57.1878 6.64396C56.1229 6.90037 55.0867 7.21376 54.0793 7.61262C53.6187 7.81205 53.2734 7.92601 53.0719 7.98299C52.8704 8.03997 52.7265 8.06846 52.6113 8.06846C52.2084 8.06846 52.0069 7.78356 52.0069 7.18527V5.78926C52.0069 5.33342 52.0645 4.99154 52.2084 4.79211C52.3523 4.59268 52.6113 4.39325 53.0143 4.19382C54.0217 3.681 55.2306 3.25365 56.641 2.91177C58.0513 2.5414 59.548 2.37046 61.1311 2.37046C64.5563 2.37046 67.0604 3.13969 68.6722 4.67815C70.2553 6.21661 71.0612 8.55279 71.0612 11.6867V20.9175H71.1188ZM59.4329 25.248C60.3827 25.248 61.3614 25.077 62.3975 24.7351C63.4337 24.3933 64.3548 23.7665 65.1319 22.9118C65.5924 22.3705 65.9378 21.7722 66.1105 21.0884C66.2832 20.4046 66.3984 19.5784 66.3984 18.6098V17.4132C65.5637 17.2138 64.6714 17.0428 63.7503 16.9289C62.8293 16.8149 61.937 16.7579 61.0447 16.7579C59.1163 16.7579 57.7059 17.1283 56.7561 17.8975C55.8063 18.6668 55.3457 19.7494 55.3457 21.1739C55.3457 22.5129 55.6911 23.5101 56.4107 24.1938C57.1015 24.9061 58.1089 25.248 59.4329 25.248ZM82.5456 28.3249C82.0275 28.3249 81.6821 28.2394 81.4518 28.04C81.2216 27.869 81.0201 27.4702 80.8474 26.9289L74.0834 4.90607C73.9107 4.33627 73.8244 3.9659 73.8244 3.76647C73.8244 3.31063 74.0546 3.05422 74.5151 3.05422H77.3359C77.8827 3.05422 78.2569 3.13969 78.4584 3.33912C78.6887 3.51006 78.8614 3.90892 79.0341 4.45023L83.8696 23.3106L88.3597 4.45023C88.5036 3.88043 88.6763 3.51006 88.9066 3.33912C89.1369 3.16818 89.5398 3.05422 90.0579 3.05422H92.3605C92.9074 3.05422 93.2816 3.13969 93.5119 3.33912C93.7421 3.51006 93.9436 3.90892 94.0587 4.45023L98.6064 23.5385L103.586 4.45023C103.759 3.88043 103.96 3.51006 104.162 3.33912C104.392 3.16818 104.766 3.05422 105.284 3.05422H107.961C108.421 3.05422 108.68 3.28214 108.68 3.76647C108.68 3.90892 108.652 4.05137 108.623 4.22231C108.594 4.39325 108.537 4.62117 108.421 4.93456L101.485 26.9574C101.312 27.5272 101.111 27.8975 100.88 28.0685C100.65 28.2394 100.276 28.3534 99.7865 28.3534H97.3112C96.7643 28.3534 96.3901 28.2679 96.1599 28.0685C95.9296 27.869 95.7281 27.4987 95.613 26.9289L91.1517 8.55279L86.7191 26.9004C86.5752 27.4702 86.4025 27.8405 86.1722 28.04C85.942 28.2394 85.539 28.3249 85.0209 28.3249H82.5456ZM119.532 29.0941C118.035 29.0941 116.538 28.9232 115.099 28.5813C113.66 28.2394 112.537 27.869 111.789 27.4417C111.328 27.1853 111.012 26.9004 110.897 26.644C110.782 26.3876 110.724 26.1027 110.724 25.8462V24.3932C110.724 23.795 110.954 23.5101 111.386 23.5101C111.559 23.5101 111.731 23.5386 111.904 23.5955C112.077 23.6525 112.336 23.7665 112.624 23.8804C113.602 24.3078 114.667 24.6497 115.79 24.8776C116.941 25.1055 118.064 25.2195 119.215 25.2195C121.028 25.2195 122.439 24.9061 123.417 24.2793C124.396 23.6525 124.914 22.7408 124.914 21.5727C124.914 20.775 124.655 20.1197 124.137 19.5784C123.619 19.0371 122.64 18.5528 121.23 18.097L117.056 16.8149C114.955 16.1596 113.401 15.191 112.451 13.9089C111.501 12.6554 111.012 11.2593 111.012 9.77786C111.012 8.58128 111.271 7.52715 111.789 6.61547C112.307 5.70379 112.998 4.90607 113.861 4.27929C114.725 3.62402 115.703 3.13969 116.855 2.79781C118.006 2.45593 119.215 2.31348 120.481 2.31348C121.115 2.31348 121.777 2.34197 122.41 2.42744C123.072 2.51291 123.676 2.62687 124.281 2.74083C124.856 2.88328 125.403 3.02573 125.921 3.19667C126.439 3.36761 126.842 3.53855 127.13 3.70949C127.533 3.93741 127.821 4.16533 127.994 4.42174C128.166 4.64966 128.253 4.96305 128.253 5.36191V6.70094C128.253 7.29923 128.023 7.61262 127.591 7.61262C127.361 7.61262 126.986 7.49866 126.497 7.27074C124.856 6.53 123.014 6.15963 120.971 6.15963C119.33 6.15963 118.035 6.41604 117.143 6.95735C116.25 7.49866 115.79 8.32487 115.79 9.49296C115.79 10.2907 116.078 10.9744 116.653 11.5158C117.229 12.0571 118.294 12.5984 119.819 13.0827L123.907 14.3648C125.979 15.02 127.476 15.9317 128.368 17.0998C129.26 18.2679 129.692 19.6069 129.692 21.0884C129.692 22.3135 129.433 23.4246 128.944 24.3932C128.426 25.3619 127.735 26.2166 126.842 26.9004C125.95 27.6126 124.885 28.1254 123.648 28.4958C122.352 28.8947 121 29.0941 119.532 29.0941Z" fill="#A7A4B5" style="fill:#A7A4B5;fill:color(display-p3 0.6549 0.6431 0.7098);fill-opacity:1;"/>
<path fill-rule="evenodd" clip-rule="evenodd" d="M124.972 42.9402C115.502 49.8632 101.744 53.5384 89.914 53.5384C73.3351 53.5384 58.3968 47.4701 47.1139 37.3846C46.2216 36.5869 47.0275 35.5043 48.0925 36.131C60.2964 43.1396 75.3499 47.3846 90.9214 47.3846C101.427 47.3846 112.969 45.2194 123.59 40.7749C125.173 40.0627 126.526 41.8006 124.972 42.9402Z" fill="#A7A4B5" style="fill:#A7A4B5;fill:color(display-p3 0.6549 0.6431 0.7098);fill-opacity:1;"/>
<path fill-rule="evenodd" clip-rule="evenodd" d="M128.915 38.4958C127.706 36.9573 120.913 37.755 117.834 38.1254C116.913 38.2393 116.769 37.4416 117.603 36.8433C123.015 33.0827 131.909 34.1653 132.945 35.4188C133.981 36.7009 132.657 45.5043 127.591 49.7208C126.814 50.3761 126.066 50.0342 126.411 49.1795C127.562 46.359 130.124 40.0057 128.915 38.4958Z" fill="#A7A4B5" style="fill:#A7A4B5;fill:color(display-p3 0.6549 0.6431 0.7098);fill-opacity:1;"/>
</svg>
