<svg width="180" height="56" viewBox="0 0 180 56" fill="none" xmlns="http://www.w3.org/2000/svg">
<path d="M89.3461 35.8806C89.2244 35.8474 87.3531 35.3647 85.3644 35.3647C81.5993 35.3647 79.3324 37.3978 79.3324 40.4255C79.3324 43.1055 81.2288 44.442 83.5047 45.161C83.757 45.2442 84.1288 45.3607 84.3763 45.4426C85.3894 45.7613 86.1981 46.2349 86.1981 47.0552C86.1981 47.9725 85.2635 48.5664 83.2317 48.5664C81.4462 48.5664 79.7344 48.0558 79.3739 47.9648V51.6898C79.5748 51.7325 81.6092 52.1319 83.7825 52.1319C86.9084 52.1319 90.4842 50.766 90.4842 46.6998C90.4842 44.7275 89.2766 42.9118 86.6255 42.0691L85.4985 41.7103C84.8262 41.4981 83.6259 41.1543 83.6259 40.1688C83.6259 39.3904 84.5152 38.8422 86.1528 38.8422C87.5657 38.8422 89.2852 39.3171 89.3461 39.336V35.8806ZM123.867 43.7485C123.867 46.1038 122.063 48.0092 119.642 48.0092C117.218 48.0092 115.419 46.1038 115.419 43.7485C115.419 41.398 117.218 39.4917 119.642 39.4917C122.063 39.4917 123.867 41.398 123.867 43.7485ZM119.642 35.3699C114.663 35.3699 111.092 39.1251 111.092 43.7485C111.092 48.3793 114.663 52.1319 119.642 52.1319C124.62 52.1319 128.196 48.3793 128.196 43.7485C128.196 39.1251 124.62 35.3699 119.642 35.3699ZM73.8547 51.8438H69.7695V35.6567H73.8547" fill="#A7A4B5" style="fill:#A7A4B5;fill:color(display-p3 0.6549 0.6431 0.7098);fill-opacity:1;"/>
<path d="M64.1533 35.9497C63.7695 35.8359 62.3505 35.3696 60.4287 35.3696C55.4577 35.3696 51.8086 38.9139 51.8086 43.7482C51.8086 48.9638 55.8368 52.1316 60.4287 52.1316C62.2531 52.1316 63.6457 51.6994 64.1533 51.5554V47.2102C63.9778 47.3076 62.6425 48.0693 60.7216 48.0693C58.0001 48.0693 56.2448 46.154 56.2448 43.7482C56.2448 41.2692 58.076 39.4306 60.7216 39.4306C62.6753 39.4306 63.989 40.2091 64.1533 40.2949" fill="#A7A4B5" style="fill:#A7A4B5;fill:color(display-p3 0.6549 0.6431 0.7098);fill-opacity:1;"/>
<path d="M106.79 35.9497C106.406 35.8359 104.987 35.3696 103.065 35.3696C98.0944 35.3696 94.4453 38.9139 94.4453 43.7482C94.4453 48.9638 98.4735 52.1316 103.065 52.1316C104.89 52.1316 106.282 51.6994 106.79 51.5554V47.2102C106.614 47.3076 105.279 48.0693 103.358 48.0693C100.637 48.0693 98.8815 46.154 98.8815 43.7482C98.8815 41.2692 100.713 39.4306 103.358 39.4306C105.312 39.4306 106.626 40.2091 106.79 40.2949" fill="#A7A4B5" style="fill:#A7A4B5;fill:color(display-p3 0.6549 0.6431 0.7098);fill-opacity:1;"/>
<path d="M69.7567 5.05232C69.7567 3.93658 68.8454 3.03174 67.7283 3.03174C66.6117 3.03174 65.7004 3.93658 65.7004 5.05232V26.5476C65.7004 27.6698 66.6117 28.5743 67.7283 28.5743C68.8454 28.5743 69.7567 27.6698 69.7567 26.5476V5.05232ZM58.617 12.6826C58.617 11.5673 57.7061 10.6612 56.5891 10.6612C55.472 10.6612 54.5611 11.5673 54.5611 12.6826V22.5095C54.5611 23.6313 55.472 24.5361 56.5891 24.5361C57.7061 24.5361 58.617 23.6313 58.617 22.5095V12.6826ZM47.4777 18.26C47.4777 17.1443 46.5668 16.2399 45.4498 16.2399C44.334 16.2399 43.4219 17.1443 43.4219 18.26V22.5095C43.4219 23.6313 44.334 24.5361 45.4498 24.5361C46.5668 24.5361 47.4777 23.6313 47.4777 22.5095" fill="#A7A4B5" style="fill:#A7A4B5;fill:color(display-p3 0.6549 0.6431 0.7098);fill-opacity:1;"/>
<path d="M65.7004 5.05232C65.7004 3.93658 66.6117 3.03174 67.7288 3.03174C68.8454 3.03174 69.7567 3.93658 69.7567 5.05232V26.5476C69.7567 27.6698 68.8454 28.5743 67.7288 28.5743C66.6117 28.5743 65.7004 27.6698 65.7004 26.5476V5.05232ZM76.8401 12.6826C76.8401 11.5673 77.751 10.6612 78.868 10.6612C79.9851 10.6612 80.896 11.5673 80.896 12.6826V22.5095C80.896 23.6313 79.9851 24.5361 78.868 24.5361C77.751 24.5361 76.8401 23.6313 76.8401 22.5095V12.6826ZM87.9794 18.26C87.9794 17.1443 88.8903 16.2399 90.0073 16.2399C91.123 16.2399 92.0352 17.1443 92.0352 18.26V22.5095C92.0352 23.6313 91.123 24.5361 90.0073 24.5361C88.8903 24.5361 87.9794 23.6313 87.9794 22.5095" fill="#A7A4B5" style="fill:#A7A4B5;fill:color(display-p3 0.6549 0.6431 0.7098);fill-opacity:1;"/>
<path d="M110.245 5.05232C110.245 3.93658 111.157 3.03174 112.274 3.03174C113.39 3.03174 114.302 3.93658 114.302 5.05232V26.5476C114.302 27.6698 113.39 28.5743 112.274 28.5743C111.157 28.5743 110.245 27.6698 110.245 26.5476V5.05232ZM121.385 12.6826C121.385 11.5673 122.296 10.6612 123.413 10.6612C124.53 10.6612 125.441 11.5673 125.441 12.6826V22.5095C125.441 23.6313 124.53 24.5361 123.413 24.5361C122.296 24.5361 121.385 23.6313 121.385 22.5095V12.6826ZM132.524 18.26C132.524 17.1443 133.435 16.2399 134.552 16.2399C135.668 16.2399 136.58 17.1443 136.58 18.26V22.5095C136.58 23.6313 135.668 24.5361 134.552 24.5361C133.435 24.5361 132.524 23.6313 132.524 22.5095" fill="#A7A4B5" style="fill:#A7A4B5;fill:color(display-p3 0.6549 0.6431 0.7098);fill-opacity:1;"/>
<path d="M114.302 5.05232C114.302 3.93658 113.39 3.03174 112.273 3.03174C111.157 3.03174 110.245 3.93658 110.245 5.05232V26.5476C110.245 27.6698 111.157 28.5743 112.273 28.5743C113.39 28.5743 114.302 27.6698 114.302 26.5476V5.05232ZM103.162 12.6826C103.162 11.5673 102.251 10.6612 101.134 10.6612C100.017 10.6612 99.106 11.5673 99.106 12.6826V22.5095C99.106 23.6313 100.017 24.5361 101.134 24.5361C102.251 24.5361 103.162 23.6313 103.162 22.5095V12.6826ZM92.0226 18.26C92.0226 17.1443 91.1117 16.2399 89.9946 16.2399C88.8789 16.2399 87.9667 17.1443 87.9667 18.26V22.5095C87.9667 23.6313 88.8789 24.5361 89.9946 24.5361C91.1117 24.5361 92.0226 23.6313 92.0226 22.5095" fill="#A7A4B5" style="fill:#A7A4B5;fill:color(display-p3 0.6549 0.6431 0.7098);fill-opacity:1;"/>
</svg>
