<svg width="180" height="56" viewBox="0 0 180 56" fill="none" xmlns="http://www.w3.org/2000/svg">
<path d="M131.741 32.2814C131.942 31.7744 132.012 31.229 131.947 30.6907C131.882 30.1524 131.684 29.6367 131.367 29.1867C131.043 28.8148 130.645 28.5078 130.196 28.2832C129.747 28.0585 129.256 27.9206 128.751 27.8774L107.069 27.6393C106.945 27.6393 106.82 27.5203 106.696 27.5203C106.667 27.4995 106.643 27.4726 106.627 27.4416C106.611 27.4106 106.602 27.3764 106.602 27.3418C106.602 27.3071 106.611 27.273 106.627 27.242C106.643 27.211 106.667 27.184 106.696 27.1632C106.82 26.9252 106.945 26.8062 107.194 26.8062L129 26.5681C130.384 26.4213 131.703 25.925 132.82 25.13C133.937 24.3351 134.812 23.2703 135.355 22.0451L136.601 18.9504C136.601 18.8314 136.725 18.7124 136.601 18.5933C135.923 15.711 134.28 13.1187 131.919 11.2104C129.558 9.30204 126.61 8.18195 123.522 8.02033C120.434 7.8587 117.375 8.66438 114.811 10.3149C112.246 11.9655 110.315 14.3707 109.312 17.165C108.01 16.2767 106.422 15.8552 104.826 15.9748C103.362 16.1307 101.997 16.7577 100.956 17.7527C99.9142 18.7477 99.2578 20.0515 99.0946 21.45C99.0116 22.1658 99.0537 22.8898 99.2192 23.5924C96.8504 23.655 94.6006 24.5979 92.9484 26.2206C91.2961 27.8433 90.3719 30.0177 90.3722 32.2814C90.3518 32.7212 90.3937 33.1616 90.4968 33.5906C90.5025 33.6836 90.5438 33.7712 90.6127 33.8371C90.6816 33.9029 90.7734 33.9423 90.8706 33.9477H130.869C131.118 33.9477 131.367 33.8287 131.367 33.5906L131.741 32.2814Z" fill="#A7A4B5" style="fill:#A7A4B5;fill:color(display-p3 0.6549 0.6431 0.7098);fill-opacity:1;"/>
<path d="M138.595 18.9502H137.972C137.848 18.9502 137.723 19.0692 137.598 19.1882L136.726 22.0449C136.526 22.5518 136.455 23.0972 136.52 23.6355C136.585 24.1739 136.784 24.6895 137.1 25.1396C137.425 25.5114 137.823 25.8184 138.272 26.0431C138.721 26.2677 139.212 26.4056 139.717 26.4488L144.327 26.6869C144.452 26.6869 144.576 26.8059 144.701 26.8059C144.73 26.8267 144.753 26.8537 144.77 26.8847C144.786 26.9156 144.794 26.9498 144.794 26.9845C144.794 27.0191 144.786 27.0533 144.77 27.0843C144.753 27.1153 144.73 27.1422 144.701 27.163C144.576 27.4011 144.452 27.5201 144.202 27.5201L139.467 27.7581C138.083 27.9049 136.765 28.4013 135.648 29.1962C134.531 29.9912 133.656 31.056 133.113 32.2811L132.863 33.3524C132.739 33.4714 132.863 33.7094 133.113 33.7094H149.56C149.611 33.7164 149.663 33.7119 149.712 33.6964C149.76 33.6809 149.805 33.6548 149.841 33.6202C149.877 33.5855 149.904 33.5433 149.921 33.4968C149.937 33.4503 149.942 33.4009 149.934 33.3524C150.231 32.3439 150.398 31.3047 150.433 30.2577C150.413 27.2646 149.159 24.3994 146.944 22.2829C144.728 20.1664 141.729 18.9691 138.595 18.9502Z" fill="#A7A4B5" style="fill:#A7A4B5;fill:color(display-p3 0.6549 0.6431 0.7098);fill-opacity:1;"/>
<path d="M152.053 40.3753C151.831 40.3753 151.614 40.3125 151.43 40.1948C151.245 40.0771 151.102 39.9098 151.017 39.714C150.932 39.5183 150.91 39.3029 150.953 39.0951C150.996 38.8873 151.103 38.6964 151.26 38.5466C151.417 38.3968 151.617 38.2947 151.834 38.2534C152.052 38.2121 152.277 38.2333 152.482 38.3144C152.687 38.3955 152.862 38.5328 152.985 38.7089C153.109 38.8851 153.174 39.0922 153.174 39.3041C153.175 39.4449 153.146 39.5845 153.09 39.7147C153.034 39.8449 152.951 39.9633 152.847 40.0629C152.743 40.1624 152.619 40.2413 152.483 40.295C152.346 40.3486 152.2 40.3759 152.053 40.3753ZM152.053 38.4709C151.88 38.4709 151.712 38.5197 151.568 38.6113C151.425 38.7029 151.313 38.833 151.247 38.9852C151.181 39.1375 151.164 39.305 151.197 39.4666C151.231 39.6282 151.314 39.7767 151.436 39.8932C151.558 40.0097 151.713 40.0891 151.883 40.1212C152.052 40.1534 152.227 40.1369 152.387 40.0738C152.546 40.0108 152.682 39.904 152.778 39.767C152.874 39.6299 152.925 39.4689 152.925 39.3041C152.928 39.1939 152.907 39.0844 152.864 38.9821C152.822 38.8798 152.757 38.7868 152.676 38.7089C152.594 38.631 152.497 38.5698 152.39 38.5288C152.283 38.4879 152.168 38.4682 152.053 38.4709ZM152.551 39.8992H152.302L152.053 39.5421H151.804V39.8992H151.554V38.828H152.177C152.228 38.821 152.28 38.8255 152.329 38.841C152.377 38.8565 152.422 38.8826 152.458 38.9172C152.494 38.9519 152.521 38.9941 152.538 39.0406C152.554 39.0871 152.559 39.1365 152.551 39.185C152.551 39.3041 152.427 39.4231 152.302 39.5421L152.551 39.8992ZM152.177 39.3041C152.302 39.3041 152.302 39.3041 152.302 39.185C152.302 39.1693 152.299 39.1537 152.293 39.1391C152.287 39.1245 152.278 39.1113 152.266 39.1001C152.255 39.089 152.241 39.0803 152.226 39.0744C152.21 39.0685 152.194 39.0657 152.177 39.066H151.804V39.4231H152.177V39.3041ZM40.4063 38.2328H43.1476V45.3744H47.8826V47.6359H40.4063V38.2328ZM50.7486 42.8748C50.7486 42.2137 50.8891 41.5594 51.1616 40.9517C51.4341 40.3439 51.8329 39.7953 52.3338 39.3391C52.8347 38.8828 53.4274 38.5284 54.0759 38.2974C54.7244 38.0663 55.4152 37.9634 56.1066 37.9948C56.7915 37.9653 57.4755 38.0705 58.1161 38.3037C58.7568 38.537 59.3404 38.8934 59.8311 39.3509C60.3217 39.8083 60.7087 40.3572 60.9683 40.9633C61.2278 41.5695 61.3544 42.2201 61.34 42.8748C61.34 43.536 61.1995 44.1903 60.927 44.798C60.6545 45.4058 60.2557 45.9544 59.7548 46.4107C59.2538 46.8669 58.6612 47.2213 58.0127 47.4523C57.3642 47.6834 56.6734 47.7863 55.982 47.7549C55.2997 47.7743 54.6204 47.6622 53.9845 47.4253C53.3485 47.1884 52.7691 46.8316 52.2807 46.3762C51.7922 45.9208 51.4049 45.376 51.1416 44.7744C50.8784 44.1729 50.7447 43.5268 50.7486 42.8748ZM58.5987 42.8748C58.6231 42.5449 58.5773 42.2136 58.4639 41.9011C58.3505 41.5885 58.1719 41.3012 57.939 41.0564C57.706 40.8117 57.4235 40.6146 57.1086 40.477C56.7936 40.3395 56.4528 40.2644 56.1066 40.2563C55.4347 40.2876 54.8011 40.5646 54.3372 41.0299C53.8733 41.4953 53.6145 42.1132 53.6145 42.7558C53.6145 43.3984 53.8733 44.0164 54.3372 44.4817C54.8011 44.947 55.4347 45.224 56.1066 45.2554C57.6019 45.4934 58.5987 44.3032 58.5987 42.8748ZM64.7044 43.47V38.2328H67.4457V43.47C67.4457 44.7793 68.1933 45.4934 69.3148 45.4934C69.5767 45.5142 69.8401 45.4782 70.0854 45.388C70.3307 45.2979 70.5515 45.1559 70.7312 44.9728C70.911 44.7896 71.045 44.57 71.1234 44.3304C71.2018 44.0908 71.2225 43.8373 71.1839 43.589V38.2328H73.9252V43.47C73.9252 46.5647 72.0561 47.8739 69.3148 47.8739C66.4489 47.7549 64.7044 46.4456 64.7044 43.47ZM78.0372 38.2328H81.8999C85.3889 38.2328 87.5072 40.1372 87.5072 42.8748C87.5072 45.6125 85.3889 47.6359 81.8999 47.6359H78.1618V38.2328H78.0372ZM81.8999 45.2554C82.2472 45.287 82.5975 45.249 82.9285 45.1438C83.2594 45.0386 83.5637 44.8684 83.8218 44.6443C84.0799 44.4202 84.2861 44.147 84.4272 43.8423C84.5683 43.5376 84.6412 43.208 84.6412 42.8748C84.6412 42.5417 84.5683 42.2121 84.4272 41.9074C84.2861 41.6027 84.0799 41.3295 83.8218 41.1054C83.5637 40.8813 83.2594 40.7111 82.9285 40.6059C82.5975 40.5007 82.2472 40.4627 81.8999 40.4943H80.7785V45.2554H81.8999ZM91.37 38.2328H99.2201V40.4943H94.1113V42.0417H98.7217V44.1841H94.1113V47.6359H91.37V38.2328ZM103.083 38.2328H105.824V45.3744H110.559V47.6359H103.083V38.2328ZM117.662 38.1138H120.403L124.64 47.6359H121.649L120.901 45.9695H117.039L116.291 47.6359H113.425L117.662 38.1138ZM120.154 43.9461L119.032 41.3275L117.911 43.9461H120.154ZM128.129 38.2328H132.739C133.327 38.1872 133.919 38.2589 134.477 38.4433C135.034 38.6277 135.546 38.9208 135.979 39.3041C136.336 39.6718 136.595 40.1162 136.734 40.5997C136.873 41.0833 136.888 41.5917 136.778 42.0821C136.668 42.5725 136.436 43.0303 136.102 43.4169C135.768 43.8035 135.341 44.1075 134.857 44.3032L137.225 47.6359H134.11L132.116 44.7793H130.87V47.6359H128.129V38.2328ZM132.614 42.7558C133.487 42.7558 134.11 42.2797 134.11 41.6846C134.11 40.9704 133.487 40.6134 132.614 40.6134H130.87V42.8748H132.614V42.7558ZM140.714 38.2328H148.688V40.3753H143.455V41.8036H148.19V43.9461H143.455V45.3744H148.813V47.6359H140.714V38.2328ZM34.4252 44.0651C34.2373 44.4858 33.925 44.8449 33.5267 45.0986C33.1283 45.3523 32.6611 45.4895 32.1823 45.4934C31.5104 45.4621 30.8769 45.1851 30.4129 44.7198C29.949 44.2544 29.6902 43.6365 29.6902 42.9939C29.6902 42.3513 29.949 41.7333 30.4129 41.268C30.8769 40.8027 31.5104 40.5257 32.1823 40.4943C32.6919 40.5037 33.1875 40.6551 33.6082 40.93C34.0288 41.205 34.3561 41.5914 34.5498 42.0417H37.4158C37.1706 40.9015 36.5103 39.8813 35.5522 39.1621C34.594 38.443 33.4001 38.0716 32.1823 38.1138C31.4935 38.0924 30.8072 38.2023 30.1633 38.437C29.5195 38.6717 28.931 39.0265 28.4322 39.4808C27.9334 39.935 27.5344 40.4797 27.2583 41.0828C26.9822 41.686 26.8347 42.3357 26.8243 42.9939C26.8205 43.6459 26.9541 44.2919 27.2174 44.8935C27.4806 45.495 27.868 46.0398 28.3564 46.4952C28.8448 46.9507 29.4243 47.3075 30.0602 47.5443C30.6961 47.7812 31.3755 47.8933 32.0577 47.8739C33.2483 47.8816 34.4079 47.5119 35.3549 46.8226C36.3019 46.1334 36.9829 45.1636 37.2912 44.0651H34.4252Z" fill="#A7A4B5" style="fill:#A7A4B5;fill:color(display-p3 0.6549 0.6431 0.7098);fill-opacity:1;"/>
</svg>
