<svg width="180" height="56" viewBox="0 0 180 56" fill="none" xmlns="http://www.w3.org/2000/svg">
<path fill-rule="evenodd" clip-rule="evenodd" d="M33.3485 31.3411V31.0463L30.8511 28.8966H30.5601C29.8733 29.6554 28.8129 30.224 27.6266 30.224C25.7747 30.224 24.3176 28.812 24.3176 26.8737C24.3176 24.9353 25.7747 23.5233 27.6266 23.5233C28.8129 23.5233 29.8733 24.092 30.5601 24.8508H30.8511L33.3485 22.7011V22.4062C32.0374 20.805 29.978 19.7725 27.6468 19.7725C23.3609 19.7725 20.1152 22.8068 20.1152 26.8737C20.1152 27.0312 20.1508 27.1763 20.1613 27.3309C21.9153 28.5239 23.4637 29.4787 24.7969 30.3527C26.7189 31.5688 28.2702 32.6878 29.5477 33.7281C31.1402 33.3256 32.4312 32.4525 33.3485 31.3411ZM21.678 31.2653C22.6789 32.4947 24.0918 33.3765 25.7584 33.753C24.6326 33.12 23.5424 32.4986 22.5271 31.8108C22.2294 31.6264 21.9643 31.4478 21.678 31.2653Z" fill="#A7A4B5" style="fill:#A7A4B5;fill:color(display-p3 0.6549 0.6431 0.7098);fill-opacity:1;"/>
<path fill-rule="evenodd" clip-rule="evenodd" d="M47.8036 33.0699L47.1793 30.3728L46.9506 30.2248C46.8258 30.2882 46.722 30.3728 46.4099 30.3728C45.9306 30.3728 45.6395 29.8666 45.3898 29.467C44.9739 28.834 44.6406 28.4968 44.3495 28.3499C45.8681 27.6756 46.8882 26.4115 46.8882 24.599C46.8882 21.7961 44.9739 20.0259 41.4161 20.0259H35.2148V33.7231H39.3346V28.9185H39.7092C40.6246 28.9185 41.7907 30.8991 42.3314 31.7847C43.4553 33.5761 44.3495 33.9757 45.9517 33.9757C46.7009 33.9757 47.3253 33.702 47.6999 33.3648L47.8036 33.0699ZM42.6849 24.8305C42.6849 25.7372 42.0193 26.1791 41.2489 26.1791H39.3346V23.3974H41.2489C42.0193 23.3974 42.6849 23.9036 42.6849 24.8305Z" fill="#A7A4B5" style="fill:#A7A4B5;fill:color(display-p3 0.6549 0.6431 0.7098);fill-opacity:1;"/>
<path fill-rule="evenodd" clip-rule="evenodd" d="M63.7216 26.8786C63.7216 22.8117 60.4759 19.7773 56.1689 19.7773C51.8609 19.7773 48.6152 22.8117 48.6152 26.8786C48.6152 30.9455 51.8609 33.9798 56.1689 33.9798C60.4759 33.9798 63.7216 30.9243 63.7216 26.8786ZM59.5183 26.8786C59.5183 28.8381 58.0198 30.2289 56.1689 30.2289C54.317 30.2289 52.8185 28.8381 52.8185 26.8786C52.8185 24.9191 54.317 23.5282 56.1689 23.5282C58.0198 23.5282 59.5183 24.9191 59.5183 26.8786Z" fill="#A7A4B5" style="fill:#A7A4B5;fill:color(display-p3 0.6549 0.6431 0.7098);fill-opacity:1;"/>
<path fill-rule="evenodd" clip-rule="evenodd" d="M72.9026 20.0298L70.338 27.569L67.9078 20.0298H63.9696L63.7871 20.3458L68.8203 33.726H71.3177L74.1513 26.2627L76.9945 33.726H79.4918L84.5347 20.3458L84.3425 20.0298H80.414L77.9742 27.617L75.4 20.0298H72.9026Z" fill="#A7A4B5" style="fill:#A7A4B5;fill:color(display-p3 0.6549 0.6431 0.7098);fill-opacity:1;"/>
<path fill-rule="evenodd" clip-rule="evenodd" d="M99.6153 26.8582C99.6153 22.7702 96.8893 20.0308 92.4573 20.0308H86.1524V33.728H92.4573C96.8893 33.728 99.6153 30.9885 99.6153 26.8582ZM95.412 26.8794C95.412 29.1126 94.1008 30.3565 92.2912 30.3565H90.2721V23.4022H92.2912C94.1008 23.4022 95.412 24.6461 95.412 26.8794Z" fill="#A7A4B5" style="fill:#A7A4B5;fill:color(display-p3 0.6549 0.6431 0.7098);fill-opacity:1;"/>
<path fill-rule="evenodd" clip-rule="evenodd" d="M113.246 23.4013H117.28V33.726H121.411V23.4013H125.541V20.0298H113.246V23.4013Z" fill="#A7A4B5" style="fill:#A7A4B5;fill:color(display-p3 0.6549 0.6431 0.7098);fill-opacity:1;"/>
<path fill-rule="evenodd" clip-rule="evenodd" d="M138.699 24.6019C138.699 21.7991 136.785 20.0288 133.227 20.0288H127.026V33.726H131.146V28.9214H132.124L134.683 33.726H138.783L138.97 33.41L136.223 28.3317C137.7 27.6362 138.699 26.3933 138.699 24.6019ZM134.496 24.8334C134.496 25.7401 133.83 26.182 133.06 26.182H131.146V23.4003H133.06C133.83 23.4003 134.496 23.9065 134.496 24.8334Z" fill="#A7A4B5" style="fill:#A7A4B5;fill:color(display-p3 0.6549 0.6431 0.7098);fill-opacity:1;"/>
<path fill-rule="evenodd" clip-rule="evenodd" d="M141.197 33.726H145.328V20.0298H141.197V33.726Z" fill="#A7A4B5" style="fill:#A7A4B5;fill:color(display-p3 0.6549 0.6431 0.7098);fill-opacity:1;"/>
<path fill-rule="evenodd" clip-rule="evenodd" d="M152.052 24.8978V20.0298H147.922V33.726H152.052V29.5093L152.821 28.6256L156.279 33.726H160.601L160.793 33.4091L155.798 26.157L160.409 20.3458L160.313 20.0298H155.894L152.052 24.8978Z" fill="#A7A4B5" style="fill:#A7A4B5;fill:color(display-p3 0.6549 0.6431 0.7098);fill-opacity:1;"/>
<path fill-rule="evenodd" clip-rule="evenodd" d="M166.074 30.3546V28.4623H170.78V25.2973H166.074V23.4012H172.221V20.0288H161.943V33.726H172.317V30.3546H166.074Z" fill="#A7A4B5" style="fill:#A7A4B5;fill:color(display-p3 0.6549 0.6431 0.7098);fill-opacity:1;"/>
<path fill-rule="evenodd" clip-rule="evenodd" d="M106.618 33.8861C109.636 33.8861 112.255 32.4117 112.255 29.5685C112.255 26.4698 109.615 25.6687 107.284 24.9944C106.368 24.7207 105.431 24.4037 105.431 23.7294C105.431 23.2443 105.951 22.9494 106.743 22.9494C108.096 22.9494 109.24 23.7928 109.822 24.3413H110.113L112.048 22.0235V21.7286C111.029 20.5702 108.949 19.6855 106.659 19.6855C103.455 19.6855 101.23 21.4126 101.23 23.9196C101.23 26.6177 103.683 27.7982 105.764 28.388C107.117 28.7674 108.035 28.8308 108.035 29.5685C108.035 30.0958 107.388 30.4118 106.388 30.4118C105.118 30.4118 103.58 29.5896 102.831 28.8519H102.54L100.627 31.2542V31.5491C101.854 32.9179 104.058 33.8861 106.618 33.8861Z" fill="#A7A4B5" style="fill:#A7A4B5;fill:color(display-p3 0.6549 0.6431 0.7098);fill-opacity:1;"/>
<path fill-rule="evenodd" clip-rule="evenodd" d="M35.5566 46.4788C34.5586 44.1947 32.5539 41.2641 24.7025 37.079C21.0813 35.0657 14.8955 31.9661 9.33398 26.0713C9.83826 28.1979 12.4221 32.8709 23.5307 38.7023C26.6082 40.3861 31.8124 41.9653 35.5566 46.4711" fill="#A7A4B5" style="fill:#A7A4B5;fill:color(display-p3 0.6549 0.6431 0.7098);fill-opacity:1;"/>
<path fill-rule="evenodd" clip-rule="evenodd" d="M35.0577 42.5692C34.1106 39.8701 32.4009 36.4141 24.2901 31.2829C20.3414 28.6953 14.5407 25.4458 6.91406 17.1631C7.45965 19.3963 9.87059 25.2037 22.0233 32.743C26.0152 35.4478 31.1675 37.1163 35.0577 42.5692Z" fill="#A7A4B5" style="fill:#A7A4B5;fill:color(display-p3 0.6549 0.6431 0.7098);fill-opacity:1;"/>
</svg>
