<svg width="180" height="56" viewBox="0 0 180 56" fill="none" xmlns="http://www.w3.org/2000/svg">
<path d="M81.1844 28.7193C81.1844 34.3838 76.7531 38.5578 71.3148 38.5578C65.8766 38.5578 61.4453 34.3838 61.4453 28.7193C61.4453 23.015 65.8766 18.8809 71.3148 18.8809C76.7531 18.8809 81.1844 23.015 81.1844 28.7193ZM76.8639 28.7193C76.8639 25.1796 74.2957 22.7577 71.3148 22.7577C68.334 22.7577 65.7657 25.1796 65.7657 28.7193C65.7657 32.2236 68.334 34.681 71.3148 34.681C74.2957 34.681 76.8639 32.2191 76.8639 28.7193Z" fill="#A7A4B5" style="fill:#A7A4B5;fill:color(display-p3 0.6549 0.6431 0.7098);fill-opacity:1;"/>
<path d="M102.475 28.7193C102.475 34.3838 98.0441 38.5578 92.6059 38.5578C87.1676 38.5578 82.7363 34.3838 82.7363 28.7193C82.7363 23.0194 87.1676 18.8809 92.6059 18.8809C98.0441 18.8809 102.475 23.015 102.475 28.7193ZM98.155 28.7193C98.155 25.1796 95.5867 22.7577 92.6059 22.7577C89.625 22.7577 87.0567 25.1796 87.0567 28.7193C87.0567 32.2236 89.625 34.681 92.6059 34.681C95.5867 34.681 98.155 32.2191 98.155 28.7193Z" fill="#A7A4B5" style="fill:#A7A4B5;fill:color(display-p3 0.6549 0.6431 0.7098);fill-opacity:1;"/>
<path d="M122.88 19.4752V37.1384C122.88 44.4041 118.595 47.3716 113.53 47.3716C108.761 47.3716 105.891 44.1823 104.809 41.5741L108.571 40.0083C109.24 41.6096 110.882 43.4992 113.525 43.4992C116.768 43.4992 118.777 41.4987 118.777 37.7328V36.3178H118.626C117.659 37.511 115.796 38.5534 113.445 38.5534C108.526 38.5534 104.02 34.2684 104.02 28.7548C104.02 23.2013 108.526 18.8809 113.445 18.8809C115.792 18.8809 117.655 19.9233 118.626 21.081H118.777V19.4797H122.88V19.4752ZM119.083 28.7548C119.083 25.2905 116.772 22.7577 113.831 22.7577C110.851 22.7577 108.353 25.2905 108.353 28.7548C108.353 32.1836 110.851 34.681 113.831 34.681C116.772 34.681 119.083 32.1836 119.083 28.7548Z" fill="#A7A4B5" style="fill:#A7A4B5;fill:color(display-p3 0.6549 0.6431 0.7098);fill-opacity:1;"/>
<path d="M129.644 9.12207V37.9544H125.43V9.12207H129.644Z" fill="#A7A4B5" style="fill:#A7A4B5;fill:color(display-p3 0.6549 0.6431 0.7098);fill-opacity:1;"/>
<path d="M146.066 31.9575L149.419 34.1931C148.337 35.7944 145.729 38.5534 141.222 38.5534C135.633 38.5534 131.459 34.233 131.459 28.7149C131.459 22.8642 135.669 18.8765 140.739 18.8765C145.844 18.8765 148.341 22.9396 149.158 25.1353L149.606 26.2531L136.454 31.7002C137.461 33.6741 139.026 34.681 141.222 34.681C143.422 34.681 144.948 33.5987 146.066 31.9575ZM135.744 28.4177L144.536 24.7671C144.052 23.5384 142.597 22.6823 140.885 22.6823C138.689 22.6823 135.633 24.6208 135.744 28.4177Z" fill="#A7A4B5" style="fill:#A7A4B5;fill:color(display-p3 0.6549 0.6431 0.7098);fill-opacity:1;"/>
<path d="M45.4941 26.1599V21.9859H59.5598C59.6973 22.7134 59.7683 23.5739 59.7683 24.5054C59.7683 27.637 58.9122 31.5094 56.1531 34.2685C53.4695 37.063 50.0407 38.5534 45.4985 38.5534C37.0794 38.5534 30 31.6957 30 23.2767C30 14.8577 37.0794 8 45.4985 8C50.156 8 53.474 9.82753 55.9668 12.2095L53.0215 15.1549C51.2339 13.4781 48.812 12.174 45.4941 12.174C39.3461 12.174 34.5378 17.1288 34.5378 23.2767C34.5378 29.4246 39.3461 34.3794 45.4941 34.3794C49.4818 34.3794 51.7529 32.7781 53.2078 31.3231C54.3877 30.1432 55.164 28.4576 55.47 26.1555L45.4941 26.1599Z" fill="#A7A4B5" style="fill:#A7A4B5;fill:color(display-p3 0.6549 0.6431 0.7098);fill-opacity:1;"/>
</svg>
