<svg width="180" height="56" viewBox="0 0 180 56" fill="none" xmlns="http://www.w3.org/2000/svg">
<path d="M78.0689 19.0249V37.0992H74.918V22.9159H74.876L69.2464 37.0992H67.1458L61.3901 22.9159H61.3481V37.0992H58.4492V19.0249H62.9865L68.1961 32.4133H68.2801L73.7837 19.0249H78.0689ZM80.6737 20.4056C80.6737 19.9035 80.8417 19.4851 81.2199 19.1504C81.598 18.8157 82.0181 18.6483 82.5222 18.6483C83.0684 18.6483 83.5305 18.8157 83.8666 19.1504C84.2027 19.4851 84.4128 19.9035 84.4128 20.4056C84.4128 20.9076 84.2447 21.326 83.8666 21.6607C83.4885 21.9954 83.0684 22.1628 82.5222 22.1628C81.9761 22.1628 81.556 21.9954 81.2199 21.6607C80.8838 21.2842 80.6737 20.8658 80.6737 20.4056ZM84.0767 24.1292V37.0992H81.0098V24.1292H84.0767ZM93.3614 34.8818C93.8235 34.8818 94.3277 34.7981 94.8738 34.5471C95.42 34.3379 95.9241 34.045 96.3863 33.7103V36.5553C95.8821 36.8482 95.336 37.0574 94.7058 37.1829C94.0756 37.3084 93.4034 37.3921 92.6472 37.3921C90.7146 37.3921 89.1602 36.8063 87.9838 35.593C86.7655 34.3797 86.1773 32.8317 86.1773 30.9908C86.1773 28.8988 86.8075 27.1834 88.0258 25.8446C89.2442 24.5058 90.9667 23.8363 93.2354 23.8363C93.8235 23.8363 94.4117 23.92 94.9579 24.0455C95.546 24.171 96.0082 24.3802 96.3443 24.5476V27.4763C95.8821 27.1416 95.378 26.8487 94.9158 26.6814C94.4117 26.514 93.9076 26.3885 93.4034 26.3885C92.185 26.3885 91.2188 26.765 90.4625 27.56C89.7063 28.3549 89.3702 29.4009 89.3702 30.7397C89.3702 32.0367 89.7483 33.0827 90.4625 33.794C91.1768 34.5052 92.143 34.8818 93.3614 34.8818ZM105.083 23.92C105.335 23.92 105.545 23.92 105.755 23.9618C105.965 24.0037 106.133 24.0455 106.259 24.0874V27.1834C106.091 27.0579 105.881 26.9324 105.545 26.8487C105.209 26.765 104.873 26.6814 104.411 26.6814C103.654 26.6814 103.024 27.0161 102.52 27.6437C102.016 28.2712 101.722 29.2335 101.722 30.5724V37.0992H98.6549V24.1292H101.722V26.1793H101.764C102.058 25.468 102.478 24.9241 103.024 24.5058C103.612 24.1292 104.285 23.92 105.083 23.92ZM106.427 30.8234C106.427 28.6896 107.057 26.9742 108.234 25.7191C109.452 24.4639 111.133 23.8363 113.275 23.8363C115.292 23.8363 116.888 24.4221 118.023 25.6354C119.157 26.8487 119.745 28.4804 119.745 30.5305C119.745 32.6225 119.115 34.296 117.939 35.5512C116.72 36.8063 115.082 37.4339 112.981 37.4339C110.965 37.4339 109.368 36.8482 108.192 35.6767C107.015 34.4634 106.427 32.8317 106.427 30.8234ZM109.62 30.6979C109.62 32.0367 109.914 33.0827 110.544 33.794C111.175 34.5052 112.057 34.8818 113.191 34.8818C114.283 34.8818 115.166 34.5471 115.754 33.794C116.342 33.0827 116.636 32.0367 116.636 30.6142C116.636 29.2335 116.342 28.1876 115.754 27.4345C115.166 26.7232 114.283 26.3467 113.233 26.3467C112.099 26.3467 111.259 26.7232 110.628 27.4763C109.914 28.2712 109.62 29.3172 109.62 30.6979ZM124.324 27.56C124.324 27.9784 124.45 28.3549 124.745 28.6059C125.039 28.857 125.627 29.1499 126.593 29.5264C127.811 30.0285 128.694 30.5724 129.156 31.1581C129.66 31.7857 129.912 32.497 129.912 33.3756C129.912 34.5889 129.45 35.5512 128.484 36.3043C127.559 37.0574 126.257 37.3921 124.661 37.3921C124.114 37.3921 123.526 37.3084 122.854 37.1829C122.182 37.0574 121.636 36.89 121.173 36.6808V33.6684C121.72 34.045 122.35 34.3797 122.98 34.5889C123.61 34.7981 124.198 34.9236 124.745 34.9236C125.417 34.9236 125.963 34.8399 126.257 34.6307C126.593 34.4215 126.761 34.1287 126.761 33.6684C126.761 33.25 126.593 32.9153 126.257 32.5806C125.921 32.2878 125.249 31.953 124.324 31.5765C123.19 31.1163 122.392 30.5724 121.93 29.9866C121.468 29.4009 121.216 28.6478 121.216 27.7273C121.216 26.5559 121.678 25.5936 122.602 24.8405C123.526 24.0874 124.745 23.7108 126.215 23.7108C126.677 23.7108 127.181 23.7527 127.727 23.8782C128.274 24.0037 128.778 24.1292 129.156 24.2547V27.2253C128.736 26.9742 128.274 26.7232 127.727 26.514C127.181 26.3048 126.635 26.2211 126.131 26.2211C125.543 26.2211 125.081 26.3467 124.787 26.5559C124.492 26.8487 124.324 27.1416 124.324 27.56ZM131.214 30.8234C131.214 28.6896 131.845 26.9742 133.021 25.7191C134.239 24.4639 135.92 23.8363 138.062 23.8363C140.079 23.8363 141.675 24.4221 142.81 25.6354C143.944 26.8487 144.532 28.4804 144.532 30.5305C144.532 32.6225 143.902 34.296 142.726 35.5512C141.507 36.8063 139.869 37.4339 137.768 37.4339C135.752 37.4339 134.155 36.8482 132.979 35.6767C131.845 34.4634 131.214 32.8317 131.214 30.8234ZM134.407 30.6979C134.407 32.0367 134.701 33.0827 135.332 33.794C135.962 34.5052 136.844 34.8818 137.978 34.8818C139.071 34.8818 139.953 34.5471 140.541 33.794C141.129 33.0827 141.423 32.0367 141.423 30.6142C141.423 29.2335 141.129 28.1876 140.541 27.4345C139.953 26.7232 139.071 26.3467 138.02 26.3467C136.886 26.3467 136.046 26.7232 135.416 27.4763C134.743 28.2712 134.407 29.3172 134.407 30.6979ZM154.741 26.6395H150.162V37.0992H147.053V26.6395H144.868V24.1292H147.053V22.3301C147.053 20.9913 147.515 19.8617 148.397 18.983C149.28 18.1044 150.414 17.686 151.8 17.686C152.179 17.686 152.515 17.7279 152.809 17.7279C153.103 17.7279 153.355 17.8116 153.565 17.8952V20.5311C153.481 20.4892 153.271 20.4056 153.019 20.3219C152.767 20.2382 152.473 20.1964 152.137 20.1964C151.506 20.1964 151.002 20.4056 150.666 20.7821C150.33 21.1587 150.162 21.7862 150.162 22.5393V24.0874H154.741V21.1587L157.808 20.2382V24.0874H160.917V26.5977H157.808V32.6643C157.808 33.4592 157.976 34.0031 158.228 34.3379C158.522 34.6726 158.985 34.8399 159.615 34.8399C159.783 34.8399 159.993 34.7981 160.245 34.7144C160.497 34.6307 160.707 34.5471 160.875 34.4215V36.9319C160.665 37.0574 160.371 37.1411 159.909 37.2247C159.447 37.3084 159.027 37.3502 158.564 37.3502C157.262 37.3502 156.296 37.0155 155.666 36.3461C155.035 35.6767 154.699 34.6307 154.699 33.25L154.741 26.6395Z" fill="#A7A4B5" style="fill:#A7A4B5;fill:color(display-p3 0.6549 0.6431 0.7098);fill-opacity:1;"/>
<path d="M33.4522 13H19.084V27.3088H33.4522V13Z" fill="#A7A4B5" style="fill:#A7A4B5;fill:color(display-p3 0.6549 0.6431 0.7098);fill-opacity:1;"/>
<path d="M49.333 13H34.9648V27.3088H49.333V13Z" fill="#A7A4B5" style="fill:#A7A4B5;fill:color(display-p3 0.6549 0.6431 0.7098);fill-opacity:1;"/>
<path d="M33.4522 28.8149H19.084V43.1238H33.4522V28.8149Z" fill="#A7A4B5" style="fill:#A7A4B5;fill:color(display-p3 0.6549 0.6431 0.7098);fill-opacity:1;"/>
<path d="M49.333 28.8149H34.9648V43.1238H49.333V28.8149Z" fill="#A7A4B5" style="fill:#A7A4B5;fill:color(display-p3 0.6549 0.6431 0.7098);fill-opacity:1;"/>
</svg>
