<svg width="180" height="56" viewBox="0 0 180 56" fill="none" xmlns="http://www.w3.org/2000/svg">
<path d="M38.8726 25.5371C38.8726 26.4071 38.6907 27.2132 38.3225 27.951C37.9585 28.6888 37.4464 29.3157 36.7947 29.8274C36.143 30.3435 35.3643 30.7444 34.4629 31.0344C33.5614 31.3244 32.5754 31.4694 31.5047 31.4694C30.2223 31.4694 29.0755 31.2945 28.0555 30.9405C27.0356 30.5866 26.0199 30.0023 25 29.1877L26.6844 26.4284C27.4927 27.1108 28.2248 27.614 28.8766 27.9296C29.5283 28.2452 30.197 28.403 30.8741 28.403C31.7078 28.403 32.3807 28.1855 32.8928 27.7505C33.4006 27.3155 33.6588 26.7312 33.6588 25.9934C33.6588 25.6778 33.6122 25.3793 33.5233 25.1021C33.4302 24.8249 33.261 24.5434 33.0155 24.2534C32.77 23.9634 32.4315 23.6478 31.9998 23.3067C31.5681 22.9655 31.0137 22.5433 30.3366 22.04C29.8161 21.669 29.3082 21.2894 28.8088 20.8928C28.3137 20.4962 27.8609 20.074 27.4588 19.6262C27.0568 19.1784 26.7267 18.6794 26.4812 18.125C26.2315 17.5706 26.1088 16.9394 26.1088 16.2272C26.1088 15.4126 26.2781 14.6663 26.6166 13.9925C26.9552 13.3229 27.4165 12.7472 28.0048 12.2738C28.5888 11.8004 29.2955 11.4293 30.1165 11.1692C30.9376 10.9048 31.8305 10.7726 32.7912 10.7726C33.8069 10.7726 34.793 10.909 35.7494 11.1863C36.7016 11.4592 37.5819 11.8601 38.3944 12.3846L36.8667 14.8625C35.8213 14.1247 34.7252 13.7579 33.5741 13.7579C32.8716 13.7579 32.2876 13.9413 31.8305 14.3123C31.3735 14.6833 31.1449 15.1397 31.1449 15.6941C31.1449 16.2485 31.3481 16.6963 31.7501 17.1185C32.1522 17.5407 32.8504 18.1335 33.8407 18.8969C34.8353 19.6347 35.6648 20.283 36.3207 20.8331C36.9767 21.3875 37.493 21.9078 37.8739 22.394C38.2548 22.8802 38.5172 23.3792 38.661 23.8781C38.8049 24.3771 38.8769 24.9315 38.8769 25.5371M56.2029 20.8885C56.2029 21.6519 56.1225 22.4793 55.9659 23.3621C55.8093 24.2449 55.5384 25.0637 55.1576 25.8143C54.7767 26.5649 54.2773 27.1833 53.6594 27.6737C53.0415 28.1599 52.2586 28.403 51.3106 28.403C49.7321 28.403 48.4879 27.7718 47.5822 26.5052C46.6765 25.2386 46.2195 23.5028 46.2195 21.2852C46.2195 19.0675 46.6808 17.2209 47.5991 15.8903C48.5175 14.5597 49.7702 13.8944 51.3487 13.8944C52.9273 13.8944 54.0318 14.5213 54.8994 15.7709C55.767 17.0247 56.2029 18.7306 56.2029 20.8885ZM61.6791 20.6881C61.6791 19.2125 61.4675 17.8734 61.0528 16.6622C60.6338 15.451 60.0371 14.4104 59.2669 13.5404C58.4924 12.6704 57.5783 11.9923 56.5203 11.5061C55.4623 11.0199 54.29 10.7768 53.0077 10.7768C51.5942 10.7768 50.35 11.0455 49.2793 11.5871C48.2085 12.1288 47.214 12.9774 46.2957 14.1332L46.2703 11.2502H41.2341V40.8646H46.2703V28.3476C46.7696 28.9276 47.2479 29.4138 47.7049 29.8104C48.162 30.207 48.6275 30.5311 49.1015 30.7785C49.5755 31.0258 50.0706 31.205 50.5954 31.3116C51.1202 31.4182 51.6831 31.4694 52.2882 31.4694C53.6256 31.4694 54.8698 31.2007 56.0251 30.6633C57.1805 30.1217 58.175 29.3669 59.013 28.3902C59.8509 27.4179 60.5069 26.2792 60.9809 24.9742C61.4548 23.6692 61.6876 22.2405 61.6876 20.6881M63.9179 30.9832H69.0852V2H63.9179V30.9789V30.9832ZM91.1596 30.9917V11.2204H85.9923V21.8609C85.9923 22.8119 85.9542 23.5412 85.8738 24.0572C85.7933 24.5733 85.6622 25.0381 85.4802 25.4603C84.748 27.0937 83.4065 27.9126 81.464 27.9126C79.9404 27.9126 78.8782 27.3582 78.273 26.2493C78.036 25.8271 77.871 25.3537 77.7821 24.8249C77.689 24.2961 77.6424 23.5327 77.6424 22.5305V11.2204H72.4751V22.4537C72.4751 23.2171 72.4836 23.8653 72.4963 24.3942C72.509 24.923 72.5428 25.3878 72.5936 25.7973C72.6444 26.2067 72.7036 26.5692 72.7713 26.8848C72.8348 27.2004 72.9322 27.5032 73.0676 27.7932C73.5373 29.0043 74.3033 29.9213 75.3614 30.5439C76.4236 31.1623 77.7228 31.4694 79.2675 31.4694C80.6556 31.4694 81.8702 31.2263 82.9198 30.7401C83.9651 30.2539 84.985 29.4521 85.9796 28.3476L85.9923 30.9917H91.1596ZM113.454 30.9832V19.7754C113.454 19.0121 113.446 18.3596 113.433 17.8222C113.42 17.2848 113.386 16.8157 113.336 16.4191C113.285 16.0267 113.217 15.677 113.141 15.3742C113.065 15.0714 112.972 14.7772 112.866 14.4872C112.396 13.3016 111.63 12.3889 110.568 11.7449C109.506 11.101 108.206 10.7768 106.662 10.7768C105.273 10.7768 104.059 11.0199 103.009 11.5104C101.96 11.9966 100.944 12.7983 99.9453 13.9029L99.9369 11.2588H94.723V30.9875H99.9369V20.3341C99.9369 19.4129 99.9707 18.6965 100.034 18.1847C100.102 17.6729 100.225 17.191 100.411 16.7432C100.749 15.9542 101.27 15.3572 101.964 14.9478C102.658 14.5383 103.492 14.3379 104.465 14.3379C105.989 14.3379 107.051 14.8923 107.656 15.9926C107.889 16.4148 108.054 16.8882 108.147 17.4128C108.24 17.9373 108.287 18.7007 108.287 19.6987V30.9832H113.454ZM134.855 29.6824L126.98 19.8138L133.641 12.6277L129.722 10.9304L122.79 19.0249H122.24V2.00853H117.026V30.9875H122.24V20.4834L130.035 31.3798L134.855 29.6824ZM155 22.5987V19.366L139.329 11.4421V14.9904L151.475 20.944L139.329 26.9786V30.4501L155 22.603V22.5987Z" fill="#A7A4B5" style="fill:#A7A4B5;fill:color(display-p3 0.6549 0.6431 0.7098);fill-opacity:1;"/>
<path d="M47.5528 47.1465H46.3382C46.4017 46.5196 46.6937 46.0377 47.2185 45.6923C47.6882 45.3809 48.2807 45.2231 48.996 45.2231C49.8466 45.2231 50.4983 45.4492 50.9512 45.897C51.332 46.2808 51.5225 46.7798 51.5225 47.3896V51.6586H50.5787L50.4348 50.8057C49.9482 51.4966 49.2583 51.8378 48.3569 51.8378C47.6502 51.8378 47.0958 51.6458 46.6979 51.262C46.3721 50.9422 46.207 50.537 46.207 50.0466C46.207 49.4282 46.4186 48.9505 46.8376 48.6179C47.21 48.3193 47.7856 48.1061 48.5558 47.9696L50.3714 47.6583V47.347C50.3714 46.9376 50.2317 46.6305 49.9524 46.4215C49.7069 46.2382 49.3684 46.1443 48.9367 46.1443C48.0945 46.1443 47.629 46.4812 47.5401 47.1551L47.5528 47.1465ZM48.6405 50.8611C49.1271 50.8611 49.5461 50.7033 49.9058 50.3792C50.2232 50.085 50.3841 49.7438 50.3841 49.3557V48.5496L48.8436 48.8269C48.2765 48.9249 47.8914 49.0699 47.684 49.2704C47.519 49.4324 47.4343 49.6457 47.4343 49.9186C47.4343 50.2257 47.5359 50.456 47.7433 50.6138C47.9506 50.7758 48.2469 50.8526 48.6362 50.8526V50.8611H48.6405Z" fill="#A7A4B5" style="fill:#A7A4B5;fill:color(display-p3 0.6549 0.6431 0.7098);fill-opacity:1;"/>
<path d="M69.191 42.9883H67.0369V51.667H69.191V42.9883Z" fill="#A7A4B5" style="fill:#A7A4B5;fill:color(display-p3 0.6549 0.6431 0.7098);fill-opacity:1;"/>
<path d="M80.0464 47.3298C80.0464 50.1274 82.1709 51.8248 84.5917 51.8248C85.5481 51.8248 86.2845 51.5945 86.5553 51.5177V49.1892C86.4622 49.2404 85.7555 49.6498 84.744 49.6498C83.3094 49.6498 82.3825 48.622 82.3825 47.334C82.3825 46.0461 83.3474 45.0183 84.744 45.0183C85.7724 45.0183 86.4665 45.4405 86.5553 45.4831V43.1503C86.3522 43.0906 85.6031 42.8433 84.5917 42.8433C81.9678 42.8433 80.0464 44.7411 80.0464 47.334V47.3298Z" fill="#A7A4B5" style="fill:#A7A4B5;fill:color(display-p3 0.6549 0.6431 0.7098);fill-opacity:1;"/>
<path d="M57.5701 47.3303C57.5701 50.1279 59.6946 51.8253 62.1111 51.8253C63.076 51.8253 63.8081 51.595 64.079 51.5182V49.1897C63.9816 49.2409 63.2791 49.6503 62.2719 49.6503C60.833 49.6503 59.9104 48.6225 59.9104 47.3345C59.9104 46.0466 60.8753 45.0188 62.2719 45.0188C63.3003 45.0188 63.9901 45.441 64.079 45.4836V43.1508C63.8758 43.0911 63.1267 42.8438 62.1111 42.8438C59.4914 42.8438 57.5701 44.7416 57.5701 47.3345V47.3303Z" fill="#A7A4B5" style="fill:#A7A4B5;fill:color(display-p3 0.6549 0.6431 0.7098);fill-opacity:1;"/>
<path d="M93.3309 42.8394C90.707 42.8394 88.8237 44.848 88.8237 47.3301C88.8237 49.8122 90.707 51.8252 93.3309 51.8252C95.9547 51.8252 97.838 49.8122 97.838 47.3301C97.838 44.848 95.9547 42.8394 93.3309 42.8394ZM93.3309 49.616C92.0528 49.616 91.1006 48.5925 91.1006 47.3301C91.1006 46.0678 92.0486 45.0485 93.3309 45.0485C94.6132 45.0485 95.5611 46.072 95.5611 47.3301C95.5611 48.5882 94.6089 49.616 93.3309 49.616Z" fill="#A7A4B5" style="fill:#A7A4B5;fill:color(display-p3 0.6549 0.6431 0.7098);fill-opacity:1;"/>
<path d="M75.9244 46.4301L75.3319 46.2382C74.9807 46.1231 74.3459 45.9397 74.3459 45.4151C74.3459 44.9972 74.8114 44.7029 75.679 44.7029C76.4196 44.7029 77.3295 44.9588 77.3633 44.9673V43.1122C77.2998 43.0951 76.3138 42.835 75.2642 42.835C73.2794 42.835 72.0817 43.9267 72.0817 45.5473C72.0817 46.9846 73.0847 47.701 74.2824 48.0849C74.4178 48.1318 74.6125 48.1915 74.7437 48.2384C75.2769 48.409 75.7001 48.6606 75.7001 49.0999C75.7001 49.5946 75.2092 49.9144 74.1343 49.9144C73.1948 49.9144 72.2891 49.6415 72.1029 49.5903V51.5905C72.2087 51.6118 73.2836 51.825 74.4263 51.825C76.0725 51.825 77.96 51.0915 77.96 48.9122C77.96 47.8546 77.321 46.8822 75.9244 46.4301Z" fill="#A7A4B5" style="fill:#A7A4B5;fill:color(display-p3 0.6549 0.6431 0.7098);fill-opacity:1;"/>
<path d="M108.435 49.6458H109.688C109.595 50.3196 109.277 50.8613 108.744 51.2707C108.257 51.646 107.665 51.8379 106.967 51.8379C106.052 51.8379 105.324 51.5223 104.783 50.8869C104.283 50.3026 104.029 49.5307 104.029 48.5796C104.029 47.4751 104.33 46.6178 104.935 46.008C105.451 45.4877 106.124 45.2275 106.95 45.2275C107.711 45.2275 108.342 45.4322 108.837 45.8417C109.273 46.2042 109.54 46.6775 109.637 47.2618H108.372C108.291 46.9249 108.13 46.6648 107.889 46.4814C107.648 46.298 107.343 46.2042 106.975 46.2042C106.412 46.2042 105.976 46.4302 105.676 46.878C105.388 47.2959 105.248 47.8759 105.248 48.6223C105.248 49.3686 105.439 49.987 105.82 50.3879C106.124 50.7077 106.509 50.8698 106.988 50.8698C107.402 50.8698 107.741 50.7504 108.003 50.5073C108.232 50.2983 108.376 50.0126 108.431 49.6543V49.6458H108.435Z" fill="#A7A4B5" style="fill:#A7A4B5;fill:color(display-p3 0.6549 0.6431 0.7098);fill-opacity:1;"/>
<path d="M110.762 48.5283C110.762 47.3811 111.1 46.5154 111.778 45.9311C112.319 45.4577 113.001 45.2231 113.83 45.2231C114.791 45.2231 115.548 45.5302 116.099 46.1486C116.623 46.7243 116.886 47.5176 116.886 48.5283C116.886 49.6585 116.556 50.52 115.895 51.1128C115.354 51.5947 114.664 51.8335 113.822 51.8335C112.861 51.8335 112.099 51.5136 111.541 50.8739C111.024 50.2897 110.766 49.5049 110.766 48.5283H110.762ZM111.955 48.5283C111.955 49.3301 112.158 49.9442 112.565 50.3664C112.899 50.7204 113.327 50.8953 113.843 50.8953C114.448 50.8953 114.914 50.665 115.239 50.2086C115.544 49.7907 115.692 49.232 115.692 48.5241C115.692 47.7052 115.493 47.0911 115.096 46.6732C114.77 46.3277 114.346 46.1571 113.83 46.1571C113.233 46.1571 112.768 46.3874 112.434 46.8437C112.116 47.2617 111.955 47.8204 111.955 48.5283Z" fill="#A7A4B5" style="fill:#A7A4B5;fill:color(display-p3 0.6549 0.6431 0.7098);fill-opacity:1;"/>
<path d="M119.46 51.6544H118.313V45.4023H119.256L119.375 46.1358C119.794 45.5259 120.403 45.2231 121.199 45.2231C122.066 45.2231 122.676 45.5515 123.023 46.2083C123.438 45.5515 124.106 45.2231 125.037 45.2231C125.731 45.2231 126.26 45.4364 126.637 45.8586C126.971 46.2509 127.136 46.7883 127.136 47.4707V51.6544H125.994V47.556C125.994 46.6561 125.592 46.2083 124.788 46.2083C124.309 46.2083 123.929 46.396 123.641 46.7712C123.412 47.0783 123.294 47.4323 123.294 47.8417V51.6544H122.147V47.556C122.147 46.6561 121.745 46.2083 120.941 46.2083C120.496 46.2083 120.124 46.3832 119.832 46.7371C119.578 47.0314 119.451 47.3896 119.451 47.8076V51.6544H119.46Z" fill="#A7A4B5" style="fill:#A7A4B5;fill:color(display-p3 0.6549 0.6431 0.7098);fill-opacity:1;"/>
<path d="M128.872 45.4023H129.815L129.993 46.2211C130.501 45.5558 131.203 45.2231 132.092 45.2231C132.981 45.2231 133.675 45.543 134.166 46.1827C134.602 46.7585 134.822 47.5261 134.822 48.4814C134.822 49.6116 134.521 50.4773 133.929 51.0786C133.43 51.5819 132.786 51.8378 132.008 51.8378C131.123 51.8378 130.459 51.5094 130.014 50.8526V53.8209H128.867V45.4065L128.872 45.4023ZM133.633 48.4558C133.633 47.6711 133.438 47.0826 133.049 46.6902C132.74 46.3704 132.333 46.2083 131.834 46.2083C131.254 46.2083 130.793 46.4215 130.45 46.8437C130.124 47.2532 129.959 47.7905 129.959 48.4558C129.959 49.2576 130.154 49.8717 130.543 50.2939C130.869 50.665 131.301 50.8483 131.834 50.8483C132.431 50.8483 132.884 50.6266 133.193 50.1873C133.489 49.7779 133.633 49.2021 133.633 48.4558Z" fill="#A7A4B5" style="fill:#A7A4B5;fill:color(display-p3 0.6549 0.6431 0.7098);fill-opacity:1;"/>
<path d="M137.235 47.1465H136.02C136.084 46.5196 136.376 46.0377 136.9 45.6923C137.37 45.3809 137.963 45.2231 138.678 45.2231C139.528 45.2231 140.18 45.4492 140.633 45.897C141.014 46.2808 141.204 46.7798 141.204 47.3896V51.6586H140.261L140.117 50.8057C139.63 51.4966 138.94 51.8378 138.039 51.8378C137.332 51.8378 136.778 51.6458 136.38 51.262C136.054 50.9422 135.889 50.537 135.889 50.0466C135.889 49.4282 136.1 48.9505 136.519 48.6179C136.892 48.3193 137.467 48.1061 138.238 47.9696L140.053 47.6583V47.347C140.053 46.9376 139.914 46.6305 139.634 46.4215C139.389 46.2382 139.05 46.1443 138.619 46.1443C137.776 46.1443 137.311 46.4812 137.222 47.1551L137.235 47.1465ZM138.322 50.8611C138.809 50.8611 139.228 50.7033 139.588 50.3792C139.905 50.085 140.066 49.7438 140.066 49.3557V48.5496L138.525 48.8269C137.958 48.9249 137.573 49.0699 137.366 49.2704C137.201 49.4324 137.116 49.6457 137.116 49.9186C137.116 50.2257 137.218 50.456 137.425 50.6138C137.632 50.7758 137.929 50.8526 138.318 50.8526V50.8611H138.322Z" fill="#A7A4B5" style="fill:#A7A4B5;fill:color(display-p3 0.6549 0.6431 0.7098);fill-opacity:1;"/>
<path d="M144.081 51.6544H142.934V45.4023H143.878L144.009 46.1955C144.47 45.5473 145.101 45.2231 145.896 45.2231C146.628 45.2231 147.187 45.4534 147.576 45.9098C147.919 46.3192 148.088 46.8736 148.088 47.5815V51.6586H146.946V47.5943C146.946 46.6732 146.506 46.2126 145.621 46.2126C145.16 46.2126 144.783 46.3704 144.487 46.6945C144.216 46.9845 144.081 47.3513 144.081 47.799V51.6586V51.6544Z" fill="#A7A4B5" style="fill:#A7A4B5;fill:color(display-p3 0.6549 0.6431 0.7098);fill-opacity:1;"/>
<path d="M155.001 45.4023L152.843 51.7397C152.555 52.5799 152.28 53.1556 152.018 53.4584C151.709 53.8167 151.307 54.0001 150.811 54.0001C150.604 54.0001 150.359 53.9617 150.071 53.8934V52.9552C150.295 53.0106 150.49 53.0405 150.668 53.0405C150.913 53.0405 151.104 52.9552 151.239 52.7803C151.374 52.6055 151.544 52.2345 151.751 51.6545H151.383L149.102 45.4023H150.342L152.094 50.7162L153.846 45.4023H155.001Z" fill="#A7A4B5" style="fill:#A7A4B5;fill:color(display-p3 0.6549 0.6431 0.7098);fill-opacity:1;"/>
</svg>
