<svg width="180" height="56" viewBox="0 0 180 56" fill="none" xmlns="http://www.w3.org/2000/svg">
<path d="M158.979 21.1605C159.183 21.2752 159.344 21.4313 159.46 21.6289C159.576 21.8251 159.635 22.0406 159.635 22.2741C159.635 22.5076 159.577 22.7218 159.46 22.918C159.344 23.1128 159.182 23.2675 158.979 23.3808C158.774 23.4941 158.549 23.5507 158.302 23.5507C158.061 23.5507 157.839 23.4941 157.637 23.3808C157.434 23.2675 157.275 23.1128 157.158 22.918C157.04 22.7231 156.982 22.509 156.982 22.2741C156.982 22.0406 157.04 21.8251 157.158 21.6289C157.274 21.4327 157.434 21.2766 157.637 21.1605C157.839 21.0458 158.061 20.9878 158.302 20.9878C158.549 20.9878 158.774 21.0444 158.979 21.1605ZM158.842 23.1722C159.001 23.0837 159.125 22.9608 159.214 22.8047C159.304 22.6471 159.348 22.4717 159.348 22.2741C159.348 22.0779 159.304 21.8997 159.214 21.7408C159.125 21.5819 159.001 21.4576 158.842 21.3677C158.683 21.2779 158.502 21.2323 158.301 21.2323C158.104 21.2323 157.929 21.2779 157.771 21.3677C157.614 21.4576 157.491 21.5819 157.402 21.7408C157.313 21.8997 157.268 22.0765 157.268 22.2741C157.268 22.4717 157.313 22.6471 157.402 22.8047C157.491 22.9608 157.614 23.0837 157.771 23.1722C157.929 23.2606 158.104 23.3048 158.301 23.3048C158.504 23.3048 158.683 23.2606 158.842 23.1722ZM158.777 22.2257C158.714 22.2907 158.632 22.3377 158.531 22.3681L158.918 22.9442H158.567L158.248 22.4137H158.122V22.9442H157.824V21.5626H158.231C158.657 21.5626 158.87 21.7021 158.87 21.9826C158.871 22.0807 158.841 22.1608 158.777 22.2257ZM158.124 22.194H158.281C158.47 22.194 158.564 22.1235 158.564 21.984C158.564 21.9135 158.541 21.8638 158.494 21.832C158.447 21.8002 158.372 21.785 158.271 21.785H158.125V22.194H158.124Z" fill="#A7A4B5" style="fill:#A7A4B5;fill:color(display-p3 0.6549 0.6431 0.7098);fill-opacity:1;"/>
<path d="M65.1064 25.3261C65.0208 25.409 64.9172 25.4491 64.7956 25.4491H61.0679C60.9463 25.4491 60.8855 25.5071 60.8855 25.6246V34.0954C60.8855 34.9866 61.0872 35.6304 61.4879 36.0283C61.89 36.4276 62.5297 36.6252 63.407 36.6252H64.504C64.6256 36.6252 64.7293 36.6667 64.8149 36.7482C64.9006 36.8311 64.9434 36.9306 64.9434 37.0466V39.6828C64.9434 39.9412 64.797 40.0931 64.5054 40.1401L62.6043 40.1747C60.6797 40.1747 59.2414 39.8583 58.2922 39.2255C57.343 38.5927 56.8539 37.3975 56.8304 35.6401V25.6232C56.8304 25.5057 56.7696 25.4477 56.648 25.4477H54.5645C54.4429 25.4477 54.3393 25.4076 54.2536 25.3247C54.168 25.2432 54.1251 25.1437 54.1251 25.0263V22.5656C54.1251 22.4482 54.168 22.3487 54.2536 22.2672C54.3393 22.1856 54.4415 22.1442 54.5645 22.1442H56.648C56.7696 22.1442 56.8304 22.0862 56.8304 21.9687V17.8569C56.8304 17.7395 56.8732 17.64 56.9589 17.5585C57.0445 17.477 57.1468 17.4355 57.2697 17.4355H60.4489C60.5705 17.4355 60.6741 17.477 60.7598 17.5585C60.8454 17.6414 60.8883 17.7409 60.8883 17.8569V21.9687C60.8883 22.0862 60.9491 22.1442 61.0707 22.1442H64.7983C64.9199 22.1442 65.0235 22.1856 65.1092 22.2672C65.1949 22.3501 65.2377 22.4495 65.2377 22.5656V25.0263C65.2336 25.1451 65.1907 25.2446 65.1064 25.3261Z" fill="#A7A4B5" style="fill:#A7A4B5;fill:color(display-p3 0.6549 0.6431 0.7098);fill-opacity:1;"/>
<path d="M81.8723 31.0739L81.8364 32.164C81.8364 32.4459 81.6899 32.5854 81.3984 32.5854H69.9584C69.8368 32.5854 69.776 32.6448 69.776 32.7609C69.8492 33.5346 69.9584 34.061 70.1048 34.3429C70.6893 36.0299 72.1151 36.8851 74.381 36.9086C76.0376 36.9086 77.3529 36.2523 78.3284 34.9397C78.4251 34.7988 78.5481 34.7284 78.6945 34.7284C78.7912 34.7284 78.8769 34.7629 78.9501 34.8334L81.216 36.6254C81.4357 36.7898 81.4716 36.9763 81.3252 37.1877C80.5694 38.2184 79.565 39.0156 78.3104 39.5779C77.0559 40.1403 75.6604 40.4221 74.1254 40.4221C72.2243 40.4221 70.6105 40.0118 69.2827 39.1924C67.955 38.3731 66.9865 37.2236 66.3771 35.748C65.8162 34.4824 65.5371 32.725 65.5371 30.4756C65.5371 29.1175 65.6836 28.0149 65.9751 27.1721C66.4628 25.5321 67.3816 24.2375 68.7342 23.2883C70.0869 22.3391 71.7131 21.8652 73.6128 21.8652C78.4127 21.8652 81.1165 24.279 81.7258 29.1064C81.8239 29.6909 81.8723 30.3472 81.8723 31.0739ZM71.3649 26.0295C70.768 26.4633 70.3466 27.0657 70.1034 27.8395C69.957 28.2388 69.8589 28.7527 69.8105 29.3855C69.7608 29.503 69.8105 29.561 69.957 29.561H77.3764C77.498 29.561 77.5588 29.503 77.5588 29.3855C77.5091 28.7997 77.4372 28.3548 77.3391 28.0495C77.1194 27.2053 76.687 26.5504 76.0418 26.0806C75.3965 25.6123 74.5855 25.3774 73.6114 25.3774C72.7106 25.3788 71.9618 25.5957 71.3649 26.0295Z" fill="#A7A4B5" style="fill:#A7A4B5;fill:color(display-p3 0.6549 0.6431 0.7098);fill-opacity:1;"/>
<path d="M97.1595 23.5508C98.3408 24.6754 98.9321 26.2104 98.9321 28.1558V39.6842C98.9321 39.8017 98.8893 39.9011 98.8036 39.9827C98.718 40.0656 98.6144 40.1056 98.4928 40.1056H95.1298C95.0083 40.1056 94.9046 40.0656 94.819 39.9827C94.7333 39.9011 94.6905 39.8017 94.6905 39.6842V28.9986C94.6905 27.9209 94.3741 27.0477 93.7399 26.3804C93.1057 25.713 92.2657 25.3787 91.2184 25.3787C90.1711 25.3787 89.3242 25.7075 88.6789 26.3624C88.0337 27.0187 87.7104 27.8864 87.7104 28.964V39.6842C87.7104 39.8017 87.6676 39.9011 87.5819 39.9827C87.4963 40.0656 87.3926 40.1056 87.271 40.1056H83.9081C83.7865 40.1056 83.6829 40.0656 83.5972 39.9827C83.5116 39.9011 83.4688 39.8017 83.4688 39.6842V22.567C83.4688 22.4496 83.5116 22.3501 83.5972 22.2686C83.6829 22.1871 83.7851 22.1456 83.9081 22.1456H87.271C87.3926 22.1456 87.4963 22.1871 87.5819 22.2686C87.6676 22.3515 87.7104 22.451 87.7104 22.567V23.6917C87.7104 23.7622 87.7339 23.8091 87.7836 23.8326C87.832 23.8561 87.8693 23.8326 87.8928 23.7622C88.8917 22.4966 90.4019 21.8638 92.4246 21.8638C94.399 21.8638 95.9768 22.4261 97.1595 23.5508Z" fill="#A7A4B5" style="fill:#A7A4B5;fill:color(display-p3 0.6549 0.6431 0.7098);fill-opacity:1;"/>
<path d="M112.833 22.6384C114.002 23.1537 114.905 23.8625 115.537 24.7647C116.17 25.6669 116.488 26.6921 116.488 27.8403V39.6851C116.488 39.8026 116.445 39.902 116.359 39.9835C116.274 40.0664 116.17 40.1065 116.049 40.1065H112.686C112.564 40.1065 112.46 40.0664 112.375 39.9835C112.289 39.902 112.246 39.8026 112.246 39.6851V38.5605C112.246 38.49 112.221 38.4499 112.173 38.4375C112.123 38.4264 112.075 38.443 112.027 38.49C110.833 39.7556 109.103 40.3884 106.837 40.3884C105.009 40.3884 103.505 39.9435 102.323 39.0523C101.141 38.1625 100.551 36.8375 100.551 35.0801C100.551 33.2522 101.214 31.8291 102.543 30.8094C103.871 29.7898 105.742 29.2799 108.152 29.2799H112.063C112.184 29.2799 112.245 29.2219 112.245 29.1045V28.2603C112.245 27.347 111.964 26.6382 111.405 26.1339C110.844 25.6296 110.004 25.3782 108.883 25.3782C107.958 25.3782 107.207 25.5357 106.635 25.8521C106.062 26.1685 105.703 26.6078 105.558 27.1702C105.485 27.452 105.313 27.5695 105.047 27.5211L101.501 27.0997C101.38 27.0762 101.276 27.0362 101.19 26.9767C101.105 26.9187 101.074 26.8427 101.099 26.7488C101.294 25.3202 102.091 24.1471 103.494 23.2339C104.895 22.3206 106.655 21.8633 108.774 21.8633C110.312 21.8647 111.665 22.123 112.833 22.6384ZM110.831 36.2407C111.684 35.6314 112.111 34.8576 112.111 33.9209V32.2684C112.111 32.151 112.05 32.093 111.929 32.093H108.858C107.567 32.093 106.55 32.3279 105.806 32.7962C105.063 33.2646 104.691 33.9333 104.691 34.7996C104.691 35.5499 104.977 36.1301 105.551 36.5391C106.123 36.9495 106.861 37.1539 107.761 37.1539C108.955 37.1553 109.979 36.8514 110.831 36.2407Z" fill="#A7A4B5" style="fill:#A7A4B5;fill:color(display-p3 0.6549 0.6431 0.7098);fill-opacity:1;"/>
<path d="M134.505 31.0741C134.505 32.7376 134.273 34.2021 133.81 35.4677C133.274 37.0138 132.409 38.2213 131.216 39.0876C130.022 39.9553 128.56 40.3877 126.83 40.3877C125.124 40.3877 123.724 39.7674 122.627 38.5253C122.578 38.4548 122.529 38.4313 122.481 38.4548C122.431 38.4783 122.408 38.5253 122.408 38.5958V39.6859C122.408 39.8033 122.365 39.9028 122.279 39.9843C122.194 40.0672 122.09 40.1073 121.968 40.1073H118.605C118.484 40.1073 118.38 40.0672 118.295 39.9843C118.209 39.9028 118.166 39.8033 118.166 39.6859V15.9243C118.166 15.8069 118.209 15.7074 118.295 15.6259C118.38 15.5444 118.482 15.5029 118.605 15.5029H121.968C122.09 15.5029 122.194 15.5444 122.279 15.6259C122.365 15.7088 122.408 15.8083 122.408 15.9243V23.551C122.408 23.6215 122.431 23.6685 122.481 23.6919C122.529 23.7154 122.578 23.7044 122.627 23.6574C123.675 22.4623 125.063 21.8654 126.794 21.8654C128.597 21.8654 130.09 22.2992 131.271 23.1655C132.452 24.0332 133.324 25.2394 133.884 26.7854C134.298 28.098 134.505 29.5266 134.505 31.0741ZM130.156 31.1432C130.156 29.3152 129.79 27.8866 129.059 26.8545C128.401 25.8708 127.426 25.3789 126.135 25.3789C124.942 25.3789 124.027 25.8943 123.394 26.925C122.785 27.8866 122.481 29.2793 122.481 31.1072C122.481 32.9117 122.761 34.2712 123.321 35.1845C123.954 36.3091 124.904 36.8715 126.171 36.8715C126.852 36.8715 127.462 36.725 127.999 36.4321C128.535 36.1392 128.961 35.7233 129.279 35.1845C129.863 34.2021 130.156 32.855 130.156 31.1432Z" fill="#A7A4B5" style="fill:#A7A4B5;fill:color(display-p3 0.6549 0.6431 0.7098);fill-opacity:1;"/>
<path d="M136.256 40.0103C136.17 39.9287 136.127 39.8293 136.127 39.7118V15.9517C136.127 15.8342 136.17 15.7348 136.256 15.6532C136.341 15.5717 136.443 15.5303 136.566 15.5303H139.929C140.051 15.5303 140.155 15.5717 140.24 15.6532C140.326 15.7361 140.369 15.8356 140.369 15.9517V39.7118C140.369 39.8293 140.326 39.9287 140.24 40.0103C140.155 40.0932 140.051 40.1332 139.929 40.1332H136.565C136.443 40.1332 136.34 40.0932 136.256 40.0103Z" fill="#A7A4B5" style="fill:#A7A4B5;fill:color(display-p3 0.6549 0.6431 0.7098);fill-opacity:1;"/>
<path d="M158.342 31.0456L158.307 32.1357C158.307 32.4176 158.16 32.5571 157.869 32.5571H146.429C146.307 32.5571 146.246 32.6165 146.246 32.7326C146.319 33.5063 146.429 34.0327 146.575 34.3146C147.159 36.0015 148.585 36.8568 150.851 36.8803C152.508 36.8803 153.823 36.224 154.799 34.9114C154.895 34.7705 155.018 34.7 155.163 34.7C155.26 34.7 155.346 34.7346 155.419 34.805L157.685 36.597C157.904 36.7614 157.94 36.948 157.794 37.1594C157.038 38.1901 156.034 38.9873 154.779 39.5496C153.525 40.1119 152.129 40.3938 150.594 40.3938C148.694 40.3938 147.079 39.9834 145.751 39.1641C144.424 38.3448 143.455 37.1953 142.846 35.7197C142.285 34.4541 142.006 32.6966 142.006 30.4473C142.006 29.0892 142.152 27.9866 142.444 27.1438C142.932 25.5038 143.85 24.2092 145.203 23.26C146.556 22.3108 148.182 21.8369 150.082 21.8369C154.881 21.8369 157.585 24.2506 158.195 29.0781C158.293 29.6639 158.342 30.3202 158.342 31.0456ZM147.835 26.0012C147.238 26.435 146.817 27.0374 146.574 27.8111C146.427 28.2104 146.33 28.7244 146.281 29.3572C146.231 29.4746 146.281 29.5327 146.427 29.5327H153.847C153.968 29.5327 154.029 29.4746 154.029 29.3572C153.979 28.7714 153.907 28.3265 153.809 28.0212C153.59 27.177 153.157 26.5221 152.512 26.0523C151.867 25.5839 151.056 25.3491 150.082 25.3491C149.181 25.3518 148.432 25.5687 147.835 26.0012Z" fill="#A7A4B5" style="fill:#A7A4B5;fill:color(display-p3 0.6549 0.6431 0.7098);fill-opacity:1;"/>
<path d="M51.9264 29.9408L47.7 17.39C47.3946 16.4836 46.6209 15.8052 45.6814 15.6229L32.4894 13.0489C31.5693 12.8692 30.6104 13.1926 29.9873 13.8917L21.0397 23.9196C20.4028 24.634 20.1969 25.6412 20.5023 26.5475L24.7287 39.0984C25.0341 40.0061 25.8078 40.6831 26.7473 40.8655L39.9393 43.4395C40.1078 43.4727 40.2764 43.4879 40.445 43.4879C41.198 43.4879 41.9316 43.1673 42.4414 42.5967L51.389 32.5687C52.0259 31.8558 52.2318 30.8486 51.9264 29.9408ZM46.8199 17.687L49.5997 25.941L43.6918 16.6204C43.5647 16.4187 43.4086 16.2418 43.2331 16.0912L45.5059 16.5347C46.1166 16.6536 46.6209 17.0957 46.8199 17.687ZM42.4649 39.4549L37.3155 39.716L45.6455 34.894C45.6579 34.8871 45.6703 34.8788 45.6828 34.8706L43.678 38.6798C43.4404 39.1329 42.9748 39.43 42.4649 39.4549ZM29.523 39.3733L26.6133 34.7835C26.6686 34.8236 26.7252 34.8609 26.7846 34.8954L35.1809 39.7561C35.2196 39.7782 35.2596 39.8003 35.2997 39.8196L30.8246 40.0462C30.3009 40.0711 29.8021 39.8141 29.523 39.3733ZM29.9638 17.0349L35.1132 16.7738L26.7846 21.5957C26.7722 21.6026 26.7598 21.6109 26.7473 21.6192L28.7521 17.81C28.9897 17.3568 29.454 17.0612 29.9638 17.0349ZM42.907 17.1178L45.8168 21.7076C45.7615 21.6676 45.7049 21.6303 45.6455 21.5957L37.2492 16.7365C37.2105 16.7144 37.1705 16.6923 37.1304 16.6729L41.6055 16.4463C42.1264 16.4159 42.6266 16.6757 42.907 17.1178ZM45.7463 33.109C45.7463 33.5124 45.5294 33.8896 45.1799 34.0927L36.7836 38.9519C36.4327 39.155 35.9961 39.155 35.6451 38.9519L27.2502 34.0913C26.9007 33.8882 26.6838 33.5124 26.6838 33.1076V23.3808C26.6838 22.9774 26.9007 22.6002 27.2502 22.3971L35.6465 17.5378C35.822 17.4356 36.0182 17.3858 36.2157 17.3858C36.4119 17.3858 36.6095 17.437 36.785 17.5378L45.1799 22.3984C45.5294 22.6002 45.7463 22.9774 45.7463 23.3822V33.109ZM25.7898 33.4834L23.3512 29.6355C23.0735 29.1975 23.0514 28.6393 23.2932 28.1806L25.7539 23.5038V33.1076C25.7539 33.2361 25.7664 33.3604 25.7898 33.4834ZM46.6403 23.0064L49.0789 26.8543C49.3566 27.2922 49.3787 27.8504 49.1369 28.3091L46.6748 32.986V23.3822C46.6748 23.2551 46.6624 23.1293 46.6403 23.0064ZM30.6822 14.5106C31.0152 14.1376 31.4933 13.929 31.9838 13.929C32.0929 13.929 32.2034 13.94 32.314 13.9607L40.55 15.5676L29.9182 16.1064C29.6239 16.1216 29.3407 16.1921 29.0782 16.3082L30.6822 14.5106ZM21.7333 24.5386L27.6509 17.9081L22.4711 27.7496C22.315 28.0452 22.228 28.3672 22.2045 28.6918L21.3838 26.2532C21.1834 25.6605 21.3188 25.0042 21.7333 24.5386ZM25.6088 38.8027L22.829 30.5488L28.7369 39.8693C28.864 40.0697 29.0201 40.2479 29.1956 40.3985L26.9242 39.955C26.3121 39.8362 25.8092 39.3941 25.6088 38.8027ZM41.7478 41.9805C41.3416 42.4364 40.7158 42.6478 40.1161 42.5304L31.8801 40.9235L42.5119 40.3847C42.8062 40.3695 43.0894 40.299 43.3519 40.183L41.7478 41.9805ZM50.6954 31.9511L44.7792 38.583L49.959 28.7416C50.1151 28.4459 50.2021 28.124 50.2256 27.7993L51.0463 30.2379C51.2453 30.8292 51.1113 31.4855 50.6954 31.9511Z" fill="#A7A4B5" style="fill:#A7A4B5;fill:color(display-p3 0.6549 0.6431 0.7098);fill-opacity:1;"/>
</svg>
