<svg width="122" height="104" viewBox="0 0 122 104" fill="none" xmlns="http://www.w3.org/2000/svg">
<g clip-path="url(#clip0_322_1848)">
<path fill-rule="evenodd" clip-rule="evenodd" d="M17.5093 67.9093H0L6.17794 58.601L0 48.7958H17.5093V67.9093Z" fill="#6D697D" style="fill:#6D697D;fill:color(display-p3 0.4275 0.4118 0.4902);fill-opacity:1;"/>
<path fill-rule="evenodd" clip-rule="evenodd" d="M104.492 67.9093H122.001L115.824 58.601L122.001 48.7958H104.492V67.9093Z" fill="#6D697D" style="fill:#6D697D;fill:color(display-p3 0.4275 0.4118 0.4902);fill-opacity:1;"/>
<path d="M9.03906 62.2766L20.6742 68.6965L16.5455 58.2402H9.03906V62.2766Z" fill="#5B576B" style="fill:#5B576B;fill:color(display-p3 0.3569 0.3412 0.4196);fill-opacity:1;"/>
<path d="M112.85 62.2766L101.215 68.6965L105.344 58.2402H112.85V62.2766Z" fill="#5B576B" style="fill:#5B576B;fill:color(display-p3 0.3569 0.3412 0.4196);fill-opacity:1;"/>
<path d="M108.445 25.9888V77.9888L61.2944 104L14.1211 77.9888V25.9888L61.2944 0L108.445 25.9888Z" fill="#292733" style="fill:#292733;fill:color(display-p3 0.1608 0.1529 0.2000);fill-opacity:1;"/>
<path d="M105.282 27.467V76.7562L61.1261 101.413L16.9452 76.7562V27.467L61.1261 2.81055L105.282 27.467Z" fill="url(#paint0_radial_322_1848)"/>
<path d="M105.282 27.467V76.7562L61.1261 101.413L16.9452 76.7562V27.467L61.1261 2.81055L105.282 27.467Z" fill="#292733" style="fill:#292733;fill:color(display-p3 0.1608 0.1529 0.2000);fill-opacity:1;"/>
<path d="M105.282 27.4671V76.7564L61.1261 101.413L16.9452 76.7564V27.4671L61.1261 2.81067L105.282 27.4671Z" stroke="#4A4658" style="stroke:#4A4658;stroke:color(display-p3 0.2902 0.2745 0.3451);stroke-opacity:1;" stroke-width="1.03784" stroke-miterlimit="10"/>
<path fill-rule="evenodd" clip-rule="evenodd" d="M9.03906 62.2879C9.03906 62.3498 9.0899 62.4004 9.15203 62.4004H112.852C112.914 62.4004 112.965 62.3498 112.965 62.2879V43.3993C112.965 43.3375 112.914 43.2869 112.852 43.2869H9.15203C9.0899 43.2869 9.03906 43.3375 9.03906 43.3993V62.2879Z" fill="#A7A4B5" style="fill:#A7A4B5;fill:color(display-p3 0.6549 0.6431 0.7098);fill-opacity:1;"/>
<path d="M53.2055 23.4982H51.2852V33.9544H53.2055V23.4982Z" fill="white" style="fill:white;fill-opacity:1;"/>
<path d="M59.588 30.7859C59.588 32.4218 58.0834 32.5443 57.6507 32.5443C56.5798 32.5443 56.3121 31.583 56.3121 31.0107V26.9834H54.7871V31.0107C54.7871 32.0125 55.0966 32.8501 55.6727 33.4235C56.1878 33.9137 56.9086 34.1802 57.7535 34.1802C58.4132 34.1802 58.9487 33.9756 59.5869 33.6079V33.8946H61.3378V26.9856H59.5869V30.7881L59.588 30.7859Z" fill="white" style="fill:white;fill-opacity:1;"/>
<path d="M64.9012 24.623H62.9774V27.0685H61.9043V28.4131H62.9774V33.9549H64.9012V28.4131H66.1969V27.0685H64.9012V24.623Z" fill="white" style="fill:white;fill-opacity:1;"/>
<path d="M71.8407 31.9355C71.4307 32.2807 70.9189 32.4629 70.3869 32.4426C69.1579 32.4426 68.2372 31.5701 68.2372 30.393C68.2372 29.2158 69.1183 28.3838 70.3869 28.3838C70.9189 28.3838 71.4521 28.5659 71.8611 28.8909L72.1276 29.1146L73.3149 27.9779L73.0076 27.7137C72.2914 27.1043 71.3493 26.7592 70.3666 26.7592C68.1547 26.7592 66.5371 28.2815 66.5371 30.393C66.5371 32.5045 68.1954 34.0673 70.3666 34.0673C71.3493 34.0875 72.2914 33.7423 73.0291 33.1127L73.316 32.8485L72.1073 31.7118L71.8407 31.9355Z" fill="white" style="fill:white;fill-opacity:1;"/>
<path d="M79.6802 27.6981C79.1662 27.209 78.4274 26.9437 77.5847 26.9437C76.9273 26.9437 76.2292 27.1472 75.7366 27.5148V23.4999H73.9902V33.9561H75.7366V30.3279C75.7366 28.6976 77.1329 28.5751 77.5644 28.5751C78.6116 28.5751 78.7968 29.533 78.7968 30.1042V33.9561H80.5432V30.1042C80.5229 29.0855 80.2766 28.249 79.6802 27.6992V27.6981Z" fill="white" style="fill:white;fill-opacity:1;"/>
<path d="M70.3206 31.7058C71.0379 31.7058 71.6196 31.1526 71.6196 30.4691C71.6196 29.7855 71.0379 29.2323 70.3206 29.2323C69.6032 29.2323 69.0215 29.7855 69.0215 30.4691C69.0215 31.1526 69.6032 31.7058 70.3206 31.7058Z" fill="#A7A4B5" style="fill:#A7A4B5;fill:color(display-p3 0.6549 0.6431 0.7098);fill-opacity:1;"/>
<path d="M49.1687 31.5274C48.4898 32.1807 47.5646 32.5686 46.5988 32.5472C44.6039 32.5472 43.1647 31.0575 43.1647 29.0179C43.1647 26.9784 44.6039 25.4685 46.5988 25.4685C47.5646 25.4685 48.4909 25.8361 49.1484 26.4882L49.4161 26.7536L50.609 25.6112L50.3413 25.3459C49.354 24.3666 47.9973 23.8359 46.5785 23.8359C43.6584 23.8359 41.459 26.0599 41.459 29.0179C41.459 31.976 43.6595 34.1797 46.5785 34.1797C47.9973 34.1797 49.354 33.649 50.3413 32.6698L50.609 32.4044L49.4364 31.2419L49.1687 31.5274Z" fill="white" style="fill:white;fill-opacity:1;"/>
<path d="M53.0212 77.0654C52.6822 77.0654 52.3989 76.9927 52.1713 76.8474C51.9485 76.7021 51.779 76.5011 51.6627 76.2445C51.5465 75.9878 51.4787 75.6899 51.4593 75.3509L52.1858 75.1547C52.2003 75.363 52.2318 75.564 52.2802 75.7577C52.3335 75.9514 52.4183 76.1113 52.5345 76.2372C52.6507 76.3583 52.813 76.4188 53.0212 76.4188C53.2343 76.4188 53.3942 76.3607 53.5007 76.2445C53.6121 76.1234 53.6678 75.9514 53.6678 75.7286C53.6678 75.4623 53.6073 75.2492 53.4862 75.0893C53.3651 74.9247 53.2126 74.76 53.0285 74.5953L52.0405 73.7235C51.8468 73.554 51.7039 73.37 51.6119 73.1714C51.5198 72.968 51.4738 72.7186 51.4738 72.4231C51.4738 71.9921 51.5973 71.6579 51.8443 71.4206C52.0913 71.1833 52.4279 71.0646 52.8542 71.0646C53.0866 71.0646 53.29 71.0961 53.4644 71.159C53.6436 71.2172 53.7913 71.3092 53.9076 71.4351C54.0286 71.561 54.1231 71.7209 54.1909 71.9146C54.2635 72.1035 54.312 72.3263 54.3362 72.583L53.6388 72.7718C53.6242 72.5781 53.5952 72.4013 53.5516 72.2415C53.508 72.0768 53.4305 71.9461 53.3191 71.8492C53.2126 71.7475 53.0576 71.6966 52.8542 71.6966C52.6507 71.6966 52.4909 71.7523 52.3747 71.8637C52.2633 71.9703 52.2076 72.1301 52.2076 72.3432C52.2076 72.5224 52.2366 72.6701 52.2948 72.7864C52.3577 72.9026 52.457 73.0213 52.5926 73.1424L53.5879 74.0141C53.8107 74.2079 54.0068 74.4403 54.1764 74.7116C54.3459 74.9779 54.4306 75.2952 54.4306 75.6633C54.4306 75.9539 54.3701 76.2057 54.249 76.4188C54.1279 76.6271 53.9608 76.7869 53.7477 76.8983C53.5395 77.0097 53.2973 77.0654 53.0212 77.0654ZM55.0674 77V71.1155H56.5277C56.8812 71.1155 57.1621 71.1808 57.3704 71.3116C57.5835 71.4375 57.7385 71.6216 57.8354 71.8637C57.9322 72.1059 57.9807 72.3989 57.9807 72.7428C57.9807 73.0528 57.925 73.3216 57.8136 73.5492C57.707 73.7768 57.5472 73.9536 57.3341 74.0795C57.121 74.2006 56.8546 74.2611 56.5349 74.2611H55.8884V77H55.0674ZM55.8884 73.6727H56.2661C56.5035 73.6727 56.6899 73.6461 56.8255 73.5928C56.9611 73.5395 57.058 73.4475 57.1161 73.3167C57.1743 73.1811 57.2033 72.9922 57.2033 72.7501C57.2033 72.4691 57.1815 72.2536 57.1379 72.1035C57.0992 71.9533 57.0144 71.8492 56.8837 71.7911C56.7529 71.733 56.5495 71.7039 56.2734 71.7039H55.8884V73.6727ZM58.558 77V71.1155H59.7422C60.1345 71.1155 60.459 71.1687 60.7156 71.2753C60.9723 71.377 61.1612 71.5441 61.2823 71.7766C61.4082 72.0042 61.4712 72.3045 61.4712 72.6774C61.4712 72.905 61.447 73.1133 61.3985 73.3022C61.3501 73.4862 61.2726 73.6436 61.1661 73.7744C61.0595 73.9003 60.9191 73.9923 60.7447 74.0505L61.5802 77H60.7883L60.0182 74.2394H59.3789V77H58.558ZM59.3789 73.6509H59.6913C59.9238 73.6509 60.1127 73.6218 60.258 73.5637C60.4033 73.5056 60.5098 73.4063 60.5776 73.2659C60.6454 73.1254 60.6793 72.9293 60.6793 72.6774C60.6793 72.3335 60.6164 72.0865 60.4904 71.9364C60.3645 71.7814 60.1151 71.7039 59.7422 71.7039H59.3789V73.6509ZM62.3688 77V71.1155H63.1752V77H62.3688ZM64.1272 77V71.1155H64.6866L66.3575 75.024V71.1155H67.0404V77H66.5174L64.8247 72.9825V77H64.1272ZM69.3675 77.0726C68.9994 77.0726 68.704 76.9952 68.4812 76.8402C68.2633 76.6803 68.1034 76.4503 68.0017 76.15C67.9049 75.8497 67.8564 75.4889 67.8564 75.0675V73.0988C67.8564 72.6677 67.9 72.3021 67.9872 72.0018C68.0792 71.6966 68.2391 71.4642 68.4667 71.3043C68.6992 71.1445 69.0212 71.0646 69.4329 71.0646C69.801 71.0646 70.0964 71.1276 70.3192 71.2535C70.5469 71.3746 70.7115 71.5635 70.8132 71.8202C70.9149 72.072 70.9658 72.3917 70.9658 72.7791V72.9971H70.1957V72.8154C70.1957 72.5587 70.1788 72.3505 70.1449 72.1907C70.111 72.026 70.0407 71.9049 69.9342 71.8274C69.8325 71.7451 69.6702 71.7039 69.4474 71.7039C69.2053 71.7039 69.0285 71.7596 68.9171 71.871C68.8106 71.9824 68.7428 72.135 68.7137 72.3287C68.6895 72.5176 68.6774 72.7331 68.6774 72.9753V75.1547C68.6774 75.4356 68.6967 75.6705 68.7355 75.8594C68.7791 76.0483 68.859 76.1888 68.9752 76.2808C69.0915 76.3728 69.2561 76.4188 69.4692 76.4188C69.6823 76.4188 69.847 76.368 69.9633 76.2662C70.0795 76.1645 70.1594 76.0144 70.203 75.8158C70.2466 75.6173 70.2684 75.3702 70.2684 75.0748V74.668H69.5201V74.0868H71.0094V77H70.4936L70.4137 76.3244C70.3362 76.5423 70.2151 76.7215 70.0504 76.862C69.8858 77.0024 69.6581 77.0726 69.3675 77.0726Z" fill="white" style="fill:white;fill-opacity:1;"/>
<path d="M54.9752 90V89.5267L56.258 87.5279C56.3534 87.3784 56.4406 87.2394 56.5195 87.1107C56.6025 86.982 56.6689 86.847 56.7188 86.7059C56.7727 86.5606 56.7997 86.3946 56.7997 86.2077C56.7997 85.9753 56.7624 85.7926 56.6876 85.6598C56.6129 85.5269 56.4821 85.4605 56.2953 85.4605C56.1376 85.4605 56.0151 85.5041 55.9279 85.5913C55.8408 85.6784 55.7806 85.7926 55.7473 85.9338C55.7141 86.0749 55.6975 86.2264 55.6975 86.3883V86.5565H55.0312V86.3821C55.0312 86.079 55.0707 85.8196 55.1496 85.6037C55.2326 85.3837 55.3633 85.2135 55.5419 85.0931C55.7245 84.9727 55.9653 84.9125 56.2642 84.9125C56.671 84.9125 56.9741 85.0288 57.1733 85.2612C57.3726 85.4896 57.4722 85.8071 57.4722 86.214C57.4722 86.4298 57.4453 86.6187 57.3913 86.7806C57.3415 86.9425 57.275 87.0941 57.192 87.2352C57.109 87.3763 57.0177 87.5216 56.918 87.6711L55.7598 89.4396H57.3539V90H54.9752ZM59.3063 90.056C59.0199 90.056 58.7833 89.9917 58.5965 89.863C58.4138 89.7343 58.2768 89.5579 58.1855 89.3337C58.0983 89.1095 58.0547 88.8542 58.0547 88.5678V86.3946C58.0547 86.0998 58.0983 85.8424 58.1855 85.6224C58.2727 85.3982 58.4076 85.2239 58.5902 85.0993C58.777 84.9748 59.0157 84.9125 59.3063 84.9125C59.5969 84.9125 59.8336 84.9748 60.0162 85.0993C60.1989 85.2239 60.3338 85.3982 60.421 85.6224C60.5082 85.8424 60.5517 86.0998 60.5517 86.3946V88.5678C60.5517 88.8584 60.5061 89.1158 60.4147 89.3399C60.3276 89.5641 60.1927 89.7405 60.01 89.8692C59.8273 89.9938 59.5928 90.056 59.3063 90.056ZM59.3063 89.5081C59.4641 89.5081 59.5824 89.4624 59.6613 89.3711C59.7443 89.2797 59.8003 89.1635 59.8294 89.0224C59.8626 88.8771 59.8792 88.7276 59.8792 88.574V86.3883C59.8792 86.2264 59.8647 86.0749 59.8356 85.9338C59.8066 85.7885 59.7505 85.6722 59.6675 85.585C59.5886 85.4979 59.4682 85.4543 59.3063 85.4543C59.1444 85.4543 59.022 85.4979 58.9389 85.585C58.8559 85.6722 58.7999 85.7885 58.7708 85.9338C58.7418 86.0749 58.7272 86.2264 58.7272 86.3883V88.574C58.7272 88.7276 58.7418 88.8771 58.7708 89.0224C58.804 89.1635 58.8621 89.2797 58.9452 89.3711C59.0323 89.4624 59.1527 89.5081 59.3063 89.5081ZM61.1657 90V89.5267L62.4485 87.5279C62.544 87.3784 62.6312 87.2394 62.71 87.1107C62.7931 86.982 62.8595 86.847 62.9093 86.7059C62.9633 86.5606 62.9903 86.3946 62.9903 86.2077C62.9903 85.9753 62.9529 85.7926 62.8782 85.6598C62.8034 85.5269 62.6727 85.4605 62.4859 85.4605C62.3281 85.4605 62.2057 85.5041 62.1185 85.5913C62.0313 85.6784 61.9711 85.7926 61.9379 85.9338C61.9047 86.0749 61.8881 86.2264 61.8881 86.3883V86.5565H61.2218V86.3821C61.2218 86.079 61.2612 85.8196 61.3401 85.6037C61.4231 85.3837 61.5539 85.2135 61.7324 85.0931C61.9151 84.9727 62.1558 84.9125 62.4547 84.9125C62.8616 84.9125 63.1646 85.0288 63.3639 85.2612C63.5631 85.4896 63.6628 85.8071 63.6628 86.214C63.6628 86.4298 63.6358 86.6187 63.5818 86.7806C63.532 86.9425 63.4656 87.0941 63.3826 87.2352C63.2995 87.3763 63.2082 87.5216 63.1086 87.6711L61.9503 89.4396H63.5445V90H61.1657ZM65.5539 90V88.6487H64.0906V87.9513L65.4045 84.9561H66.1891V88.0572H66.7558V88.6487H66.1891V90H65.5539ZM64.732 88.0572H65.5539V85.7656L64.732 88.0572Z" fill="white" style="fill:white;fill-opacity:1;"/>
<path d="M49.2578 57.5167C48.7214 57.5167 48.2909 57.4038 47.9663 57.178C47.6487 56.9451 47.4158 56.6099 47.2676 56.1723C47.1265 55.7348 47.0559 55.209 47.0559 54.595V51.7262C47.0559 51.0981 47.1194 50.5653 47.2465 50.1278C47.3806 49.6831 47.6134 49.3444 47.9451 49.1115C48.2839 48.8786 48.7532 48.7622 49.3531 48.7622C49.8894 48.7622 50.3199 48.8539 50.6446 49.0374C50.9762 49.2138 51.2162 49.4891 51.3644 49.8631C51.5126 50.2301 51.5867 50.6959 51.5867 51.2605V51.578H50.4646V51.3134C50.4646 50.9393 50.4399 50.6359 50.3905 50.403C50.3411 50.163 50.2388 49.9866 50.0835 49.8737C49.9353 49.7537 49.6989 49.6937 49.3742 49.6937C49.0214 49.6937 48.7638 49.7749 48.6015 49.9372C48.4462 50.0995 48.3474 50.3218 48.3051 50.6041C48.2698 50.8794 48.2521 51.1934 48.2521 51.5463V54.7221C48.2521 55.1314 48.2804 55.4737 48.3368 55.7489C48.4003 56.0241 48.5168 56.2288 48.6862 56.3629C48.8555 56.497 49.0955 56.564 49.406 56.564C49.7165 56.564 49.9565 56.4899 50.1258 56.3417C50.2952 56.1935 50.4117 55.9747 50.4752 55.6854C50.5387 55.396 50.5705 55.0361 50.5705 54.6056V54.0128H49.4801V53.1659H51.6502V57.4109H50.8986L50.7822 56.4264C50.6693 56.744 50.4928 57.0051 50.2529 57.2098C50.0129 57.4144 49.6812 57.5167 49.2578 57.5167ZM52.8798 57.4109V48.8363H54.0761V56.5534H56.2673V57.4109H52.8798ZM59.2166 57.5062C58.6379 57.5062 58.1757 57.3932 57.8298 57.1674C57.484 56.9416 57.237 56.6205 57.0888 56.2041C56.9406 55.7807 56.8665 55.2866 56.8665 54.7221V51.4722C56.8665 50.9076 56.9406 50.4242 57.0888 50.0219C57.2441 49.6126 57.4911 49.3021 57.8298 49.0903C58.1757 48.8716 58.6379 48.7622 59.2166 48.7622C59.7953 48.7622 60.254 48.8716 60.5928 49.0903C60.9315 49.3091 61.175 49.6196 61.3232 50.0219C61.4785 50.4242 61.5561 50.9076 61.5561 51.4722V54.7326C61.5561 55.2902 61.4785 55.7771 61.3232 56.1935C61.175 56.6099 60.9315 56.9345 60.5928 57.1674C60.254 57.3932 59.7953 57.5062 59.2166 57.5062ZM59.2166 56.564C59.5342 56.564 59.7741 56.5005 59.9365 56.3735C60.0988 56.2394 60.2082 56.0559 60.2646 55.823C60.3211 55.583 60.3493 55.3043 60.3493 54.9867V51.2287C60.3493 50.9111 60.3211 50.6394 60.2646 50.4136C60.2082 50.1807 60.0988 50.0043 59.9365 49.8843C59.7741 49.7572 59.5342 49.6937 59.2166 49.6937C58.899 49.6937 58.6556 49.7572 58.4862 49.8843C58.3239 50.0043 58.2145 50.1807 58.158 50.4136C58.1016 50.6394 58.0733 50.9111 58.0733 51.2287V54.9867C58.0733 55.3043 58.1016 55.583 58.158 55.823C58.2145 56.0559 58.3239 56.2394 58.4862 56.3735C58.6556 56.5005 58.899 56.564 59.2166 56.564ZM62.7318 57.4109V48.8363H64.7008C65.0889 48.8363 65.4242 48.8786 65.7065 48.9633C65.9958 49.048 66.2358 49.1786 66.4263 49.355C66.6168 49.5314 66.758 49.7572 66.8497 50.0325C66.9415 50.3007 66.9874 50.6182 66.9874 50.9852C66.9874 51.3381 66.9415 51.6451 66.8497 51.9062C66.765 52.1603 66.631 52.3614 66.4475 52.5096C66.271 52.6578 66.0417 52.7531 65.7594 52.7954C66.1052 52.873 66.384 53.0071 66.5957 53.1977C66.8074 53.3812 66.9627 53.6211 67.0615 53.9175C67.1673 54.2069 67.2202 54.5562 67.2202 54.9655C67.2202 55.3325 67.1779 55.6677 67.0932 55.9712C67.0085 56.2747 66.8744 56.5323 66.6909 56.744C66.5145 56.9557 66.2852 57.1215 66.0029 57.2415C65.7276 57.3544 65.3995 57.4109 65.0184 57.4109H62.7318ZM63.928 56.5534H64.7325C65.2689 56.5534 65.6253 56.4299 65.8017 56.1829C65.9852 55.9289 66.077 55.5231 66.077 54.9655C66.077 54.6056 66.0276 54.3057 65.9288 54.0657C65.837 53.8187 65.6853 53.6352 65.4736 53.5153C65.2689 53.3882 64.9901 53.3247 64.6373 53.3247H63.928V56.5534ZM63.928 52.4143H64.6373C64.976 52.4143 65.2407 52.3684 65.4312 52.2767C65.6218 52.1779 65.7559 52.0226 65.8335 51.8109C65.9111 51.5992 65.9499 51.324 65.9499 50.9852C65.9499 50.59 65.8899 50.3042 65.77 50.1278C65.65 49.9513 65.463 49.8419 65.2089 49.7996C64.9549 49.7502 64.6232 49.7255 64.2138 49.7255H63.928V52.4143ZM67.8071 57.4109L69.6279 48.8363H70.7818L72.6131 57.4109H71.4804L71.0887 55.2514H69.3421L68.9292 57.4109H67.8071ZM69.5009 54.3939H70.93L70.2101 50.53L69.5009 54.3939ZM73.4832 57.4109V48.8363H74.6794V56.5534H76.8707V57.4109H73.4832Z" fill="#1C1B24" style="fill:#1C1B24;fill:color(display-p3 0.1098 0.1059 0.1412);fill-opacity:1;"/>
</g>
<defs>
<radialGradient id="paint0_radial_322_1848" cx="0" cy="0" r="1" gradientTransform="matrix(-86.4197 98.5995 199.149 172.912 95.0663 11.5121)" gradientUnits="userSpaceOnUse">
<stop stop-color="#17313B" style="stop-color:#17313B;stop-color:color(display-p3 0.0902 0.1922 0.2314);stop-opacity:1;"/>
<stop offset="1" stop-color="#2E5272" style="stop-color:#2E5272;stop-color:color(display-p3 0.1804 0.3216 0.4471);stop-opacity:1;"/>
</radialGradient>
<clipPath id="clip0_322_1848">
<rect width="122" height="104" fill="white" style="fill:white;fill-opacity:1;"/>
</clipPath>
</defs>
</svg>
