<svg width="121" height="104" viewBox="0 0 121 104" fill="none" xmlns="http://www.w3.org/2000/svg">
<g clip-path="url(#clip0_322_1805)">
<path fill-rule="evenodd" clip-rule="evenodd" d="M17.3659 67.9093H0.000183105L6.12749 58.601L0.000183105 48.7958H17.3659V67.9093Z" fill="#6D697D" style="fill:#6D697D;fill:color(display-p3 0.4275 0.4118 0.4902);fill-opacity:1;"/>
<path fill-rule="evenodd" clip-rule="evenodd" d="M103.635 67.9093H121.001L114.873 58.601L121.001 48.7958H103.635V67.9093Z" fill="#6D697D" style="fill:#6D697D;fill:color(display-p3 0.4275 0.4118 0.4902);fill-opacity:1;"/>
<path d="M8.96289 62.2766L20.5027 68.6965L16.4078 58.2402H8.96289V62.2766Z" fill="#5B576B" style="fill:#5B576B;fill:color(display-p3 0.3569 0.3412 0.4196);fill-opacity:1;"/>
<path d="M111.925 62.2766L100.385 68.6965L104.48 58.2402H111.925V62.2766Z" fill="#5B576B" style="fill:#5B576B;fill:color(display-p3 0.3569 0.3412 0.4196);fill-opacity:1;"/>
<path d="M107.555 25.9888V77.9888L60.7906 104L14.0039 77.9888V25.9888L60.7906 0L107.555 25.9888Z" fill="#292733" style="fill:#292733;fill:color(display-p3 0.1608 0.1529 0.2000);fill-opacity:1;"/>
<path d="M104.42 27.467V76.7562L60.6255 101.413L16.8066 76.7562V27.467L60.6255 2.81055L104.42 27.467Z" fill="url(#paint0_radial_322_1805)"/>
<path d="M104.42 27.467V76.7562L60.6255 101.413L16.8066 76.7562V27.467L60.6255 2.81055L104.42 27.467Z" fill="#292733" style="fill:#292733;fill:color(display-p3 0.1608 0.1529 0.2000);fill-opacity:1;"/>
<path d="M104.42 27.4671V76.7564L60.6254 101.413L16.8066 76.7564V27.4671L60.6254 2.81067L104.42 27.4671Z" stroke="#4A4658" style="stroke:#4A4658;stroke:color(display-p3 0.2902 0.2745 0.3451);stroke-opacity:1;" stroke-width="1.03784" stroke-miterlimit="10"/>
<path fill-rule="evenodd" clip-rule="evenodd" d="M8.96289 62.2879C8.96289 62.3498 9.01331 62.4004 9.07493 62.4004H111.925C111.987 62.4004 112.037 62.3498 112.037 62.2879V43.3993C112.037 43.3375 111.987 43.2869 111.925 43.2869H9.07493C9.01331 43.2869 8.96289 43.3375 8.96289 43.3993V62.2879Z" fill="#A7A4B5" style="fill:#A7A4B5;fill:color(display-p3 0.6549 0.6431 0.7098);fill-opacity:1;"/>
<path d="M52.7699 23.4982H50.8652V33.9544H52.7699V23.4982Z" fill="white" style="fill:white;fill-opacity:1;"/>
<path d="M59.0993 30.7859C59.0993 32.4218 57.6069 32.5443 57.1778 32.5443C56.1157 32.5443 55.8502 31.583 55.8502 31.0107V26.9834H54.3377V31.0107C54.3377 32.0125 54.6447 32.8501 55.2161 33.4235C55.727 33.9137 56.4418 34.1802 57.2798 34.1802C57.9341 34.1802 58.4652 33.9756 59.0982 33.6079V33.8946H60.8347V26.9856H59.0982V30.7881L59.0993 30.7859Z" fill="white" style="fill:white;fill-opacity:1;"/>
<path d="M64.3688 24.623H62.4608V27.0685H61.3965V28.4131H62.4608V33.9549H64.3688V28.4131H65.6539V27.0685H64.3688V24.623Z" fill="white" style="fill:white;fill-opacity:1;"/>
<path d="M71.2504 31.9355C70.8437 32.2807 70.3362 32.4629 69.8085 32.4426C68.5895 32.4426 67.6764 31.5701 67.6764 30.393C67.6764 29.2158 68.5503 28.3838 69.8085 28.3838C70.3362 28.3838 70.865 28.5659 71.2705 28.8909L71.5349 29.1146L72.7125 27.9779L72.4077 27.7137C71.6974 27.1043 70.763 26.7592 69.7883 26.7592C67.5946 26.7592 65.9902 28.2815 65.9902 30.393C65.9902 32.5045 67.6349 34.0673 69.7883 34.0673C70.763 34.0875 71.6974 33.7423 72.429 33.1127L72.7136 32.8485L71.5148 31.7118L71.2504 31.9355Z" fill="white" style="fill:white;fill-opacity:1;"/>
<path d="M79.0261 27.6981C78.5163 27.209 77.7836 26.9437 76.9478 26.9437C76.2958 26.9437 75.6034 27.1472 75.1149 27.5148V23.4999H73.3828V33.9561H75.1149V30.3279C75.1149 28.6976 76.4997 28.5751 76.9277 28.5751C77.9662 28.5751 78.15 29.533 78.15 30.1042V33.9561H79.8821V30.1042C79.8619 29.0855 79.6177 28.249 79.0261 27.6992V27.6981Z" fill="white" style="fill:white;fill-opacity:1;"/>
<path d="M69.7435 31.7058C70.4549 31.7058 71.0319 31.1526 71.0319 30.4691C71.0319 29.7855 70.4549 29.2323 69.7435 29.2323C69.0321 29.2323 68.4551 29.7855 68.4551 30.4691C68.4551 31.1526 69.0321 31.7058 69.7435 31.7058Z" fill="#A7A4B5" style="fill:#A7A4B5;fill:color(display-p3 0.6549 0.6431 0.7098);fill-opacity:1;"/>
<path d="M48.7657 31.5274C48.0923 32.1807 47.1747 32.5686 46.2168 32.5472C44.2383 32.5472 42.8109 31.0575 42.8109 29.0179C42.8109 26.9784 44.2383 25.4685 46.2168 25.4685C47.1747 25.4685 48.0934 25.8361 48.7455 26.4882L49.011 26.7536L50.1941 25.6112L49.9286 25.3459C48.9494 24.3666 47.6038 23.8359 46.1967 23.8359C43.3005 23.8359 41.1191 26.0599 41.1191 29.0179C41.1191 31.976 43.3016 34.1797 46.1967 34.1797C47.6038 34.1797 48.9494 33.649 49.9286 32.6698L50.1941 32.4044L49.0312 31.2419L48.7657 31.5274Z" fill="white" style="fill:white;fill-opacity:1;"/>
<path d="M54.8494 77V71.1155H57.1234V71.7039H55.6704V73.6654H56.7964V74.2466H55.6704V77H54.8494ZM57.098 77L58.3476 71.1155H59.1395L60.3963 77H59.6189L59.3501 75.518H58.1514L57.8681 77H57.098ZM58.2604 74.9295H59.2412L58.7472 72.2778L58.2604 74.9295ZM60.9934 77V71.1155H61.8143V76.4115H63.3181V77H60.9934ZM63.8809 77V71.1155H64.7018V76.4115H66.2056V77H63.8809Z" fill="white" style="fill:white;fill-opacity:1;"/>
<path d="M54.5407 90V89.5267L55.8234 87.5279C55.9189 87.3784 56.0061 87.2394 56.085 87.1107C56.168 86.982 56.2344 86.847 56.2842 86.7059C56.3382 86.5606 56.3652 86.3946 56.3652 86.2077C56.3652 85.9753 56.3278 85.7926 56.2531 85.6598C56.1784 85.5269 56.0476 85.4605 55.8608 85.4605C55.703 85.4605 55.5806 85.5041 55.4934 85.5913C55.4062 85.6784 55.346 85.7926 55.3128 85.9338C55.2796 86.0749 55.263 86.2264 55.263 86.3883V86.5565H54.5967V86.3821C54.5967 86.079 54.6361 85.8196 54.715 85.6037C54.798 85.3837 54.9288 85.2135 55.1073 85.0931C55.29 84.9727 55.5307 84.9125 55.8296 84.9125C56.2365 84.9125 56.5395 85.0288 56.7388 85.2612C56.9381 85.4896 57.0377 85.8071 57.0377 86.214C57.0377 86.4298 57.0107 86.6187 56.9567 86.7806C56.9069 86.9425 56.8405 87.0941 56.7575 87.2352C56.6744 87.3763 56.5831 87.5216 56.4835 87.6711L55.3253 89.4396H56.9194V90H54.5407ZM58.8718 90.056C58.5853 90.056 58.3487 89.9917 58.1619 89.863C57.9793 89.7343 57.8423 89.5579 57.7509 89.3337C57.6637 89.1095 57.6202 88.8542 57.6202 88.5678V86.3946C57.6202 86.0998 57.6637 85.8424 57.7509 85.6224C57.8381 85.3982 57.973 85.2239 58.1557 85.0993C58.3425 84.9748 58.5812 84.9125 58.8718 84.9125C59.1624 84.9125 59.399 84.9748 59.5817 85.0993C59.7643 85.2239 59.8993 85.3982 59.9864 85.6224C60.0736 85.8424 60.1172 86.0998 60.1172 86.3946V88.5678C60.1172 88.8584 60.0715 89.1158 59.9802 89.3399C59.893 89.5641 59.7581 89.7405 59.5754 89.8692C59.3928 89.9938 59.1582 90.056 58.8718 90.056ZM58.8718 89.5081C59.0295 89.5081 59.1479 89.4624 59.2267 89.3711C59.3098 89.2797 59.3658 89.1635 59.3949 89.0224C59.4281 88.8771 59.4447 88.7276 59.4447 88.574V86.3883C59.4447 86.2264 59.4301 86.0749 59.4011 85.9338C59.372 85.7885 59.316 85.6722 59.233 85.585C59.1541 85.4979 59.0337 85.4543 58.8718 85.4543C58.7099 85.4543 58.5874 85.4979 58.5044 85.585C58.4214 85.6722 58.3653 85.7885 58.3363 85.9338C58.3072 86.0749 58.2927 86.2264 58.2927 86.3883V88.574C58.2927 88.7276 58.3072 88.8771 58.3363 89.0224C58.3695 89.1635 58.4276 89.2797 58.5106 89.3711C58.5978 89.4624 58.7182 89.5081 58.8718 89.5081ZM60.7312 90V89.5267L62.014 87.5279C62.1094 87.3784 62.1966 87.2394 62.2755 87.1107C62.3585 86.982 62.4249 86.847 62.4748 86.7059C62.5287 86.5606 62.5557 86.3946 62.5557 86.2077C62.5557 85.9753 62.5183 85.7926 62.4436 85.6598C62.3689 85.5269 62.2381 85.4605 62.0513 85.4605C61.8936 85.4605 61.7711 85.5041 61.6839 85.5913C61.5967 85.6784 61.5366 85.7926 61.5033 85.9338C61.4701 86.0749 61.4535 86.2264 61.4535 86.3883V86.5565H60.7872V86.3821C60.7872 86.079 60.8267 85.8196 60.9055 85.6037C60.9886 85.3837 61.1193 85.2135 61.2979 85.0931C61.4805 84.9727 61.7213 84.9125 62.0202 84.9125C62.427 84.9125 62.7301 85.0288 62.9293 85.2612C63.1286 85.4896 63.2282 85.8071 63.2282 86.214C63.2282 86.4298 63.2012 86.6187 63.1473 86.7806C63.0975 86.9425 63.031 87.0941 62.948 87.2352C62.865 87.3763 62.7737 87.5216 62.674 87.6711L61.5158 89.4396H63.1099V90H60.7312ZM65.1194 90V88.6487H63.656V87.9513L64.9699 84.9561H65.7546V88.0572H66.3212V88.6487H65.7546V90H65.1194ZM64.2974 88.0572H65.1194V85.7656L64.2974 88.0572Z" fill="white" style="fill:white;fill-opacity:1;"/>
<path d="M41.5913 57.5062C40.9844 57.5062 40.5116 57.3791 40.1728 57.1251C39.8411 56.871 39.6082 56.5287 39.4741 56.0982C39.3471 55.6677 39.2836 55.1878 39.2836 54.6585V51.631C39.2836 51.0523 39.3471 50.5477 39.4741 50.1172C39.6082 49.6867 39.8411 49.355 40.1728 49.1221C40.5116 48.8821 40.9844 48.7622 41.5913 48.7622C42.1277 48.7622 42.5511 48.861 42.8616 49.0586C43.1792 49.2562 43.4051 49.5385 43.5391 49.9055C43.6803 50.2724 43.7509 50.7135 43.7509 51.2287V51.9062H42.6182V51.3028C42.6182 50.9852 42.6005 50.7065 42.5652 50.4665C42.537 50.2195 42.4523 50.029 42.3112 49.8949C42.17 49.7608 41.9336 49.6937 41.6019 49.6937C41.2632 49.6937 41.0162 49.7678 40.8609 49.916C40.7056 50.0572 40.6033 50.2618 40.5539 50.53C40.5116 50.7911 40.4904 51.0981 40.4904 51.451V54.8491C40.4904 55.2796 40.5257 55.6219 40.5962 55.8759C40.6668 56.1229 40.7833 56.2994 40.9456 56.4052C41.1079 56.5111 41.3267 56.564 41.6019 56.564C41.9265 56.564 42.1594 56.4934 42.3006 56.3523C42.4417 56.2041 42.5299 56.003 42.5652 55.7489C42.6005 55.4948 42.6182 55.1984 42.6182 54.8597V54.2245H43.7509V54.8597C43.7509 55.3819 43.6873 55.8442 43.5603 56.2464C43.4333 56.6416 43.2145 56.9522 42.904 57.178C42.5935 57.3968 42.1559 57.5062 41.5913 57.5062ZM44.8904 57.4109V48.8363H46.0866V52.5414H48.2885V48.8363H49.4847V57.4109H48.2885V53.3988H46.0866V57.4109H44.8904ZM50.3586 57.4109L52.1793 48.8363H53.3332L55.1646 57.4109H54.0319L53.6402 55.2514H51.8935L51.4807 57.4109H50.3586ZM52.0523 54.3939H53.4814L52.7616 50.53L52.0523 54.3939ZM56.0134 57.4109L56.1722 48.8363H57.3473L58.8611 55.7912L60.3854 48.8363H61.5499L61.7087 57.4109H60.7454L60.6501 51.1864L59.1998 57.4109H58.5223L57.0826 51.1864L56.9873 57.4109H56.0134ZM63.023 57.4109V48.8363H65.1508C65.6659 48.8363 66.0753 48.9315 66.3787 49.1221C66.6893 49.3056 66.9151 49.5738 67.0562 49.9266C67.1974 50.2795 67.268 50.7065 67.268 51.2075C67.268 51.6592 67.1868 52.0509 67.0245 52.3826C66.8692 52.7143 66.6363 52.9718 66.3258 53.1553C66.0153 53.3318 65.6271 53.42 65.1613 53.42H64.2192V57.4109H63.023ZM64.2192 52.5625H64.7697C65.1155 52.5625 65.3872 52.5237 65.5848 52.4461C65.7824 52.3684 65.9235 52.2344 66.0082 52.0438C66.0929 51.8462 66.1353 51.571 66.1353 51.2181C66.1353 50.8088 66.1035 50.4947 66.04 50.276C65.9835 50.0572 65.86 49.9055 65.6695 49.8208C65.4789 49.7361 65.1825 49.6937 64.7803 49.6937H64.2192V52.5625ZM68.1727 57.4109V48.8363H69.3478V57.4109H68.1727ZM72.9263 57.5062C72.3476 57.5062 71.8854 57.3932 71.5395 57.1674C71.1937 56.9416 70.9467 56.6205 70.7985 56.2041C70.6503 55.7807 70.5762 55.2866 70.5762 54.7221V51.4722C70.5762 50.9076 70.6503 50.4242 70.7985 50.0219C70.9538 49.6126 71.2008 49.3021 71.5395 49.0903C71.8854 48.8716 72.3476 48.7622 72.9263 48.7622C73.505 48.7622 73.9637 48.8716 74.3025 49.0903C74.6412 49.3091 74.8847 49.6196 75.0329 50.0219C75.1882 50.4242 75.2658 50.9076 75.2658 51.4722V54.7326C75.2658 55.2902 75.1882 55.7771 75.0329 56.1935C74.8847 56.6099 74.6412 56.9345 74.3025 57.1674C73.9637 57.3932 73.505 57.5062 72.9263 57.5062ZM72.9263 56.564C73.2439 56.564 73.4838 56.5005 73.6462 56.3735C73.8085 56.2394 73.9179 56.0559 73.9743 55.823C74.0308 55.583 74.059 55.3043 74.059 54.9867V51.2287C74.059 50.9111 74.0308 50.6394 73.9743 50.4136C73.9179 50.1807 73.8085 50.0043 73.6462 49.8843C73.4838 49.7572 73.2439 49.6937 72.9263 49.6937C72.6087 49.6937 72.3653 49.7572 72.1959 49.8843C72.0336 50.0043 71.9242 50.1807 71.8677 50.4136C71.8113 50.6394 71.783 50.9111 71.783 51.2287V54.9867C71.783 55.3043 71.8113 55.583 71.8677 55.823C71.9242 56.0559 72.0336 56.2394 72.1959 56.3735C72.3653 56.5005 72.6087 56.564 72.9263 56.564ZM76.4415 57.4109V48.8363H77.2566L79.6914 54.5315V48.8363H80.6865V57.4109H79.9243L77.4578 51.5569V57.4109H76.4415Z" fill="#1C1B24" style="fill:#1C1B24;fill:color(display-p3 0.1098 0.1059 0.1412);fill-opacity:1;"/>
</g>
<defs>
<radialGradient id="paint0_radial_322_1805" cx="0" cy="0" r="1" gradientTransform="matrix(-85.7114 98.5995 197.516 172.912 94.2874 11.5121)" gradientUnits="userSpaceOnUse">
<stop stop-color="#17313B" style="stop-color:#17313B;stop-color:color(display-p3 0.0902 0.1922 0.2314);stop-opacity:1;"/>
<stop offset="1" stop-color="#2E5272" style="stop-color:#2E5272;stop-color:color(display-p3 0.1804 0.3216 0.4471);stop-opacity:1;"/>
</radialGradient>
<clipPath id="clip0_322_1805">
<rect width="121" height="104" fill="white" style="fill:white;fill-opacity:1;"/>
</clipPath>
</defs>
</svg>
