<svg width="78" height="104" viewBox="0 0 78 104" fill="none" xmlns="http://www.w3.org/2000/svg">
<path d="M0.287329 21.9597L37.8309 0.0787255C38.0091 -0.0251564 38.2292 -0.0263031 38.4085 0.075716L76.8748 21.9606C77.0557 22.0636 77.1674 22.2556 77.1674 22.4638V81.832C77.1674 82.0413 77.0545 82.2344 76.872 82.3368L38.4055 103.926C38.2278 104.026 38.0105 104.024 37.8338 103.923L0.290285 82.3379C0.110706 82.2346 0 82.0432 0 81.8361V22.4597C0 22.2538 0.109416 22.0634 0.287329 21.9597Z" fill="#4A4658" style="fill:#4A4658;fill:color(display-p3 0.2902 0.2745 0.3451);fill-opacity:1;"/>
<path d="M1.73246 22.8444L37.8466 1.62444C38.0257 1.51919 38.2476 1.51803 38.4277 1.6214L75.4297 22.8454C75.6096 22.9485 75.7205 23.1401 75.7205 23.3474V80.9394C75.7205 81.148 75.6084 81.3404 75.4268 81.4431L38.4248 102.381C38.2461 102.482 38.0271 102.48 37.8495 102.378L1.73542 81.4441C1.55683 81.3406 1.4469 81.1498 1.4469 80.9434V23.3433C1.4469 23.1382 1.55554 22.9483 1.73246 22.8444Z" fill="#292733" style="fill:#292733;fill:color(display-p3 0.1608 0.1529 0.2000);fill-opacity:1;"/>
<path fill-rule="evenodd" clip-rule="evenodd" d="M31.4558 20.9176H32.8461V12.547H31.4558V20.9176Z" fill="white" style="fill:white;fill-opacity:1;"/>
<path fill-rule="evenodd" clip-rule="evenodd" d="M37.5441 18.2746C37.5441 19.5531 36.4493 19.6546 36.1238 19.6546C35.3102 19.6546 35.162 18.9066 35.162 18.456V15.259H33.8007V18.4489C33.8007 19.2407 34.054 19.8942 34.4982 20.3303C34.8902 20.7151 35.4775 20.9261 36.1138 20.9261C36.5649 20.9261 37.2038 20.7879 37.5441 20.483V20.939H38.9055V15.259H37.5441V18.2746Z" fill="white" style="fill:white;fill-opacity:1;"/>
<path fill-rule="evenodd" clip-rule="evenodd" d="M41.6196 13.2517H40.2583V15.2573H39.2373V16.5939H40.2583V20.939H41.6196V16.5939H42.6405V15.2573H41.6196V13.2517Z" fill="white" style="fill:white;fill-opacity:1;"/>
<path fill-rule="evenodd" clip-rule="evenodd" d="M46.9349 19.2382C46.6381 19.4996 46.245 19.6455 45.8148 19.6455C44.8648 19.6455 44.1674 18.9622 44.1674 18.0238C44.1674 17.086 44.8426 16.4319 45.8148 16.4319C46.2375 16.4319 46.6381 16.5702 46.9424 16.8317L47.1498 17.0061L48.07 16.1046L47.8398 15.9008C47.2985 15.4212 46.5788 15.1522 45.8148 15.1522C44.1082 15.1522 42.8689 16.3589 42.8689 18.0168C42.8689 19.6671 44.1378 20.9177 45.8148 20.9177C46.5937 20.9177 47.3207 20.6487 47.8546 20.1614L48.0774 19.9583L47.1429 19.0567L46.9349 19.2382Z" fill="white" style="fill:white;fill-opacity:1;"/>
<path fill-rule="evenodd" clip-rule="evenodd" d="M52.9212 15.7435C52.5286 15.3579 52.0683 15.1464 51.4313 15.1464C50.9788 15.1464 50.4667 15.2848 50.1259 15.5904V12.5684H48.7622V20.939H50.1259V17.8034C50.1259 16.5222 51.0523 16.42 51.3785 16.42C52.1935 16.42 52.1713 17.1701 52.1713 17.6212V20.939H53.5349V17.6287C53.5349 16.8353 53.3658 16.1799 52.9212 15.7435Z" fill="white" style="fill:white;fill-opacity:1;"/>
<path fill-rule="evenodd" clip-rule="evenodd" d="M45.7636 17.074C46.308 17.074 46.7493 17.5087 46.7493 18.0456C46.7493 18.5824 46.308 19.0171 45.7636 19.0171C45.2193 19.0171 44.778 18.5824 44.778 18.0456C44.778 17.5087 45.2193 17.074 45.7636 17.074Z" fill="#A7A4B5" style="fill:#A7A4B5;fill:color(display-p3 0.6549 0.6431 0.7098);fill-opacity:1;"/>
<path fill-rule="evenodd" clip-rule="evenodd" d="M29.5084 18.8466C28.9906 19.3714 28.2876 19.6558 27.5477 19.6558C26.0303 19.6558 24.9277 18.482 24.9277 16.8711C24.9277 15.2526 26.0303 14.0789 27.5477 14.0789C28.2797 14.0789 28.9754 14.3633 29.501 14.8806L29.7079 15.0848L30.6183 14.1883L30.4188 13.9841C29.6636 13.2188 28.6423 12.8032 27.5477 12.8032C25.3125 12.8032 23.6326 14.5528 23.6326 16.8781C23.6326 19.1964 25.3199 20.939 27.5477 20.939C28.6502 20.939 29.6715 20.5159 30.4262 19.7506L30.6257 19.5464L29.7232 18.6353L29.5084 18.8466Z" fill="white" style="fill:white;fill-opacity:1;"/>
<path d="M3.6655 26.1478H39.724H73.8878C74.1009 26.1478 74.2737 26.3206 74.2737 26.5337V78.8998C74.2737 79.2478 74.0863 79.5688 73.7832 79.7398L38.8125 99.4752C38.515 99.643 38.1509 99.6411 37.8553 99.4704L3.76115 79.7416C3.46316 79.5692 3.27966 79.251 3.27966 78.9067V26.5337C3.27966 26.3206 3.45241 26.1478 3.6655 26.1478Z" fill="#4A4658" style="fill:#4A4658;fill:color(display-p3 0.2902 0.2745 0.3451);fill-opacity:1;"/>
<path d="M3.6655 26.1478H39.724H73.8878C74.1009 26.1478 74.2737 26.3206 74.2737 26.5337V78.8823C74.2737 79.165 73.9797 79.3518 73.7239 79.2316L40.1233 63.4518C39.8697 63.3327 39.5769 63.3297 39.321 63.4437L3.82243 79.2482C3.56726 79.3618 3.27966 79.175 3.27966 78.8957V26.5337C3.27966 26.3206 3.45241 26.1478 3.6655 26.1478Z" fill="#4A4658" style="fill:#4A4658;fill:color(display-p3 0.2902 0.2745 0.3451);fill-opacity:1;"/>
<path d="M25.6765 33.597V36.6144H25.2827V33.597H25.6765ZM26.6463 33.597V33.9244H24.3149V33.597H26.6463ZM29.3591 35.0104V35.201C29.3591 35.4276 29.3307 35.6307 29.2741 35.8103C29.2175 35.9899 29.1359 36.1426 29.0296 36.2683C28.9232 36.394 28.7954 36.49 28.6462 36.5564C28.4983 36.6227 28.3326 36.6558 28.1488 36.6558C27.9706 36.6558 27.8069 36.6227 27.6577 36.5564C27.5098 36.49 27.3813 36.394 27.2722 36.2683C27.1644 36.1426 27.0808 35.9899 27.0214 35.8103C26.962 35.6307 26.9323 35.4276 26.9323 35.201V35.0104C26.9323 34.7838 26.9613 34.5814 27.0194 34.4032C27.0788 34.2236 27.1624 34.0709 27.2701 33.9452C27.3779 33.8181 27.5057 33.7214 27.6535 33.655C27.8027 33.5887 27.9664 33.5556 28.1447 33.5556C28.3284 33.5556 28.4942 33.5887 28.642 33.655C28.7912 33.7214 28.919 33.8181 29.0254 33.9452C29.1332 34.0709 29.2154 34.2236 29.272 34.4032C29.3301 34.5814 29.3591 34.7838 29.3591 35.0104ZM28.9632 35.201V35.0062C28.9632 34.8266 28.9446 34.6677 28.9073 34.5296C28.8714 34.3914 28.8182 34.2754 28.7477 34.1814C28.6773 34.0875 28.5909 34.0163 28.4887 33.968C28.3878 33.9196 28.2731 33.8954 28.1447 33.8954C28.0203 33.8954 27.9077 33.9196 27.8069 33.968C27.7074 34.0163 27.6217 34.0875 27.5499 34.1814C27.4794 34.2754 27.4249 34.3914 27.3862 34.5296C27.3475 34.6677 27.3281 34.8266 27.3281 35.0062V35.201C27.3281 35.382 27.3475 35.5423 27.3862 35.6818C27.4249 35.82 27.4801 35.9367 27.552 36.032C27.6252 36.126 27.7115 36.1971 27.811 36.2455C27.9119 36.2939 28.0245 36.318 28.1488 36.318C28.2787 36.318 28.394 36.2939 28.4949 36.2455C28.5957 36.1971 28.6807 36.126 28.7498 36.032C28.8202 35.9367 28.8734 35.82 28.9094 35.6818C28.9453 35.5423 28.9632 35.382 28.9632 35.201ZM31.0708 35.4311H30.2647V35.1057H31.0708C31.227 35.1057 31.3534 35.0808 31.4501 35.0311C31.5468 34.9814 31.6173 34.9123 31.6615 34.8239C31.7071 34.7354 31.7299 34.6346 31.7299 34.5213C31.7299 34.4177 31.7071 34.3203 31.6615 34.2291C31.6173 34.1379 31.5468 34.0647 31.4501 34.0094C31.3534 33.9528 31.227 33.9244 31.0708 33.9244H30.3579V36.6144H29.958V33.597H31.0708C31.2988 33.597 31.4915 33.6364 31.649 33.7151C31.8065 33.7939 31.926 33.903 32.0075 34.0426C32.0891 34.1807 32.1298 34.3389 32.1298 34.5171C32.1298 34.7106 32.0891 34.8757 32.0075 35.0124C31.926 35.1492 31.8065 35.2535 31.649 35.3254C31.4915 35.3958 31.2988 35.4311 31.0708 35.4311ZM35.5098 35.6549H35.9077C35.887 35.8455 35.8324 36.0162 35.744 36.1667C35.6556 36.3173 35.5306 36.4368 35.3689 36.5253C35.2073 36.6123 35.0056 36.6558 34.7638 36.6558C34.587 36.6558 34.426 36.6227 34.2809 36.5564C34.1373 36.49 34.0136 36.3961 33.91 36.2745C33.8064 36.1516 33.7262 36.0044 33.6696 35.8331C33.6143 35.6604 33.5867 35.4684 33.5867 35.257V34.9565C33.5867 34.7451 33.6143 34.5538 33.6696 34.3824C33.7262 34.2097 33.8071 34.0619 33.9121 33.939C34.0184 33.816 34.1462 33.7214 34.2954 33.655C34.4447 33.5887 34.6125 33.5556 34.799 33.5556C35.027 33.5556 35.2197 33.5984 35.3772 33.6841C35.5347 33.7697 35.657 33.8885 35.744 34.0405C35.8324 34.1911 35.887 34.3659 35.9077 34.5648H35.5098C35.4905 34.4239 35.4546 34.303 35.4021 34.2021C35.3496 34.0999 35.275 34.0212 35.1783 33.9659C35.0816 33.9106 34.9551 33.883 34.799 33.883C34.665 33.883 34.5469 33.9086 34.4447 33.9597C34.3438 34.0108 34.2588 34.0833 34.1898 34.1773C34.1221 34.2712 34.0709 34.3838 34.0364 34.5151C34.0019 34.6463 33.9846 34.7921 33.9846 34.9523V35.257C33.9846 35.4048 33.9998 35.5437 34.0302 35.6735C34.062 35.8034 34.1096 35.9174 34.1732 36.0155C34.2367 36.1136 34.3175 36.1909 34.4156 36.2476C34.5137 36.3028 34.6298 36.3305 34.7638 36.3305C34.9337 36.3305 35.0691 36.3035 35.17 36.2496C35.2708 36.1958 35.3468 36.1184 35.3979 36.0175C35.4504 35.9167 35.4877 35.7958 35.5098 35.6549ZM38.7759 35.0104V35.201C38.7759 35.4276 38.7476 35.6307 38.6909 35.8103C38.6343 35.9899 38.5528 36.1426 38.4464 36.2683C38.34 36.394 38.2122 36.49 38.063 36.5564C37.9152 36.6227 37.7494 36.6558 37.5656 36.6558C37.3874 36.6558 37.2237 36.6227 37.0745 36.5564C36.9267 36.49 36.7982 36.394 36.689 36.2683C36.5813 36.1426 36.4977 35.9899 36.4383 35.8103C36.3789 35.6307 36.3492 35.4276 36.3492 35.201V35.0104C36.3492 34.7838 36.3782 34.5814 36.4362 34.4032C36.4956 34.2236 36.5792 34.0709 36.687 33.9452C36.7947 33.8181 36.9225 33.7214 37.0703 33.655C37.2196 33.5887 37.3833 33.5556 37.5615 33.5556C37.7452 33.5556 37.911 33.5887 38.0589 33.655C38.2081 33.7214 38.3359 33.8181 38.4422 33.9452C38.55 34.0709 38.6322 34.2236 38.6889 34.4032C38.7469 34.5814 38.7759 34.7838 38.7759 35.0104ZM38.3801 35.201V35.0062C38.3801 34.8266 38.3614 34.6677 38.3241 34.5296C38.2882 34.3914 38.235 34.2754 38.1646 34.1814C38.0941 34.0875 38.0077 34.0163 37.9055 33.968C37.8047 33.9196 37.69 33.8954 37.5615 33.8954C37.4372 33.8954 37.3246 33.9196 37.2237 33.968C37.1242 34.0163 37.0386 34.0875 36.9667 34.1814C36.8963 34.2754 36.8417 34.3914 36.803 34.5296C36.7643 34.6677 36.745 34.8266 36.745 35.0062V35.201C36.745 35.382 36.7643 35.5423 36.803 35.6818C36.8417 35.82 36.897 35.9367 36.9688 36.032C37.042 36.126 37.1284 36.1971 37.2278 36.2455C37.3287 36.2939 37.4413 36.318 37.5656 36.318C37.6955 36.318 37.8109 36.2939 37.9117 36.2455C38.0126 36.1971 38.0975 36.126 38.1666 36.032C38.2371 35.9367 38.2903 35.82 38.3262 35.6818C38.3621 35.5423 38.3801 35.382 38.3801 35.201ZM39.5012 33.597H39.8888L40.8773 36.0569L41.8637 33.597H42.2533L41.0265 36.6144H40.7239L39.5012 33.597ZM39.3748 33.597H39.7168L39.7727 35.4373V36.6144H39.3748V33.597ZM42.0357 33.597H42.3777V36.6144H41.9798V35.4373L42.0357 33.597ZM44.1931 35.4311H43.3869V35.1057H44.1931C44.3492 35.1057 44.4756 35.0808 44.5723 35.0311C44.669 34.9814 44.7395 34.9123 44.7837 34.8239C44.8293 34.7354 44.8521 34.6346 44.8521 34.5213C44.8521 34.4177 44.8293 34.3203 44.7837 34.2291C44.7395 34.1379 44.669 34.0647 44.5723 34.0094C44.4756 33.9528 44.3492 33.9244 44.1931 33.9244H43.4802V36.6144H43.0802V33.597H44.1931C44.421 33.597 44.6138 33.6364 44.7713 33.7151C44.9288 33.7939 45.0483 33.903 45.1298 34.0426C45.2113 34.1807 45.252 34.3389 45.252 34.5171C45.252 34.7106 45.2113 34.8757 45.1298 35.0124C45.0483 35.1492 44.9288 35.2535 44.7713 35.3254C44.6138 35.3958 44.421 35.4311 44.1931 35.4311ZM46.5887 33.8643L45.5898 36.6144H45.1816L46.3318 33.597H46.5949L46.5887 33.8643ZM47.426 36.6144L46.425 33.8643L46.4188 33.597H46.682L47.8363 36.6144H47.426ZM47.3742 35.4974V35.8248H45.679V35.4974H47.3742ZM50.5615 33.597V36.6144H50.1594L48.6404 34.2871V36.6144H48.2404V33.597H48.6404L50.1656 35.9305V33.597H50.5615ZM51.351 33.597L52.1344 35.1119L52.9198 33.597H53.3737L52.3333 35.487V36.6144H51.9334V35.487L50.893 33.597H51.351Z" fill="white" style="fill:white;fill-opacity:1;"/>
<path d="M26.5262 75.0527H50.6411V83.7341H26.5262V75.0527Z" fill="#292733" style="fill:#292733;fill:color(display-p3 0.1608 0.1529 0.2000);fill-opacity:1;"/>
<path d="M0 56.7255H77.1674V75.0527H0V56.7255Z" fill="#A7A4B5" style="fill:#A7A4B5;fill:color(display-p3 0.6549 0.6431 0.7098);fill-opacity:1;"/>
<path d="M15.351 59.5819V63.8475H14.475V59.5819H15.351ZM16.6635 59.5819V60.2704H13.183V59.5819H16.6635ZM17.9349 59.3475V63.8475H17.0912V59.3475H17.9349ZM17.8148 62.1512H17.5834C17.5853 61.9305 17.6146 61.7274 17.6713 61.5419C17.7279 61.3544 17.809 61.1923 17.9144 61.0555C18.0199 60.9169 18.1459 60.8094 18.2924 60.7333C18.4408 60.6571 18.6049 60.619 18.7845 60.619C18.9408 60.619 19.0824 60.6415 19.2094 60.6864C19.3383 60.7294 19.4486 60.7997 19.5404 60.8973C19.6342 60.993 19.7064 61.119 19.7572 61.2753C19.808 61.4315 19.8334 61.621 19.8334 61.8436V63.8475H18.9838V61.8378C18.9838 61.6971 18.9633 61.5868 18.9222 61.5067C18.8832 61.4247 18.8256 61.3671 18.7494 61.3339C18.6752 61.2987 18.5834 61.2811 18.474 61.2811C18.3529 61.2811 18.2494 61.3036 18.1635 61.3485C18.0795 61.3934 18.0121 61.4559 17.9613 61.536C17.9105 61.6141 17.8734 61.7059 17.85 61.8114C17.8265 61.9169 17.8148 62.0302 17.8148 62.1512ZM21.3187 61.369V63.8475H20.475V60.6776H21.2689L21.3187 61.369ZM22.2738 60.6571L22.2592 61.4393C22.2181 61.4335 22.1683 61.4286 22.1097 61.4247C22.0531 61.4188 22.0013 61.4159 21.9545 61.4159C21.8353 61.4159 21.7318 61.4315 21.6439 61.4628C21.558 61.4921 21.4857 61.536 21.4271 61.5946C21.3705 61.6532 21.3275 61.7245 21.2982 61.8085C21.2709 61.8925 21.2552 61.9882 21.2513 62.0956L21.0814 62.0428C21.0814 61.8378 21.1019 61.6493 21.1429 61.4774C21.184 61.3036 21.2435 61.1522 21.3217 61.0233C21.4017 60.8944 21.4994 60.7948 21.6146 60.7245C21.7299 60.6542 21.8617 60.619 22.0101 60.619C22.057 60.619 22.1049 60.6229 22.1537 60.6307C22.2025 60.6366 22.2426 60.6454 22.2738 60.6571ZM24.0726 63.9061C23.8265 63.9061 23.6058 63.8671 23.4105 63.7889C23.2152 63.7089 23.0492 63.5985 22.9125 63.4579C22.7777 63.3173 22.6742 63.1542 22.6019 62.9686C22.5297 62.7811 22.4935 62.5819 22.4935 62.371V62.2538C22.4935 62.0135 22.5277 61.7938 22.5961 61.5946C22.6644 61.3954 22.7621 61.2225 22.889 61.076C23.0179 60.9296 23.1742 60.8173 23.3578 60.7391C23.5414 60.6591 23.7484 60.619 23.9789 60.619C24.2035 60.619 24.4027 60.6561 24.5765 60.7303C24.7504 60.8046 24.8959 60.91 25.0131 61.0468C25.1322 61.1835 25.222 61.3475 25.2826 61.5389C25.3431 61.7284 25.3734 61.9393 25.3734 62.1718V62.5233H22.8539V61.9608H24.5443V61.8964C24.5443 61.7792 24.5228 61.6747 24.4799 61.5829C24.4388 61.4891 24.3763 61.4149 24.2924 61.3602C24.2084 61.3055 24.101 61.2782 23.9701 61.2782C23.8588 61.2782 23.7631 61.3026 23.683 61.3514C23.6029 61.4003 23.5375 61.4686 23.4867 61.5565C23.4379 61.6444 23.4008 61.7479 23.3754 61.8671C23.3519 61.9843 23.3402 62.1132 23.3402 62.2538V62.371C23.3402 62.4979 23.3578 62.6151 23.3929 62.7225C23.4301 62.83 23.4818 62.9227 23.5482 63.0009C23.6166 63.079 23.6986 63.1395 23.7943 63.1825C23.892 63.2255 24.0023 63.2469 24.1254 63.2469C24.2777 63.2469 24.4193 63.2177 24.5502 63.1591C24.683 63.0985 24.7972 63.0077 24.8929 62.8866L25.3031 63.3319C25.2367 63.4276 25.1459 63.5194 25.0306 63.6073C24.9174 63.6952 24.7806 63.7675 24.6205 63.8241C24.4603 63.8788 24.2777 63.9061 24.0726 63.9061ZM27.5648 63.1327V61.7206C27.5648 61.619 27.5482 61.5321 27.515 61.4598C27.4818 61.3856 27.4301 61.328 27.3597 61.287C27.2914 61.246 27.2025 61.2255 27.0931 61.2255C26.9994 61.2255 26.9183 61.2421 26.85 61.2753C26.7816 61.3065 26.7289 61.3524 26.6918 61.413C26.6547 61.4716 26.6361 61.5409 26.6361 61.621H25.7924C25.7924 61.4862 25.8236 61.3583 25.8861 61.2372C25.9486 61.1161 26.0394 61.0096 26.1586 60.9178C26.2777 60.8241 26.4193 60.7509 26.5834 60.6981C26.7494 60.6454 26.9349 60.619 27.14 60.619C27.3861 60.619 27.6049 60.66 27.7963 60.7421C27.9877 60.8241 28.1381 60.9471 28.2474 61.1112C28.3588 61.2753 28.4144 61.4803 28.4144 61.7264V63.0829C28.4144 63.2567 28.4252 63.3993 28.4467 63.5106C28.4681 63.62 28.4994 63.7157 28.5404 63.7977V63.8475H27.6879C27.6469 63.7616 27.6156 63.6542 27.5941 63.5253C27.5746 63.3944 27.5648 63.2635 27.5648 63.1327ZM27.6761 61.9169L27.682 62.3944H27.2103C27.099 62.3944 27.0023 62.4071 26.9203 62.4325C26.8383 62.4579 26.7709 62.494 26.7181 62.5409C26.6654 62.5858 26.6263 62.6385 26.601 62.6991C26.5775 62.7596 26.5658 62.826 26.5658 62.8983C26.5658 62.9706 26.5824 63.036 26.6156 63.0946C26.6488 63.1512 26.6967 63.1962 26.7592 63.2294C26.8217 63.2606 26.8949 63.2762 26.9789 63.2762C27.1058 63.2762 27.2162 63.2509 27.3099 63.2001C27.4037 63.1493 27.476 63.0868 27.5267 63.0126C27.5795 62.9384 27.6068 62.868 27.6088 62.8016L27.8314 63.1591C27.8002 63.2391 27.7572 63.3221 27.7025 63.4081C27.6498 63.494 27.5824 63.5751 27.5004 63.6512C27.4183 63.7255 27.3197 63.787 27.2045 63.8358C27.0892 63.8827 26.9525 63.9061 26.7943 63.9061C26.5931 63.9061 26.4105 63.8661 26.2465 63.786C26.0844 63.704 25.9554 63.5917 25.8597 63.4491C25.766 63.3046 25.7191 63.1405 25.7191 62.9569C25.7191 62.7909 25.7504 62.6434 25.8129 62.5145C25.8754 62.3856 25.9672 62.2772 26.0883 62.1893C26.2113 62.0995 26.3646 62.0321 26.5482 61.9872C26.7318 61.9403 26.9447 61.9169 27.1869 61.9169H27.6761ZM30.6176 60.6776V61.2753H28.7719V60.6776H30.6176ZM29.2289 59.8954H30.0726V62.8925C30.0726 62.9843 30.0844 63.0546 30.1078 63.1034C30.1332 63.1522 30.1703 63.1864 30.2191 63.2059C30.2679 63.2235 30.3295 63.2323 30.4037 63.2323C30.4564 63.2323 30.5033 63.2303 30.5443 63.2264C30.5873 63.2206 30.6234 63.2147 30.6527 63.2089L30.6556 63.83C30.5834 63.8534 30.5052 63.8719 30.4213 63.8856C30.3373 63.8993 30.2445 63.9061 30.1429 63.9061C29.9574 63.9061 29.7953 63.8759 29.6566 63.8153C29.5199 63.7528 29.4144 63.6532 29.3402 63.5165C29.266 63.3798 29.2289 63.2001 29.2289 62.9774V59.8954ZM33.5795 59.5819V63.8475H32.7035V59.5819H33.5795ZM35.1761 61.3544V63.8475H34.3324V60.6776H35.1234L35.1761 61.3544ZM35.0531 62.1512H34.8246C34.8246 61.9169 34.8549 61.7059 34.9154 61.5184C34.976 61.329 35.0609 61.1678 35.1703 61.035C35.2797 60.9003 35.4095 60.7977 35.5599 60.7274C35.7123 60.6552 35.8822 60.619 36.0697 60.619C36.2181 60.619 36.3539 60.6405 36.4769 60.6835C36.6 60.7264 36.7054 60.7948 36.7933 60.8885C36.8832 60.9823 36.9515 61.1063 36.9984 61.2606C37.0472 61.4149 37.0717 61.6034 37.0717 61.826V63.8475H36.222V61.8231C36.222 61.6825 36.2025 61.5731 36.1635 61.495C36.1244 61.4169 36.0668 61.3622 35.9906 61.3309C35.9164 61.2977 35.8246 61.2811 35.7152 61.2811C35.6019 61.2811 35.5033 61.3036 35.4193 61.3485C35.3373 61.3934 35.2689 61.4559 35.2142 61.536C35.1615 61.6141 35.1215 61.7059 35.0941 61.8114C35.0668 61.9169 35.0531 62.0302 35.0531 62.1512ZM39.266 60.6776V61.2753H37.4203V60.6776H39.266ZM37.8773 59.8954H38.7211V62.8925C38.7211 62.9843 38.7328 63.0546 38.7562 63.1034C38.7816 63.1522 38.8187 63.1864 38.8676 63.2059C38.9164 63.2235 38.9779 63.2323 39.0521 63.2323C39.1049 63.2323 39.1517 63.2303 39.1927 63.2264C39.2357 63.2206 39.2719 63.2147 39.3011 63.2089L39.3041 63.83C39.2318 63.8534 39.1537 63.8719 39.0697 63.8856C38.9857 63.8993 38.8929 63.9061 38.7914 63.9061C38.6058 63.9061 38.4437 63.8759 38.3051 63.8153C38.1683 63.7528 38.0629 63.6532 37.9886 63.5165C37.9144 63.3798 37.8773 63.2001 37.8773 62.9774V59.8954ZM41.2054 63.9061C40.9594 63.9061 40.7386 63.8671 40.5433 63.7889C40.348 63.7089 40.182 63.5985 40.0453 63.4579C39.9105 63.3173 39.807 63.1542 39.7347 62.9686C39.6625 62.7811 39.6263 62.5819 39.6263 62.371V62.2538C39.6263 62.0135 39.6605 61.7938 39.7289 61.5946C39.7972 61.3954 39.8949 61.2225 40.0219 61.076C40.1508 60.9296 40.307 60.8173 40.4906 60.7391C40.6742 60.6591 40.8812 60.619 41.1117 60.619C41.3363 60.619 41.5355 60.6561 41.7094 60.7303C41.8832 60.8046 42.0287 60.91 42.1459 61.0468C42.265 61.1835 42.3549 61.3475 42.4154 61.5389C42.476 61.7284 42.5062 61.9393 42.5062 62.1718V62.5233H39.9867V61.9608H41.6771V61.8964C41.6771 61.7792 41.6556 61.6747 41.6127 61.5829C41.5717 61.4891 41.5092 61.4149 41.4252 61.3602C41.3412 61.3055 41.2338 61.2782 41.1029 61.2782C40.9916 61.2782 40.8959 61.3026 40.8158 61.3514C40.7357 61.4003 40.6703 61.4686 40.6195 61.5565C40.5707 61.6444 40.5336 61.7479 40.5082 61.8671C40.4847 61.9843 40.473 62.1132 40.473 62.2538V62.371C40.473 62.4979 40.4906 62.6151 40.5258 62.7225C40.5629 62.83 40.6146 62.9227 40.681 63.0009C40.7494 63.079 40.8314 63.1395 40.9271 63.1825C41.0248 63.2255 41.1351 63.2469 41.2582 63.2469C41.4105 63.2469 41.5521 63.2177 41.683 63.1591C41.8158 63.0985 41.9301 63.0077 42.0258 62.8866L42.4359 63.3319C42.3695 63.4276 42.2787 63.5194 42.1635 63.6073C42.0502 63.6952 41.9135 63.7675 41.7533 63.8241C41.5931 63.8788 41.4105 63.9061 41.2054 63.9061ZM43.8773 59.3475V63.8475H43.0306V59.3475H43.8773ZM45.4652 59.3475V63.8475H44.6185V59.3475H45.4652ZM47.0531 60.6776V63.8475H46.2064V60.6776H47.0531ZM46.1537 59.8514C46.1537 59.7284 46.1967 59.6268 46.2826 59.5468C46.3685 59.4667 46.4838 59.4266 46.6283 59.4266C46.7709 59.4266 46.8851 59.4667 46.9711 59.5468C47.059 59.6268 47.1029 59.7284 47.1029 59.8514C47.1029 59.9745 47.059 60.076 46.9711 60.1561C46.8851 60.2362 46.7709 60.2762 46.6283 60.2762C46.4838 60.2762 46.3685 60.2362 46.2826 60.1561C46.1967 60.076 46.1537 59.9745 46.1537 59.8514ZM49.7572 60.6776H50.5219V63.7421C50.5219 64.0311 50.4574 64.2762 50.3285 64.4774C50.2015 64.6805 50.0238 64.8339 49.7953 64.9374C49.5668 65.0428 49.3011 65.0956 48.9984 65.0956C48.8656 65.0956 48.725 65.078 48.5765 65.0428C48.4301 65.0077 48.2894 64.953 48.1547 64.8788C48.0219 64.8046 47.9105 64.7108 47.8207 64.5975L48.1927 64.0995C48.2904 64.2128 48.4037 64.3007 48.5326 64.3632C48.6615 64.4276 48.8041 64.4598 48.9603 64.4598C49.1127 64.4598 49.2416 64.4315 49.347 64.3749C49.4525 64.3202 49.5336 64.2391 49.5902 64.1317C49.6469 64.0262 49.6752 63.8983 49.6752 63.7479V61.41L49.7572 60.6776ZM47.6244 62.3007V62.2391C47.6244 61.9969 47.6537 61.7772 47.7123 61.58C47.7728 61.3807 47.8578 61.2098 47.9672 61.0673C48.0785 60.9247 48.2133 60.8143 48.3715 60.7362C48.5297 60.6581 48.7084 60.619 48.9076 60.619C49.1185 60.619 49.2953 60.6581 49.4379 60.7362C49.5804 60.8143 49.6976 60.9257 49.7894 61.0702C49.8812 61.2128 49.9525 61.3817 50.0033 61.577C50.056 61.7704 50.097 61.9823 50.1263 62.2128V62.3475C50.097 62.5682 50.0531 62.7733 49.9945 62.9628C49.9359 63.1522 49.8588 63.3182 49.7631 63.4608C49.6674 63.6014 49.5482 63.7108 49.4056 63.7889C49.265 63.8671 49.097 63.9061 48.9017 63.9061C48.7064 63.9061 48.5297 63.8661 48.3715 63.786C48.2152 63.7059 48.0814 63.5936 47.9701 63.4491C47.8588 63.3046 47.7728 63.1346 47.7123 62.9393C47.6537 62.744 47.6244 62.5311 47.6244 62.3007ZM48.4681 62.2391V62.3007C48.4681 62.4315 48.4808 62.5536 48.5062 62.6669C48.5316 62.7802 48.5707 62.8807 48.6234 62.9686C48.6781 63.0546 48.7455 63.1219 48.8256 63.1708C48.9076 63.2177 49.0043 63.2411 49.1156 63.2411C49.2699 63.2411 49.3959 63.2089 49.4935 63.1444C49.5912 63.078 49.6644 62.9872 49.7133 62.8719C49.7621 62.7567 49.7904 62.6239 49.7982 62.4735V62.0897C49.7943 61.9667 49.7777 61.8563 49.7484 61.7587C49.7191 61.6591 49.6781 61.5741 49.6254 61.5038C49.5726 61.4335 49.5043 61.3788 49.4203 61.3397C49.3363 61.3007 49.2367 61.2811 49.1215 61.2811C49.0101 61.2811 48.9135 61.3065 48.8314 61.3573C48.7513 61.4061 48.684 61.4735 48.6293 61.5594C48.5765 61.6454 48.5365 61.7469 48.5092 61.8641C48.4818 61.9794 48.4681 62.1044 48.4681 62.2391ZM52.6371 63.9061C52.391 63.9061 52.1703 63.8671 51.975 63.7889C51.7797 63.7089 51.6136 63.5985 51.4769 63.4579C51.3422 63.3173 51.2386 63.1542 51.1664 62.9686C51.0941 62.7811 51.058 62.5819 51.058 62.371V62.2538C51.058 62.0135 51.0922 61.7938 51.1605 61.5946C51.2289 61.3954 51.3265 61.2225 51.4535 61.076C51.5824 60.9296 51.7386 60.8173 51.9222 60.7391C52.1058 60.6591 52.3129 60.619 52.5433 60.619C52.7679 60.619 52.9672 60.6561 53.141 60.7303C53.3148 60.8046 53.4603 60.91 53.5775 61.0468C53.6967 61.1835 53.7865 61.3475 53.847 61.5389C53.9076 61.7284 53.9379 61.9393 53.9379 62.1718V62.5233H51.4183V61.9608H53.1088V61.8964C53.1088 61.7792 53.0873 61.6747 53.0443 61.5829C53.0033 61.4891 52.9408 61.4149 52.8568 61.3602C52.7728 61.3055 52.6654 61.2782 52.5345 61.2782C52.4232 61.2782 52.3275 61.3026 52.2474 61.3514C52.1674 61.4003 52.1019 61.4686 52.0511 61.5565C52.0023 61.6444 51.9652 61.7479 51.9398 61.8671C51.9164 61.9843 51.9047 62.1132 51.9047 62.2538V62.371C51.9047 62.4979 51.9222 62.6151 51.9574 62.7225C51.9945 62.83 52.0463 62.9227 52.1127 63.0009C52.181 63.079 52.2631 63.1395 52.3588 63.1825C52.4564 63.2255 52.5668 63.2469 52.6898 63.2469C52.8422 63.2469 52.9838 63.2177 53.1146 63.1591C53.2474 63.0985 53.3617 63.0077 53.4574 62.8866L53.8676 63.3319C53.8011 63.4276 53.7103 63.5194 53.5951 63.6073C53.4818 63.6952 53.3451 63.7675 53.1849 63.8241C53.0248 63.8788 52.8422 63.9061 52.6371 63.9061ZM55.2445 61.3544V63.8475H54.4008V60.6776H55.1918L55.2445 61.3544ZM55.1215 62.1512H54.8929C54.8929 61.9169 54.9232 61.7059 54.9838 61.5184C55.0443 61.329 55.1293 61.1678 55.2386 61.035C55.348 60.9003 55.4779 60.7977 55.6283 60.7274C55.7806 60.6552 55.9506 60.619 56.1381 60.619C56.2865 60.619 56.4222 60.6405 56.5453 60.6835C56.6683 60.7264 56.7738 60.7948 56.8617 60.8885C56.9515 60.9823 57.0199 61.1063 57.0668 61.2606C57.1156 61.4149 57.14 61.6034 57.14 61.826V63.8475H56.2904V61.8231C56.2904 61.6825 56.2709 61.5731 56.2318 61.495C56.1927 61.4169 56.1351 61.3622 56.059 61.3309C55.9847 61.2977 55.8929 61.2811 55.7836 61.2811C55.6703 61.2811 55.5717 61.3036 55.4877 61.3485C55.4056 61.3934 55.3373 61.4559 55.2826 61.536C55.2299 61.6141 55.1898 61.7059 55.1625 61.8114C55.1351 61.9169 55.1215 62.0302 55.1215 62.1512ZM59.0912 63.2469C59.1947 63.2469 59.2865 63.2274 59.3666 63.1884C59.4467 63.1473 59.5092 63.0907 59.5541 63.0184C59.601 62.9442 59.6254 62.8573 59.6273 62.7577H60.4213C60.4193 62.9803 60.3597 63.1786 60.2426 63.3524C60.1254 63.5243 59.9681 63.66 59.7709 63.7596C59.5736 63.8573 59.3529 63.9061 59.1088 63.9061C58.8627 63.9061 58.6478 63.8651 58.4642 63.7831C58.2826 63.701 58.1312 63.5878 58.0101 63.4432C57.889 63.2968 57.7982 63.1268 57.7377 62.9335C57.6771 62.7382 57.6469 62.5292 57.6469 62.3065V62.2216C57.6469 61.9969 57.6771 61.788 57.7377 61.5946C57.7982 61.3993 57.889 61.2294 58.0101 61.0848C58.1312 60.9384 58.2826 60.8241 58.4642 60.7421C58.6459 60.66 58.8588 60.619 59.1029 60.619C59.3627 60.619 59.5902 60.6688 59.7855 60.7684C59.9828 60.868 60.1371 61.0106 60.2484 61.1962C60.3617 61.3798 60.4193 61.5975 60.4213 61.8495H59.6273C59.6254 61.744 59.6029 61.6483 59.5599 61.5624C59.5189 61.4764 59.4584 61.4081 59.3783 61.3573C59.3002 61.3046 59.2035 61.2782 59.0883 61.2782C58.9652 61.2782 58.8646 61.3046 58.7865 61.3573C58.7084 61.4081 58.6478 61.4784 58.6049 61.5682C58.5619 61.6561 58.5316 61.7567 58.514 61.87C58.4984 61.9813 58.4906 62.0985 58.4906 62.2216V62.3065C58.4906 62.4296 58.4984 62.5477 58.514 62.661C58.5297 62.7743 58.559 62.8749 58.6019 62.9628C58.6469 63.0507 58.7084 63.12 58.7865 63.1708C58.8646 63.2216 58.9662 63.2469 59.0912 63.2469ZM62.3695 63.9061C62.1234 63.9061 61.9027 63.8671 61.7074 63.7889C61.5121 63.7089 61.3461 63.5985 61.2094 63.4579C61.0746 63.3173 60.9711 63.1542 60.8988 62.9686C60.8265 62.7811 60.7904 62.5819 60.7904 62.371V62.2538C60.7904 62.0135 60.8246 61.7938 60.8929 61.5946C60.9613 61.3954 61.059 61.2225 61.1859 61.076C61.3148 60.9296 61.4711 60.8173 61.6547 60.7391C61.8383 60.6591 62.0453 60.619 62.2758 60.619C62.5004 60.619 62.6996 60.6561 62.8734 60.7303C63.0472 60.8046 63.1927 60.91 63.3099 61.0468C63.4291 61.1835 63.5189 61.3475 63.5795 61.5389C63.64 61.7284 63.6703 61.9393 63.6703 62.1718V62.5233H61.1508V61.9608H62.8412V61.8964C62.8412 61.7792 62.8197 61.6747 62.7767 61.5829C62.7357 61.4891 62.6732 61.4149 62.5892 61.3602C62.5052 61.3055 62.3978 61.2782 62.267 61.2782C62.1556 61.2782 62.0599 61.3026 61.9799 61.3514C61.8998 61.4003 61.8344 61.4686 61.7836 61.5565C61.7347 61.6444 61.6976 61.7479 61.6722 61.8671C61.6488 61.9843 61.6371 62.1132 61.6371 62.2538V62.371C61.6371 62.4979 61.6547 62.6151 61.6898 62.7225C61.7269 62.83 61.7787 62.9227 61.8451 63.0009C61.9135 63.079 61.9955 63.1395 62.0912 63.1825C62.1888 63.2255 62.2992 63.2469 62.4222 63.2469C62.5746 63.2469 62.7162 63.2177 62.847 63.1591C62.9799 63.0985 63.0941 63.0077 63.1898 62.8866L63.6 63.3319C63.5336 63.4276 63.4427 63.5194 63.3275 63.6073C63.2142 63.6952 63.0775 63.7675 62.9174 63.8241C62.7572 63.8788 62.5746 63.9061 62.3695 63.9061Z" fill="#1C1B24" style="fill:#1C1B24;fill:color(display-p3 0.1098 0.1059 0.1412);fill-opacity:1;"/>
<path d="M15.6644 70.2551C15.6644 70.179 15.6527 70.1106 15.6293 70.05C15.6078 69.9875 15.5668 69.9309 15.5062 69.8801C15.4457 69.8274 15.3607 69.7756 15.2513 69.7249C15.142 69.6741 15.0004 69.6213 14.8265 69.5667C14.6332 69.5042 14.4496 69.4338 14.2758 69.3557C14.1039 69.2776 13.9515 69.1868 13.8187 69.0833C13.6879 68.9778 13.5844 68.8557 13.5082 68.717C13.434 68.5784 13.3969 68.4172 13.3969 68.2336C13.3969 68.0559 13.4359 67.8948 13.514 67.7502C13.5922 67.6038 13.7015 67.4788 13.8422 67.3752C13.9828 67.2698 14.1488 67.1887 14.3402 67.1321C14.5336 67.0754 14.7455 67.0471 14.976 67.0471C15.2904 67.0471 15.5648 67.1038 15.7992 67.217C16.0336 67.3303 16.2152 67.4856 16.3441 67.6829C16.475 67.8801 16.5404 68.1057 16.5404 68.3596H15.6674C15.6674 68.2346 15.641 68.1252 15.5883 68.0315C15.5375 67.9358 15.4594 67.8606 15.3539 67.8059C15.2504 67.7512 15.1195 67.7239 14.9613 67.7239C14.809 67.7239 14.682 67.7473 14.5804 67.7942C14.4789 67.8391 14.4027 67.9006 14.3519 67.9788C14.3011 68.0549 14.2758 68.1409 14.2758 68.2366C14.2758 68.3088 14.2933 68.3743 14.3285 68.4329C14.3656 68.4915 14.4203 68.5461 14.4926 68.5969C14.5648 68.6477 14.6537 68.6956 14.7592 68.7405C14.8646 68.7854 14.9867 68.8293 15.1254 68.8723C15.3578 68.9426 15.5619 69.0217 15.7377 69.1096C15.9154 69.1975 16.0638 69.2961 16.183 69.4055C16.3021 69.5149 16.392 69.6389 16.4525 69.7776C16.5131 69.9163 16.5433 70.0735 16.5433 70.2493C16.5433 70.4348 16.5072 70.6008 16.4349 70.7473C16.3627 70.8938 16.2582 71.0178 16.1215 71.1194C15.9847 71.2209 15.8217 71.2981 15.6322 71.3508C15.4427 71.4036 15.2308 71.4299 14.9965 71.4299C14.7855 71.4299 14.5775 71.4026 14.3724 71.3479C14.1674 71.2913 13.9808 71.2063 13.8129 71.093C13.6469 70.9797 13.514 70.8352 13.4144 70.6594C13.3148 70.4836 13.265 70.2756 13.265 70.0354H14.1469C14.1469 70.1682 14.1674 70.2805 14.2084 70.3723C14.2494 70.4641 14.307 70.5383 14.3812 70.595C14.4574 70.6516 14.5472 70.6926 14.6508 70.718C14.7562 70.7434 14.8715 70.7561 14.9965 70.7561C15.1488 70.7561 15.2738 70.7346 15.3715 70.6917C15.4711 70.6487 15.5443 70.5891 15.5912 70.5129C15.64 70.4368 15.6644 70.3508 15.6644 70.2551ZM18.5472 71.4299C18.3011 71.4299 18.0804 71.3909 17.8851 71.3127C17.6898 71.2327 17.5238 71.1223 17.3871 70.9817C17.2523 70.8411 17.1488 70.678 17.0765 70.4924C17.0043 70.3049 16.9681 70.1057 16.9681 69.8948V69.7776C16.9681 69.5374 17.0023 69.3176 17.0707 69.1184C17.139 68.9192 17.2367 68.7463 17.3636 68.5999C17.4926 68.4534 17.6488 68.3411 17.8324 68.2629C18.016 68.1829 18.223 68.1428 18.4535 68.1428C18.6781 68.1428 18.8773 68.1799 19.0511 68.2542C19.225 68.3284 19.3705 68.4338 19.4877 68.5706C19.6068 68.7073 19.6967 68.8713 19.7572 69.0627C19.8177 69.2522 19.848 69.4631 19.848 69.6956V70.0471H17.3285V69.4846H19.0189V69.4202C19.0189 69.303 18.9974 69.1985 18.9545 69.1067C18.9135 69.0129 18.851 68.9387 18.767 68.884C18.683 68.8293 18.5756 68.802 18.4447 68.802C18.3334 68.802 18.2377 68.8264 18.1576 68.8752C18.0775 68.9241 18.0121 68.9924 17.9613 69.0803C17.9125 69.1682 17.8754 69.2717 17.85 69.3909C17.8265 69.5081 17.8148 69.637 17.8148 69.7776V69.8948C17.8148 70.0217 17.8324 70.1389 17.8676 70.2463C17.9047 70.3538 17.9564 70.4465 18.0228 70.5247C18.0912 70.6028 18.1732 70.6633 18.2689 70.7063C18.3666 70.7493 18.4769 70.7708 18.6 70.7708C18.7523 70.7708 18.8939 70.7415 19.0248 70.6829C19.1576 70.6223 19.2719 70.5315 19.3676 70.4104L19.7777 70.8557C19.7113 70.9514 19.6205 71.0432 19.5052 71.1311C19.392 71.219 19.2552 71.2913 19.0951 71.3479C18.9349 71.4026 18.7523 71.4299 18.5472 71.4299ZM21.1722 68.8928V71.3713H20.3285V68.2014H21.1224L21.1722 68.8928ZM22.1273 68.1809L22.1127 68.9631C22.0717 68.9573 22.0219 68.9524 21.9633 68.9485C21.9066 68.9426 21.8549 68.9397 21.808 68.9397C21.6888 68.9397 21.5853 68.9553 21.4974 68.9866C21.4115 69.0159 21.3392 69.0598 21.2806 69.1184C21.224 69.177 21.181 69.2483 21.1517 69.3323C21.1244 69.4163 21.1088 69.512 21.1049 69.6194L20.9349 69.5667C20.9349 69.3616 20.9554 69.1731 20.9965 69.0012C21.0375 68.8274 21.097 68.676 21.1752 68.5471C21.2552 68.4182 21.3529 68.3186 21.4681 68.2483C21.5834 68.178 21.7152 68.1428 21.8636 68.1428C21.9105 68.1428 21.9584 68.1467 22.0072 68.1545C22.056 68.1604 22.0961 68.1692 22.1273 68.1809ZM23.6566 70.7561L24.3597 68.2014H25.2416L24.1722 71.3713H23.639L23.6566 70.7561ZM23.1732 68.2014L23.8793 70.759L23.8939 71.3713H23.3578L22.2885 68.2014H23.1732ZM26.5101 68.2014V71.3713H25.6635V68.2014H26.5101ZM25.6107 67.3752C25.6107 67.2522 25.6537 67.1506 25.7396 67.0706C25.8256 66.9905 25.9408 66.9504 26.0853 66.9504C26.2279 66.9504 26.3422 66.9905 26.4281 67.0706C26.516 67.1506 26.5599 67.2522 26.5599 67.3752C26.5599 67.4983 26.516 67.5999 26.4281 67.6799C26.3422 67.76 26.2279 67.8 26.0853 67.8C25.9408 67.8 25.8256 67.76 25.7396 67.6799C25.6537 67.5999 25.6107 67.4983 25.6107 67.3752ZM28.517 70.7708C28.6205 70.7708 28.7123 70.7512 28.7924 70.7122C28.8724 70.6711 28.9349 70.6145 28.9799 70.5422C29.0267 70.468 29.0511 70.3811 29.0531 70.2815H29.847C29.8451 70.5042 29.7855 70.7024 29.6683 70.8762C29.5511 71.0481 29.3939 71.1838 29.1967 71.2834C28.9994 71.3811 28.7787 71.4299 28.5345 71.4299C28.2885 71.4299 28.0736 71.3889 27.89 71.3069C27.7084 71.2249 27.557 71.1116 27.4359 70.967C27.3148 70.8206 27.224 70.6506 27.1635 70.4573C27.1029 70.262 27.0726 70.053 27.0726 69.8303V69.7454C27.0726 69.5208 27.1029 69.3118 27.1635 69.1184C27.224 68.9231 27.3148 68.7532 27.4359 68.6086C27.557 68.4622 27.7084 68.3479 27.89 68.2659C28.0717 68.1838 28.2845 68.1428 28.5287 68.1428C28.7885 68.1428 29.016 68.1926 29.2113 68.2922C29.4086 68.3918 29.5629 68.5344 29.6742 68.72C29.7875 68.9036 29.8451 69.1213 29.847 69.3733H29.0531C29.0511 69.2678 29.0287 69.1721 28.9857 69.0862C28.9447 69.0002 28.8842 68.9319 28.8041 68.8811C28.726 68.8284 28.6293 68.802 28.514 68.802C28.391 68.802 28.2904 68.8284 28.2123 68.8811C28.1342 68.9319 28.0736 69.0022 28.0306 69.092C27.9877 69.1799 27.9574 69.2805 27.9398 69.3938C27.9242 69.5051 27.9164 69.6223 27.9164 69.7454V69.8303C27.9164 69.9534 27.9242 70.0715 27.9398 70.1848C27.9554 70.2981 27.9847 70.3987 28.0277 70.4866C28.0726 70.5745 28.1342 70.6438 28.2123 70.6946C28.2904 70.7454 28.392 70.7708 28.517 70.7708ZM31.7953 71.4299C31.5492 71.4299 31.3285 71.3909 31.1332 71.3127C30.9379 71.2327 30.7719 71.1223 30.6351 70.9817C30.5004 70.8411 30.3969 70.678 30.3246 70.4924C30.2523 70.3049 30.2162 70.1057 30.2162 69.8948V69.7776C30.2162 69.5374 30.2504 69.3176 30.3187 69.1184C30.3871 68.9192 30.4847 68.7463 30.6117 68.5999C30.7406 68.4534 30.8969 68.3411 31.0804 68.2629C31.264 68.1829 31.4711 68.1428 31.7015 68.1428C31.9261 68.1428 32.1254 68.1799 32.2992 68.2542C32.473 68.3284 32.6185 68.4338 32.7357 68.5706C32.8549 68.7073 32.9447 68.8713 33.0052 69.0627C33.0658 69.2522 33.0961 69.4631 33.0961 69.6956V70.0471H30.5765V69.4846H32.267V69.4202C32.267 69.303 32.2455 69.1985 32.2025 69.1067C32.1615 69.0129 32.099 68.9387 32.015 68.884C31.931 68.8293 31.8236 68.802 31.6927 68.802C31.5814 68.802 31.4857 68.8264 31.4056 68.8752C31.3256 68.9241 31.2601 68.9924 31.2094 69.0803C31.1605 69.1682 31.1234 69.2717 31.098 69.3909C31.0746 69.5081 31.0629 69.637 31.0629 69.7776V69.8948C31.0629 70.0217 31.0804 70.1389 31.1156 70.2463C31.1527 70.3538 31.2045 70.4465 31.2709 70.5247C31.3392 70.6028 31.4213 70.6633 31.517 70.7063C31.6146 70.7493 31.725 70.7708 31.848 70.7708C32.0004 70.7708 32.142 70.7415 32.2728 70.6829C32.4056 70.6223 32.5199 70.5315 32.6156 70.4104L33.0258 70.8557C32.9594 70.9514 32.8685 71.0432 32.7533 71.1311C32.64 71.219 32.5033 71.2913 32.3431 71.3479C32.183 71.4026 32.0004 71.4299 31.7953 71.4299ZM35.2904 70.4954C35.2904 70.4348 35.2728 70.3801 35.2377 70.3313C35.2025 70.2825 35.1371 70.2375 35.0414 70.1965C34.9476 70.1536 34.8119 70.1145 34.6342 70.0793C34.474 70.0442 34.3246 70.0002 34.1859 69.9475C34.0492 69.8928 33.9301 69.8274 33.8285 69.7512C33.7289 69.675 33.6508 69.5852 33.5941 69.4817C33.5375 69.3762 33.5092 69.2561 33.5092 69.1213C33.5092 68.9885 33.5375 68.8635 33.5941 68.7463C33.6527 68.6292 33.7357 68.5256 33.8431 68.4358C33.9525 68.344 34.0853 68.2727 34.2416 68.2219C34.3998 68.1692 34.5775 68.1428 34.7748 68.1428C35.0502 68.1428 35.2865 68.1868 35.4838 68.2747C35.683 68.3625 35.8353 68.4836 35.9408 68.6379C36.0482 68.7903 36.1019 68.9641 36.1019 69.1594H35.2582C35.2582 69.0774 35.2406 69.0042 35.2054 68.9397C35.1722 68.8733 35.1195 68.8215 35.0472 68.7844C34.9769 68.7454 34.8851 68.7258 34.7719 68.7258C34.6781 68.7258 34.597 68.7424 34.5287 68.7756C34.4603 68.8069 34.4076 68.8499 34.3705 68.9045C34.3353 68.9573 34.3177 69.0159 34.3177 69.0803C34.3177 69.1292 34.3275 69.1731 34.347 69.2122C34.3685 69.2493 34.4027 69.2834 34.4496 69.3147C34.4965 69.3459 34.557 69.3752 34.6312 69.4026C34.7074 69.428 34.8011 69.4514 34.9125 69.4729C35.141 69.5198 35.3451 69.5813 35.5248 69.6575C35.7045 69.7317 35.847 69.8333 35.9525 69.9622C36.058 70.0891 36.1107 70.2561 36.1107 70.4631C36.1107 70.6038 36.0795 70.7327 36.017 70.8499C35.9545 70.967 35.8646 71.0696 35.7474 71.1575C35.6302 71.2434 35.4896 71.3108 35.3256 71.3596C35.1635 71.4065 34.9808 71.4299 34.7777 71.4299C34.4828 71.4299 34.2328 71.3772 34.0277 71.2717C33.8246 71.1663 33.6703 71.0325 33.5648 70.8704C33.4613 70.7063 33.4095 70.5383 33.4095 70.3665H34.2094C34.2133 70.4817 34.2426 70.5745 34.2972 70.6448C34.3539 70.7151 34.4252 70.7659 34.5111 70.7971C34.599 70.8284 34.6937 70.844 34.7953 70.844C34.9047 70.844 34.9955 70.8293 35.0677 70.8C35.14 70.7688 35.1947 70.7278 35.2318 70.677C35.2709 70.6243 35.2904 70.5637 35.2904 70.4954ZM40.6781 69.9563H41.5541C41.5365 70.2434 41.4574 70.4983 41.3168 70.7209C41.1781 70.9436 40.9838 71.1174 40.7338 71.2424C40.4857 71.3674 40.1869 71.4299 39.8373 71.4299C39.5638 71.4299 39.3187 71.3831 39.1019 71.2893C38.8851 71.1936 38.6996 71.0569 38.5453 70.8792C38.3929 70.7014 38.2767 70.4866 38.1967 70.2346C38.1166 69.9827 38.0765 69.7004 38.0765 69.3879V69.092C38.0765 68.7795 38.1176 68.4973 38.1996 68.2454C38.2836 67.9915 38.4027 67.7756 38.557 67.5979C38.7133 67.4202 38.8998 67.2834 39.1166 67.1877C39.3334 67.092 39.5756 67.0442 39.8431 67.0442C40.1986 67.0442 40.4984 67.1086 40.7426 67.2375C40.9886 67.3665 41.1791 67.5442 41.3138 67.7708C41.4506 67.9973 41.5326 68.2551 41.5599 68.5442H40.681C40.6713 68.3723 40.6371 68.2268 40.5785 68.1077C40.5199 67.9866 40.431 67.8958 40.3119 67.8352C40.1947 67.7727 40.0385 67.7415 39.8431 67.7415C39.6967 67.7415 39.5687 67.7688 39.4594 67.8235C39.35 67.8782 39.2582 67.9612 39.184 68.0725C39.1097 68.1838 39.0541 68.3245 39.017 68.4944C38.9818 68.6624 38.9642 68.8596 38.9642 69.0862V69.3879C38.9642 69.6086 38.9808 69.803 39.014 69.9709C39.0472 70.137 39.098 70.2776 39.1664 70.3928C39.2367 70.5061 39.3265 70.592 39.4359 70.6506C39.5472 70.7073 39.681 70.7356 39.8373 70.7356C40.0209 70.7356 40.1722 70.7063 40.2914 70.6477C40.4105 70.5891 40.5013 70.5022 40.5638 70.387C40.6283 70.2717 40.6664 70.1282 40.6781 69.9563ZM41.9437 69.8186V69.7571C41.9437 69.5247 41.9769 69.3108 42.0433 69.1155C42.1097 68.9182 42.2064 68.7473 42.3334 68.6028C42.4603 68.4583 42.6166 68.3459 42.8021 68.2659C42.9877 68.1838 43.2006 68.1428 43.4408 68.1428C43.681 68.1428 43.8949 68.1838 44.0824 68.2659C44.2699 68.3459 44.4271 68.4583 44.5541 68.6028C44.683 68.7473 44.7806 68.9182 44.847 69.1155C44.9135 69.3108 44.9467 69.5247 44.9467 69.7571V69.8186C44.9467 70.0491 44.9135 70.2629 44.847 70.4602C44.7806 70.6555 44.683 70.8264 44.5541 70.9729C44.4271 71.1174 44.2709 71.2297 44.0853 71.3098C43.8998 71.3899 43.6869 71.4299 43.4467 71.4299C43.2064 71.4299 42.9926 71.3899 42.8051 71.3098C42.6195 71.2297 42.4623 71.1174 42.3334 70.9729C42.2064 70.8264 42.1097 70.6555 42.0433 70.4602C41.9769 70.2629 41.9437 70.0491 41.9437 69.8186ZM42.7875 69.7571V69.8186C42.7875 69.9514 42.7992 70.0754 42.8226 70.1907C42.8461 70.3059 42.8832 70.4075 42.934 70.4954C42.9867 70.5813 43.0551 70.6487 43.139 70.6975C43.223 70.7463 43.3256 70.7708 43.4467 70.7708C43.5638 70.7708 43.6644 70.7463 43.7484 70.6975C43.8324 70.6487 43.8998 70.5813 43.9506 70.4954C44.0013 70.4075 44.0385 70.3059 44.0619 70.1907C44.0873 70.0754 44.1 69.9514 44.1 69.8186V69.7571C44.1 69.6282 44.0873 69.5071 44.0619 69.3938C44.0385 69.2786 44.0004 69.177 43.9476 69.0891C43.8969 68.9993 43.8295 68.929 43.7455 68.8782C43.6615 68.8274 43.5599 68.802 43.4408 68.802C43.3217 68.802 43.2201 68.8274 43.1361 68.8782C43.0541 68.929 42.9867 68.9993 42.934 69.0891C42.8832 69.177 42.8461 69.2786 42.8226 69.3938C42.7992 69.5071 42.7875 69.6282 42.7875 69.7571ZM46.309 68.8577V71.3713H45.4623V68.2014H46.2562L46.309 68.8577ZM46.1918 69.675H45.9574C45.9574 69.4543 45.9838 69.2512 46.0365 69.0657C46.0912 68.8782 46.1703 68.7161 46.2738 68.5793C46.3793 68.4407 46.5092 68.3333 46.6635 68.2571C46.8177 68.1809 46.9965 68.1428 47.1996 68.1428C47.3402 68.1428 47.4691 68.1643 47.5863 68.2073C47.7035 68.2483 47.8041 68.3137 47.8881 68.4036C47.974 68.4915 48.0404 68.6067 48.0873 68.7493C48.1342 68.8899 48.1576 69.0588 48.1576 69.2561V71.3713H47.3138V69.3499C47.3138 69.2053 47.2943 69.094 47.2552 69.0159C47.2162 68.9377 47.1605 68.8831 47.0883 68.8518C47.0179 68.8206 46.933 68.8049 46.8334 68.8049C46.724 68.8049 46.6283 68.8274 46.5463 68.8723C46.4662 68.9172 46.3998 68.9797 46.347 69.0598C46.2943 69.1379 46.2552 69.2297 46.2299 69.3352C46.2045 69.4407 46.1918 69.554 46.1918 69.675ZM48.0785 69.5784L47.7767 69.6165C47.7767 69.4094 47.8021 69.217 47.8529 69.0393C47.9056 68.8616 47.9828 68.7053 48.0844 68.5706C48.1879 68.4358 48.3158 68.3313 48.4681 68.2571C48.6205 68.1809 48.7963 68.1428 48.9955 68.1428C49.1478 68.1428 49.2865 68.1653 49.4115 68.2102C49.5365 68.2532 49.6429 68.3225 49.7308 68.4182C49.8207 68.512 49.889 68.635 49.9359 68.7874C49.9847 68.9397 50.0092 69.1262 50.0092 69.3469V71.3713H49.1625V69.3469C49.1625 69.2004 49.1429 69.0891 49.1039 69.0129C49.0668 68.9348 49.0121 68.8811 48.9398 68.8518C48.8695 68.8206 48.7855 68.8049 48.6879 68.8049C48.5863 68.8049 48.4974 68.8254 48.4213 68.8665C48.3451 68.9055 48.2816 68.9602 48.2308 69.0305C48.1801 69.1008 48.142 69.1829 48.1166 69.2766C48.0912 69.3684 48.0785 69.469 48.0785 69.5784ZM51.5062 68.8108V72.5901H50.6625V68.2014H51.4447L51.5062 68.8108ZM53.5131 69.7512V69.8127C53.5131 70.0432 53.4857 70.2571 53.431 70.4543C53.3783 70.6516 53.3002 70.8235 53.1967 70.97C53.0931 71.1145 52.9642 71.2278 52.8099 71.3098C52.6576 71.3899 52.4818 71.4299 52.2826 71.4299C52.0892 71.4299 51.9213 71.3909 51.7787 71.3127C51.6361 71.2346 51.516 71.1252 51.4183 70.9846C51.3226 70.842 51.2455 70.677 51.1869 70.4895C51.1283 70.302 51.0834 70.1008 51.0521 69.886V69.7249C51.0834 69.4944 51.1283 69.2834 51.1869 69.092C51.2455 68.8987 51.3226 68.7317 51.4183 68.5911C51.516 68.4485 51.6351 68.3381 51.7758 68.26C51.9183 68.1819 52.0853 68.1428 52.2767 68.1428C52.4779 68.1428 52.6547 68.1809 52.807 68.2571C52.9613 68.3333 53.0902 68.4426 53.1937 68.5852C53.2992 68.7278 53.3783 68.8977 53.431 69.095C53.4857 69.2922 53.5131 69.511 53.5131 69.7512ZM52.6664 69.8127V69.7512C52.6664 69.6165 52.6547 69.4924 52.6312 69.3792C52.6097 69.2639 52.5746 69.1633 52.5258 69.0774C52.4789 68.9915 52.4164 68.925 52.3383 68.8782C52.2621 68.8293 52.1693 68.8049 52.0599 68.8049C51.9447 68.8049 51.8461 68.8235 51.764 68.8606C51.684 68.8977 51.6185 68.9514 51.5677 69.0217C51.517 69.092 51.4789 69.176 51.4535 69.2737C51.4281 69.3713 51.4125 69.4817 51.4066 69.6047V70.012C51.4164 70.1565 51.4437 70.2864 51.4886 70.4016C51.5336 70.5149 51.6029 70.6047 51.6967 70.6711C51.7904 70.7375 51.9135 70.7708 52.0658 70.7708C52.1771 70.7708 52.2709 70.7463 52.347 70.6975C52.4232 70.6467 52.4847 70.5774 52.5316 70.4895C52.5804 70.4016 52.6146 70.3 52.6342 70.1848C52.6556 70.0696 52.6664 69.9456 52.6664 69.8127ZM55.7484 70.6565V69.2444C55.7484 69.1428 55.7318 69.0559 55.6986 68.9836C55.6654 68.9094 55.6136 68.8518 55.5433 68.8108C55.475 68.7698 55.3861 68.7493 55.2767 68.7493C55.183 68.7493 55.1019 68.7659 55.0336 68.7991C54.9652 68.8303 54.9125 68.8762 54.8754 68.9368C54.8383 68.9954 54.8197 69.0647 54.8197 69.1448H53.976C53.976 69.01 54.0072 68.8821 54.0697 68.761C54.1322 68.6399 54.223 68.5334 54.3422 68.4417C54.4613 68.3479 54.6029 68.2747 54.767 68.2219C54.933 68.1692 55.1185 68.1428 55.3236 68.1428C55.5697 68.1428 55.7885 68.1838 55.9799 68.2659C56.1713 68.3479 56.3217 68.4709 56.431 68.635C56.5424 68.7991 56.598 69.0042 56.598 69.2502V70.6067C56.598 70.7805 56.6088 70.9231 56.6302 71.0344C56.6517 71.1438 56.683 71.2395 56.724 71.3215V71.3713H55.8715C55.8304 71.2854 55.7992 71.178 55.7777 71.0491C55.7582 70.9182 55.7484 70.7874 55.7484 70.6565ZM55.8597 69.4407L55.8656 69.9182H55.3939C55.2826 69.9182 55.1859 69.9309 55.1039 69.9563C55.0219 69.9817 54.9545 70.0178 54.9017 70.0647C54.849 70.1096 54.8099 70.1624 54.7845 70.2229C54.7611 70.2834 54.7494 70.3499 54.7494 70.4221C54.7494 70.4944 54.766 70.5598 54.7992 70.6184C54.8324 70.675 54.8802 70.72 54.9427 70.7532C55.0052 70.7844 55.0785 70.8 55.1625 70.8C55.2894 70.8 55.3998 70.7747 55.4935 70.7239C55.5873 70.6731 55.6595 70.6106 55.7103 70.5364C55.7631 70.4622 55.7904 70.3918 55.7924 70.3254L56.015 70.6829C55.9838 70.7629 55.9408 70.8459 55.8861 70.9319C55.8334 71.0178 55.766 71.0989 55.684 71.175C55.6019 71.2493 55.5033 71.3108 55.3881 71.3596C55.2728 71.4065 55.1361 71.4299 54.9779 71.4299C54.7767 71.4299 54.5941 71.3899 54.4301 71.3098C54.2679 71.2278 54.139 71.1155 54.0433 70.9729C53.9496 70.8284 53.9027 70.6643 53.9027 70.4807C53.9027 70.3147 53.934 70.1672 53.9965 70.0383C54.059 69.9094 54.1508 69.801 54.2719 69.7131C54.3949 69.6233 54.5482 69.5559 54.7318 69.511C54.9154 69.4641 55.1283 69.4407 55.3705 69.4407H55.8597ZM58.0746 68.8782V71.3713H57.2308V68.2014H58.0219L58.0746 68.8782ZM57.9515 69.675H57.723C57.723 69.4407 57.7533 69.2297 57.8138 69.0422C57.8744 68.8528 57.9594 68.6917 58.0687 68.5588C58.1781 68.4241 58.308 68.3215 58.4584 68.2512C58.6107 68.179 58.7806 68.1428 58.9681 68.1428C59.1166 68.1428 59.2523 68.1643 59.3754 68.2073C59.4984 68.2502 59.6039 68.3186 59.6918 68.4124C59.7816 68.5061 59.85 68.6301 59.8969 68.7844C59.9457 68.9387 59.9701 69.1272 59.9701 69.3499V71.3713H59.1205V69.3469C59.1205 69.2063 59.101 69.0969 59.0619 69.0188C59.0228 68.9407 58.9652 68.886 58.889 68.8547C58.8148 68.8215 58.723 68.8049 58.6136 68.8049C58.5004 68.8049 58.4017 68.8274 58.3177 68.8723C58.2357 68.9172 58.1674 68.9797 58.1127 69.0598C58.0599 69.1379 58.0199 69.2297 57.9926 69.3352C57.9652 69.4407 57.9515 69.554 57.9515 69.675ZM61.5521 71.0139L62.3929 68.2014H63.2982L62.0238 71.8489C61.9965 71.929 61.9594 72.0149 61.9125 72.1067C61.8676 72.1985 61.806 72.2854 61.7279 72.3674C61.6517 72.4514 61.5551 72.5198 61.4379 72.5725C61.3226 72.6252 61.181 72.6516 61.0131 72.6516C60.933 72.6516 60.8676 72.6467 60.8168 72.637C60.766 72.6272 60.7054 72.6135 60.6351 72.5959V71.9778C60.6566 71.9778 60.6791 71.9778 60.7025 71.9778C60.726 71.9797 60.7484 71.9807 60.7699 71.9807C60.8812 71.9807 60.972 71.968 61.0424 71.9426C61.1127 71.9172 61.1693 71.8782 61.2123 71.8254C61.2552 71.7747 61.2894 71.7083 61.3148 71.6262L61.5521 71.0139ZM61.2006 68.2014L61.889 70.4983L62.0092 71.3918L61.4349 71.4534L60.2953 68.2014H61.2006Z" fill="#1C1B24" style="fill:#1C1B24;fill:color(display-p3 0.1098 0.1059 0.1412);fill-opacity:1;"/>
<path d="M36.5481 80.1099V80.3677H34.9322V80.1422L35.741 79.2418C35.8405 79.131 35.9173 79.0372 35.9716 78.9604C36.027 78.8824 36.0654 78.8128 36.0869 78.7518C36.1095 78.6896 36.1208 78.6263 36.1208 78.5619C36.1208 78.4805 36.1038 78.407 36.0699 78.3415C36.0372 78.2748 35.9885 78.2216 35.9241 78.1821C35.8597 78.1425 35.7817 78.1227 35.6901 78.1227C35.5805 78.1227 35.4889 78.1442 35.4154 78.1872C35.3431 78.229 35.2888 78.2878 35.2527 78.3635C35.2165 78.4392 35.1984 78.5263 35.1984 78.6246H34.8847C34.8847 78.4856 34.9152 78.3584 34.9763 78.2431C35.0373 78.1278 35.1278 78.0363 35.2476 77.9684C35.3674 77.8995 35.5149 77.865 35.6901 77.865C35.8461 77.865 35.9795 77.8927 36.0903 77.9481C36.2011 78.0024 36.2858 78.0792 36.3446 78.1787C36.4045 78.277 36.4345 78.3923 36.4345 78.5246C36.4345 78.5969 36.422 78.6704 36.3972 78.745C36.3734 78.8185 36.3401 78.892 36.2971 78.9654C36.2553 79.0389 36.2061 79.1113 36.1496 79.1825C36.0942 79.2537 36.0349 79.3238 35.9716 79.3927L35.3103 80.1099H36.5481ZM38.4336 78.9366V79.313C38.4336 79.5154 38.4155 79.6861 38.3793 79.8251C38.3431 79.9641 38.2911 80.076 38.2233 80.1608C38.1555 80.2456 38.0735 80.3072 37.9775 80.3456C37.8825 80.3829 37.7751 80.4016 37.6553 80.4016C37.5603 80.4016 37.4727 80.3897 37.3925 80.366C37.3122 80.3422 37.2399 80.3044 37.1754 80.2524C37.1121 80.1992 37.0579 80.1303 37.0127 80.0455C36.9675 79.9607 36.933 79.8579 36.9092 79.7369C36.8855 79.616 36.8736 79.4747 36.8736 79.313V78.9366C36.8736 78.7343 36.8917 78.5647 36.9279 78.4279C36.9652 78.2912 37.0178 78.1815 37.0856 78.099C37.1534 78.0154 37.2348 77.9554 37.3297 77.9193C37.4258 77.8831 37.5332 77.865 37.6519 77.865C37.748 77.865 37.8362 77.8769 37.9164 77.9006C37.9978 77.9232 38.0701 77.96 38.1334 78.0108C38.1967 78.0606 38.2504 78.1273 38.2945 78.2109C38.3397 78.2934 38.3742 78.3946 38.398 78.5144C38.4217 78.6342 38.4336 78.775 38.4336 78.9366ZM38.1182 79.3639V78.884C38.1182 78.7733 38.1114 78.6761 38.0978 78.5924C38.0854 78.5076 38.0668 78.4353 38.0419 78.3754C38.017 78.3155 37.9854 78.2669 37.9469 78.2296C37.9096 78.1923 37.8661 78.1651 37.8164 78.1482C37.7678 78.1301 37.7129 78.121 37.6519 78.121C37.5773 78.121 37.5112 78.1352 37.4535 78.1634C37.3959 78.1906 37.3473 78.2341 37.3077 78.294C37.2693 78.3539 37.2399 78.4325 37.2195 78.5297C37.1992 78.6269 37.189 78.745 37.189 78.884V79.3639C37.189 79.4747 37.1952 79.5725 37.2077 79.6572C37.2212 79.742 37.241 79.8155 37.267 79.8777C37.293 79.9387 37.3247 79.989 37.362 80.0286C37.3993 80.0681 37.4422 80.0975 37.4908 80.1167C37.5406 80.1348 37.5954 80.1439 37.6553 80.1439C37.7322 80.1439 37.7994 80.1292 37.8571 80.0998C37.9147 80.0704 37.9628 80.0246 38.0012 79.9624C38.0408 79.8991 38.0701 79.8183 38.0894 79.72C38.1086 79.6205 38.1182 79.5018 38.1182 79.3639ZM40.4547 80.1099V80.3677H38.8388V80.1422L39.6476 79.2418C39.7471 79.131 39.8239 79.0372 39.8782 78.9604C39.9336 78.8824 39.972 78.8128 39.9935 78.7518C40.0161 78.6896 40.0274 78.6263 40.0274 78.5619C40.0274 78.4805 40.0104 78.407 39.9765 78.3415C39.9438 78.2748 39.8951 78.2216 39.8307 78.1821C39.7663 78.1425 39.6883 78.1227 39.5967 78.1227C39.4871 78.1227 39.3955 78.1442 39.322 78.1872C39.2497 78.229 39.1954 78.2878 39.1593 78.3635C39.1231 78.4392 39.105 78.5263 39.105 78.6246H38.7913C38.7913 78.4856 38.8218 78.3584 38.8829 78.2431C38.9439 78.1278 39.0344 78.0363 39.1542 77.9684C39.274 77.8995 39.4215 77.865 39.5967 77.865C39.7527 77.865 39.8861 77.8927 39.9969 77.9481C40.1077 78.0024 40.1924 78.0792 40.2512 78.1787C40.3111 78.277 40.3411 78.3923 40.3411 78.5246C40.3411 78.5969 40.3286 78.6704 40.3038 78.745C40.28 78.8185 40.2467 78.892 40.2037 78.9654C40.1619 79.0389 40.1127 79.1113 40.0562 79.1825C40.0008 79.2537 39.9415 79.3238 39.8782 79.3927L39.2169 80.1099H40.4547ZM42.4589 79.5368V79.7946H40.6751V79.6098L41.7806 77.8989H42.0367L41.762 78.394L41.0312 79.5368H42.4589ZM42.1146 77.8989V80.3677H41.801V77.8989H42.1146Z" fill="white" style="fill:white;fill-opacity:1;"/>
<path d="M43.889 47.1759H72.3445" stroke="white" style="stroke:white;stroke-opacity:1;" stroke-width="0.192919"/>
<path d="M5.20886 47.1759H33.6643" stroke="white" style="stroke:white;stroke-opacity:1;" stroke-width="0.192919"/>
<path d="M38.7766 45.0368L39.5053 45.481L39.312 44.6433L39.9663 44.0827L39.1068 44.0082L38.7766 43.2211L38.4406 44.0082L37.587 44.0827L38.2353 44.6433L38.0331 45.481L38.7766 45.0368ZM36.3973 46.8257L37.1259 47.2699L36.9326 46.4321L37.587 45.8716L36.7275 45.797L36.3973 45.0099L36.0612 45.797L35.2076 45.8716L35.856 46.4321L35.6538 47.2699L36.3973 46.8257ZM41.156 45.9312L41.8846 46.3755L41.6913 45.5376L42.3456 44.9771L41.4861 44.9026L41.156 44.1155L40.8199 44.9026L39.9663 44.9771L40.6147 45.5376L40.4124 46.3755L41.156 45.9312ZM39.6689 49.7803H37.8844V45.9044H39.6689V49.7803ZM37.2895 49.7803H35.505V47.9915H37.2895V49.7803ZM42.0482 49.7803H40.2637V46.7988H42.0482V49.7803Z" fill="white" style="fill:white;fill-opacity:1;"/>
</svg>
