<svg width="122" height="104" viewBox="0 0 122 104" fill="none" xmlns="http://www.w3.org/2000/svg">
<g clip-path="url(#clip0_322_1826)">
<path fill-rule="evenodd" clip-rule="evenodd" d="M17.5093 67.9093H0L6.17794 58.601L0 48.7958H17.5093V67.9093Z" fill="#6D697D" style="fill:#6D697D;fill:color(display-p3 0.4275 0.4118 0.4902);fill-opacity:1;"/>
<path fill-rule="evenodd" clip-rule="evenodd" d="M104.492 67.9093H122.001L115.824 58.601L122.001 48.7958H104.492V67.9093Z" fill="#6D697D" style="fill:#6D697D;fill:color(display-p3 0.4275 0.4118 0.4902);fill-opacity:1;"/>
<path d="M9.03906 62.2766L20.6742 68.6965L16.5455 58.2402H9.03906V62.2766Z" fill="#5B576B" style="fill:#5B576B;fill:color(display-p3 0.3569 0.3412 0.4196);fill-opacity:1;"/>
<path d="M112.85 62.2766L101.215 68.6965L105.344 58.2402H112.85V62.2766Z" fill="#5B576B" style="fill:#5B576B;fill:color(display-p3 0.3569 0.3412 0.4196);fill-opacity:1;"/>
<path d="M108.445 25.9888V77.9888L61.2945 104L14.1212 77.9888V25.9888L61.2945 0L108.445 25.9888Z" fill="#292733" style="fill:#292733;fill:color(display-p3 0.1608 0.1529 0.2000);fill-opacity:1;"/>
<path d="M105.282 27.467V76.7562L61.1261 101.413L16.9452 76.7562V27.467L61.1261 2.81055L105.282 27.467Z" fill="url(#paint0_radial_322_1826)"/>
<path d="M105.282 27.467V76.7562L61.1261 101.413L16.9452 76.7562V27.467L61.1261 2.81055L105.282 27.467Z" fill="#292733" style="fill:#292733;fill:color(display-p3 0.1608 0.1529 0.2000);fill-opacity:1;"/>
<path d="M105.282 27.4671V76.7564L61.1261 101.413L16.9452 76.7564V27.4671L61.1261 2.81067L105.282 27.4671Z" stroke="#4A4658" style="stroke:#4A4658;stroke:color(display-p3 0.2902 0.2745 0.3451);stroke-opacity:1;" stroke-width="1.03784" stroke-miterlimit="10"/>
<path fill-rule="evenodd" clip-rule="evenodd" d="M9.03906 62.2879C9.03906 62.3498 9.0899 62.4004 9.15203 62.4004H112.852C112.914 62.4004 112.965 62.3498 112.965 62.2879V43.3993C112.965 43.3375 112.914 43.2869 112.852 43.2869H9.15203C9.0899 43.2869 9.03906 43.3375 9.03906 43.3993V62.2879Z" fill="#A7A4B5" style="fill:#A7A4B5;fill:color(display-p3 0.6549 0.6431 0.7098);fill-opacity:1;"/>
<path d="M53.2055 23.4982H51.2852V33.9544H53.2055V23.4982Z" fill="white" style="fill:white;fill-opacity:1;"/>
<path d="M59.588 30.7859C59.588 32.4218 58.0834 32.5443 57.6507 32.5443C56.5798 32.5443 56.3121 31.583 56.3121 31.0107V26.9834H54.7871V31.0107C54.7871 32.0125 55.0966 32.8501 55.6727 33.4235C56.1878 33.9137 56.9086 34.1802 57.7535 34.1802C58.4132 34.1802 58.9487 33.9756 59.5869 33.6079V33.8946H61.3378V26.9856H59.5869V30.7881L59.588 30.7859Z" fill="white" style="fill:white;fill-opacity:1;"/>
<path d="M64.9012 24.623H62.9774V27.0685H61.9043V28.4131H62.9774V33.9549H64.9012V28.4131H66.1969V27.0685H64.9012V24.623Z" fill="white" style="fill:white;fill-opacity:1;"/>
<path d="M71.8407 31.9355C71.4307 32.2807 70.9189 32.4629 70.3869 32.4426C69.1579 32.4426 68.2372 31.5701 68.2372 30.393C68.2372 29.2158 69.1183 28.3838 70.3869 28.3838C70.9189 28.3838 71.4521 28.5659 71.8611 28.8909L72.1276 29.1146L73.3149 27.9779L73.0076 27.7137C72.2914 27.1043 71.3493 26.7592 70.3666 26.7592C68.1547 26.7592 66.5371 28.2815 66.5371 30.393C66.5371 32.5045 68.1954 34.0673 70.3666 34.0673C71.3493 34.0875 72.2914 33.7423 73.0291 33.1127L73.316 32.8485L72.1073 31.7118L71.8407 31.9355Z" fill="white" style="fill:white;fill-opacity:1;"/>
<path d="M79.6802 27.6981C79.1662 27.209 78.4274 26.9437 77.5847 26.9437C76.9273 26.9437 76.2292 27.1472 75.7366 27.5148V23.4999H73.9902V33.9561H75.7366V30.3279C75.7366 28.6976 77.1329 28.5751 77.5644 28.5751C78.6116 28.5751 78.7968 29.533 78.7968 30.1042V33.9561H80.5432V30.1042C80.5229 29.0855 80.2766 28.249 79.6802 27.6992V27.6981Z" fill="white" style="fill:white;fill-opacity:1;"/>
<path d="M70.3206 31.7058C71.0379 31.7058 71.6196 31.1526 71.6196 30.4691C71.6196 29.7855 71.0379 29.2323 70.3206 29.2323C69.6032 29.2323 69.0215 29.7855 69.0215 30.4691C69.0215 31.1526 69.6032 31.7058 70.3206 31.7058Z" fill="#A7A4B5" style="fill:#A7A4B5;fill:color(display-p3 0.6549 0.6431 0.7098);fill-opacity:1;"/>
<path d="M49.1687 31.5274C48.4898 32.1807 47.5646 32.5686 46.5988 32.5472C44.6039 32.5472 43.1647 31.0575 43.1647 29.0179C43.1647 26.9784 44.6039 25.4685 46.5988 25.4685C47.5646 25.4685 48.4909 25.8361 49.1484 26.4882L49.4161 26.7536L50.609 25.6112L50.3413 25.3459C49.354 24.3666 47.9973 23.8359 46.5785 23.8359C43.6584 23.8359 41.459 26.0599 41.459 29.0179C41.459 31.976 43.6595 34.1797 46.5785 34.1797C47.9973 34.1797 49.354 33.649 50.3413 32.6698L50.609 32.4044L49.4364 31.2419L49.1687 31.5274Z" fill="white" style="fill:white;fill-opacity:1;"/>
<path d="M55.7839 77V71.1155H58.0578V71.7039H56.6049V73.6654H57.7309V74.2466H56.6049V77H55.7839ZM58.0325 77L59.2821 71.1155H60.0739L61.3308 77H60.5534L60.2846 75.518H59.0859L58.8026 77H58.0325ZM59.1949 74.9295H60.1757L59.6816 72.2778L59.1949 74.9295ZM61.9279 77V71.1155H62.7488V76.4115H64.2526V77H61.9279ZM64.8154 77V71.1155H65.6363V76.4115H67.1401V77H64.8154Z" fill="white" style="fill:white;fill-opacity:1;"/>
<path d="M54.9751 90V89.5267L56.2579 87.5279C56.3534 87.3784 56.4406 87.2394 56.5194 87.1107C56.6025 86.982 56.6689 86.847 56.7187 86.7059C56.7727 86.5606 56.7997 86.3946 56.7997 86.2077C56.7997 85.9753 56.7623 85.7926 56.6876 85.6598C56.6128 85.5269 56.4821 85.4605 56.2953 85.4605C56.1375 85.4605 56.015 85.5041 55.9279 85.5913C55.8407 85.6784 55.7805 85.7926 55.7473 85.9338C55.7141 86.0749 55.6975 86.2264 55.6975 86.3883V86.5565H55.0312V86.3821C55.0312 86.079 55.0706 85.8196 55.1495 85.6037C55.2325 85.3837 55.3633 85.2135 55.5418 85.0931C55.7245 84.9727 55.9652 84.9125 56.2641 84.9125C56.671 84.9125 56.974 85.0288 57.1733 85.2612C57.3725 85.4896 57.4722 85.8071 57.4722 86.214C57.4722 86.4298 57.4452 86.6187 57.3912 86.7806C57.3414 86.9425 57.275 87.0941 57.192 87.2352C57.1089 87.3763 57.0176 87.5216 56.918 87.6711L55.7597 89.4396H57.3539V90H54.9751ZM59.3063 90.056C59.0198 90.056 58.7832 89.9917 58.5964 89.863C58.4137 89.7343 58.2767 89.5579 58.1854 89.3337C58.0982 89.1095 58.0546 88.8542 58.0546 88.5678V86.3946C58.0546 86.0998 58.0982 85.8424 58.1854 85.6224C58.2726 85.3982 58.4075 85.2239 58.5902 85.0993C58.777 84.9748 59.0157 84.9125 59.3063 84.9125C59.5969 84.9125 59.8335 84.9748 60.0162 85.0993C60.1988 85.2239 60.3337 85.3982 60.4209 85.6224C60.5081 85.8424 60.5517 86.0998 60.5517 86.3946V88.5678C60.5517 88.8584 60.506 89.1158 60.4147 89.3399C60.3275 89.5641 60.1926 89.7405 60.0099 89.8692C59.8273 89.9938 59.5927 90.056 59.3063 90.056ZM59.3063 89.5081C59.464 89.5081 59.5823 89.4624 59.6612 89.3711C59.7442 89.2797 59.8003 89.1635 59.8293 89.0224C59.8626 88.8771 59.8792 88.7276 59.8792 88.574V86.3883C59.8792 86.2264 59.8646 86.0749 59.8356 85.9338C59.8065 85.7885 59.7505 85.6722 59.6674 85.585C59.5886 85.4979 59.4682 85.4543 59.3063 85.4543C59.1444 85.4543 59.0219 85.4979 58.9389 85.585C58.8559 85.6722 58.7998 85.7885 58.7708 85.9338C58.7417 86.0749 58.7272 86.2264 58.7272 86.3883V88.574C58.7272 88.7276 58.7417 88.8771 58.7708 89.0224C58.804 89.1635 58.8621 89.2797 58.9451 89.3711C59.0323 89.4624 59.1527 89.5081 59.3063 89.5081ZM61.1657 90V89.5267L62.4484 87.5279C62.5439 87.3784 62.6311 87.2394 62.71 87.1107C62.793 86.982 62.8594 86.847 62.9092 86.7059C62.9632 86.5606 62.9902 86.3946 62.9902 86.2077C62.9902 85.9753 62.9528 85.7926 62.8781 85.6598C62.8034 85.5269 62.6726 85.4605 62.4858 85.4605C62.3281 85.4605 62.2056 85.5041 62.1184 85.5913C62.0312 85.6784 61.971 85.7926 61.9378 85.9338C61.9046 86.0749 61.888 86.2264 61.888 86.3883V86.5565H61.2217V86.3821C61.2217 86.079 61.2612 85.8196 61.34 85.6037C61.4231 85.3837 61.5538 85.2135 61.7323 85.0931C61.915 84.9727 62.1558 84.9125 62.4547 84.9125C62.8615 84.9125 63.1646 85.0288 63.3638 85.2612C63.5631 85.4896 63.6627 85.8071 63.6627 86.214C63.6627 86.4298 63.6357 86.6187 63.5818 86.7806C63.5319 86.9425 63.4655 87.0941 63.3825 87.2352C63.2995 87.3763 63.2081 87.5216 63.1085 87.6711L61.9503 89.4396H63.5444V90H61.1657ZM65.5539 90V88.6487H64.0905V87.9513L65.4044 84.9561H66.189V88.0572H66.7557V88.6487H66.189V90H65.5539ZM64.7319 88.0572H65.5539V85.7656L64.7319 88.0572Z" fill="white" style="fill:white;fill-opacity:1;"/>
<path d="M49.2577 57.5167C48.7214 57.5167 48.2909 57.4038 47.9662 57.178C47.6487 56.9451 47.4158 56.6099 47.2676 56.1723C47.1264 55.7348 47.0559 55.209 47.0559 54.595V51.7262C47.0559 51.0981 47.1194 50.5653 47.2464 50.1278C47.3805 49.6831 47.6134 49.3444 47.9451 49.1115C48.2838 48.8786 48.7531 48.7622 49.353 48.7622C49.8894 48.7622 50.3199 48.8539 50.6445 49.0374C50.9762 49.2138 51.2161 49.4891 51.3643 49.8631C51.5125 50.2301 51.5866 50.6959 51.5866 51.2605V51.578H50.4645V51.3134C50.4645 50.9393 50.4398 50.6359 50.3904 50.403C50.341 50.163 50.2387 49.9866 50.0834 49.8737C49.9352 49.7537 49.6988 49.6937 49.3742 49.6937C49.0213 49.6937 48.7637 49.7749 48.6014 49.9372C48.4461 50.0995 48.3473 50.3218 48.305 50.6041C48.2697 50.8794 48.2521 51.1934 48.2521 51.5463V54.7221C48.2521 55.1314 48.2803 55.4737 48.3368 55.7489C48.4003 56.0241 48.5167 56.2288 48.6861 56.3629C48.8555 56.497 49.0954 56.564 49.4059 56.564C49.7165 56.564 49.9564 56.4899 50.1258 56.3417C50.2952 56.1935 50.4116 55.9747 50.4751 55.6854C50.5386 55.396 50.5704 55.0361 50.5704 54.6056V54.0128H49.48V53.1659H51.6502V57.4109H50.8986L50.7821 56.4264C50.6692 56.744 50.4928 57.0051 50.2528 57.2098C50.0129 57.4144 49.6812 57.5167 49.2577 57.5167ZM52.8798 57.4109V48.8363H54.076V56.5534H56.2673V57.4109H52.8798ZM59.2165 57.5062C58.6378 57.5062 58.1756 57.3932 57.8298 57.1674C57.484 56.9416 57.237 56.6205 57.0888 56.2041C56.9406 55.7807 56.8665 55.2866 56.8665 54.7221V51.4722C56.8665 50.9076 56.9406 50.4242 57.0888 50.0219C57.244 49.6126 57.491 49.3021 57.8298 49.0903C58.1756 48.8716 58.6378 48.7622 59.2165 48.7622C59.7952 48.7622 60.254 48.8716 60.5927 49.0903C60.9315 49.3091 61.1749 49.6196 61.3231 50.0219C61.4784 50.4242 61.556 50.9076 61.556 51.4722V54.7326C61.556 55.2902 61.4784 55.7771 61.3231 56.1935C61.1749 56.6099 60.9315 56.9345 60.5927 57.1674C60.254 57.3932 59.7952 57.5062 59.2165 57.5062ZM59.2165 56.564C59.5341 56.564 59.7741 56.5005 59.9364 56.3735C60.0987 56.2394 60.2081 56.0559 60.2646 55.823C60.321 55.583 60.3492 55.3043 60.3492 54.9867V51.2287C60.3492 50.9111 60.321 50.6394 60.2646 50.4136C60.2081 50.1807 60.0987 50.0043 59.9364 49.8843C59.7741 49.7572 59.5341 49.6937 59.2165 49.6937C58.899 49.6937 58.6555 49.7572 58.4861 49.8843C58.3238 50.0043 58.2144 50.1807 58.158 50.4136C58.1015 50.6394 58.0733 50.9111 58.0733 51.2287V54.9867C58.0733 55.3043 58.1015 55.583 58.158 55.823C58.2144 56.0559 58.3238 56.2394 58.4861 56.3735C58.6555 56.5005 58.899 56.564 59.2165 56.564ZM62.7317 57.4109V48.8363H64.7007C65.0889 48.8363 65.4241 48.8786 65.7064 48.9633C65.9957 49.048 66.2357 49.1786 66.4262 49.355C66.6168 49.5314 66.7579 49.7572 66.8497 50.0325C66.9414 50.3007 66.9873 50.6182 66.9873 50.9852C66.9873 51.3381 66.9414 51.6451 66.8497 51.9062C66.765 52.1603 66.6309 52.3614 66.4474 52.5096C66.271 52.6578 66.0416 52.7531 65.7593 52.7954C66.1051 52.873 66.3839 53.0071 66.5956 53.1977C66.8073 53.3812 66.9626 53.6211 67.0614 53.9175C67.1673 54.2069 67.2202 54.5562 67.2202 54.9655C67.2202 55.3325 67.1778 55.6677 67.0932 55.9712C67.0085 56.2747 66.8744 56.5323 66.6909 56.744C66.5145 56.9557 66.2851 57.1215 66.0028 57.2415C65.7276 57.3544 65.3994 57.4109 65.0183 57.4109H62.7317ZM63.928 56.5534H64.7325C65.2688 56.5534 65.6252 56.4299 65.8017 56.1829C65.9852 55.9289 66.0769 55.5231 66.0769 54.9655C66.0769 54.6056 66.0275 54.3057 65.9287 54.0657C65.837 53.8187 65.6852 53.6352 65.4735 53.5153C65.2688 53.3882 64.9901 53.3247 64.6372 53.3247H63.928V56.5534ZM63.928 52.4143H64.6372C64.976 52.4143 65.2406 52.3684 65.4312 52.2767C65.6217 52.1779 65.7558 52.0226 65.8334 51.8109C65.9111 51.5992 65.9499 51.324 65.9499 50.9852C65.9499 50.59 65.8899 50.3042 65.7699 50.1278C65.6499 49.9513 65.4629 49.8419 65.2089 49.7996C64.9548 49.7502 64.6231 49.7255 64.2138 49.7255H63.928V52.4143ZM67.807 57.4109L69.6278 48.8363H70.7817L72.6131 57.4109H71.4804L71.0887 55.2514H69.342L68.9292 57.4109H67.807ZM69.5008 54.3939H70.9299L70.2101 50.53L69.5008 54.3939ZM73.4831 57.4109V48.8363H74.6793V56.5534H76.8706V57.4109H73.4831Z" fill="#1C1B24" style="fill:#1C1B24;fill:color(display-p3 0.1098 0.1059 0.1412);fill-opacity:1;"/>
</g>
<defs>
<radialGradient id="paint0_radial_322_1826" cx="0" cy="0" r="1" gradientTransform="matrix(-86.4197 98.5995 199.149 172.912 95.0663 11.5121)" gradientUnits="userSpaceOnUse">
<stop stop-color="#17313B" style="stop-color:#17313B;stop-color:color(display-p3 0.0902 0.1922 0.2314);stop-opacity:1;"/>
<stop offset="1" stop-color="#2E5272" style="stop-color:#2E5272;stop-color:color(display-p3 0.1804 0.3216 0.4471);stop-opacity:1;"/>
</radialGradient>
<clipPath id="clip0_322_1826">
<rect width="122" height="104" fill="white" style="fill:white;fill-opacity:1;"/>
</clipPath>
</defs>
</svg>
