<svg width="90" height="104" viewBox="0 0 90 104" fill="none" xmlns="http://www.w3.org/2000/svg">
<g clip-path="url(#clip0_322_1722)">
<path d="M0.0351562 81.5257L44.5513 103.556L89.0674 81.5257V0.528198H0.0351562V81.5257Z" fill="#292733" style="fill:#292733;fill:color(display-p3 0.1608 0.1529 0.2000);fill-opacity:1;"/>
<path d="M0.0351562 81.5257L44.5513 103.556L89.0674 81.5257V0.528198H0.0351562V81.5257Z" fill="#292733" style="fill:#292733;fill:color(display-p3 0.1608 0.1529 0.2000);fill-opacity:1;"/>
<path d="M13.9357 12.8785L15.2905 8.11592H16.2389L14.8163 12.8785H13.9357ZM11.0712 12.8785L9.66794 8.11592H10.6163L11.9615 12.8785H11.0712ZM11.197 12.8785L12.4937 8.11592H13.326L12.0389 12.8785H11.197ZM13.8486 12.8785L12.5712 8.11592H13.4131L14.7292 12.8785H13.8486ZM17.4873 12.8785V8.11592H18.4066V12.8785H17.4873ZM20.1196 12.8785V8.11592H21.0873L23.4002 11.3137V8.11592H24.3292V12.8785H23.4002L21.0486 9.62246V12.8785H20.1196ZM27.0389 12.8785V8.97125H25.6163V8.11592H29.3808V8.96153L27.9583 8.97125V12.8785H27.0389ZM30.6679 12.8785V8.11592H33.6679V8.96153L31.597 8.97125V10.0501H33.3776V10.8763H31.597V12.0329H33.697V12.8785H30.6679ZM35.3325 12.8785V8.11592H37.0937C37.4292 8.11592 37.726 8.18072 37.9841 8.31031C38.2421 8.44639 38.4421 8.62782 38.5841 8.85461C38.726 9.0814 38.797 9.34707 38.797 9.65162C38.797 9.94969 38.7228 10.2154 38.5744 10.4486C38.426 10.6819 38.2196 10.8633 37.955 10.9929C37.6905 11.1225 37.3937 11.1873 37.0647 11.1873H36.2615V12.8785H35.3325ZM37.9454 12.8785L36.8421 10.9638L37.5583 10.4583L38.9905 12.8785H37.9454ZM36.2615 10.3417H37.1034C37.2389 10.3417 37.3647 10.3126 37.4808 10.2542C37.5905 10.1959 37.6776 10.1149 37.7421 10.0112C37.8066 9.90757 37.8389 9.78769 37.8389 9.65162C37.8389 9.45075 37.7647 9.28551 37.6163 9.15592C37.4744 9.0328 37.2873 8.97125 37.055 8.97125H36.2615V10.3417ZM42.5034 12.8785V12.1884C42.5034 12.0588 42.5421 11.9163 42.6196 11.7608C42.7034 11.5988 42.8163 11.44 42.9583 11.2845C43.1067 11.1225 43.2776 10.9735 43.4712 10.8374L44.1873 10.3223C44.2841 10.251 44.3776 10.1732 44.4679 10.089C44.5583 10.0048 44.6292 9.91081 44.6808 9.80713C44.7389 9.70346 44.7679 9.60626 44.7679 9.51554C44.7679 9.39243 44.7389 9.28551 44.6808 9.1948C44.6292 9.0976 44.5486 9.02308 44.4389 8.97125C44.3292 8.91293 44.197 8.88377 44.0421 8.88377C43.9066 8.88377 43.7841 8.91293 43.6744 8.97125C43.5712 9.02308 43.4841 9.09436 43.4131 9.18508C43.3486 9.27579 43.3002 9.37299 43.2679 9.47667L42.3195 9.31143C42.3647 9.08464 42.4615 8.87405 42.6099 8.67966C42.7583 8.48526 42.9518 8.32651 43.1905 8.2034C43.4357 8.08676 43.7099 8.02844 44.0131 8.02844C44.3679 8.02844 44.6712 8.09324 44.9228 8.22283C45.1744 8.34595 45.3712 8.51766 45.5131 8.73797C45.6486 8.95829 45.7163 9.21424 45.7163 9.50582C45.7163 9.79741 45.6357 10.0598 45.4744 10.2931C45.3131 10.5199 45.0937 10.7337 44.8163 10.9346L44.1776 11.4012C44.0421 11.4919 43.9292 11.5923 43.8389 11.7025C43.7421 11.8126 43.6679 11.9325 43.6163 12.0621H45.7744V12.8785H42.5034ZM48.9486 12.9563C48.5679 12.9563 48.2292 12.8526 47.9325 12.6453C47.6421 12.4314 47.4131 12.1398 47.2454 11.7705C47.0776 11.4012 46.9937 10.9767 46.9937 10.4972C46.9937 10.0177 47.0776 9.5933 47.2454 9.22396C47.4131 8.85461 47.6421 8.56302 47.9325 8.34919C48.2228 8.14184 48.5583 8.03816 48.9389 8.03816C49.326 8.03816 49.6679 8.14184 49.9647 8.34919C50.2615 8.56302 50.4905 8.85461 50.6518 9.22396C50.8195 9.5933 50.9034 10.0177 50.9034 10.4972C50.9034 10.9767 50.8195 11.4012 50.6518 11.7705C50.4905 12.1398 50.2615 12.4314 49.9647 12.6453C49.6744 12.8526 49.3357 12.9563 48.9486 12.9563ZM48.9486 12.1204C49.155 12.1204 49.3357 12.0491 49.4905 11.9066C49.6518 11.7705 49.7776 11.5793 49.8679 11.3331C49.9583 11.0934 50.0034 10.8147 50.0034 10.4972C50.0034 10.1797 49.9583 9.89785 49.8679 9.65162C49.7776 9.40539 49.6518 9.21424 49.4905 9.07816C49.3357 8.94209 49.1518 8.87405 48.9389 8.87405C48.7389 8.87405 48.5583 8.94209 48.397 9.07816C48.2421 9.21424 48.1196 9.40539 48.0292 9.65162C47.9454 9.89785 47.9034 10.1797 47.9034 10.4972C47.9034 10.8147 47.9454 11.0934 48.0292 11.3331C48.1196 11.5793 48.2454 11.7705 48.4066 11.9066C48.5679 12.0491 48.7486 12.1204 48.9486 12.1204ZM52.1712 12.8785V12.1884C52.1712 12.0588 52.2099 11.9163 52.2873 11.7608C52.3712 11.5988 52.4841 11.44 52.626 11.2845C52.7744 11.1225 52.9454 10.9735 53.1389 10.8374L53.855 10.3223C53.9518 10.251 54.0454 10.1732 54.1357 10.089C54.226 10.0048 54.297 9.91081 54.3486 9.80713C54.4066 9.70346 54.4357 9.60626 54.4357 9.51554C54.4357 9.39243 54.4066 9.28551 54.3486 9.1948C54.297 9.0976 54.2163 9.02308 54.1066 8.97125C53.997 8.91293 53.8615 8.88377 53.7002 8.88377C53.5647 8.88377 53.4454 8.91293 53.3421 8.97125C53.2389 9.02308 53.1518 9.09436 53.0808 9.18508C53.0163 9.27579 52.9679 9.37299 52.9357 9.47667L51.9873 9.31143C52.0325 9.08464 52.1292 8.87405 52.2776 8.67966C52.426 8.48526 52.6195 8.32651 52.8583 8.2034C53.1034 8.08676 53.3776 8.02844 53.6808 8.02844C54.0357 8.02844 54.3389 8.09324 54.5905 8.22283C54.8421 8.34595 55.0389 8.51766 55.1808 8.73797C55.3163 8.95829 55.3841 9.21424 55.3841 9.50582C55.3841 9.79741 55.3034 10.0598 55.1421 10.2931C54.9808 10.5199 54.7615 10.7337 54.4841 10.9346L53.8357 11.4012C53.7066 11.4919 53.5937 11.5923 53.497 11.7025C53.4067 11.8126 53.3357 11.9325 53.2841 12.0621H55.4421V12.8785H52.1712ZM58.4421 12.9563C58.126 12.9563 57.855 12.9012 57.6292 12.7911C57.4034 12.6744 57.2196 12.5124 57.0776 12.3051C56.9357 12.1042 56.8325 11.8677 56.7679 11.5955C56.7034 11.3234 56.6712 11.0318 56.6712 10.7208C56.6712 10.3579 56.7099 10.0145 56.7873 9.6905C56.8647 9.36651 56.9808 9.0814 57.1357 8.83517C57.2905 8.58246 57.4905 8.38483 57.7357 8.24227C57.9808 8.1062 58.2744 8.03816 58.6163 8.03816C58.8615 8.03816 59.1034 8.0738 59.3421 8.14508C59.5808 8.21636 59.7937 8.32003 59.9808 8.45611L59.526 9.13648C59.3841 9.03928 59.2325 8.96801 59.0712 8.92265C58.9099 8.87729 58.7615 8.85461 58.626 8.85461C58.2776 8.85461 58.0066 9.00688 57.8131 9.31143C57.6131 9.62246 57.5163 10.1117 57.5228 10.7791L57.3389 10.643C57.4421 10.3968 57.6034 10.1992 57.8228 10.0501C58.0421 9.90109 58.3002 9.82657 58.597 9.82657C58.9002 9.82657 59.1679 9.89461 59.4002 10.0307C59.6325 10.1732 59.8131 10.3676 59.9421 10.6139C60.0776 10.8536 60.1454 11.1225 60.1454 11.4206C60.1454 11.7187 60.0744 11.9843 59.9325 12.2176C59.797 12.4509 59.6002 12.6323 59.3421 12.7619C59.0905 12.8915 58.7905 12.9563 58.4421 12.9563ZM58.4421 12.169C58.597 12.169 58.7325 12.1366 58.8486 12.0718C58.9647 12.0005 59.055 11.9066 59.1196 11.7899C59.1905 11.6733 59.226 11.5372 59.226 11.3817C59.226 11.2262 59.1905 11.0901 59.1196 10.9735C59.055 10.8504 58.9647 10.7532 58.8486 10.6819C58.7325 10.6106 58.597 10.575 58.4421 10.575C58.2937 10.575 58.1615 10.6106 58.0454 10.6819C57.9228 10.7532 57.8292 10.8504 57.7647 10.9735C57.6937 11.0901 57.6583 11.2262 57.6583 11.3817C57.6583 11.5372 57.6937 11.6733 57.7647 11.7899C57.8292 11.9066 57.9228 12.0005 58.0454 12.0718C58.1615 12.1366 58.2937 12.169 58.4421 12.169Z" fill="white" style="fill:white;fill-opacity:1;"/>
<path d="M36.5227 44.9537V34.7481H38.855L38.8646 44.9537H36.5227ZM29.9614 44.9537V34.7384H32.3034V44.9537H29.9614ZM31.6163 40.8326V38.6651H37.7711V40.8326H31.6163ZM40.7227 44.9537V37.664H42.9872V44.9537H40.7227ZM41.855 36.7309C41.513 36.7309 41.213 36.6013 40.955 36.3421C40.7034 36.0894 40.5775 35.7913 40.5775 35.4479C40.5775 35.0915 40.7034 34.787 40.955 34.5343C41.213 34.288 41.513 34.1649 41.855 34.1649C42.2034 34.1649 42.5034 34.288 42.755 34.5343C43.0066 34.787 43.1324 35.0915 43.1324 35.4479C43.1324 35.7913 43.0066 36.0894 42.755 36.3421C42.5034 36.6013 42.2034 36.7309 41.855 36.7309ZM48.0195 48.0737C47.4324 48.0737 46.9163 48.0348 46.4711 47.9571C46.0324 47.8793 45.6582 47.7789 45.3485 47.6558C45.0388 47.5262 44.784 47.3836 44.584 47.2281L45.4646 45.4202L46.0163 45.673C46.2292 45.7766 46.4904 45.8673 46.8001 45.9451C47.1098 46.0229 47.484 46.0617 47.9227 46.0617C48.2582 46.0617 48.5582 45.9969 48.8227 45.8673C49.0872 45.7377 49.2969 45.5336 49.4517 45.255C49.6001 44.9764 49.6743 44.6297 49.6743 44.215V37.664H51.9388V44.1275C51.9388 44.944 51.784 45.647 51.4743 46.2367C51.1646 46.8328 50.7195 47.2864 50.1388 47.5974C49.5582 47.9149 48.8517 48.0737 48.0195 48.0737ZM47.4969 44.6816C46.8195 44.6816 46.2356 44.5422 45.7453 44.2636C45.2614 43.985 44.884 43.5897 44.613 43.0778C44.3485 42.5594 44.2163 41.9471 44.2163 41.2408C44.2163 40.4632 44.3485 39.7958 44.613 39.2386C44.8775 38.6878 45.255 38.2569 45.7453 37.9459C46.2356 37.6413 46.8195 37.489 47.4969 37.489C48.0582 37.489 48.5453 37.6413 48.9582 37.9459C49.3646 38.2569 49.6808 38.6943 49.9066 39.258C50.1324 39.8217 50.2453 40.4956 50.2453 41.2797C50.2453 41.9795 50.1324 42.5821 49.9066 43.0875C49.6808 43.593 49.3646 43.985 48.9582 44.2636C48.5453 44.5422 48.0582 44.6816 47.4969 44.6816ZM48.1646 42.7862C48.455 42.7862 48.7034 42.7149 48.9098 42.5724C49.1163 42.4298 49.2775 42.2387 49.3937 41.9989C49.5034 41.7527 49.5582 41.4741 49.5582 41.163C49.5582 40.8326 49.5001 40.5475 49.384 40.3077C49.2679 40.0615 49.1066 39.8703 48.9001 39.7343C48.6937 39.5982 48.4453 39.5301 48.155 39.5301C47.8711 39.5301 47.6195 39.5982 47.4001 39.7343C47.1872 39.8703 47.0195 40.0615 46.8969 40.3077C46.7743 40.5475 46.7098 40.8326 46.7034 41.163C46.7098 41.4741 46.7743 41.7527 46.8969 41.9989C47.0195 42.2387 47.1904 42.4298 47.4098 42.5724C47.6292 42.7149 47.8808 42.7862 48.1646 42.7862ZM53.4485 44.9537V34.7481H55.713V44.9537H53.4485ZM58.1227 44.9537V41.2214H60.3872V44.9537H58.1227ZM58.1227 41.2214C58.1227 40.8326 58.0808 40.5248 57.9969 40.298C57.9066 40.0712 57.7808 39.9027 57.6195 39.7926C57.4517 39.6889 57.2582 39.6306 57.0388 39.6176C56.6001 39.6047 56.2711 39.7245 56.0517 39.9773C55.8259 40.2235 55.713 40.5993 55.713 41.1047H55.0356C55.0356 40.3401 55.1517 39.6857 55.384 39.1414C55.6163 38.6035 55.9324 38.1921 56.3324 37.907C56.7324 37.6283 57.1937 37.489 57.7163 37.489C58.3098 37.489 58.8033 37.6089 59.1969 37.8487C59.5969 38.0884 59.8937 38.4513 60.0872 38.9373C60.2872 39.4232 60.3872 40.0453 60.3872 40.8034V41.2214H58.1227ZM11.3711 59.5331V49.3275H15.3679C16.1034 49.3275 16.755 49.4766 17.3227 49.7746C17.8969 50.0727 18.3453 50.4809 18.6679 50.9993C18.9904 51.5177 19.1517 52.1235 19.1517 52.8169C19.1517 53.4843 18.9937 54.0837 18.6775 54.615C18.3679 55.1463 17.9324 55.5611 17.3711 55.8591C16.8098 56.1637 16.1646 56.3159 15.4356 56.3159H13.713V59.5331H11.3711ZM13.713 54.1582H15.3775C15.7969 54.1582 16.1324 54.0318 16.384 53.7791C16.6356 53.5329 16.7614 53.2121 16.7614 52.8169C16.7614 52.4151 16.6259 52.0911 16.355 51.8449C16.0904 51.5987 15.7421 51.4756 15.3098 51.4756H13.713V54.1582ZM23.3808 59.7081C22.6259 59.7081 21.9582 59.5461 21.3775 59.2221C20.7969 58.8981 20.3421 58.4478 20.013 57.8711C19.684 57.3009 19.5195 56.6399 19.5195 55.8883C19.5195 55.1301 19.684 54.466 20.013 53.8958C20.3485 53.3191 20.8066 52.872 21.3872 52.5544C21.9679 52.2305 22.6421 52.0685 23.4098 52.0685C24.0937 52.0685 24.713 52.2337 25.2679 52.5642C25.8163 52.8946 26.2517 53.3871 26.5743 54.0415C26.9034 54.6895 27.0679 55.4995 27.0679 56.4715H21.6098L21.8517 56.1993C21.8517 56.5298 21.9195 56.8214 22.055 57.0741C22.1904 57.3268 22.3808 57.5179 22.6259 57.6475C22.8646 57.7771 23.1356 57.8419 23.4388 57.8419C23.7937 57.8419 24.0937 57.7609 24.3388 57.5989C24.5904 57.4434 24.7646 57.2425 24.8614 56.9963L26.8646 57.6864C26.6711 58.14 26.3969 58.5191 26.0421 58.8236C25.6872 59.1217 25.284 59.3452 24.8324 59.4943C24.3743 59.6368 23.8904 59.7081 23.3808 59.7081ZM21.9098 55.2468L21.6775 54.9552H24.9292L24.7259 55.2468C24.7259 54.8904 24.655 54.6053 24.513 54.3915C24.3646 54.1776 24.184 54.0221 23.9711 53.9249C23.7582 53.8342 23.5453 53.7888 23.3324 53.7888C23.1195 53.7888 22.9034 53.8342 22.684 53.9249C22.4711 54.0221 22.2872 54.1776 22.1324 54.3915C21.984 54.6053 21.9098 54.8904 21.9098 55.2468ZM29.6904 55.7619C29.6904 54.9714 29.8485 54.3137 30.1646 53.7888C30.4808 53.264 30.8775 52.872 31.355 52.6128C31.8324 52.3471 32.3324 52.2143 32.855 52.2143V54.4303C32.4098 54.4303 31.9904 54.4789 31.5969 54.5761C31.2098 54.6733 30.8937 54.8224 30.6485 55.0232C30.4098 55.2241 30.2904 55.4801 30.2904 55.7911L29.6904 55.7619ZM28.0259 59.5331V52.2434H30.2904V59.5331H28.0259ZM34.5292 59.5331V51.5728C34.5292 50.7758 34.7356 50.1505 35.1485 49.6969C35.5679 49.2368 36.2066 49.0068 37.0646 49.0068C37.3872 49.0068 37.7227 49.0619 38.0711 49.172C38.4195 49.2887 38.7195 49.4183 38.9711 49.5608L38.1292 51.1645C38.013 51.0868 37.8969 51.0317 37.7808 50.9993C37.6646 50.9669 37.5582 50.9507 37.4614 50.9507C37.2292 50.9507 37.0582 51.0285 36.9485 51.184C36.8453 51.346 36.7937 51.6116 36.7937 51.981V59.5331H34.5292ZM33.3775 54.0415V52.2434H38.4292V54.0415H33.3775ZM42.9485 59.7081C42.1808 59.7081 41.5066 59.5461 40.9259 59.2221C40.3453 58.8981 39.8872 58.4478 39.5517 57.8711C39.2227 57.3009 39.0582 56.6399 39.0582 55.8883C39.0582 55.1431 39.2195 54.4822 39.5421 53.9055C39.8646 53.3353 40.3195 52.8849 40.9066 52.5544C41.4937 52.2305 42.1582 52.0685 42.9001 52.0685C43.6679 52.0685 44.3453 52.2305 44.9324 52.5544C45.513 52.8849 45.9646 53.3353 46.2872 53.9055C46.6163 54.4822 46.7808 55.1431 46.7808 55.8883C46.7808 56.6399 46.6163 57.3009 46.2872 57.8711C45.9646 58.4478 45.513 58.8981 44.9324 59.2221C44.3517 59.5461 43.6904 59.7081 42.9485 59.7081ZM42.9485 57.6087C43.2388 57.6087 43.4969 57.5374 43.7227 57.3948C43.9485 57.2458 44.1259 57.0417 44.255 56.7825C44.3904 56.5298 44.4582 56.2317 44.4582 55.8883C44.4582 55.5513 44.3904 55.2533 44.255 54.9941C44.1259 54.7349 43.9453 54.534 43.713 54.3915C43.4808 54.2424 43.2163 54.1679 42.9195 54.1679C42.6163 54.1679 42.3485 54.2424 42.1163 54.3915C41.884 54.534 41.7034 54.7349 41.5743 54.9941C41.4453 55.2533 41.3808 55.5513 41.3808 55.8883C41.3808 56.2317 41.4453 56.5298 41.5743 56.7825C41.7034 57.0417 41.8872 57.2458 42.1259 57.3948C42.3646 57.5374 42.6388 57.6087 42.9485 57.6087ZM49.5485 55.7619C49.5485 54.9714 49.7066 54.3137 50.0227 53.7888C50.3388 53.264 50.7356 52.872 51.213 52.6128C51.6904 52.3471 52.1904 52.2143 52.713 52.2143V54.4303C52.2679 54.4303 51.8517 54.4789 51.4646 54.5761C51.0711 54.6733 50.7517 54.8224 50.5066 55.0232C50.2679 55.2241 50.1485 55.4801 50.1485 55.7911L49.5485 55.7619ZM47.884 59.5331V52.2434H50.1485V59.5331H47.884ZM53.6614 59.5331V52.2434H55.7904L55.8775 53.1668C56.1098 52.8039 56.4001 52.5318 56.7485 52.3503C57.0904 52.1624 57.4679 52.0685 57.8808 52.0685C58.4808 52.0685 58.9775 52.1916 59.3711 52.4378C59.7646 52.6905 60.0517 53.0696 60.2324 53.575C60.4582 53.089 60.7646 52.7164 61.1517 52.4573C61.5388 52.1981 61.9743 52.0685 62.4582 52.0685C63.3292 52.0685 63.984 52.3374 64.4227 52.8752C64.8614 53.4065 65.0775 54.2359 65.0711 55.3634V59.5331H62.8066V55.8008C62.8066 55.412 62.7646 55.1042 62.6808 54.8774C62.5969 54.6506 62.4775 54.4822 62.3227 54.372C62.1679 54.2683 61.984 54.21 61.7711 54.1971C61.3582 54.1906 61.0421 54.3105 60.8227 54.5567C60.6033 54.8029 60.4937 55.1787 60.4937 55.6842V59.5331H58.2292V55.8008C58.2292 55.412 58.1872 55.1042 58.1034 54.8774C58.0259 54.6506 57.9098 54.4822 57.755 54.372C57.6001 54.2683 57.4163 54.21 57.2034 54.1971C56.784 54.1906 56.4679 54.3105 56.255 54.5567C56.0356 54.8029 55.9259 55.1787 55.9259 55.6842V59.5331H53.6614ZM69.9292 59.7081C69.1743 59.7081 68.5066 59.5461 67.9259 59.2221C67.3453 58.8981 66.8904 58.4478 66.5614 57.8711C66.2324 57.3009 66.0679 56.6399 66.0679 55.8883C66.0679 55.1301 66.2356 54.466 66.5711 53.8958C66.9066 53.3191 67.3646 52.872 67.9453 52.5544C68.5259 52.2305 69.1969 52.0685 69.9582 52.0685C70.6485 52.0685 71.2679 52.2337 71.8163 52.5642C72.3711 52.8946 72.8098 53.3871 73.1324 54.0415C73.455 54.6895 73.6163 55.4995 73.6163 56.4715H68.1582L68.4098 56.1993C68.4098 56.5298 68.4775 56.8214 68.613 57.0741C68.7485 57.3268 68.9356 57.5179 69.1743 57.6475C69.4195 57.7771 69.6904 57.8419 69.9872 57.8419C70.3485 57.8419 70.6517 57.7609 70.8969 57.5989C71.1421 57.4434 71.313 57.2425 71.4098 56.9963L73.413 57.6864C73.2195 58.14 72.9485 58.5191 72.6001 58.8236C72.2453 59.1217 71.8388 59.3452 71.3808 59.4943C70.9292 59.6368 70.4453 59.7081 69.9292 59.7081ZM68.4679 55.2468L68.2356 54.9552H71.4872L71.284 55.2468C71.284 54.8904 71.2098 54.6053 71.0614 54.3915C70.9195 54.1776 70.7421 54.0221 70.5292 53.9249C70.3162 53.8342 70.1034 53.7888 69.8904 53.7888C69.6775 53.7888 69.4614 53.8342 69.2421 53.9249C69.0227 54.0221 68.8388 54.1776 68.6904 54.3915C68.5421 54.6053 68.4679 54.8904 68.4679 55.2468ZM76.2485 55.7619C76.2485 54.9714 76.4066 54.3137 76.7227 53.7888C77.0324 53.264 77.4292 52.872 77.913 52.6128C78.3904 52.3471 78.8904 52.2143 79.413 52.2143V54.4303C78.9679 54.4303 78.5485 54.4789 78.155 54.5761C77.7614 54.6733 77.4453 54.8224 77.2066 55.0232C76.9614 55.2241 76.8388 55.4801 76.8388 55.7911L76.2485 55.7619ZM74.5743 59.5331V52.2434H76.8388V59.5331H74.5743Z" fill="white" style="fill:white;fill-opacity:1;"/>
<path d="M68.7441 0.528198H89.0667V20.9394H68.7441V0.528198Z" fill="#4A4658" style="fill:#4A4658;fill:color(display-p3 0.2902 0.2745 0.3451);fill-opacity:1;"/>
<path fill-rule="evenodd" clip-rule="evenodd" d="M83.3081 8.34454H81.572C81.6194 8.07142 81.7868 7.91882 82.1274 7.74581L82.4478 7.58252C83.0197 7.28802 83.3245 6.95658 83.3245 6.41617C83.3304 6.25975 83.2975 6.10432 83.2287 5.96385C83.16 5.82337 83.0576 5.70226 82.9307 5.61138C82.6732 5.41699 82.3587 5.32174 81.9968 5.32174C81.7164 5.31875 81.4411 5.39741 81.2042 5.54821C80.9769 5.68319 80.7944 5.88272 80.6797 6.12166L81.1829 6.62611C81.3774 6.23149 81.661 6.0371 82.0336 6.0371C82.3481 6.0371 82.5426 6.20039 82.5426 6.42589C82.5426 6.61542 82.4478 6.77288 82.0858 6.95658L81.8816 7.05669C81.4355 7.28316 81.1258 7.54073 80.9478 7.83426C80.7687 8.12391 80.6797 8.49714 80.6797 8.94424V9.06477H83.3081V8.34551V8.34454ZM83.071 9.89968H80.2007L78.7655 12.3976H81.6358L83.071 14.8956L84.5071 12.3976L83.071 9.89968Z" fill="#A7A4B5" style="fill:#A7A4B5;fill:color(display-p3 0.6549 0.6431 0.7098);fill-opacity:1;"/>
<path fill-rule="evenodd" clip-rule="evenodd" d="M79.0092 14.0674C78.1295 14.0666 77.2859 13.7154 76.6636 13.0907C76.0414 12.4661 75.6912 11.6191 75.6899 10.7355C75.6914 9.85202 76.0417 9.00525 76.664 8.38083C77.2862 7.75641 78.1296 7.40532 79.0092 7.40455L80.1454 5.01741C79.3031 4.84832 78.4339 4.86903 77.6005 5.07805C76.7671 5.28707 75.9903 5.67919 75.326 6.22614C74.6618 6.7731 74.1266 7.46126 73.7591 8.24103C73.3916 9.0208 73.2009 9.87275 73.2009 10.7355C73.201 11.5014 73.3513 12.2598 73.6433 12.9673C73.9353 13.6749 74.3632 14.3178 74.9026 14.8592C75.4419 15.4007 76.0822 15.8301 76.7868 16.123C77.4915 16.4159 78.2466 16.5665 79.0092 16.5663C80.2389 16.5683 81.4371 16.1768 82.4302 15.4485L81.1721 13.2597C80.5711 13.781 79.8034 14.0677 79.0092 14.0674Z" fill="#A7A4B5" style="fill:#A7A4B5;fill:color(display-p3 0.6549 0.6431 0.7098);fill-opacity:1;"/>
<path d="M69.2166 1.177V20.488V1.177Z" fill="#A7A4B5" style="fill:#A7A4B5;fill:color(display-p3 0.6549 0.6431 0.7098);fill-opacity:1;"/>
<path d="M69.2166 1.177V20.488" stroke="#4A4658" style="stroke:#4A4658;stroke:color(display-p3 0.2902 0.2745 0.3451);stroke-opacity:1;" stroke-width="0.973458"/>
<path d="M0.0351562 81.7067V75.3889L44.5513 97.7849L89.0674 75.3889V81.7067L44.5513 103.556L0.0351562 81.7067Z" fill="#A7A4B5" style="fill:#A7A4B5;fill:color(display-p3 0.6549 0.6431 0.7098);fill-opacity:1;"/>
<path d="M0.0351562 75.9193V69.6016L44.5513 91.9975L89.0674 69.6016V75.9193L44.5513 97.769L0.0351562 75.9193Z" fill="#6D697D" style="fill:#6D697D;fill:color(display-p3 0.4275 0.4118 0.4902);fill-opacity:1;"/>
<path d="M0.0351562 70.1506V63.8329L44.5513 86.2298L89.0674 63.8329V70.1506L44.5513 92.0004L0.0351562 70.1506Z" fill="#5B576B" style="fill:#5B576B;fill:color(display-p3 0.3569 0.3412 0.4196);fill-opacity:1;"/>
<path d="M88.656 20.4869H0.639902M88.5418 81.1976L44.5512 102.968L0.560547 81.1976V1.05542H88.5418V81.1976Z" stroke="#4A4658" style="stroke:#4A4658;stroke:color(display-p3 0.2902 0.2745 0.3451);stroke-opacity:1;" stroke-width="0.973458"/>
</g>
<defs>
<clipPath id="clip0_322_1722">
<rect width="90" height="104" fill="white" style="fill:white;fill-opacity:1;"/>
</clipPath>
</defs>
</svg>
