<svg width="97" height="104" viewBox="0 0 97 104" fill="none" xmlns="http://www.w3.org/2000/svg">
<g clip-path="url(#clip0_322_1759)">
<path d="M95.94 26.2234V77.7766L48.23 103.553L0.519989 77.7766V26.2234L48.23 0.446777L95.94 26.2234Z" fill="#292733" style="fill:#292733;fill:color(display-p3 0.1608 0.1529 0.2000);fill-opacity:1;"/>
<path d="M48.1 104L47.918 103.901L0 78.0125V26L0.205111 25.8912L48.1 0L48.282 0.0991852L96.2 26V78.026L48.1 104ZM0.78 77.5397L48.1 103.105L95.42 77.5397V26.4603L48.1 0.894593L0.78 26.4603V77.5397Z" fill="#4A4658" style="fill:#4A4658;fill:color(display-p3 0.2902 0.2745 0.3451);fill-opacity:1;"/>
<path d="M93.6 27.6255V76.3745L48.1 100.75L2.60001 76.3745V27.6255L48.1 3.25L93.6 27.6255Z" fill="#4A4658" style="fill:#4A4658;fill:color(display-p3 0.2902 0.2745 0.3451);fill-opacity:1;"/>
<path d="M93.6 37.7H2.60001V66.3H93.6V37.7Z" fill="#1C1B24" style="fill:#1C1B24;fill:color(display-p3 0.1098 0.1059 0.1412);fill-opacity:1;"/>
<path d="M89.18 29.5745V74.4255L48.23 96.85L7.28 74.4255V29.5745L48.23 7.15002L89.18 29.5745Z" fill="#292733" style="fill:#292733;fill:color(display-p3 0.1608 0.1529 0.2000);fill-opacity:1;"/>
<path d="M92.3 40.3H3.89999V63.7H92.3V40.3Z" fill="#1C1B24" style="fill:#1C1B24;fill:color(display-p3 0.1098 0.1059 0.1412);fill-opacity:1;"/>
<path d="M13.65 66.3H82.55" stroke="#4A4658" style="stroke:#4A4658;stroke:color(display-p3 0.2902 0.2745 0.3451);stroke-opacity:1;" stroke-width="0.15" stroke-miterlimit="10"/>
<path d="M13.65 37.7H82.55" stroke="#4A4658" style="stroke:#4A4658;stroke:color(display-p3 0.2902 0.2745 0.3451);stroke-opacity:1;" stroke-width="0.15" stroke-miterlimit="10"/>
<path d="M38.7631 45.76H36.4231V57.98H38.7631V45.76Z" fill="white" style="fill:white;fill-opacity:1;"/>
<path d="M46.3031 54.34C46.3031 56.2429 44.5014 56.394 43.9968 56.394C42.7334 56.394 42.4031 55.2809 42.4031 54.6106V49.92H40.5831V54.6C40.5831 55.7806 40.9548 56.7552 41.6462 57.4032C42.327 58.0041 43.211 58.3229 44.1191 58.292C44.8933 58.2728 45.6483 58.0446 46.3031 57.6314V57.98H48.3831V49.92H46.3031V54.34Z" fill="white" style="fill:white;fill-opacity:1;"/>
<path d="M52.8031 47.0599H50.4631V49.9199H49.1631V51.4799H50.4631V57.9799H52.8031V51.4799H54.3631V49.9199H52.8031V47.0599Z" fill="white" style="fill:white;fill-opacity:1;"/>
<path d="M61.1 55.7392C60.6079 56.1407 59.9907 56.3555 59.3551 56.3449C57.8731 56.3449 56.7859 55.328 56.7859 53.9317C56.7859 52.5354 57.8259 51.5628 59.3551 51.5628C59.9926 51.5512 60.6137 51.7621 61.1125 52.1579L61.4351 52.4179L62.8699 51.0765L62.5107 50.7751C61.62 50.0404 60.4962 49.6446 59.3416 49.66C56.6819 49.66 54.7502 51.4569 54.7502 53.924C54.7502 56.3911 56.7291 58.24 59.3416 58.24C60.502 58.2583 61.6306 57.8586 62.5213 57.1143L62.867 56.81L61.411 55.4686L61.099 55.7392H61.1Z" fill="white" style="fill:white;fill-opacity:1;"/>
<path d="M70.5197 50.6788C69.8264 50.0789 68.9327 49.7621 68.016 49.7919C67.2283 49.7823 66.457 50.0125 65.8031 50.4525V45.76H63.7231V57.98H65.8031V53.742C65.8031 51.8392 67.4748 51.6851 67.9794 51.6851C69.2428 51.6851 69.4431 52.8002 69.4431 53.4714V57.98H71.5231V53.482C71.5231 52.3014 71.2217 51.3288 70.5197 50.6788Z" fill="white" style="fill:white;fill-opacity:1;"/>
<path d="M59.2723 55.3935C60.1211 55.3935 60.8092 54.7485 60.8092 53.9529C60.8092 53.1573 60.1211 52.5123 59.2723 52.5123C58.4235 52.5123 57.7354 53.1573 57.7354 53.9529C57.7354 54.7485 58.4235 55.3935 59.2723 55.3935Z" fill="#A7A4B5" style="fill:#A7A4B5;fill:color(display-p3 0.6549 0.6431 0.7098);fill-opacity:1;"/>
<path d="M33.8568 55.1431C33.0306 55.925 31.9319 56.3564 30.7936 56.3439C28.4228 56.3439 26.6991 54.6019 26.6991 52.2099C26.6991 49.8179 28.4228 48.0653 30.7936 48.0653C31.9251 48.0595 33.0171 48.4861 33.8462 49.2565L34.1688 49.5608L35.5911 48.23L35.2791 47.9257C34.0687 46.7807 32.4596 46.1529 30.7936 46.1731C27.3019 46.1731 24.6759 48.7731 24.6759 52.2205C24.6759 55.6679 27.3125 58.24 30.7936 58.24C32.4653 58.2592 34.0793 57.6256 35.2916 56.4749L35.6036 56.1735L34.1919 54.8215L33.8568 55.144V55.1431Z" fill="white" style="fill:white;fill-opacity:1;"/>
<path d="M43.6312 14.0174V13.6424H46.2494V14.0174H45.1516V17.1333H44.7289V14.0174H43.6312ZM49.7019 15.3878C49.7019 15.756 49.6354 16.0742 49.5025 16.3424C49.3695 16.6106 49.1871 16.8174 48.9553 16.9628C48.7235 17.1083 48.4587 17.181 48.161 17.181C47.8633 17.181 47.5985 17.1083 47.3667 16.9628C47.1349 16.8174 46.9525 16.6106 46.8195 16.3424C46.6866 16.0742 46.6201 15.756 46.6201 15.3878C46.6201 15.0197 46.6866 14.7015 46.8195 14.4333C46.9525 14.1651 47.1349 13.9583 47.3667 13.8128C47.5985 13.6674 47.8633 13.5947 48.161 13.5947C48.4587 13.5947 48.7235 13.6674 48.9553 13.8128C49.1871 13.9583 49.3695 14.1651 49.5025 14.4333C49.6354 14.7015 49.7019 15.0197 49.7019 15.3878ZM49.2928 15.3878C49.2928 15.0856 49.2423 14.8305 49.1411 14.6225C49.0411 14.4146 48.9053 14.2572 48.7337 14.1503C48.5633 14.0435 48.3724 13.9901 48.161 13.9901C47.9496 13.9901 47.7582 14.0435 47.5866 14.1503C47.4161 14.2572 47.2803 14.4146 47.1792 14.6225C47.0792 14.8305 47.0292 15.0856 47.0292 15.3878C47.0292 15.6901 47.0792 15.9452 47.1792 16.1532C47.2803 16.3611 47.4161 16.5185 47.5866 16.6253C47.7582 16.7322 47.9496 16.7856 48.161 16.7856C48.3724 16.7856 48.5633 16.7322 48.7337 16.6253C48.9053 16.5185 49.0411 16.3611 49.1411 16.1532C49.2423 15.9452 49.2928 15.6901 49.2928 15.3878ZM50.4127 17.1333V13.6424H51.5923C51.8661 13.6424 52.09 13.6918 52.2638 13.7907C52.4388 13.8884 52.5684 14.0208 52.6525 14.1878C52.7366 14.3549 52.7786 14.5413 52.7786 14.7469C52.7786 14.9526 52.7366 15.1396 52.6525 15.3077C52.5695 15.4759 52.4411 15.61 52.2673 15.71C52.0934 15.8089 51.8707 15.8583 51.5991 15.8583H50.7536V15.4833H51.5854C51.7729 15.4833 51.9235 15.4509 52.0371 15.3861C52.1508 15.3214 52.2332 15.2339 52.2843 15.1236C52.3366 15.0123 52.3627 14.8867 52.3627 14.7469C52.3627 14.6072 52.3366 14.4822 52.2843 14.3719C52.2332 14.2617 52.1502 14.1753 52.0354 14.1128C51.9207 14.0492 51.7684 14.0174 51.5786 14.0174H50.8354V17.1333H50.4127Z" fill="white" style="fill:white;fill-opacity:1;"/>
<path d="M29.684 22.3091H30.1885L31.3749 25.2069H31.4158L32.6022 22.3091H33.1067V25.8H32.7113V23.1478H32.6772L31.5863 25.8H31.2044L30.1135 23.1478H30.0794V25.8H29.684V22.3091ZM34.0975 25.8H33.6543L34.9361 22.3091H35.3725L36.6543 25.8H36.2111L35.1679 22.8614H35.1407L34.0975 25.8ZM34.2611 24.4364H36.0475V24.8114H34.2611V24.4364ZM39.9662 22.3091V25.8H39.5571L37.6549 23.0591H37.6208V25.8H37.1981V22.3091H37.6071L39.5162 25.0569H39.5503V22.3091H39.9662ZM40.9553 25.8H40.5121L41.7939 22.3091H42.2303L43.5121 25.8H43.0689L42.0257 22.8614H41.9985L40.9553 25.8ZM41.1189 24.4364H42.9053V24.8114H41.1189V24.4364ZM46.2782 23.4C46.2407 23.2853 46.1912 23.1824 46.1299 23.0915C46.0696 22.9995 45.9975 22.9211 45.9134 22.8563C45.8304 22.7915 45.7361 22.7421 45.6304 22.708C45.5248 22.6739 45.4088 22.6569 45.2827 22.6569C45.0759 22.6569 44.8878 22.7103 44.7185 22.8171C44.5492 22.9239 44.4145 23.0813 44.3145 23.2893C44.2145 23.4972 44.1645 23.7523 44.1645 24.0546C44.1645 24.3569 44.2151 24.612 44.3162 24.8199C44.4174 25.0279 44.5543 25.1853 44.727 25.2921C44.8998 25.3989 45.0941 25.4523 45.31 25.4523C45.51 25.4523 45.6861 25.4097 45.8384 25.3245C45.9918 25.2381 46.1111 25.1165 46.1963 24.9597C46.2827 24.8018 46.3259 24.616 46.3259 24.4023L46.4554 24.4296H45.4054V24.0546H46.735V24.4296C46.735 24.7171 46.6736 24.9671 46.5509 25.1796C46.4293 25.3921 46.2611 25.5569 46.0463 25.6739C45.8327 25.7898 45.5873 25.8478 45.31 25.8478C45.0009 25.8478 44.7293 25.775 44.4952 25.6296C44.2623 25.4841 44.0804 25.2773 43.9498 25.0091C43.8202 24.741 43.7554 24.4228 43.7554 24.0546C43.7554 23.7785 43.7924 23.5302 43.8662 23.3097C43.9412 23.0881 44.0469 22.8995 44.1833 22.7438C44.3196 22.5881 44.481 22.4688 44.6674 22.3858C44.8537 22.3029 45.0588 22.2614 45.2827 22.2614C45.4668 22.2614 45.6384 22.2893 45.7975 22.3449C45.9577 22.3995 46.1003 22.4773 46.2253 22.5785C46.3515 22.6785 46.4566 22.7983 46.5407 22.9381C46.6248 23.0768 46.6827 23.2307 46.7145 23.4H46.2782ZM47.459 25.8V22.3091H49.5658V22.6841H47.8817V23.8637H49.4567V24.2387H47.8817V25.425H49.5931V25.8H47.459ZM51.405 25.8H50.3277V22.3091H51.4527C51.7914 22.3091 52.0811 22.379 52.3221 22.5188C52.563 22.6574 52.7476 22.8569 52.876 23.1171C53.0044 23.3762 53.0686 23.6864 53.0686 24.0478C53.0686 24.4114 53.0039 24.7245 52.8743 24.987C52.7448 25.2483 52.5561 25.4495 52.3084 25.5904C52.0607 25.7302 51.7596 25.8 51.405 25.8ZM50.7505 25.425H51.3777C51.6664 25.425 51.9056 25.3694 52.0954 25.258C52.2851 25.1466 52.4266 24.9881 52.5198 24.7824C52.613 24.5768 52.6596 24.3319 52.6596 24.0478C52.6596 23.766 52.6135 23.5233 52.5215 23.3199C52.4294 23.1154 52.2919 22.9586 52.109 22.8495C51.926 22.7393 51.6982 22.6841 51.4255 22.6841H50.7505V25.425ZM57.0368 23.1819C57.0164 23.0091 56.9334 22.875 56.788 22.7796C56.6425 22.6841 56.4641 22.6364 56.2527 22.6364C56.0982 22.6364 55.963 22.6614 55.8471 22.7114C55.7323 22.7614 55.6425 22.8302 55.5777 22.9177C55.5141 23.0052 55.4823 23.1046 55.4823 23.216C55.4823 23.3091 55.5044 23.3893 55.5488 23.4563C55.5942 23.5222 55.6522 23.5773 55.7226 23.6216C55.7931 23.6648 55.8669 23.7006 55.9442 23.729C56.0215 23.7563 56.0925 23.7785 56.1573 23.7955L56.5118 23.891C56.6027 23.9148 56.7039 23.9478 56.8152 23.9898C56.9277 24.0319 57.0351 24.0893 57.1374 24.162C57.2408 24.2336 57.326 24.3256 57.3931 24.4381C57.4601 24.5506 57.4936 24.6887 57.4936 24.8523C57.4936 25.041 57.4442 25.2114 57.3454 25.3637C57.2476 25.516 57.1044 25.637 56.9158 25.7268C56.7283 25.8165 56.5005 25.8614 56.2323 25.8614C55.9823 25.8614 55.7658 25.8211 55.5829 25.7404C55.401 25.6597 55.2579 25.5472 55.1533 25.4029C55.0499 25.2586 54.9914 25.091 54.9777 24.9H55.4141C55.4255 25.0319 55.4698 25.141 55.5471 25.2273C55.6255 25.3125 55.7243 25.3762 55.8436 25.4182C55.9641 25.4591 56.0936 25.4796 56.2323 25.4796C56.3936 25.4796 56.5385 25.4535 56.6669 25.4012C56.7954 25.3478 56.8971 25.2739 56.9721 25.1796C57.0471 25.0841 57.0846 24.9728 57.0846 24.8455C57.0846 24.7296 57.0522 24.6353 56.9874 24.5625C56.9226 24.4898 56.8374 24.4307 56.7317 24.3853C56.626 24.3398 56.5118 24.3 56.3891 24.266L55.9596 24.1432C55.6868 24.0648 55.4709 23.9529 55.3118 23.8074C55.1527 23.662 55.0732 23.4716 55.0732 23.2364C55.0732 23.041 55.126 22.8705 55.2317 22.725C55.3385 22.5785 55.4817 22.4648 55.6613 22.3841C55.8419 22.3023 56.0436 22.2614 56.2664 22.2614C56.4914 22.2614 56.6914 22.3018 56.8664 22.3824C57.0414 22.462 57.18 22.5711 57.2823 22.7097C57.3857 22.8483 57.4402 23.0057 57.4459 23.1819H57.0368ZM58.6114 22.3091V25.8H58.1887V22.3091H58.6114ZM59.459 25.8V22.3091H61.5658V22.6841H59.8817V23.8637H61.4567V24.2387H59.8817V25.425H61.5931V25.8H59.459ZM62.3277 22.3091H62.8323L64.0186 25.2069H64.0596L65.2459 22.3091H65.7505V25.8H65.355V23.1478H65.3209L64.23 25.8H63.8482L62.7573 23.1478H62.7232V25.8H62.3277V22.3091Z" fill="white" style="fill:white;fill-opacity:1;"/>
<path d="M25.8671 31.8485C25.8467 31.6758 25.7637 31.5417 25.6183 31.4462C25.4728 31.3508 25.2944 31.303 25.083 31.303C24.9285 31.303 24.7933 31.328 24.6773 31.378C24.5626 31.428 24.4728 31.4968 24.408 31.5843C24.3444 31.6718 24.3126 31.7712 24.3126 31.8826C24.3126 31.9758 24.3347 32.0559 24.379 32.1229C24.4245 32.1888 24.4825 32.2439 24.5529 32.2883C24.6234 32.3314 24.6972 32.3672 24.7745 32.3957C24.8518 32.4229 24.9228 32.4451 24.9876 32.4621L25.3421 32.5576C25.433 32.5814 25.5342 32.6144 25.6455 32.6564C25.758 32.6985 25.8654 32.7559 25.9677 32.8286C26.0711 32.9002 26.1563 32.9922 26.2234 33.1047C26.2904 33.2172 26.3239 33.3553 26.3239 33.5189C26.3239 33.7076 26.2745 33.878 26.1756 34.0303C26.0779 34.1826 25.9347 34.3036 25.7461 34.3934C25.5586 34.4832 25.3308 34.528 25.0626 34.528C24.8126 34.528 24.5961 34.4877 24.4131 34.407C24.2313 34.3263 24.0881 34.2138 23.9836 34.0695C23.8802 33.9252 23.8217 33.7576 23.808 33.5667H24.2444C24.2558 33.6985 24.3001 33.8076 24.3773 33.8939C24.4558 33.9792 24.5546 34.0428 24.6739 34.0849C24.7944 34.1258 24.9239 34.1462 25.0626 34.1462C25.2239 34.1462 25.3688 34.1201 25.4972 34.0678C25.6256 34.0144 25.7273 33.9405 25.8023 33.8462C25.8773 33.7508 25.9148 33.6394 25.9148 33.5121C25.9148 33.3962 25.8825 33.3019 25.8177 33.2292C25.7529 33.1564 25.6677 33.0974 25.562 33.0519C25.4563 33.0064 25.3421 32.9667 25.2194 32.9326L24.7898 32.8099C24.5171 32.7314 24.3012 32.6195 24.1421 32.4741C23.983 32.3286 23.9035 32.1383 23.9035 31.903C23.9035 31.7076 23.9563 31.5371 24.062 31.3917C24.1688 31.2451 24.312 31.1314 24.4915 31.0508C24.6722 30.9689 24.8739 30.928 25.0967 30.928C25.3217 30.928 25.5217 30.9684 25.6967 31.0491C25.8717 31.1286 26.0103 31.2377 26.1126 31.3763C26.216 31.515 26.2705 31.6724 26.2762 31.8485H25.8671ZM27.019 34.4667V30.9758H29.1258V31.3508H27.4417V32.5303H29.0167V32.9053H27.4417V34.0917H29.1531V34.4667H27.019ZM29.8877 34.4667V30.9758H31.0673C31.34 30.9758 31.5638 31.0224 31.7388 31.1155C31.9138 31.2076 32.0434 31.3343 32.1275 31.4957C32.2116 31.657 32.2536 31.8405 32.2536 32.0462C32.2536 32.2519 32.2116 32.4343 32.1275 32.5934C32.0434 32.7525 31.9144 32.8775 31.7406 32.9684C31.5667 33.0582 31.3445 33.103 31.0741 33.103H30.1195V32.7212H31.0604C31.2468 32.7212 31.3968 32.6939 31.5104 32.6394C31.6252 32.5849 31.7082 32.5076 31.7593 32.4076C31.8116 32.3064 31.8377 32.186 31.8377 32.0462C31.8377 31.9064 31.8116 31.7843 31.7593 31.6797C31.707 31.5752 31.6235 31.4945 31.5087 31.4377C31.394 31.3797 31.2423 31.3508 31.0536 31.3508H30.3104V34.4667H29.8877ZM31.5309 32.8985L32.39 34.4667H31.8991L31.0536 32.8985H31.5309ZM33.0215 30.9758L34.0579 33.9144H34.0988L35.1352 30.9758H35.5783L34.2965 34.4667H33.8602L32.5783 30.9758H33.0215ZM36.5448 30.9758V34.4667H36.1221V30.9758H36.5448ZM40.2015 32.0667H39.7788C39.7538 31.9451 39.71 31.8383 39.6475 31.7462C39.5861 31.6542 39.5111 31.5769 39.4225 31.5144C39.335 31.4508 39.2379 31.403 39.131 31.3712C39.0242 31.3394 38.9129 31.3235 38.7969 31.3235C38.5856 31.3235 38.3941 31.3769 38.2225 31.4837C38.0521 31.5905 37.9163 31.7479 37.8151 31.9559C37.7151 32.1638 37.6651 32.4189 37.6651 32.7212C37.6651 33.0235 37.7151 33.2786 37.8151 33.4866C37.9163 33.6945 38.0521 33.8519 38.2225 33.9587C38.3941 34.0655 38.5856 34.1189 38.7969 34.1189C38.9129 34.1189 39.0242 34.103 39.131 34.0712C39.2379 34.0394 39.335 33.9922 39.4225 33.9297C39.5111 33.8661 39.5861 33.7883 39.6475 33.6962C39.71 33.603 39.7538 33.4962 39.7788 33.3758H40.2015C40.1697 33.5542 40.1117 33.7138 40.0276 33.8547C39.9435 33.9957 39.839 34.1155 39.714 34.2144C39.589 34.3121 39.4486 34.3866 39.293 34.4377C39.1384 34.4888 38.9731 34.5144 38.7969 34.5144C38.4992 34.5144 38.2344 34.4417 38.0026 34.2962C37.7708 34.1508 37.5884 33.9439 37.4555 33.6758C37.3225 33.4076 37.256 33.0894 37.256 32.7212C37.256 32.353 37.3225 32.0349 37.4555 31.7667C37.5884 31.4985 37.7708 31.2917 38.0026 31.1462C38.2344 31.0008 38.4992 30.928 38.7969 30.928C38.9731 30.928 39.1384 30.9536 39.293 31.0047C39.4486 31.0559 39.589 31.1309 39.714 31.2297C39.839 31.3275 39.9435 31.4468 40.0276 31.5877C40.1117 31.7275 40.1697 31.8871 40.2015 32.0667ZM40.8846 34.4667V30.9758H42.9914V31.3508H41.3073V32.5303H42.8823V32.9053H41.3073V34.0917H43.0187V34.4667H40.8846ZM45.6624 31.8485C45.642 31.6758 45.559 31.5417 45.4136 31.4462C45.2681 31.3508 45.0897 31.303 44.8783 31.303C44.7238 31.303 44.5886 31.328 44.4727 31.378C44.3579 31.428 44.2681 31.4968 44.2033 31.5843C44.1397 31.6718 44.1079 31.7712 44.1079 31.8826C44.1079 31.9758 44.13 32.0559 44.1744 32.1229C44.2198 32.1888 44.2778 32.2439 44.3482 32.2883C44.4187 32.3314 44.4925 32.3672 44.5698 32.3957C44.6471 32.4229 44.7181 32.4451 44.7829 32.4621L45.1374 32.5576C45.2283 32.5814 45.3295 32.6144 45.4408 32.6564C45.5533 32.6985 45.6607 32.7559 45.763 32.8286C45.8664 32.9002 45.9516 32.9922 46.0187 33.1047C46.0857 33.2172 46.1192 33.3553 46.1192 33.5189C46.1192 33.7076 46.0698 33.878 45.9709 34.0303C45.8732 34.1826 45.73 34.3036 45.5414 34.3934C45.3539 34.4832 45.1261 34.528 44.8579 34.528C44.6079 34.528 44.3914 34.4877 44.2084 34.407C44.0266 34.3263 43.8834 34.2138 43.7789 34.0695C43.6755 33.9252 43.617 33.7576 43.6033 33.5667H44.0397C44.0511 33.6985 44.0954 33.8076 44.1727 33.8939C44.2511 33.9792 44.3499 34.0428 44.4692 34.0849C44.5897 34.1258 44.7192 34.1462 44.8579 34.1462C45.0192 34.1462 45.1641 34.1201 45.2925 34.0678C45.4209 34.0144 45.5227 33.9405 45.5977 33.8462C45.6727 33.7508 45.7102 33.6394 45.7102 33.5121C45.7102 33.3962 45.6778 33.3019 45.613 33.2292C45.5482 33.1564 45.463 33.0974 45.3573 33.0519C45.2516 33.0064 45.1374 32.9667 45.0147 32.9326L44.5852 32.8099C44.3124 32.7314 44.0965 32.6195 43.9374 32.4741C43.7783 32.3286 43.6988 32.1383 43.6988 31.903C43.6988 31.7076 43.7516 31.5371 43.8573 31.3917C43.9641 31.2451 44.1073 31.1314 44.2869 31.0508C44.4675 30.9689 44.6692 30.928 44.892 30.928C45.117 30.928 45.317 30.9684 45.492 31.0491C45.667 31.1286 45.8056 31.2377 45.9079 31.3763C46.0113 31.515 46.0658 31.6724 46.0715 31.8485H45.6624ZM50.9734 32.0667H50.5506C50.5256 31.9451 50.4819 31.8383 50.4194 31.7462C50.358 31.6542 50.283 31.5769 50.1944 31.5144C50.1069 31.4508 50.0097 31.403 49.9029 31.3712C49.7961 31.3394 49.6847 31.3235 49.5688 31.3235C49.3575 31.3235 49.166 31.3769 48.9944 31.4837C48.8239 31.5905 48.6881 31.7479 48.587 31.9559C48.487 32.1638 48.437 32.4189 48.437 32.7212C48.437 33.0235 48.487 33.2786 48.587 33.4866C48.6881 33.6945 48.8239 33.8519 48.9944 33.9587C49.166 34.0655 49.3575 34.1189 49.5688 34.1189C49.6847 34.1189 49.7961 34.103 49.9029 34.0712C50.0097 34.0394 50.1069 33.9922 50.1944 33.9297C50.283 33.8661 50.358 33.7883 50.4194 33.6962C50.4819 33.603 50.5256 33.4962 50.5506 33.3758H50.9734C50.9415 33.5542 50.8836 33.7138 50.7995 33.8547C50.7154 33.9957 50.6109 34.1155 50.4859 34.2144C50.3609 34.3121 50.2205 34.3866 50.0648 34.4377C49.9103 34.4888 49.745 34.5144 49.5688 34.5144C49.2711 34.5144 49.0063 34.4417 48.7745 34.2962C48.5427 34.1508 48.3603 33.9439 48.2273 33.6758C48.0944 33.4076 48.0279 33.0894 48.0279 32.7212C48.0279 32.353 48.0944 32.0349 48.2273 31.7667C48.3603 31.4985 48.5427 31.2917 48.7745 31.1462C49.0063 31.0008 49.2711 30.928 49.5688 30.928C49.745 30.928 49.9103 30.9536 50.0648 31.0047C50.2205 31.0559 50.3609 31.1309 50.4859 31.2297C50.6109 31.3275 50.7154 31.4468 50.7995 31.5877C50.8836 31.7275 50.9415 31.8871 50.9734 32.0667ZM54.6019 32.7212C54.6019 33.0894 54.5354 33.4076 54.4025 33.6758C54.2695 33.9439 54.0871 34.1508 53.8553 34.2962C53.6235 34.4417 53.3587 34.5144 53.061 34.5144C52.7633 34.5144 52.4985 34.4417 52.2667 34.2962C52.0349 34.1508 51.8525 33.9439 51.7195 33.6758C51.5866 33.4076 51.5201 33.0894 51.5201 32.7212C51.5201 32.353 51.5866 32.0349 51.7195 31.7667C51.8525 31.4985 52.0349 31.2917 52.2667 31.1462C52.4985 31.0008 52.7633 30.928 53.061 30.928C53.3587 30.928 53.6235 31.0008 53.8553 31.1462C54.0871 31.2917 54.2695 31.4985 54.4025 31.7667C54.5354 32.0349 54.6019 32.353 54.6019 32.7212ZM54.1928 32.7212C54.1928 32.4189 54.1423 32.1638 54.0411 31.9559C53.9411 31.7479 53.8053 31.5905 53.6337 31.4837C53.4633 31.3769 53.2724 31.3235 53.061 31.3235C52.8496 31.3235 52.6582 31.3769 52.4866 31.4837C52.3161 31.5905 52.1803 31.7479 52.0792 31.9559C51.9792 32.1638 51.9292 32.4189 51.9292 32.7212C51.9292 33.0235 51.9792 33.2786 52.0792 33.4866C52.1803 33.6945 52.3161 33.8519 52.4866 33.9587C52.6582 34.0655 52.8496 34.1189 53.061 34.1189C53.2724 34.1189 53.4633 34.0655 53.6337 33.9587C53.8053 33.8519 53.9411 33.6945 54.0411 33.4866C54.1423 33.2786 54.1928 33.0235 54.1928 32.7212ZM55.3127 30.9758H55.8173L57.0036 33.8735H57.0445L58.2309 30.9758H58.7354V34.4667H58.34V31.8144H58.3059L57.215 34.4667H56.8332L55.7423 31.8144H55.7082V34.4667H55.3127V30.9758ZM59.583 34.4667V30.9758H60.7626C61.0364 30.9758 61.2603 31.0252 61.4342 31.1241C61.6092 31.2218 61.7387 31.3542 61.8228 31.5212C61.9069 31.6883 61.9489 31.8746 61.9489 32.0803C61.9489 32.286 61.9069 32.4729 61.8228 32.6411C61.7398 32.8093 61.6114 32.9434 61.4376 33.0434C61.2637 33.1422 61.041 33.1917 60.7694 33.1917H59.9239V32.8167H60.7557C60.9432 32.8167 61.0938 32.7843 61.2075 32.7195C61.3211 32.6547 61.4035 32.5672 61.4546 32.457C61.5069 32.3457 61.533 32.2201 61.533 32.0803C61.533 31.9405 61.5069 31.8155 61.4546 31.7053C61.4035 31.5951 61.3205 31.5087 61.2057 31.4462C61.091 31.3826 60.9387 31.3508 60.7489 31.3508H60.0057V34.4667H59.583ZM62.4168 34.4667H61.9736L63.2555 30.9758H63.6918L64.9736 34.4667H64.5305L63.4873 31.528H63.46L62.4168 34.4667ZM62.5805 33.103H64.3668V33.478H62.5805V33.103ZM68.2856 30.9758V34.4667H67.8765L65.9742 31.7258H65.9401V34.4667H65.5174V30.9758H65.9265L67.8356 33.7235H67.8697V30.9758H68.2856ZM68.8315 30.9758H69.3156L70.2837 32.6053H70.3246L71.2928 30.9758H71.7769L70.5156 33.028V34.4667H70.0928V33.028L68.8315 30.9758Z" fill="white" style="fill:white;fill-opacity:1;"/>
<path d="M37.7715 70.9388V74.4297H37.3624L35.4601 71.6888H35.426V74.4297H35.0033V70.9388H35.4124L37.3215 73.6865H37.3556V70.9388H37.7715ZM38.6174 74.4297V70.9388H40.7242V71.3138H39.0401V72.4933H40.6151V72.8683H39.0401V74.0547H40.7515V74.4297H38.6174ZM42.1202 74.4297L41.1657 70.9388H41.5952L42.3248 73.782H42.3588L43.102 70.9388H43.5793L44.3225 73.782H44.3566L45.0861 70.9388H45.5157L44.5611 74.4297H44.1248L43.3543 71.6479H43.327L42.5566 74.4297H42.1202ZM47.0924 70.9388H47.5765L48.5446 72.5683H48.5855L49.5537 70.9388H50.0378L48.7765 72.9911V74.4297H48.3537V72.9911L47.0924 70.9388ZM53.3659 72.6842C53.3659 73.0524 53.2995 73.3706 53.1665 73.6388C53.0336 73.907 52.8512 74.1138 52.6194 74.2592C52.3875 74.4047 52.1228 74.4774 51.825 74.4774C51.5273 74.4774 51.2625 74.4047 51.0307 74.2592C50.7989 74.1138 50.6165 73.907 50.4836 73.6388C50.3506 73.3706 50.2841 73.0524 50.2841 72.6842C50.2841 72.3161 50.3506 71.9979 50.4836 71.7297C50.6165 71.4615 50.7989 71.2547 51.0307 71.1092C51.2625 70.9638 51.5273 70.8911 51.825 70.8911C52.1228 70.8911 52.3875 70.9638 52.6194 71.1092C52.8512 71.2547 53.0336 71.4615 53.1665 71.7297C53.2995 71.9979 53.3659 72.3161 53.3659 72.6842ZM52.9569 72.6842C52.9569 72.382 52.9063 72.1268 52.8052 71.9189C52.7052 71.7109 52.5694 71.5536 52.3978 71.4467C52.2273 71.3399 52.0364 71.2865 51.825 71.2865C51.6137 71.2865 51.4222 71.3399 51.2506 71.4467C51.0802 71.5536 50.9444 71.7109 50.8432 71.9189C50.7432 72.1268 50.6932 72.382 50.6932 72.6842C50.6932 72.9865 50.7432 73.2416 50.8432 73.4496C50.9444 73.6575 51.0802 73.8149 51.2506 73.9217C51.4222 74.0286 51.6137 74.082 51.825 74.082C52.0364 74.082 52.2273 74.0286 52.3978 73.9217C52.5694 73.8149 52.7052 73.6575 52.8052 73.4496C52.9063 73.2416 52.9569 72.9865 52.9569 72.6842ZM54.0767 74.4297V70.9388H55.2563C55.529 70.9388 55.7529 70.9854 55.9279 71.0786C56.1029 71.1706 56.2324 71.2973 56.3165 71.4587C56.4006 71.62 56.4427 71.8036 56.4427 72.0092C56.4427 72.2149 56.4006 72.3973 56.3165 72.5564C56.2324 72.7155 56.1034 72.8405 55.9296 72.9314C55.7557 73.0212 55.5336 73.0661 55.2631 73.0661H54.3086V72.6842H55.2495C55.4358 72.6842 55.5858 72.657 55.6995 72.6024C55.8142 72.5479 55.8972 72.4706 55.9483 72.3706C56.0006 72.2695 56.0267 72.149 56.0267 72.0092C56.0267 71.8695 56.0006 71.7473 55.9483 71.6428C55.8961 71.5382 55.8125 71.4575 55.6978 71.4007C55.583 71.3428 55.4313 71.3138 55.2427 71.3138H54.4995V74.4297H54.0767ZM55.7199 72.8615L56.579 74.4297H56.0881L55.2427 72.8615H55.7199ZM57.1471 74.4297V70.9388H57.5698V72.6706H57.6107L59.1789 70.9388H59.7311L58.2652 72.5138L59.7311 74.4297H59.2198L58.0061 72.807L57.5698 73.2979V74.4297H57.1471Z" fill="white" style="fill:white;fill-opacity:1;"/>
<path d="M41.7131 83.0963V82.7895L42.8653 81.5281C43.0006 81.3804 43.1119 81.252 43.1994 81.1429C43.2869 81.0327 43.3517 80.9293 43.3937 80.8327C43.4369 80.7349 43.4585 80.6327 43.4585 80.5259C43.4585 80.4031 43.429 80.2969 43.3699 80.2071C43.3119 80.1173 43.2324 80.048 43.1312 79.9992C43.0301 79.9503 42.9165 79.9259 42.7903 79.9259C42.6562 79.9259 42.5392 79.9537 42.4392 80.0094C42.3403 80.0639 42.2636 80.1406 42.2091 80.2395C42.1557 80.3384 42.129 80.4543 42.129 80.5872H41.7267C41.7267 80.3827 41.7739 80.2031 41.8682 80.0486C41.9625 79.894 42.0909 79.7736 42.2534 79.6872C42.417 79.6009 42.6006 79.5577 42.804 79.5577C43.0085 79.5577 43.1898 79.6009 43.3477 79.6872C43.5057 79.7736 43.6295 79.8901 43.7193 80.0367C43.8091 80.1832 43.854 80.3463 43.854 80.5259C43.854 80.6543 43.8307 80.7798 43.7841 80.9026C43.7386 81.0242 43.6591 81.1599 43.5455 81.3099C43.433 81.4588 43.2767 81.6406 43.0767 81.8554L42.2926 82.694V82.7213H43.9153V83.0963H41.7131ZM45.758 83.144C45.5011 83.144 45.2824 83.0742 45.1017 82.9344C44.921 82.7935 44.783 82.5895 44.6875 82.3224C44.592 82.0543 44.5443 81.7304 44.5443 81.3509C44.5443 80.9736 44.592 80.6514 44.6875 80.3844C44.7841 80.1162 44.9227 79.9117 45.1034 79.7707C45.2852 79.6287 45.5034 79.5577 45.758 79.5577C46.0125 79.5577 46.2301 79.6287 46.4108 79.7707C46.5926 79.9117 46.7312 80.1162 46.8267 80.3844C46.9233 80.6514 46.9716 80.9736 46.9716 81.3509C46.9716 81.7304 46.9239 82.0543 46.8284 82.3224C46.733 82.5895 46.5949 82.7935 46.4142 82.9344C46.2335 83.0742 46.0148 83.144 45.758 83.144ZM45.758 82.769C46.0125 82.769 46.2102 82.6463 46.3511 82.4009C46.492 82.1554 46.5625 81.8054 46.5625 81.3509C46.5625 81.0486 46.5301 80.7912 46.4653 80.5787C46.4017 80.3662 46.3097 80.2043 46.1892 80.0929C46.0699 79.9815 45.9261 79.9259 45.758 79.9259C45.5057 79.9259 45.3085 80.0503 45.1665 80.2992C45.0244 80.5469 44.9534 80.8974 44.9534 81.3509C44.9534 81.6531 44.9852 81.9099 45.0489 82.1213C45.1125 82.3327 45.204 82.4935 45.3233 82.6037C45.4437 82.7139 45.5886 82.769 45.758 82.769ZM47.6193 83.0963V82.7895L48.7716 81.5281C48.9068 81.3804 49.0182 81.252 49.1057 81.1429C49.1932 81.0327 49.258 80.9293 49.3 80.8327C49.3432 80.7349 49.3648 80.6327 49.3648 80.5259C49.3648 80.4031 49.3352 80.2969 49.2761 80.2071C49.2182 80.1173 49.1386 80.048 49.0375 79.9992C48.9364 79.9503 48.8227 79.9259 48.6966 79.9259C48.5625 79.9259 48.4455 79.9537 48.3455 80.0094C48.2466 80.0639 48.1699 80.1406 48.1153 80.2395C48.0619 80.3384 48.0352 80.4543 48.0352 80.5872H47.633C47.633 80.3827 47.6801 80.2031 47.7744 80.0486C47.8687 79.894 47.9972 79.7736 48.1597 79.6872C48.3233 79.6009 48.5068 79.5577 48.7102 79.5577C48.9148 79.5577 49.096 79.6009 49.254 79.6872C49.4119 79.7736 49.5358 79.8901 49.6256 80.0367C49.7153 80.1832 49.7602 80.3463 49.7602 80.5259C49.7602 80.6543 49.7369 80.7798 49.6903 80.9026C49.6449 81.0242 49.5653 81.1599 49.4517 81.3099C49.3392 81.4588 49.183 81.6406 48.983 81.8554L48.1989 82.694V82.7213H49.8216V83.0963H47.6193ZM51.6165 83.144C51.4165 83.144 51.2364 83.1043 51.0761 83.0247C50.9159 82.9452 50.7875 82.8361 50.6909 82.6974C50.5943 82.5588 50.5415 82.4009 50.5324 82.2236H50.9415C50.9574 82.3815 51.029 82.5122 51.1562 82.6156C51.2847 82.7179 51.4381 82.769 51.6165 82.769C51.7597 82.769 51.8869 82.7355 51.9983 82.6685C52.1108 82.6014 52.1989 82.5094 52.2625 82.3923C52.3273 82.2742 52.3597 82.1406 52.3597 81.9918C52.3597 81.8395 52.3261 81.7037 52.2591 81.5844C52.1932 81.4639 52.1023 81.369 51.9864 81.2997C51.8705 81.2304 51.7381 81.1952 51.5892 81.194C51.4824 81.1929 51.3727 81.2094 51.2602 81.2435C51.1477 81.2764 51.0551 81.319 50.9824 81.3713L50.5869 81.3236L50.7983 79.6054H52.6119V79.9804H51.1528L51.0301 81.0099H51.0506C51.1222 80.9531 51.2119 80.906 51.3199 80.8685C51.4278 80.831 51.5403 80.8122 51.6574 80.8122C51.871 80.8122 52.0614 80.8634 52.2284 80.9656C52.3966 81.0668 52.5284 81.2054 52.6239 81.3815C52.7205 81.5577 52.7687 81.7588 52.7687 81.9849C52.7687 82.2077 52.7187 82.4065 52.6187 82.5815C52.5199 82.7554 52.3835 82.8929 52.2097 82.994C52.0358 83.094 51.8381 83.144 51.6165 83.144Z" fill="white" style="fill:white;fill-opacity:1;"/>
</g>
<defs>
<clipPath id="clip0_322_1759">
<rect width="96.2" height="104" fill="white" style="fill:white;fill-opacity:1;"/>
</clipPath>
</defs>
</svg>
