<svg width="96" height="104" viewBox="0 0 96 104" fill="none" xmlns="http://www.w3.org/2000/svg">
<g clip-path="url(#clip0_322_1738)">
<path d="M95.7392 26.2235V77.7767L48.1284 103.553L0.517578 77.7767V26.2235L48.1284 0.446899L95.7392 26.2235Z" fill="#292733" style="fill:#292733;fill:color(display-p3 0.1608 0.1529 0.2000);fill-opacity:1;"/>
<path d="M48 104L47.8184 103.901L0 78.0125V26L0.204685 25.8912L48 0L48.1816 0.0991852L96 26V78.026L48 104ZM0.778378 77.5397L48 103.105L95.2216 77.5397V26.4603L48 0.894593L0.778378 26.4603V77.5397Z" fill="#4A4658" style="fill:#4A4658;fill:color(display-p3 0.2902 0.2745 0.3451);fill-opacity:1;"/>
<path d="M93.4046 27.6255V76.3745L47.9992 100.75L2.59375 76.3745V27.6255L47.9992 3.25L93.4046 27.6255Z" fill="#4A4658" style="fill:#4A4658;fill:color(display-p3 0.2902 0.2745 0.3451);fill-opacity:1;"/>
<path d="M93.4046 37.7001H2.59375V66.3001H93.4046V37.7001Z" fill="#1C1B24" style="fill:#1C1B24;fill:color(display-p3 0.1098 0.1059 0.1412);fill-opacity:1;"/>
<path d="M89.0326 29.5745V74.4255L48.1677 96.85L7.30283 74.4255V29.5745L48.1677 7.15002L89.0326 29.5745Z" fill="#292733" style="fill:#292733;fill:color(display-p3 0.1608 0.1529 0.2000);fill-opacity:1;"/>
<path d="M92.1068 40.2999H3.89062V63.6999H92.1068V40.2999Z" fill="#1C1B24" style="fill:#1C1B24;fill:color(display-p3 0.1098 0.1059 0.1412);fill-opacity:1;"/>
<path d="M13.6209 66.2999H82.3776" stroke="#17313B" style="stroke:#17313B;stroke:color(display-p3 0.0902 0.1922 0.2314);stroke-opacity:1;" stroke-width="0.0888889" stroke-miterlimit="10"/>
<path d="M13.6209 37.7001H82.3776" stroke="#17313B" style="stroke:#17313B;stroke:color(display-p3 0.0902 0.1922 0.2314);stroke-opacity:1;" stroke-width="0.0888889" stroke-miterlimit="10"/>
<path d="M38.6826 45.7598H36.3474V57.9798H38.6826V45.7598Z" fill="white" style="fill:white;fill-opacity:1;"/>
<path d="M46.2062 54.3405C46.2062 56.2433 44.4082 56.3945 43.9047 56.3945C42.6439 56.3945 42.3143 55.2813 42.3143 54.6111V49.9205H40.498V54.6005C40.498 55.7811 40.869 56.7556 41.5589 57.4037C42.2383 58.0046 43.1205 58.3233 44.0267 58.2925C44.7993 58.2733 45.5527 58.045 46.2062 57.6319V57.9805H48.2818V49.9205H46.2062V54.3405Z" fill="white" style="fill:white;fill-opacity:1;"/>
<path d="M52.693 47.0607H50.3578V49.9207H49.0605V51.4807H50.3578V57.9807H52.693V51.4807H54.2497V49.9207H52.693V47.0607Z" fill="white" style="fill:white;fill-opacity:1;"/>
<path d="M60.9713 55.7387C60.4803 56.1402 59.8643 56.355 59.2301 56.3444C57.7512 56.3444 56.6662 55.3275 56.6662 53.9312C56.6662 52.5349 57.7041 51.5623 59.2301 51.5623C59.8662 51.5508 60.4861 51.7616 60.9838 52.1574L61.3058 52.4174L62.7376 51.076L62.3792 50.7746C61.4903 50.0399 60.3688 49.6441 59.2166 49.6595C56.5625 49.6595 54.6348 51.4564 54.6348 53.9235C54.6348 56.3906 56.6095 58.2395 59.2166 58.2395C60.3746 58.2578 61.5008 57.8582 62.3897 57.1138L62.7347 56.8095L61.2817 55.4681L60.9704 55.7387H60.9713Z" fill="white" style="fill:white;fill-opacity:1;"/>
<path d="M70.3726 50.6786C69.6807 50.0787 68.7889 49.7618 67.8741 49.7917C67.088 49.7821 66.3183 50.0122 65.6658 50.4523V45.7598H63.5901V57.9798H65.6658V53.7418C65.6658 51.839 67.334 51.6849 67.8375 51.6849C69.0983 51.6849 69.2982 52.8 69.2982 53.4712V57.9798H71.3739V53.4818C71.3739 52.3012 71.0731 51.3286 70.3726 50.6786Z" fill="white" style="fill:white;fill-opacity:1;"/>
<path d="M59.1489 55.394C59.996 55.394 60.6826 54.749 60.6826 53.9534C60.6826 53.1578 59.996 52.5128 59.1489 52.5128C58.3019 52.5128 57.6152 53.1578 57.6152 53.9534C57.6152 54.749 58.3019 55.394 59.1489 55.394Z" fill="#A7A4B5" style="fill:#A7A4B5;fill:color(display-p3 0.6549 0.6431 0.7098);fill-opacity:1;"/>
<path d="M33.7848 55.1433C32.9603 55.9253 31.8639 56.3567 30.728 56.3441C28.3621 56.3441 26.642 54.6021 26.642 52.2101C26.642 49.8181 28.3621 48.0655 30.728 48.0655C31.8572 48.0598 32.9469 48.4864 33.7743 49.2567L34.0962 49.561L35.5155 48.2302L35.2042 47.9259C33.9963 46.781 32.3905 46.1531 30.728 46.1733C27.2436 46.1733 24.623 48.7733 24.623 52.2207C24.623 55.6681 27.2542 58.2402 30.728 58.2402C32.3963 58.2595 34.0068 57.6258 35.2167 56.4751L35.528 56.1737L34.1193 54.8217L33.7848 55.1443V55.1433Z" fill="white" style="fill:white;fill-opacity:1;"/>
<path d="M43.0892 14.0179V13.6429H45.7074V14.0179H44.6097V17.1338H44.187V14.0179H43.0892ZM49.16 15.3883C49.16 15.7565 49.0935 16.0747 48.9605 16.3429C48.8276 16.6111 48.6452 16.8179 48.4134 16.9633C48.1816 17.1088 47.9168 17.1815 47.6191 17.1815C47.3213 17.1815 47.0566 17.1088 46.8248 16.9633C46.5929 16.8179 46.4105 16.6111 46.2776 16.3429C46.1446 16.0747 46.0782 15.7565 46.0782 15.3883C46.0782 15.0202 46.1446 14.702 46.2776 14.4338C46.4105 14.1656 46.5929 13.9588 46.8248 13.8133C47.0566 13.6679 47.3213 13.5952 47.6191 13.5952C47.9168 13.5952 48.1816 13.6679 48.4134 13.8133C48.6452 13.9588 48.8276 14.1656 48.9605 14.4338C49.0935 14.702 49.16 15.0202 49.16 15.3883ZM48.7509 15.3883C48.7509 15.0861 48.7003 14.8309 48.5992 14.623C48.4992 14.415 48.3634 14.2577 48.1918 14.1508C48.0213 14.044 47.8304 13.9906 47.6191 13.9906C47.4077 13.9906 47.2162 14.044 47.0446 14.1508C46.8742 14.2577 46.7384 14.415 46.6373 14.623C46.5373 14.8309 46.4873 15.0861 46.4873 15.3883C46.4873 15.6906 46.5373 15.9457 46.6373 16.1537C46.7384 16.3616 46.8742 16.519 47.0446 16.6258C47.2162 16.7327 47.4077 16.7861 47.6191 16.7861C47.8304 16.7861 48.0213 16.7327 48.1918 16.6258C48.3634 16.519 48.4992 16.3616 48.5992 16.1537C48.7003 15.9457 48.7509 15.6906 48.7509 15.3883ZM49.8708 17.1338V13.6429H51.0503C51.3242 13.6429 51.548 13.6923 51.7219 13.7912C51.8969 13.8889 52.0265 14.0213 52.1105 14.1883C52.1946 14.3554 52.2367 14.5417 52.2367 14.7474C52.2367 14.9531 52.1946 15.14 52.1105 15.3082C52.0276 15.4764 51.8992 15.6105 51.7253 15.7105C51.5515 15.8094 51.3287 15.8588 51.0571 15.8588H50.2117V15.4838H51.0435C51.231 15.4838 51.3816 15.4514 51.4952 15.3866C51.6088 15.3219 51.6912 15.2344 51.7424 15.1241C51.7946 15.0128 51.8208 14.8872 51.8208 14.7474C51.8208 14.6077 51.7946 14.4827 51.7424 14.3724C51.6912 14.2622 51.6083 14.1758 51.4935 14.1133C51.3787 14.0497 51.2265 14.0179 51.0367 14.0179H50.2935V17.1338H49.8708Z" fill="white" style="fill:white;fill-opacity:1;"/>
<path d="M36.2852 25.8004H35.2079V22.3095H36.3329C36.6715 22.3095 36.9613 22.3794 37.2022 22.5192C37.4431 22.6578 37.6278 22.8572 37.7562 23.1175C37.8846 23.3766 37.9488 23.6868 37.9488 24.0481C37.9488 24.4118 37.884 24.7248 37.7545 24.9873C37.6249 25.2487 37.4363 25.4498 37.1886 25.5908C36.9408 25.7305 36.6397 25.8004 36.2852 25.8004ZM35.6306 25.4254H36.2579C36.5465 25.4254 36.7857 25.3697 36.9755 25.2584C37.1653 25.147 37.3067 24.9885 37.3999 24.7828C37.4931 24.5771 37.5397 24.3322 37.5397 24.0481C37.5397 23.7663 37.4937 23.5237 37.4016 23.3203C37.3096 23.1158 37.1721 22.9589 36.9891 22.8498C36.8062 22.7396 36.5783 22.6845 36.3056 22.6845H35.6306V25.4254ZM38.637 25.8004H38.1938L39.4756 22.3095H39.912L41.1938 25.8004H40.7506L39.7075 22.8618H39.6802L38.637 25.8004ZM38.8006 24.4368H40.587V24.8118H38.8006V24.4368ZM41.7376 25.8004V22.3095H42.9171C43.1898 22.3095 43.4137 22.3561 43.5887 22.4493C43.7637 22.5413 43.8933 22.668 43.9773 22.8294C44.0614 22.9908 44.1035 23.1743 44.1035 23.38C44.1035 23.5856 44.0614 23.768 43.9773 23.9271C43.8933 24.0862 43.7643 24.2112 43.5904 24.3021C43.4165 24.3919 43.1944 24.4368 42.9239 24.4368H41.9694V24.055H42.9103C43.0967 24.055 43.2467 24.0277 43.3603 23.9731C43.4751 23.9186 43.558 23.8413 43.6092 23.7413C43.6614 23.6402 43.6876 23.5197 43.6876 23.38C43.6876 23.2402 43.6614 23.118 43.6092 23.0135C43.5569 22.9089 43.4734 22.8283 43.3586 22.7714C43.2438 22.7135 43.0921 22.6845 42.9035 22.6845H42.1603V25.8004H41.7376ZM43.3808 24.2322L44.2398 25.8004H43.7489L42.9035 24.2322H43.3808ZM44.8079 25.8004V22.3095H45.2306V24.0413H45.2715L46.8397 22.3095H47.392L45.9261 23.8845L47.392 25.8004H46.8806L45.667 24.1777L45.2306 24.6686V25.8004H44.8079ZM49.9232 25.8004L48.9687 22.3095H49.3982L50.1278 25.1527H50.1619L50.905 22.3095H51.3823L52.1255 25.1527H52.1596L52.8891 22.3095H53.3187L52.3641 25.8004H51.9278L51.1573 23.0186H51.13L50.3596 25.8004H49.9232ZM53.8454 25.8004V22.3095H55.9522V22.6845H54.2681V23.8641H55.8431V24.2391H54.2681V25.4254H55.9795V25.8004H53.8454ZM56.7141 25.8004V22.3095H57.9346C58.1778 22.3095 58.3783 22.3516 58.5363 22.4356C58.6942 22.5186 58.8119 22.6305 58.8891 22.7714C58.9664 22.9112 59.005 23.0663 59.005 23.2368C59.005 23.3868 58.9783 23.5106 58.9249 23.6084C58.8727 23.7061 58.8033 23.7834 58.717 23.8402C58.6317 23.897 58.5391 23.9391 58.4391 23.9663V24.0004C58.546 24.0072 58.6533 24.0447 58.7613 24.1129C58.8692 24.1811 58.9596 24.2788 59.0323 24.4061C59.105 24.5334 59.1414 24.6891 59.1414 24.8731C59.1414 25.0481 59.1016 25.2055 59.0221 25.3453C58.9425 25.4851 58.817 25.5959 58.6454 25.6777C58.4738 25.7595 58.2505 25.8004 57.9755 25.8004H56.7141ZM57.1369 25.4254H57.9755C58.2516 25.4254 58.4477 25.372 58.5636 25.2652C58.6806 25.1572 58.7391 25.0266 58.7391 24.8731C58.7391 24.755 58.709 24.6459 58.6488 24.5459C58.5886 24.4447 58.5028 24.3641 58.3914 24.3038C58.28 24.2425 58.1482 24.2118 57.996 24.2118H57.1369V25.4254ZM57.1369 23.8436H57.921C58.0482 23.8436 58.163 23.8186 58.2653 23.7686C58.3687 23.7186 58.4505 23.6481 58.5107 23.5572C58.5721 23.4663 58.6028 23.3595 58.6028 23.2368C58.6028 23.0834 58.5494 22.9533 58.4425 22.8464C58.3357 22.7385 58.1664 22.6845 57.9346 22.6845H57.1369V23.8436Z" fill="white" style="fill:white;fill-opacity:1;"/>
<path d="M18.1044 30.9763H18.6089L19.7953 33.874H19.8362L21.0225 30.9763H21.5271V34.4672H21.1316V31.8149H21.0975L20.0066 34.4672H19.6248L18.5339 31.8149H18.4998V34.4672H18.1044V30.9763ZM25.3201 32.7217C25.3201 33.0899 25.2537 33.4081 25.1207 33.6763C24.9877 33.9444 24.8054 34.1513 24.5735 34.2967C24.3417 34.4422 24.077 34.5149 23.7792 34.5149C23.4815 34.5149 23.2167 34.4422 22.9849 34.2967C22.7531 34.1513 22.5707 33.9444 22.4377 33.6763C22.3048 33.4081 22.2383 33.0899 22.2383 32.7217C22.2383 32.3535 22.3048 32.0353 22.4377 31.7672C22.5707 31.499 22.7531 31.2922 22.9849 31.1467C23.2167 31.0013 23.4815 30.9285 23.7792 30.9285C24.077 30.9285 24.3417 31.0013 24.5735 31.1467C24.8054 31.2922 24.9877 31.499 25.1207 31.7672C25.2537 32.0353 25.3201 32.3535 25.3201 32.7217ZM24.911 32.7217C24.911 32.4194 24.8605 32.1643 24.7593 31.9564C24.6593 31.7484 24.5235 31.591 24.352 31.4842C24.1815 31.3774 23.9906 31.324 23.7792 31.324C23.5679 31.324 23.3764 31.3774 23.2048 31.4842C23.0343 31.591 22.8985 31.7484 22.7974 31.9564C22.6974 32.1643 22.6474 32.4194 22.6474 32.7217C22.6474 33.024 22.6974 33.2791 22.7974 33.487C22.8985 33.695 23.0343 33.8524 23.2048 33.9592C23.3764 34.066 23.5679 34.1194 23.7792 34.1194C23.9906 34.1194 24.1815 34.066 24.352 33.9592C24.5235 33.8524 24.6593 33.695 24.7593 33.487C24.8605 33.2791 24.911 33.024 24.911 32.7217ZM28.7991 30.9763V34.4672H28.39L26.4877 31.7263H26.4537V34.4672H26.0309V30.9763H26.44L28.3491 33.724H28.3832V30.9763H28.7991ZM30.0677 30.9763V34.4672H29.645V30.9763H30.0677ZM30.7244 31.3513V30.9763H33.3426V31.3513H32.2449V34.4672H31.8221V31.3513H30.7244ZM36.7951 32.7217C36.7951 33.0899 36.7287 33.4081 36.5957 33.6763C36.4627 33.9444 36.2804 34.1513 36.0485 34.2967C35.8167 34.4422 35.552 34.5149 35.2542 34.5149C34.9565 34.5149 34.6917 34.4422 34.4599 34.2967C34.2281 34.1513 34.0457 33.9444 33.9127 33.6763C33.7798 33.4081 33.7133 33.0899 33.7133 32.7217C33.7133 32.3535 33.7798 32.0353 33.9127 31.7672C34.0457 31.499 34.2281 31.2922 34.4599 31.1467C34.6917 31.0013 34.9565 30.9285 35.2542 30.9285C35.552 30.9285 35.8167 31.0013 36.0485 31.1467C36.2804 31.2922 36.4627 31.499 36.5957 31.7672C36.7287 32.0353 36.7951 32.3535 36.7951 32.7217ZM36.386 32.7217C36.386 32.4194 36.3355 32.1643 36.2343 31.9564C36.1343 31.7484 35.9985 31.591 35.827 31.4842C35.6565 31.3774 35.4656 31.324 35.2542 31.324C35.0429 31.324 34.8514 31.3774 34.6798 31.4842C34.5093 31.591 34.3735 31.7484 34.2724 31.9564C34.1724 32.1643 34.1224 32.4194 34.1224 32.7217C34.1224 33.024 34.1724 33.2791 34.2724 33.487C34.3735 33.695 34.5093 33.8524 34.6798 33.9592C34.8514 34.066 35.0429 34.1194 35.2542 34.1194C35.4656 34.1194 35.6565 34.066 35.827 33.9592C35.9985 33.8524 36.1343 33.695 36.2343 33.487C36.3355 33.2791 36.386 33.024 36.386 32.7217ZM37.5059 34.4672V30.9763H38.6855C38.9582 30.9763 39.1821 31.0228 39.3571 31.116C39.5321 31.2081 39.6616 31.3348 39.7457 31.4961C39.8298 31.6575 39.8718 31.841 39.8718 32.0467C39.8718 32.2524 39.8298 32.4348 39.7457 32.5939C39.6616 32.753 39.5326 32.878 39.3588 32.9689C39.1849 33.0586 38.9627 33.1035 38.6923 33.1035H37.7377V32.7217H38.6787C38.865 32.7217 39.015 32.6944 39.1287 32.6399C39.2434 32.5853 39.3264 32.5081 39.3775 32.4081C39.4298 32.3069 39.4559 32.1865 39.4559 32.0467C39.4559 31.9069 39.4298 31.7848 39.3775 31.6802C39.3252 31.5757 39.2417 31.495 39.127 31.4382C39.0122 31.3802 38.8605 31.3513 38.6718 31.3513H37.9287V34.4672H37.5059ZM39.1491 32.899L40.0082 34.4672H39.5173L38.6718 32.899H39.1491ZM40.999 30.9763V34.4672H40.5762V30.9763H40.999ZM44.6147 30.9763V34.4672H44.2056L42.3034 31.7263H42.2693V34.4672H41.8466V30.9763H42.2556L44.1647 33.724H44.1988V30.9763H44.6147ZM47.847 32.0672C47.8095 31.9524 47.7601 31.8495 47.6987 31.7586C47.6385 31.6666 47.5663 31.5882 47.4822 31.5234C47.3993 31.4586 47.3049 31.4092 47.1993 31.3751C47.0936 31.341 46.9777 31.324 46.8515 31.324C46.6447 31.324 46.4566 31.3774 46.2873 31.4842C46.118 31.591 45.9833 31.7484 45.8833 31.9564C45.7833 32.1643 45.7333 32.4194 45.7333 32.7217C45.7333 33.024 45.7839 33.2791 45.8851 33.487C45.9862 33.695 46.1231 33.8524 46.2958 33.9592C46.4686 34.066 46.6629 34.1194 46.8788 34.1194C47.0788 34.1194 47.2549 34.0768 47.4072 33.9916C47.5606 33.9052 47.6799 33.7836 47.7652 33.6268C47.8515 33.4689 47.8947 33.2831 47.8947 33.0694L48.0243 33.0967H46.9743V32.7217H48.3038V33.0967C48.3038 33.3842 48.2424 33.6342 48.1197 33.8467C47.9981 34.0592 47.8299 34.224 47.6152 34.341C47.4015 34.4569 47.1561 34.5149 46.8788 34.5149C46.5697 34.5149 46.2981 34.4422 46.064 34.2967C45.8311 34.1513 45.6493 33.9444 45.5186 33.6763C45.389 33.4081 45.3243 33.0899 45.3243 32.7217C45.3243 32.4456 45.3612 32.1973 45.4351 31.9768C45.5101 31.7552 45.6157 31.5666 45.7521 31.4109C45.8885 31.2552 46.0498 31.1359 46.2362 31.053C46.4226 30.97 46.6277 30.9285 46.8515 30.9285C47.0356 30.9285 47.2072 30.9564 47.3663 31.012C47.5265 31.0666 47.6691 31.1444 47.7941 31.2456C47.9203 31.3456 48.0254 31.4655 48.1095 31.6052C48.1936 31.7439 48.2515 31.8978 48.2833 32.0672H47.847ZM53.1869 32.0672H52.7642C52.7392 31.9456 52.6954 31.8388 52.6329 31.7467C52.5716 31.6547 52.4966 31.5774 52.4079 31.5149C52.3204 31.4513 52.2233 31.4035 52.1164 31.3717C52.0096 31.3399 51.8983 31.324 51.7824 31.324C51.571 31.324 51.3795 31.3774 51.2079 31.4842C51.0375 31.591 50.9017 31.7484 50.8005 31.9564C50.7005 32.1643 50.6505 32.4194 50.6505 32.7217C50.6505 33.024 50.7005 33.2791 50.8005 33.487C50.9017 33.695 51.0375 33.8524 51.2079 33.9592C51.3795 34.066 51.571 34.1194 51.7824 34.1194C51.8983 34.1194 52.0096 34.1035 52.1164 34.0717C52.2233 34.0399 52.3204 33.9927 52.4079 33.9302C52.4966 33.8666 52.5716 33.7888 52.6329 33.6967C52.6954 33.6035 52.7392 33.4967 52.7642 33.3763H53.1869C53.1551 33.5547 53.0971 33.7143 53.013 33.8552C52.9289 33.9961 52.8244 34.116 52.6994 34.2149C52.5744 34.3126 52.4341 34.387 52.2784 34.4382C52.1238 34.4893 51.9585 34.5149 51.7824 34.5149C51.4846 34.5149 51.2199 34.4422 50.988 34.2967C50.7562 34.1513 50.5738 33.9444 50.4409 33.6763C50.3079 33.4081 50.2414 33.0899 50.2414 32.7217C50.2414 32.3535 50.3079 32.0353 50.4409 31.7672C50.5738 31.499 50.7562 31.2922 50.988 31.1467C51.2199 31.0013 51.4846 30.9285 51.7824 30.9285C51.9585 30.9285 52.1238 30.9541 52.2784 31.0052C52.4341 31.0564 52.5744 31.1314 52.6994 31.2302C52.8244 31.328 52.9289 31.4473 53.013 31.5882C53.0971 31.728 53.1551 31.8876 53.1869 32.0672ZM56.8154 32.7217C56.8154 33.0899 56.749 33.4081 56.616 33.6763C56.4831 33.9444 56.3007 34.1513 56.0689 34.2967C55.837 34.4422 55.5723 34.5149 55.2745 34.5149C54.9768 34.5149 54.712 34.4422 54.4802 34.2967C54.2484 34.1513 54.066 33.9444 53.9331 33.6763C53.8001 33.4081 53.7336 33.0899 53.7336 32.7217C53.7336 32.3535 53.8001 32.0353 53.9331 31.7672C54.066 31.499 54.2484 31.2922 54.4802 31.1467C54.712 31.0013 54.9768 30.9285 55.2745 30.9285C55.5723 30.9285 55.837 31.0013 56.0689 31.1467C56.3007 31.2922 56.4831 31.499 56.616 31.7672C56.749 32.0353 56.8154 32.3535 56.8154 32.7217ZM56.4064 32.7217C56.4064 32.4194 56.3558 32.1643 56.2547 31.9564C56.1547 31.7484 56.0189 31.591 55.8473 31.4842C55.6768 31.3774 55.4859 31.324 55.2745 31.324C55.0632 31.324 54.8717 31.3774 54.7001 31.4842C54.5297 31.591 54.3939 31.7484 54.2927 31.9564C54.1927 32.1643 54.1427 32.4194 54.1427 32.7217C54.1427 33.024 54.1927 33.2791 54.2927 33.487C54.3939 33.695 54.5297 33.8524 54.7001 33.9592C54.8717 34.066 55.0632 34.1194 55.2745 34.1194C55.4859 34.1194 55.6768 34.066 55.8473 33.9592C56.0189 33.8524 56.1547 33.695 56.2547 33.487C56.3558 33.2791 56.4064 33.024 56.4064 32.7217ZM57.5262 30.9763H58.0308L59.2172 33.874H59.2581L60.4444 30.9763H60.949V34.4672H60.5535V31.8149H60.5194L59.4285 34.4672H59.0467L57.9558 31.8149H57.9217V34.4672H57.5262V30.9763ZM61.7966 34.4672V30.9763H62.9761C63.25 30.9763 63.4738 31.0257 63.6477 31.1245C63.8227 31.2223 63.9522 31.3547 64.0363 31.5217C64.1204 31.6888 64.1625 31.8751 64.1625 32.0808C64.1625 32.2865 64.1204 32.4734 64.0363 32.6416C63.9534 32.8098 63.825 32.9439 63.6511 33.0439C63.4772 33.1427 63.2545 33.1922 62.9829 33.1922H62.1375V32.8172H62.9693C63.1568 32.8172 63.3074 32.7848 63.421 32.72C63.5346 32.6552 63.617 32.5677 63.6681 32.4575C63.7204 32.3461 63.7466 32.2206 63.7466 32.0808C63.7466 31.941 63.7204 31.816 63.6681 31.7058C63.617 31.5956 63.5341 31.5092 63.4193 31.4467C63.3045 31.3831 63.1522 31.3513 62.9625 31.3513H62.2193V34.4672H61.7966ZM64.6304 34.4672H64.1872L65.469 30.9763H65.9054L67.1872 34.4672H66.744L65.7008 31.5285H65.6735L64.6304 34.4672ZM64.794 33.1035H66.5804V33.4785H64.794V33.1035ZM70.4991 30.9763V34.4672H70.09L68.1878 31.7263H68.1537V34.4672H67.7309V30.9763H68.14L70.0491 33.724H70.0832V30.9763H70.4991ZM71.045 30.9763H71.5291L72.4973 32.6058H72.5382L73.5064 30.9763H73.9904L72.7291 33.0285V34.4672H72.3064V33.0285L71.045 30.9763Z" fill="white" style="fill:white;fill-opacity:1;"/>
<path d="M42.1621 74.4298V74.123L43.3144 72.8616C43.4496 72.7139 43.561 72.5855 43.6485 72.4764C43.736 72.3662 43.8008 72.2628 43.8428 72.1662C43.886 72.0684 43.9076 71.9662 43.9076 71.8594C43.9076 71.7366 43.8781 71.6304 43.819 71.5406C43.761 71.4508 43.6815 71.3815 43.5803 71.3327C43.4792 71.2838 43.3656 71.2594 43.2394 71.2594C43.1053 71.2594 42.9883 71.2872 42.8883 71.3429C42.7894 71.3974 42.7127 71.4741 42.6582 71.573C42.6048 71.6719 42.5781 71.7878 42.5781 71.9207H42.1758C42.1758 71.7162 42.2229 71.5366 42.3173 71.3821C42.4116 71.2275 42.54 71.1071 42.7025 71.0207C42.8661 70.9344 43.0496 70.8912 43.2531 70.8912C43.4576 70.8912 43.6388 70.9344 43.7968 71.0207C43.9548 71.1071 44.0786 71.2236 44.1684 71.3702C44.2582 71.5167 44.3031 71.6798 44.3031 71.8594C44.3031 71.9878 44.2798 72.1133 44.2332 72.2361C44.1877 72.3577 44.1082 72.4934 43.9945 72.6434C43.882 72.7923 43.7258 72.9741 43.5258 73.1889L42.7417 74.0275V74.0548H44.3644V74.4298H42.1621ZM46.207 74.4775C45.9502 74.4775 45.7315 74.4077 45.5508 74.2679C45.3701 74.127 45.232 73.923 45.1366 73.6559C45.0411 73.3878 44.9934 73.0639 44.9934 72.6844C44.9934 72.3071 45.0411 71.9849 45.1366 71.7179C45.2332 71.4497 45.3718 71.2452 45.5525 71.1042C45.7343 70.9622 45.9525 70.8912 46.207 70.8912C46.4616 70.8912 46.6792 70.9622 46.8599 71.1042C47.0417 71.2452 47.1803 71.4497 47.2758 71.7179C47.3724 71.9849 47.4207 72.3071 47.4207 72.6844C47.4207 73.0639 47.3729 73.3878 47.2775 73.6559C47.182 73.923 47.044 74.127 46.8633 74.2679C46.6826 74.4077 46.4638 74.4775 46.207 74.4775ZM46.207 74.1025C46.4616 74.1025 46.6593 73.9798 46.8002 73.7344C46.9411 73.4889 47.0116 73.1389 47.0116 72.6844C47.0116 72.3821 46.9792 72.1247 46.9144 71.9122C46.8508 71.6997 46.7587 71.5378 46.6383 71.4264C46.519 71.315 46.3752 71.2594 46.207 71.2594C45.9548 71.2594 45.7576 71.3838 45.6156 71.6327C45.4735 71.8804 45.4025 72.2309 45.4025 72.6844C45.4025 72.9866 45.4343 73.2434 45.4979 73.4548C45.5616 73.6662 45.6531 73.827 45.7724 73.9372C45.8928 74.0474 46.0377 74.1025 46.207 74.1025ZM48.0684 74.4298V74.123L49.2207 72.8616C49.3559 72.7139 49.4673 72.5855 49.5548 72.4764C49.6423 72.3662 49.707 72.2628 49.7491 72.1662C49.7923 72.0684 49.8138 71.9662 49.8138 71.8594C49.8138 71.7366 49.7843 71.6304 49.7252 71.5406C49.6673 71.4508 49.5877 71.3815 49.4866 71.3327C49.3854 71.2838 49.2718 71.2594 49.1457 71.2594C49.0116 71.2594 48.8945 71.2872 48.7945 71.3429C48.6957 71.3974 48.619 71.4741 48.5644 71.573C48.511 71.6719 48.4843 71.7878 48.4843 71.9207H48.082C48.082 71.7162 48.1292 71.5366 48.2235 71.3821C48.3178 71.2275 48.4462 71.1071 48.6087 71.0207C48.7724 70.9344 48.9559 70.8912 49.1593 70.8912C49.3638 70.8912 49.5451 70.9344 49.7031 71.0207C49.861 71.1071 49.9849 71.2236 50.0746 71.3702C50.1644 71.5167 50.2093 71.6798 50.2093 71.8594C50.2093 71.9878 50.186 72.1133 50.1394 72.2361C50.094 72.3577 50.0144 72.4934 49.9008 72.6434C49.7883 72.7923 49.632 72.9741 49.432 73.1889L48.6479 74.0275V74.0548H50.2707V74.4298H48.0684ZM52.0656 74.4775C51.8656 74.4775 51.6854 74.4378 51.5252 74.3582C51.365 74.2787 51.2366 74.1696 51.14 74.0309C51.0434 73.8923 50.9906 73.7344 50.9815 73.5571H51.3906C51.4065 73.715 51.4781 73.8457 51.6053 73.9491C51.7337 74.0514 51.8871 74.1025 52.0656 74.1025C52.2087 74.1025 52.336 74.069 52.4474 74.002C52.5599 73.9349 52.6479 73.8429 52.7116 73.7258C52.7763 73.6077 52.8087 73.4741 52.8087 73.3253C52.8087 73.173 52.7752 73.0372 52.7082 72.9179C52.6423 72.7974 52.5513 72.7025 52.4354 72.6332C52.3195 72.5639 52.1871 72.5287 52.0383 72.5275C51.9315 72.5264 51.8218 72.5429 51.7093 72.577C51.5968 72.6099 51.5042 72.6525 51.4315 72.7048L51.036 72.6571L51.2474 70.9389H53.061V71.3139H51.6019L51.4792 72.3434H51.4996C51.5712 72.2866 51.661 72.2395 51.769 72.202C51.8769 72.1645 51.9894 72.1457 52.1065 72.1457C52.3201 72.1457 52.5104 72.1969 52.6775 72.2991C52.8457 72.4003 52.9775 72.5389 53.0729 72.715C53.1695 72.8912 53.2178 73.0923 53.2178 73.3184C53.2178 73.5412 53.1678 73.74 53.0678 73.915C52.969 74.0889 52.8326 74.2264 52.6587 74.3275C52.4849 74.4275 52.2871 74.4775 52.0656 74.4775Z" fill="white" style="fill:white;fill-opacity:1;"/>
</g>
<defs>
<clipPath id="clip0_322_1738">
<rect width="96" height="104" fill="white" style="fill:white;fill-opacity:1;"/>
</clipPath>
</defs>
</svg>
