<svg width="110" height="40" viewBox="0 0 110 40" fill="none" xmlns="http://www.w3.org/2000/svg">
<path d="M60.6021 26.1372V31.3064C57.6887 32.7656 54.9501 33.4949 52.2122 33.4949C44.6176 33.4949 40.0535 29.0531 40.0535 23.4057C40.0535 17.3193 45.2763 12.2945 51.9201 12.2945C53.5637 12.2945 54.8057 12.5875 56.1073 13.0161C57.0408 13.3076 57.6165 13.6416 58.2004 13.6416C58.7132 13.6416 58.8556 12.7913 58.9289 12.2945H59.6532L60.3119 19.2876H59.434C59.0751 17.9037 58.4184 16.7684 57.5417 15.973C56.1783 14.5884 54.2938 13.8588 52.14 13.8588C47.5755 13.8588 44.912 17.4663 44.912 22.8963C44.912 28.2511 48.162 31.8912 52.5028 31.8912C53.7813 31.8912 54.9505 31.5998 56.381 30.9429V25.6248C56.381 23.9154 56.1069 23.2582 53.6362 23.2582V22.4581H62.8057V23.2582C60.5291 23.2582 60.6021 23.9878 60.6021 26.1372ZM35.3473 17.6119V33.1322H34.144L18.5895 17.1006C18.6624 17.5391 18.6624 17.9034 18.6624 18.3396V28.1052C18.6624 31.0884 18.6624 32.1808 21.4003 32.1808V32.9825H14.099V32.1808C16.8661 32.1808 16.8661 30.8693 16.8661 28.1052V16.9723C16.8661 15.318 16.8661 13.5026 13.9527 13.5026V12.7365H20.8403L33.6319 25.8443C33.559 25.4808 33.559 25.2628 33.559 24.752V17.6119C33.559 14.7335 33.6319 13.5026 30.8864 13.5026V12.7365H38.1861V13.5026C35.4912 13.5026 35.3473 14.6631 35.3473 17.6119ZM0 32.9825V32.1808C1.75451 32.1808 2.99659 32.0352 2.99659 29.5012V16.1909C2.99659 13.5677 2.04622 13.5026 0 13.5026V12.7365H10.284V13.5026C8.1772 13.5026 7.30167 13.5677 7.30167 16.1909V29.5012C7.30167 32.0352 8.39908 32.1808 10.284 32.1808V32.9825H0Z" fill="#6D697D" style="fill:#6D697D;fill:color(display-p3 0.4275 0.4118 0.4902);fill-opacity:1;"/>
<path d="M80.7674 32.9827C80.4018 32.3285 80.3284 31.3067 80.3284 31.0891C80.3284 30.7256 80.3284 30.2132 80.5479 29.8623L79.7442 30.014C79.5255 30.2871 79.452 30.4369 79.452 30.577L79.8183 30.4373C79.891 30.4373 79.9644 30.577 80.0355 30.726C79.9636 31.0895 79.5255 31.0895 79.3786 31.2354C79.1607 31.9639 79.8184 32.4013 79.891 32.9831L80.7674 32.9827ZM108.803 23.6246C108.803 20.4537 107.491 17.249 105.15 14.9525C104.136 13.9318 103.024 13.4423 102.145 12.4377C101.707 12.0034 101.372 11.5664 101.08 10.983C100.713 10.618 100.493 10.4001 100.055 10.1822C100.129 10.4001 100.204 10.618 100.278 10.8371H100.204C99.838 10.8371 99.4717 10.6176 99.1835 10.3997L99.4717 10.1067C99.3975 9.97112 99.1835 9.97112 99.0328 9.97112C97.8651 9.77425 96.797 10.3997 95.6625 10.6176V10.7647C96.3905 10.9826 96.5265 11.8578 96.9307 12.2945C97.0003 12.2945 97.0698 12.2945 97.3527 12.2945C97.4987 12.2945 97.719 12.4373 97.8651 12.4373C97.8651 12.2945 97.719 12.003 97.719 12.003C97.8651 11.8582 98.0127 11.8582 98.1564 12.003C98.5204 12.2224 99.0328 11.8582 99.3975 12.4373C98.9609 12.4373 98.5204 12.4373 98.1564 12.6621C98.1564 12.7364 98.3782 12.8659 98.304 13.0157C97.9408 12.8655 97.4987 13.0157 97.3527 12.7364L97.2808 12.7912C97.7198 13.3075 98.379 13.7143 99.0335 13.9318C99.9833 14.0789 100.788 13.6419 101.709 13.859C105.005 15.4657 107.345 19.2159 107.345 22.9674C107.345 28.3234 104.277 30.4369 102.367 30.4369C102.001 30.4369 101.443 30.2132 101.227 30.014C101.443 29.269 101.575 28.3989 101.575 27.0844C101.575 23.9885 100.35 20.6352 98.6696 18.9244C97.8658 18.122 97.0003 17.467 96.1023 17.467C95.6633 17.467 95.2236 17.467 94.9338 17.8309C94.5682 18.1224 94.3472 18.7053 94.4214 19.0695C93.8372 19.5073 92.8897 19.7244 92.1594 19.7244C91.3541 19.7244 90.3348 19.4338 89.4344 18.7049C89.4344 18.4134 89.4344 18.0499 89.4344 17.6126C89.2235 17.5398 88.4963 17.1016 88.8587 16.7688C89.079 16.8439 89.2235 16.9725 89.2977 17.0319C89.2242 16.5566 89.2242 15.9729 88.8587 15.5351C88.7119 15.5351 88.4963 15.5351 88.2768 15.3892C88.0573 15.1728 87.834 14.8813 87.834 14.5163C88.0573 14.8813 88.4197 14.7342 88.6385 14.9529C88.2768 14.0793 88.4197 13.715 87.7636 12.4381C87.616 11.7858 86.9599 11.4208 86.5233 10.9834C86.3038 10.8379 86.2319 10.6184 85.9645 10.6184C85.6755 10.5468 85.6755 10.1825 85.6755 9.97189C85.7474 9.97189 85.9645 10.1075 86.1083 10.1825C85.6755 9.19208 85.3818 8.10701 84.4351 7.52254L84.2126 7.66693C83.8486 7.66693 83.4104 7.66693 83.0448 7.66693C83.1886 7.52254 83.4815 7.44938 83.7025 7.30423C83.4815 7.08476 83.3385 7.01122 82.905 7.01122C82.7048 7.08476 82.4366 7.30423 82.1569 7.30423H82.0866C82.0866 7.08476 82.0108 6.79367 82.4366 6.64851C82.0108 6.57421 81.6453 6.57421 81.1329 6.64851C81.0603 7.0116 80.8431 7.23107 80.8431 7.52254C80.6259 7.66693 80.5494 7.8864 80.3299 8.10701C80.3299 7.66693 80.5494 7.23069 80.6259 6.79367C80.33 6.86568 79.966 7.08514 79.8199 7.08514C79.2357 6.79367 78.5046 6.50488 78.2124 6.50488C78.6514 6.79367 78.435 7.30422 78.5046 7.66693L78.2124 7.52254C78.1421 7.23069 77.7735 7.0116 77.7047 6.64851C77.2644 6.64851 76.9708 6.79367 76.6065 7.01161V7.08514C76.8242 7.08514 77.1185 7.30461 77.2644 7.52292C76.7539 7.52292 76.3877 7.30461 75.8757 7.30461C75.8757 7.30461 75.8757 7.23107 75.8089 7.23107C75.6116 7.30461 75.412 7.52292 75.2792 7.66732C74.7668 8.1074 74.4029 8.46972 74.1838 9.11893C74.33 9.11893 74.5488 9.11893 74.6236 9.19246C74.33 9.26446 74.1838 9.62909 73.892 9.70301C73.892 9.97189 73.892 10.4005 73.892 10.7655C73.6729 10.9834 73.3815 11.2013 73.2353 11.6384C72.8702 12.7916 72.7954 14.0793 72.7954 15.5351C72.7236 15.8281 72.5793 15.9009 72.4319 15.9732V17.1016C72.4319 17.1016 72.8702 16.6949 73.0891 16.557C73.0891 16.8443 73.0891 17.2494 73.0891 17.467C72.7954 17.467 72.5793 17.8309 72.5793 18.0499C72.5793 18.3407 72.6522 18.6329 72.6522 18.9244C72.6522 19.0695 72.6522 19.0695 72.724 19.2159C72.724 19.0695 72.8702 18.9244 73.0891 18.8519C73.0891 18.8519 73.2353 18.7049 73.5267 18.7049C73.3101 18.9244 73.2353 19.2159 73.0891 19.5073C72.8702 19.7244 72.8702 19.7244 72.8702 19.7244C72.8702 19.7244 72.7958 19.8708 72.7958 19.9443C73.0894 21.4369 73.5267 22.7487 74.1128 24.1762C73.527 25.1157 72.8706 26.9385 72.4323 28.6857C72.0673 28.3234 71.5553 28.251 71.1162 28.251C70.7066 28.323 70.2713 28.469 69.9754 28.9064C69.5371 28.6858 68.9567 28.7589 68.6742 29.0534C68.0689 29.5747 68.0689 29.8619 68.0689 30.2867C67.9211 30.4369 67.6271 30.7988 67.6271 31.3067C67.6271 31.9635 67.7 32.4005 68.0689 32.9827H79.0177C78.9435 32.7659 78.7975 32.4756 78.6514 32.3285C78.435 31.8911 78.5795 31.3067 78.5795 30.8697C78.7967 30.4365 79.0177 30.0136 79.3106 29.6455C79.3809 29.4249 79.3106 29.4249 79.3809 29.3541L79.8933 29.2683C80.1839 29.2683 80.4034 29.053 80.7689 29.053C80.9892 29.3537 80.9892 28.8324 81.3562 28.6854C82.1569 28.5394 82.905 28.6854 83.3385 29.2679C83.3385 29.3537 83.4104 29.3537 83.4104 29.4242C83.3385 29.4242 83.1894 29.4242 83.0448 29.4242C82.6368 29.2679 82.1569 29.0527 81.6453 29.2679C81.6453 29.4242 81.5749 29.4242 81.5749 29.6448C81.5749 29.7892 81.5749 29.7892 81.5749 30.0128C81.8624 30.0128 82.0866 30.286 82.3694 30.4357C82.5039 30.212 82.905 30.0128 83.1893 30.0128C83.5549 30.0128 84.0673 30.2124 84.0673 30.798C84.0673 31.0883 84.0673 31.3798 84.0673 31.5993C84.3609 31.8907 84.7242 31.9628 85.0889 32.1071C84.9452 32.4002 84.7242 32.4002 84.5047 32.4002H83.9235C83.8486 32.3281 83.7025 32.3281 83.7025 32.1071C83.4823 32.4002 83.3393 32.6927 83.1893 32.9819H91.6447C91.5025 32.6927 91.3549 32.4748 91.2822 32.3277C91.1354 31.8903 91.1354 31.3059 91.1354 30.8689L91.9399 29.7892C92.3758 29.7892 92.7436 29.6448 93.545 29.574C93.6934 29.3533 93.545 29.2675 94.2035 29.2675C94.7135 29.2675 95.0798 29.3533 95.2244 29.4238C95.2978 29.574 95.2978 29.574 95.2244 29.7168C95.0798 29.8612 94.7877 29.574 94.569 29.6448C94.4222 29.7892 94.6432 29.8612 94.6432 30.0128C94.7877 30.1388 93.9855 29.8612 93.9855 29.8612C93.9855 29.8612 93.8379 30.2856 93.7661 30.4357C93.7661 30.4357 94.0574 30.7245 94.2035 30.8689C94.348 31.088 93.9855 31.3059 93.9855 31.5254C93.8379 31.4533 93.5458 31.2339 93.5458 31.3059C93.3982 31.8903 93.5458 32.3998 93.4747 32.9819C93.7668 32.9819 93.9855 32.9819 94.2753 32.9819L94.348 31.7448C94.4222 31.0148 95.2978 29.7172 95.8109 29.7172C96.1038 29.7172 96.321 29.8616 96.5281 30.0128C96.6618 30.286 97.0018 30.4357 97.0018 30.5758C97.0018 30.7249 96.7986 30.798 96.4593 30.798C96.321 30.798 96.321 30.5758 96.103 30.4361L95.6641 30.8693C95.6641 30.8693 96.1734 31.3063 96.1734 31.5993C96.1734 31.9628 96.103 32.1071 95.882 32.3277L95.4438 31.4533C95.2236 31.4533 94.8604 31.8907 94.8604 32.1071C94.8604 32.4002 94.7128 32.5457 94.7128 32.9819H99.1842C99.6928 32.9819 100.131 32.8383 100.641 32.5453C100.935 32.5453 101.151 32.5453 101.513 32.5453C103.315 32.5453 104.713 32.0348 106.031 30.7245C107.783 29.0534 108.803 26.2846 108.803 23.6246ZM93.1045 30.2132L92.3742 30.2867C92.6702 30.4369 92.6702 30.7988 92.6702 30.8697C92.6702 31.0887 92.5211 31.3067 92.3742 31.4537C92.2289 31.3063 92.2297 31.0887 92.0837 30.8697C91.9384 30.8697 91.8649 31.2346 91.8649 31.3802C91.8649 32.0356 92.1586 32.5461 92.3742 32.9827H93.0334C92.9608 32.4005 92.8116 31.8911 92.8116 31.235C92.8116 30.87 93.0334 30.4369 93.1045 30.2132ZM83.5533 31.0891C83.5533 30.7988 83.3377 30.7256 83.0433 30.7256C82.9034 30.7256 82.5696 30.9432 82.5696 31.0891C82.5696 31.3806 82.4351 32.9827 82.4351 32.9827H82.9034C83.1159 32.3285 83.5533 31.4541 83.5533 31.0891ZM82.0093 31.0152C81.9335 31.0152 82.085 31.1626 81.3547 30.4365C81.2056 30.4365 80.9876 30.8697 80.9876 31.0152C80.9876 31.5997 81.1314 32.4005 81.3547 32.9827H81.9335C81.9335 32.3285 82.0093 31.6 82.0093 31.0152ZM101.08 12.7368C100.934 12.4377 100.64 12.2948 100.421 12.2948C100.204 12.0034 99.9107 11.6384 99.617 11.6384C99.838 11.6384 100.129 11.4204 100.492 11.4204C100.639 11.7854 100.934 12.0034 101.005 12.2948L101.08 12.7368ZM98.8859 11.201C98.5954 11.201 98.3782 11.201 98.0845 11.201C97.94 10.983 97.7182 11.201 97.5729 11.201C97.4246 11.201 97.3519 11.201 97.0691 10.983C97.498 10.983 97.7182 10.7651 98.0845 10.618C98.3782 10.8371 98.6688 10.9106 98.8859 11.201ZM97.1347 19.5069C96.6595 19.3629 96.3905 19.1438 95.9531 19.1438C95.8086 19.1438 95.1486 19.3625 95.0783 19.5069C94.8596 19.2155 95.222 18.6325 95.5165 18.4866C95.8086 18.3403 95.9531 18.413 96.1015 18.4866C96.1015 18.924 96.5938 18.7045 96.8627 18.8516C96.9995 19.0691 97.0698 19.2155 97.1347 19.5069ZM97.0698 20.5625C96.6595 20.5625 96.5946 20.5039 96.3194 20.5039C95.9531 20.5039 95.5165 20.6348 95.2962 20.9988C95.1494 20.7088 95.2228 20.5628 95.2962 20.3817C95.5165 20.1653 95.8805 19.8712 96.1718 19.8712C96.6595 19.8708 97.0698 20.2358 97.0698 20.5625ZM98.7422 22.1677C98.1564 21.8046 97.2793 21.5813 96.797 21.5813C96.5265 21.5813 95.6625 21.9478 95.3712 22.2378L95.222 21.5813C95.6625 21.5077 95.6625 21.1423 95.9531 21.1423C96.1711 21.1423 96.457 21.0695 96.6595 21.0695C96.8627 21.0695 96.9995 20.931 97.0691 20.931C97.4246 20.931 97.2793 21.2917 97.498 21.2917C97.7182 21.2917 97.8643 21.1423 98.0119 21.1423C98.3782 21.1427 98.6688 21.7307 98.7422 22.1677ZM98.9609 23.7687C98.4493 23.7687 97.94 23.6243 97.8651 23.4056C97.7182 23.2585 97.8651 22.967 97.498 22.967C97.3519 22.967 97.1347 23.1861 97.1347 23.1861C96.9995 23.2581 96.5945 22.967 96.5945 23.1861C96.5945 23.5496 96.3194 23.6955 95.9531 23.6955C95.8086 23.6955 95.6625 23.6955 95.5165 23.6239C95.5165 23.4052 95.5165 23.1133 95.5165 22.8958C96.457 22.8958 96.3905 22.6028 96.797 22.6028C97.0698 22.6028 97.28 22.748 97.498 22.748C97.8651 22.748 97.6471 22.6028 98.0119 22.6028C98.3782 22.6028 98.5204 22.8958 98.7422 22.9667C98.7422 23.1865 98.9609 23.4795 98.9609 23.7687ZM98.3032 25.3336C98.0845 25.2628 97.5729 25.1893 97.5729 24.9713C97.5729 24.6798 97.4246 24.6063 97.0691 24.6063C96.7963 24.6063 96.5938 24.6798 96.1711 24.8242C96.1711 24.8242 95.9531 24.5328 95.8797 24.2482C96.0265 24.1762 96.5938 24.0376 96.8627 24.0376C97.3519 24.0376 97.8643 24.0376 97.8643 24.2482C97.8651 24.5332 98.3032 24.6063 98.3032 25.3336ZM85.6739 14.0054C85.6739 14.0789 85.5263 14.7342 85.5263 14.7342L84.9429 14.8813L85.3069 13.3079C85.456 13.568 85.6739 13.8587 85.6739 14.0054ZM99.692 27.886C99.692 28.3234 99.692 28.469 99.4717 28.8328L99.0328 28.1763C99.1835 27.9599 99.1835 27.6684 99.3975 27.3035C99.471 27.3035 99.692 27.8113 99.692 27.886ZM97.94 26.9385C97.4246 26.9385 97.7182 25.9181 96.6595 25.9181C96.457 25.9181 96.3187 26.2846 96.0273 26.3555C96.0273 26.2846 96.1015 25.8446 96.1015 25.8446C96.1015 25.699 96.1718 25.4076 96.457 25.2631C96.9995 25.2631 96.8627 25.4807 97.28 25.6251C97.498 25.6986 97.6471 25.8442 97.9408 25.8442L97.94 26.9385ZM93.3959 22.8222C92.7413 22.4588 92.3742 21.805 91.79 21.1427C92.3735 21.1427 92.5203 21.7307 92.96 21.805C93.1045 21.9478 93.2537 22.0206 93.3959 22.2378C93.3959 22.4588 93.3959 22.6035 93.3959 22.8222ZM87.1794 17.4666C86.7412 17.4666 86.5217 17.2486 86.303 16.8439C86.303 16.6248 86.2311 16.3387 86.303 15.9732C86.4475 16.2655 86.4475 16.4118 86.5951 16.5566C86.8857 16.4118 86.8857 16.7688 86.9591 16.8439C87.0341 17.0319 87.1794 17.2486 87.1794 17.4666ZM99.1835 29.79C99.032 30.0136 99.032 30.0136 98.9609 30.2128C98.9609 29.8619 98.5204 29.6455 98.2291 29.0534L98.5204 28.5398C98.7422 28.6857 99.0328 28.9064 99.0328 29.2683C99.0328 29.2683 98.9609 29.4245 99.0328 29.5747C99.0328 29.6455 99.1835 29.6455 99.1835 29.79ZM97.7182 27.7409C97.7182 28.0308 97.6471 28.1058 97.5729 28.4694C97.0691 28.3985 97.0691 27.8113 96.9995 27.7409C96.6595 27.3035 96.1718 27.6688 95.8086 27.6688C95.6625 27.2314 95.8805 27.2314 95.8805 26.9388C96.1015 26.9388 96.3194 26.7913 96.5265 26.9388C96.8627 26.7913 97.0698 27.1579 97.4253 27.1579C97.498 27.3035 97.6471 27.6684 97.7182 27.7409ZM94.0551 24.7522C94.0551 25.0452 93.909 25.2631 93.9832 25.5546C93.8356 25.1157 93.5435 24.6802 93.3959 24.2485C93.3959 24.1765 93.3232 24.1766 93.4724 24.1042C93.5435 24.1042 93.8356 24.1042 93.8356 24.1762C93.909 24.3149 94.0551 24.5332 94.0551 24.7522ZM87.6894 19.0691C87.6153 19.3629 87.3239 19.0691 87.2543 19.0691C87.0341 19.0691 86.7412 19.0691 86.5951 19.0691C86.5217 18.924 86.4475 18.8519 86.4475 18.7045C86.7412 18.6325 86.9584 18.4866 87.1786 18.6325C87.3239 18.8519 87.47 19.0691 87.6894 19.0691ZM89.2969 20.7084C89.0782 20.9313 88.4955 20.9984 88.0565 20.6348L88.6385 20.3817C88.8579 20.5625 89.1516 20.6345 89.2969 20.7084ZM93.0334 24.8242C93.0334 25.2631 92.9608 25.7737 92.9608 26.2842C92.7421 26.2842 92.7421 26.1372 92.7421 25.8442C92.6702 25.4072 92.5211 25.0448 92.3742 24.6063C92.2297 24.0379 91.8657 23.55 91.5759 22.8966C91.501 22.6035 91.1346 22.4588 90.8417 22.2378C91.2057 22.2378 91.5759 22.2378 91.8657 22.5307C91.8657 22.6755 91.9384 22.7487 92.1594 22.9674C92.6702 22.9674 92.5211 23.6246 92.9608 23.9161C92.7421 24.1042 92.6702 24.2485 92.5211 24.3872C92.7413 24.5332 92.96 24.6063 93.0334 24.8242ZM90.1818 22.6755C90.1818 22.8962 90.0426 22.967 89.9051 23.1137C89.9051 23.1137 89.6377 22.7487 89.6377 22.6035C89.6377 22.3094 89.6377 22.1677 89.7057 21.9478C89.9051 22.1677 90.1818 22.4588 90.1818 22.6755ZM96.9995 29.2687C96.9995 29.2963 96.8627 29.4249 96.8627 29.4249C96.5265 29.2687 96.3194 29.1963 95.8805 29.1963C95.8805 28.9064 95.6625 28.5398 95.5165 28.5398C95.0783 28.5398 95.1494 28.8328 94.7862 28.8328L95.4423 28.1763C95.5165 28.0304 95.5165 28.0304 95.6625 28.0304C95.8805 28.1763 95.9531 28.251 96.1718 28.251C96.1718 28.3985 96.1718 28.469 96.1015 28.6857C96.3187 28.8328 96.457 28.6137 96.5938 28.8328C96.797 28.9068 96.9995 28.9787 96.9995 29.2687ZM91.1339 24.2482C91.1339 24.3868 90.9144 24.5328 90.8417 24.5328C90.8417 24.5328 90.4747 24.1758 90.4066 23.8422C90.334 23.5496 90.6223 23.039 90.6223 23.039C90.6949 23.039 90.7699 23.1861 90.8417 23.1861C90.9144 23.2581 90.8417 23.4791 90.9144 23.6955C91.1339 23.8426 91.2807 24.1038 91.1339 24.2482ZM85.5263 17.2486C84.65 16.7688 83.701 16.4114 82.6345 16.3387C82.6345 16.5566 82.6345 16.7688 82.5696 16.8439C83.4088 17.249 84.211 17.6126 84.9436 18.2671V18.9244C84.211 18.1962 83.4088 17.467 82.5023 17.249C82.4351 17.3946 82.1553 17.5398 82.085 17.8309C81.5734 17.467 80.9876 17.1016 80.4018 17.0323C80.1823 17.0323 80.0363 16.2655 80.0363 16.2655C80.4018 16.1196 80.6244 15.9013 80.7674 15.5355C80.8415 15.5355 80.9876 15.5355 81.0587 15.5355C81.2782 15.5355 81.2782 15.3896 81.2782 15.1732C81.2782 14.7346 80.3284 14.7346 79.8918 14.7346C79.3794 14.7346 79.0162 14.7346 78.7186 14.9529C78.578 14.9529 78.6491 15.1732 78.6491 15.3187C78.6491 15.3896 78.867 15.5351 78.867 15.5351C79.0162 15.5351 79.1615 15.3892 79.3083 15.3892C79.2341 15.8281 79.3794 16.0472 79.8183 16.2651L79.7442 16.9725C78.867 16.9725 78.2828 17.3195 77.6282 17.6122C77.4064 17.4666 77.2621 17.2486 77.1162 17.0315C76.2377 17.3191 74.7645 18.4866 74.7645 18.4866C74.7645 18.4866 74.7645 18.1959 74.7645 17.9772C75.4097 17.3942 76.2376 17.1008 76.8948 16.7684V16.2647C76.6042 16.1188 76.3121 16.2647 76.0215 16.2647C75.4097 16.3383 74.7649 16.624 74.3281 16.9721C74.3281 16.7684 74.2551 16.4838 74.2551 16.4838C75.0605 16.0468 76.0219 15.6818 76.9688 15.8273C76.9688 15.7553 76.9688 15.5343 76.9688 15.5343C76.8952 15.3884 76.8952 15.172 76.752 15.172C76.3125 14.7335 75.8738 14.0781 75.8738 13.6411L76.1682 13.5025C76.0219 13.0892 75.8738 12.0026 76.1682 11.6376C75.7436 11.4197 75.3429 11.0547 75.2067 10.7647C75.0604 10.3997 74.913 10.1818 74.8378 9.77425C75.0605 9.33685 75.2067 9.19131 75.4101 8.75966C75.5441 8.75966 75.7432 8.68804 75.807 8.54173C76.1678 8.46819 76.3858 8.10586 76.8226 8.32533C77.117 8.32533 77.4064 8.46819 77.629 8.54173C77.629 8.68804 77.629 8.75966 77.7727 8.90559C78.2109 8.90559 78.2109 9.33685 78.4335 9.70225C78.6499 9.77425 78.8678 9.77425 79.0169 9.77425C79.4536 9.90869 79.8191 9.90869 79.9652 10.1067C80.5487 9.77425 81.1321 9.70186 81.7906 9.77425C81.8617 9.55479 82.01 9.2637 82.0858 8.90559C82.1561 9.11778 82.1561 8.90559 82.3022 8.90559C82.5703 8.68842 82.9042 8.32533 83.4096 8.46819C83.7017 8.68804 84.2118 8.54173 84.5039 8.90559C84.7234 9.19131 84.8694 9.62795 85.0881 9.97112C84.8694 10.3997 85.0882 10.9826 84.6507 11.2006L84.2118 11.6376C84.0657 11.6376 84.0657 11.7847 83.8478 11.7847C84.0657 12.2941 83.922 13.0157 83.7017 13.5025C83.8478 13.4416 84.0657 13.4416 84.0657 13.2344C84.1407 13.3071 84.0657 13.4416 84.0657 13.5025C84.0657 13.6411 84.0657 13.7139 84.0657 13.7139C84.0657 14.0781 83.8478 14.4431 83.5541 14.7335C83.4096 15.172 83.0441 15.7549 82.5703 15.8269V15.9721C83.6275 15.9721 84.5031 16.2643 85.5271 16.768L85.5263 17.2486ZM88.4955 21.805L88.1284 21.9478C87.3239 21.9478 86.9591 21.7307 86.5951 21.4373C86.8857 21.4373 87.2551 21.0703 87.2551 21.0703C87.6152 21.4369 88.1284 21.7307 88.4955 21.805ZM86.4475 20.1649C86.0364 20.1649 85.5271 20.3813 85.3069 19.9443C85.456 19.8708 85.6005 19.6529 85.7466 19.5069L86.4475 20.1649ZM92.3742 26.9385C92.3742 27.3035 91.9384 27.7409 91.79 28.0308C91.9384 27.6688 91.9384 26.9385 91.79 26.9385C91.6431 26.8664 91.3533 26.9385 91.3533 26.791C91.3533 26.5719 91.426 26.2846 91.426 26.1376C91.426 25.8442 91.2057 25.6986 91.2057 25.5546C91.2057 25.1157 91.7189 25.0452 91.8649 24.7522C91.9384 25.0452 91.9384 25.334 91.9384 25.699C91.9384 25.8446 92.1586 26.2846 91.9384 26.647C91.9384 26.8661 92.3742 26.7205 92.3742 26.9385ZM90.6949 26.1376C90.6949 26.5719 90.4066 26.9385 90.334 27.3766C90.334 26.9381 90.259 26.5715 89.9731 26.2842C89.9731 26.1372 90.1825 26.1372 90.0434 25.9177C90.0434 25.9177 89.6385 25.6986 89.6385 25.4072C89.6385 25.1153 89.9059 24.8962 90.0434 24.6798C90.0434 24.6063 90.334 24.8242 90.334 25.2628C90.334 25.3336 90.334 25.5543 90.259 25.6986C90.1818 25.9181 90.6949 25.9181 90.6949 26.1376ZM84.7226 20.9984C84.3594 21.0699 84.0657 20.7084 83.701 20.5625C83.5533 20.1649 83.5533 19.7244 83.4088 19.5069C83.701 19.724 84.3594 19.724 84.211 20.3813C84.211 20.5625 84.5024 20.7084 84.7226 20.9984ZM86.7412 23.0394C86.4475 23.0394 85.963 23.0394 85.6739 22.8222C85.2334 22.6035 85.0874 22.4588 84.8687 22.2378C85.1608 22.0206 85.5263 22.0206 85.6739 21.9478C85.963 22.2378 86.2311 22.7487 86.7412 23.0394ZM74.5472 11.8582L74.0406 12.003L74.1108 11.638C74.2555 11.42 74.3284 11.201 74.5476 10.983L74.5472 11.8582ZM83.847 21.9478C83.5534 22.0206 83.0433 22.1681 82.9034 21.805C82.5015 21.1427 82.7033 20.5625 82.9034 20.0913C83.0433 20.5039 83.1159 20.9309 83.187 21.2921C83.2628 21.5813 83.701 21.7307 83.847 21.9478ZM81.7898 17.9772C81.7156 18.413 81.5734 19.0691 81.1314 19.3625C81.1314 19.0687 80.9876 18.9236 80.8416 18.7045C80.7674 18.7045 80.8415 18.924 80.7674 18.924C80.7674 19.0691 80.6244 19.3629 80.6244 19.6525C80.4752 19.724 80.1823 19.8704 79.8918 19.724V19.5069C79.8191 19.3629 79.8191 19.0691 79.8191 18.924L79.7449 18.8519C79.5262 18.924 79.5262 19.0691 79.5262 19.2159C79.4536 19.3629 79.3098 19.5073 79.3098 19.7244C79.0169 19.7244 78.8678 19.6529 78.6499 19.5073V18.8523C78.6499 18.7053 78.6499 18.7053 78.578 18.7053L78.2109 19.0699C77.9188 18.8527 77.8461 18.2675 77.8461 17.9047C79.0169 17.2498 80.476 17.4673 81.3555 17.8313C81.4992 17.9037 81.6437 17.9037 81.7898 17.9772ZM85.5263 23.8426C85.5263 23.8426 85.3803 23.8426 85.3069 23.8426C84.5024 24.1042 83.847 23.6246 83.1878 23.1865C83.5533 23.0394 84.0657 22.9674 84.5031 22.9674L84.7226 23.4059C84.9436 23.4795 85.3069 23.6959 85.5263 23.8426ZM74.6946 12.8663L74.3284 13.3079C74.401 14.0054 74.1108 14.5163 74.1108 15.1728L73.7443 14.0054C73.8172 13.7146 73.8905 13.4423 74.1108 13.09L74.6946 12.8663ZM82.1553 22.2378C81.7898 22.0206 81.1314 21.9478 81.2782 21.5077C81.4243 21.1427 81.6437 21.0699 81.7898 20.9313C81.8609 21.4369 81.9335 21.805 82.1553 22.2378ZM88.8579 29.6455H88.7853C88.6377 29.4249 88.565 29.2687 88.419 29.2687C88.6377 28.4694 88.201 27.8113 88.0565 27.1575V26.9385C88.276 27.3035 88.8587 27.6684 88.7853 28.0308C88.8579 28.6857 88.8579 29.2687 88.8579 29.6455ZM87.1794 26.9385C86.8123 26.9385 86.5217 26.9385 86.303 26.5719C86.2311 26.5719 86.1075 26.3555 86.0364 26.5011C85.6747 26.791 85.3076 26.2846 84.8687 26.3551C84.6507 26.5715 84.4336 26.7201 84.0657 26.791V26.7201C84.0657 26.5011 84.211 26.2842 84.5031 26.1376C84.9436 26.2846 85.3076 25.3336 85.7466 25.8442C85.963 25.9177 86.1678 25.9177 86.303 25.9177C86.8123 26.1376 86.9591 26.5719 87.1794 26.9385ZM80.5479 21.0699C80.5479 21.5813 80.4752 22.2378 79.9644 22.4588L79.8183 21.7307C80.0363 21.5813 80.255 21.4369 80.5479 21.0699ZM82.9706 24.2482C82.8346 24.3868 82.4351 24.5328 82.1553 24.5328C81.7156 24.1758 81.4242 23.7687 80.9876 23.1861L82.1553 23.4056C82.3686 23.55 82.772 24.0379 82.9706 24.2482ZM87.3239 28.3985C87.0341 28.1763 86.5951 28.1763 86.4475 27.8113C86.1678 27.7405 85.963 27.7405 85.6005 27.7405C85.3069 27.8113 84.9436 27.8113 84.65 27.8113C84.5742 27.8113 84.65 27.7405 84.5024 27.6684C84.065 27.8113 83.6268 27.8113 83.187 28.251L83.5533 27.3766C83.847 27.3766 84.0649 27.231 84.211 27.231C84.5024 27.1575 84.7226 27.1575 84.9429 27.1575V27.231C85.7466 27.231 86.6662 27.1575 87.2543 27.8113L87.3239 28.3985ZM79.0162 22.2378C78.5772 21.805 78.2101 21.4369 78.2101 20.9984C78.4327 20.9984 78.6491 20.9984 78.867 21.1423C78.867 21.5077 79.0162 21.805 79.0162 22.2378ZM77.6282 20.1649L77.4064 21.0699C77.1896 20.6348 76.9688 20.2358 76.8952 19.7244L77.6282 20.1649ZM88.0565 29.8623C87.9823 30.014 87.8332 30.4369 87.7629 30.7256C87.6153 30.2867 87.47 29.6459 86.9584 29.6459C86.8857 29.3545 86.8123 29.269 86.5217 29.0538L85.963 28.9791C86.0356 29.269 86.4475 29.269 86.167 29.6459C86.4468 29.8623 86.6662 29.8623 86.8123 30.2132C86.9584 30.4369 86.8123 30.7256 86.8849 30.87L86.4468 31.0891C86.4468 30.7256 86.521 30.0136 86.0356 29.8623C85.5998 30.014 85.5263 29.4249 85.2327 29.2687C85.0866 29.2687 85.0866 28.9067 84.8679 29.0534C84.5024 29.2687 84.0649 29.0534 83.7002 29.2687L84.0649 28.6861C84.3586 28.4697 84.6492 28.5402 84.9429 28.4697L85.5263 28.3989C86.1067 28.3989 86.5944 28.6861 87.1786 28.9068C87.47 29.0538 87.6152 29.2687 87.6152 29.575C87.7629 29.6455 88.0565 29.6455 88.0565 29.8623ZM82.3014 26.5011H82.1553C82.085 26.5011 81.5726 26.2846 81.4243 26.1376C81.3547 25.9181 81.3547 25.6986 81.3547 25.6986C81.5726 25.6986 81.7148 25.6986 81.9335 25.6986L82.3014 26.5011ZM76.679 21.2921C76.238 21.1427 75.7432 20.7084 75.5437 20.3817C75.4097 20.0917 75.3425 19.7244 75.3425 19.5073C75.6097 19.5073 75.807 19.7244 75.8738 19.8712V19.9447C76.238 20.3813 76.6046 20.7084 76.679 21.2921ZM80.1816 23.8426C80.112 24.2485 79.891 24.3872 79.5255 24.8966C79.3091 25.0452 78.867 25.1157 78.4327 25.334C78.503 25.1161 78.7186 25.0452 78.867 24.8246C79.0162 24.6067 79.3083 24.2485 79.3794 24.0379C79.7449 23.8426 79.8918 23.8426 80.1816 23.8426ZM85.5263 30.87L85.3069 31.0891C85.0874 30.87 85.2334 30.2867 84.8687 30.2132C84.5024 30.2132 84.211 29.8623 84.0649 29.7903L84.3586 29.6459C84.3586 29.6459 84.5024 29.575 84.65 29.6459C84.7953 29.7903 84.9436 29.8623 84.9436 30.014C85.0874 30.2136 85.3069 30.014 85.456 30.2136C85.5263 30.4369 85.6005 30.7256 85.5263 30.87ZM78.867 23.2585C78.6499 23.6959 78.4335 24.1038 77.993 24.2482C77.7727 24.2482 77.4072 24.3868 76.9692 24.2482C77.1896 24.1038 77.4072 24.0376 77.7032 23.8422L78.2835 23.2585H78.867ZM80.3284 26.5719C80.0363 26.791 79.8183 26.791 79.4528 26.7205L79.0162 26.1379C79.3794 26.1379 79.8184 26.1379 80.112 26.1379L80.3284 26.5719ZM75.0605 21.0699C74.6946 21.4369 74.3284 21.5813 74.1822 22.0206C74.1822 21.805 74.1104 21.5813 74.0406 21.4369C74.1108 21.1423 74.3284 20.9984 74.401 20.931C74.6217 20.9984 74.7649 20.9984 75.0605 21.0699ZM75.8738 22.1677C75.8738 22.4584 75.7432 22.8218 75.4101 23.1865C75.3425 23.2585 75.1333 23.4059 75.1333 23.4059C75.1333 22.9674 75.3425 22.6035 75.3425 22.2378C75.5437 22.1677 75.7432 22.0206 75.8738 22.1677ZM76.8952 23.0394L76.6046 24.1038C76.238 24.3868 75.7432 24.2482 75.3425 24.2482C75.8738 24.1038 76.3125 23.4791 76.6046 23.0394C76.679 22.9674 76.752 23.0394 76.8952 23.0394ZM77.2625 26.7205C77.2625 26.9385 77.1896 27.8117 77.1896 27.8117C77.0437 27.3038 76.6794 26.7913 76.238 26.7913C76.0219 26.5723 75.807 26.3555 75.7432 26.1379C75.5437 25.9185 75.3425 26.1379 75.0605 25.9185C74.7649 25.9185 74.401 25.9185 74.1104 26.1379V25.9185L74.6217 25.3344C75.1333 25.4079 75.7432 25.3344 75.8738 25.6994C76.238 25.9185 76.6046 26.1383 76.6794 26.285C76.6794 26.3559 76.6794 26.3559 76.6794 26.5014C76.8226 26.5719 77.1166 26.6466 77.2625 26.7205ZM76.8952 28.9787L76.3858 29.4249C76.2381 29.2687 76.3858 28.9064 76.1682 28.6857C76.1682 28.5398 76.3129 28.4693 76.2384 28.3985C76.1682 28.251 75.3429 27.9596 75.3429 27.9596C75.0608 27.7405 74.695 27.5183 74.4014 27.231C74.1108 27.1575 73.8905 27.3031 73.5251 27.3766C73.5251 27.3035 73.5251 27.231 73.5251 27.231C73.6713 26.9381 73.6713 26.5715 74.1108 26.5715C74.3284 26.5715 74.6221 26.5715 74.7652 26.7906C75.0608 26.7906 75.2067 27.0836 75.4105 27.1572C75.7436 27.5179 76.0223 27.6681 76.2384 27.811C76.2384 28.03 76.3129 28.1759 76.4575 28.2507C76.8952 28.2514 76.752 28.6857 76.8952 28.9787ZM75.807 30.0136L75.6097 30.7252L75.1333 29.4245C74.5472 28.906 73.8901 28.8324 73.5247 28.5394C73.2334 28.4686 73.2334 28.6854 73.0872 28.5394C73.0872 28.3981 73.0872 28.1759 73.3079 27.9592H73.7439L74.1822 28.1756C74.401 28.3977 74.913 28.3977 74.913 28.832C74.913 28.9056 74.8378 28.9779 75.0605 29.2679L75.7432 29.4242L75.807 30.0136ZM73.8168 30.7256C73.8168 31.3071 72.868 32.1079 72.868 32.1079C72.868 31.7456 73.0868 31.3067 73.0868 30.87C73.0868 30.87 72.7931 30.5766 72.5007 30.5766C72.2837 30.7256 72.2837 30.87 72.2109 31.0891C71.9909 31.5265 71.5526 31.9635 71.4812 32.4009C71.4082 32.4009 71.4082 32.3289 71.4082 32.3289C71.4082 31.6004 71.4812 30.3606 71.918 29.8627C72.2837 29.4253 72.5774 29.4253 73.013 29.3549L73.3796 29.4257L73.0872 29.8631C73.3796 30.0136 73.8168 30.2867 73.8168 30.7256ZM71.2585 30.2867C71.2585 30.5766 71.1867 30.8697 71.0444 31.0891C70.9695 30.7988 70.763 30.4369 70.4114 30.4369C70.1228 31.0156 70.0479 31.235 70.3385 32.1079C70.1228 32.3285 69.9735 32.4009 69.6841 32.5464C69.5352 32.255 69.5352 31.7456 69.5352 31.4541C69.5352 30.9432 69.6096 30.4369 69.7555 30.0136C69.9731 29.79 70.1228 29.4249 70.3385 29.2687H71.1142C70.7634 29.2687 70.7634 29.575 70.7634 29.79C70.9695 29.8623 71.2585 29.9374 71.2585 30.2867ZM69.392 31.0891C69.3175 31.0891 69.0976 30.87 68.8799 30.87C68.6722 31.307 68.8799 31.6 68.8799 32.1079C68.8799 32.3285 68.8058 32.5464 68.8058 32.5464C68.6722 32.5464 68.4101 32.255 68.3441 31.9639V30.7992L68.9548 30.014C69.392 30.2867 69.5352 30.7256 69.392 31.0891ZM84.3586 10.983C84.5024 10.618 84.5024 9.9715 84.211 9.62832C84.0649 9.33762 83.701 9.19169 83.337 8.90597L82.8346 9.1917C82.5696 9.33724 82.4351 9.62832 82.4351 9.9715C82.9034 10.1822 83.4088 10.7651 83.6268 11.201H83.847C84.0657 10.983 84.211 11.201 84.3586 10.983ZM81.9335 11.42C81.9335 11.201 81.8609 11.201 81.7898 11.201C81.4243 11.201 81.4243 10.618 81.1314 10.7651C80.9876 10.7651 80.8416 10.618 80.6244 10.7651C80.6244 10.8371 80.6244 10.8371 80.7674 10.8371C81.1314 10.8371 80.9876 11.3457 81.2782 11.42C81.4243 11.42 81.7156 11.42 81.9335 11.42ZM83.0433 12.2945C83.0433 12.2945 83.1878 12.2945 83.0433 12.2224L81.4992 12.003C81.3555 12.2224 80.9876 12.2224 80.9876 12.4373H80.8416C80.9876 13.016 80.9876 13.6415 80.9876 14.2964C81.279 14.37 81.5734 14.5155 81.5734 14.9522C81.8609 15.0992 82.1553 15.1724 82.4351 15.3888C82.5696 15.3179 82.6352 15.0996 82.7033 14.8809C82.4351 14.5159 81.7898 14.7338 81.7898 14.0785L81.3547 13.9314C81.3547 13.5025 81.3547 13.0896 81.2782 12.7908L81.3547 12.7361C81.3547 12.7908 81.4243 12.8655 81.5726 13.0153C81.8609 13.0153 82.1553 13.0888 82.4351 12.8651C82.5696 12.7905 82.5696 12.4366 82.7025 12.4366C82.8354 12.4377 82.9706 12.4377 83.0433 12.2945ZM79.4528 10.7651C79.3091 10.618 78.867 10.8371 78.6491 10.9106C78.3585 10.9826 78.1406 11.201 78.1406 11.42H78.9412C79.0162 11.201 79.3091 10.9106 79.4528 10.7651ZM77.8454 9.9715C77.7727 9.26409 76.9692 9.19169 76.605 8.90597H76.3129C75.7436 9.11815 75.6101 9.70263 75.5441 10.1822C75.7436 10.8371 76.1682 10.4001 76.4575 10.8371C76.752 10.618 77.4814 10.1071 77.8454 9.9715ZM82.1553 16.6244V16.2651H81.4243L81.3547 16.3387L82.1553 16.6244ZM78.867 12.4377C78.867 12.2948 78.7186 12.1493 78.5038 12.0034C77.9188 12.0034 77.4072 12.0034 76.8955 12.0034H76.7524C76.7524 12.2948 76.9692 12.4377 77.1899 12.4377C77.1899 12.7368 77.4072 12.7916 77.4821 12.8663C77.7032 13.0164 77.7727 13.0164 77.993 12.8663C78.2109 13.0164 78.2843 12.7368 78.3593 12.8663C78.3593 13.3079 78.3593 13.5032 78.2843 13.859C78.2117 14.3704 77.7727 14.2972 77.4072 14.5163C77.4072 14.7342 77.1903 15.1 77.4072 15.3187C77.629 15.1732 77.7727 15.1 78.1413 14.9529C78.1413 14.7346 78.3593 14.5163 78.6499 14.3708C78.6491 13.7146 78.867 13.09 78.867 12.4377ZM78.2835 16.2651C78.1406 15.9729 77.7719 16.2651 77.4064 16.1192C77.4064 16.2651 77.4064 16.4114 77.6282 16.5566C77.8454 16.3387 78.2109 16.2651 78.2835 16.2651Z" fill="#6D697D" style="fill:#6D697D;fill:color(display-p3 0.4275 0.4118 0.4902);fill-opacity:1;"/>
</svg>
