<svg width="145" height="40" viewBox="0 0 145 40" fill="none" xmlns="http://www.w3.org/2000/svg">
<path fill-rule="evenodd" clip-rule="evenodd" d="M41.6605 19.3348H44.8404V5.53442H41.6605V19.3348Z" fill="#6D697D" style="fill:#6D697D;fill:color(display-p3 0.4275 0.4118 0.4902);fill-opacity:1;"/>
<path fill-rule="evenodd" clip-rule="evenodd" d="M57.5598 8.57026H53.8906V19.3347H50.6288V8.57026H46.96V5.53432H57.5598V8.57026Z" fill="#6D697D" style="fill:#6D697D;fill:color(display-p3 0.4275 0.4118 0.4902);fill-opacity:1;"/>
<path fill-rule="evenodd" clip-rule="evenodd" d="M62.6791 14.4629V5.21062H65.7835V14.1896C65.7835 15.224 66.2687 16.1027 67.9178 16.1027C69.5674 16.1027 70.0526 15.224 70.0526 14.1896V5.21062H73.1569V14.4629C73.1569 17.3909 70.9061 19.1475 67.9178 19.1475C64.93 19.1475 62.6791 17.3909 62.6791 14.4629Z" fill="#6D697D" style="fill:#6D697D;fill:color(display-p3 0.4275 0.4118 0.4902);fill-opacity:1;"/>
<path fill-rule="evenodd" clip-rule="evenodd" d="M81.3052 18.8744L78.2009 14.5603V18.8744H75.2904V5.21048H78.2009V13.3894L81.1113 9.11466H84.507L80.9753 13.9943L84.6039 18.8744H81.3052Z" fill="#6D697D" style="fill:#6D697D;fill:color(display-p3 0.4275 0.4118 0.4902);fill-opacity:1;"/>
<path fill-rule="evenodd" clip-rule="evenodd" d="M91.4898 8.91925V12.2374C90.2867 12.0423 88.5793 12.5304 88.5793 14.4628V18.8744H85.6689V9.11435H88.5793V10.8517C88.9676 9.54386 90.2676 8.91925 91.4898 8.91925Z" fill="#6D697D" style="fill:#6D697D;fill:color(display-p3 0.4275 0.4118 0.4902);fill-opacity:1;"/>
<path fill-rule="evenodd" clip-rule="evenodd" d="M99.6003 13.9941C99.6003 12.5305 98.6299 11.6129 97.2912 11.6129C95.9525 11.6129 94.9825 12.5305 94.9825 13.9941C94.9825 15.4581 95.9525 16.3757 97.2912 16.3757C98.6299 16.3757 99.6003 15.4581 99.6003 13.9941ZM102.511 9.11447V18.8742H99.6003V17.9569C98.9599 18.6987 98.0094 19.1475 96.7091 19.1475C94.1673 19.1475 92.0717 16.9028 92.0717 13.9941C92.0717 11.0859 94.1673 8.84074 96.7091 8.84074C98.0094 8.84074 98.9599 9.28991 99.6003 10.0317V9.11447H102.511Z" fill="#6D697D" style="fill:#6D697D;fill:color(display-p3 0.4275 0.4118 0.4902);fill-opacity:1;"/>
<path fill-rule="evenodd" clip-rule="evenodd" d="M104.645 18.8741H107.555V9.11434H104.645V18.8741ZM104.353 6.49869C104.353 5.54249 105.149 4.7417 106.1 4.7417C107.051 4.7417 107.846 5.54249 107.846 6.49869C107.846 7.45527 107.051 8.25532 106.1 8.25532C105.149 8.25532 104.353 7.45527 104.353 6.49869Z" fill="#6D697D" style="fill:#6D697D;fill:color(display-p3 0.4275 0.4118 0.4902);fill-opacity:1;"/>
<path fill-rule="evenodd" clip-rule="evenodd" d="M119.002 12.8819V18.8743H116.092V13.311C116.092 12.1011 115.335 11.5347 114.404 11.5347C113.337 11.5347 112.599 12.1597 112.599 13.5454V18.8743H109.689V9.11455H112.599V10.0318C113.123 9.30964 114.093 8.84082 115.374 8.84082C117.333 8.84082 119.002 10.2466 119.002 12.8819Z" fill="#6D697D" style="fill:#6D697D;fill:color(display-p3 0.4275 0.4118 0.4902);fill-opacity:1;"/>
<path fill-rule="evenodd" clip-rule="evenodd" d="M127.713 12.9793C127.403 11.8469 126.53 11.4374 125.656 11.4374C124.551 11.4374 123.813 11.9838 123.541 12.9793H127.713ZM125.928 16.5319C126.724 16.5319 127.403 16.2196 127.791 15.79L130.119 17.1372C129.168 18.4643 127.733 19.1475 125.889 19.1475C122.571 19.1475 120.514 16.9028 120.514 13.9941C120.514 11.0862 122.61 8.84108 125.676 8.84108C128.509 8.84108 130.604 11.0469 130.604 13.9941C130.604 14.4043 130.565 14.7949 130.488 15.1658H123.6C123.968 16.1806 124.861 16.5319 125.928 16.5319Z" fill="#6D697D" style="fill:#6D697D;fill:color(display-p3 0.4275 0.4118 0.4902);fill-opacity:1;"/>
<path fill-rule="evenodd" clip-rule="evenodd" d="M49.0412 29.9095L47.4503 24.8933L45.8591 29.9095H49.0412ZM49.9725 32.8378H44.9278L44.2486 34.985H40.853L45.4708 21.3211H49.4291L54.0473 34.985H50.6517L49.9725 32.8378Z" fill="#6D697D" style="fill:#6D697D;fill:color(display-p3 0.4275 0.4118 0.4902);fill-opacity:1;"/>
<path fill-rule="evenodd" clip-rule="evenodd" d="M62.5449 32.0567C62.5449 34.3018 60.6045 35.258 58.5092 35.258C56.5688 35.258 55.0941 34.5166 54.3375 32.935L56.8597 31.4911C57.1119 32.2325 57.6553 32.6424 58.5092 32.6424C59.2075 32.6424 59.5571 32.4276 59.5571 32.0374C59.5571 30.964 54.7836 31.5297 54.7836 28.1529C54.7836 26.025 56.5688 24.9516 58.5867 24.9516C60.1584 24.9516 61.5554 25.6541 62.3702 27.0406L59.8867 28.387C59.6149 27.8796 59.2271 27.5283 58.5867 27.5283C58.0823 27.5283 57.7719 27.7234 57.7719 28.075C57.7719 29.1874 62.5449 28.4459 62.5449 32.0567Z" fill="#6D697D" style="fill:#6D697D;fill:color(display-p3 0.4275 0.4118 0.4902);fill-opacity:1;"/>
<path fill-rule="evenodd" clip-rule="evenodd" d="M71.0416 32.0567C71.0416 34.3018 69.1011 35.258 67.0059 35.258C65.0655 35.258 63.5907 34.5166 62.8342 32.935L65.3564 31.4911C65.6085 32.2325 66.152 32.6424 67.0059 32.6424C67.7042 32.6424 68.0537 32.4276 68.0537 32.0374C68.0537 30.964 63.2803 31.5297 63.2803 28.1529C63.2803 26.025 65.0655 24.9516 67.0833 24.9516C68.655 24.9516 70.052 25.6541 70.8668 27.0406L68.3833 28.387C68.1116 27.8796 67.7234 27.5283 67.0833 27.5283C66.5789 27.5283 66.2685 27.7234 66.2685 28.075C66.2685 29.1874 71.0416 28.4459 71.0416 32.0567Z" fill="#6D697D" style="fill:#6D697D;fill:color(display-p3 0.4275 0.4118 0.4902);fill-opacity:1;"/>
<path fill-rule="evenodd" clip-rule="evenodd" d="M79.2869 30.1048C79.2869 28.7191 78.3169 27.8014 77.0556 27.8014C75.7944 27.8014 74.8243 28.7191 74.8243 30.1048C74.8243 31.4909 75.7944 32.4081 77.0556 32.4081C78.3169 32.4081 79.2869 31.4909 79.2869 30.1048ZM71.9135 30.1048C71.9135 27.1965 74.2035 24.9514 77.0556 24.9514C79.9078 24.9514 82.1974 27.1965 82.1974 30.1048C82.1974 33.0134 79.9078 35.2582 77.0556 35.2582C74.2035 35.2582 71.9135 33.0134 71.9135 30.1048Z" fill="#6D697D" style="fill:#6D697D;fill:color(display-p3 0.4275 0.4118 0.4902);fill-opacity:1;"/>
<path fill-rule="evenodd" clip-rule="evenodd" d="M83.3611 30.1048C83.3611 27.1966 85.5537 24.9514 88.5028 24.9514C90.385 24.9514 92.0537 25.9473 92.888 27.4503L90.3463 28.9339C90.0163 28.2507 89.318 27.8408 88.4641 27.8408C87.2028 27.8408 86.2719 28.7581 86.2719 30.1048C86.2719 31.452 87.2028 32.3692 88.4641 32.3692C89.318 32.3692 90.0358 31.9594 90.3463 31.2762L92.888 32.7402C92.0537 34.2627 90.4045 35.2583 88.5028 35.2583C85.5537 35.2583 83.3611 33.0135 83.3611 30.1048Z" fill="#6D697D" style="fill:#6D697D;fill:color(display-p3 0.4275 0.4118 0.4902);fill-opacity:1;"/>
<path fill-rule="evenodd" clip-rule="evenodd" d="M94.0505 34.9849H96.961V25.2252H94.0505V34.9849ZM93.7592 22.6091C93.7592 21.6529 94.5549 20.8525 95.5057 20.8525C96.4566 20.8525 97.2522 21.6529 97.2522 22.6091C97.2522 23.5657 96.4566 24.3661 95.5057 24.3661C94.5549 24.3661 93.7592 23.5657 93.7592 22.6091Z" fill="#6D697D" style="fill:#6D697D;fill:color(display-p3 0.4275 0.4118 0.4902);fill-opacity:1;"/>
<path fill-rule="evenodd" clip-rule="evenodd" d="M106.139 30.1048C106.139 28.6412 105.168 27.7235 103.829 27.7235C102.491 27.7235 101.521 28.6412 101.521 30.1048C101.521 31.5688 102.491 32.4864 103.829 32.4864C105.168 32.4864 106.139 31.5688 106.139 30.1048ZM109.049 25.2251V34.9848H106.139V34.0676C105.498 34.8094 104.548 35.2582 103.247 35.2582C100.706 35.2582 98.6099 33.0134 98.6099 30.1048C98.6099 27.1965 100.706 24.9514 103.247 24.9514C104.548 24.9514 105.498 25.4005 106.139 26.1424V25.2251H109.049Z" fill="#6D697D" style="fill:#6D697D;fill:color(display-p3 0.4275 0.4118 0.4902);fill-opacity:1;"/>
<path fill-rule="evenodd" clip-rule="evenodd" d="M114.869 28.0359V31.4909C114.869 32.3303 115.587 32.4082 116.868 32.3303V34.9849C113.065 35.3754 111.959 34.2238 111.959 31.4909V28.0359H110.407V25.2251H111.959V23.3706L114.869 22.4923V25.2251H116.868V28.0359H114.869Z" fill="#6D697D" style="fill:#6D697D;fill:color(display-p3 0.4275 0.4118 0.4902);fill-opacity:1;"/>
<path fill-rule="evenodd" clip-rule="evenodd" d="M118.515 34.9849H121.426V25.2252H118.515V34.9849ZM118.225 22.6091C118.225 21.6529 119.02 20.8525 119.971 20.8525C120.922 20.8525 121.717 21.6529 121.717 22.6091C121.717 23.5657 120.922 24.3661 119.971 24.3661C119.02 24.3661 118.225 23.5657 118.225 22.6091Z" fill="#6D697D" style="fill:#6D697D;fill:color(display-p3 0.4275 0.4118 0.4902);fill-opacity:1;"/>
<path fill-rule="evenodd" clip-rule="evenodd" d="M130.449 30.1048C130.449 28.7191 129.479 27.8014 128.217 27.8014C126.956 27.8014 125.986 28.7191 125.986 30.1048C125.986 31.4909 126.956 32.4081 128.217 32.4081C129.479 32.4081 130.449 31.4909 130.449 30.1048ZM123.075 30.1048C123.075 27.1965 125.365 24.9514 128.217 24.9514C131.07 24.9514 133.359 27.1965 133.359 30.1048C133.359 33.0134 131.07 35.2582 128.217 35.2582C125.365 35.2582 123.075 33.0134 123.075 30.1048Z" fill="#6D697D" style="fill:#6D697D;fill:color(display-p3 0.4275 0.4118 0.4902);fill-opacity:1;"/>
<path fill-rule="evenodd" clip-rule="evenodd" d="M144.321 28.9924V34.9848H141.411V29.4216C141.411 28.2117 140.654 27.6453 139.722 27.6453C138.655 27.6453 137.918 28.2703 137.918 29.656V34.9848H135.008V25.2251H137.918V26.1424C138.442 25.4202 139.412 24.9514 140.693 24.9514C142.652 24.9514 144.321 26.3571 144.321 28.9924Z" fill="#6D697D" style="fill:#6D697D;fill:color(display-p3 0.4275 0.4118 0.4902);fill-opacity:1;"/>
<path fill-rule="evenodd" clip-rule="evenodd" d="M26.657 31.5522H23.3609C18.7382 31.5522 14.9776 27.7686 14.9776 23.1182V19.8026H20.7664V23.1182C20.7664 24.5573 21.9304 25.7286 23.3609 25.7286H26.657V31.5522ZM14.985 8.2017H20.783V14.035H26.581V19.8675H20.783V14.035H14.985V8.2017ZM0.321045 34.656H29.2828V5.52004H0.321045V34.656Z" fill="#6D697D" style="fill:#6D697D;fill:color(display-p3 0.4275 0.4118 0.4902);fill-opacity:1;"/>
</svg>
