<svg width="166" height="40" viewBox="0 0 166 40" fill="none" xmlns="http://www.w3.org/2000/svg">
<path d="M85.6976 21.8988V21.894H81.5827V27.0856C81.5827 27.5807 81.6116 27.9845 81.6695 28.2969C81.7273 28.6094 81.8333 28.8545 81.9875 29.0276C82.1417 29.2054 82.3633 29.316 82.6524 29.3737C82.9367 29.4314 83.3077 29.4602 83.751 29.4602H86.059L85.5386 32.0992H83.5293C82.4934 32.0992 81.6357 32.0271 80.966 31.8781C80.301 31.7291 79.7758 31.4695 79.3807 31.0994C78.9953 30.7293 78.7254 30.2293 78.5809 29.6044C78.4412 28.9795 78.3592 28.2008 78.3592 27.2586V16.265L81.5827 15.7459V19.2598H86.2132L85.6976 21.8988ZM93.4648 29.5612C92.8914 29.5612 92.4048 29.5275 92.0145 29.4458C91.6242 29.3737 91.3206 29.2247 91.099 28.9987C90.8774 28.7776 90.7232 28.4555 90.6316 28.0229C90.5401 27.5999 90.4967 27.0327 90.4967 26.3453V25.0089C90.4967 24.3167 90.5401 23.7543 90.6268 23.3313C90.7135 22.8987 90.8629 22.5718 91.0894 22.3555C91.311 22.1344 91.6146 21.9853 91.9904 21.9084C92.3662 21.8363 92.8625 21.7931 93.4744 21.7931C93.7732 21.7931 94.1779 21.7979 94.7031 21.8075C95.2235 21.8123 95.8306 21.8363 96.5293 21.87L97.0497 19.279C95.5319 19.2309 94.3177 19.2021 93.407 19.2021C92.2699 19.2021 91.3062 19.3078 90.5256 19.5145C89.7354 19.7212 89.1042 20.0529 88.6175 20.5144C88.1261 20.9759 87.7791 21.5767 87.5671 22.3218C87.3551 23.0669 87.2491 23.9658 87.2491 25.0137V26.3501C87.2491 27.4172 87.3503 28.3258 87.5623 29.0564C87.7695 29.7871 88.1164 30.388 88.6079 30.8494C89.0994 31.3109 89.7306 31.6426 90.516 31.8493C91.2965 32.056 92.2699 32.1617 93.4263 32.1617C93.8214 32.1617 94.3225 32.1569 94.9103 32.1473C95.5078 32.1425 96.0667 32.1281 96.5919 32.1137L97.1123 29.5227C96.5823 29.5371 95.9896 29.5515 95.3295 29.5564C94.6357 29.5564 94.0286 29.5612 93.4648 29.5612ZM155.149 21.7402C155.328 22.3218 155.419 22.9563 155.419 23.6534V24.062C155.419 24.6196 155.386 25.081 155.318 25.4368C155.255 25.7925 155.14 26.0665 154.986 26.2636C154.831 26.4606 154.629 26.5952 154.383 26.6577C154.133 26.7202 153.829 26.7587 153.468 26.7587H147.031C147.031 27.3547 147.064 27.8403 147.132 28.2152C147.204 28.5998 147.339 28.893 147.541 29.1093C147.748 29.3208 148.033 29.4698 148.394 29.5564C148.756 29.6333 149.233 29.6765 149.83 29.6765H151.81C152.548 29.6765 153.473 29.6621 154.557 29.6285L154.061 32.0992C153.598 32.1137 153.188 32.1281 152.827 32.1329C152.466 32.1377 152.119 32.1473 151.777 32.1473H149.681C148.51 32.1473 147.546 32.0127 146.785 31.7483C146.024 31.4791 145.431 31.1042 144.988 30.6091C144.554 30.1188 144.241 29.5131 144.072 28.7968C143.894 28.0806 143.812 27.2586 143.812 26.3405V24.9609C143.812 23.9706 143.899 23.1006 144.082 22.3411C144.26 21.5816 144.578 20.947 145.031 20.4279C145.484 19.9039 146.096 19.5145 146.862 19.2502C147.628 18.9858 148.601 18.856 149.772 18.856C150.856 18.856 151.767 18.9762 152.485 19.2165C153.203 19.4569 153.776 19.7885 154.215 20.2164C154.644 20.649 154.957 21.1585 155.149 21.7402ZM152.345 23.8553C152.345 23.3746 152.302 22.9708 152.215 22.6439C152.138 22.3122 151.993 22.0478 151.796 21.8507C151.598 21.6537 151.329 21.5094 150.982 21.4181C150.635 21.3268 150.201 21.2835 149.69 21.2835C149.131 21.2835 148.674 21.3268 148.327 21.4181C147.98 21.5094 147.71 21.6729 147.512 21.9132C147.315 22.1536 147.18 22.4708 147.117 22.8746C147.055 23.2784 147.016 23.7976 147.016 24.4177H152.345V23.8553ZM60.1121 26.7154L51.6655 14.5057H48.8179V32.1041H52.1136V19.9952L60.512 32.1041H63.3886V14.5057H60.1169V26.7154H60.1121ZM76.3789 21.7402C76.5572 22.3218 76.6487 22.9563 76.6487 23.6534V24.062C76.6487 24.6196 76.615 25.081 76.5475 25.4368C76.4849 25.7925 76.3693 26.0665 76.2151 26.2636C76.0512 26.4606 75.8537 26.5952 75.6031 26.6577C75.3526 26.7202 75.049 26.7587 74.6876 26.7587H68.2503C68.2503 27.3547 68.284 27.8403 68.3515 28.2152C68.4238 28.5998 68.5587 28.893 68.7611 29.1093C68.9683 29.3208 69.2525 29.4698 69.6139 29.5564C69.9753 29.6333 70.4523 29.6765 71.0498 29.6765H73.0301C73.7673 29.6765 74.6828 29.6621 75.7766 29.6285L75.2803 32.0992C74.8177 32.1137 74.4082 32.1281 74.0468 32.1329C73.6854 32.1377 73.3385 32.1473 72.9964 32.1473H70.9004C69.7296 32.1473 68.7659 32.0127 68.0046 31.7483C67.2433 31.4791 66.6506 31.1042 66.2073 30.6091C65.7737 30.1188 65.4605 29.5131 65.2918 28.7968C65.1136 28.0806 65.0268 27.2586 65.0268 26.3405V24.9609C65.0268 23.9706 65.1136 23.1006 65.2967 22.3411C65.4749 21.5816 65.793 20.947 66.2459 20.4279C66.6988 19.9039 67.3107 19.5145 68.0769 19.2502C68.843 18.9858 69.8163 18.856 70.9871 18.856C72.0713 18.856 72.982 18.9762 73.6999 19.2165C74.4178 19.4569 74.9912 19.7885 75.4297 20.2164C75.8778 20.649 76.1813 21.1585 76.3789 21.7402ZM73.5698 23.8553C73.5698 23.3746 73.5361 22.9708 73.4493 22.6439C73.3722 22.3122 73.2277 22.0478 73.0301 21.8507C72.8326 21.6537 72.5628 21.5094 72.2158 21.4181C71.8689 21.3268 71.4353 21.2835 70.9245 21.2835C70.3656 21.2835 69.9078 21.3268 69.5609 21.4181C69.214 21.5094 68.9442 21.6729 68.7466 21.9132C68.5491 22.1536 68.4141 22.4708 68.3515 22.8746C68.2889 23.2784 68.2503 23.7976 68.2503 24.4177H73.5746V23.8553H73.5698ZM126.273 29.5612C125.7 29.5612 125.218 29.5275 124.823 29.4458C124.432 29.3737 124.129 29.2247 123.907 28.9987C123.686 28.7776 123.531 28.4555 123.44 28.0229C123.348 27.5999 123.305 27.0327 123.305 26.3453V25.0089C123.305 24.3167 123.348 23.7543 123.435 23.3313C123.522 22.8987 123.671 22.5718 123.898 22.3555C124.119 22.1344 124.423 21.9853 124.799 21.9084C125.174 21.8363 125.671 21.7931 126.283 21.7931C126.581 21.7931 126.986 21.7979 127.511 21.8075C128.032 21.8123 128.639 21.8363 129.328 21.87L129.848 19.279C128.33 19.2309 127.116 19.2021 126.206 19.2021C125.068 19.2021 124.105 19.3078 123.324 19.5145C122.534 19.7212 121.903 20.0529 121.416 20.5144C120.925 20.9759 120.578 21.5767 120.366 22.3218C120.154 23.0669 120.048 23.9658 120.048 25.0137V26.3501C120.048 27.4172 120.149 28.3258 120.361 29.0564C120.568 29.7871 120.915 30.388 121.406 30.8494C121.898 31.3109 122.529 31.6426 123.315 31.8493C124.095 32.056 125.068 32.1617 126.225 32.1617C126.62 32.1617 127.121 32.1569 127.709 32.1473C128.306 32.1425 128.865 32.1281 129.391 32.1137L129.911 29.5227C129.386 29.5371 128.788 29.5515 128.128 29.5564C127.444 29.5564 126.832 29.5612 126.273 29.5612ZM143.691 19.2502H139.803L134.927 24.1148V14.9383H131.703V32.1041H134.927V26.1722L140.251 32.1089H144.26L137.774 24.9897L143.691 19.2502ZM103.858 19.2021C103.034 19.2021 102.297 19.279 101.651 19.4376C101.006 19.5915 100.466 19.8462 100.018 20.1971C99.5697 20.5432 99.2372 20.9951 99.0011 21.5719C98.765 22.1392 98.6542 22.841 98.6542 23.663V32.1089H101.878V24.1773C101.878 23.7783 101.897 23.4419 101.94 23.1486C101.984 22.8602 102.08 22.6199 102.254 22.4324C102.417 22.2401 102.649 22.1007 102.947 21.9998C103.246 21.8988 103.656 21.8507 104.19 21.8507C104.455 21.8507 104.788 21.8555 105.183 21.8652C105.578 21.87 105.944 21.8844 106.277 21.8988L106.797 19.2309C106.364 19.2165 105.93 19.2021 105.482 19.2021H103.858ZM164.001 19.2021H162.391C161.568 19.2021 160.83 19.279 160.185 19.4376C159.539 19.5915 158.999 19.8462 158.551 20.1971C158.103 20.5432 157.771 20.9951 157.535 21.5719C157.298 22.1392 157.188 22.841 157.188 23.663V32.1089H160.411V24.1773C160.411 23.7783 160.43 23.4419 160.474 23.1486C160.517 22.8602 160.614 22.6199 160.787 22.4324C160.951 22.2401 161.182 22.1007 161.481 21.9998C161.78 21.8988 162.189 21.8507 162.724 21.8507C162.989 21.8507 163.321 21.8555 163.717 21.8652C164.112 21.87 164.478 21.8844 164.801 21.8988L165.321 19.2309C164.883 19.2165 164.449 19.2021 164.001 19.2021ZM118.352 23.6005V29.7775C118.352 30.6475 118.154 31.2484 117.754 31.5897C117.359 31.931 116.67 32.0992 115.697 32.0992H111.659C109.891 32.0992 108.633 31.7676 107.905 31.109C107.173 30.4504 106.807 29.5083 106.807 28.2681V27.7249C106.807 26.3501 107.212 25.3598 108.021 24.7446C108.831 24.1293 110.093 23.8168 111.813 23.8168C112.671 23.8168 113.389 23.8889 113.957 24.0283C114.531 24.1677 114.96 24.3263 115.234 24.509V24.062C115.234 23.6149 115.191 23.2496 115.099 22.9515C115.008 22.6535 114.849 22.4228 114.637 22.2497C114.425 22.0719 114.126 21.9517 113.755 21.8892C113.384 21.8267 112.917 21.7883 112.358 21.7883H111.312C110.936 21.7883 110.551 21.7931 110.16 21.8027C109.775 21.8171 109.385 21.8219 109.009 21.8315C108.623 21.8363 108.276 21.8459 107.963 21.8459L108.484 19.255C108.946 19.2405 109.52 19.2261 110.213 19.2213C110.907 19.2165 111.669 19.2069 112.493 19.2069C114.507 19.2069 115.986 19.5626 116.93 20.2692C117.87 20.9711 118.347 22.0911 118.352 23.6005ZM115.215 29.7823V27.7778C115.215 27.4797 115.186 27.225 115.128 27.0183C115.07 26.8116 114.96 26.6481 114.772 26.5135C114.593 26.3837 114.333 26.2876 114.005 26.2299C113.673 26.1722 113.239 26.1434 112.69 26.1434H112.319C111.375 26.1434 110.734 26.2588 110.411 26.4895C110.079 26.725 109.915 27.1432 109.915 27.7489V28.2152C109.915 28.744 110.069 29.1381 110.377 29.3929C110.681 29.6477 111.249 29.7775 112.073 29.7775H115.215V29.7823Z" fill="#6D697D" style="fill:#6D697D;fill:color(display-p3 0.4275 0.4118 0.4902);fill-opacity:1;"/>
<path d="M15.5423 16.1496L8.63272 33.1952H5.06713L12.473 14.9239C13.3884 12.6742 15.5519 11.2129 17.99 11.2129C20.4329 11.2129 22.5915 12.6694 23.507 14.9239L27.9351 25.8646L26.1523 30.2678L20.4377 16.1593C20.033 15.1546 19.0693 14.5105 17.99 14.5105C16.9107 14.5057 15.947 15.1498 15.5423 16.1496ZM17.99 10.1025C20.881 10.1025 23.4395 11.8282 24.5285 14.5009L28.5326 24.3888L30.3154 19.9856L27.593 13.2606C26.0029 9.33814 22.235 6.80005 17.9948 6.80005C13.7498 6.80005 9.98186 9.33333 8.39662 13.2606L0.321045 33.1952H3.88663L11.4611 14.5009C12.5404 11.833 15.099 10.1025 17.99 10.1025ZM19.4162 16.5631C18.8958 15.2892 17.0889 15.2892 16.5686 16.5631L9.83249 33.1952H13.3981L17.99 21.8507L21.5267 30.5899C21.8977 31.5032 22.7842 32.0992 23.772 32.0992C24.4032 32.0992 24.9911 31.8493 25.4343 31.4359L19.4162 16.5631ZM36.1697 8.45846L27.0389 30.9984C26.4992 32.33 25.2079 33.2 23.772 33.2H29.5685C31.8187 33.2 33.8328 31.8397 34.6808 29.7582L43.3057 8.45846H36.1697Z" fill="#6D697D" style="fill:#6D697D;fill:color(display-p3 0.4275 0.4118 0.4902);fill-opacity:1;"/>
</svg>
