<svg width="175" height="40" viewBox="0 0 175 40" fill="none" xmlns="http://www.w3.org/2000/svg">
<path d="M15.0357 27.8355V22.6144H10.6218V27.8355H7.24791L11.346 31.9566C12.1701 32.7855 13.5028 32.7855 14.327 31.9566L18.4249 27.8355H15.0357ZM5.03723 25.6123V14.3799L0.939208 18.501C0.11499 19.3299 0.11499 20.67 0.939208 21.4989L5.03723 25.6123ZM10.6218 12.1644V17.3855H15.0357V12.1644H18.4096L14.3116 8.04329C13.4873 7.21441 12.1548 7.21441 11.3305 8.04329L7.23255 12.1644H10.6218ZM24.7106 18.501L20.6126 14.3799V25.6123L24.7106 21.4989C25.5348 20.67 25.5348 19.3299 24.7106 18.501Z" fill="#6D697D" style="fill:#6D697D;fill:color(display-p3 0.4275 0.4118 0.4902);fill-opacity:1;"/>
<path d="M49.168 12.1531V27.8468H42.3426L38.325 15.8814H38.0901V27.8468H33.9653V16.2306H31.7447V12.1531H39.5808C39.9459 12.143 40.3043 12.253 40.6017 12.4663C40.8915 12.6625 41.1058 12.9524 41.2093 13.288L44.8338 24.1185H45.0687V12.1531H49.168Z" fill="#6D697D" style="fill:#6D697D;fill:color(display-p3 0.4275 0.4118 0.4902);fill-opacity:1;"/>
<path d="M63.6815 19.9629L63.6814 19.9691V19.9588L63.6815 19.9629Z" fill="#6D697D" style="fill:#6D697D;fill:color(display-p3 0.4275 0.4118 0.4902);fill-opacity:1;"/>
<path fill-rule="evenodd" clip-rule="evenodd" d="M51.8276 19.9691C51.8102 21.4134 52.1882 22.8347 52.9201 24.0774C53.6403 25.2944 54.6669 26.2988 55.8963 26.9892C57.1671 27.7138 58.6064 28.0859 60.067 28.0676C61.516 28.0835 62.9432 27.7113 64.202 26.9892C65.4259 26.2976 66.4431 25.2885 67.1476 24.0672C67.8662 22.8197 68.2366 21.4004 68.2197 19.9588C68.2351 18.5272 67.8646 17.1181 67.1476 15.8814C66.4443 14.6524 65.4205 13.6402 64.1868 12.9542C62.9207 12.2558 61.4954 11.9018 60.0518 11.9271C58.5937 11.9095 57.1563 12.2741 55.8809 12.985C54.6545 13.6715 53.6324 14.6749 52.9201 15.8916C52.19 17.1237 51.8119 18.5347 51.8276 19.9691ZM63.4386 21.4157C63.6143 20.9524 63.6969 20.4586 63.6815 19.9629C63.6914 19.4749 63.6038 18.9898 63.424 18.5364C63.2432 18.0811 62.9731 17.6671 62.6297 17.3192C62.2973 16.9703 61.8966 16.6943 61.4529 16.5087C61.0092 16.323 60.5322 16.2318 60.0518 16.2408C59.5698 16.2323 59.0911 16.321 58.6439 16.5018C58.1967 16.6827 57.7902 16.9519 57.4482 17.2935C57.0968 17.6397 56.8202 18.0551 56.6357 18.5136C56.4513 18.9723 56.3629 19.4643 56.3762 19.9588C56.3639 20.4593 56.4526 20.9573 56.6369 21.4224C56.8211 21.8875 57.0971 22.3102 57.4482 22.6652C57.7869 23.0215 58.1954 23.3033 58.6479 23.4924C59.1006 23.6816 59.5872 23.7742 60.0772 23.7641C60.5595 23.773 61.0383 23.6797 61.4824 23.4903C61.9265 23.301 62.3261 23.0199 62.6552 22.6652C62.9961 22.3051 63.2625 21.8803 63.4386 21.4157Z" fill="#6D697D" style="fill:#6D697D;fill:color(display-p3 0.4275 0.4118 0.4902);fill-opacity:1;"/>
<path d="M74.029 27.8468L68.3726 12.1531H73.1305L77.1481 23.8412H77.383L81.4414 12.1531H86.0814L80.3846 27.8468H74.029Z" fill="#6D697D" style="fill:#6D697D;fill:color(display-p3 0.4275 0.4118 0.4902);fill-opacity:1;"/>
<path fill-rule="evenodd" clip-rule="evenodd" d="M96.1389 24.9812L97.1133 27.8468H101.912L95.8683 12.1531H90.288L84.2085 27.8468H88.8027L89.8236 24.9812H96.1389ZM94.9287 21.4481H91.0695L92.9022 16.1946H93.1371L94.9287 21.4481Z" fill="#6D697D" style="fill:#6D697D;fill:color(display-p3 0.4275 0.4118 0.4902);fill-opacity:1;"/>
<path fill-rule="evenodd" clip-rule="evenodd" d="M124.441 17.3295C124.47 18.0358 124.343 18.74 124.071 19.3916C123.798 20.0432 123.386 20.6262 122.863 21.0989C121.69 22.0818 120.192 22.5858 118.666 22.5111H114.649V27.8468H110.208V16.2305H107.987V12.1531H118.672C120.197 12.0784 121.694 12.5824 122.868 13.5652C123.389 14.0375 123.801 14.6198 124.073 15.2705C124.345 15.9212 124.47 16.6243 124.441 17.3295ZM119.489 18.4285C119.627 18.2957 119.736 18.1363 119.811 17.9598C119.886 17.7832 119.924 17.5934 119.924 17.4015C119.924 17.2095 119.886 17.0196 119.811 16.8431C119.736 16.6665 119.627 16.5071 119.489 16.3743C119.175 16.1032 118.769 15.9636 118.356 15.9841H114.649V18.8085H118.356C118.767 18.8319 119.173 18.6959 119.489 18.4285Z" fill="#6D697D" style="fill:#6D697D;fill:color(display-p3 0.4275 0.4118 0.4902);fill-opacity:1;"/>
<path fill-rule="evenodd" clip-rule="evenodd" d="M125.824 19.9691C125.809 21.4131 126.187 22.8337 126.916 24.0774C127.635 25.289 128.659 26.2895 129.882 26.9789C131.153 27.6861 132.582 28.0571 134.035 28.0571C135.488 28.0571 136.917 27.6861 138.188 26.9789C139.425 26.2772 140.452 25.2528 141.158 24.0138C141.866 22.7747 142.227 21.3668 142.206 19.9383C142.221 18.5066 141.85 17.0976 141.134 15.8608C140.43 14.6426 139.413 13.6383 138.188 12.9542C136.913 12.2597 135.486 11.8961 134.035 11.8961C132.585 11.8961 131.158 12.2597 129.882 12.9542C128.651 13.6489 127.626 14.6632 126.916 15.8916C126.188 17.1247 125.811 18.535 125.824 19.9691ZM137.424 18.5353C137.605 18.9889 137.693 19.4747 137.683 19.9633V19.9588V19.9691V19.9633C137.696 20.4628 137.61 20.9599 137.429 21.4253C137.248 21.892 136.975 22.3172 136.626 22.6755C136.3 23.0279 135.906 23.3079 135.465 23.4972C135.026 23.6865 134.552 23.7809 134.074 23.7744C133.584 23.7844 133.097 23.6919 132.644 23.5027C132.192 23.3135 131.783 23.0318 131.444 22.6755C131.093 22.3206 130.817 21.8978 130.633 21.4326C130.449 20.9675 130.36 20.4697 130.373 19.9691C130.359 19.4745 130.448 18.9825 130.632 18.524C130.817 18.0653 131.093 17.65 131.444 17.3038C131.788 16.9572 132.199 16.6842 132.651 16.5015C133.103 16.3188 133.587 16.2301 134.074 16.2408C134.55 16.2342 135.022 16.3265 135.462 16.5121C135.901 16.6977 136.298 16.9724 136.626 17.3192C136.971 17.6661 137.243 18.0799 137.424 18.5353Z" fill="#6D697D" style="fill:#6D697D;fill:color(display-p3 0.4275 0.4118 0.4902);fill-opacity:1;"/>
<path d="M143.722 22.9014H148.317C148.705 23.8155 149.679 24.2725 151.237 24.2725C151.883 24.302 152.528 24.1954 153.131 23.9593C153.585 23.7539 153.815 23.4766 153.815 23.1376C153.811 22.9281 153.741 22.7252 153.614 22.5588C153.487 22.3925 153.311 22.2714 153.11 22.2133C152.225 21.927 151.308 21.7544 150.379 21.6997C148.378 21.4908 146.831 20.9414 145.739 20.0513C145.223 19.6573 144.806 19.1465 144.522 18.5605C144.238 17.9743 144.096 17.3292 144.105 16.6773C144.097 15.9842 144.267 15.3008 144.598 14.6927C144.929 14.0847 145.409 13.5726 145.994 13.2058C147.254 12.3259 148.911 11.8877 150.967 11.8912C152.771 11.8094 154.555 12.2959 156.072 13.2829C156.702 13.7125 157.235 14.2721 157.635 14.9246C158.034 15.5771 158.291 16.3076 158.389 17.0676H153.371C153.302 16.8586 153.192 16.6657 153.048 16.5007C152.903 16.3355 152.726 16.2017 152.529 16.1073C152.023 15.8686 151.468 15.7541 150.91 15.7735C149.379 15.7735 148.613 16.1278 148.613 16.8365C148.613 17.1755 148.833 17.4219 149.277 17.5811C150.026 17.7933 150.797 17.9241 151.574 17.9714C153.786 18.1837 155.463 18.7195 156.608 19.5788C157.163 20.0026 157.61 20.5553 157.908 21.1897C158.206 21.8241 158.347 22.5215 158.321 23.2228C158.294 23.9239 158.098 24.6083 157.753 25.2175C157.406 25.8268 156.918 26.3429 156.332 26.7222C155.004 27.6123 153.25 28.0557 151.068 28.0522C149.31 28.1213 147.574 27.6425 146.096 26.681C145.466 26.2467 144.93 25.6874 144.522 25.0375C144.114 24.3876 143.842 23.6608 143.722 22.9014Z" fill="#6D697D" style="fill:#6D697D;fill:color(display-p3 0.4275 0.4118 0.4902);fill-opacity:1;"/>
<path d="M169.052 16.5489H174.321V12.1531H159.343V16.5489H164.606V27.8468H169.052V16.5489Z" fill="#6D697D" style="fill:#6D697D;fill:color(display-p3 0.4275 0.4118 0.4902);fill-opacity:1;"/>
</svg>
