<svg width="71" height="40" viewBox="0 0 71 40" fill="none" xmlns="http://www.w3.org/2000/svg">
<path d="M0.159668 20.9207L6.92445 20.8788C7.09097 22.0087 7.44482 22.448 7.96519 23.0339C8.79777 23.9963 10.005 24.4775 11.5453 24.4775C12.7109 24.4775 13.606 24.2265 14.2304 23.7452C14.8549 23.264 15.1671 22.6782 15.1671 22.0505C15.1671 21.4437 14.8757 20.8788 14.272 20.3976C13.6684 19.9164 12.2946 19.4561 10.1091 19.0167C6.5706 18.3053 4.03121 17.3429 2.51173 16.1503C0.971442 14.9577 0.222112 13.4304 0.222112 11.5682C0.222112 10.3547 0.617592 9.20399 1.38774 8.11601C2.1787 7.02803 3.34432 6.19112 4.92624 5.56344C6.50816 4.93576 8.65207 4.64285 11.3788 4.64285C14.73 4.64285 16.8947 5.41698 18.6431 6.54681C20.4124 7.67663 21.5364 9.24583 21.8694 11.7147L14.5426 11.7566C14.3345 10.6895 13.9182 10.271 13.2521 9.78982C12.6069 9.3086 11.691 9.05753 10.5462 9.05753C9.60955 9.05753 8.88103 9.24583 8.4023 9.60152C7.92356 9.9572 7.69459 10.3966 7.69459 10.9196C7.69459 11.2963 7.90274 11.631 8.27741 11.9449C8.65207 12.2587 9.56792 12.5516 11.0041 12.8236C14.5843 13.4931 16.8531 14.4137 18.3934 15.1251C19.9336 15.8365 20.9328 16.5269 21.6196 17.573C22.3273 18.6192 22.5563 19.6653 22.5563 20.9625C22.5563 22.4899 22.2857 23.8498 21.3699 25.1261C20.4332 26.4024 19.4549 27.4904 17.7689 28.1599C16.1037 28.8294 13.9806 29.1642 11.4412 29.1642C6.96608 29.1642 4.46831 28.411 2.74069 26.8627C1.01307 25.2935 0.38863 23.3268 0.159668 20.9207Z" fill="#6D697D" style="fill:#6D697D;fill:color(display-p3 0.4275 0.4118 0.4902);fill-opacity:1;"/>
<path d="M23.7011 4.58008H30.4243L39.1873 18.1589V4.58008H45.9729V29.1224H39.1873L30.4659 15.6482V29.1224H23.7011V4.58008Z" fill="#6D697D" style="fill:#6D697D;fill:color(display-p3 0.4275 0.4118 0.4902);fill-opacity:1;"/>
<path d="M70.5134 4.58008V10.6476H62.812V29.1433H55.2562V10.6476H47.5548V4.58008H70.5134Z" fill="#6D697D" style="fill:#6D697D;fill:color(display-p3 0.4275 0.4118 0.4902);fill-opacity:1;"/>
<path d="M2.30358 31.7168C2.28277 31.7586 2.26195 31.7795 2.24114 31.7795C2.22032 31.8005 2.19951 31.8005 2.15788 31.8005C2.11625 31.8005 2.09544 31.7795 2.05381 31.7586C2.01218 31.7377 1.97055 31.6958 1.9081 31.6749C1.84566 31.654 1.78322 31.6122 1.72077 31.5912C1.65833 31.5703 1.55425 31.5494 1.471 31.5494C1.38774 31.5494 1.30448 31.5703 1.24203 31.5912C1.17959 31.6122 1.11715 31.6331 1.07552 31.6749C1.03389 31.7168 0.992257 31.7586 0.971442 31.8214C0.950627 31.8841 0.929813 31.926 0.929813 31.9888C0.929813 32.0725 0.950627 32.1352 0.992257 32.198C1.03389 32.2608 1.09633 32.3026 1.17959 32.3444C1.26285 32.3863 1.34611 32.4072 1.42937 32.4491C1.53344 32.47 1.6167 32.5118 1.72077 32.5537C1.82485 32.5955 1.92892 32.6374 2.01218 32.6792C2.11625 32.7211 2.19951 32.7838 2.26195 32.8466C2.34521 32.9094 2.38684 32.993 2.44929 33.0977C2.49092 33.2023 2.51173 33.3278 2.51173 33.4743C2.51173 33.6207 2.49092 33.7672 2.42847 33.9136C2.36603 34.0601 2.30358 34.1647 2.19951 34.2693C2.09544 34.3739 1.97055 34.4576 1.82485 34.4995C1.67914 34.5622 1.51262 34.5832 1.32529 34.5832C1.22122 34.5832 1.11714 34.5622 0.992257 34.5413C0.888183 34.5204 0.784109 34.4786 0.680036 34.4576C0.575962 34.4158 0.492704 34.3739 0.409445 34.3112C0.326186 34.2484 0.242927 34.1856 0.180483 34.1229L0.367815 33.809C0.38863 33.7881 0.409445 33.7672 0.430259 33.7463C0.451074 33.7253 0.492704 33.7253 0.513518 33.7253C0.555148 33.7253 0.596777 33.7463 0.638407 33.7672C0.680036 33.809 0.74248 33.83 0.804924 33.8718C0.867368 33.9136 0.950627 33.9555 1.03389 33.9764C1.11715 34.0183 1.22122 34.0183 1.34611 34.0183C1.53344 34.0183 1.67914 33.9764 1.7624 33.8927C1.86647 33.809 1.9081 33.6835 1.9081 33.5161C1.9081 33.4324 1.88729 33.3487 1.84566 33.286C1.80403 33.2232 1.74159 33.1814 1.65833 33.1395C1.57507 33.0977 1.49181 33.0767 1.40855 33.0349C1.32529 32.993 1.22122 32.9721 1.11714 32.9512C1.01307 32.9094 0.929813 32.8884 0.825739 32.8466C0.721665 32.8047 0.638406 32.742 0.575962 32.6792C0.492703 32.6164 0.451074 32.5118 0.38863 32.4072C0.347001 32.3026 0.326186 32.1561 0.326186 32.0097C0.326186 31.8841 0.347001 31.7586 0.409445 31.6331C0.451074 31.5075 0.534333 31.4029 0.617592 31.3192C0.721665 31.2355 0.825739 31.1519 0.971442 31.0891C1.11715 31.0263 1.26285 31.0054 1.45018 31.0054C1.65833 31.0054 1.84566 31.0472 2.01218 31.11C2.1787 31.1728 2.3244 31.2565 2.44929 31.382L2.30358 31.7168Z" fill="#6D697D" style="fill:#6D697D;fill:color(display-p3 0.4275 0.4118 0.4902);fill-opacity:1;"/>
<path d="M5.09276 32.0934L3.76061 35.2318C3.7398 35.2736 3.71898 35.2945 3.69817 35.3364C3.67736 35.3573 3.63573 35.3782 3.57328 35.3782H3.13617L3.5941 34.3949L2.59499 32.1143H3.11536C3.15699 32.1143 3.19862 32.1352 3.21943 32.1561C3.24025 32.1771 3.26106 32.198 3.28188 32.2398L3.80224 33.5161C3.82306 33.558 3.84387 33.5998 3.84387 33.6417C3.86469 33.6835 3.86469 33.7253 3.8855 33.7672C3.90632 33.7253 3.90632 33.6835 3.92713 33.6417C3.94795 33.5998 3.94795 33.558 3.96876 33.5161L4.46831 32.2398C4.48913 32.198 4.50994 32.1771 4.53076 32.1561C4.55157 32.1352 4.5932 32.1352 4.63483 32.1352H5.09276V32.0934Z" fill="#6D697D" style="fill:#6D697D;fill:color(display-p3 0.4275 0.4118 0.4902);fill-opacity:1;"/>
<path d="M6.84119 32.5746C6.82038 32.5955 6.79956 32.6164 6.79956 32.6374C6.77875 32.6374 6.75793 32.6583 6.73712 32.6583C6.7163 32.6583 6.67467 32.6583 6.65386 32.6374C6.61223 32.6164 6.59142 32.5955 6.54979 32.5746C6.50816 32.5537 6.46653 32.5327 6.40408 32.5118C6.34164 32.4909 6.27919 32.4909 6.21675 32.4909C6.09186 32.4909 6.0086 32.5118 5.94616 32.5746C5.88372 32.6374 5.84209 32.6792 5.84209 32.7629C5.84209 32.8257 5.8629 32.8675 5.88372 32.8884C5.92534 32.9303 5.96697 32.9512 6.02942 32.993C6.09186 33.014 6.15431 33.0349 6.21675 33.0558C6.27919 33.0767 6.36245 33.0977 6.4249 33.1186C6.50816 33.1395 6.5706 33.1814 6.63305 33.2023C6.69549 33.2441 6.77875 33.286 6.82038 33.3278C6.88282 33.3697 6.92445 33.4324 6.96608 33.5161C7.00771 33.5789 7.00771 33.6626 7.00771 33.7672C7.00771 33.8927 6.9869 33.9973 6.94527 34.1019C6.90364 34.2066 6.84119 34.2903 6.75793 34.353C6.67467 34.4158 6.5706 34.4786 6.44571 34.5204C6.32082 34.5622 6.17512 34.5832 6.02942 34.5832C5.94616 34.5832 5.8629 34.5832 5.77964 34.5622C5.69638 34.5413 5.61312 34.5204 5.55068 34.4995C5.46742 34.4786 5.40498 34.4367 5.34253 34.3949C5.28009 34.353 5.21764 34.3112 5.17601 34.2693L5.32172 34.0392C5.34253 34.0183 5.36335 33.9973 5.38416 33.9764C5.40498 33.9555 5.44661 33.9555 5.46742 33.9555C5.50905 33.9555 5.52987 33.9555 5.57149 33.9764C5.61312 33.9973 5.63394 34.0183 5.67557 34.0392C5.7172 34.0601 5.75883 34.081 5.82127 34.1019C5.88372 34.1229 5.94616 34.1229 6.05023 34.1229C6.11268 34.1229 6.17512 34.1229 6.23757 34.1019C6.27919 34.081 6.32082 34.0601 6.36245 34.0392C6.40408 34.0183 6.4249 33.9764 6.4249 33.9346C6.44571 33.8927 6.44571 33.8718 6.44571 33.83C6.44571 33.7672 6.4249 33.7253 6.40408 33.6835C6.36245 33.6417 6.32082 33.6207 6.25838 33.5789C6.19594 33.558 6.13349 33.537 6.07105 33.5161C6.0086 33.4952 5.92534 33.4743 5.84209 33.4533C5.75883 33.4324 5.69638 33.3906 5.61312 33.3697C5.55068 33.3278 5.46742 33.286 5.42579 33.2441C5.36335 33.1814 5.32172 33.1186 5.28009 33.0558C5.23846 32.9721 5.23846 32.8884 5.23846 32.7838C5.23846 32.6792 5.25927 32.5955 5.3009 32.4909C5.34253 32.4072 5.40498 32.3235 5.46742 32.2608C5.55068 32.198 5.63394 32.1352 5.75883 32.0934C5.88372 32.0515 6.0086 32.0306 6.15431 32.0306C6.32082 32.0306 6.46653 32.0515 6.61223 32.1143C6.75793 32.1771 6.86201 32.2398 6.96608 32.3444L6.84119 32.5746Z" fill="#6D697D" style="fill:#6D697D;fill:color(display-p3 0.4275 0.4118 0.4902);fill-opacity:1;"/>
<path d="M8.25659 34.5832C8.04845 34.5832 7.88193 34.5204 7.75704 34.3949C7.65297 34.2693 7.59052 34.1019 7.59052 33.8927V32.5327H7.34075C7.29912 32.5327 7.2783 32.5327 7.25749 32.5118C7.23667 32.4909 7.21586 32.47 7.21586 32.4281V32.198L7.61134 32.1352L7.73622 31.4657C7.73622 31.4238 7.75704 31.4029 7.77785 31.382C7.79867 31.3611 7.81948 31.3611 7.86111 31.3611H8.17333V32.1352H8.81859V32.5537H8.17333V33.8927C8.17333 33.9764 8.19415 34.0392 8.23578 34.081C8.27741 34.1229 8.31904 34.1438 8.38148 34.1438C8.42311 34.1438 8.44392 34.1438 8.46474 34.1229C8.48555 34.1229 8.50637 34.1019 8.52718 34.1019C8.548 34.1019 8.56881 34.081 8.56881 34.081C8.58963 34.081 8.58963 34.0601 8.61044 34.0601C8.63126 34.0601 8.65207 34.0601 8.65207 34.081C8.67289 34.081 8.67289 34.102 8.6937 34.1229L8.86022 34.4158C8.77696 34.4786 8.67289 34.5413 8.56881 34.5832C8.48555 34.5622 8.36067 34.5832 8.25659 34.5832Z" fill="#6D697D" style="fill:#6D697D;fill:color(display-p3 0.4275 0.4118 0.4902);fill-opacity:1;"/>
<path d="M9.65118 33.3906C9.65118 33.5161 9.69281 33.6207 9.71362 33.7253C9.75525 33.809 9.79688 33.8927 9.85933 33.9555C9.92177 34.0183 9.98421 34.0601 10.0675 34.081C10.1507 34.1019 10.234 34.1229 10.3381 34.1229C10.4421 34.1229 10.5254 34.1019 10.5878 34.081C10.6503 34.0601 10.7127 34.0392 10.7752 33.9973C10.8168 33.9764 10.8792 33.9555 10.9209 33.9136C10.9625 33.8927 11.0041 33.8718 11.025 33.8718C11.0666 33.8718 11.1082 33.8927 11.129 33.9346L11.2955 34.1438C11.2331 34.2275 11.1498 34.2903 11.0666 34.3321C10.9833 34.3739 10.9001 34.4158 10.8168 34.4576C10.7335 34.4786 10.6295 34.5204 10.5462 34.5204C10.463 34.5413 10.3589 34.5413 10.2756 34.5413C10.1091 34.5413 9.94258 34.5204 9.79688 34.4576C9.65118 34.3949 9.52629 34.3112 9.42222 34.2066C9.31814 34.1019 9.23488 33.9555 9.17244 33.7881C9.11 33.6207 9.08918 33.4324 9.08918 33.2232C9.08918 33.0558 9.11 32.8884 9.17244 32.742C9.23488 32.5955 9.29733 32.47 9.4014 32.3654C9.50548 32.2608 9.63036 32.1771 9.77607 32.1143C9.92177 32.0515 10.0883 32.0097 10.2756 32.0097C10.4213 32.0097 10.567 32.0306 10.6919 32.0934C10.8168 32.1352 10.9417 32.2189 11.025 32.3026C11.129 32.4072 11.1915 32.5118 11.2539 32.6583C11.3164 32.8047 11.3372 32.9512 11.3372 33.1395C11.3372 33.2232 11.3372 33.286 11.3164 33.3278C11.2955 33.3487 11.2539 33.3697 11.2123 33.3697H9.65118V33.3906ZM10.7544 33.0349C10.7544 32.9512 10.7335 32.8884 10.7127 32.8257C10.6919 32.7629 10.6503 32.7001 10.6087 32.6374C10.567 32.5955 10.5046 32.5537 10.4421 32.5118C10.3797 32.4909 10.2964 32.47 10.2132 32.47C10.0467 32.47 9.90096 32.5118 9.8177 32.6164C9.71362 32.7211 9.65118 32.8466 9.63036 33.0349H10.7544Z" fill="#6D697D" style="fill:#6D697D;fill:color(display-p3 0.4275 0.4118 0.4902);fill-opacity:1;"/>
<path d="M11.7326 32.0934H12.0865C12.1698 32.0934 12.2114 32.1352 12.2322 32.198L12.2738 32.3863C12.3155 32.3444 12.3571 32.3026 12.3987 32.2608C12.4404 32.2189 12.5028 32.1771 12.5444 32.1561C12.6069 32.1352 12.6485 32.1143 12.7109 32.0934C12.7734 32.0725 12.8358 32.0725 12.9191 32.0725C13.0648 32.0725 13.1897 32.1143 13.2938 32.198C13.3978 32.2817 13.4603 32.3863 13.5227 32.5327C13.5643 32.4491 13.606 32.3863 13.6684 32.3235C13.7309 32.2608 13.7933 32.2189 13.8558 32.1771C13.9182 32.1352 14.0015 32.1143 14.0639 32.0934C14.1472 32.0725 14.2096 32.0725 14.2929 32.0725C14.4177 32.0725 14.5426 32.0934 14.6467 32.1352C14.7508 32.1771 14.834 32.2398 14.9173 32.3235C14.9797 32.4072 15.0422 32.4909 15.0838 32.6164C15.1254 32.7211 15.1463 32.8675 15.1463 33.014V34.5832H14.5843V33.014C14.5843 32.8675 14.5426 32.742 14.4802 32.6583C14.4177 32.5746 14.3137 32.5327 14.1888 32.5327C14.1263 32.5327 14.0639 32.5328 14.0223 32.5537C13.9806 32.5746 13.9182 32.5955 13.8766 32.6374C13.8349 32.6792 13.8141 32.7211 13.7933 32.7838C13.7725 32.8466 13.7517 32.9094 13.7517 32.993V34.5622H13.1689V32.993C13.1689 32.8257 13.1272 32.7001 13.0648 32.6374C13.0023 32.5537 12.8983 32.5327 12.7734 32.5327C12.6901 32.5327 12.6069 32.5537 12.5236 32.5955C12.4404 32.6374 12.3779 32.7001 12.3155 32.7629V34.5622H11.7326V32.0934Z" fill="#6D697D" style="fill:#6D697D;fill:color(display-p3 0.4275 0.4118 0.4902);fill-opacity:1;"/>
<path d="M17.2277 32.5746C17.2069 32.5955 17.1861 32.6164 17.1861 32.6374C17.1653 32.6374 17.1445 32.6583 17.1237 32.6583C17.1028 32.6583 17.0612 32.6583 17.0404 32.6374C16.9988 32.6164 16.978 32.5955 16.9363 32.5746C16.8947 32.5537 16.8531 32.5327 16.7906 32.5118C16.7282 32.4909 16.6657 32.4909 16.6033 32.4909C16.4784 32.4909 16.3951 32.5118 16.3327 32.5746C16.2703 32.6374 16.2286 32.6792 16.2286 32.7629C16.2286 32.8257 16.2494 32.8675 16.2703 32.8884C16.3119 32.9303 16.3535 32.9512 16.416 32.993C16.4784 33.014 16.5408 33.0349 16.6033 33.0558C16.6657 33.0767 16.749 33.0977 16.8114 33.1186C16.8947 33.1395 16.9571 33.1814 17.0196 33.2023C17.082 33.2441 17.1653 33.286 17.2069 33.3278C17.2694 33.3697 17.311 33.4324 17.3526 33.5161C17.3943 33.5789 17.3943 33.6626 17.3943 33.7672C17.3943 33.8927 17.3734 33.9973 17.3318 34.1019C17.2902 34.2066 17.2277 34.2903 17.1445 34.353C17.0612 34.4158 16.9571 34.4786 16.8323 34.5204C16.7074 34.5622 16.5617 34.5832 16.416 34.5832C16.3327 34.5832 16.2494 34.5832 16.1662 34.5622C16.0829 34.5413 15.9997 34.5204 15.9372 34.4995C15.854 34.4786 15.7915 34.4367 15.7291 34.3949C15.6666 34.353 15.6042 34.3112 15.5626 34.2693L15.7083 34.0392C15.7291 34.0183 15.7499 33.9973 15.7707 33.9764C15.7915 33.9555 15.8331 33.9555 15.854 33.9555C15.8956 33.9555 15.9164 33.9555 15.958 33.9764C15.9997 33.9973 16.0205 34.0183 16.0621 34.0392C16.1037 34.0601 16.1454 34.081 16.2078 34.1019C16.2703 34.1229 16.3327 34.1229 16.4368 34.1229C16.4992 34.1229 16.5617 34.1229 16.6241 34.1019C16.6657 34.081 16.7074 34.0601 16.749 34.0392C16.7906 34.0183 16.8114 33.9764 16.8114 33.9346C16.8323 33.8927 16.8323 33.8718 16.8323 33.83C16.8323 33.7672 16.8114 33.7253 16.7906 33.6835C16.749 33.6417 16.7074 33.6207 16.6449 33.5789C16.5825 33.558 16.52 33.537 16.4576 33.5161C16.3951 33.4952 16.3119 33.4743 16.2286 33.4533C16.1454 33.4324 16.0829 33.3906 15.9997 33.3697C15.9372 33.3278 15.854 33.286 15.8123 33.2441C15.7499 33.1814 15.7083 33.1186 15.6666 33.0558C15.625 32.9721 15.625 32.8884 15.625 32.7838C15.625 32.6792 15.6458 32.5955 15.6874 32.4909C15.7291 32.4072 15.7915 32.3235 15.854 32.2608C15.9372 32.198 16.0205 32.1352 16.1454 32.0934C16.2703 32.0515 16.3951 32.0306 16.5408 32.0306C16.7074 32.0306 16.8531 32.0515 16.9988 32.1143C17.1445 32.1771 17.2485 32.2398 17.3526 32.3444L17.2277 32.5746Z" fill="#6D697D" style="fill:#6D697D;fill:color(display-p3 0.4275 0.4118 0.4902);fill-opacity:1;"/>
<path d="M17.7273 34.2275C17.7273 34.1856 17.7273 34.1229 17.7481 34.081C17.7689 34.0392 17.7897 33.9973 17.8314 33.9764C17.873 33.9346 17.8938 33.9136 17.9354 33.8927C17.9771 33.8718 18.0187 33.8718 18.0811 33.8718C18.1228 33.8718 18.1852 33.8718 18.2268 33.8927C18.2685 33.9136 18.3101 33.9346 18.3309 33.9764C18.3725 34.0183 18.3934 34.0392 18.4142 34.081C18.435 34.1229 18.435 34.1647 18.435 34.2275C18.435 34.2693 18.435 34.3321 18.4142 34.3739C18.3934 34.4158 18.3725 34.4576 18.3309 34.4786C18.2893 34.5204 18.2685 34.5413 18.2268 34.5622C18.1852 34.5832 18.1436 34.5832 18.0811 34.5832C18.0395 34.5832 17.9771 34.5832 17.9354 34.5622C17.8938 34.5413 17.8522 34.5204 17.8314 34.4786C17.7897 34.4367 17.7689 34.4158 17.7481 34.3739C17.7481 34.3321 17.7273 34.2693 17.7273 34.2275Z" fill="#6D697D" style="fill:#6D697D;fill:color(display-p3 0.4275 0.4118 0.4902);fill-opacity:1;"/>
<path d="M23.1183 31.0891V34.5622H22.7853C22.7436 34.5622 22.702 34.5622 22.6604 34.5413C22.6187 34.5204 22.5979 34.4995 22.5563 34.4576L20.7662 32.1561C20.7662 32.2608 20.7871 32.3654 20.7871 32.4491V34.5832H20.2042V31.11H20.5373C20.5581 31.11 20.5789 31.11 20.5997 31.11C20.6205 31.11 20.6413 31.11 20.6622 31.1309C20.683 31.1309 20.683 31.1519 20.7038 31.1519C20.7246 31.1728 20.7246 31.1937 20.7454 31.2146L22.5563 33.537C22.5563 33.4743 22.5563 33.4324 22.5355 33.3697C22.5355 33.3069 22.5355 33.265 22.5355 33.2232V31.11H23.1183V31.0891Z" fill="#6D697D" style="fill:#6D697D;fill:color(display-p3 0.4275 0.4118 0.4902);fill-opacity:1;"/>
<path d="M24.159 33.3906C24.159 33.5161 24.2007 33.6207 24.2215 33.7253C24.2631 33.809 24.3047 33.8927 24.3672 33.9555C24.4296 34.0183 24.4921 34.0601 24.5753 34.081C24.6586 34.1019 24.7418 34.1229 24.8459 34.1229C24.95 34.1229 25.0333 34.1019 25.0957 34.081C25.1581 34.0601 25.2206 34.0392 25.283 33.9973C25.3247 33.9764 25.3871 33.9555 25.4287 33.9136C25.4704 33.8927 25.512 33.8718 25.5328 33.8718C25.5744 33.8718 25.6161 33.8927 25.6369 33.9346L25.8034 34.1438C25.741 34.2275 25.6577 34.2903 25.5744 34.3321C25.4912 34.3739 25.4079 34.4158 25.3247 34.4576C25.2414 34.4786 25.1373 34.5204 25.0541 34.5204C24.9708 34.5413 24.8667 34.5413 24.7835 34.5413C24.617 34.5413 24.4504 34.5204 24.3047 34.4576C24.159 34.3949 24.0341 34.3112 23.9301 34.2066C23.826 34.1019 23.7427 33.9555 23.6803 33.7881C23.6179 33.6207 23.597 33.4324 23.597 33.2232C23.597 33.0558 23.6179 32.8884 23.6803 32.742C23.7427 32.5955 23.8052 32.47 23.9093 32.3654C24.0133 32.2608 24.1382 32.1771 24.2839 32.1143C24.4296 32.0515 24.5961 32.0097 24.7835 32.0097C24.9292 32.0097 25.0749 32.0306 25.1998 32.0934C25.3247 32.1352 25.4495 32.2189 25.5328 32.3026C25.6369 32.4072 25.6993 32.5118 25.7618 32.6583C25.8242 32.8047 25.845 32.9512 25.845 33.1395C25.845 33.2232 25.845 33.286 25.8242 33.3278C25.8034 33.3487 25.7618 33.3697 25.7201 33.3697H24.159V33.3906ZM25.283 33.0349C25.283 32.9512 25.2622 32.8884 25.2414 32.8257C25.2206 32.7629 25.179 32.7001 25.1373 32.6374C25.0957 32.5955 25.0333 32.5537 24.9708 32.5118C24.9084 32.4909 24.8251 32.47 24.7418 32.47C24.5753 32.47 24.4296 32.5118 24.3464 32.6164C24.2423 32.7211 24.1798 32.8466 24.159 33.0349H25.283Z" fill="#6D697D" style="fill:#6D697D;fill:color(display-p3 0.4275 0.4118 0.4902);fill-opacity:1;"/>
<path d="M27.0523 34.5832C26.8441 34.5832 26.6776 34.5204 26.5527 34.3949C26.4487 34.2693 26.3862 34.1019 26.3862 33.8927V32.5327H26.1364C26.0948 32.5327 26.074 32.5327 26.0532 32.5118C26.0324 32.4909 26.0115 32.47 26.0115 32.4281V32.198L26.407 32.1352L26.5319 31.4657C26.5319 31.4238 26.5527 31.4029 26.5735 31.382C26.5944 31.3611 26.6152 31.3611 26.6568 31.3611H26.969V32.1352H27.6143V32.5537H26.969V33.8927C26.969 33.9764 26.9898 34.0392 27.0315 34.081C27.0731 34.1229 27.1147 34.1438 27.1772 34.1438C27.2188 34.1438 27.2396 34.1438 27.2604 34.1229C27.2812 34.1229 27.3021 34.1019 27.3229 34.1019C27.3437 34.1019 27.3645 34.081 27.3645 34.081C27.3853 34.081 27.3853 34.0601 27.4061 34.0601C27.4269 34.0601 27.4478 34.0601 27.4478 34.081C27.4686 34.081 27.4686 34.102 27.4894 34.1229L27.6559 34.4158C27.5726 34.4786 27.4686 34.5413 27.3645 34.5832C27.2812 34.5622 27.1564 34.5832 27.0523 34.5832Z" fill="#6D697D" style="fill:#6D697D;fill:color(display-p3 0.4275 0.4118 0.4902);fill-opacity:1;"/>
<path d="M31.5066 32.0934L30.7365 34.5413H30.2577C30.1953 34.5413 30.1745 34.4995 30.1537 34.4367L29.7166 33.014C29.6957 32.9721 29.6957 32.9094 29.6749 32.8675C29.6541 32.8257 29.6541 32.7629 29.6541 32.7211C29.6541 32.7629 29.6333 32.8257 29.6125 32.8675C29.5917 32.9094 29.5917 32.9721 29.5709 33.014L29.1338 34.4367C29.1129 34.4995 29.0713 34.5413 29.0089 34.5413H28.5301L27.76 32.0934H28.2387C28.2804 32.0934 28.322 32.0934 28.3428 32.1143C28.3636 32.1352 28.3844 32.1561 28.4052 32.198L28.7591 33.5161C28.7799 33.5789 28.8007 33.6626 28.8007 33.7253C28.8215 33.7881 28.8215 33.8718 28.8423 33.9346C28.8632 33.8718 28.884 33.7881 28.9048 33.7253C28.9256 33.6626 28.9464 33.5789 28.9672 33.5161L29.3627 32.198C29.3627 32.1561 29.3835 32.1352 29.4252 32.1143C29.446 32.0934 29.4876 32.0934 29.5292 32.0934H29.779C29.8206 32.0934 29.8623 32.0934 29.8831 32.1143C29.9039 32.1352 29.9247 32.1561 29.9455 32.198L30.341 33.5161C30.3618 33.5789 30.3826 33.6626 30.4034 33.7253C30.4243 33.7881 30.4451 33.8718 30.4659 33.9346C30.4867 33.809 30.5075 33.6626 30.5492 33.5161L30.903 32.198C30.9238 32.1561 30.9238 32.1352 30.9654 32.1143C30.9863 32.0934 31.0279 32.0934 31.0695 32.0934H31.5066Z" fill="#6D697D" style="fill:#6D697D;fill:color(display-p3 0.4275 0.4118 0.4902);fill-opacity:1;"/>
<path d="M32.8804 32.0515C33.0677 32.0515 33.2343 32.0725 33.38 32.1352C33.5257 32.198 33.6505 32.2817 33.7546 32.3863C33.8587 32.4909 33.942 32.6374 34.0044 32.7838C34.0668 32.9303 34.0877 33.1186 34.0877 33.3069C34.0877 33.4952 34.0668 33.6835 34.0044 33.83C33.942 33.9764 33.8587 34.1229 33.7546 34.2275C33.6505 34.3321 33.5257 34.4158 33.38 34.4786C33.2343 34.5413 33.0677 34.5622 32.8804 34.5622C32.6931 34.5622 32.5266 34.5413 32.3808 34.4786C32.2351 34.4158 32.1103 34.3321 32.0062 34.2275C31.9021 34.1229 31.8189 33.9764 31.7564 33.83C31.694 33.6835 31.6731 33.4952 31.6731 33.3069C31.6731 33.1186 31.694 32.9303 31.7564 32.7838C31.8189 32.6374 31.9021 32.4909 32.0062 32.3863C32.1103 32.2817 32.2351 32.198 32.3808 32.1352C32.5266 32.0934 32.6931 32.0515 32.8804 32.0515ZM32.8804 34.1229C33.0885 34.1229 33.2343 34.0601 33.3383 33.9136C33.4424 33.7672 33.484 33.5789 33.484 33.3069C33.484 33.0349 33.4424 32.8466 33.3383 32.7001C33.2343 32.5537 33.0885 32.4909 32.8804 32.4909C32.6723 32.4909 32.5265 32.5537 32.4225 32.7001C32.3184 32.8466 32.2768 33.0349 32.2768 33.3069C32.2768 33.5789 32.3184 33.7672 32.4225 33.9136C32.5057 34.0601 32.6723 34.1229 32.8804 34.1229Z" fill="#6D697D" style="fill:#6D697D;fill:color(display-p3 0.4275 0.4118 0.4902);fill-opacity:1;"/>
<path d="M35.0868 32.5118C35.17 32.3654 35.2533 32.2398 35.3574 32.1561C35.4614 32.0725 35.5863 32.0306 35.732 32.0306C35.8361 32.0306 35.9402 32.0515 36.0026 32.1143L35.961 32.5537C35.961 32.5746 35.9402 32.5955 35.9194 32.6164C35.8985 32.6374 35.8777 32.6374 35.8569 32.6374C35.8361 32.6374 35.7945 32.6374 35.7528 32.6164C35.7112 32.6164 35.6696 32.5955 35.6071 32.5955C35.5447 32.5955 35.4822 32.5955 35.4406 32.6164C35.399 32.6374 35.3365 32.6583 35.2949 32.7001C35.2533 32.742 35.2116 32.7838 35.1908 32.8257C35.17 32.8675 35.1284 32.9303 35.1076 32.993V34.4995H34.5248V32.0515H34.8786C34.9411 32.0515 34.9827 32.0725 35.0035 32.0934C35.0243 32.1143 35.0451 32.1561 35.0451 32.2189L35.0868 32.5118Z" fill="#6D697D" style="fill:#6D697D;fill:color(display-p3 0.4275 0.4118 0.4902);fill-opacity:1;"/>
<path d="M36.8976 30.9845V33.014H37.0017C37.0433 33.014 37.0642 33.014 37.1058 32.993C37.1266 32.993 37.1474 32.9512 37.1682 32.9303L37.7719 32.1771C37.7927 32.1352 37.8343 32.1143 37.8551 32.0934C37.8759 32.0725 37.9176 32.0725 37.98 32.0725H38.5212L37.751 32.993C37.6886 33.0558 37.647 33.1186 37.5845 33.1604C37.6262 33.1814 37.647 33.2023 37.6678 33.2441C37.6886 33.286 37.7094 33.3069 37.751 33.3487L38.5628 34.5413H38.0216C37.98 34.5413 37.9384 34.5413 37.8967 34.5204C37.8551 34.4995 37.8343 34.4786 37.8135 34.4367L37.189 33.4952C37.1682 33.4534 37.1474 33.4324 37.1266 33.4324C37.1058 33.4115 37.0642 33.4115 37.0225 33.4115H36.8976V34.5413H36.3148V30.9845H36.8976Z" fill="#6D697D" style="fill:#6D697D;fill:color(display-p3 0.4275 0.4118 0.4902);fill-opacity:1;"/>
<path d="M40.3529 32.5746C40.3321 32.5955 40.3113 32.6164 40.3113 32.6374C40.2904 32.6374 40.2696 32.6583 40.2488 32.6583C40.228 32.6583 40.1864 32.6583 40.1655 32.6374C40.1239 32.6164 40.1031 32.5955 40.0615 32.5746C40.0198 32.5537 39.9782 32.5327 39.9158 32.5118C39.8533 32.4909 39.7909 32.4909 39.7284 32.4909C39.6036 32.4909 39.5203 32.5118 39.4579 32.5746C39.3954 32.6164 39.3538 32.6792 39.3538 32.7629C39.3538 32.8257 39.3746 32.8675 39.3954 32.8884C39.437 32.9303 39.4787 32.9512 39.5411 32.993C39.6036 33.014 39.666 33.0349 39.7284 33.0558C39.7909 33.0767 39.8741 33.0977 39.9366 33.1186C40.0198 33.1395 40.0823 33.1814 40.1447 33.2023C40.2072 33.2441 40.2904 33.286 40.3321 33.3278C40.3945 33.3697 40.4361 33.4324 40.4778 33.5161C40.5194 33.5789 40.5194 33.6626 40.5194 33.7672C40.5194 33.8927 40.4986 33.9973 40.457 34.1019C40.4153 34.2066 40.3529 34.2903 40.2696 34.353C40.1864 34.4158 40.0823 34.4786 39.9574 34.5204C39.8325 34.5622 39.6868 34.5832 39.5411 34.5832C39.4578 34.5832 39.3746 34.5832 39.2913 34.5622C39.2081 34.5413 39.1248 34.5204 39.0624 34.4995C38.9791 34.4786 38.9167 34.4367 38.8542 34.3949C38.7918 34.353 38.7293 34.3112 38.6877 34.2693L38.8334 34.0392C38.8542 34.0183 38.875 33.9973 38.8959 33.9764C38.9167 33.9555 38.9583 33.9555 38.9791 33.9555C39.0207 33.9555 39.0416 33.9555 39.0832 33.9764C39.1248 33.9973 39.1456 34.0183 39.1873 34.0392C39.2289 34.0601 39.2705 34.081 39.333 34.1019C39.3954 34.1229 39.4579 34.1229 39.5619 34.1229C39.6244 34.1229 39.6868 34.1229 39.7493 34.1019C39.7909 34.081 39.8325 34.0601 39.8741 34.0392C39.9158 34.0183 39.9366 33.9764 39.9366 33.9346C39.9574 33.8927 39.9574 33.8718 39.9574 33.83C39.9574 33.7672 39.9366 33.7253 39.9158 33.6835C39.8741 33.6417 39.8325 33.6207 39.7701 33.5789C39.7076 33.558 39.6452 33.537 39.5827 33.5161C39.5203 33.4952 39.437 33.4743 39.3538 33.4533C39.2705 33.4324 39.2081 33.3906 39.1248 33.3697C39.0624 33.3278 38.9791 33.286 38.9375 33.2441C38.875 33.1814 38.8334 33.1186 38.7918 33.0558C38.7502 32.9721 38.7502 32.8884 38.7502 32.7838C38.7502 32.6792 38.771 32.5955 38.8126 32.4909C38.8542 32.4072 38.9167 32.3235 38.9791 32.2608C39.0624 32.198 39.1456 32.1352 39.2705 32.0934C39.3954 32.0515 39.5203 32.0306 39.666 32.0306C39.8325 32.0306 39.9782 32.0515 40.1239 32.1143C40.2696 32.1771 40.3737 32.2398 40.4778 32.3444L40.3529 32.5746Z" fill="#6D697D" style="fill:#6D697D;fill:color(display-p3 0.4275 0.4118 0.4902);fill-opacity:1;"/>
<path d="M40.8524 34.2275C40.8524 34.1856 40.8524 34.1229 40.8733 34.081C40.8941 34.0392 40.9149 33.9973 40.9565 33.9764C40.9981 33.9346 41.019 33.9136 41.0606 33.8927C41.1022 33.8718 41.1438 33.8718 41.2063 33.8718C41.2479 33.8718 41.3104 33.8718 41.352 33.8927C41.3936 33.9136 41.4353 33.9346 41.4561 33.9764C41.4977 34.0183 41.5185 34.0392 41.5393 34.081C41.5601 34.1229 41.5601 34.1647 41.5601 34.2275C41.5601 34.2693 41.5601 34.3321 41.5393 34.3739C41.5185 34.4158 41.4977 34.4576 41.4561 34.4786C41.4144 34.5204 41.3936 34.5413 41.352 34.5622C41.3104 34.5832 41.2687 34.5832 41.2063 34.5832C41.1647 34.5832 41.1022 34.5832 41.0606 34.5622C41.019 34.5413 40.9773 34.5204 40.9565 34.4786C40.9149 34.4367 40.8941 34.4158 40.8733 34.3739C40.8733 34.3321 40.8524 34.2693 40.8524 34.2275Z" fill="#6D697D" style="fill:#6D697D;fill:color(display-p3 0.4275 0.4118 0.4902);fill-opacity:1;"/>
<path d="M45.5982 31.6122H44.5575V34.5413H43.9122V31.6122H42.8715V31.0891H45.5982V31.6122Z" fill="#6D697D" style="fill:#6D697D;fill:color(display-p3 0.4275 0.4118 0.4902);fill-opacity:1;"/>
<path d="M45.8272 33.3906C45.8272 33.5161 45.8688 33.6207 45.8896 33.7253C45.9312 33.809 45.9729 33.8927 46.0353 33.9555C46.0977 34.0183 46.1602 34.0601 46.2435 34.081C46.3267 34.1019 46.41 34.1229 46.514 34.1229C46.6181 34.1229 46.7014 34.1019 46.7638 34.081C46.8263 34.0601 46.8887 34.0392 46.9511 33.9973C46.9928 33.9764 47.0552 33.9555 47.0969 33.9136C47.1385 33.8927 47.1801 33.8718 47.2009 33.8718C47.2426 33.8718 47.2842 33.8927 47.305 33.9346L47.4715 34.1438C47.4091 34.2275 47.3258 34.2903 47.2426 34.3321C47.1593 34.3739 47.076 34.4158 46.9928 34.4576C46.9095 34.4786 46.8054 34.5204 46.7222 34.5204C46.6389 34.5413 46.5349 34.5413 46.4516 34.5413C46.2851 34.5413 46.1186 34.5204 45.9729 34.4576C45.8272 34.3949 45.7023 34.3112 45.5982 34.2066C45.4941 34.1019 45.4109 33.9555 45.3484 33.7881C45.286 33.6207 45.2652 33.4324 45.2652 33.2232C45.2652 33.0558 45.286 32.8884 45.3484 32.742C45.4109 32.5955 45.4733 32.47 45.5774 32.3654C45.6815 32.2608 45.8063 32.1771 45.952 32.1143C46.0977 32.0515 46.2643 32.0097 46.4516 32.0097C46.5973 32.0097 46.743 32.0306 46.8679 32.0934C46.9928 32.1352 47.1177 32.2189 47.2009 32.3026C47.305 32.4072 47.3674 32.5118 47.4299 32.6583C47.4923 32.8047 47.5131 32.9512 47.5131 33.1395C47.5131 33.2232 47.5131 33.286 47.4923 33.3278C47.4715 33.3487 47.4299 33.3697 47.3883 33.3697H45.8272V33.3906ZM46.9511 33.0349C46.9511 32.9512 46.9303 32.8884 46.9095 32.8257C46.8887 32.7629 46.8471 32.7001 46.8054 32.6374C46.7638 32.5955 46.7014 32.5537 46.6389 32.5118C46.5765 32.4909 46.4932 32.47 46.41 32.47C46.2434 32.47 46.0977 32.5118 46.0145 32.6164C45.9104 32.7211 45.848 32.8466 45.8272 33.0349H46.9511Z" fill="#6D697D" style="fill:#6D697D;fill:color(display-p3 0.4275 0.4118 0.4902);fill-opacity:1;"/>
<path d="M49.6779 32.6164C49.6571 32.6374 49.6362 32.6583 49.6362 32.6792C49.6154 32.7001 49.5946 32.7001 49.5738 32.7001C49.553 32.7001 49.5114 32.7001 49.4905 32.6792C49.4697 32.6583 49.4281 32.6374 49.3865 32.6164C49.3448 32.5955 49.3032 32.5746 49.2408 32.5537C49.1783 32.5328 49.1159 32.5327 49.0326 32.5327C48.9285 32.5327 48.8453 32.5537 48.762 32.5955C48.6788 32.6374 48.6163 32.6792 48.5747 32.7629C48.5331 32.8257 48.4914 32.9094 48.4498 33.014C48.429 33.1186 48.4082 33.2232 48.4082 33.3487C48.4082 33.4743 48.429 33.5998 48.4498 33.7044C48.4706 33.809 48.5123 33.8927 48.5747 33.9555C48.6371 34.0183 48.6996 34.081 48.762 34.1229C48.8453 34.1647 48.9285 34.1856 49.0118 34.1856C49.1159 34.1856 49.1783 34.1647 49.2408 34.1438C49.3032 34.1229 49.3448 34.1019 49.3865 34.0601C49.4281 34.0392 49.4697 33.9973 49.4905 33.9764C49.5114 33.9555 49.553 33.9346 49.5946 33.9346C49.6362 33.9346 49.6779 33.9555 49.6987 33.9973L49.8652 34.2066C49.8028 34.2903 49.7195 34.353 49.6571 34.3949C49.5738 34.4367 49.5114 34.4786 49.4281 34.5204C49.3448 34.5413 49.2616 34.5832 49.1783 34.5832C49.0951 34.6041 49.0118 34.6041 48.9285 34.6041C48.7828 34.6041 48.6371 34.5832 48.5123 34.5204C48.3874 34.4576 48.2625 34.3739 48.1584 34.2693C48.0543 34.1647 47.9711 34.0183 47.9294 33.8718C47.867 33.7044 47.8462 33.537 47.8462 33.3278C47.8462 33.1395 47.867 32.9721 47.9294 32.8257C47.9711 32.6792 48.0543 32.5328 48.1584 32.4281C48.2625 32.3235 48.3874 32.2189 48.5331 32.1561C48.6788 32.0934 48.8453 32.0515 49.0534 32.0515C49.2408 32.0515 49.3865 32.0725 49.5322 32.1352C49.6779 32.198 49.8028 32.2817 49.9068 32.3863L49.6779 32.6164Z" fill="#6D697D" style="fill:#6D697D;fill:color(display-p3 0.4275 0.4118 0.4902);fill-opacity:1;"/>
<path d="M50.8019 32.3654C50.9059 32.2817 51.01 32.198 51.1141 32.1561C51.2182 32.0934 51.3639 32.0725 51.5096 32.0725C51.6345 32.0725 51.7594 32.0934 51.8634 32.1352C51.9675 32.1771 52.0508 32.2398 52.1132 32.3235C52.1756 32.4072 52.2381 32.5118 52.2797 32.6164C52.3213 32.7211 52.3422 32.8466 52.3422 32.993V34.5622H51.7594V32.993C51.7594 32.8466 51.7177 32.7211 51.6553 32.6374C51.5928 32.5537 51.4888 32.5118 51.3431 32.5118C51.239 32.5118 51.1557 32.5327 51.0516 32.5746C50.9684 32.6164 50.8851 32.6792 50.8019 32.7629V34.5413H50.2191V30.9845H50.8019V32.3654Z" fill="#6D697D" style="fill:#6D697D;fill:color(display-p3 0.4275 0.4118 0.4902);fill-opacity:1;"/>
<path d="M53.4662 32.3863C53.5078 32.3444 53.5702 32.2817 53.6327 32.2398C53.6951 32.198 53.7367 32.1561 53.7992 32.1352C53.8616 32.1143 53.9241 32.0725 53.9865 32.0725C54.049 32.0515 54.1322 32.0515 54.2155 32.0515C54.3404 32.0515 54.4653 32.0725 54.5693 32.1143C54.6734 32.1561 54.7567 32.2189 54.8191 32.3026C54.8816 32.3863 54.944 32.4909 54.9856 32.5955C55.0273 32.7001 55.0481 32.8257 55.0481 32.9721V34.5413H54.4653V32.9721C54.4653 32.8257 54.4236 32.7001 54.3612 32.6164C54.2987 32.5327 54.1947 32.4909 54.049 32.4909C53.9449 32.4909 53.8616 32.5118 53.7576 32.5537C53.6743 32.5955 53.591 32.6583 53.5078 32.742V34.5204H52.925V32.0725H53.2788C53.3621 32.0725 53.4037 32.1143 53.4245 32.1771L53.4662 32.3863Z" fill="#6D697D" style="fill:#6D697D;fill:color(display-p3 0.4275 0.4118 0.4902);fill-opacity:1;"/>
<path d="M56.6716 32.0515C56.859 32.0515 57.0255 32.0725 57.1712 32.1352C57.3169 32.198 57.4418 32.2817 57.5458 32.3863C57.6499 32.4909 57.7332 32.6374 57.7956 32.7838C57.8581 32.9303 57.8789 33.1186 57.8789 33.3069C57.8789 33.4952 57.8581 33.6835 57.7956 33.83C57.7332 33.9764 57.6499 34.1229 57.5458 34.2275C57.4418 34.3321 57.3169 34.4158 57.1712 34.4786C57.0255 34.5413 56.859 34.5622 56.6716 34.5622C56.4843 34.5622 56.3178 34.5413 56.1721 34.4786C56.0264 34.4158 55.9015 34.3321 55.7974 34.2275C55.6933 34.1229 55.6101 33.9764 55.5476 33.83C55.4852 33.6835 55.4644 33.4952 55.4644 33.3069C55.4644 33.1186 55.4852 32.9303 55.5476 32.7838C55.6101 32.6374 55.6933 32.4909 55.7974 32.3863C55.9015 32.2817 56.0264 32.198 56.1721 32.1352C56.3386 32.0934 56.5051 32.0515 56.6716 32.0515ZM56.6716 34.1229C56.8798 34.1229 57.0255 34.0601 57.1295 33.9136C57.2336 33.7672 57.2753 33.5789 57.2753 33.3069C57.2753 33.0349 57.2336 32.8466 57.1295 32.7001C57.0255 32.5537 56.8798 32.4909 56.6716 32.4909C56.4635 32.4909 56.3178 32.5537 56.2137 32.7001C56.1096 32.8466 56.068 33.0349 56.068 33.3069C56.068 33.5789 56.1096 33.7672 56.2137 33.9136C56.3178 34.0601 56.4635 34.1229 56.6716 34.1229Z" fill="#6D697D" style="fill:#6D697D;fill:color(display-p3 0.4275 0.4118 0.4902);fill-opacity:1;"/>
<path d="M58.9404 30.9845V34.5413H58.3576V30.9845H58.9404Z" fill="#6D697D" style="fill:#6D697D;fill:color(display-p3 0.4275 0.4118 0.4902);fill-opacity:1;"/>
<path d="M60.6056 32.0515C60.7929 32.0515 60.9595 32.0725 61.1052 32.1352C61.2509 32.198 61.3757 32.2817 61.4798 32.3863C61.5839 32.4909 61.6672 32.6374 61.7296 32.7838C61.792 32.9303 61.8129 33.1186 61.8129 33.3069C61.8129 33.4952 61.792 33.6835 61.7296 33.83C61.6672 33.9764 61.5839 34.1229 61.4798 34.2275C61.3757 34.3321 61.2509 34.4158 61.1052 34.4786C60.9595 34.5413 60.7929 34.5622 60.6056 34.5622C60.4183 34.5622 60.2518 34.5413 60.1061 34.4786C59.9604 34.4158 59.8355 34.3321 59.7314 34.2275C59.6273 34.1229 59.5441 33.9764 59.4816 33.83C59.4192 33.6835 59.3984 33.4952 59.3984 33.3069C59.3984 33.1186 59.4192 32.9303 59.4816 32.7838C59.5441 32.6374 59.6273 32.4909 59.7314 32.3863C59.8355 32.2817 59.9604 32.198 60.1061 32.1352C60.2518 32.0934 60.4183 32.0515 60.6056 32.0515ZM60.6056 34.1229C60.8138 34.1229 60.9595 34.0601 61.0635 33.9136C61.1676 33.7672 61.2092 33.5789 61.2092 33.3069C61.2092 33.0349 61.1676 32.8466 61.0635 32.7001C60.9595 32.5537 60.8138 32.4909 60.6056 32.4909C60.3975 32.4909 60.2518 32.5537 60.1477 32.7001C60.0436 32.8466 60.002 33.0349 60.002 33.3069C60.002 33.5789 60.0436 33.7672 60.1477 33.9136C60.2518 34.0601 60.3975 34.1229 60.6056 34.1229Z" fill="#6D697D" style="fill:#6D697D;fill:color(display-p3 0.4275 0.4118 0.4902);fill-opacity:1;"/>
<path d="M64.3939 32.4072C64.3939 32.47 64.3523 32.5118 64.269 32.5327L64.04 32.5746C64.0817 32.6583 64.0817 32.742 64.0817 32.8466C64.0817 32.9721 64.0608 33.0767 64.0192 33.1814C63.9776 33.286 63.8943 33.3697 63.8111 33.4324C63.7278 33.4952 63.6237 33.558 63.4989 33.5998C63.374 33.6417 63.2491 33.6626 63.1242 33.6626C63.0826 33.6626 63.0201 33.6626 62.9785 33.6626C62.9369 33.6626 62.8952 33.6417 62.8536 33.6417C62.7703 33.6835 62.7495 33.7463 62.7495 33.7881C62.7495 33.83 62.7703 33.8718 62.812 33.8927C62.8536 33.9136 62.916 33.9346 62.9993 33.9346C63.0826 33.9346 63.1658 33.9555 63.2491 33.9555C63.3531 33.9555 63.4364 33.9555 63.5405 33.9764C63.6446 33.9764 63.7486 33.9973 63.8319 34.0183C63.936 34.0392 64.0192 34.0601 64.0817 34.1229C64.1649 34.1647 64.2066 34.2275 64.269 34.2903C64.3106 34.3739 64.3314 34.4576 64.3314 34.5832C64.3314 34.6878 64.3106 34.7924 64.2482 34.897C64.1857 35.0016 64.1233 35.0853 64.0192 35.169C63.9151 35.2527 63.7903 35.3155 63.6446 35.3573C63.4989 35.3992 63.3323 35.4201 63.145 35.4201C62.9577 35.4201 62.7912 35.3992 62.6663 35.3573C62.5206 35.3155 62.4165 35.2736 62.3332 35.2109C62.25 35.1481 62.1667 35.0853 62.1251 35.0016C62.0834 34.9179 62.0626 34.8342 62.0626 34.7506C62.0626 34.6459 62.1043 34.5413 62.1667 34.4576C62.2292 34.3739 62.3332 34.3112 62.4581 34.2693C62.3957 34.2275 62.3332 34.1856 62.3124 34.1438C62.2708 34.081 62.25 34.0183 62.25 33.9136C62.25 33.8718 62.25 33.83 62.2708 33.809C62.2916 33.7672 62.3124 33.7253 62.3332 33.6835C62.354 33.6417 62.3957 33.5998 62.4373 33.5789C62.4789 33.537 62.5206 33.5161 62.583 33.4952C62.4581 33.4324 62.354 33.3487 62.2916 33.2232C62.2292 33.1186 62.1875 32.9721 62.1875 32.8257C62.1875 32.7001 62.2083 32.5955 62.25 32.4909C62.2916 32.3863 62.3749 32.3026 62.4581 32.2398C62.5414 32.1771 62.6454 32.1143 62.7703 32.0725C62.8952 32.0306 63.0201 32.0097 63.1658 32.0097C63.2699 32.0097 63.374 32.0306 63.4572 32.0515C63.5405 32.0725 63.6237 32.1143 63.707 32.1561H64.3939V32.4072ZM63.7903 34.6669C63.7903 34.625 63.7694 34.5832 63.7486 34.5413C63.7278 34.5204 63.6862 34.4786 63.6237 34.4786C63.5821 34.4576 63.5197 34.4576 63.4572 34.4367C63.3948 34.4367 63.3115 34.4158 63.2491 34.4158C63.1658 34.4158 63.1034 34.4158 63.0201 34.3949C62.9369 34.3949 62.8744 34.3949 62.7912 34.3739C62.7287 34.4158 62.6663 34.4576 62.6246 34.4995C62.583 34.5413 62.5622 34.6041 62.5622 34.6669C62.5622 34.7087 62.583 34.7506 62.6038 34.7924C62.6246 34.8342 62.6663 34.8552 62.7079 34.897C62.7495 34.9179 62.812 34.9389 62.8952 34.9598C62.9785 34.9807 63.0617 34.9807 63.1658 34.9807C63.2699 34.9807 63.374 34.9807 63.4572 34.9598C63.5405 34.9389 63.6029 34.9179 63.6446 34.897C63.6862 34.8761 63.7278 34.8342 63.7486 34.7924C63.7903 34.7506 63.7903 34.7087 63.7903 34.6669ZM63.1242 33.265C63.2074 33.265 63.2699 33.265 63.3115 33.2441C63.374 33.2232 63.4156 33.2023 63.4364 33.1604C63.478 33.1186 63.4988 33.0767 63.5197 33.0349C63.5405 32.993 63.5405 32.9303 63.5405 32.8675C63.5405 32.742 63.4989 32.6583 63.4364 32.5746C63.374 32.5118 63.2491 32.47 63.1034 32.47C62.9577 32.47 62.8536 32.5118 62.7703 32.5746C62.7079 32.6374 62.6663 32.742 62.6663 32.8675C62.6663 32.9303 62.6663 32.9721 62.6871 33.0349C62.7079 33.0767 62.7287 33.1186 62.7703 33.1604C62.812 33.2023 62.8536 33.2232 62.916 33.2441C62.9993 33.2441 63.0617 33.265 63.1242 33.265Z" fill="#6D697D" style="fill:#6D697D;fill:color(display-p3 0.4275 0.4118 0.4902);fill-opacity:1;"/>
<path d="M65.4554 31.382C65.4554 31.4239 65.4554 31.4866 65.4346 31.5285C65.4138 31.5703 65.393 31.6122 65.3514 31.654C65.3097 31.6958 65.2681 31.7168 65.2265 31.7377C65.1848 31.7586 65.1224 31.7586 65.0808 31.7586C65.0391 31.7586 64.9767 31.7586 64.9351 31.7377C64.8934 31.7168 64.8518 31.6958 64.8102 31.654C64.7685 31.6122 64.7477 31.5912 64.7269 31.5285C64.7061 31.4866 64.7061 31.4448 64.7061 31.382C64.7061 31.3192 64.7061 31.2774 64.7269 31.2355C64.7477 31.1937 64.7685 31.1519 64.8102 31.11C64.8518 31.0682 64.8726 31.0472 64.9351 31.0263C64.9767 31.0054 65.0183 31.0054 65.0808 31.0054C65.1432 31.0054 65.1848 31.0054 65.2265 31.0263C65.2681 31.0472 65.3097 31.0682 65.3514 31.11C65.393 31.1519 65.4138 31.1937 65.4346 31.2355C65.4346 31.2774 65.4554 31.3192 65.4554 31.382ZM65.3722 32.0934V34.5413H64.7894V32.0934H65.3722Z" fill="#6D697D" style="fill:#6D697D;fill:color(display-p3 0.4275 0.4118 0.4902);fill-opacity:1;"/>
<path d="M66.4129 33.3906C66.4129 33.5161 66.4545 33.6207 66.4754 33.7253C66.517 33.809 66.5586 33.8927 66.6211 33.9555C66.6835 34.0183 66.7459 34.0601 66.8292 34.081C66.9125 34.1019 66.9957 34.1229 67.0998 34.1229C67.2039 34.1229 67.2871 34.1019 67.3496 34.081C67.412 34.0601 67.4745 34.0392 67.5369 33.9973C67.5785 33.9764 67.641 33.9555 67.6826 33.9136C67.7242 33.8927 67.7659 33.8718 67.7867 33.8718C67.8283 33.8718 67.8699 33.8927 67.8908 33.9346L68.0573 34.1438C67.9948 34.2275 67.9116 34.2903 67.8283 34.3321C67.7451 34.3739 67.6618 34.4158 67.5785 34.4576C67.4953 34.4786 67.3912 34.5204 67.3079 34.5204C67.2247 34.5413 67.1206 34.5413 67.0374 34.5413C66.8708 34.5413 66.7043 34.5204 66.5586 34.4576C66.4129 34.3949 66.288 34.3112 66.184 34.2066C66.0799 34.1019 65.9966 33.9555 65.9342 33.7881C65.8717 33.6207 65.8509 33.4324 65.8509 33.2232C65.8509 33.0558 65.8717 32.8884 65.9342 32.742C65.9966 32.5955 66.0591 32.47 66.1631 32.3654C66.2672 32.2608 66.3921 32.1771 66.5378 32.1143C66.6835 32.0515 66.85 32.0097 67.0374 32.0097C67.1831 32.0097 67.3288 32.0306 67.4536 32.0934C67.5785 32.1352 67.7034 32.2189 67.7867 32.3026C67.8908 32.4072 67.9532 32.5118 68.0156 32.6583C68.0781 32.8047 68.0989 32.9512 68.0989 33.1395C68.0989 33.2232 68.0989 33.286 68.0781 33.3278C68.0573 33.3487 68.0156 33.3697 67.974 33.3697H66.4129V33.3906ZM67.5369 33.0349C67.5369 32.9512 67.5161 32.8884 67.4953 32.8257C67.4745 32.7629 67.4328 32.7001 67.3912 32.6374C67.3496 32.5955 67.2871 32.5537 67.2247 32.5118C67.1622 32.4909 67.079 32.47 66.9957 32.47C66.8292 32.47 66.6835 32.5118 66.6002 32.6164C66.4962 32.7211 66.4337 32.8466 66.4129 33.0349H67.5369Z" fill="#6D697D" style="fill:#6D697D;fill:color(display-p3 0.4275 0.4118 0.4902);fill-opacity:1;"/>
<path d="M70.0139 32.5746C69.993 32.5955 69.9722 32.6164 69.9722 32.6374C69.9514 32.6374 69.9306 32.6583 69.9098 32.6583C69.889 32.6583 69.8473 32.6583 69.8265 32.6374C69.7849 32.6164 69.7641 32.5955 69.7225 32.5746C69.6808 32.5537 69.6392 32.5327 69.5768 32.5118C69.5143 32.4909 69.4519 32.4909 69.3894 32.4909C69.2645 32.4909 69.1813 32.5118 69.1188 32.5746C69.0564 32.6374 69.0148 32.6792 69.0148 32.7629C69.0148 32.8257 69.0356 32.8675 69.0564 32.8884C69.098 32.9303 69.1396 32.9512 69.2021 32.993C69.2645 33.014 69.327 33.0349 69.3894 33.0558C69.4519 33.0767 69.5351 33.0977 69.5976 33.1186C69.6808 33.1395 69.7433 33.1814 69.8057 33.2023C69.8682 33.2441 69.9514 33.286 69.9931 33.3278C70.0555 33.3697 70.0971 33.4324 70.1387 33.5161C70.1804 33.5789 70.1804 33.6626 70.1804 33.7672C70.1804 33.8927 70.1596 33.9973 70.1179 34.1019C70.0763 34.2066 70.0139 34.2903 69.9306 34.353C69.8473 34.4158 69.7433 34.4786 69.6184 34.5204C69.4935 34.5622 69.3478 34.5832 69.2021 34.5832C69.1188 34.5832 69.0356 34.5832 68.9523 34.5622C68.8691 34.5413 68.7858 34.5204 68.7233 34.4995C68.6401 34.4786 68.5776 34.4367 68.5152 34.3949C68.4528 34.353 68.3903 34.3112 68.3487 34.2693L68.4944 34.0392C68.5152 34.0183 68.536 33.9973 68.5568 33.9764C68.5776 33.9555 68.6193 33.9555 68.6401 33.9555C68.6817 33.9555 68.7025 33.9555 68.7442 33.9764C68.7858 33.9973 68.8066 34.0183 68.8482 34.0392C68.8899 34.0601 68.9315 34.081 68.9939 34.1019C69.0564 34.1229 69.1188 34.1229 69.2229 34.1229C69.2853 34.1229 69.3478 34.1229 69.4102 34.1019C69.4519 34.081 69.4935 34.0601 69.5351 34.0392C69.5767 34.0183 69.5976 33.9764 69.5976 33.9346C69.6184 33.8927 69.6184 33.8718 69.6184 33.83C69.6184 33.7672 69.5976 33.7253 69.5768 33.6835C69.5351 33.6417 69.4935 33.6207 69.431 33.5789C69.3686 33.558 69.3062 33.537 69.2437 33.5161C69.1813 33.4952 69.098 33.4743 69.0148 33.4533C68.9315 33.4324 68.869 33.3906 68.7858 33.3697C68.7233 33.3278 68.6401 33.286 68.5985 33.2441C68.536 33.1814 68.4944 33.1186 68.4528 33.0558C68.4111 32.9721 68.4111 32.8884 68.4111 32.7838C68.4111 32.6792 68.4319 32.5955 68.4736 32.4909C68.5152 32.4072 68.5776 32.3235 68.6401 32.2608C68.7233 32.198 68.8066 32.1352 68.9315 32.0934C69.0564 32.0515 69.1813 32.0306 69.327 32.0306C69.4935 32.0306 69.6392 32.0515 69.7849 32.1143C69.9306 32.1771 70.0347 32.2398 70.1387 32.3444L70.0139 32.5746Z" fill="#6D697D" style="fill:#6D697D;fill:color(display-p3 0.4275 0.4118 0.4902);fill-opacity:1;"/>
</svg>
