<svg width="143" height="40" viewBox="0 0 143 40" fill="none" xmlns="http://www.w3.org/2000/svg">
<path fill-rule="evenodd" clip-rule="evenodd" d="M137.466 16.1365C135.594 16.1365 133.882 16.9837 132.297 18.2704L131.948 16.5133H129.157V31.3563H132.455V20.7809C133.661 19.7773 135.023 18.9919 136.419 18.9919C138.418 18.9919 138.861 20.5617 138.861 22.5071V31.3563H142.16V21.4716C142.16 17.3924 139.844 16.1365 137.466 16.1365ZM119.196 29.0021C116.69 29.0021 115.263 26.8683 115.263 23.8875C115.263 20.9384 116.69 18.8035 119.196 18.8035C121.702 18.8035 123.098 20.9384 123.098 23.8875C123.098 26.8683 121.702 29.0021 119.196 29.0021ZM119.196 16.1365C114.788 16.1365 111.871 19.4634 111.871 23.8875C111.871 28.3125 114.82 31.669 119.196 31.669C123.572 31.669 126.49 28.3125 126.49 23.8875C126.49 19.4634 123.572 16.1365 119.196 16.1365ZM105.856 29.0021C103.13 29.0021 101.353 27.1823 101.353 23.9501C101.353 21.0012 103.13 18.8035 106.047 18.8035C107.505 18.8035 108.647 19.2122 109.694 19.9018V17.1093C108.838 16.608 107.505 16.1365 105.73 16.1365C101.226 16.1365 97.9598 19.5261 97.9598 24.0438C97.9598 28.3125 100.624 31.669 105.412 31.669C107.378 31.669 109.219 31.0423 110.36 30.257L109.408 27.9986C108.361 28.5625 107.315 29.0021 105.856 29.0021ZM95.1481 28.7213C94.4179 28.7213 94.0382 28.4072 94.0382 27.3079V9.13918H90.7395V28.2177C90.7395 30.3836 91.8817 31.5754 94.1963 31.5754C94.989 31.5754 95.972 31.419 96.7658 31.0732L96.0989 28.5318C95.8139 28.6265 95.3696 28.7213 95.1481 28.7213ZM83.9118 27.6527C83.3095 28.187 82.1683 29.0661 80.6453 29.0661C79.1558 29.0661 78.2038 28.187 78.2038 26.7747C78.2038 25.9275 78.5523 25.2677 79.2504 24.8921C79.8216 24.5781 80.5819 24.4207 81.6607 24.3897L83.9118 24.295V27.6527ZM87.2105 21.4397C87.2105 17.8308 85.1175 16.1365 81.4069 16.1365C79.4408 16.1365 77.538 16.608 75.7612 17.6116L76.9035 19.7773C77.9501 19.1813 79.3139 18.678 80.8992 18.678C82.676 18.678 83.9118 19.4953 83.9118 21.4397V22.0676L81.2164 22.1612C79.6936 22.2251 78.4254 22.4124 77.379 22.9466C75.8571 23.6989 74.8739 24.9857 74.8739 26.9619C74.8739 29.8183 76.9359 31.669 79.7579 31.669C81.6285 31.669 83.0245 30.8858 84.1334 29.8493L84.6732 31.3563H87.4955C87.274 30.5719 87.2105 29.2852 87.2105 27.1514V21.4397ZM71.7225 11.9626C72.3248 11.9626 72.9282 12.1201 73.5305 12.3393L74.1963 9.73516C73.2768 9.32756 72.2302 9.13918 71.3106 9.13918C68.583 9.13918 66.49 10.7398 66.49 14.2858V16.5133H64.3335V19.0866H66.49V31.3563H69.7887V19.0866H72.8325L73.6574 16.5133H69.7887V14.222C69.7887 12.7789 70.3911 11.9626 71.7225 11.9626ZM59.4311 29.0021C58.4481 29.0021 57.9404 28.4689 57.9404 27.1206V19.0866H61.6199L62.4437 16.5133H57.9404V12.0882L54.6426 13.0928V16.5133H52.0097V19.0866H54.6426V27.841C54.6426 30.257 56.1335 31.669 58.6384 31.669C60.1291 31.669 61.7779 31.2306 62.8245 30.508L61.7779 28.2487C61.1757 28.6573 60.3506 29.0021 59.4311 29.0021ZM43.4354 20.3105C43.4354 19.1494 44.482 18.7418 45.8145 18.7418C47.3677 18.7418 48.668 19.1494 49.8413 19.6517V16.8592C48.7002 16.4186 47.2719 16.1365 45.6865 16.1365C42.2308 16.1365 40.2001 17.9883 40.2001 20.4989C40.2001 25.4253 47.2408 24.4525 47.2408 27.2131C47.2408 28.5318 46.0039 29.0661 44.4185 29.0661C42.8332 29.0661 41.4683 28.5318 40.4228 27.8729L39.4074 30.2889C40.5497 30.9785 42.3566 31.669 44.5767 31.669C47.7485 31.669 50.5071 30.3207 50.5071 27.1514C50.5071 22.0048 43.4354 23.0083 43.4354 20.3105Z" fill="#6D697D" style="fill:#6D697D;fill:color(display-p3 0.4275 0.4118 0.4902);fill-opacity:1;"/>
<path fill-rule="evenodd" clip-rule="evenodd" d="M24.2642 24.0934L18.5389 14.8831L19.093 13.5806L18.5389 8.64916L28.6054 19.9998L27.035 23.4427L24.2642 24.0934Z" fill="#6D697D" style="fill:#6D697D;fill:color(display-p3 0.4275 0.4118 0.4902);fill-opacity:1;"/>
<path fill-rule="evenodd" clip-rule="evenodd" d="M9.67199 18.3249L0.50883 7.16975L0.159668 4.64868L17.6146 15.2551L24.2642 24.0934L27.035 23.4427L29.621 23.3498L32.115 25.4885L30.7292 25.8614L27.4043 28.746L25.2806 29.3969L19.4617 31.6306L12.0732 32.1881L9.48728 33.4905L8.37899 33.1185L3.57647 35.3514L2.6529 34.9792L14.0131 28.3731L9.67199 18.3249Z" fill="#6D697D" style="fill:#6D697D;fill:color(display-p3 0.4275 0.4118 0.4902);fill-opacity:1;"/>
</svg>
