<svg width="367" height="503" viewBox="0 0 367 503" fill="none" xmlns="http://www.w3.org/2000/svg">
<g clip-path="url(#clip0_7_2)">
<path d="M362.39 5.01999H5.00001V425.06V425.51L183.7 497.42L362.39 425.51V425.06V5.01999Z" fill="white"/>
<path d="M211.59 328.964C211.44 328.273 211.179 327.76 210.806 327.424C210.432 327.069 209.9 326.892 209.21 326.892C208.146 326.892 207.38 327.359 206.914 328.292C206.447 329.207 206.204 330.663 206.186 332.66C206.596 332.007 207.184 331.493 207.95 331.12C208.734 330.747 209.592 330.56 210.526 330.56C212.355 330.56 213.82 331.139 214.922 332.296C216.042 333.453 216.602 335.068 216.602 337.14C216.602 338.503 216.322 339.697 215.762 340.724C215.22 341.751 214.418 342.553 213.354 343.132C212.308 343.711 211.067 344 209.63 344C206.755 344 204.758 343.104 203.638 341.312C202.518 339.501 201.958 336.907 201.958 333.528C201.958 329.981 202.546 327.349 203.722 325.632C204.916 323.896 206.82 323.028 209.434 323.028C210.834 323.028 212.01 323.308 212.962 323.868C213.932 324.409 214.66 325.128 215.146 326.024C215.65 326.92 215.948 327.9 216.042 328.964H211.59ZM209.378 334.34C208.575 334.34 207.903 334.583 207.362 335.068C206.839 335.535 206.578 336.207 206.578 337.084C206.578 337.98 206.82 338.68 207.306 339.184C207.81 339.688 208.519 339.94 209.434 339.94C210.255 339.94 210.899 339.697 211.366 339.212C211.851 338.708 212.094 338.027 212.094 337.168C212.094 336.291 211.86 335.6 211.394 335.096C210.927 334.592 210.255 334.34 209.378 334.34Z" fill="black"/>
<path d="M185.318 340.052C185.952 339.548 186.242 339.315 186.186 339.352C188.015 337.84 189.452 336.599 190.498 335.628C191.562 334.657 192.458 333.64 193.186 332.576C193.914 331.512 194.278 330.476 194.278 329.468C194.278 328.703 194.1 328.105 193.746 327.676C193.391 327.247 192.859 327.032 192.15 327.032C191.44 327.032 190.88 327.303 190.47 327.844C190.078 328.367 189.882 329.113 189.882 330.084H185.262C185.299 328.497 185.635 327.172 186.27 326.108C186.923 325.044 187.772 324.26 188.818 323.756C189.882 323.252 191.058 323 192.346 323C194.567 323 196.238 323.569 197.358 324.708C198.496 325.847 199.066 327.331 199.066 329.16C199.066 331.157 198.384 333.015 197.022 334.732C195.659 336.431 193.923 338.092 191.814 339.716H199.374V343.608H185.318V340.052Z" fill="black"/>
<path d="M167.22 333.388C167.22 330.177 167.836 327.648 169.068 325.8C170.319 323.952 172.325 323.028 175.088 323.028C177.851 323.028 179.848 323.952 181.08 325.8C182.331 327.648 182.956 330.177 182.956 333.388C182.956 336.636 182.331 339.184 181.08 341.032C179.848 342.88 177.851 343.804 175.088 343.804C172.325 343.804 170.319 342.88 169.068 341.032C167.836 339.184 167.22 336.636 167.22 333.388ZM178.252 333.388C178.252 331.503 178.047 330.056 177.636 329.048C177.225 328.021 176.376 327.508 175.088 327.508C173.8 327.508 172.951 328.021 172.54 329.048C172.129 330.056 171.924 331.503 171.924 333.388C171.924 334.657 171.999 335.712 172.148 336.552C172.297 337.373 172.596 338.045 173.044 338.568C173.511 339.072 174.192 339.324 175.088 339.324C175.984 339.324 176.656 339.072 177.104 338.568C177.571 338.045 177.879 337.373 178.028 336.552C178.177 335.712 178.252 334.657 178.252 333.388Z" fill="black"/>
<path d="M151.056 340.052C151.691 339.548 151.98 339.315 151.924 339.352C153.753 337.84 155.191 336.599 156.236 335.628C157.3 334.657 158.196 333.64 158.924 332.576C159.652 331.512 160.016 330.476 160.016 329.468C160.016 328.703 159.839 328.105 159.484 327.676C159.129 327.247 158.597 327.032 157.888 327.032C157.179 327.032 156.619 327.303 156.208 327.844C155.816 328.367 155.62 329.113 155.62 330.084H151C151.037 328.497 151.373 327.172 152.008 326.108C152.661 325.044 153.511 324.26 154.556 323.756C155.62 323.252 156.796 323 158.084 323C160.305 323 161.976 323.569 163.096 324.708C164.235 325.847 164.804 327.331 164.804 329.16C164.804 331.157 164.123 333.015 162.76 334.732C161.397 336.431 159.661 338.092 157.552 339.716H165.112V343.608H151.056V340.052Z" fill="black"/>
<path d="M183.5 502.81L0 428.96V0H367V428.96L183.5 502.8V502.81ZM9.61 422.06L183.5 492.04L357.39 422.06V10.05H9.61V422.06Z" fill="url(#paint0_linear_7_2)"/>
<path d="M28.82 387.71V410.4V410.77L183.5 470.28L338.18 410.77V410.4V387.71L183.5 447.22L28.82 387.71Z" fill="#FC584E"/>
<path d="M28.82 355.53V378.22V378.58L183.5 438.09L338.18 378.58V378.22V355.53L183.5 415.03L28.82 355.53Z" fill="#FF7E6E"/>
<path d="M28.82 323.34V346.03V346.4L183.5 405.91L338.18 346.4V346.03V323.34L183.5 382.85L28.82 323.34Z" fill="#FFA090"/>
<path d="M79.07 127.08V130.47H77C75.56 130.56 74.14 130.12 73.01 129.21C72.05 128.36 71.63 126.96 71.63 125.01V118.28H69.47V114.96H71.62V111.12H75.57V114.96H79.04V118.28H75.57V125.01C75.51 125.57 75.67 126.13 76.01 126.58C76.44 126.93 76.98 127.09 77.53 127.03L79.07 127.08Z" fill="#B41D1B"/>
<path d="M96.34 123.46H84.97C84.93 124.59 85.33 125.68 86.08 126.52C86.78 127.17 87.7 127.51 88.65 127.48C89.47 127.51 90.27 127.28 90.94 126.81C91.54 126.37 91.95 125.72 92.1 124.99H96.27C95.86 127.18 94.4 129.02 92.36 129.91C91.26 130.41 90.06 130.66 88.85 130.64C87.45 130.67 86.06 130.34 84.81 129.68C83.65 129.05 82.7 128.09 82.07 126.93C80.76 124.26 80.76 121.13 82.07 118.46C82.69 117.29 83.64 116.33 84.81 115.7C86.05 115.05 87.44 114.72 88.85 114.74C90.25 114.71 91.63 115.04 92.87 115.7C93.99 116.31 94.91 117.22 95.53 118.32C96.18 119.48 96.51 120.78 96.49 122.11C96.47 122.57 96.42 123.02 96.33 123.46H96.34ZM91.54 118.85C90.81 118.21 89.87 117.86 88.9 117.89C87.91 117.85 86.95 118.2 86.21 118.85C85.43 119.61 85 120.65 85.01 121.73H92.53C92.66 120.66 92.28 119.6 91.51 118.85H91.54Z" fill="#B41D1B"/>
<path d="M111.24 116.38C112.59 117.49 113.49 119.07 113.75 120.8H109.58C109.44 120.04 109.03 119.36 108.43 118.88C107.78 118.39 106.98 118.14 106.16 118.17C105.16 118.15 104.2 118.58 103.55 119.33C102.15 121.38 102.15 124.08 103.55 126.13C104.21 126.88 105.16 127.31 106.16 127.29C106.98 127.32 107.78 127.07 108.43 126.57C109.03 126.09 109.44 125.41 109.58 124.65H113.75C113.49 126.38 112.59 127.96 111.24 129.07C109.82 130.18 108.05 130.76 106.24 130.69C104.84 130.72 103.45 130.39 102.2 129.73C101.04 129.1 100.09 128.14 99.46 126.98C98.15 124.31 98.15 121.18 99.46 118.51C100.08 117.34 101.03 116.38 102.2 115.75C103.44 115.1 104.83 114.77 106.24 114.79C108.04 114.72 109.81 115.28 111.24 116.38Z" fill="#B41D1B"/>
<path d="M130.06 116.5C131.2 117.89 131.77 119.66 131.65 121.45V130.47H127.77V121.9C127.83 120.85 127.49 119.82 126.81 119.02C126.13 118.32 125.18 117.95 124.21 117.99C123.2 117.95 122.21 118.35 121.52 119.09C120.81 119.97 120.47 121.09 120.56 122.22V130.45H116.61V109.76H120.56V118.07C120.95 117.05 121.66 116.19 122.59 115.62C123.57 115.02 124.71 114.71 125.86 114.74C127.45 114.69 128.99 115.33 130.07 116.51L130.06 116.5Z" fill="#B41D1B"/>
<path d="M141.37 115.58C142.33 115.01 143.44 114.71 144.56 114.72V118.95H143.42C140.53 118.95 139.08 120.3 139.08 122.99V130.46H135.14V114.95H139.08V117.91C139.63 116.95 140.42 116.15 141.38 115.58H141.37Z" fill="#B41D1B"/>
<path d="M161.19 123.46H149.87C149.83 124.59 150.23 125.68 150.99 126.52C151.69 127.17 152.61 127.52 153.56 127.48C154.37 127.51 155.17 127.28 155.84 126.81C156.44 126.37 156.86 125.72 157 124.99H161.17C160.97 126.04 160.52 127.03 159.85 127.87C159.16 128.74 158.28 129.43 157.27 129.88C154.85 130.93 152.08 130.84 149.73 129.64C148.56 129.01 147.61 128.06 146.98 126.89C145.67 124.22 145.67 121.09 146.98 118.42C147.6 117.25 148.56 116.29 149.73 115.66C150.97 115.01 152.35 114.68 153.76 114.7C155.16 114.67 156.54 115 157.78 115.66C158.9 116.26 159.82 117.17 160.44 118.28C161.09 119.44 161.42 120.74 161.4 122.07C161.38 122.54 161.3 123.01 161.19 123.46ZM156.39 118.85C155.67 118.2 154.72 117.86 153.75 117.89C152.76 117.85 151.8 118.2 151.06 118.85C150.29 119.61 149.86 120.65 149.86 121.73H157.39C157.51 120.66 157.13 119.6 156.36 118.85H156.39Z" fill="#B41D1B"/>
<path d="M170.87 126.52L174.79 114.99H178.99L173.23 130.5H168.43L162.67 114.99H166.9L170.89 126.52H170.87Z" fill="#B41D1B"/>
<path d="M181.39 108.96C182.43 108.15 183.89 108.15 184.93 108.96C185.78 109.76 185.82 111.1 185.02 111.95C184.99 111.98 184.96 112.01 184.93 112.04C183.89 112.85 182.43 112.85 181.39 112.04C180.54 111.24 180.5 109.9 181.3 109.05C181.33 109.02 181.36 108.99 181.39 108.96ZM185.12 114.96V130.47H181.17V114.96H185.12Z" fill="#B41D1B"/>
<path d="M203.15 123.46H191.78C191.74 124.59 192.14 125.68 192.9 126.52C193.6 127.17 194.52 127.51 195.47 127.48C196.28 127.51 197.08 127.28 197.75 126.81C198.35 126.37 198.77 125.72 198.91 124.99H203.09C202.88 126.04 202.43 127.03 201.76 127.87C201.08 128.74 200.19 129.43 199.18 129.88C196.76 130.93 193.99 130.84 191.64 129.64C190.48 129.01 189.52 128.06 188.89 126.89C187.58 124.22 187.58 121.09 188.89 118.42C189.51 117.25 190.47 116.29 191.64 115.66C192.88 115.01 194.26 114.68 195.67 114.7C197.07 114.67 198.45 115 199.69 115.66C200.81 116.26 201.73 117.17 202.35 118.28C203 119.44 203.33 120.74 203.31 122.07C203.31 122.54 203.25 123.01 203.15 123.46ZM198.34 118.85C197.61 118.21 196.66 117.86 195.69 117.89C194.71 117.86 193.75 118.2 193.01 118.85C192.23 119.61 191.8 120.65 191.8 121.73H199.33C199.45 120.67 199.08 119.6 198.32 118.85H198.34Z" fill="#B41D1B"/>
<path d="M228.28 114.96L224.11 130.47H219.75L216.42 119.19L213.01 130.47H208.64L204.5 114.96H208.49L211.01 126.94L214.45 114.96H218.63L222.1 126.94L224.65 114.96H228.3H228.28Z" fill="#B41D1B"/>
<path d="M244.69 123.46H233.32C233.28 124.58 233.68 125.68 234.43 126.52C235.13 127.17 236.05 127.51 237 127.48C237.82 127.51 238.62 127.28 239.29 126.81C239.89 126.37 240.3 125.72 240.45 124.99H244.62C244.21 127.18 242.75 129.02 240.71 129.91C239.61 130.41 238.41 130.66 237.2 130.64C235.8 130.67 234.41 130.34 233.16 129.68C232 129.05 231.05 128.09 230.42 126.93C229.11 124.26 229.11 121.13 230.42 118.46C231.04 117.29 231.99 116.33 233.16 115.7C234.4 115.05 235.79 114.72 237.2 114.74C238.6 114.71 239.98 115.04 241.22 115.7C242.34 116.31 243.26 117.22 243.88 118.32C244.53 119.48 244.86 120.78 244.84 122.11C244.82 122.57 244.77 123.02 244.68 123.46H244.69ZM239.88 118.85C239.16 118.2 238.21 117.86 237.24 117.89C236.25 117.85 235.29 118.2 234.55 118.85C233.78 119.61 233.34 120.65 233.35 121.73H240.87C241 120.66 240.62 119.6 239.85 118.85H239.88Z" fill="#B41D1B"/>
<path d="M253.86 115.58C254.82 115.01 255.93 114.71 257.05 114.72V118.95H255.91C253.02 118.95 251.57 120.3 251.57 122.99V130.46H247.63V114.95H251.57V117.91C252.12 116.95 252.91 116.14 253.87 115.58H253.86Z" fill="#B41D1B"/>
<path d="M262.51 126.35V130.47H258.26V126.35H262.51Z" fill="#B41D1B"/>
<path d="M277.11 116.38C278.46 117.49 279.36 119.07 279.62 120.8H275.45C275.31 120.04 274.9 119.36 274.3 118.88C273.65 118.39 272.85 118.14 272.03 118.17C271.03 118.15 270.07 118.58 269.42 119.33C268.01 121.38 268.01 124.08 269.42 126.13C270.08 126.88 271.03 127.31 272.03 127.29C272.85 127.32 273.65 127.07 274.3 126.57C274.9 126.09 275.31 125.41 275.45 124.65H279.62C279.36 126.38 278.46 127.96 277.11 129.07C275.69 130.18 273.92 130.76 272.11 130.69C270.71 130.72 269.32 130.39 268.07 129.73C266.91 129.1 265.96 128.14 265.33 126.98C264.02 124.31 264.02 121.18 265.33 118.51C265.95 117.34 266.9 116.38 268.07 115.75C269.31 115.1 270.7 114.77 272.11 114.79C273.91 114.72 275.68 115.28 277.11 116.38Z" fill="#B41D1B"/>
<path d="M293.66 115.71C294.85 116.33 295.84 117.29 296.49 118.47C297.87 121.12 297.87 124.29 296.49 126.94C295.83 128.11 294.84 129.06 293.66 129.69C291.1 130.98 288.07 130.98 285.51 129.69C284.31 129.07 283.31 128.11 282.63 126.94C281.25 124.29 281.25 121.12 282.63 118.47C283.3 117.29 284.3 116.33 285.51 115.71C288.08 114.44 291.09 114.44 293.66 115.71ZM286.78 119.33C285.27 121.32 285.27 124.07 286.78 126.06C288.32 127.61 290.83 127.61 292.38 126.06C293.9 124.08 293.9 121.32 292.38 119.33C290.83 117.79 288.33 117.79 286.78 119.33Z" fill="#B41D1B"/>
<path d="M153.06 32.35H173.35C173.35 43.56 164.27 52.64 153.06 52.64V32.35Z" fill="#B41D1B"/>
<path d="M193.64 32.35V52.63H173.35C173.35 41.43 182.44 32.35 193.64 32.35Z" fill="#FF7E6E"/>
<path d="M193.64 52.63H173.35V93.21H193.64V52.63Z" fill="#FC584E"/>
<path d="M213.93 32.35H193.64V52.64H213.93V32.35Z" fill="#FFA090"/>
<path d="M161.18 162.43V170.05H150.43V202.03H140.8V170.05H130.16V162.43H161.18Z" fill="black"/>
<path d="M194.19 164.42C197.23 166.16 199.63 168.56 201.39 171.64C203.15 174.72 204.02 178.2 204.02 182.08C204.02 185.96 203.13 189.45 201.36 192.55C199.59 195.65 197.18 198.07 194.14 199.8C191.1 201.54 187.73 202.4 184.03 202.4C180.33 202.4 176.96 201.53 173.92 199.8C170.88 198.06 168.47 195.65 166.7 192.55C164.93 189.45 164.04 185.96 164.04 182.08C164.04 178.2 164.93 174.72 166.7 171.64C168.47 168.56 170.88 166.15 173.92 164.42C176.96 162.68 180.33 161.82 184.03 161.82C187.73 161.82 191.15 162.69 194.19 164.42ZM176.55 173.77C174.7 175.81 173.78 178.58 173.78 182.09C173.78 185.6 174.7 188.33 176.55 190.38C178.4 192.43 180.89 193.46 184.03 193.46C187.17 193.46 189.61 192.43 191.48 190.38C193.35 188.33 194.28 185.56 194.28 182.09C194.28 178.62 193.36 175.86 191.51 173.8C189.66 171.75 187.17 170.72 184.03 170.72C180.89 170.72 178.4 171.74 176.55 173.77Z" fill="black"/>
<path d="M218.97 188.13V202.02H209.39V162.43H224.9C229.6 162.43 233.19 163.6 235.65 165.93C238.11 168.26 239.35 171.41 239.35 175.37C239.35 177.83 238.8 180.03 237.7 181.95C236.6 183.87 234.96 185.39 232.8 186.49C230.63 187.59 228 188.14 224.9 188.14H218.96L218.97 188.13ZM229.61 175.37C229.61 171.9 227.69 170.16 223.84 170.16H218.97V180.46H223.84C227.68 180.46 229.61 178.76 229.61 175.36V175.37Z" fill="black"/>
<path d="M275.637 292.272C273.982 292.272 272.509 291.989 271.217 291.422C269.925 290.855 268.905 290.085 268.157 289.11C267.409 288.113 266.989 287.002 266.899 285.778H272.645C272.713 286.435 273.019 286.968 273.563 287.376C274.107 287.784 274.775 287.988 275.569 287.988C276.294 287.988 276.849 287.852 277.235 287.58C277.643 287.285 277.847 286.911 277.847 286.458C277.847 285.914 277.563 285.517 276.997 285.268C276.43 284.996 275.512 284.701 274.243 284.384C272.883 284.067 271.749 283.738 270.843 283.398C269.936 283.035 269.154 282.48 268.497 281.732C267.839 280.961 267.511 279.93 267.511 278.638C267.511 277.55 267.805 276.564 268.395 275.68C269.007 274.773 269.891 274.059 271.047 273.538C272.225 273.017 273.619 272.756 275.229 272.756C277.609 272.756 279.479 273.345 280.839 274.524C282.221 275.703 283.015 277.267 283.219 279.216H277.847C277.756 278.559 277.461 278.037 276.963 277.652C276.487 277.267 275.852 277.074 275.059 277.074C274.379 277.074 273.857 277.21 273.495 277.482C273.132 277.731 272.951 278.083 272.951 278.536C272.951 279.08 273.234 279.488 273.801 279.76C274.39 280.032 275.297 280.304 276.521 280.576C277.926 280.939 279.071 281.301 279.955 281.664C280.839 282.004 281.609 282.571 282.267 283.364C282.947 284.135 283.298 285.177 283.321 286.492C283.321 287.603 283.003 288.6 282.369 289.484C281.757 290.345 280.861 291.025 279.683 291.524C278.527 292.023 277.178 292.272 275.637 292.272Z" fill="black"/>
<path d="M264.851 282.208C264.851 282.752 264.817 283.319 264.749 283.908H251.591C251.682 285.087 252.056 285.993 252.713 286.628C253.393 287.24 254.221 287.546 255.195 287.546C256.646 287.546 257.655 286.934 258.221 285.71H264.409C264.092 286.957 263.514 288.079 262.675 289.076C261.859 290.073 260.828 290.855 259.581 291.422C258.335 291.989 256.941 292.272 255.399 292.272C253.541 292.272 251.886 291.875 250.435 291.082C248.985 290.289 247.851 289.155 247.035 287.682C246.219 286.209 245.811 284.486 245.811 282.514C245.811 280.542 246.208 278.819 247.001 277.346C247.817 275.873 248.951 274.739 250.401 273.946C251.852 273.153 253.518 272.756 255.399 272.756C257.235 272.756 258.867 273.141 260.295 273.912C261.723 274.683 262.834 275.782 263.627 277.21C264.443 278.638 264.851 280.304 264.851 282.208ZM258.901 280.678C258.901 279.681 258.561 278.887 257.881 278.298C257.201 277.709 256.351 277.414 255.331 277.414C254.357 277.414 253.529 277.697 252.849 278.264C252.192 278.831 251.784 279.635 251.625 280.678H258.901Z" fill="black"/>
<path d="M239.864 271.056C238.844 271.056 238.005 270.761 237.348 270.172C236.713 269.56 236.396 268.812 236.396 267.928C236.396 267.021 236.713 266.273 237.348 265.684C238.005 265.072 238.844 264.766 239.864 264.766C240.861 264.766 241.677 265.072 242.312 265.684C242.969 266.273 243.298 267.021 243.298 267.928C243.298 268.812 242.969 269.56 242.312 270.172C241.677 270.761 240.861 271.056 239.864 271.056ZM242.754 273.028V292H236.94V273.028H242.754Z" fill="black"/>
<path d="M225.59 272.824C227.811 272.824 229.579 273.549 230.894 275C232.231 276.428 232.9 278.4 232.9 280.916V292H227.12V281.698C227.12 280.429 226.791 279.443 226.134 278.74C225.477 278.037 224.593 277.686 223.482 277.686C222.371 277.686 221.487 278.037 220.83 278.74C220.173 279.443 219.844 280.429 219.844 281.698V292H214.03V273.028H219.844V275.544C220.433 274.705 221.227 274.048 222.224 273.572C223.221 273.073 224.343 272.824 225.59 272.824Z" fill="black"/>
<path d="M189.798 282.48C189.798 280.531 190.16 278.819 190.886 277.346C191.634 275.873 192.642 274.739 193.912 273.946C195.181 273.153 196.598 272.756 198.162 272.756C199.499 272.756 200.666 273.028 201.664 273.572C202.684 274.116 203.466 274.83 204.01 275.714V273.028H209.824V292H204.01V289.314C203.443 290.198 202.65 290.912 201.63 291.456C200.632 292 199.465 292.272 198.128 292.272C196.586 292.272 195.181 291.875 193.912 291.082C192.642 290.266 191.634 289.121 190.886 287.648C190.16 286.152 189.798 284.429 189.798 282.48ZM204.01 282.514C204.01 281.063 203.602 279.919 202.786 279.08C201.992 278.241 201.018 277.822 199.862 277.822C198.706 277.822 197.72 278.241 196.904 279.08C196.11 279.896 195.714 281.029 195.714 282.48C195.714 283.931 196.11 285.087 196.904 285.948C197.72 286.787 198.706 287.206 199.862 287.206C201.018 287.206 201.992 286.787 202.786 285.948C203.602 285.109 204.01 283.965 204.01 282.514Z" fill="black"/>
<path d="M173.692 275.714C174.258 274.83 175.04 274.116 176.038 273.572C177.035 273.028 178.202 272.756 179.54 272.756C181.104 272.756 182.52 273.153 183.79 273.946C185.059 274.739 186.056 275.873 186.782 277.346C187.53 278.819 187.904 280.531 187.904 282.48C187.904 284.429 187.53 286.152 186.782 287.648C186.056 289.121 185.059 290.266 183.79 291.082C182.52 291.875 181.104 292.272 179.54 292.272C178.225 292.272 177.058 292 176.038 291.456C175.04 290.912 174.258 290.209 173.692 289.348V301.044H167.878V273.028H173.692V275.714ZM181.988 282.48C181.988 281.029 181.58 279.896 180.764 279.08C179.97 278.241 178.984 277.822 177.806 277.822C176.65 277.822 175.664 278.241 174.848 279.08C174.054 279.919 173.658 281.063 173.658 282.514C173.658 283.965 174.054 285.109 174.848 285.948C175.664 286.787 176.65 287.206 177.806 287.206C178.962 287.206 179.948 286.787 180.764 285.948C181.58 285.087 181.988 283.931 181.988 282.48Z" fill="black"/>
<path d="M156.093 272.824C158.451 272.824 160.321 273.538 161.703 274.966C163.109 276.394 163.811 278.377 163.811 280.916V292H158.031V281.698C158.031 280.474 157.703 279.533 157.045 278.876C156.411 278.196 155.527 277.856 154.393 277.856C153.26 277.856 152.365 278.196 151.707 278.876C151.073 279.533 150.755 280.474 150.755 281.698V292H144.975V281.698C144.975 280.474 144.647 279.533 143.989 278.876C143.355 278.196 142.471 277.856 141.337 277.856C140.204 277.856 139.309 278.196 138.651 278.876C138.017 279.533 137.699 280.474 137.699 281.698V292H131.885V273.028H137.699V275.408C138.289 274.615 139.059 273.991 140.011 273.538C140.963 273.062 142.04 272.824 143.241 272.824C144.669 272.824 145.939 273.13 147.049 273.742C148.183 274.354 149.067 275.227 149.701 276.36C150.359 275.317 151.254 274.467 152.387 273.81C153.521 273.153 154.756 272.824 156.093 272.824Z" fill="black"/>
<path d="M118.873 292.272C117.014 292.272 115.337 291.875 113.841 291.082C112.368 290.289 111.2 289.155 110.339 287.682C109.5 286.209 109.081 284.486 109.081 282.514C109.081 280.565 109.512 278.853 110.373 277.38C111.234 275.884 112.413 274.739 113.909 273.946C115.405 273.153 117.082 272.756 118.941 272.756C120.8 272.756 122.477 273.153 123.973 273.946C125.469 274.739 126.648 275.884 127.509 277.38C128.37 278.853 128.801 280.565 128.801 282.514C128.801 284.463 128.359 286.186 127.475 287.682C126.614 289.155 125.424 290.289 123.905 291.082C122.409 291.875 120.732 292.272 118.873 292.272ZM118.873 287.24C119.984 287.24 120.924 286.832 121.695 286.016C122.488 285.2 122.885 284.033 122.885 282.514C122.885 280.995 122.5 279.828 121.729 279.012C120.981 278.196 120.052 277.788 118.941 277.788C117.808 277.788 116.867 278.196 116.119 279.012C115.371 279.805 114.997 280.973 114.997 282.514C114.997 284.033 115.36 285.2 116.085 286.016C116.833 286.832 117.762 287.24 118.873 287.24Z" fill="black"/>
<path d="M83.3525 280.032C83.3525 277.675 83.8625 275.578 84.8825 273.742C85.9025 271.883 87.3191 270.444 89.1325 269.424C90.9685 268.381 93.0425 267.86 95.3545 267.86C98.1878 267.86 100.613 268.608 102.63 270.104C104.648 271.6 105.996 273.64 106.676 276.224H100.284C99.8085 275.227 99.1285 274.467 98.2445 273.946C97.3831 273.425 96.3971 273.164 95.2865 273.164C93.4958 273.164 92.0451 273.787 90.9345 275.034C89.8238 276.281 89.2685 277.947 89.2685 280.032C89.2685 282.117 89.8238 283.783 90.9345 285.03C92.0451 286.277 93.4958 286.9 95.2865 286.9C96.3971 286.9 97.3831 286.639 98.2445 286.118C99.1285 285.597 99.8085 284.837 100.284 283.84H106.676C105.996 286.424 104.648 288.464 102.63 289.96C100.613 291.433 98.1878 292.17 95.3545 292.17C93.0425 292.17 90.9685 291.66 89.1325 290.64C87.3191 289.597 85.9025 288.158 84.8825 286.322C83.8625 284.486 83.3525 282.389 83.3525 280.032Z" fill="black"/>
<path d="M321.212 232.756C322.55 232.756 323.717 233.028 324.714 233.572C325.734 234.116 326.516 234.83 327.06 235.714V233.028H332.874V251.966C332.874 253.711 332.523 255.287 331.82 256.692C331.14 258.12 330.086 259.253 328.658 260.092C327.253 260.931 325.496 261.35 323.388 261.35C320.578 261.35 318.3 260.681 316.554 259.344C314.809 258.029 313.812 256.239 313.562 253.972H319.308C319.49 254.697 319.92 255.264 320.6 255.672C321.28 256.103 322.119 256.318 323.116 256.318C324.318 256.318 325.27 255.967 325.972 255.264C326.698 254.584 327.06 253.485 327.06 251.966V249.28C326.494 250.164 325.712 250.889 324.714 251.456C323.717 252 322.55 252.272 321.212 252.272C319.648 252.272 318.232 251.875 316.962 251.082C315.693 250.266 314.684 249.121 313.936 247.648C313.211 246.152 312.848 244.429 312.848 242.48C312.848 240.531 313.211 238.819 313.936 237.346C314.684 235.873 315.693 234.739 316.962 233.946C318.232 233.153 319.648 232.756 321.212 232.756ZM327.06 242.514C327.06 241.063 326.652 239.919 325.836 239.08C325.043 238.241 324.068 237.822 322.912 237.822C321.756 237.822 320.77 238.241 319.954 239.08C319.161 239.896 318.764 241.029 318.764 242.48C318.764 243.931 319.161 245.087 319.954 245.948C320.77 246.787 321.756 247.206 322.912 247.206C324.068 247.206 325.043 246.787 325.836 245.948C326.652 245.109 327.06 243.965 327.06 242.514Z" fill="black"/>
<path d="M302.654 232.824C304.876 232.824 306.644 233.549 307.958 235C309.296 236.428 309.964 238.4 309.964 240.916V252H304.184V241.698C304.184 240.429 303.856 239.443 303.198 238.74C302.541 238.037 301.657 237.686 300.546 237.686C299.436 237.686 298.552 238.037 297.894 238.74C297.237 239.443 296.908 240.429 296.908 241.698V252H291.094V233.028H296.908V235.544C297.498 234.705 298.291 234.048 299.288 233.572C300.286 233.073 301.408 232.824 302.654 232.824Z" fill="black"/>
<path d="M283.991 231.056C282.971 231.056 282.132 230.761 281.475 230.172C280.84 229.56 280.523 228.812 280.523 227.928C280.523 227.021 280.84 226.273 281.475 225.684C282.132 225.072 282.971 224.766 283.991 224.766C284.988 224.766 285.804 225.072 286.439 225.684C287.096 226.273 287.425 227.021 287.425 227.928C287.425 228.812 287.096 229.56 286.439 230.172C285.804 230.761 284.988 231.056 283.991 231.056ZM286.881 233.028V252H281.067V233.028H286.881Z" fill="black"/>
<path d="M277.828 247.07V252H274.87C272.762 252 271.119 251.49 269.94 250.47C268.762 249.427 268.172 247.739 268.172 245.404V237.856H265.86V233.028H268.172V228.404H273.986V233.028H277.794V237.856H273.986V245.472C273.986 246.039 274.122 246.447 274.394 246.696C274.666 246.945 275.12 247.07 275.754 247.07H277.828Z" fill="black"/>
<path d="M263.041 226.84V252H257.227V226.84H263.041Z" fill="black"/>
<path d="M253.051 233.028V252H247.237V249.416C246.648 250.255 245.843 250.935 244.823 251.456C243.826 251.955 242.715 252.204 241.491 252.204C240.04 252.204 238.76 251.887 237.649 251.252C236.538 250.595 235.677 249.654 235.065 248.43C234.453 247.206 234.147 245.767 234.147 244.112V233.028H239.927V243.33C239.927 244.599 240.256 245.585 240.913 246.288C241.57 246.991 242.454 247.342 243.565 247.342C244.698 247.342 245.594 246.991 246.251 246.288C246.908 245.585 247.237 244.599 247.237 243.33V233.028H253.051Z" fill="black"/>
<path d="M223.076 252.272C221.421 252.272 219.948 251.989 218.656 251.422C217.364 250.855 216.344 250.085 215.596 249.11C214.848 248.113 214.429 247.002 214.338 245.778H220.084C220.152 246.435 220.458 246.968 221.002 247.376C221.546 247.784 222.215 247.988 223.008 247.988C223.733 247.988 224.289 247.852 224.674 247.58C225.082 247.285 225.286 246.911 225.286 246.458C225.286 245.914 225.003 245.517 224.436 245.268C223.869 244.996 222.951 244.701 221.682 244.384C220.322 244.067 219.189 243.738 218.282 243.398C217.375 243.035 216.593 242.48 215.936 241.732C215.279 240.961 214.95 239.93 214.95 238.638C214.95 237.55 215.245 236.564 215.834 235.68C216.446 234.773 217.33 234.059 218.486 233.538C219.665 233.017 221.059 232.756 222.668 232.756C225.048 232.756 226.918 233.345 228.278 234.524C229.661 235.703 230.454 237.267 230.658 239.216H225.286C225.195 238.559 224.901 238.037 224.402 237.652C223.926 237.267 223.291 237.074 222.498 237.074C221.818 237.074 221.297 237.21 220.934 237.482C220.571 237.731 220.39 238.083 220.39 238.536C220.39 239.08 220.673 239.488 221.24 239.76C221.829 240.032 222.736 240.304 223.96 240.576C225.365 240.939 226.51 241.301 227.394 241.664C228.278 242.004 229.049 242.571 229.706 243.364C230.386 244.135 230.737 245.177 230.76 246.492C230.76 247.603 230.443 248.6 229.808 249.484C229.196 250.345 228.301 251.025 227.122 251.524C225.966 252.023 224.617 252.272 223.076 252.272Z" fill="black"/>
<path d="M204.008 232.824C206.229 232.824 207.997 233.549 209.312 235C210.649 236.428 211.318 238.4 211.318 240.916V252H205.538V241.698C205.538 240.429 205.209 239.443 204.552 238.74C203.895 238.037 203.011 237.686 201.9 237.686C200.789 237.686 199.905 238.037 199.248 238.74C198.591 239.443 198.262 240.429 198.262 241.698V252H192.448V233.028H198.262V235.544C198.851 234.705 199.645 234.048 200.642 233.572C201.639 233.073 202.761 232.824 204.008 232.824Z" fill="black"/>
<path d="M179.435 252.272C177.577 252.272 175.899 251.875 174.403 251.082C172.93 250.289 171.763 249.155 170.901 247.682C170.063 246.209 169.643 244.486 169.643 242.514C169.643 240.565 170.074 238.853 170.935 237.38C171.797 235.884 172.975 234.739 174.471 233.946C175.967 233.153 177.645 232.756 179.503 232.756C181.362 232.756 183.039 233.153 184.535 233.946C186.031 234.739 187.21 235.884 188.071 237.38C188.933 238.853 189.363 240.565 189.363 242.514C189.363 244.463 188.921 246.186 188.037 247.682C187.176 249.155 185.986 250.289 184.467 251.082C182.971 251.875 181.294 252.272 179.435 252.272ZM179.435 247.24C180.546 247.24 181.487 246.832 182.257 246.016C183.051 245.2 183.447 244.033 183.447 242.514C183.447 240.995 183.062 239.828 182.291 239.012C181.543 238.196 180.614 237.788 179.503 237.788C178.37 237.788 177.429 238.196 176.681 239.012C175.933 239.805 175.559 240.973 175.559 242.514C175.559 244.033 175.922 245.2 176.647 246.016C177.395 246.832 178.325 247.24 179.435 247.24Z" fill="black"/>
<path d="M143.915 240.032C143.915 237.675 144.425 235.578 145.445 233.742C146.465 231.883 147.882 230.444 149.695 229.424C151.531 228.381 153.605 227.86 155.917 227.86C158.75 227.86 161.176 228.608 163.193 230.104C165.21 231.6 166.559 233.64 167.239 236.224H160.847C160.371 235.227 159.691 234.467 158.807 233.946C157.946 233.425 156.96 233.164 155.849 233.164C154.058 233.164 152.608 233.787 151.497 235.034C150.386 236.281 149.831 237.947 149.831 240.032C149.831 242.117 150.386 243.783 151.497 245.03C152.608 246.277 154.058 246.9 155.849 246.9C156.96 246.9 157.946 246.639 158.807 246.118C159.691 245.597 160.371 244.837 160.847 243.84H167.239C166.559 246.424 165.21 248.464 163.193 249.96C161.176 251.433 158.75 252.17 155.917 252.17C153.605 252.17 151.531 251.66 149.695 250.64C147.882 249.597 146.465 248.158 145.445 246.322C144.425 244.486 143.915 242.389 143.915 240.032Z" fill="black"/>
<path d="M113.464 242.48C113.464 240.531 113.826 238.819 114.552 237.346C115.3 235.873 116.308 234.739 117.578 233.946C118.847 233.153 120.264 232.756 121.828 232.756C123.074 232.756 124.208 233.017 125.228 233.538C126.27 234.059 127.086 234.762 127.676 235.646V226.84H133.49V252H127.676V249.28C127.132 250.187 126.35 250.912 125.33 251.456C124.332 252 123.165 252.272 121.828 252.272C120.264 252.272 118.847 251.875 117.578 251.082C116.308 250.266 115.3 249.121 114.552 247.648C113.826 246.152 113.464 244.429 113.464 242.48ZM127.676 242.514C127.676 241.063 127.268 239.919 126.452 239.08C125.658 238.241 124.684 237.822 123.528 237.822C122.372 237.822 121.386 238.241 120.57 239.08C119.776 239.896 119.38 241.029 119.38 242.48C119.38 243.931 119.776 245.087 120.57 245.948C121.386 246.787 122.372 247.206 123.528 247.206C124.684 247.206 125.658 246.787 126.452 245.948C127.268 245.109 127.676 243.965 127.676 242.514Z" fill="black"/>
<path d="M110.444 233.028V252H104.63V249.416C104.04 250.255 103.236 250.935 102.216 251.456C101.218 251.955 100.108 252.204 98.8836 252.204C97.4329 252.204 96.1522 251.887 95.0416 251.252C93.9309 250.595 93.0696 249.654 92.4576 248.43C91.8456 247.206 91.5396 245.767 91.5396 244.112V233.028H97.3196V243.33C97.3196 244.599 97.6482 245.585 98.3056 246.288C98.9629 246.991 99.8469 247.342 100.958 247.342C102.091 247.342 102.986 246.991 103.644 246.288C104.301 245.585 104.63 244.599 104.63 243.33V233.028H110.444Z" fill="black"/>
<path d="M78.6971 252.272C76.8385 252.272 75.1611 251.875 73.6651 251.082C72.1918 250.289 71.0245 249.155 70.1631 247.682C69.3245 246.209 68.9051 244.486 68.9051 242.514C68.9051 240.565 69.3358 238.853 70.1971 237.38C71.0585 235.884 72.2371 234.739 73.7331 233.946C75.2291 233.153 76.9065 232.756 78.7651 232.756C80.6238 232.756 82.3011 233.153 83.7971 233.946C85.2931 234.739 86.4718 235.884 87.3331 237.38C88.1945 238.853 88.6251 240.565 88.6251 242.514C88.6251 244.463 88.1831 246.186 87.2991 247.682C86.4378 249.155 85.2478 250.289 83.7291 251.082C82.2331 251.875 80.5558 252.272 78.6971 252.272ZM78.6971 247.24C79.8078 247.24 80.7485 246.832 81.5191 246.016C82.3125 245.2 82.7091 244.033 82.7091 242.514C82.7091 240.995 82.3238 239.828 81.5531 239.012C80.8051 238.196 79.8758 237.788 78.7651 237.788C77.6318 237.788 76.6911 238.196 75.9431 239.012C75.1951 239.805 74.8211 240.973 74.8211 242.514C74.8211 244.033 75.1838 245.2 75.9091 246.016C76.6571 246.832 77.5865 247.24 78.6971 247.24Z" fill="black"/>
<path d="M65.8478 226.84V252H60.0338V226.84H65.8478Z" fill="black"/>
<path d="M33.1493 240.032C33.1493 237.675 33.6593 235.578 34.6793 233.742C35.6993 231.883 37.116 230.444 38.9293 229.424C40.7653 228.381 42.8393 227.86 45.1513 227.86C47.9847 227.86 50.41 228.608 52.4273 230.104C54.4447 231.6 55.7933 233.64 56.4733 236.224H50.0813C49.6053 235.227 48.9253 234.467 48.0413 233.946C47.18 233.425 46.194 233.164 45.0833 233.164C43.2927 233.164 41.842 233.787 40.7313 235.034C39.6207 236.281 39.0653 237.947 39.0653 240.032C39.0653 242.117 39.6207 243.783 40.7313 245.03C41.842 246.277 43.2927 246.9 45.0833 246.9C46.194 246.9 47.18 246.639 48.0413 246.118C48.9253 245.597 49.6053 244.837 50.0813 243.84H56.4733C55.7933 246.424 54.4447 248.464 52.4273 249.96C50.41 251.433 47.9847 252.17 45.1513 252.17C42.8393 252.17 40.7653 251.66 38.9293 250.64C37.116 249.597 35.6993 248.158 34.6793 246.322C33.6593 244.486 33.1493 242.389 33.1493 240.032Z" fill="black"/>
</g>
<defs>
<linearGradient id="paint0_linear_7_2" x1="183.5" y1="502.8" x2="183.5" y2="0" gradientUnits="userSpaceOnUse">
<stop stop-color="#B41D1B"/>
<stop offset="0.12" stop-color="#BD2522"/>
<stop offset="0.31" stop-color="#D73A34"/>
<stop offset="0.54" stop-color="#FC584E"/>
<stop offset="0.78" stop-color="#FF7E6E"/>
<stop offset="1" stop-color="#FFA090"/>
</linearGradient>
<clipPath id="clip0_7_2">
<rect width="367" height="502.81" fill="white"/>
</clipPath>
</defs>
</svg>
