<svg width="24" height="24" viewBox="0 0 24 24" fill="none" xmlns="http://www.w3.org/2000/svg">
<path d="M12.5293 15.5289C14.65 15.5289 16.3691 13.8165 16.3691 11.7041C16.3691 9.5917 14.65 7.87927 12.5293 7.87927C10.4086 7.87927 8.68945 9.5917 8.68945 11.7041C8.68945 13.8165 10.4086 15.5289 12.5293 15.5289Z" fill="#A7A4B5" style="fill:#A7A4B5;fill:color(display-p3 0.6549 0.6431 0.7098);fill-opacity:1;"/>
<path d="M12.7305 18.0593C14.4051 18.0593 15.9352 17.4842 17.09 16.4489L17.8984 15.7299L21.5362 19.2959L20.67 20.1011C18.5913 22.0279 15.762 23.092 12.7305 23.092C11.2129 23.1195 9.70526 22.8411 8.29836 22.2735C6.89145 21.7059 5.61429 20.8607 4.54365 19.7889C3.47301 18.7171 2.63099 17.4407 2.06821 16.0364C1.50544 14.6322 1.23352 13.1291 1.2688 11.6175C1.2688 5.06067 6.09024 0.286829 12.7305 0.286829C15.6355 0.267197 18.4443 1.32279 20.6123 3.24891L21.5073 4.05414L17.9273 7.62013L17.1189 6.92994C15.9352 5.89465 14.3762 5.34825 12.7305 5.34825C8.94845 5.34825 6.32121 7.93647 6.32121 11.6463C6.29329 12.4935 6.43975 13.3375 6.75159 14.1262C7.06343 14.915 7.53405 15.6318 8.13447 16.2325C8.73488 16.8333 9.45239 17.3053 10.2428 17.6195C11.0332 17.9336 11.8799 18.0833 12.7305 18.0593Z" fill="#A7A4B5" style="fill:#A7A4B5;fill:color(display-p3 0.6549 0.6431 0.7098);fill-opacity:1;"/>
</svg>
