<svg width="83" height="24" viewBox="0 0 83 24" fill="none" xmlns="http://www.w3.org/2000/svg">
<path d="M25.5553 1.41211H21.7812V21.9224H25.5553V1.41211Z" fill="#A7A4B5" style="fill:#A7A4B5;fill:color(display-p3 0.6549 0.6431 0.7098);fill-opacity:1;"/>
<path d="M38.099 15.7072C38.099 18.9161 35.1419 19.1565 34.2916 19.1565C32.1871 19.1565 31.6609 17.2709 31.6609 16.1483V8.24854H28.6639V16.1483C28.6639 18.1133 29.2722 19.7563 30.4044 20.8811C31.4167 21.8427 32.8331 22.3653 34.4937 22.3653C35.7901 22.3653 36.8424 21.964 38.0967 21.2428V21.8052H41.5378V8.25295H38.0967V15.7116L38.099 15.7072Z" fill="#A7A4B5" style="fill:#A7A4B5;fill:color(display-p3 0.6549 0.6431 0.7098);fill-opacity:1;"/>
<path d="M48.5401 3.61816H44.7594V8.41492H42.6504V11.0526H44.7594V21.923H48.5401V11.0526H51.0865V8.41492H48.5401V3.61816Z" fill="#A7A4B5" style="fill:#A7A4B5;fill:color(display-p3 0.6549 0.6431 0.7098);fill-opacity:1;"/>
<path d="M62.1749 17.9628C61.3691 18.6398 60.3634 18.9971 59.3178 18.9574C56.9024 18.9574 55.0931 17.246 55.0931 14.937C55.0931 12.6279 56.8247 10.9959 59.3178 10.9959C60.3634 10.9959 61.4113 11.3532 62.2149 11.9905L62.7388 12.4294L65.0721 10.1997L64.4682 9.68147C63.0607 8.48614 61.2092 7.80908 59.2778 7.80908C54.931 7.80908 51.752 10.7952 51.752 14.937C51.752 19.0787 55.0109 22.1442 59.2778 22.1442C61.2092 22.1839 63.0607 21.5069 64.5104 20.2718L65.0743 19.7536L62.6989 17.5239L62.1749 17.9628Z" fill="#A7A4B5" style="fill:#A7A4B5;fill:color(display-p3 0.6549 0.6431 0.7098);fill-opacity:1;"/>
<path d="M77.5846 9.65003C76.5745 8.69067 75.1226 8.1702 73.4664 8.1702C72.1744 8.1702 70.8024 8.56938 69.8345 9.29054V1.41504H66.4023V21.9253H69.8345V14.8085C69.8345 11.6106 72.5784 11.3702 73.4265 11.3702C75.4844 11.3702 75.8485 13.2492 75.8485 14.3696V21.9253H79.2807V14.3696C79.2407 12.3715 78.7568 10.7307 77.5846 9.65223V9.65003Z" fill="#A7A4B5" style="fill:#A7A4B5;fill:color(display-p3 0.6549 0.6431 0.7098);fill-opacity:1;"/>
<path d="M59.1878 17.5111C60.5975 17.5111 61.7408 16.426 61.7408 15.0851C61.7408 13.7442 60.5975 12.6592 59.1878 12.6592C57.7781 12.6592 56.6348 13.7442 56.6348 15.0851C56.6348 16.426 57.7781 17.5111 59.1878 17.5111Z" fill="#A7A4B5" style="fill:#A7A4B5;fill:color(display-p3 0.6549 0.6431 0.7098);fill-opacity:1;"/>
<path d="M17.6223 17.1614C16.2881 18.4427 14.4699 19.2036 12.5718 19.1617C8.65124 19.1617 5.82293 16.2395 5.82293 12.2389C5.82293 8.23833 8.65124 5.27647 12.5718 5.27647C14.4699 5.27647 16.2903 5.99763 17.5824 7.27677L18.1085 7.79725L20.4529 5.55655L19.9267 5.03608C17.9864 3.11517 15.3202 2.07422 12.5318 2.07422C6.79308 2.07422 2.4707 6.43651 2.4707 12.2389C2.4707 18.0414 6.7953 22.3639 12.5318 22.3639C15.3202 22.3639 17.9864 21.323 19.9267 19.4021L20.4529 18.8816L18.1485 16.6012L17.6223 17.1614Z" fill="#A7A4B5" style="fill:#A7A4B5;fill:color(display-p3 0.6549 0.6431 0.7098);fill-opacity:1;"/>
</svg>
