<svg width="48" height="48" viewBox="0 0 48 48" fill="none" xmlns="http://www.w3.org/2000/svg">
<path d="M0 12C0 5.37258 5.37258 0 12 0H36C42.6274 0 48 5.37258 48 12V36C48 42.6274 42.6274 48 36 48H12C5.37258 48 0 42.6274 0 36V12Z" fill="#6D4AFF" style="fill:#6D4AFF;fill:color(display-p3 0.4275 0.2902 1.0000);fill-opacity:1;"/>
<path d="M20 15H19.8C18.1198 15 17.2798 15 16.638 15.327C16.0735 15.6146 15.6146 16.0735 15.327 16.638C15 17.2798 15 18.1198 15 19.8V20M20 33H19.8C18.1198 33 17.2798 33 16.638 32.673C16.0735 32.3854 15.6146 31.9265 15.327 31.362C15 30.7202 15 29.8802 15 28.2V28M33 20V19.8C33 18.1198 33 17.2798 32.673 16.638C32.3854 16.0735 31.9265 15.6146 31.362 15.327C30.7202 15 29.8802 15 28.2 15H28M33 28V28.2C33 29.8802 33 30.7202 32.673 31.362C32.3854 31.9265 31.9265 32.3854 31.362 32.673C30.7202 33 29.8802 33 28.2 33H28M15 24H15.01M19.5 24H19.51M28.5 24H28.51M24 24H24.01M33 24H33.01" stroke="white" style="stroke:white;stroke-opacity:1;" stroke-width="2" stroke-linecap="round" stroke-linejoin="round"/>
</svg>
