<svg width="28" height="28" viewBox="0 0 28 28" fill="none" xmlns="http://www.w3.org/2000/svg">
<path d="M16.3333 12.8333H9.33333M11.6667 17.5H9.33333M18.6667 8.16665H9.33333M23.3333 11.6666V7.93331C23.3333 5.97313 23.3333 4.99304 22.9519 4.24435C22.6163 3.58578 22.0809 3.05035 21.4223 2.71479C20.6736 2.33331 19.6935 2.33331 17.7333 2.33331H10.2667C8.30648 2.33331 7.32639 2.33331 6.5777 2.71479C5.91913 3.05035 5.3837 3.58578 5.04814 4.24435C4.66666 4.99304 4.66666 5.97313 4.66666 7.93331V20.0666C4.66666 22.0268 4.66666 23.0069 5.04814 23.7556C5.3837 24.4142 5.91913 24.9496 6.5777 25.2852C7.32639 25.6666 8.30648 25.6666 10.2667 25.6666H14.5833M21 24.5C21 24.5 24.5 22.8318 24.5 20.3294V17.41L21.9478 16.4981C21.3346 16.2784 20.664 16.2784 20.0508 16.4981L17.5 17.41V20.3294C17.5 22.8318 21 24.5 21 24.5Z" stroke="#7C5CFF" style="stroke:#7C5CFF;stroke:color(display-p3 0.4863 0.3608 1.0000);stroke-opacity:1;" stroke-width="2" stroke-linecap="round" stroke-linejoin="round"/>
</svg>
