<svg width="32" height="32" viewBox="0 0 32 32" fill="none" xmlns="http://www.w3.org/2000/svg">
<g clip-path="url(#clip0_322_2218)">
<path d="M16 0C24.8366 0 32 7.16344 32 16C32 24.8366 24.8366 32 16 32C7.16344 32 0 24.8366 0 16C0 7.16344 7.16344 0 16 0ZM16.1641 6.85742C11.1145 6.85742 7.02148 10.9504 7.02148 16C7.02158 21.0495 11.1145 25.1426 16.1641 25.1426C18.099 25.1462 19.9844 24.5314 21.5459 23.3887L19.5684 19.958C18.6223 20.7752 17.4142 21.2254 16.1641 21.2256C13.2841 21.2256 10.9386 18.8799 10.9385 16C10.9385 13.12 13.2841 10.7744 16.1641 10.7744L17.9531 7.0332C17.3641 6.91608 16.7646 6.85735 16.1641 6.85742ZM15.7734 18.6113H20.2979L22.5605 22.5312L24.8232 18.6113L22.5605 14.6943H18.0361L15.7734 18.6113ZM20.8613 7.51074C20.4207 7.50558 19.9877 7.62831 19.6162 7.86523C19.2419 8.0956 18.9638 8.39355 18.791 8.76465L19.5811 9.55859C19.8882 8.93783 20.3334 8.63382 20.9189 8.63379C21.4149 8.63379 21.7188 8.88992 21.7188 9.24512C21.7186 9.54258 21.5714 9.78925 21.002 10.0771L20.6787 10.2334C19.978 10.5886 19.4915 10.9953 19.21 11.4561C18.9284 11.9168 18.791 12.4965 18.791 13.1973V13.3887H22.9258V12.2559H20.1924C20.266 11.8272 20.5319 11.5874 21.0693 11.3154L21.5723 11.0596C22.4713 10.5988 22.9512 10.0767 22.9512 9.22559C22.9512 8.6912 22.7429 8.26884 22.3301 7.96484C21.9173 7.66089 21.4309 7.51074 20.8613 7.51074Z" fill="#A7A4B5" style="fill:#A7A4B5;fill:color(display-p3 0.6549 0.6431 0.7098);fill-opacity:1;"/>
</g>
<defs>
<clipPath id="clip0_322_2218">
<rect width="32" height="32" fill="white" style="fill:white;fill-opacity:1;"/>
</clipPath>
</defs>
</svg>
