<svg width="24" height="24" viewBox="0 0 24 24" fill="none" xmlns="http://www.w3.org/2000/svg">
<path d="M20.6551 7.49648H17.2781C17.3691 6.98055 17.6973 6.69179 18.3616 6.36452L18.9824 6.05651C20.0936 5.50208 20.6867 4.8745 20.6867 3.85035C20.6867 3.20736 20.4297 2.69914 19.9196 2.33337C19.4095 1.9676 18.8084 1.78664 18.1046 1.78664C17.56 1.78041 17.0255 1.92893 16.5663 2.21402C16.1037 2.49123 15.7597 2.8493 15.5461 3.29592L16.5228 4.25077C16.9024 3.50383 17.4521 3.13806 18.1757 3.13806C18.7887 3.13806 19.1643 3.44608 19.1643 3.87345C19.1643 4.23151 18.9824 4.52798 18.2785 4.8745L17.8792 5.06316C17.0132 5.49053 16.4121 5.9795 16.0641 6.53393C15.7162 7.08836 15.5461 7.78524 15.5461 8.62843V8.85944H20.6551V7.49648ZM20.2043 10.4303H14.6129L11.8172 15.143H17.4086L20.2043 19.8594L23 15.143L20.2043 10.4303Z" fill="#A7A4B5" style="fill:#A7A4B5;fill:color(display-p3 0.6549 0.6431 0.7098);fill-opacity:1;"/>
<path d="M12.2975 18.2873C8.73859 18.2873 5.84008 15.4652 5.84008 12C5.84008 8.53482 8.73859 5.71263 12.2975 5.71263L14.5079 1.21176C13.78 1.07082 13.0396 0.999895 12.2975 1C6.05757 1 1 5.92439 1 12C1 18.0756 6.05757 23 12.2975 23C14.6887 23.0043 17.0189 22.2651 18.9486 20.8901L16.5049 16.7627C15.3357 17.746 13.8424 18.2871 12.2975 18.2873Z" fill="#A7A4B5" style="fill:#A7A4B5;fill:color(display-p3 0.6549 0.6431 0.7098);fill-opacity:1;"/>
</svg>
