<svg width="1088" height="612" viewBox="0 0 1088 612" fill="none" xmlns="http://www.w3.org/2000/svg">
<defs>
  <style type="text/css">
    @keyframes ripple {
      0% {
        opacity: 0.8;
        transform: scale(0.3);
      }
      50% {
        opacity: 0.4;
      }
      100% {
        opacity: 0;
        transform: scale(2);
      }
    }
    @keyframes pulse-glow {
      0%, 100% { filter: drop-shadow(0 0 8px rgba(109, 74, 255, 0.6)); }
      50% { filter: drop-shadow(0 0 16px rgba(109, 74, 255, 0.9)); }
    }
    #Our_Company {
      filter: drop-shadow(0 0 8px rgba(109, 74, 255, 0.6));
      animation: pulse-glow 5s ease-in-out infinite;
    }
    .pulse-ring {
      transform-origin: center;
      transform-box: fill-box;
    }
    .pulse-ring--1 {
      animation: ripple 5s cubic-bezier(0.4, 0, 0.2, 1) infinite;
    }
    .pulse-ring--2 {
      animation: ripple 5s cubic-bezier(0.4, 0, 0.2, 1) infinite;
      animation-delay: 1.66s;
    }
    .pulse-ring--3 {
      animation: ripple 5s cubic-bezier(0.4, 0, 0.2, 1) infinite;
      animation-delay: 3.33s;
    }
  </style>
</defs>
<rect x="0.5" y="0.5" width="1087" height="611" rx="7.5" fill="#1E1C26" style="fill:#1E1C26;fill:color(display-p3 0.1176 0.1098 0.1490);fill-opacity:1;"/>
<rect x="0.5" y="0.5" width="1087" height="611" rx="7.5" stroke="#343140" style="stroke:#343140;stroke:color(display-p3 0.2039 0.1922 0.2510);stroke-opacity:1;"/>
<path d="M543 551.5C543 551.776 543.224 552 543.5 552C543.776 552 544 551.776 544 551.5L543.5 551.5L543 551.5ZM544 64.5C544 64.2239 543.776 64 543.5 64C543.224 64 543 64.2239 543 64.5L543.5 64.5L544 64.5ZM912 551.5C912 551.776 912.224 552 912.5 552C912.776 552 913 551.776 913 551.5H912.5H912ZM913 64.5C913 64.2239 912.776 64 912.5 64C912.224 64 912 64.2239 912 64.5H912.5H913ZM789 551.5C789 551.776 789.224 552 789.5 552C789.776 552 790 551.776 790 551.5H789.5H789ZM790 64.5C790 64.2239 789.776 64 789.5 64C789.224 64 789 64.2239 789 64.5H789.5H790ZM666 551.5C666 551.776 666.224 552 666.5 552C666.776 552 667 551.776 667 551.5H666.5H666ZM667 64.5C667 64.2239 666.776 64 666.5 64C666.224 64 666 64.2239 666 64.5H666.5H667ZM51.5 551.5L51 551.5L51 552H51.5V551.5ZM174 551.5C174 551.776 174.224 552 174.5 552C174.776 552 175 551.776 175 551.5L174.5 551.5L174 551.5ZM175 64.5C175 64.2239 174.776 64 174.5 64C174.224 64 174 64.2239 174 64.5L174.5 64.5L175 64.5ZM297 551.5C297 551.776 297.224 552 297.5 552C297.776 552 298 551.776 298 551.5L297.5 551.5L297 551.5ZM298 64.5C298 64.2239 297.776 64 297.5 64C297.224 64 297 64.2239 297 64.5L297.5 64.5L298 64.5ZM420 551.5C420 551.776 420.224 552 420.5 552C420.776 552 421 551.776 421 551.5L420.5 551.5L420 551.5ZM421 64.5C421 64.2239 420.776 64 420.5 64C420.224 64 420 64.2239 420 64.5L420.5 64.5L421 64.5ZM51.5 307C51.2239 307 51 307.224 51 307.5C51 307.776 51.2239 308 51.5 308V307.5V307ZM1035.5 308C1035.78 308 1036 307.776 1036 307.5C1036 307.224 1035.78 307 1035.5 307V307.5V308ZM51.5 246C51.2239 246 51 246.224 51 246.5C51 246.776 51.2239 247 51.5 247V246.5V246ZM1035.5 247C1035.78 247 1036 246.776 1036 246.5C1036 246.224 1035.78 246 1035.5 246V246.5V247ZM1035.5 552C1035.78 552 1036 551.776 1036 551.5C1036 551.224 1035.78 551 1035.5 551V551.5V552ZM52 185C51.7239 185 51.5 185.224 51.5 185.5C51.5 185.776 51.7239 186 52 186V185.5V185ZM1035.5 186C1035.78 186 1036 185.776 1036 185.5C1036 185.224 1035.78 185 1035.5 185V185.5V186ZM52 490C51.7239 490 51.5 490.224 51.5 490.5C51.5 490.776 51.7239 491 52 491V490.5V490ZM1035.5 491C1035.78 491 1036 490.776 1036 490.5C1036 490.224 1035.78 490 1035.5 490V490.5V491ZM543.5 551.5L544 551.5L544 64.5L543.5 64.5L543 64.5L543 551.5L543.5 551.5ZM1035.5 553H1036V64H1035.5H1035V553H1035.5ZM912.5 551.5H913V64.5H912.5H912V551.5H912.5ZM789.5 551.5H790V64.5H789.5H789V551.5H789.5ZM666.5 551.5H667V64.5H666.5H666V551.5H666.5ZM51.5 551.5L52 551.5L52 64L51.5 64L51 64L51 551.5L51.5 551.5ZM174.5 551.5L175 551.5L175 64.5L174.5 64.5L174 64.5L174 551.5L174.5 551.5ZM297.5 551.5L298 551.5L298 64.5L297.5 64.5L297 64.5L297 551.5L297.5 551.5ZM420.5 551.5L421 551.5L421 64.5L420.5 64.5L420 64.5L420 551.5L420.5 551.5ZM51.5 307.5V308H1035.5V307.5V307H51.5V307.5ZM51.5 246.5V247H1035.5V246.5V246H51.5V246.5ZM51.5 551.5V552H1035.5V551.5V551H51.5V551.5ZM52 185.5V186H1035.5V185.5V185H52V185.5ZM52 490.5V491H1035.5V490.5V490H52V490.5ZM51.5 124.5V125H1035.5V124.5V124H51.5V124.5ZM51.5 429.5V430H1035.5V429.5V429H51.5V429.5ZM51 63.5V64L1036 64V63.5V63L51 63V63.5ZM51 368.5V369H1036V368.5V368H51V368.5Z" fill="#343140" style="fill:#343140;fill:color(display-p3 0.2039 0.1922 0.2510);fill-opacity:1;"/>
<path d="M35.108 34.2898H32.983C32.9223 33.9413 32.8106 33.6326 32.6477 33.3636C32.4848 33.0909 32.2822 32.8598 32.0398 32.6705C31.7973 32.4811 31.5208 32.339 31.2102 32.2443C30.9034 32.1458 30.572 32.0966 30.2159 32.0966C29.5833 32.0966 29.0227 32.2557 28.5341 32.5739C28.0455 32.8883 27.6629 33.3504 27.3864 33.9602C27.1098 34.5663 26.9716 35.3068 26.9716 36.1818C26.9716 37.072 27.1098 37.822 27.3864 38.4318C27.6667 39.0379 28.0492 39.4962 28.5341 39.8068C29.0227 40.1136 29.5814 40.267 30.2102 40.267C30.5587 40.267 30.8845 40.2216 31.1875 40.1307C31.4943 40.036 31.7689 39.8977 32.0114 39.7159C32.2576 39.5341 32.464 39.3106 32.6307 39.0455C32.8011 38.7803 32.9186 38.4773 32.983 38.1364L35.108 38.1477C35.0284 38.7008 34.8561 39.2197 34.5909 39.7045C34.3295 40.1894 33.9867 40.6174 33.5625 40.9886C33.1383 41.3561 32.642 41.6439 32.0739 41.8523C31.5057 42.0568 30.875 42.1591 30.1818 42.1591C29.1591 42.1591 28.2462 41.9223 27.4432 41.4489C26.6402 40.9754 26.0076 40.2917 25.5455 39.3977C25.0833 38.5038 24.8523 37.4318 24.8523 36.1818C24.8523 34.928 25.0852 33.8561 25.5511 32.9659C26.017 32.072 26.6515 31.3883 27.4545 30.9148C28.2576 30.4413 29.1667 30.2045 30.1818 30.2045C30.8295 30.2045 31.4318 30.2955 31.9886 30.4773C32.5455 30.6591 33.0417 30.9261 33.4773 31.2784C33.9129 31.6269 34.2708 32.0549 34.5511 32.5625C34.8352 33.0663 35.0208 33.642 35.108 34.2898ZM40.7543 42.1705C39.902 42.1705 39.1634 41.983 38.5384 41.608C37.9134 41.233 37.4285 40.7083 37.0838 40.0341C36.7429 39.3598 36.5724 38.572 36.5724 37.6705C36.5724 36.7689 36.7429 35.9792 37.0838 35.3011C37.4285 34.6231 37.9134 34.0966 38.5384 33.7216C39.1634 33.3466 39.902 33.1591 40.7543 33.1591C41.6065 33.1591 42.3452 33.3466 42.9702 33.7216C43.5952 34.0966 44.0781 34.6231 44.419 35.3011C44.7637 35.9792 44.9361 36.7689 44.9361 37.6705C44.9361 38.572 44.7637 39.3598 44.419 40.0341C44.0781 40.7083 43.5952 41.233 42.9702 41.608C42.3452 41.983 41.6065 42.1705 40.7543 42.1705ZM40.7656 40.5227C41.2277 40.5227 41.6141 40.3958 41.9247 40.142C42.2353 39.8845 42.4664 39.5398 42.6179 39.108C42.7732 38.6761 42.8509 38.1951 42.8509 37.6648C42.8509 37.1307 42.7732 36.6477 42.6179 36.2159C42.4664 35.7803 42.2353 35.4337 41.9247 35.1761C41.6141 34.9186 41.2277 34.7898 40.7656 34.7898C40.2921 34.7898 39.8982 34.9186 39.5838 35.1761C39.2732 35.4337 39.0402 35.7803 38.8849 36.2159C38.7334 36.6477 38.6577 37.1307 38.6577 37.6648C38.6577 38.1951 38.7334 38.6761 38.8849 39.108C39.0402 39.5398 39.2732 39.8845 39.5838 40.142C39.8982 40.3958 40.2921 40.5227 40.7656 40.5227ZM48.7386 36.8864V42H46.6818V33.2727H48.6477V34.7557H48.75C48.9508 34.267 49.2708 33.8788 49.7102 33.5909C50.1534 33.303 50.7008 33.1591 51.3523 33.1591C51.9545 33.1591 52.4792 33.2879 52.9261 33.5455C53.3769 33.803 53.7254 34.1761 53.9716 34.6648C54.2216 35.1534 54.3447 35.7462 54.3409 36.4432V42H52.2841V36.7614C52.2841 36.178 52.1326 35.7216 51.8295 35.392C51.5303 35.0625 51.1155 34.8977 50.5852 34.8977C50.2254 34.8977 49.9053 34.9773 49.625 35.1364C49.3485 35.2917 49.1307 35.517 48.9716 35.8125C48.8163 36.108 48.7386 36.4659 48.7386 36.8864ZM60.7898 33.2727V34.8636H55.7727V33.2727H60.7898ZM57.0114 31.1818H59.0682V39.375C59.0682 39.6515 59.1098 39.8636 59.1932 40.0114C59.2803 40.1553 59.3939 40.2538 59.5341 40.3068C59.6742 40.3598 59.8295 40.3864 60 40.3864C60.1288 40.3864 60.2462 40.3769 60.3523 40.358C60.4621 40.339 60.5455 40.322 60.6023 40.3068L60.9489 41.9148C60.839 41.9527 60.6818 41.9943 60.4773 42.0398C60.2765 42.0852 60.0303 42.1117 59.7386 42.1193C59.2235 42.1345 58.7595 42.0568 58.3466 41.8864C57.9337 41.7121 57.6061 41.4432 57.3636 41.0795C57.125 40.7159 57.0076 40.2614 57.0114 39.7159V31.1818ZM66.2798 42.1705C65.4048 42.1705 64.6491 41.9886 64.0128 41.625C63.3802 41.2576 62.8935 40.7386 62.5526 40.0682C62.2116 39.3939 62.0412 38.6004 62.0412 37.6875C62.0412 36.7898 62.2116 36.0019 62.5526 35.3239C62.8973 34.642 63.3783 34.1117 63.9957 33.733C64.6132 33.3504 65.3385 33.1591 66.1719 33.1591C66.7098 33.1591 67.2173 33.2462 67.6946 33.4205C68.1757 33.5909 68.5999 33.8561 68.9673 34.2159C69.3385 34.5758 69.6302 35.0341 69.8423 35.5909C70.0545 36.1439 70.1605 36.803 70.1605 37.5682V38.1989H63.0071V36.8125H68.1889C68.1851 36.4186 68.0999 36.0682 67.9332 35.7614C67.7666 35.4508 67.5336 35.2064 67.2344 35.0284C66.9389 34.8504 66.5942 34.7614 66.2003 34.7614C65.7798 34.7614 65.4105 34.8636 65.0923 35.0682C64.7741 35.2689 64.526 35.5341 64.348 35.8636C64.1738 36.1894 64.0848 36.5473 64.081 36.9375V38.1477C64.081 38.6553 64.1738 39.0909 64.3594 39.4545C64.545 39.8144 64.8045 40.0909 65.1378 40.2841C65.4711 40.4735 65.8613 40.5682 66.3082 40.5682C66.6075 40.5682 66.8783 40.5265 67.1207 40.4432C67.3632 40.3561 67.5734 40.2292 67.7514 40.0625C67.9295 39.8958 68.0639 39.6894 68.1548 39.4432L70.0753 39.6591C69.9541 40.1667 69.723 40.6098 69.3821 40.9886C69.045 41.3636 68.6132 41.6553 68.0866 41.8636C67.5601 42.0682 66.9579 42.1705 66.2798 42.1705ZM73.9574 36.8864V42H71.9006V33.2727H73.8665V34.7557H73.9688C74.1695 34.267 74.4896 33.8788 74.929 33.5909C75.3722 33.303 75.9195 33.1591 76.571 33.1591C77.1733 33.1591 77.6979 33.2879 78.1449 33.5455C78.5956 33.803 78.9441 34.1761 79.1903 34.6648C79.4403 35.1534 79.5634 35.7462 79.5597 36.4432V42H77.5028V36.7614C77.5028 36.178 77.3513 35.7216 77.0483 35.392C76.7491 35.0625 76.3343 34.8977 75.804 34.8977C75.4441 34.8977 75.1241 34.9773 74.8438 35.1364C74.5672 35.2917 74.3494 35.517 74.1903 35.8125C74.035 36.108 73.9574 36.4659 73.9574 36.8864ZM84.8892 42.1534C84.2036 42.1534 83.59 41.9773 83.0483 41.625C82.5066 41.2727 82.0786 40.7614 81.7642 40.0909C81.4498 39.4205 81.2926 38.6061 81.2926 37.6477C81.2926 36.678 81.4517 35.8598 81.7699 35.1932C82.0919 34.5227 82.5256 34.017 83.071 33.6761C83.6165 33.3314 84.2244 33.1591 84.8949 33.1591C85.4063 33.1591 85.8267 33.2462 86.1562 33.4205C86.4858 33.5909 86.7472 33.7973 86.9403 34.0398C87.1335 34.2784 87.2831 34.5038 87.3892 34.7159H87.4744V30.3636H89.5369V42H87.5142V40.625H87.3892C87.2831 40.8371 87.1297 41.0625 86.929 41.3011C86.7282 41.536 86.4631 41.7367 86.1335 41.9034C85.804 42.0701 85.3892 42.1534 84.8892 42.1534ZM85.4631 40.4659C85.8987 40.4659 86.2699 40.3485 86.5767 40.1136C86.8835 39.875 87.1165 39.5436 87.2756 39.1193C87.4347 38.6951 87.5142 38.2008 87.5142 37.6364C87.5142 37.072 87.4347 36.5814 87.2756 36.1648C87.1203 35.7481 86.8892 35.4242 86.5824 35.1932C86.2794 34.9621 85.9063 34.8466 85.4631 34.8466C85.0047 34.8466 84.6222 34.9659 84.3153 35.2045C84.0085 35.4432 83.7775 35.7727 83.6222 36.1932C83.4669 36.6136 83.3892 37.0947 83.3892 37.6364C83.3892 38.1818 83.4669 38.6686 83.6222 39.0966C83.7813 39.5208 84.0142 39.8561 84.321 40.1023C84.6316 40.3447 85.0123 40.4659 85.4631 40.4659ZM95.5923 42.1705C94.7173 42.1705 93.9616 41.9886 93.3253 41.625C92.6927 41.2576 92.206 40.7386 91.8651 40.0682C91.5241 39.3939 91.3537 38.6004 91.3537 37.6875C91.3537 36.7898 91.5241 36.0019 91.8651 35.3239C92.2098 34.642 92.6908 34.1117 93.3082 33.733C93.9257 33.3504 94.651 33.1591 95.4844 33.1591C96.0223 33.1591 96.5298 33.2462 97.0071 33.4205C97.4882 33.5909 97.9124 33.8561 98.2798 34.2159C98.651 34.5758 98.9427 35.0341 99.1548 35.5909C99.367 36.1439 99.473 36.803 99.473 37.5682V38.1989H92.3196V36.8125H97.5014C97.4976 36.4186 97.4124 36.0682 97.2457 35.7614C97.0791 35.4508 96.8461 35.2064 96.5469 35.0284C96.2514 34.8504 95.9067 34.7614 95.5128 34.7614C95.0923 34.7614 94.723 34.8636 94.4048 35.0682C94.0866 35.2689 93.8385 35.5341 93.6605 35.8636C93.4863 36.1894 93.3973 36.5473 93.3935 36.9375V38.1477C93.3935 38.6553 93.4863 39.0909 93.6719 39.4545C93.8575 39.8144 94.117 40.0909 94.4503 40.2841C94.7836 40.4735 95.1738 40.5682 95.6207 40.5682C95.92 40.5682 96.1908 40.5265 96.4332 40.4432C96.6757 40.3561 96.8859 40.2292 97.0639 40.0625C97.242 39.8958 97.3764 39.6894 97.4673 39.4432L99.3878 39.6591C99.2666 40.1667 99.0355 40.6098 98.6946 40.9886C98.3575 41.3636 97.9257 41.6553 97.3991 41.8636C96.8726 42.0682 96.2704 42.1705 95.5923 42.1705ZM101.213 42V33.2727H103.207V34.7273H103.298C103.457 34.2235 103.73 33.8352 104.116 33.5625C104.507 33.286 104.952 33.1477 105.452 33.1477C105.565 33.1477 105.692 33.1534 105.832 33.1648C105.976 33.1723 106.096 33.1856 106.19 33.2045V35.0966C106.103 35.0663 105.965 35.0398 105.776 35.017C105.59 34.9905 105.41 34.9773 105.236 34.9773C104.861 34.9773 104.524 35.0587 104.224 35.2216C103.929 35.3807 103.696 35.6023 103.526 35.8864C103.355 36.1705 103.27 36.4981 103.27 36.8693V42H101.213ZM114.455 35.5795L112.58 35.7841C112.527 35.5947 112.434 35.4167 112.301 35.25C112.172 35.0833 111.998 34.9489 111.778 34.8466C111.559 34.7443 111.29 34.6932 110.972 34.6932C110.544 34.6932 110.184 34.786 109.892 34.9716C109.604 35.1572 109.462 35.3977 109.466 35.6932C109.462 35.947 109.555 36.1534 109.744 36.3125C109.938 36.4716 110.256 36.6023 110.699 36.7045L112.188 37.0227C113.013 37.2008 113.627 37.483 114.028 37.8693C114.434 38.2557 114.638 38.7614 114.642 39.3864C114.638 39.9356 114.477 40.4205 114.159 40.8409C113.845 41.2576 113.407 41.5833 112.847 41.8182C112.286 42.053 111.642 42.1705 110.915 42.1705C109.847 42.1705 108.987 41.947 108.335 41.5C107.684 41.0492 107.295 40.4223 107.17 39.6193L109.176 39.4261C109.267 39.8201 109.46 40.1174 109.756 40.3182C110.051 40.5189 110.436 40.6193 110.909 40.6193C111.398 40.6193 111.79 40.5189 112.085 40.3182C112.384 40.1174 112.534 39.8693 112.534 39.5739C112.534 39.3239 112.438 39.1174 112.244 38.9545C112.055 38.7917 111.759 38.6667 111.358 38.5795L109.869 38.267C109.032 38.0928 108.413 37.7992 108.011 37.3864C107.61 36.9697 107.411 36.4432 107.415 35.8068C107.411 35.2689 107.557 34.803 107.852 34.4091C108.152 34.0114 108.566 33.7045 109.097 33.4886C109.631 33.2689 110.246 33.1591 110.943 33.1591C111.966 33.1591 112.771 33.3769 113.358 33.8125C113.949 34.2481 114.314 34.8371 114.455 35.5795Z" fill="#A7A4B5" style="fill:#A7A4B5;fill:color(display-p3 0.6549 0.6431 0.7098);fill-opacity:1;"/>
<path d="M1002.73 42V30.3636H1004.83V40.233H1009.96V42H1002.73ZM1015.56 42.1705C1014.69 42.1705 1013.93 41.9886 1013.29 41.625C1012.66 41.2576 1012.17 40.7386 1011.83 40.0682C1011.49 39.3939 1011.32 38.6004 1011.32 37.6875C1011.32 36.7898 1011.49 36.0019 1011.83 35.3239C1012.18 34.642 1012.66 34.1117 1013.28 33.733C1013.89 33.3504 1014.62 33.1591 1015.45 33.1591C1015.99 33.1591 1016.5 33.2462 1016.98 33.4205C1017.46 33.5909 1017.88 33.8561 1018.25 34.2159C1018.62 34.5758 1018.91 35.0341 1019.12 35.5909C1019.34 36.1439 1019.44 36.803 1019.44 37.5682V38.1989H1012.29V36.8125H1017.47C1017.47 36.4186 1017.38 36.0682 1017.21 35.7614C1017.05 35.4508 1016.81 35.2064 1016.52 35.0284C1016.22 34.8504 1015.88 34.7614 1015.48 34.7614C1015.06 34.7614 1014.69 34.8636 1014.37 35.0682C1014.06 35.2689 1013.81 35.5341 1013.63 35.8636C1013.46 36.1894 1013.37 36.5473 1013.36 36.9375V38.1477C1013.36 38.6553 1013.46 39.0909 1013.64 39.4545C1013.83 39.8144 1014.09 40.0909 1014.42 40.2841C1014.75 40.4735 1015.14 40.5682 1015.59 40.5682C1015.89 40.5682 1016.16 40.5265 1016.4 40.4432C1016.64 40.3561 1016.85 40.2292 1017.03 40.0625C1017.21 39.8958 1017.35 39.6894 1017.44 39.4432L1019.36 39.6591C1019.24 40.1667 1019 40.6098 1018.66 40.9886C1018.33 41.3636 1017.89 41.6553 1017.37 41.8636C1016.84 42.0682 1016.24 42.1705 1015.56 42.1705ZM1023.69 42.1761C1023.14 42.1761 1022.64 42.0777 1022.2 41.8807C1021.76 41.6799 1021.41 41.3845 1021.15 40.9943C1020.9 40.6042 1020.77 40.1231 1020.77 39.5511C1020.77 39.0587 1020.86 38.6515 1021.05 38.3295C1021.23 38.0076 1021.48 37.75 1021.79 37.5568C1022.1 37.3636 1022.46 37.2178 1022.85 37.1193C1023.25 37.017 1023.66 36.9432 1024.09 36.8977C1024.6 36.8447 1025.01 36.7973 1025.33 36.7557C1025.65 36.7102 1025.88 36.642 1026.02 36.5511C1026.17 36.4564 1026.24 36.3106 1026.24 36.1136V36.0795C1026.24 35.6515 1026.12 35.3201 1025.86 35.0852C1025.61 34.8504 1025.24 34.733 1024.77 34.733C1024.26 34.733 1023.86 34.8428 1023.57 35.0625C1023.28 35.2822 1023.08 35.5417 1022.98 35.8409L1021.06 35.5682C1021.21 35.0379 1021.46 34.5947 1021.81 34.2386C1022.16 33.8788 1022.58 33.6098 1023.09 33.4318C1023.59 33.25 1024.15 33.1591 1024.76 33.1591C1025.18 33.1591 1025.59 33.2083 1026.01 33.3068C1026.43 33.4053 1026.81 33.5682 1027.15 33.7955C1027.5 34.0189 1027.77 34.3239 1027.98 34.7102C1028.2 35.0966 1028.3 35.5795 1028.3 36.1591V42H1026.32V40.8011H1026.26C1026.13 41.0436 1025.95 41.2708 1025.73 41.483C1025.5 41.6913 1025.22 41.8598 1024.88 41.9886C1024.54 42.1136 1024.15 42.1761 1023.69 42.1761ZM1024.23 40.6648C1024.64 40.6648 1025 40.5833 1025.3 40.4205C1025.6 40.2538 1025.84 40.0341 1026 39.7614C1026.17 39.4886 1026.25 39.1913 1026.25 38.8693V37.8409C1026.19 37.8939 1026.08 37.9432 1025.92 37.9886C1025.77 38.0341 1025.6 38.0739 1025.41 38.108C1025.22 38.142 1025.03 38.1723 1024.85 38.1989C1024.66 38.2254 1024.5 38.2481 1024.36 38.267C1024.06 38.3087 1023.78 38.3769 1023.54 38.4716C1023.3 38.5663 1023.11 38.6989 1022.97 38.8693C1022.83 39.036 1022.76 39.2519 1022.76 39.517C1022.76 39.8958 1022.89 40.1818 1023.17 40.375C1023.45 40.5682 1023.8 40.6648 1024.23 40.6648ZM1033.61 42.1534C1032.92 42.1534 1032.31 41.9773 1031.77 41.625C1031.23 41.2727 1030.8 40.7614 1030.48 40.0909C1030.17 39.4205 1030.01 38.6061 1030.01 37.6477C1030.01 36.678 1030.17 35.8598 1030.49 35.1932C1030.81 34.5227 1031.24 34.017 1031.79 33.6761C1032.34 33.3314 1032.94 33.1591 1033.61 33.1591C1034.13 33.1591 1034.55 33.2462 1034.88 33.4205C1035.2 33.5909 1035.47 33.7973 1035.66 34.0398C1035.85 34.2784 1036 34.5038 1036.11 34.7159H1036.19V30.3636H1038.26V42H1036.23V40.625H1036.11C1036 40.8371 1035.85 41.0625 1035.65 41.3011C1035.45 41.536 1035.18 41.7367 1034.85 41.9034C1034.52 42.0701 1034.11 42.1534 1033.61 42.1534ZM1034.18 40.4659C1034.62 40.4659 1034.99 40.3485 1035.3 40.1136C1035.6 39.875 1035.84 39.5436 1035.99 39.1193C1036.15 38.6951 1036.23 38.2008 1036.23 37.6364C1036.23 37.072 1036.15 36.5814 1035.99 36.1648C1035.84 35.7481 1035.61 35.4242 1035.3 35.1932C1035 34.9621 1034.63 34.8466 1034.18 34.8466C1033.72 34.8466 1033.34 34.9659 1033.03 35.2045C1032.73 35.4432 1032.5 35.7727 1032.34 36.1932C1032.19 36.6136 1032.11 37.0947 1032.11 37.6364C1032.11 38.1818 1032.19 38.6686 1032.34 39.0966C1032.5 39.5208 1032.73 39.8561 1033.04 40.1023C1033.35 40.3447 1033.73 40.4659 1034.18 40.4659ZM1044.31 42.1705C1043.44 42.1705 1042.68 41.9886 1042.04 41.625C1041.41 41.2576 1040.92 40.7386 1040.58 40.0682C1040.24 39.3939 1040.07 38.6004 1040.07 37.6875C1040.07 36.7898 1040.24 36.0019 1040.58 35.3239C1040.93 34.642 1041.41 34.1117 1042.03 33.733C1042.64 33.3504 1043.37 33.1591 1044.2 33.1591C1044.74 33.1591 1045.25 33.2462 1045.73 33.4205C1046.21 33.5909 1046.63 33.8561 1047 34.2159C1047.37 34.5758 1047.66 35.0341 1047.87 35.5909C1048.09 36.1439 1048.19 36.803 1048.19 37.5682V38.1989H1041.04V36.8125H1046.22C1046.22 36.4186 1046.13 36.0682 1045.96 35.7614C1045.8 35.4508 1045.56 35.2064 1045.27 35.0284C1044.97 34.8504 1044.63 34.7614 1044.23 34.7614C1043.81 34.7614 1043.44 34.8636 1043.12 35.0682C1042.81 35.2689 1042.56 35.5341 1042.38 35.8636C1042.21 36.1894 1042.12 36.5473 1042.11 36.9375V38.1477C1042.11 38.6553 1042.21 39.0909 1042.39 39.4545C1042.58 39.8144 1042.84 40.0909 1043.17 40.2841C1043.5 40.4735 1043.89 40.5682 1044.34 40.5682C1044.64 40.5682 1044.91 40.5265 1045.15 40.4432C1045.39 40.3561 1045.6 40.2292 1045.78 40.0625C1045.96 39.8958 1046.1 39.6894 1046.19 39.4432L1048.11 39.6591C1047.99 40.1667 1047.75 40.6098 1047.41 40.9886C1047.08 41.3636 1046.64 41.6553 1046.12 41.8636C1045.59 42.0682 1044.99 42.1705 1044.31 42.1705ZM1049.93 42V33.2727H1051.93V34.7273H1052.02C1052.18 34.2235 1052.45 33.8352 1052.84 33.5625C1053.23 33.286 1053.67 33.1477 1054.17 33.1477C1054.28 33.1477 1054.41 33.1534 1054.55 33.1648C1054.7 33.1723 1054.81 33.1856 1054.91 33.2045V35.0966C1054.82 35.0663 1054.68 35.0398 1054.49 35.017C1054.31 34.9905 1054.13 34.9773 1053.95 34.9773C1053.58 34.9773 1053.24 35.0587 1052.94 35.2216C1052.65 35.3807 1052.41 35.6023 1052.24 35.8864C1052.07 36.1705 1051.99 36.4981 1051.99 36.8693V42H1049.93ZM1063.17 35.5795L1061.3 35.7841C1061.25 35.5947 1061.15 35.4167 1061.02 35.25C1060.89 35.0833 1060.72 34.9489 1060.5 34.8466C1060.28 34.7443 1060.01 34.6932 1059.69 34.6932C1059.26 34.6932 1058.9 34.786 1058.61 34.9716C1058.32 35.1572 1058.18 35.3977 1058.18 35.6932C1058.18 35.947 1058.27 36.1534 1058.46 36.3125C1058.66 36.4716 1058.97 36.6023 1059.42 36.7045L1060.91 37.0227C1061.73 37.2008 1062.35 37.483 1062.75 37.8693C1063.15 38.2557 1063.36 38.7614 1063.36 39.3864C1063.36 39.9356 1063.2 40.4205 1062.88 40.8409C1062.56 41.2576 1062.13 41.5833 1061.57 41.8182C1061 42.053 1060.36 42.1705 1059.63 42.1705C1058.57 42.1705 1057.71 41.947 1057.05 41.5C1056.4 41.0492 1056.01 40.4223 1055.89 39.6193L1057.89 39.4261C1057.99 39.8201 1058.18 40.1174 1058.47 40.3182C1058.77 40.5189 1059.15 40.6193 1059.63 40.6193C1060.12 40.6193 1060.51 40.5189 1060.8 40.3182C1061.1 40.1174 1061.25 39.8693 1061.25 39.5739C1061.25 39.3239 1061.16 39.1174 1060.96 38.9545C1060.77 38.7917 1060.48 38.6667 1060.08 38.5795L1058.59 38.267C1057.75 38.0928 1057.13 37.7992 1056.73 37.3864C1056.33 36.9697 1056.13 36.4432 1056.13 35.8068C1056.13 35.2689 1056.28 34.803 1056.57 34.4091C1056.87 34.0114 1057.29 33.7045 1057.82 33.4886C1058.35 33.2689 1058.96 33.1591 1059.66 33.1591C1060.68 33.1591 1061.49 33.3769 1062.08 33.8125C1062.67 34.2481 1063.03 34.8371 1063.17 35.5795Z" fill="#A7A4B5" style="fill:#A7A4B5;fill:color(display-p3 0.6549 0.6431 0.7098);fill-opacity:1;"/>
<path d="M1065.64 241.241L1065.64 243.821L1057.2 247.276L1057.2 247.412L1065.64 250.866L1065.64 253.446L1054 253.446L1054 251.423L1061.99 251.423L1061.99 251.315L1054.03 248.099L1054.03 246.588L1062.01 243.372L1062.01 243.264L1054 243.264L1054 241.241L1065.64 241.241ZM1053.82 258.162C1053.82 257.609 1053.92 257.111 1054.12 256.668C1054.32 256.228 1054.62 255.88 1055.01 255.622C1055.4 255.368 1055.88 255.241 1056.45 255.241C1056.94 255.241 1057.35 255.332 1057.67 255.514C1057.99 255.696 1058.25 255.944 1058.44 256.259C1058.64 256.573 1058.78 256.927 1058.88 257.321C1058.98 257.719 1059.06 258.13 1059.1 258.554C1059.16 259.065 1059.2 259.48 1059.24 259.798C1059.29 260.116 1059.36 260.348 1059.45 260.491C1059.54 260.639 1059.69 260.713 1059.89 260.713L1059.92 260.713C1060.35 260.713 1060.68 260.586 1060.91 260.332C1061.15 260.079 1061.27 259.713 1061.27 259.236C1061.27 258.732 1061.16 258.332 1060.94 258.037C1060.72 257.745 1060.46 257.548 1060.16 257.446L1060.43 255.526C1060.96 255.677 1061.41 255.927 1061.76 256.276C1062.12 256.624 1062.39 257.05 1062.57 257.554C1062.75 258.058 1062.84 258.615 1062.84 259.224C1062.84 259.645 1062.79 260.063 1062.69 260.48C1062.59 260.897 1062.43 261.277 1062.2 261.622C1061.98 261.967 1061.68 262.243 1061.29 262.452C1060.9 262.664 1060.42 262.77 1059.84 262.77L1054 262.77L1054 260.793L1055.2 260.793L1055.2 260.724C1054.96 260.599 1054.73 260.423 1054.52 260.196C1054.31 259.973 1054.14 259.69 1054.01 259.349C1053.89 259.012 1053.82 258.616 1053.82 258.162ZM1055.34 258.696C1055.34 259.109 1055.42 259.467 1055.58 259.77C1055.75 260.073 1055.97 260.306 1056.24 260.469C1056.51 260.635 1056.81 260.719 1057.13 260.719L1058.16 260.719C1058.11 260.654 1058.06 260.545 1058.01 260.389C1057.97 260.238 1057.93 260.067 1057.89 259.878C1057.86 259.688 1057.83 259.501 1057.8 259.315C1057.77 259.13 1057.75 258.969 1057.73 258.832C1057.69 258.526 1057.62 258.251 1057.53 258.009C1057.43 257.766 1057.3 257.575 1057.13 257.435C1056.96 257.295 1056.75 257.224 1056.48 257.224C1056.1 257.224 1055.82 257.363 1055.62 257.639C1055.43 257.916 1055.34 258.268 1055.34 258.696ZM1054 264.838L1062.73 264.838L1062.73 266.832L1061.27 266.832L1061.27 266.923C1061.78 267.082 1062.16 267.355 1062.44 267.741C1062.71 268.132 1062.85 268.577 1062.85 269.077C1062.85 269.19 1062.85 269.317 1062.84 269.457C1062.83 269.601 1062.81 269.721 1062.8 269.815L1060.9 269.815C1060.93 269.728 1060.96 269.59 1060.98 269.401C1061.01 269.215 1061.02 269.035 1061.02 268.861C1061.02 268.486 1060.94 268.149 1060.78 267.849C1060.62 267.554 1060.4 267.321 1060.11 267.151C1059.83 266.98 1059.5 266.895 1059.13 266.895L1054 266.895L1054 264.838ZM1056.74 273.057L1059.22 273.051L1059.22 273.381L1062.73 276.517L1062.73 278.92L1058.43 275.062L1058.43 274.636L1056.74 273.057ZM1054 271.182L1065.64 271.182L1065.64 273.239L1054 273.239L1054 271.182ZM1054 276.659L1057.97 273.818L1059.42 275.205L1054 279.119L1054 276.659ZM1053.83 283.795C1053.83 282.92 1054.01 282.165 1054.37 281.528C1054.74 280.896 1055.26 280.409 1055.93 280.068C1056.61 279.727 1057.4 279.557 1058.31 279.557C1059.21 279.557 1060 279.727 1060.68 280.068C1061.36 280.413 1061.89 280.894 1062.27 281.511C1062.65 282.129 1062.84 282.854 1062.84 283.687C1062.84 284.225 1062.75 284.733 1062.58 285.21C1062.41 285.691 1062.14 286.116 1061.78 286.483C1061.42 286.854 1060.97 287.146 1060.41 287.358C1059.86 287.57 1059.2 287.676 1058.43 287.676L1057.8 287.676L1057.8 280.523L1059.19 280.523L1059.19 285.705C1059.58 285.701 1059.93 285.616 1060.24 285.449C1060.55 285.282 1060.79 285.049 1060.97 284.75C1061.15 284.455 1061.24 284.11 1061.24 283.716C1061.24 283.295 1061.14 282.926 1060.93 282.608C1060.73 282.29 1060.47 282.042 1060.14 281.864C1059.81 281.689 1059.45 281.6 1059.06 281.597L1057.85 281.597C1057.34 281.597 1056.91 281.689 1056.55 281.875C1056.19 282.061 1055.91 282.32 1055.72 282.653C1055.53 282.987 1055.43 283.377 1055.43 283.824C1055.43 284.123 1055.47 284.394 1055.56 284.636C1055.64 284.879 1055.77 285.089 1055.94 285.267C1056.1 285.445 1056.31 285.58 1056.56 285.67L1056.34 287.591C1055.83 287.47 1055.39 287.239 1055.01 286.898C1054.64 286.561 1054.34 286.129 1054.14 285.602C1053.93 285.076 1053.83 284.473 1053.83 283.795ZM1062.73 293.774L1061.14 293.774L1061.14 288.757L1062.73 288.757L1062.73 293.774ZM1064.82 289.996L1064.82 292.053L1056.62 292.053C1056.35 292.053 1056.14 292.094 1055.99 292.178C1055.84 292.265 1055.75 292.378 1055.69 292.518C1055.64 292.659 1055.61 292.814 1055.61 292.984C1055.61 293.113 1055.62 293.231 1055.64 293.337C1055.66 293.446 1055.68 293.53 1055.69 293.587L1054.09 293.933C1054.05 293.823 1054.01 293.666 1053.96 293.462C1053.91 293.261 1053.89 293.015 1053.88 292.723C1053.87 292.208 1053.94 291.744 1054.11 291.331C1054.29 290.918 1054.56 290.59 1054.92 290.348C1055.28 290.109 1055.74 289.992 1056.28 289.996L1064.82 289.996ZM1054 299.554L1065.64 299.554L1065.64 303.918C1065.64 304.812 1065.47 305.562 1065.14 306.168C1064.8 306.777 1064.34 307.238 1063.76 307.548C1063.18 307.863 1062.52 308.02 1061.78 308.02C1061.04 308.02 1060.37 307.863 1059.8 307.548C1059.22 307.234 1058.76 306.77 1058.43 306.156C1058.1 305.543 1057.93 304.787 1057.93 303.889L1057.93 300.997L1059.66 300.997L1059.66 303.605C1059.66 304.128 1059.76 304.556 1059.94 304.889C1060.12 305.223 1060.37 305.469 1060.69 305.628C1061.01 305.791 1061.37 305.872 1061.78 305.872C1062.2 305.872 1062.56 305.791 1062.87 305.628C1063.19 305.469 1063.43 305.221 1063.61 304.884C1063.79 304.55 1063.87 304.12 1063.87 303.594L1063.87 301.662L1054 301.662L1054 299.554ZM1054 309.76L1062.73 309.76L1062.73 311.754L1061.27 311.754L1061.27 311.845C1061.78 312.004 1062.16 312.277 1062.44 312.663C1062.71 313.054 1062.85 313.499 1062.85 313.999C1062.85 314.112 1062.85 314.239 1062.84 314.379C1062.83 314.523 1062.81 314.643 1062.8 314.737L1060.9 314.737C1060.93 314.65 1060.96 314.512 1060.98 314.322C1061.01 314.137 1061.02 313.957 1061.02 313.783C1061.02 313.408 1060.94 313.071 1060.78 312.771C1060.62 312.476 1060.4 312.243 1060.11 312.072C1059.83 311.902 1059.5 311.817 1059.13 311.817L1054 311.817L1054 309.76ZM1053.83 319.608C1053.83 318.733 1054.01 317.977 1054.37 317.341C1054.74 316.708 1055.26 316.222 1055.93 315.881C1056.61 315.54 1057.4 315.369 1058.31 315.369C1059.21 315.369 1060 315.54 1060.68 315.881C1061.36 316.225 1061.89 316.706 1062.27 317.324C1062.65 317.941 1062.84 318.667 1062.84 319.5C1062.84 320.038 1062.75 320.545 1062.58 321.023C1062.41 321.504 1062.14 321.928 1061.78 322.295C1061.42 322.667 1060.97 322.958 1060.41 323.17C1059.86 323.383 1059.2 323.489 1058.43 323.489L1057.8 323.489L1057.8 316.335L1059.19 316.335L1059.19 321.517C1059.58 321.513 1059.93 321.428 1060.24 321.261C1060.55 321.095 1060.79 320.862 1060.97 320.562C1061.15 320.267 1061.24 319.922 1061.24 319.528C1061.24 319.108 1061.14 318.739 1060.93 318.42C1060.73 318.102 1060.47 317.854 1060.14 317.676C1059.81 317.502 1059.45 317.413 1059.06 317.409L1057.85 317.409C1057.34 317.409 1056.91 317.502 1056.55 317.687C1056.19 317.873 1055.91 318.133 1055.72 318.466C1055.53 318.799 1055.43 319.189 1055.43 319.636C1055.43 319.936 1055.47 320.206 1055.56 320.449C1055.64 320.691 1055.77 320.902 1055.94 321.08C1056.1 321.258 1056.31 321.392 1056.56 321.483L1056.34 323.403C1055.83 323.282 1055.39 323.051 1055.01 322.71C1054.64 322.373 1054.34 321.941 1054.14 321.415C1053.93 320.888 1053.83 320.286 1053.83 319.608ZM1060.42 332.126L1060.22 330.251C1060.41 330.198 1060.58 330.106 1060.75 329.973C1060.92 329.844 1061.05 329.67 1061.15 329.45C1061.26 329.231 1061.31 328.962 1061.31 328.643C1061.31 328.215 1061.21 327.856 1061.03 327.564C1060.84 327.276 1060.6 327.134 1060.31 327.138C1060.05 327.134 1059.85 327.227 1059.69 327.416C1059.53 327.609 1059.4 327.928 1059.3 328.371L1058.98 329.859C1058.8 330.685 1058.52 331.299 1058.13 331.7C1057.74 332.106 1057.24 332.31 1056.61 332.314C1056.06 332.31 1055.58 332.149 1055.16 331.831C1054.74 331.517 1054.42 331.079 1054.18 330.518C1053.95 329.958 1053.83 329.314 1053.83 328.587C1053.83 327.518 1054.05 326.659 1054.5 326.007C1054.95 325.356 1055.58 324.967 1056.38 324.842L1056.57 326.848C1056.18 326.939 1055.88 327.132 1055.68 327.428C1055.48 327.723 1055.38 328.107 1055.38 328.581C1055.38 329.07 1055.48 329.462 1055.68 329.757C1055.88 330.056 1056.13 330.206 1056.43 330.206C1056.68 330.206 1056.88 330.109 1057.05 329.916C1057.21 329.727 1057.33 329.431 1057.42 329.03L1057.73 327.541C1057.91 326.704 1058.2 326.085 1058.61 325.683C1059.03 325.282 1059.56 325.083 1060.19 325.087C1060.73 325.083 1061.2 325.229 1061.59 325.524C1061.99 325.823 1062.3 326.238 1062.51 326.768C1062.73 327.303 1062.84 327.918 1062.84 328.615C1062.84 329.638 1062.62 330.443 1062.19 331.03C1061.75 331.621 1061.16 331.986 1060.42 332.126ZM1053.83 337.874C1053.83 336.999 1054.01 336.243 1054.37 335.607C1054.74 334.974 1055.26 334.487 1055.93 334.146C1056.61 333.805 1057.4 333.635 1058.31 333.635C1059.21 333.635 1060 333.805 1060.68 334.146C1061.36 334.491 1061.89 334.972 1062.27 335.589C1062.65 336.207 1062.84 336.932 1062.84 337.766C1062.84 338.304 1062.75 338.811 1062.58 339.288C1062.41 339.769 1062.14 340.194 1061.78 340.561C1061.42 340.932 1060.97 341.224 1060.41 341.436C1059.86 341.648 1059.2 341.754 1058.43 341.754L1057.8 341.754L1057.8 334.601L1059.19 334.601L1059.19 339.783C1059.58 339.779 1059.93 339.694 1060.24 339.527C1060.55 339.36 1060.79 339.127 1060.97 338.828C1061.15 338.533 1061.24 338.188 1061.24 337.794C1061.24 337.374 1061.14 337.004 1060.93 336.686C1060.73 336.368 1060.47 336.12 1060.14 335.942C1059.81 335.768 1059.45 335.679 1059.06 335.675L1057.85 335.675C1057.34 335.675 1056.91 335.768 1056.55 335.953C1056.19 336.139 1055.91 336.398 1055.72 336.732C1055.53 337.065 1055.43 337.455 1055.43 337.902C1055.43 338.201 1055.47 338.472 1055.56 338.714C1055.64 338.957 1055.77 339.167 1055.94 339.345C1056.1 339.523 1056.31 339.658 1056.56 339.749L1056.34 341.669C1055.83 341.548 1055.39 341.317 1055.01 340.976C1054.64 340.639 1054.34 340.207 1054.14 339.68C1053.93 339.154 1053.83 338.552 1053.83 337.874ZM1059.11 345.551L1054 345.551L1054 343.494L1062.73 343.494L1062.73 345.46L1061.24 345.46L1061.24 345.562C1061.73 345.763 1062.12 346.083 1062.41 346.523C1062.7 346.966 1062.84 347.513 1062.84 348.165C1062.84 348.767 1062.71 349.292 1062.45 349.739C1062.2 350.189 1061.82 350.538 1061.34 350.784C1060.85 351.034 1060.25 351.157 1059.56 351.153L1054 351.153L1054 349.097L1059.24 349.097C1059.82 349.097 1060.28 348.945 1060.61 348.642C1060.94 348.343 1061.1 347.928 1061.1 347.398C1061.1 347.038 1061.02 346.718 1060.86 346.437C1060.71 346.161 1060.48 345.943 1060.19 345.784C1059.89 345.629 1059.53 345.551 1059.11 345.551ZM1053.83 357.051C1053.83 356.18 1054.02 355.432 1054.4 354.807C1054.79 354.186 1055.31 353.706 1055.99 353.369C1056.67 353.036 1057.45 352.869 1058.33 352.869C1059.22 352.869 1060 353.04 1060.68 353.381C1061.36 353.722 1061.89 354.203 1062.27 354.824C1062.65 355.449 1062.84 356.187 1062.84 357.04C1062.84 357.748 1062.71 358.375 1062.45 358.92C1062.19 359.47 1061.83 359.907 1061.35 360.233C1060.88 360.559 1060.33 360.744 1059.7 360.79L1059.7 358.824C1060.12 358.744 1060.48 358.555 1060.76 358.256C1061.04 357.96 1061.18 357.564 1061.18 357.068C1061.18 356.648 1061.07 356.278 1060.84 355.96C1060.62 355.642 1060.3 355.394 1059.87 355.216C1059.45 355.042 1058.95 354.955 1058.36 354.955C1057.77 354.955 1057.26 355.042 1056.83 355.216C1056.41 355.39 1056.08 355.634 1055.85 355.949C1055.62 356.267 1055.51 356.64 1055.51 357.068C1055.51 357.371 1055.56 357.642 1055.68 357.881C1055.79 358.123 1055.96 358.326 1056.18 358.489C1056.4 358.652 1056.67 358.763 1056.98 358.824L1056.98 360.79C1056.37 360.741 1055.82 360.559 1055.34 360.244C1054.87 359.93 1054.5 359.502 1054.23 358.96C1053.96 358.419 1053.83 357.782 1053.83 357.051ZM1053.83 366.342C1053.83 365.467 1054.01 364.712 1054.37 364.075C1054.74 363.443 1055.26 362.956 1055.93 362.615C1056.61 362.274 1057.4 362.104 1058.31 362.104C1059.21 362.104 1060 362.274 1060.68 362.615C1061.36 362.96 1061.89 363.441 1062.27 364.058C1062.65 364.676 1062.84 365.401 1062.84 366.234C1062.84 366.772 1062.75 367.28 1062.58 367.757C1062.41 368.238 1062.14 368.662 1061.78 369.03C1061.42 369.401 1060.97 369.693 1060.41 369.905C1059.86 370.117 1059.2 370.223 1058.43 370.223L1057.8 370.223L1057.8 363.07L1059.19 363.07L1059.19 368.251C1059.58 368.248 1059.93 368.162 1060.24 367.996C1060.55 367.829 1060.79 367.596 1060.97 367.297C1061.15 367.001 1061.24 366.657 1061.24 366.263C1061.24 365.842 1061.14 365.473 1060.93 365.155C1060.73 364.837 1060.47 364.589 1060.14 364.411C1059.81 364.236 1059.45 364.147 1059.06 364.143L1057.85 364.143C1057.34 364.143 1056.91 364.236 1056.55 364.422C1056.19 364.607 1055.91 364.867 1055.72 365.2C1055.53 365.534 1055.43 365.924 1055.43 366.371C1055.43 366.67 1055.47 366.941 1055.56 367.183C1055.64 367.426 1055.77 367.636 1055.94 367.814C1056.1 367.992 1056.31 368.126 1056.56 368.217L1056.34 370.138C1055.83 370.017 1055.39 369.786 1055.01 369.445C1054.64 369.107 1054.34 368.676 1054.14 368.149C1053.93 367.623 1053.83 367.02 1053.83 366.342Z" fill="#A7A4B5" style="fill:#A7A4B5;fill:color(display-p3 0.6549 0.6431 0.7098);fill-opacity:1;"/>
<path d="M34.7102 570.364V582H32.8352L27.3523 574.074H27.2557V582H25.1477V570.364H27.0341L32.5114 578.295H32.6136V570.364H34.7102ZM36.9162 582V573.273H38.973V582H36.9162ZM37.9503 572.034C37.6245 572.034 37.3442 571.926 37.1094 571.71C36.8745 571.491 36.7571 571.227 36.7571 570.92C36.7571 570.61 36.8745 570.347 37.1094 570.131C37.3442 569.911 37.6245 569.801 37.9503 569.801C38.2798 569.801 38.5601 569.911 38.7912 570.131C39.026 570.347 39.1435 570.61 39.1435 570.92C39.1435 571.227 39.026 571.491 38.7912 571.71C38.5601 571.926 38.2798 572.034 37.9503 572.034ZM44.8949 582.17C44.0237 582.17 43.2756 581.979 42.6506 581.597C42.0294 581.214 41.5502 580.686 41.2131 580.011C40.8797 579.333 40.7131 578.553 40.7131 577.67C40.7131 576.784 40.8835 576.002 41.2244 575.324C41.5653 574.642 42.0464 574.112 42.6676 573.733C43.2926 573.35 44.0313 573.159 44.8835 573.159C45.5919 573.159 46.2188 573.29 46.7642 573.551C47.3134 573.809 47.7509 574.174 48.0767 574.648C48.4025 575.117 48.5881 575.667 48.6335 576.295H46.6676C46.5881 575.875 46.3987 575.525 46.0994 575.244C45.804 574.96 45.4081 574.818 44.9119 574.818C44.4915 574.818 44.1222 574.932 43.804 575.159C43.4858 575.383 43.2377 575.705 43.0597 576.125C42.8854 576.545 42.7983 577.049 42.7983 577.636C42.7983 578.231 42.8854 578.742 43.0597 579.17C43.2339 579.595 43.4782 579.922 43.7926 580.153C44.1108 580.381 44.4839 580.494 44.9119 580.494C45.215 580.494 45.4858 580.437 45.7244 580.324C45.9669 580.206 46.1695 580.038 46.3324 579.818C46.4953 579.598 46.607 579.331 46.6676 579.017H48.6335C48.5843 579.634 48.4025 580.182 48.0881 580.659C47.7737 581.133 47.3456 581.504 46.804 581.773C46.2623 582.038 45.6259 582.17 44.8949 582.17ZM52.3793 576.886V582H50.3224V570.364H52.3338V574.756H52.4361C52.6406 574.263 52.9569 573.875 53.3849 573.591C53.8168 573.303 54.366 573.159 55.0327 573.159C55.6387 573.159 56.1671 573.286 56.6179 573.54C57.0687 573.794 57.4171 574.165 57.6634 574.653C57.9134 575.142 58.0384 575.739 58.0384 576.443V582H55.9815V576.761C55.9815 576.174 55.83 575.718 55.527 575.392C55.2277 575.062 54.8073 574.898 54.2656 574.898C53.902 574.898 53.5762 574.977 53.2884 575.136C53.0043 575.292 52.7808 575.517 52.6179 575.812C52.4588 576.108 52.3793 576.466 52.3793 576.886ZM63.9986 582.17C63.1236 582.17 62.3679 581.989 61.7315 581.625C61.099 581.258 60.6122 580.739 60.2713 580.068C59.9304 579.394 59.7599 578.6 59.7599 577.688C59.7599 576.79 59.9304 576.002 60.2713 575.324C60.616 574.642 61.0971 574.112 61.7145 573.733C62.3319 573.35 63.0573 573.159 63.8906 573.159C64.4285 573.159 64.9361 573.246 65.4134 573.42C65.8944 573.591 66.3187 573.856 66.6861 574.216C67.0573 574.576 67.349 575.034 67.5611 575.591C67.7732 576.144 67.8793 576.803 67.8793 577.568V578.199H60.7259V576.812H65.9077C65.9039 576.419 65.8187 576.068 65.652 575.761C65.4853 575.451 65.2524 575.206 64.9531 575.028C64.6577 574.85 64.313 574.761 63.919 574.761C63.4986 574.761 63.1293 574.864 62.8111 575.068C62.4929 575.269 62.2448 575.534 62.0668 575.864C61.8925 576.189 61.8035 576.547 61.7997 576.938V578.148C61.7997 578.655 61.8925 579.091 62.0781 579.455C62.2637 579.814 62.5232 580.091 62.8565 580.284C63.1899 580.473 63.58 580.568 64.027 580.568C64.3262 580.568 64.5971 580.527 64.8395 580.443C65.0819 580.356 65.2921 580.229 65.4702 580.062C65.6482 579.896 65.7827 579.689 65.8736 579.443L67.794 579.659C67.6728 580.167 67.4418 580.61 67.1009 580.989C66.7637 581.364 66.3319 581.655 65.8054 581.864C65.2789 582.068 64.6766 582.17 63.9986 582.17Z" fill="#A7A4B5" style="fill:#A7A4B5;fill:color(display-p3 0.6549 0.6431 0.7098);fill-opacity:1;"/>
<path d="M505.722 573.562C505.669 573.066 505.445 572.68 505.051 572.403C504.661 572.127 504.153 571.989 503.528 571.989C503.089 571.989 502.712 572.055 502.398 572.188C502.083 572.32 501.843 572.5 501.676 572.727C501.509 572.955 501.424 573.214 501.42 573.506C501.42 573.748 501.475 573.958 501.585 574.136C501.699 574.314 501.852 574.466 502.045 574.591C502.239 574.712 502.453 574.814 502.688 574.898C502.922 574.981 503.159 575.051 503.398 575.108L504.489 575.381C504.928 575.483 505.35 575.621 505.756 575.795C506.165 575.97 506.53 576.189 506.852 576.455C507.178 576.72 507.436 577.04 507.625 577.415C507.814 577.79 507.909 578.229 507.909 578.733C507.909 579.415 507.735 580.015 507.386 580.534C507.038 581.049 506.534 581.453 505.875 581.744C505.22 582.032 504.426 582.176 503.494 582.176C502.589 582.176 501.803 582.036 501.136 581.756C500.473 581.475 499.955 581.066 499.58 580.528C499.208 579.991 499.008 579.335 498.977 578.562H501.051C501.081 578.968 501.206 579.305 501.426 579.574C501.646 579.843 501.932 580.044 502.284 580.176C502.64 580.309 503.038 580.375 503.477 580.375C503.936 580.375 504.337 580.307 504.682 580.17C505.03 580.03 505.303 579.837 505.5 579.591C505.697 579.341 505.797 579.049 505.801 578.716C505.797 578.413 505.708 578.163 505.534 577.966C505.36 577.765 505.116 577.598 504.801 577.466C504.491 577.33 504.127 577.208 503.71 577.102L502.386 576.761C501.428 576.515 500.67 576.142 500.114 575.642C499.561 575.138 499.284 574.47 499.284 573.636C499.284 572.951 499.47 572.35 499.841 571.835C500.216 571.32 500.725 570.92 501.369 570.636C502.013 570.348 502.742 570.205 503.557 570.205C504.383 570.205 505.106 570.348 505.727 570.636C506.352 570.92 506.843 571.316 507.199 571.824C507.555 572.328 507.739 572.907 507.75 573.562H505.722ZM512.209 582.176C511.656 582.176 511.158 582.078 510.714 581.881C510.275 581.68 509.927 581.384 509.669 580.994C509.415 580.604 509.288 580.123 509.288 579.551C509.288 579.059 509.379 578.652 509.561 578.33C509.743 578.008 509.991 577.75 510.305 577.557C510.62 577.364 510.974 577.218 511.368 577.119C511.766 577.017 512.177 576.943 512.601 576.898C513.112 576.845 513.527 576.797 513.845 576.756C514.163 576.71 514.394 576.642 514.538 576.551C514.686 576.456 514.76 576.311 514.76 576.114V576.08C514.76 575.652 514.633 575.32 514.379 575.085C514.125 574.85 513.76 574.733 513.283 574.733C512.779 574.733 512.379 574.843 512.084 575.062C511.792 575.282 511.595 575.542 511.493 575.841L509.572 575.568C509.724 575.038 509.974 574.595 510.322 574.239C510.671 573.879 511.097 573.61 511.601 573.432C512.105 573.25 512.661 573.159 513.271 573.159C513.692 573.159 514.11 573.208 514.527 573.307C514.944 573.405 515.324 573.568 515.669 573.795C516.014 574.019 516.29 574.324 516.499 574.71C516.711 575.097 516.817 575.58 516.817 576.159V582H514.839V580.801H514.771C514.646 581.044 514.47 581.271 514.243 581.483C514.019 581.691 513.737 581.86 513.396 581.989C513.059 582.114 512.663 582.176 512.209 582.176ZM512.743 580.665C513.156 580.665 513.514 580.583 513.817 580.42C514.12 580.254 514.353 580.034 514.516 579.761C514.682 579.489 514.766 579.191 514.766 578.869V577.841C514.701 577.894 514.591 577.943 514.436 577.989C514.285 578.034 514.114 578.074 513.925 578.108C513.735 578.142 513.548 578.172 513.362 578.199C513.177 578.225 513.016 578.248 512.879 578.267C512.572 578.309 512.298 578.377 512.055 578.472C511.813 578.566 511.622 578.699 511.482 578.869C511.341 579.036 511.271 579.252 511.271 579.517C511.271 579.896 511.41 580.182 511.686 580.375C511.963 580.568 512.315 580.665 512.743 580.665ZM523.243 573.273V574.864H518.226V573.273H523.243ZM519.464 571.182H521.521V579.375C521.521 579.652 521.563 579.864 521.646 580.011C521.733 580.155 521.847 580.254 521.987 580.307C522.127 580.36 522.283 580.386 522.453 580.386C522.582 580.386 522.699 580.377 522.805 580.358C522.915 580.339 522.999 580.322 523.055 580.307L523.402 581.915C523.292 581.953 523.135 581.994 522.93 582.04C522.73 582.085 522.483 582.112 522.192 582.119C521.677 582.134 521.213 582.057 520.8 581.886C520.387 581.712 520.059 581.443 519.817 581.08C519.578 580.716 519.461 580.261 519.464 579.716V571.182ZM524.963 582V573.273H527.02V582H524.963ZM525.997 572.034C525.671 572.034 525.391 571.926 525.156 571.71C524.921 571.491 524.804 571.227 524.804 570.92C524.804 570.61 524.921 570.347 525.156 570.131C525.391 569.911 525.671 569.801 525.997 569.801C526.327 569.801 526.607 569.911 526.838 570.131C527.073 570.347 527.19 570.61 527.19 570.92C527.19 571.227 527.073 571.491 526.838 571.71C526.607 571.926 526.327 572.034 525.997 572.034ZM536.033 575.58L534.158 575.784C534.105 575.595 534.012 575.417 533.879 575.25C533.75 575.083 533.576 574.949 533.357 574.847C533.137 574.744 532.868 574.693 532.55 574.693C532.122 574.693 531.762 574.786 531.47 574.972C531.182 575.157 531.04 575.398 531.044 575.693C531.04 575.947 531.133 576.153 531.322 576.312C531.516 576.472 531.834 576.602 532.277 576.705L533.766 577.023C534.591 577.201 535.205 577.483 535.607 577.869C536.012 578.256 536.216 578.761 536.22 579.386C536.216 579.936 536.055 580.42 535.737 580.841C535.423 581.258 534.985 581.583 534.425 581.818C533.864 582.053 533.22 582.17 532.493 582.17C531.425 582.17 530.565 581.947 529.913 581.5C529.262 581.049 528.874 580.422 528.749 579.619L530.754 579.426C530.845 579.82 531.038 580.117 531.334 580.318C531.629 580.519 532.014 580.619 532.487 580.619C532.976 580.619 533.368 580.519 533.663 580.318C533.963 580.117 534.112 579.869 534.112 579.574C534.112 579.324 534.016 579.117 533.822 578.955C533.633 578.792 533.338 578.667 532.936 578.58L531.447 578.267C530.61 578.093 529.991 577.799 529.589 577.386C529.188 576.97 528.989 576.443 528.993 575.807C528.989 575.269 529.135 574.803 529.43 574.409C529.73 574.011 530.144 573.705 530.675 573.489C531.209 573.269 531.824 573.159 532.521 573.159C533.544 573.159 534.349 573.377 534.936 573.812C535.527 574.248 535.893 574.837 536.033 575.58ZM542.337 573.273V574.864H537.178V573.273H542.337ZM538.467 582V572.449C538.467 571.862 538.589 571.373 538.831 570.983C539.077 570.593 539.407 570.301 539.82 570.108C540.232 569.915 540.691 569.818 541.195 569.818C541.551 569.818 541.867 569.847 542.143 569.903C542.42 569.96 542.625 570.011 542.757 570.057L542.348 571.648C542.261 571.621 542.151 571.595 542.018 571.568C541.886 571.538 541.738 571.523 541.575 571.523C541.193 571.523 540.922 571.616 540.763 571.801C540.607 571.983 540.53 572.244 540.53 572.585V582H538.467ZM546.162 582.176C545.609 582.176 545.111 582.078 544.668 581.881C544.228 581.68 543.88 581.384 543.622 580.994C543.368 580.604 543.241 580.123 543.241 579.551C543.241 579.059 543.332 578.652 543.514 578.33C543.696 578.008 543.944 577.75 544.259 577.557C544.573 577.364 544.927 577.218 545.321 577.119C545.719 577.017 546.13 576.943 546.554 576.898C547.065 576.845 547.48 576.797 547.798 576.756C548.116 576.71 548.348 576.642 548.491 576.551C548.639 576.456 548.713 576.311 548.713 576.114V576.08C548.713 575.652 548.586 575.32 548.332 575.085C548.079 574.85 547.713 574.733 547.236 574.733C546.732 574.733 546.332 574.843 546.037 575.062C545.745 575.282 545.548 575.542 545.446 575.841L543.526 575.568C543.677 575.038 543.927 574.595 544.276 574.239C544.624 573.879 545.05 573.61 545.554 573.432C546.058 573.25 546.615 573.159 547.224 573.159C547.645 573.159 548.063 573.208 548.48 573.307C548.897 573.405 549.277 573.568 549.622 573.795C549.967 574.019 550.243 574.324 550.452 574.71C550.664 575.097 550.77 575.58 550.77 576.159V582H548.793V580.801H548.724C548.599 581.044 548.423 581.271 548.196 581.483C547.973 581.691 547.69 581.86 547.349 581.989C547.012 582.114 546.616 582.176 546.162 582.176ZM546.696 580.665C547.109 580.665 547.467 580.583 547.77 580.42C548.073 580.254 548.306 580.034 548.469 579.761C548.635 579.489 548.719 579.191 548.719 578.869V577.841C548.654 577.894 548.545 577.943 548.389 577.989C548.238 578.034 548.067 578.074 547.878 578.108C547.688 578.142 547.501 578.172 547.315 578.199C547.13 578.225 546.969 578.248 546.832 578.267C546.526 578.309 546.251 578.377 546.009 578.472C545.766 578.566 545.575 578.699 545.435 578.869C545.295 579.036 545.224 579.252 545.224 579.517C545.224 579.896 545.363 580.182 545.639 580.375C545.916 580.568 546.268 580.665 546.696 580.665ZM556.645 582.17C555.774 582.17 555.026 581.979 554.401 581.597C553.779 581.214 553.3 580.686 552.963 580.011C552.63 579.333 552.463 578.553 552.463 577.67C552.463 576.784 552.634 576.002 552.974 575.324C553.315 574.642 553.796 574.112 554.418 573.733C555.043 573.35 555.781 573.159 556.634 573.159C557.342 573.159 557.969 573.29 558.514 573.551C559.063 573.809 559.501 574.174 559.827 574.648C560.152 575.117 560.338 575.667 560.384 576.295H558.418C558.338 575.875 558.149 575.525 557.849 575.244C557.554 574.96 557.158 574.818 556.662 574.818C556.241 574.818 555.872 574.932 555.554 575.159C555.236 575.383 554.988 575.705 554.81 576.125C554.635 576.545 554.548 577.049 554.548 577.636C554.548 578.231 554.635 578.742 554.81 579.17C554.984 579.595 555.228 579.922 555.543 580.153C555.861 580.381 556.234 580.494 556.662 580.494C556.965 580.494 557.236 580.437 557.474 580.324C557.717 580.206 557.92 580.038 558.082 579.818C558.245 579.598 558.357 579.331 558.418 579.017H560.384C560.334 579.634 560.152 580.182 559.838 580.659C559.524 581.133 559.096 581.504 558.554 581.773C558.012 582.038 557.376 582.17 556.645 582.17ZM566.43 573.273V574.864H561.413V573.273H566.43ZM562.652 571.182H564.709V579.375C564.709 579.652 564.75 579.864 564.834 580.011C564.921 580.155 565.035 580.254 565.175 580.307C565.315 580.36 565.47 580.386 565.641 580.386C565.769 580.386 565.887 580.377 565.993 580.358C566.103 580.339 566.186 580.322 566.243 580.307L566.589 581.915C566.48 581.953 566.322 581.994 566.118 582.04C565.917 582.085 565.671 582.112 565.379 582.119C564.864 582.134 564.4 582.057 563.987 581.886C563.574 581.712 563.247 581.443 563.004 581.08C562.766 580.716 562.648 580.261 562.652 579.716V571.182ZM568.151 582V573.273H570.207V582H568.151ZM569.185 572.034C568.859 572.034 568.579 571.926 568.344 571.71C568.109 571.491 567.991 571.227 567.991 570.92C567.991 570.61 568.109 570.347 568.344 570.131C568.579 569.911 568.859 569.801 569.185 569.801C569.514 569.801 569.795 569.911 570.026 570.131C570.26 570.347 570.378 570.61 570.378 570.92C570.378 571.227 570.26 571.491 570.026 571.71C569.795 571.926 569.514 572.034 569.185 572.034ZM576.129 582.17C575.277 582.17 574.538 581.983 573.913 581.608C573.288 581.233 572.804 580.708 572.459 580.034C572.118 579.36 571.947 578.572 571.947 577.67C571.947 576.769 572.118 575.979 572.459 575.301C572.804 574.623 573.288 574.097 573.913 573.722C574.538 573.347 575.277 573.159 576.129 573.159C576.982 573.159 577.72 573.347 578.345 573.722C578.97 574.097 579.453 574.623 579.794 575.301C580.139 575.979 580.311 576.769 580.311 577.67C580.311 578.572 580.139 579.36 579.794 580.034C579.453 580.708 578.97 581.233 578.345 581.608C577.72 581.983 576.982 582.17 576.129 582.17ZM576.141 580.523C576.603 580.523 576.989 580.396 577.3 580.142C577.61 579.884 577.841 579.54 577.993 579.108C578.148 578.676 578.226 578.195 578.226 577.665C578.226 577.131 578.148 576.648 577.993 576.216C577.841 575.78 577.61 575.434 577.3 575.176C576.989 574.919 576.603 574.79 576.141 574.79C575.667 574.79 575.273 574.919 574.959 575.176C574.648 575.434 574.415 575.78 574.26 576.216C574.108 576.648 574.033 577.131 574.033 577.665C574.033 578.195 574.108 578.676 574.26 579.108C574.415 579.54 574.648 579.884 574.959 580.142C575.273 580.396 575.667 580.523 576.141 580.523ZM584.114 576.886V582H582.057V573.273H584.023V574.756H584.125C584.326 574.267 584.646 573.879 585.085 573.591C585.528 573.303 586.076 573.159 586.727 573.159C587.33 573.159 587.854 573.288 588.301 573.545C588.752 573.803 589.1 574.176 589.347 574.665C589.597 575.153 589.72 575.746 589.716 576.443V582H587.659V576.761C587.659 576.178 587.508 575.722 587.205 575.392C586.905 575.062 586.491 574.898 585.96 574.898C585.6 574.898 585.28 574.977 585 575.136C584.723 575.292 584.506 575.517 584.347 575.812C584.191 576.108 584.114 576.466 584.114 576.886Z" fill="#A7A4B5" style="fill:#A7A4B5;fill:color(display-p3 0.6549 0.6431 0.7098);fill-opacity:1;"/>
<path d="M938.07 582V570.364H940.178V575.29H945.57V570.364H947.683V582H945.57V577.057H940.178V582H938.07ZM949.885 582V573.273H951.942V582H949.885ZM950.919 572.034C950.593 572.034 950.313 571.926 950.078 571.71C949.843 571.491 949.726 571.227 949.726 570.92C949.726 570.61 949.843 570.347 950.078 570.131C950.313 569.911 950.593 569.801 950.919 569.801C951.249 569.801 951.529 569.911 951.76 570.131C951.995 570.347 952.112 570.61 952.112 570.92C952.112 571.227 951.995 571.491 951.76 571.71C951.529 571.926 951.249 572.034 950.919 572.034ZM957.852 585.455C957.114 585.455 956.479 585.354 955.949 585.153C955.419 584.956 954.992 584.691 954.67 584.358C954.348 584.025 954.125 583.655 954 583.25L955.852 582.801C955.936 582.972 956.057 583.14 956.216 583.307C956.375 583.477 956.589 583.617 956.858 583.727C957.131 583.841 957.473 583.898 957.886 583.898C958.47 583.898 958.953 583.756 959.335 583.472C959.718 583.191 959.909 582.729 959.909 582.085V580.432H959.807C959.701 580.644 959.545 580.862 959.341 581.085C959.14 581.309 958.873 581.496 958.54 581.648C958.21 581.799 957.795 581.875 957.295 581.875C956.625 581.875 956.017 581.718 955.472 581.403C954.93 581.085 954.498 580.612 954.176 579.983C953.858 579.35 953.699 578.559 953.699 577.608C953.699 576.65 953.858 575.841 954.176 575.182C954.498 574.519 954.932 574.017 955.477 573.676C956.023 573.331 956.631 573.159 957.301 573.159C957.813 573.159 958.233 573.246 958.562 573.42C958.896 573.591 959.161 573.797 959.358 574.04C959.555 574.278 959.705 574.504 959.807 574.716H959.92V573.273H961.949V582.142C961.949 582.888 961.771 583.506 961.415 583.994C961.059 584.483 960.572 584.848 959.955 585.091C959.337 585.333 958.636 585.455 957.852 585.455ZM957.869 580.261C958.305 580.261 958.676 580.155 958.983 579.943C959.29 579.731 959.523 579.426 959.682 579.028C959.841 578.631 959.92 578.153 959.92 577.597C959.92 577.047 959.841 576.566 959.682 576.153C959.527 575.741 959.295 575.42 958.989 575.193C958.686 574.962 958.313 574.847 957.869 574.847C957.411 574.847 957.028 574.966 956.722 575.205C956.415 575.443 956.184 575.771 956.028 576.188C955.873 576.6 955.795 577.07 955.795 577.597C955.795 578.131 955.873 578.598 956.028 579C956.188 579.398 956.42 579.708 956.727 579.932C957.038 580.152 957.419 580.261 957.869 580.261ZM966.114 576.886V582H964.057V570.364H966.068V574.756H966.17C966.375 574.263 966.691 573.875 967.119 573.591C967.551 573.303 968.1 573.159 968.767 573.159C969.373 573.159 969.902 573.286 970.352 573.54C970.803 573.794 971.152 574.165 971.398 574.653C971.648 575.142 971.773 575.739 971.773 576.443V582H969.716V576.761C969.716 576.174 969.564 575.718 969.261 575.392C968.962 575.062 968.542 574.898 968 574.898C967.636 574.898 967.311 574.977 967.023 575.136C966.739 575.292 966.515 575.517 966.352 575.812C966.193 576.108 966.114 576.466 966.114 576.886ZM977.929 582V570.364H982.293C983.187 570.364 983.937 570.53 984.543 570.864C985.152 571.197 985.613 571.655 985.923 572.239C986.238 572.818 986.395 573.477 986.395 574.216C986.395 574.962 986.238 575.625 985.923 576.205C985.609 576.784 985.145 577.241 984.531 577.574C983.918 577.903 983.162 578.068 982.264 578.068H979.372V576.335H981.98C982.503 576.335 982.931 576.244 983.264 576.062C983.598 575.881 983.844 575.631 984.003 575.312C984.166 574.994 984.247 574.629 984.247 574.216C984.247 573.803 984.166 573.439 984.003 573.125C983.844 572.811 983.596 572.566 983.259 572.392C982.925 572.214 982.495 572.125 981.969 572.125H980.037V582H977.929ZM991.874 582.17C990.999 582.17 990.243 581.989 989.607 581.625C988.974 581.258 988.487 580.739 988.146 580.068C987.805 579.394 987.635 578.6 987.635 577.688C987.635 576.79 987.805 576.002 988.146 575.324C988.491 574.642 988.972 574.112 989.589 573.733C990.207 573.35 990.932 573.159 991.766 573.159C992.304 573.159 992.811 573.246 993.288 573.42C993.769 573.591 994.194 573.856 994.561 574.216C994.932 574.576 995.224 575.034 995.436 575.591C995.648 576.144 995.754 576.803 995.754 577.568V578.199H988.601V576.812H993.783C993.779 576.419 993.694 576.068 993.527 575.761C993.36 575.451 993.127 575.206 992.828 575.028C992.533 574.85 992.188 574.761 991.794 574.761C991.374 574.761 991.004 574.864 990.686 575.068C990.368 575.269 990.12 575.534 989.942 575.864C989.768 576.189 989.679 576.547 989.675 576.938V578.148C989.675 578.655 989.768 579.091 989.953 579.455C990.139 579.814 990.398 580.091 990.732 580.284C991.065 580.473 991.455 580.568 991.902 580.568C992.201 580.568 992.472 580.527 992.714 580.443C992.957 580.356 993.167 580.229 993.345 580.062C993.523 579.896 993.658 579.689 993.749 579.443L995.669 579.659C995.548 580.167 995.317 580.61 994.976 580.989C994.639 581.364 994.207 581.655 993.68 581.864C993.154 582.068 992.552 582.17 991.874 582.17ZM997.494 582V573.273H999.489V574.727H999.58C999.739 574.223 1000.01 573.835 1000.4 573.562C1000.79 573.286 1001.23 573.148 1001.73 573.148C1001.85 573.148 1001.97 573.153 1002.11 573.165C1002.26 573.172 1002.38 573.186 1002.47 573.205V575.097C1002.38 575.066 1002.25 575.04 1002.06 575.017C1001.87 574.991 1001.69 574.977 1001.52 574.977C1001.14 574.977 1000.8 575.059 1000.51 575.222C1000.21 575.381 999.977 575.602 999.807 575.886C999.636 576.17 999.551 576.498 999.551 576.869V582H997.494ZM1008.73 573.273V574.864H1003.57V573.273H1008.73ZM1004.86 582V572.449C1004.86 571.862 1004.98 571.373 1005.22 570.983C1005.47 570.593 1005.8 570.301 1006.21 570.108C1006.62 569.915 1007.08 569.818 1007.59 569.818C1007.94 569.818 1008.26 569.847 1008.53 569.903C1008.81 569.96 1009.02 570.011 1009.15 570.057L1008.74 571.648C1008.65 571.621 1008.54 571.595 1008.41 571.568C1008.28 571.538 1008.13 571.523 1007.97 571.523C1007.58 571.523 1007.31 571.616 1007.15 571.801C1007 571.983 1006.92 572.244 1006.92 572.585V582H1004.86ZM1013.82 582.17C1012.96 582.17 1012.23 581.983 1011.6 581.608C1010.98 581.233 1010.49 580.708 1010.15 580.034C1009.81 579.36 1009.63 578.572 1009.63 577.67C1009.63 576.769 1009.81 575.979 1010.15 575.301C1010.49 574.623 1010.98 574.097 1011.6 573.722C1012.23 573.347 1012.96 573.159 1013.82 573.159C1014.67 573.159 1015.41 573.347 1016.03 573.722C1016.66 574.097 1017.14 574.623 1017.48 575.301C1017.83 575.979 1018 576.769 1018 577.67C1018 578.572 1017.83 579.36 1017.48 580.034C1017.14 580.708 1016.66 581.233 1016.03 581.608C1015.41 581.983 1014.67 582.17 1013.82 582.17ZM1013.83 580.523C1014.29 580.523 1014.68 580.396 1014.99 580.142C1015.3 579.884 1015.53 579.54 1015.68 579.108C1015.84 578.676 1015.91 578.195 1015.91 577.665C1015.91 577.131 1015.84 576.648 1015.68 576.216C1015.53 575.78 1015.3 575.434 1014.99 575.176C1014.68 574.919 1014.29 574.79 1013.83 574.79C1013.35 574.79 1012.96 574.919 1012.65 575.176C1012.34 575.434 1012.1 575.78 1011.95 576.216C1011.8 576.648 1011.72 577.131 1011.72 577.665C1011.72 578.195 1011.8 578.676 1011.95 579.108C1012.1 579.54 1012.34 579.884 1012.65 580.142C1012.96 580.396 1013.35 580.523 1013.83 580.523ZM1019.74 582V573.273H1021.74V574.727H1021.83C1021.99 574.223 1022.26 573.835 1022.65 573.562C1023.04 573.286 1023.48 573.148 1023.98 573.148C1024.1 573.148 1024.22 573.153 1024.36 573.165C1024.51 573.172 1024.63 573.186 1024.72 573.205V575.097C1024.63 575.066 1024.5 575.04 1024.31 575.017C1024.12 574.991 1023.94 574.977 1023.77 574.977C1023.39 574.977 1023.05 575.059 1022.76 575.222C1022.46 575.381 1022.23 575.602 1022.06 575.886C1021.89 576.17 1021.8 576.498 1021.8 576.869V582H1019.74ZM1026.09 582V573.273H1028.05V574.756H1028.16C1028.34 574.256 1028.64 573.866 1029.06 573.585C1029.48 573.301 1029.98 573.159 1030.57 573.159C1031.16 573.159 1031.65 573.303 1032.06 573.591C1032.47 573.875 1032.76 574.263 1032.92 574.756H1033.01C1033.21 574.271 1033.53 573.884 1033.99 573.597C1034.45 573.305 1035 573.159 1035.63 573.159C1036.44 573.159 1037.09 573.413 1037.6 573.92C1038.11 574.428 1038.36 575.169 1038.36 576.142V582H1036.3V576.46C1036.3 575.919 1036.15 575.523 1035.87 575.273C1035.58 575.019 1035.23 574.892 1034.81 574.892C1034.31 574.892 1033.93 575.047 1033.64 575.358C1033.37 575.665 1033.23 576.064 1033.23 576.557V582H1031.21V576.375C1031.21 575.924 1031.08 575.564 1030.8 575.295C1030.54 575.027 1030.18 574.892 1029.75 574.892C1029.45 574.892 1029.18 574.968 1028.94 575.119C1028.7 575.267 1028.5 575.477 1028.36 575.75C1028.22 576.019 1028.14 576.333 1028.14 576.693V582H1026.09ZM1044.31 582.17C1043.44 582.17 1042.68 581.989 1042.04 581.625C1041.41 581.258 1040.92 580.739 1040.58 580.068C1040.24 579.394 1040.07 578.6 1040.07 577.688C1040.07 576.79 1040.24 576.002 1040.58 575.324C1040.93 574.642 1041.41 574.112 1042.03 573.733C1042.64 573.35 1043.37 573.159 1044.2 573.159C1044.74 573.159 1045.25 573.246 1045.73 573.42C1046.21 573.591 1046.63 573.856 1047 574.216C1047.37 574.576 1047.66 575.034 1047.87 575.591C1048.09 576.144 1048.19 576.803 1048.19 577.568V578.199H1041.04V576.812H1046.22C1046.22 576.419 1046.13 576.068 1045.96 575.761C1045.8 575.451 1045.56 575.206 1045.27 575.028C1044.97 574.85 1044.63 574.761 1044.23 574.761C1043.81 574.761 1043.44 574.864 1043.12 575.068C1042.81 575.269 1042.56 575.534 1042.38 575.864C1042.21 576.189 1042.12 576.547 1042.11 576.938V578.148C1042.11 578.655 1042.21 579.091 1042.39 579.455C1042.58 579.814 1042.84 580.091 1043.17 580.284C1043.5 580.473 1043.89 580.568 1044.34 580.568C1044.64 580.568 1044.91 580.527 1045.15 580.443C1045.39 580.356 1045.6 580.229 1045.78 580.062C1045.96 579.896 1046.1 579.689 1046.19 579.443L1048.11 579.659C1047.99 580.167 1047.75 580.61 1047.41 580.989C1047.08 581.364 1046.64 581.655 1046.12 581.864C1045.59 582.068 1044.99 582.17 1044.31 582.17ZM1049.93 582V573.273H1051.93V574.727H1052.02C1052.18 574.223 1052.45 573.835 1052.84 573.562C1053.23 573.286 1053.67 573.148 1054.17 573.148C1054.28 573.148 1054.41 573.153 1054.55 573.165C1054.7 573.172 1054.81 573.186 1054.91 573.205V575.097C1054.82 575.066 1054.68 575.04 1054.49 575.017C1054.31 574.991 1054.13 574.977 1053.95 574.977C1053.58 574.977 1053.24 575.059 1052.94 575.222C1052.65 575.381 1052.41 575.602 1052.24 575.886C1052.07 576.17 1051.99 576.498 1051.99 576.869V582H1049.93ZM1063.17 575.58L1061.3 575.784C1061.25 575.595 1061.15 575.417 1061.02 575.25C1060.89 575.083 1060.72 574.949 1060.5 574.847C1060.28 574.744 1060.01 574.693 1059.69 574.693C1059.26 574.693 1058.9 574.786 1058.61 574.972C1058.32 575.157 1058.18 575.398 1058.18 575.693C1058.18 575.947 1058.27 576.153 1058.46 576.312C1058.66 576.472 1058.97 576.602 1059.42 576.705L1060.91 577.023C1061.73 577.201 1062.35 577.483 1062.75 577.869C1063.15 578.256 1063.36 578.761 1063.36 579.386C1063.36 579.936 1063.2 580.42 1062.88 580.841C1062.56 581.258 1062.13 581.583 1061.57 581.818C1061 582.053 1060.36 582.17 1059.63 582.17C1058.57 582.17 1057.71 581.947 1057.05 581.5C1056.4 581.049 1056.01 580.422 1055.89 579.619L1057.89 579.426C1057.99 579.82 1058.18 580.117 1058.47 580.318C1058.77 580.519 1059.15 580.619 1059.63 580.619C1060.12 580.619 1060.51 580.519 1060.8 580.318C1061.1 580.117 1061.25 579.869 1061.25 579.574C1061.25 579.324 1061.16 579.117 1060.96 578.955C1060.77 578.792 1060.48 578.667 1060.08 578.58L1058.59 578.267C1057.75 578.093 1057.13 577.799 1056.73 577.386C1056.33 576.97 1056.13 576.443 1056.13 575.807C1056.13 575.269 1056.28 574.803 1056.57 574.409C1056.87 574.011 1057.29 573.705 1057.82 573.489C1058.35 573.269 1058.96 573.159 1059.66 573.159C1060.68 573.159 1061.49 573.377 1062.08 573.812C1062.67 574.248 1063.03 574.837 1063.17 575.58Z" fill="#A7A4B5" style="fill:#A7A4B5;fill:color(display-p3 0.6549 0.6431 0.7098);fill-opacity:1;"/>
<circle cx="969" cy="256" r="11.5" fill="#3F3B4C" stroke="#4A4658" style="fill:#3F3B4C;fill:color(display-p3 0.2471 0.2314 0.2980);fill-opacity:1;stroke:#4A4658;stroke:color(display-p3 0.2902 0.2745 0.3451);stroke-opacity:1;"/>
<circle cx="939" cy="438" r="5.5" fill="#16141C" stroke="#4A4658" style="fill:#16141C;fill:color(display-p3 0.0863 0.0784 0.1098);fill-opacity:1;stroke:#4A4658;stroke:color(display-p3 0.2902 0.2745 0.3451);stroke-opacity:1;"/>
<circle cx="887" cy="442" r="11.5" fill="#3F3B4C" stroke="#4A4658" style="fill:#3F3B4C;fill:color(display-p3 0.2471 0.2314 0.2980);fill-opacity:1;stroke:#4A4658;stroke:color(display-p3 0.2902 0.2745 0.3451);stroke-opacity:1;"/>
<circle cx="528" cy="481" r="11.5" fill="#3F3B4C" stroke="#4A4658" style="fill:#3F3B4C;fill:color(display-p3 0.2471 0.2314 0.2980);fill-opacity:1;stroke:#4A4658;stroke:color(display-p3 0.2902 0.2745 0.3451);stroke-opacity:1;"/>
<circle cx="279" cy="475" r="11.5" fill="#3F3B4C" stroke="#4A4658" style="fill:#3F3B4C;fill:color(display-p3 0.2471 0.2314 0.2980);fill-opacity:1;stroke:#4A4658;stroke:color(display-p3 0.2902 0.2745 0.3451);stroke-opacity:1;"/>
<circle cx="276" cy="426" r="11.5" fill="#3F3B4C" stroke="#4A4658" style="fill:#3F3B4C;fill:color(display-p3 0.2471 0.2314 0.2980);fill-opacity:1;stroke:#4A4658;stroke:color(display-p3 0.2902 0.2745 0.3451);stroke-opacity:1;"/>
<circle cx="203" cy="357" r="11.5" fill="#3F3B4C" stroke="#4A4658" style="fill:#3F3B4C;fill:color(display-p3 0.2471 0.2314 0.2980);fill-opacity:1;stroke:#4A4658;stroke:color(display-p3 0.2902 0.2745 0.3451);stroke-opacity:1;"/>
<circle cx="380" cy="324" r="11.5" fill="#3F3B4C" stroke="#4A4658" style="fill:#3F3B4C;fill:color(display-p3 0.2471 0.2314 0.2980);fill-opacity:1;stroke:#4A4658;stroke:color(display-p3 0.2902 0.2745 0.3451);stroke-opacity:1;"/>
<circle cx="380" cy="81" r="11.5" fill="#3F3B4C" stroke="#4A4658" style="fill:#3F3B4C;fill:color(display-p3 0.2471 0.2314 0.2980);fill-opacity:1;stroke:#4A4658;stroke:color(display-p3 0.2902 0.2745 0.3451);stroke-opacity:1;"/>
<circle cx="276" cy="88" r="11.5" fill="#3F3B4C" stroke="#4A4658" style="fill:#3F3B4C;fill:color(display-p3 0.2471 0.2314 0.2980);fill-opacity:1;stroke:#4A4658;stroke:color(display-p3 0.2902 0.2745 0.3451);stroke-opacity:1;"/>
<circle cx="296" cy="110" r="11.5" fill="#3F3B4C" stroke="#4A4658" style="fill:#3F3B4C;fill:color(display-p3 0.2471 0.2314 0.2980);fill-opacity:1;stroke:#4A4658;stroke:color(display-p3 0.2902 0.2745 0.3451);stroke-opacity:1;"/>
<g id="Our_Company">
  <!-- Pulsing rings -->
  <circle cx="939" cy="438" r="28" fill="none" stroke="#6D4AFF" stroke-width="2" class="pulse-ring pulse-ring--1"/>
  <circle cx="939" cy="438" r="28" fill="none" stroke="#6D4AFF" stroke-width="1.5" class="pulse-ring pulse-ring--2"/>
  <circle cx="939" cy="438" r="28" fill="none" stroke="#6D4AFF" stroke-width="1" class="pulse-ring pulse-ring--3"/>
  <!-- Main purple circle -->
  <rect x="911" y="410" width="56" height="56" rx="28" fill="#6D4AFF" style="fill:#6D4AFF;fill:color(display-p3 0.4275 0.2902 1.0000);fill-opacity:1;"/>
  <!-- Logo paths -->
  <path d="M952.834 442.046C952.081 442.784 951.099 443.165 950.111 443.188C950.101 443.191 950.089 443.188 950.08 443.191H950.008C948.257 443.214 946.475 443.908 945.096 445.262C943.72 446.611 943.012 448.357 942.986 450.071V450.089C942.986 450.151 942.983 450.211 942.981 450.272C942.983 450.274 942.983 450.277 942.981 450.281C942.979 450.342 942.974 450.403 942.967 450.464C942.961 450.515 942.957 450.566 942.95 450.618C942.947 450.639 942.945 450.658 942.94 450.679C942.933 450.732 942.924 450.784 942.912 450.835C942.9 450.898 942.886 450.959 942.872 451.02C942.857 451.081 942.84 451.141 942.821 451.202C942.802 451.263 942.783 451.324 942.762 451.382C942.74 451.443 942.716 451.501 942.693 451.56C942.676 451.602 942.656 451.647 942.638 451.686C942.578 451.819 942.509 451.95 942.433 452.077C942.404 452.123 942.376 452.17 942.342 452.217C942.264 452.336 942.178 452.455 942.083 452.568C942.002 452.665 941.913 452.762 941.818 452.855C940.262 454.382 937.738 454.382 936.182 452.855C936.082 452.757 935.987 452.652 935.899 452.546C935.86 452.5 935.822 452.451 935.786 452.402C935.746 452.348 935.708 452.297 935.672 452.24C935.636 452.186 935.601 452.133 935.567 452.077C935.41 451.817 935.286 451.543 935.198 451.261C935.184 451.216 935.169 451.172 935.158 451.125C935.151 451.106 935.146 451.086 935.141 451.067C935.132 451.029 935.122 450.99 935.113 450.95C935.093 450.868 935.077 450.784 935.065 450.7C935.058 450.665 935.053 450.63 935.048 450.595C935.039 450.515 935.029 450.433 935.024 450.354C935.022 450.307 935.019 450.258 935.017 450.211V450.197C935.015 450.162 935.015 450.124 935.015 450.089V450.059C934.986 448.348 934.279 446.608 932.904 445.262C931.53 443.911 929.752 443.217 928.004 443.191C927.965 443.188 927.928 443.188 927.89 443.188C926.901 443.165 925.922 442.784 925.166 442.046C923.611 440.517 923.611 438.041 925.166 436.514C926.724 434.987 929.247 434.987 930.803 436.514C931.556 437.253 931.946 438.216 931.97 439.187V439.287C931.994 441.005 932.701 442.754 934.081 444.108C935.458 445.456 937.235 446.153 938.981 446.178H939.031C940.775 446.15 942.547 445.454 943.919 444.108C945.296 442.756 946.004 441.012 946.03 439.299C946.03 439.261 946.033 439.223 946.03 439.187C946.054 438.216 946.445 437.253 947.198 436.514C948.753 434.987 951.278 434.987 952.834 436.514C954.389 438.041 954.389 440.517 952.834 442.046Z" fill="white" style="fill:white;fill-opacity:1;"/>
  <path d="M952.834 430.676C952.081 431.415 951.099 431.796 950.111 431.819C950.101 431.822 950.089 431.819 950.08 431.822H950.008C948.257 431.845 946.475 432.539 945.096 433.893C943.72 435.242 943.012 436.988 942.986 438.702V438.721C942.986 438.781 942.983 438.842 942.981 438.903C942.983 438.905 942.983 438.907 942.981 438.912C942.979 438.973 942.974 439.034 942.967 439.094C942.961 439.146 942.957 439.197 942.95 439.249C942.947 439.27 942.945 439.289 942.94 439.309C942.933 439.363 942.924 439.414 942.912 439.466C942.9 439.529 942.886 439.59 942.872 439.651C942.857 439.712 942.84 439.773 942.821 439.833C942.802 439.894 942.783 439.955 942.762 440.013C942.74 440.074 942.716 440.133 942.693 440.191C942.676 440.233 942.656 440.277 942.638 440.317C942.578 440.45 942.509 440.582 942.433 440.707C942.404 440.754 942.376 440.801 942.342 440.848C942.264 440.967 942.178 441.086 942.083 441.198C942.002 441.297 941.913 441.392 941.818 441.486C940.262 443.012 937.738 443.012 936.182 441.486C936.082 441.387 935.987 441.283 935.899 441.177C935.86 441.131 935.822 441.082 935.786 441.032C935.746 440.979 935.708 440.927 935.672 440.871C935.636 440.818 935.601 440.764 935.567 440.707C935.41 440.448 935.286 440.175 935.198 439.892C935.184 439.847 935.169 439.803 935.158 439.756C935.151 439.738 935.146 439.716 935.141 439.697C935.132 439.66 935.122 439.62 935.113 439.58C935.093 439.499 935.077 439.414 935.065 439.331C935.058 439.295 935.053 439.26 935.048 439.225C935.039 439.146 935.029 439.064 935.024 438.985C935.022 438.938 935.019 438.888 935.017 438.842V438.828C935.015 438.793 935.015 438.756 935.015 438.721V438.69C934.986 436.979 934.279 435.24 932.904 433.893C931.53 432.542 929.752 431.847 928.004 431.822C927.965 431.819 927.928 431.819 927.89 431.819C926.901 431.796 925.922 431.415 925.166 430.676C923.611 429.147 923.611 426.671 925.166 425.145C926.724 423.618 929.247 423.618 930.803 425.145C931.556 425.884 931.946 426.847 931.97 427.817V427.917C931.994 429.636 932.701 431.385 934.081 432.738C935.458 434.087 937.235 434.784 938.981 434.809H939.031C940.775 434.781 942.547 434.085 943.919 432.738C945.296 431.387 946.004 429.643 946.03 427.929C946.03 427.892 946.033 427.854 946.03 427.817C946.054 426.847 946.445 425.884 947.198 425.145C948.753 423.618 951.278 423.618 952.834 425.145C954.389 426.671 954.389 429.147 952.834 430.676Z" fill="white" style="fill:white;fill-opacity:1;"/>
</g>
</svg>
