<svg width="59" height="20" viewBox="0 0 59 20" fill="none" xmlns="http://www.w3.org/2000/svg">
<g clip-path="url(#clip0_322_1672)">
<path d="M0.298828 7.94853C0.298828 3.89706 3.69782 0.613974 7.75423 0.613974C9.99224 0.613974 11.5868 1.49412 12.7898 2.63971L11.363 4.05074C10.5098 3.24044 9.34881 2.61177 7.75423 2.61177C4.80284 2.61177 2.49488 4.98677 2.49488 7.93456C2.49488 10.8824 4.80284 13.2574 7.75423 13.2574C9.67053 13.2574 10.7616 12.489 11.4609 11.7904C12.0344 11.2176 12.4121 10.3934 12.552 9.27574H7.75423V7.27794H14.5102C14.5802 7.64118 14.6221 8.0603 14.6221 8.5353C14.6221 10.0441 14.2165 11.9022 12.8877 13.2154C11.5868 14.5566 9.93629 15.2691 7.75423 15.2691C3.69782 15.2691 0.298828 11.986 0.298828 7.94853Z" fill="#A7A4B5" style="fill:#A7A4B5;fill:color(display-p3 0.6549 0.6431 0.7098);fill-opacity:1;"/>
<path d="M20.0641 5.83898C17.4484 5.83898 15.3223 7.8228 15.3223 10.561C15.3223 13.2853 17.4484 15.2831 20.0641 15.2831C22.6798 15.2831 24.8059 13.2853 24.8059 10.561C24.8059 7.8228 22.6798 5.83898 20.0641 5.83898ZM20.0641 13.411C18.6373 13.411 17.3924 12.2375 17.3924 10.5471C17.3924 8.84265 18.6233 7.6831 20.0641 7.6831C21.4908 7.6831 22.7357 8.84265 22.7357 10.5471C22.7357 12.2375 21.4908 13.411 20.0641 13.411Z" fill="#A7A4B5" style="fill:#A7A4B5;fill:color(display-p3 0.6549 0.6431 0.7098);fill-opacity:1;"/>
<path d="M30.4137 5.83898C27.798 5.83898 25.6719 7.8228 25.6719 10.561C25.6719 13.2853 27.798 15.2831 30.4137 15.2831C33.0294 15.2831 35.1555 13.2853 35.1555 10.561C35.1555 7.8228 33.0294 5.83898 30.4137 5.83898ZM30.4137 13.411C28.9869 13.411 27.742 12.2375 27.742 10.5471C27.742 8.84265 28.973 7.6831 30.4137 7.6831C31.8544 7.6831 33.0853 8.84265 33.0853 10.5471C33.0853 12.2375 31.8404 13.411 30.4137 13.411Z" fill="#A7A4B5" style="fill:#A7A4B5;fill:color(display-p3 0.6549 0.6431 0.7098);fill-opacity:1;"/>
<path d="M43.1152 6.1184V6.88678H43.0452C42.5836 6.32796 41.6884 5.82502 40.5554 5.82502C38.1915 5.82502 36.0235 7.89266 36.0235 10.561C36.0235 13.2015 38.1915 15.2691 40.5554 15.2691C41.6884 15.2691 42.5836 14.7662 43.0452 14.1934H43.1152V14.878C43.1152 16.6802 42.15 17.6441 40.5974 17.6441C39.3245 17.6441 38.5412 16.736 38.2195 15.9677L36.4151 16.7221C36.9326 17.9794 38.3174 19.5162 40.6114 19.5162C43.0452 19.5162 45.1014 18.0912 45.1014 14.5985V6.1184H43.1152ZM40.7373 13.411C39.3105 13.411 38.1076 12.2096 38.1076 10.561C38.1076 8.89855 39.3105 7.6831 40.7373 7.6831C42.15 7.6831 43.255 8.89855 43.255 10.561C43.269 12.2235 42.15 13.411 40.7373 13.411Z" fill="#A7A4B5" style="fill:#A7A4B5;fill:color(display-p3 0.6549 0.6431 0.7098);fill-opacity:1;"/>
<path d="M48.5975 14.9897H46.5273V1.11692H48.5975V14.9897Z" fill="#A7A4B5" style="fill:#A7A4B5;fill:color(display-p3 0.6549 0.6431 0.7098);fill-opacity:1;"/>
<path d="M54.2913 13.411C53.2282 13.411 52.4869 12.9221 51.9973 11.986L58.3197 9.37354L58.1099 8.84265C57.7183 7.78089 56.5153 5.83898 54.0675 5.83898C51.6336 5.83898 49.6054 7.75295 49.6054 10.561C49.6054 13.2015 51.6057 15.2831 54.2913 15.2831C56.4594 15.2831 57.7043 13.9559 58.2358 13.1875L56.6272 12.1118C56.0817 12.8941 55.3543 13.411 54.2913 13.411ZM54.1374 7.65515C54.9627 7.65515 55.6621 8.0603 55.8859 8.66104L51.6616 10.4074C51.6057 8.59118 53.0744 7.65515 54.1374 7.65515Z" fill="#A7A4B5" style="fill:#A7A4B5;fill:color(display-p3 0.6549 0.6431 0.7098);fill-opacity:1;"/>
</g>
<defs>
<clipPath id="clip0_322_1672">
<rect width="59" height="20" fill="white" style="fill:white;fill-opacity:1;"/>
</clipPath>
</defs>
</svg>
