<svg width="128" height="32" viewBox="0 0 128 32" fill="none" xmlns="http://www.w3.org/2000/svg">
<g clip-path="url(#clip0_2013_451)">
<path d="M52.3348 10.7166C52.3348 10.8725 52.2976 11.0343 52.2239 11.2014L47.6645 21.5782C47.5536 21.8184 47.3967 21.9947 47.1938 22.1085C46.9909 22.2223 46.7846 22.2789 46.5756 22.2789C46.3781 22.267 46.1874 22.2038 46.0034 22.09C45.8187 21.9769 45.6767 21.8118 45.5787 21.5967L41.0186 11.1836C40.9821 11.1119 40.9571 11.0369 40.9449 10.9593C40.9327 10.8816 40.9266 10.8067 40.9266 10.7351C40.9266 10.3877 41.0559 10.1212 41.3142 9.93582C41.5725 9.75026 41.8187 9.65747 42.0527 9.65747C42.5201 9.65747 42.8583 9.89106 43.0679 10.3574L46.7772 18.8411L50.1752 10.3574C50.3842 9.90288 50.7224 9.67528 51.1904 9.67528C51.4975 9.67528 51.7654 9.7739 51.9933 9.97197C52.2213 10.1693 52.3348 10.4179 52.3348 10.7166Z" fill="white" style="fill:white;fill-opacity:1;"/>
<path d="M61.794 20.5283C62.009 20.7376 62.1165 20.9803 62.1165 21.2552C62.1165 21.5545 62.009 21.7999 61.794 21.9914C61.5779 22.1834 61.311 22.2787 60.9912 22.2787H54.8063C54.4864 22.2787 54.2185 22.1742 54.0035 21.9643C53.7883 21.7552 53.6808 21.4946 53.6808 21.1836V10.8067C53.6808 10.4955 53.7883 10.235 54.0035 10.0252C54.2185 9.81598 54.4864 9.71143 54.8063 9.71143H60.9912C61.311 9.71143 61.5779 9.81004 61.794 10.0074C62.009 10.2048 62.1165 10.4594 62.1165 10.7705C62.1165 11.0698 62.009 11.3125 61.794 11.4973C61.5779 11.6834 61.311 11.7756 60.9912 11.7756H55.9879V14.8278H60.1598C60.4796 14.8278 60.7476 14.9265 60.9631 15.1245C61.1781 15.3218 61.2856 15.5764 61.2856 15.8875C61.2856 16.1868 61.1781 16.4289 60.9631 16.6144C60.7476 16.7999 60.4796 16.8927 60.1598 16.8927H55.9879V20.2139H60.9912C61.311 20.2139 61.5779 20.3192 61.794 20.5283Z" fill="white" style="fill:white;fill-opacity:1;"/>
<path d="M72.1012 21.2375C72.1012 21.5368 71.9937 21.7848 71.7782 21.9828C71.5632 22.1801 71.2952 22.2788 70.9754 22.2788H64.9758C64.656 22.2788 64.388 22.1742 64.173 21.9644C63.9575 21.7552 63.85 21.4947 63.85 21.1835V10.8067C63.85 10.4955 63.9607 10.235 64.1817 10.0252C64.4037 9.81603 64.6868 9.71143 65.0314 9.71143C65.3264 9.71143 65.5884 9.81603 65.8158 10.0252C66.0433 10.235 66.1578 10.4955 66.1578 10.8067V20.1785H70.9754C71.2952 20.1785 71.5632 20.2771 71.7782 20.4744C71.9937 20.6718 72.1012 20.9263 72.1012 21.2375Z" fill="white" style="fill:white;fill-opacity:1;"/>
<path d="M77.968 22.4583C77.1064 22.4583 76.3312 22.3534 75.6419 22.1441C74.9525 21.9348 74.2946 21.5667 73.6668 21.0399C73.5069 20.9084 73.3838 20.7588 73.2979 20.5911C73.2114 20.4236 73.1682 20.2561 73.1682 20.0884C73.1682 19.8132 73.2698 19.5708 73.4729 19.3613C73.676 19.1521 73.9315 19.0472 74.2389 19.0472C74.4728 19.0472 74.6824 19.119 74.8666 19.2626C75.3345 19.6337 75.7991 19.9151 76.2604 20.1064C76.7218 20.298 77.2911 20.3936 77.968 20.3936C78.4234 20.3936 78.8416 20.3249 79.2235 20.1871C79.6049 20.0497 79.9123 19.864 80.1462 19.6306C80.3801 19.3972 80.4973 19.131 80.4973 18.8317C80.4973 18.4726 80.386 18.1674 80.1646 17.916C79.9431 17.6647 79.6049 17.4523 79.1495 17.2787C78.6941 17.1053 78.116 16.9706 77.4143 16.8748C76.7498 16.7791 76.1648 16.6324 75.6608 16.4349C75.1557 16.2374 74.7343 15.986 74.3961 15.6809C74.0574 15.3757 73.8019 15.0165 73.6301 14.6036C73.4572 14.1906 73.3719 13.727 73.3719 13.2122C73.3719 12.4343 73.5772 11.77 73.9899 11.2194C74.4021 10.669 74.959 10.2499 75.6608 9.96262C76.362 9.67534 77.1372 9.5318 77.9864 9.5318C78.7865 9.5318 79.5282 9.64844 80.211 9.88182C80.8938 10.1152 81.4508 10.4114 81.8814 10.7705C82.2384 11.046 82.4167 11.363 82.4167 11.7221C82.4167 11.9855 82.3124 12.2248 82.1028 12.4402C81.8938 12.6556 81.648 12.7633 81.3649 12.7633C81.1802 12.7633 81.0138 12.7095 80.8663 12.6018C80.6691 12.4343 80.4049 12.2759 80.0727 12.126C79.7405 11.9765 79.3893 11.8508 79.0204 11.749C78.6509 11.6475 78.3062 11.5964 77.9864 11.5964C77.457 11.5964 77.0108 11.6623 76.6483 11.7939C76.2853 11.9257 76.0114 12.1052 75.8266 12.3325C75.6419 12.56 75.55 12.8234 75.55 13.1224C75.55 13.4815 75.6575 13.7777 75.8731 14.0112C76.0881 14.2446 76.3992 14.4302 76.8049 14.5676C77.2112 14.7055 77.6974 14.828 78.2635 14.9357C79.002 15.0676 79.6508 15.223 80.211 15.4026C80.7707 15.5821 81.2353 15.8127 81.6048 16.0938C81.9737 16.3752 82.2509 16.7283 82.4356 17.153C82.6198 17.578 82.7122 18.0956 82.7122 18.7061C82.7122 19.4841 82.4907 20.1543 82.0477 20.7168C81.6048 21.2795 81.023 21.7104 80.3034 22.0095C79.5833 22.3084 78.8048 22.4583 77.968 22.4583Z" fill="white" style="fill:white;fill-opacity:1;"/>
<path d="M94.0022 10.7527C94.0022 11.0638 93.8947 11.3125 93.6791 11.4973C93.4636 11.6834 93.1961 11.7756 92.8758 11.7756H89.9775V21.1835C89.9775 21.4946 89.8641 21.7552 89.6361 21.9643C89.4082 22.1742 89.1159 22.2787 88.7599 22.2787C88.4147 22.2787 88.1322 22.1742 87.9101 21.9643C87.6892 21.7552 87.5779 21.4946 87.5779 21.1835V11.7756H84.6796C84.3598 11.7756 84.0919 11.6802 83.8769 11.4888C83.6613 11.2973 83.5538 11.046 83.5538 10.7349C83.5538 10.4239 83.6613 10.1751 83.8769 9.98957C84.0919 9.80416 84.3598 9.71143 84.6796 9.71143H92.8758C93.1961 9.71143 93.4636 9.80747 93.6791 9.99813C93.8947 10.1903 94.0022 10.4416 94.0022 10.7527Z" fill="white" style="fill:white;fill-opacity:1;"/>
<path d="M97.1349 17.3952L98.9722 13.1938L100.826 17.3952H97.1349ZM104.652 20.8784L100.111 10.3573C100.025 10.1304 99.8868 9.95349 99.6961 9.82787C99.5054 9.70219 99.299 9.63972 99.0775 9.63972C98.8436 9.61534 98.6254 9.66936 98.4222 9.80091C98.2197 9.9331 98.0684 10.1186 97.9695 10.3573L93.3734 21.094C93.3367 21.2138 93.3177 21.3269 93.3177 21.4348C93.3177 21.6986 93.3977 21.9197 93.5576 22.0992C93.7175 22.2788 93.9644 22.3682 94.2966 22.3682C94.5057 22.3682 94.6996 22.3058 94.8779 22.1801C95.0562 22.0545 95.1885 21.8781 95.2744 21.6505L96.2322 19.4601H101.737L102.695 21.6322C102.794 21.8598 102.933 22.0393 103.111 22.1709C103.29 22.3025 103.489 22.3682 103.711 22.3682C103.969 22.3682 104.206 22.2728 104.421 22.0815C104.637 21.89 104.745 21.6322 104.745 21.3092C104.745 21.1776 104.714 21.0342 104.652 20.8784Z" fill="white" style="fill:white;fill-opacity:1;"/>
<path d="M114.935 18.0866C114.707 18.7273 114.347 19.2417 113.856 19.6305C113.363 20.0199 112.729 20.214 111.954 20.214H108.908V11.7756H111.954C112.533 11.7756 113.03 11.8901 113.449 12.117C113.868 12.3446 114.212 12.6532 114.483 13.0418C114.753 13.4306 114.954 13.8793 115.083 14.3884C115.212 14.8969 115.276 15.4323 115.276 15.9949C115.276 16.7493 115.163 17.4465 114.935 18.0866ZM117.316 13.5622C117.076 12.8024 116.719 12.1322 116.246 11.5514C115.772 10.9712 115.191 10.5193 114.501 10.1963C113.812 9.87262 113.024 9.71143 112.138 9.71143H107.726C107.407 9.71143 107.139 9.81603 106.924 10.0252C106.709 10.2351 106.601 10.4956 106.601 10.8067V21.1836C106.601 21.4947 106.709 21.7552 106.924 21.9644C107.139 22.1742 107.407 22.2789 107.726 22.2789H112.138C113.332 22.2789 114.339 21.9979 115.157 21.4349C115.975 20.8725 116.599 20.1153 117.03 19.1641C117.461 18.2123 117.676 17.1565 117.676 15.9949C117.676 15.1331 117.557 14.3227 117.316 13.5622Z" fill="white" style="fill:white;fill-opacity:1;"/>
<path d="M128.367 10.7527C128.367 11.0638 128.259 11.3125 128.043 11.4973C127.828 11.6834 127.561 11.7756 127.241 11.7756H124.342V21.1835C124.342 21.4946 124.228 21.7552 124.001 21.9643C123.773 22.1742 123.481 22.2787 123.124 22.2787C122.779 22.2787 122.496 22.1742 122.275 21.9643C122.053 21.7552 121.943 21.4946 121.943 21.1835V11.7756H119.044C118.724 11.7756 118.457 11.6802 118.241 11.4888C118.026 11.2973 117.919 11.046 117.919 10.7349C117.919 10.4239 118.026 10.1751 118.241 9.98957C118.457 9.80416 118.724 9.71143 119.044 9.71143H127.241C127.561 9.71143 127.828 9.80747 128.043 9.99813C128.259 10.1903 128.367 10.4416 128.367 10.7527Z" fill="white" style="fill:white;fill-opacity:1;"/>
<path d="M29.8338 19.0456C29.0808 19.7838 28.0995 20.1645 27.1111 20.1883C27.1009 20.1908 27.0894 20.1883 27.0798 20.1908H27.0084C25.2575 20.214 23.4754 20.9084 22.0958 22.2616C20.7195 23.611 20.0119 25.3573 19.9857 27.0705V27.0893C19.9857 27.1507 19.9832 27.2108 19.9806 27.2715C19.9832 27.274 19.9832 27.2765 19.9806 27.2809C19.9787 27.3423 19.9736 27.403 19.9666 27.4637C19.9615 27.5151 19.957 27.5664 19.95 27.6178C19.9474 27.6391 19.9449 27.6579 19.9404 27.6785C19.9334 27.7324 19.9238 27.7837 19.9117 27.8351C19.8996 27.8983 19.8856 27.959 19.8715 28.0198C19.8568 28.0805 19.8402 28.1413 19.8211 28.202C19.802 28.2627 19.7828 28.3241 19.7618 28.3823C19.7401 28.4431 19.7165 28.5013 19.6929 28.5602C19.6756 28.6021 19.6565 28.6466 19.638 28.686C19.578 28.8194 19.5091 28.9503 19.4332 29.0767C19.4044 29.1231 19.3757 29.17 19.3419 29.217C19.2641 29.336 19.1779 29.4549 19.0829 29.5677C19.0018 29.6653 18.9131 29.7618 18.8181 29.8551C17.2624 31.3817 14.7376 31.3817 13.1819 29.8551C13.0818 29.7568 12.9867 29.6516 12.8986 29.5464C12.8604 29.5 12.8221 29.4506 12.7863 29.4017C12.7461 29.3479 12.7079 29.2965 12.6721 29.2402C12.6364 29.1863 12.6007 29.1331 12.5675 29.0767C12.4099 28.8169 12.2861 28.5432 12.198 28.2608C12.184 28.2164 12.1693 28.1719 12.1578 28.125C12.1508 28.1062 12.1457 28.0855 12.1406 28.0667C12.1317 28.0292 12.1221 27.9897 12.1125 27.9496C12.0934 27.8676 12.0768 27.7837 12.0647 27.6998C12.0577 27.6647 12.0526 27.6297 12.0481 27.5946C12.0385 27.5151 12.0289 27.4331 12.0245 27.3535C12.0219 27.3066 12.0194 27.2577 12.0168 27.2108V27.197C12.0149 27.1619 12.0149 27.1244 12.0149 27.0893V27.0592C11.9862 25.3479 11.2786 23.6084 9.90416 22.2616C8.52975 20.9109 6.75208 20.2165 5.00375 20.1908C4.96547 20.1883 4.92782 20.1883 4.88954 20.1883C3.90052 20.1645 2.92172 19.7838 2.16624 19.0456C0.611253 17.5165 0.611253 15.0406 2.16624 13.5141C3.72442 11.9875 6.24672 11.9875 7.80298 13.5141C8.55591 14.2529 8.94641 15.216 8.97002 16.1865V16.2867C8.99363 18.0049 9.70125 19.7538 11.0808 21.1076C12.4577 22.4563 14.2348 23.1526 15.9812 23.1783H16.0309C17.7748 23.1501 19.5474 22.4538 20.9192 21.1076C22.2962 19.7563 23.0038 18.0118 23.03 16.2986C23.03 16.261 23.0325 16.2235 23.03 16.1865C23.0542 15.216 23.4447 14.2529 24.1977 13.5141C25.7533 11.9875 28.2781 11.9875 29.8338 13.5141C31.3887 15.0406 31.3887 17.5165 29.8338 19.0456Z" fill="white" style="fill:white;fill-opacity:1;"/>
<path d="M29.8338 7.67632C29.0808 8.41457 28.0995 8.7959 27.1111 8.81907C27.1009 8.82157 27.0894 8.81907 27.0798 8.82157H27.0084C25.2575 8.84537 23.4754 9.53916 22.0958 10.8929C20.7195 12.2417 20.0119 13.9881 19.9857 15.7019V15.7206C19.9857 15.7814 19.9832 15.8421 19.9806 15.9029C19.9832 15.9054 19.9832 15.9072 19.9806 15.9123C19.9787 15.973 19.9736 16.0337 19.9666 16.0945C19.9615 16.1458 19.957 16.1972 19.95 16.2485C19.9474 16.2698 19.9449 16.2886 19.9404 16.3092C19.9334 16.3631 19.9238 16.4144 19.9117 16.4664C19.8996 16.529 19.8856 16.5898 19.8715 16.6505C19.8568 16.7119 19.8402 16.7726 19.8211 16.8333C19.802 16.8941 19.7828 16.9548 19.7618 17.0131C19.7401 17.0738 19.7165 17.1326 19.6929 17.1909C19.6756 17.2328 19.6565 17.2773 19.638 17.3174C19.578 17.4501 19.5091 17.5816 19.4332 17.7075C19.4044 17.7544 19.3757 17.8014 19.3419 17.8477C19.2641 17.9667 19.1779 18.0863 19.0829 18.1984C19.0018 18.2967 18.9131 18.3925 18.8181 18.4858C17.2624 20.0124 14.7376 20.0124 13.1819 18.4858C13.0818 18.3875 12.9867 18.2829 12.8986 18.1771C12.8604 18.1308 12.8221 18.0819 12.7863 18.0324C12.7461 17.9786 12.7079 17.9272 12.6721 17.8709C12.6364 17.8177 12.6007 17.7638 12.5675 17.7075C12.4099 17.4482 12.2861 17.1746 12.198 16.8916C12.184 16.8471 12.1693 16.8027 12.1578 16.7557C12.1508 16.7375 12.1457 16.7162 12.1406 16.6975C12.1317 16.6599 12.1221 16.6204 12.1125 16.5804C12.0934 16.499 12.0768 16.4144 12.0647 16.3305C12.0577 16.2955 12.0526 16.2604 12.0481 16.2253C12.0385 16.1458 12.0289 16.0644 12.0245 15.9849C12.0219 15.9379 12.0194 15.8885 12.0168 15.8421V15.8277C12.0149 15.7927 12.0149 15.7557 12.0149 15.7206V15.69C11.9862 13.9787 11.2786 12.2398 9.90416 10.8929C8.52975 9.54166 6.75208 8.84724 5.00375 8.82157C4.96547 8.81907 4.92782 8.81907 4.88954 8.81907C3.90052 8.7959 2.92172 8.41457 2.16624 7.67632C0.611253 6.14723 0.611253 3.67137 2.16624 2.14541C3.72442 0.618196 6.24672 0.618196 7.80298 2.14541C8.55591 2.88366 8.94641 3.8467 8.97002 4.81725V4.91744C8.99363 6.63563 9.70125 8.38451 11.0808 9.73828C12.4577 11.087 14.2348 11.784 15.9812 11.809H16.0309C17.7748 11.7815 19.5474 11.0845 20.9192 9.73828C22.2962 8.38701 23.0038 6.64315 23.03 4.92934C23.03 4.89177 23.0325 4.8542 23.03 4.81725C23.0542 3.8467 23.4447 2.88366 24.1977 2.14541C25.7533 0.618196 28.2781 0.618196 29.8338 2.14541C31.3887 3.67137 31.3887 6.14723 29.8338 7.67632Z" fill="white" style="fill:white;fill-opacity:1;"/>
</g>
<defs>
<clipPath id="clip0_2013_451">
<rect width="128" height="32" fill="white" style="fill:white;fill-opacity:1;"/>
</clipPath>
</defs>
</svg>
