<svg width="56" height="56" viewBox="0 0 56 56" fill="none" xmlns="http://www.w3.org/2000/svg">
<rect width="56" height="56" rx="28" fill="#6D4AFF" style="fill:#6D4AFF;fill:color(display-p3 0.4275 0.2902 1.0000);fill-opacity:1;"/>
<path d="M41.8338 32.0456C41.0808 32.7839 40.0995 33.1646 39.1111 33.1884C39.1009 33.1909 39.0894 33.1884 39.0798 33.1909H39.0084C37.2575 33.214 35.4754 33.9085 34.0958 35.2616C32.7195 36.611 32.0119 38.3573 31.9857 40.0705V40.0893C31.9857 40.1507 31.9832 40.2108 31.9806 40.2715C31.9832 40.274 31.9832 40.2765 31.9806 40.2809C31.9787 40.3423 31.9736 40.403 31.9666 40.4638C31.9615 40.5151 31.957 40.5665 31.95 40.6178C31.9474 40.6391 31.9449 40.6579 31.9404 40.6785C31.9334 40.7324 31.9238 40.7837 31.9117 40.8351C31.8996 40.8983 31.8856 40.9591 31.8715 41.0198C31.8568 41.0805 31.8402 41.1413 31.8211 41.202C31.802 41.2628 31.7828 41.3241 31.7618 41.3823C31.7401 41.4431 31.7165 41.5013 31.6929 41.5602C31.6756 41.6021 31.6565 41.6466 31.638 41.686C31.578 41.8194 31.5091 41.9503 31.4332 42.0768C31.4044 42.1231 31.3757 42.1701 31.3419 42.217C31.2641 42.336 31.1779 42.455 31.0829 42.5677C31.0018 42.6654 30.9131 42.7618 30.8181 42.8551C29.2624 44.3817 26.7376 44.3817 25.1819 42.8551C25.0818 42.7568 24.9867 42.6516 24.8986 42.5464C24.8604 42.5001 24.8221 42.4506 24.7863 42.4017C24.7461 42.3479 24.7079 42.2965 24.6721 42.2402C24.6364 42.1863 24.6007 42.1331 24.5675 42.0768C24.4099 41.8169 24.2861 41.5433 24.198 41.2609C24.184 41.2164 24.1693 41.172 24.1578 41.125C24.1508 41.1062 24.1457 41.0855 24.1406 41.0668C24.1317 41.0292 24.1221 40.9897 24.1125 40.9497C24.0934 40.8676 24.0768 40.7837 24.0647 40.6998C24.0577 40.6648 24.0526 40.6297 24.0481 40.5946C24.0385 40.5151 24.0289 40.4331 24.0245 40.3536C24.0219 40.3066 24.0194 40.2578 24.0168 40.2108V40.197C24.0149 40.162 24.0149 40.1244 24.0149 40.0893V40.0593C23.9862 38.348 23.2786 36.6085 21.9042 35.2616C20.5298 33.911 18.7521 33.2165 17.0038 33.1909C16.9655 33.1884 16.9278 33.1884 16.8895 33.1884C15.9005 33.1646 14.9217 32.7839 14.1662 32.0456C12.6113 30.5165 12.6113 28.0407 14.1662 26.5141C15.7244 24.9875 18.2467 24.9875 19.803 26.5141C20.5559 27.253 20.9464 28.216 20.97 29.1865V29.2867C20.9936 31.0049 21.7013 32.7538 23.0808 34.1076C24.4577 35.4563 26.2348 36.1526 27.9812 36.1783H28.0309C29.7748 36.1501 31.5474 35.4538 32.9192 34.1076C34.2962 32.7563 35.0038 31.0118 35.03 29.2986C35.03 29.2611 35.0325 29.2235 35.03 29.1865C35.0542 28.216 35.4447 27.253 36.1977 26.5141C37.7533 24.9875 40.2781 24.9875 41.8338 26.5141C43.3887 28.0407 43.3887 30.5165 41.8338 32.0456Z" fill="white" style="fill:white;fill-opacity:1;"/>
<path d="M41.8338 20.6763C41.0808 21.4146 40.0995 21.7959 39.1111 21.8191C39.1009 21.8216 39.0894 21.8191 39.0798 21.8216H39.0084C37.2575 21.8454 35.4754 22.5392 34.0958 23.8929C32.7195 25.2417 32.0119 26.9881 31.9857 28.7019V28.7206C31.9857 28.7814 31.9832 28.8421 31.9806 28.9029C31.9832 28.9054 31.9832 28.9072 31.9806 28.9123C31.9787 28.973 31.9736 29.0337 31.9666 29.0945C31.9615 29.1458 31.957 29.1972 31.95 29.2485C31.9474 29.2698 31.9449 29.2886 31.9404 29.3092C31.9334 29.3631 31.9238 29.4144 31.9117 29.4664C31.8996 29.529 31.8856 29.5898 31.8715 29.6505C31.8568 29.7119 31.8402 29.7726 31.8211 29.8333C31.802 29.8941 31.7828 29.9548 31.7618 30.0131C31.7401 30.0738 31.7165 30.1326 31.6929 30.1909C31.6756 30.2328 31.6565 30.2773 31.638 30.3174C31.578 30.4501 31.5091 30.5816 31.4332 30.7075C31.4044 30.7544 31.3757 30.8014 31.3419 30.8477C31.2641 30.9667 31.1779 31.0863 31.0829 31.1984C31.0018 31.2967 30.9131 31.3925 30.8181 31.4858C29.2624 33.0124 26.7376 33.0124 25.1819 31.4858C25.0818 31.3875 24.9867 31.2829 24.8986 31.1771C24.8604 31.1308 24.8221 31.0819 24.7863 31.0324C24.7461 30.9786 24.7079 30.9272 24.6721 30.8709C24.6364 30.8177 24.6007 30.7638 24.5675 30.7075C24.4099 30.4482 24.2861 30.1746 24.198 29.8916C24.184 29.8471 24.1693 29.8027 24.1578 29.7557C24.1508 29.7375 24.1457 29.7162 24.1406 29.6975C24.1317 29.6599 24.1221 29.6204 24.1125 29.5804C24.0934 29.499 24.0768 29.4144 24.0647 29.3305C24.0577 29.2955 24.0526 29.2604 24.0481 29.2253C24.0385 29.1458 24.0289 29.0644 24.0245 28.9849C24.0219 28.9379 24.0194 28.8885 24.0168 28.8421V28.8277C24.0149 28.7927 24.0149 28.7557 24.0149 28.7206V28.69C23.9862 26.9787 23.2786 25.2398 21.9042 23.8929C20.5298 22.5417 18.7521 21.8472 17.0038 21.8216C16.9655 21.8191 16.9278 21.8191 16.8895 21.8191C15.9005 21.7959 14.9217 21.4146 14.1662 20.6763C12.6113 19.1472 12.6113 16.6714 14.1662 15.1454C15.7244 13.6182 18.2467 13.6182 19.803 15.1454C20.5559 15.8837 20.9464 16.8467 20.97 17.8173V17.9174C20.9936 19.6356 21.7013 21.3845 23.0808 22.7383C24.4577 24.087 26.2348 24.784 27.9812 24.809H28.0309C29.7748 24.7815 31.5474 24.0845 32.9192 22.7383C34.2962 21.387 35.0038 19.6431 35.03 17.9293C35.03 17.8918 35.0325 17.8542 35.03 17.8173C35.0542 16.8467 35.4447 15.8837 36.1977 15.1454C37.7533 13.6182 40.2781 13.6182 41.8338 15.1454C43.3887 16.6714 43.3887 19.1472 41.8338 20.6763Z" fill="white" style="fill:white;fill-opacity:1;"/>
</svg>
