<svg width="28" height="28" viewBox="0 0 28 28" fill="none" xmlns="http://www.w3.org/2000/svg">
<path d="M5.25 25.6666V19.8333M5.25 8.16665V2.33331M2.33334 5.24998H8.16667M2.33334 22.75H8.16667M15.1667 3.49998L13.1435 8.76032C12.8144 9.61575 12.6499 10.0435 12.3941 10.4032C12.1674 10.7221 11.8888 11.0007 11.5699 11.2274C11.2102 11.4833 10.7824 11.6478 9.92701 11.9768L4.66667 14L9.92701 16.0232C10.7824 16.3522 11.2102 16.5167 11.5699 16.7725C11.8888 16.9993 12.1674 17.2778 12.3941 17.5967C12.6499 17.9565 12.8144 18.3842 13.1435 19.2396L15.1667 24.5L17.1899 19.2396C17.5189 18.3842 17.6834 17.9565 17.9392 17.5967C18.166 17.2779 18.4445 16.9993 18.7634 16.7725C19.1232 16.5167 19.5509 16.3522 20.4063 16.0232L25.6667 14L20.4063 11.9768C19.5509 11.6478 19.1232 11.4833 18.7634 11.2274C18.4445 11.0007 18.1659 10.7221 17.9392 10.4032C17.6834 10.0435 17.5189 9.61575 17.1899 8.76032L15.1667 3.49998Z" stroke="#7C5CFF" style="stroke:#7C5CFF;stroke:color(display-p3 0.4863 0.3608 1.0000);stroke-opacity:1;" stroke-width="2" stroke-linecap="round" stroke-linejoin="round"/>
</svg>
