<svg width="16" height="16" viewBox="0 0 16 16" fill="none" xmlns="http://www.w3.org/2000/svg">
<path d="M7.99999 1.33325L9.3413 4.82064C9.52931 5.30946 9.62331 5.55387 9.76949 5.75946C9.89905 5.94167 10.0582 6.10086 10.2405 6.23042C10.446 6.3766 10.6905 6.47061 11.1793 6.65861L14.6667 7.99992L11.1793 9.34122C10.6905 9.52923 10.446 9.62323 10.2405 9.76942C10.0582 9.89898 9.89905 10.0582 9.76949 10.2404C9.62331 10.446 9.52931 10.6904 9.3413 11.1792L8 14.6666L6.65869 11.1792C6.47068 10.6904 6.37668 10.446 6.2305 10.2404C6.10094 10.0582 5.94174 9.89898 5.75953 9.76942C5.55395 9.62323 5.30954 9.52923 4.82072 9.34122L1.33333 7.99992L4.82072 6.65861C5.30954 6.47061 5.55395 6.3766 5.75953 6.23042C5.94174 6.10086 6.10094 5.94166 6.2305 5.75946C6.37668 5.55387 6.47068 5.30946 6.65869 4.82064L7.99999 1.33325Z" fill="#7C5CFF" style="fill:#7C5CFF;fill:color(display-p3 0.4863 0.3608 1.0000);fill-opacity:1;"/>
</svg>
