<svg xmlns="http://www.w3.org/2000/svg" width="150" height="40" fill="none"><path fill="#6D697D" fill-rule="evenodd" d="M15.817 3.087c9.642-.953 18.234 6.07 19.189 15.688.459 4.618-.94 9.23-3.891 12.819a17.56 17.56 0 0 1-11.84 6.32C9.632 38.866 1.042 31.84.087 22.224S6.174 4.04 15.817 3.087M1.72 22.062c.8 8.05 7.99 13.93 16.06 13.132a14.7 14.7 0 0 0 9.911-5.289 14.62 14.62 0 0 0 3.257-10.73c-.799-8.049-7.99-13.928-16.06-13.131C6.817 6.84.92 14.012 1.72 22.062m49.529-5.363c3.654 0 6.01 1.688 6.01 4.374s-2.183 4.39-6.01 4.39h-6.92v-8.765zm-4.974 6.987h4.936c2.25 0 4.102-.878 4.102-2.622s-1.854-2.626-4.102-2.626h-4.936z" clip-rule="evenodd" style="fill:#6d697d;fill:color(display-p3 .4275 .4118 .4902);fill-opacity:1"/><path fill="#6D697D" d="M70.784 18.449v-1.75H60.325v8.756h10.463v-1.769h-8.524V21.95h7.675v-1.731h-7.675v-1.77zm4.761-1.75 4.064 7.014h1.53l4.064-7.015h2.396l-5.122 8.766h-4.25l-5.1-8.765zm16.228 7.015v-7.015H89.84v8.765H100v-1.75zm12.791-7.015v8.764h-1.945v-8.765zm21.71 3.326V16.7h-1.945v8.763h1.945v-3.708h8.31v3.71h1.926V16.7h-1.926v3.326zM150 16.699v1.75h-4.479v7.014h-1.946v-7.017h-4.478v-1.748zm-37.505 5.299v-1.74h8.08v5.215h-7.565c-3.656 0-5.682-1.695-5.682-4.374s2.143-4.391 5.978-4.391h7.296l-.045 1.75h-7.211c-2.273 0-4.07.825-4.07 2.641s1.526 2.592 3.774 2.626h1.974c1.103 0 3.51-.015 3.51-.015v-1.712z" style="fill:#6d697d;fill:color(display-p3 .4275 .4118 .4902);fill-opacity:1"/></svg>