<svg xmlns="http://www.w3.org/2000/svg" width="110" height="40" fill="none"><path fill="#6D697D" d="M60.602 26.137v5.17c-2.913 1.459-5.652 2.188-8.39 2.188-7.594 0-12.159-4.442-12.159-10.09 0-6.086 5.223-11.11 11.867-11.11 1.644 0 2.886.293 4.187.721.934.292 1.51.626 2.093.626.513 0 .656-.85.729-1.348h.724l.659 6.994h-.878c-.359-1.384-1.016-2.52-1.892-3.315-1.364-1.385-3.248-2.114-5.402-2.114-4.565 0-7.228 3.607-7.228 9.037 0 5.355 3.25 8.995 7.59 8.995 1.28 0 2.448-.291 3.879-.948v-5.318c0-1.71-.274-2.367-2.745-2.367v-.8h9.17v.8c-2.277 0-2.204.73-2.204 2.88m-25.255-8.525v15.52h-1.203L18.59 17.101c.072.438.072.802.072 1.239v9.765c0 2.983 0 4.076 2.738 4.076v.802h-7.3v-.802c2.767 0 2.767-1.312 2.767-4.076V16.972c0-1.654 0-3.47-2.913-3.47v-.766h6.887l12.792 13.108c-.073-.363-.073-.581-.073-1.092v-7.14c0-2.878.073-4.11-2.673-4.11v-.766h7.3v.767c-2.695 0-2.839 1.16-2.839 4.109M0 32.982v-.801c1.755 0 2.997-.146 2.997-2.68v-13.31c0-2.623-.95-2.688-2.997-2.688v-.767h10.284v.767c-2.107 0-2.982.065-2.982 2.688V29.5c0 2.534 1.097 2.68 2.982 2.68v.802zm80.767.001c-.365-.654-.439-1.676-.439-1.894 0-.363 0-.876.22-1.227l-.804.152c-.219.273-.292.423-.292.563l.366-.14c.073 0 .146.14.218.289-.072.364-.51.364-.657.51-.218.728.44 1.165.512 1.747zm28.036-9.358c0-3.171-1.312-6.376-3.653-8.672-1.014-1.021-2.126-1.51-3.005-2.515a5.3 5.3 0 0 1-1.065-1.455c-.367-.365-.587-.583-1.025-.8l.223.654h-.074c-.366 0-.732-.22-1.02-.437l.288-.293c-.075-.136-.288-.136-.44-.136-1.167-.197-2.235.429-3.37.647v.147c.728.218.864 1.093 1.269 1.53h.422c.146 0 .366.142.512.142 0-.143-.146-.434-.146-.434q.22-.218.437 0c.364.22.877-.145 1.241.434-.436 0-.877 0-1.24.225 0 .074.221.204.147.354-.363-.15-.805 0-.951-.28l-.072.055c.439.516 1.098.923 1.752 1.14.95.148 1.755-.29 2.676-.072 3.296 1.607 5.636 5.357 5.636 9.108 0 5.356-3.068 7.47-4.978 7.47-.366 0-.924-.224-1.14-.423.216-.745.348-1.615.348-2.93 0-3.096-1.225-6.449-2.905-8.16-.804-.802-1.67-1.457-2.568-1.457-.439 0-.878 0-1.168.364-.366.291-.587.874-.513 1.239-.584.437-1.531.654-2.262.654-.805 0-1.824-.29-2.725-1.02v-1.091c-.21-.073-.938-.511-.575-.844.22.075.365.204.439.263-.074-.475-.074-1.06-.44-1.497-.146 0-.362 0-.581-.146-.22-.216-.443-.508-.443-.873.223.365.586.218.804.437-.361-.874-.218-1.238-.874-2.515-.148-.652-.804-1.017-1.24-1.455-.22-.145-.292-.365-.56-.365-.288-.071-.288-.436-.288-.646.071 0 .288.136.432.21-.433-.99-.726-2.075-1.673-2.66l-.222.145h-1.168c.144-.144.436-.218.657-.363-.22-.22-.364-.293-.797-.293-.2.074-.468.293-.748.293h-.07c0-.22-.076-.51.35-.655-.426-.075-.792-.075-1.304 0-.073.363-.29.582-.29.874-.217.144-.294.363-.513.584 0-.44.22-.876.296-1.313-.296.072-.66.291-.806.291-.584-.291-1.315-.58-1.608-.58.44.289.223.8.293 1.162l-.293-.144c-.07-.292-.439-.511-.507-.874-.44 0-.734.145-1.099.363v.073c.218 0 .513.22.658.438-.51 0-.876-.218-1.388-.218 0 0 0-.074-.067-.074-.197.074-.397.292-.53.436-.512.44-.876.803-1.095 1.452.146 0 .365 0 .44.073-.294.072-.44.437-.732.511v1.063c-.22.217-.51.435-.657.872-.365 1.154-.44 2.441-.44 3.897-.071.293-.216.366-.363.438v1.129s.438-.407.657-.545v.91c-.294 0-.51.364-.51.583 0 .29.073.583.073.874 0 .146 0 .146.072.292 0-.146.146-.292.365-.364 0 0 .146-.147.438-.147-.217.22-.292.51-.438.802l-.219.217s-.074.147-.074.22c.293 1.493.73 2.805 1.317 4.232-.586.94-1.242 2.763-1.68 4.51-.366-.363-.878-.435-1.317-.435-.41.072-.845.218-1.14.655-.439-.22-1.02-.147-1.302.147-.605.522-.605.809-.605 1.234-.148.15-.442.512-.442 1.02 0 .657.073 1.094.442 1.676h10.949c-.075-.217-.22-.507-.367-.654-.216-.438-.072-1.022-.072-1.46.218-.433.439-.855.732-1.224.07-.22 0-.22.07-.29l.512-.087c.29 0 .51-.215.876-.215.22.3.22-.22.587-.368.8-.146 1.549 0 1.983.583 0 .086.071.086.071.156h-.365c-.408-.156-.888-.371-1.4-.156 0 .156-.07.156-.07.377v.368c.287 0 .512.273.794.423.135-.224.536-.423.82-.423.366 0 .878.2.878.785v.801c.294.292.657.364 1.022.508-.144.293-.365.293-.584.293h-.581c-.075-.072-.222-.072-.222-.293-.22.293-.363.586-.513.875h8.456c-.142-.29-.29-.507-.363-.654-.147-.438-.147-1.022-.147-1.46l.805-1.079c.436 0 .804-.144 1.605-.215.148-.22 0-.307.659-.307.51 0 .876.086 1.02.157.074.15.074.15 0 .293-.144.144-.436-.143-.655-.072-.147.144.074.216.074.368.145.126-.657-.152-.657-.152s-.148.425-.22.575l.438.433c.144.219-.218.437-.218.656-.148-.072-.44-.291-.44-.22-.148.585 0 1.095-.071 1.677h.8l.073-1.237c.074-.73.95-2.028 1.463-2.028.293 0 .51.145.717.296.134.273.474.423.474.563 0 .149-.203.222-.543.222-.138 0-.138-.222-.356-.362l-.439.433s.51.437.51.73c0 .364-.071.508-.292.729l-.438-.875c-.22 0-.584.438-.584.654 0 .293-.147.439-.147.875h4.471c.509 0 .947-.144 1.457-.437h.872c1.802 0 3.2-.51 4.518-1.82 1.752-1.672 2.772-4.44 2.772-7.1m-15.698 6.588-.73.074c.295.15.295.512.295.583 0 .219-.149.437-.296.584-.145-.148-.144-.365-.29-.584-.146 0-.22.365-.22.51 0 .656.295 1.166.51 1.603h.66c-.073-.582-.222-1.092-.222-1.748 0-.365.221-.798.293-1.022m-9.552.876c0-.29-.215-.363-.51-.363-.14 0-.473.217-.473.363 0 .292-.135 1.894-.135 1.894h.468c.213-.654.65-1.529.65-1.894m-1.544-.074c-.076 0 .076.148-.654-.579-.15 0-.367.434-.367.58 0 .584.143 1.385.367 1.967h.578c0-.654.076-1.383.076-1.968m19.071-18.278a.77.77 0 0 0-.659-.442c-.217-.292-.51-.657-.804-.657.221 0 .512-.218.875-.218.147.365.442.583.513.875zM98.886 11.2h-.801c-.145-.218-.367 0-.512 0-.148 0-.221 0-.504-.218.429 0 .65-.218 1.016-.365.293.22.584.293.8.583m-1.751 8.306c-.476-.144-.745-.363-1.182-.363-.144 0-.804.219-.875.363-.218-.292.144-.875.438-1.02.293-.147.437-.074.585 0 0 .437.493.218.762.365.136.217.207.363.272.655m-.065 1.055c-.41 0-.475-.058-.75-.058-.367 0-.803.13-1.024.495-.147-.29-.073-.436 0-.617.22-.217.584-.51.876-.51.487-.001.898.364.898.69m1.672 1.606c-.586-.363-1.463-.587-1.945-.587-.27 0-1.135.367-1.426.657l-.149-.657c.44-.073.44-.439.731-.439.218 0 .504-.072.706-.072.204 0 .34-.139.41-.139.356 0 .21.36.429.36.22 0 .366-.149.514-.149.366 0 .657.589.73 1.026m.219 1.6c-.512 0-1.021-.144-1.096-.362-.147-.147 0-.439-.367-.439-.146 0-.363.22-.363.22-.136.071-.54-.22-.54 0 0 .363-.276.508-.642.508-.144 0-.29 0-.437-.071v-.728c.941 0 .874-.293 1.281-.293.273 0 .483.145.701.145.367 0 .15-.145.514-.145.366 0 .508.293.73.364 0 .22.219.513.219.802m-.658 1.566c-.218-.071-.73-.145-.73-.363 0-.291-.148-.365-.504-.365-.273 0-.475.074-.898.218 0 0-.218-.291-.291-.576.147-.072.714-.21.983-.21.489 0 1.001 0 1.001.21.001.285.44.358.44 1.086m-12.63-11.329c0 .074-.147.73-.147.73l-.583.146.364-1.573c.149.26.367.55.367.697m14.019 13.881c0 .437 0 .583-.22.947l-.44-.657c.151-.216.151-.508.365-.872.074 0 .295.507.295.582m-1.752-.947c-.515 0-.222-1.02-1.28-1.02-.203 0-.341.366-.633.436 0-.07.075-.51.075-.51 0-.146.07-.437.355-.582.543 0 .406.218.823.362.218.074.367.22.66.22zm-4.544-4.117c-.655-.363-1.022-1.017-1.606-1.68.584 0 .73.589 1.17.663.145.143.294.216.436.433zm-6.217-5.355c-.438 0-.657-.218-.876-.623 0-.22-.072-.505 0-.87.145.291.145.438.292.583.29-.145.29.212.364.287.075.188.22.405.22.623M99.183 29.79c-.151.224-.151.224-.222.423 0-.351-.44-.568-.732-1.16l.291-.513c.222.146.513.366.513.728 0 0-.072.156 0 .307 0 .07.15.07.15.215m-1.465-2.05c0 .29-.07.366-.145.73-.504-.072-.504-.659-.573-.73-.34-.436-.828-.071-1.191-.071-.147-.438.072-.438.072-.73.22 0 .438-.148.645 0 .337-.148.544.219.9.219.072.145.221.51.292.583m-3.663-2.988c0 .293-.146.511-.072.803-.147-.44-.44-.875-.587-1.306 0-.072-.073-.072.076-.145.072 0 .364 0 .364.072.073.139.22.357.22.576M87.69 19.07c-.074.294-.365 0-.435 0h-.659c-.073-.145-.147-.217-.147-.364.293-.072.51-.218.73-.072.146.219.292.436.511.436m1.608 1.64c-.219.222-.801.29-1.24-.074l.581-.253c.22.18.514.252.659.326m3.736 4.115c0 .44-.072.95-.072 1.46-.219 0-.219-.147-.219-.44-.072-.437-.22-.8-.368-1.238-.144-.568-.508-1.056-.798-1.71-.075-.293-.441-.437-.734-.658.364 0 .734 0 1.024.293 0 .145.072.218.293.436.511 0 .362.658.802.95-.219.187-.29.331-.44.47.22.146.439.22.512.437m-2.851-2.149c0 .221-.14.292-.277.439 0 0-.267-.365-.267-.51 0-.295 0-.436.068-.656.2.22.476.51.476.727M97 29.269c0 .027-.136.156-.136.156-.337-.156-.544-.229-.983-.229 0-.29-.218-.656-.364-.656-.438 0-.367.293-.73.293l.656-.657c.075-.146.075-.146.22-.146.218.146.291.221.51.221 0 .147 0 .218-.07.435.217.147.355-.072.492.147.203.074.406.146.406.436m-5.865-5.02c0 .138-.22.284-.292.284 0 0-.367-.357-.435-.69-.073-.293.215-.804.215-.804.073 0 .148.147.22.147.072.072 0 .293.072.51.22.147.367.408.22.552m-5.608-7c-.876-.48-1.825-.838-2.891-.91 0 .218 0 .43-.065.505.839.405 1.641.769 2.374 1.423v.657c-.733-.728-1.535-1.457-2.442-1.675-.067.146-.347.29-.417.582-.512-.364-1.097-.73-1.683-.799-.22 0-.366-.767-.366-.767.366-.145.588-.364.731-.73h.292c.22 0 .22-.145.22-.362 0-.438-.95-.438-1.387-.438-.513 0-.876 0-1.173.218-.141 0-.07.22-.07.366 0 .07.218.216.218.216.15 0 .294-.146.441-.146-.074.44.071.658.51.876l-.074.707c-.877 0-1.461.348-2.116.64-.222-.145-.366-.363-.512-.58-.878.287-2.352 1.455-2.352 1.455v-.51c.646-.583 1.474-.876 2.13-1.209v-.503c-.29-.146-.582 0-.873 0a3.56 3.56 0 0 0-1.693.707c0-.204-.073-.488-.073-.488.806-.437 1.767-.802 2.714-.657v-.293c-.074-.146-.074-.362-.217-.362-.44-.439-.878-1.094-.878-1.53l.294-.14c-.146-.413-.294-1.5 0-1.864-.424-.218-.825-.583-.961-.873-.147-.365-.294-.583-.37-.99.224-.438.37-.584.573-1.015.134 0 .333-.072.397-.218.36-.074.579-.436 1.016-.217.294 0 .583.143.806.217 0 .146 0 .218.144.364.438 0 .438.43.66.796.217.072.435.072.584.072.437.135.802.135.948.333.584-.333 1.167-.405 1.826-.333.07-.22.219-.51.295-.868.07.212.07 0 .216 0 .268-.218.602-.58 1.108-.438.292.22.802.074 1.094.438.22.285.365.722.584 1.065-.219.429 0 1.012-.437 1.23l-.44.437c-.145 0-.145.147-.363.147.218.51.074 1.23-.146 1.717.146-.06.364-.06.364-.268.075.073 0 .208 0 .268v.212c0 .364-.218.73-.512 1.02-.144.438-.51 1.02-.984 1.093v.145c1.058 0 1.933.292 2.957.796zm2.97 4.556-.368.143c-.804 0-1.169-.217-1.533-.51.29 0 .66-.368.66-.368.36.367.873.66 1.24.735m-2.048-1.64c-.412 0-.92.216-1.141-.22.149-.074.293-.292.44-.438zm5.926 6.774c0 .364-.436.802-.584 1.092.148-.362.148-1.092 0-1.092-.147-.073-.437 0-.437-.148 0-.22.073-.506.073-.653 0-.294-.22-.44-.22-.583 0-.44.513-.51.659-.803.073.293.073.582.073.947 0 .146.22.586 0 .948 0 .22.436.074.436.292m-1.68-.801c0 .434-.287.8-.36 1.239 0-.439-.075-.805-.36-1.093 0-.147.209-.147.07-.366 0 0-.406-.22-.406-.51 0-.293.268-.512.405-.728 0-.074.291.144.291.583 0 .07 0 .291-.075.436-.077.22.436.22.436.439m-5.971-5.14c-.364.072-.657-.29-1.022-.436-.148-.397-.148-.838-.292-1.055.292.217.95.217.802.874 0 .181.291.327.512.617m2.018 2.041c-.293 0-.778 0-1.067-.217a2.5 2.5 0 0 1-.805-.584c.292-.217.657-.217.805-.29.289.29.557.8 1.067 1.091M74.547 11.86l-.506.144.07-.365c.144-.218.217-.437.437-.655zm9.3 10.089c-.294.073-.804.22-.944-.143-.402-.662-.2-1.242 0-1.714.14.413.213.84.284 1.201.076.29.514.439.66.656m-2.057-3.97c-.074.435-.217 1.091-.659 1.384 0-.293-.143-.438-.29-.657-.074 0 0 .219-.074.219 0 .145-.143.439-.143.729-.149.071-.442.217-.732.071v-.217c-.073-.144-.073-.438-.073-.583l-.074-.072c-.219.072-.219.217-.219.364-.072.147-.216.291-.216.508-.293 0-.442-.071-.66-.217v-.655c0-.147 0-.147-.072-.147l-.367.365c-.292-.217-.365-.803-.365-1.165 1.17-.655 2.63-.438 3.51-.074.143.073.288.073.434.146m3.736 5.865h-.22c-.804.261-1.459-.218-2.118-.657.365-.147.878-.219 1.315-.219l.22.439c.22.074.584.29.803.437M74.695 12.866l-.367.442c.073.697-.217 1.208-.217 1.865l-.367-1.168c.073-.29.147-.563.367-.915zm7.46 9.372c-.365-.217-1.024-.29-.877-.73.146-.365.366-.438.512-.577.07.506.143.874.365 1.307m6.703 7.407h-.073c-.147-.22-.22-.376-.366-.376.219-.8-.218-1.458-.362-2.111v-.22c.219.366.802.73.728 1.093.073.655.073 1.238.073 1.614m-1.679-2.706c-.367 0-.657 0-.876-.367-.072 0-.195-.216-.267-.07-.361.289-.728-.217-1.167-.147a1.43 1.43 0 0 1-.803.436v-.07c0-.22.145-.437.437-.583.44.147.805-.804 1.244-.294.216.074.42.074.556.074.51.22.656.654.876 1.02m-6.631-5.87c0 .512-.073 1.169-.584 1.39l-.146-.728c.218-.15.437-.294.73-.661m2.423 3.18c-.136.138-.536.284-.816.284-.44-.357-.73-.764-1.167-1.347l1.167.22c.214.144.617.632.816.842m4.353 4.15c-.29-.223-.729-.223-.876-.588-.28-.07-.485-.07-.847-.07-.294.07-.657.07-.951.07-.076 0 0-.07-.148-.143-.437.143-.875.143-1.315.583l.366-.874c.294 0 .512-.146.658-.146.291-.074.512-.074.732-.074v.074c.804 0 1.723-.074 2.311.58zm-8.308-6.161c-.439-.433-.806-.801-.806-1.24.223 0 .44 0 .657.144 0 .366.15.663.15 1.096m-1.388-2.073-.222.905c-.216-.435-.437-.834-.51-1.346zm10.429 9.697a6 6 0 0 0-.294.864c-.148-.44-.293-1.08-.805-1.08-.072-.291-.146-.377-.436-.592l-.559-.075c.073.29.485.29.204.667.28.216.5.216.645.567.146.224 0 .513.073.657l-.438.22c0-.364.074-1.076-.411-1.228-.436.152-.51-.437-.803-.593-.146 0-.146-.362-.365-.216-.366.216-.803 0-1.168.216l.365-.583c.294-.216.584-.146.878-.216l.583-.071c.58 0 1.068.287 1.653.508.291.147.436.362.436.668.148.07.442.07.442.287m-5.756-3.36h-.146c-.07 0-.582-.217-.73-.364-.07-.22-.07-.44-.07-.44h.578zm-5.622-5.21c-.441-.15-.936-.584-1.135-.91a2.4 2.4 0 0 1-.201-.875c.267 0 .464.217.53.364v.074c.365.436.732.763.806 1.347m3.503 2.55c-.07.407-.291.545-.657 1.055-.216.148-.658.219-1.092.437.07-.218.286-.289.434-.51.15-.217.441-.576.512-.786.366-.195.513-.195.803-.195m5.344 7.028-.22.22c-.219-.22-.073-.803-.437-.877-.367 0-.658-.35-.804-.423l.294-.144s.143-.071.291 0c.145.144.294.216.294.368.143.2.363 0 .512.2.07.223.144.512.07.656m-6.659-7.611c-.217.437-.434.845-.874.99-.22 0-.586.138-1.024 0 .22-.145.438-.211.734-.407l.58-.583zm1.461 3.313c-.292.219-.51.219-.875.149l-.437-.583h1.096zm-5.267-5.502c-.366.367-.733.511-.879.95 0-.215-.072-.439-.141-.583.07-.295.287-.439.36-.506.22.067.364.067.66.139m.813 1.098c0 .29-.13.654-.464 1.018-.067.073-.277.22-.277.22 0-.439.21-.802.21-1.168.2-.07.4-.217.53-.07m1.021.871-.29 1.065c-.367.283-.862.144-1.263.144.532-.144.97-.769 1.263-1.209.074-.072.147 0 .29 0m.368 3.682c0 .218-.073 1.09-.073 1.09-.146-.507-.51-1.02-.952-1.02-.216-.219-.431-.436-.495-.653-.2-.22-.4 0-.682-.22-.296 0-.66 0-.95.22v-.22l.51-.584c.512.074 1.122 0 1.253.365.364.22.73.44.805.586v.216c.144.07.438.146.584.22m-.368 2.258-.51.446c-.147-.156 0-.519-.217-.74 0-.145.145-.216.07-.287-.07-.147-.895-.438-.895-.438-.282-.22-.648-.442-.942-.729-.29-.074-.51.072-.876.146v-.146c.146-.293.146-.66.586-.66.217 0 .511 0 .654.22.296 0 .442.293.645.366.334.36.612.511.828.654q.001.328.22.44c.437 0 .294.435.437.728m-1.088 1.035-.197.711-.477-1.3c-.586-.519-1.243-.593-1.608-.886-.292-.07-.292.146-.438 0 0-.14 0-.363.22-.58h.437l.438.217c.219.222.731.222.731.656 0 .074-.075.146.148.436l.682.156zm-1.99.712c0 .581-.949 1.382-.949 1.382 0-.362.219-.801.219-1.238 0 0-.294-.293-.586-.293-.217.149-.217.293-.29.512-.22.438-.658.875-.73 1.312-.073 0-.073-.072-.073-.072 0-.729.073-1.968.51-2.466.366-.438.66-.438 1.095-.508l.367.07-.293.438c.293.15.73.424.73.863m-2.558-.44a1.5 1.5 0 0 1-.215.803c-.075-.29-.281-.652-.633-.652-.288.579-.363.798-.073 1.67-.215.221-.364.294-.654.44-.149-.292-.149-.801-.149-1.093 0-.51.075-1.017.22-1.44.218-.224.368-.59.584-.745h.775c-.35 0-.35.306-.35.521.206.072.495.147.495.497m-1.867.803c-.075 0-.294-.219-.512-.219-.208.437 0 .73 0 1.238 0 .22-.074.438-.074.438-.134 0-.396-.291-.462-.582V30.8l.61-.785c.438.273.581.712.438 1.075m14.967-20.106c.143-.365.143-1.011-.148-1.355-.146-.29-.51-.436-.874-.722l-.502.286c-.265.145-.4.436-.4.78.468.21.974.793 1.192 1.229h.22c.219-.218.364 0 .512-.218m-2.425.437c0-.219-.073-.219-.144-.219-.366 0-.366-.583-.659-.436-.143 0-.29-.147-.507 0 0 .072 0 .072.143.072.364 0 .22.509.511.583zm1.11.874s.144 0 0-.072l-1.545-.219c-.143.22-.511.22-.511.434h-.146c.146.579.146 1.205.146 1.86.291.073.585.218.585.655.288.147.582.22.862.437.135-.071.2-.29.268-.508-.268-.365-.913-.147-.913-.803l-.435-.147c0-.428 0-.841-.077-1.14l.077-.055c0 .055.07.13.218.28.288 0 .582.073.862-.15.135-.075.135-.43.267-.43.133.002.269.002.341-.142m-3.591-1.529c-.144-.147-.586.072-.804.146-.29.072-.508.29-.508.509h.8c.075-.219.368-.51.512-.655m-1.608-.793c-.072-.708-.876-.78-1.24-1.066h-.292c-.57.212-.703.797-.769 1.276.2.655.624.218.913.655.295-.219 1.024-.73 1.388-.865m4.31 6.652v-.359h-.73l-.07.074zm-3.288-4.186c0-.143-.148-.289-.363-.435h-1.752c0 .292.217.435.438.435 0 .299.217.354.292.428.221.15.29.15.511 0 .218.15.291-.13.366 0 0 .442 0 .637-.075.993-.072.511-.511.438-.877.657 0 .218-.217.584 0 .803.222-.146.366-.219.734-.366 0-.218.218-.437.509-.582 0-.656.217-1.281.217-1.933m-.584 3.827c-.142-.292-.511 0-.877-.146 0 .146 0 .292.222.438.217-.218.583-.292.656-.292" style="fill:#6d697d;fill:color(display-p3 .4275 .4118 .4902);fill-opacity:1"/></svg>