<svg xmlns="http://www.w3.org/2000/svg" width="145" height="40" fill="none"><path fill="#6D697D" fill-rule="evenodd" d="M41.66 19.335h3.18v-13.8h-3.18zM57.56 8.57h-3.67v10.765h-3.26V8.57h-3.67V5.534h10.6zm5.12 5.893V5.21h3.104v8.979c0 1.034.485 1.913 2.134 1.913s2.135-.879 2.135-1.913V5.21h3.104v9.253c0 2.928-2.25 4.685-5.24 4.685-2.987 0-5.238-1.757-5.238-4.685m18.626 4.411-3.104-4.314v4.314h-2.91V5.21h2.91v8.18l2.91-4.275h3.396l-3.532 4.88 3.629 4.88zM91.49 8.92v3.317c-1.203-.195-2.91.293-2.91 2.226v4.411h-2.911v-9.76h2.91v1.738c.389-1.308 1.689-1.933 2.91-1.933m8.111 5.075c0-1.463-.97-2.381-2.309-2.381-1.338 0-2.308.918-2.308 2.381 0 1.464.97 2.382 2.308 2.382 1.339 0 2.31-.918 2.31-2.382m2.911-4.88v9.76h-2.91v-.917c-.641.742-1.592 1.19-2.892 1.19-2.542 0-4.637-2.244-4.637-5.153s2.095-5.153 4.637-5.153c1.3 0 2.25.449 2.891 1.19v-.917zm2.133 9.76h2.91v-9.76h-2.91zM104.353 6.5c0-.957.796-1.757 1.747-1.757s1.746.8 1.746 1.757-.795 1.756-1.746 1.756-1.747-.8-1.747-1.756m14.649 6.382v5.992h-2.91v-5.563c0-1.21-.757-1.776-1.688-1.776-1.067 0-1.805.625-1.805 2.01v5.33h-2.91v-9.76h2.91v.917c.524-.722 1.494-1.191 2.775-1.191 1.959 0 3.628 1.406 3.628 4.04m8.711.099c-.31-1.133-1.183-1.543-2.057-1.543-1.105 0-1.843.547-2.115 1.542zm-1.785 3.552c.796 0 1.475-.312 1.863-.742l2.328 1.347c-.951 1.327-2.386 2.01-4.23 2.01-3.318 0-5.375-2.244-5.375-5.153s2.096-5.153 5.162-5.153c2.833 0 4.928 2.206 4.928 5.153q0 .614-.116 1.172H123.6c.368 1.015 1.261 1.366 2.328 1.366M49.041 29.91l-1.59-5.017-1.592 5.017zm.931 2.928h-5.044l-.68 2.147h-3.395l4.618-13.664h3.958l4.618 13.664h-3.395zm12.573-.781c0 2.245-1.94 3.201-4.036 3.201-1.94 0-3.415-.741-4.172-2.323l2.523-1.444c.252.742.795 1.151 1.65 1.151.698 0 1.047-.214 1.047-.605 0-1.073-4.773-.507-4.773-3.884 0-2.128 1.785-3.201 3.803-3.201 1.571 0 2.968.702 3.783 2.089l-2.483 1.346c-.272-.507-.66-.859-1.3-.859-.505 0-.815.195-.815.547 0 1.112 4.773.37 4.773 3.982m8.497 0c0 2.245-1.94 3.201-4.036 3.201-1.94 0-3.415-.741-4.172-2.323l2.522-1.444c.253.742.796 1.151 1.65 1.151.698 0 1.048-.214 1.048-.605 0-1.073-4.774-.507-4.774-3.884 0-2.128 1.785-3.201 3.803-3.201 1.572 0 2.969.702 3.784 2.089l-2.484 1.346c-.271-.507-.66-.859-1.3-.859-.504 0-.814.195-.814.547 0 1.112 4.773.37 4.773 3.982m8.245-1.952c0-1.386-.97-2.304-2.231-2.304-1.262 0-2.232.918-2.232 2.304s.97 2.303 2.232 2.303c1.26 0 2.23-.917 2.23-2.303m-7.374 0c0-2.908 2.29-5.154 5.143-5.154s5.141 2.246 5.141 5.154-2.29 5.153-5.141 5.153-5.142-2.245-5.142-5.153m11.448 0c0-2.908 2.193-5.154 5.142-5.154 1.882 0 3.55.996 4.385 2.5l-2.542 1.483c-.33-.683-1.028-1.093-1.882-1.093-1.261 0-2.192.917-2.192 2.264s.93 2.264 2.192 2.264c.854 0 1.572-.41 1.882-1.093l2.542 1.464c-.834 1.523-2.484 2.518-4.385 2.518-2.95 0-5.142-2.245-5.142-5.153m10.689 4.88h2.911v-9.76h-2.91zm-.29-12.376c0-.956.795-1.757 1.746-1.757.95 0 1.746.8 1.746 1.757s-.795 1.757-1.746 1.757-1.747-.8-1.747-1.757m12.38 7.496c0-1.464-.971-2.381-2.31-2.381s-2.308.917-2.308 2.38c0 1.465.97 2.382 2.308 2.382 1.339 0 2.31-.917 2.31-2.381m2.91-4.88v9.76h-2.91v-.917c-.641.741-1.591 1.19-2.892 1.19-2.541 0-4.637-2.245-4.637-5.153s2.096-5.154 4.637-5.154c1.301 0 2.251.45 2.892 1.191v-.917zm5.82 2.811v3.455c0 .84.718.917 1.999.84v2.654c-3.803.39-4.909-.761-4.909-3.494v-3.455h-1.552v-2.81h1.552V23.37l2.91-.879v2.733h1.999v2.81zm3.646 6.949h2.911v-9.76h-2.911zm-.29-12.376c0-.956.795-1.757 1.746-1.757s1.746.8 1.746 1.757-.795 1.757-1.746 1.757-1.746-.8-1.746-1.757m12.224 7.496c0-1.386-.97-2.304-2.232-2.304-1.261 0-2.231.918-2.231 2.304s.97 2.303 2.231 2.303c1.262 0 2.232-.917 2.232-2.303m-7.374 0c0-2.908 2.29-5.154 5.142-5.154s5.142 2.246 5.142 5.154-2.289 5.153-5.142 5.153c-2.852 0-5.142-2.245-5.142-5.153m21.246-1.113v5.993h-2.91v-5.563c0-1.21-.757-1.777-1.689-1.777-1.067 0-1.804.625-1.804 2.011v5.329h-2.91v-9.76h2.91v.917c.524-.722 1.494-1.19 2.775-1.19 1.959 0 3.628 1.405 3.628 4.04m-117.664 2.56h-3.296c-4.623 0-8.383-3.783-8.383-8.434v-3.315h5.788v3.315c0 1.44 1.164 2.61 2.595 2.61h3.296zM14.985 8.202h5.798v5.833h5.798v5.833h-5.798v-5.833h-5.798zM.321 34.656h28.962V5.52H.32z" clip-rule="evenodd" style="fill:#6d697d;fill:color(display-p3 .4275 .4118 .4902);fill-opacity:1"/></svg>