<svg width="24" height="24" viewBox="0 0 24 24" fill="none" xmlns="http://www.w3.org/2000/svg">
<path d="M5.20237 2.9019C7.95375 4.93816 10.9136 9.06632 12 11.2816V17.1329C12 17.0084 11.9513 17.1491 11.8463 17.4523C11.2793 19.094 9.0645 25.5012 4.00012 20.3791C1.3335 17.6822 2.568 14.9854 7.422 14.1712C4.64512 14.6368 1.52325 13.8672 0.66675 10.8498C0.42 9.98185 0 4.63532 0 3.91322C0 0.29606 3.21712 1.43301 5.20237 2.9019ZM18.7976 2.9019C16.0462 4.93816 13.0864 9.06632 12 11.2816V17.1329C12 17.0084 12.0487 17.1491 12.1537 17.4523C12.7207 19.094 14.9355 25.5012 19.9999 20.3791C22.6665 17.6822 21.432 14.9854 16.578 14.1712C19.3549 14.6368 22.4767 13.8672 23.3333 10.8498C23.58 9.98185 24 4.63532 24 3.91322C24 0.29606 20.7832 1.43301 18.7976 2.9019Z" fill="#A7A4B5" style="fill:#A7A4B5;fill:color(display-p3 0.6549 0.6431 0.7098);fill-opacity:1;"/>
</svg>
