<svg width="24" height="24" viewBox="0 0 24 24" fill="none" xmlns="http://www.w3.org/2000/svg">
<g clip-path="url(#clip0_322_2370)">
<path d="M19.7891 0C22.1145 0 24 1.88553 24 4.21094V8.69824C23.8995 8.69154 23.798 8.68848 23.6963 8.68848H23.6738C23.1371 8.68848 22.4782 8.81884 22.0098 9.05469C21.4766 9.30158 21.0065 9.67081 20.6152 10.1553C19.9853 10.9359 19.6035 11.9911 19.5107 13.1768C19.5078 13.2122 19.5045 13.2478 19.502 13.2832C19.4994 13.3187 19.4977 13.3509 19.4961 13.3848C19.4929 13.4482 19.4907 13.5123 19.4893 13.5762C19.487 13.6786 19.4864 13.782 19.4883 13.8857C19.5509 16.5712 21.0015 18.7168 23.5781 18.7168C23.7225 18.7168 23.8631 18.7105 24 18.6973V19.7891C24 22.1145 22.1145 24 19.7891 24H4.21094C1.88553 24 0 22.1145 0 19.7891V4.21094C0 1.88553 1.88553 0 4.21094 0H19.7891ZM4.40723 5.58301V5.72949L4.42676 5.7334C5.13201 5.89263 5.49023 6.13103 5.49023 6.9873V17.0127C5.49023 17.8691 5.13027 18.1064 4.4248 18.2656L4.40625 18.2705V18.417H7.23242V18.2705L7.21387 18.2666C6.50845 18.1074 6.14949 17.8699 6.14941 17.0137V7.56836L10.7598 18.417H11.0215L15.7656 7.26562V17.2607C15.7052 17.9371 15.3506 18.1458 14.7119 18.29L14.6934 18.2949V18.4404H19.6152V18.2949L19.5967 18.29C18.9572 18.1458 18.5936 17.9371 18.5332 17.2607L18.5303 6.9873H18.5332C18.5332 6.1309 18.8914 5.89263 19.5967 5.7334L19.6152 5.72949V5.58301H15.75L12.1611 14.0176L8.57227 5.58301H4.40723ZM24 16.5176C22.6568 16.1223 21.6965 14.638 21.7959 12.8828H24V16.5176ZM23.6582 9.25098C23.7795 9.25302 23.8935 9.26963 24 9.29883V12.375H21.8447C21.9254 10.5738 22.5728 9.27336 23.6582 9.25098Z" fill="#A7A4B5" style="fill:#A7A4B5;fill:color(display-p3 0.6549 0.6431 0.7098);fill-opacity:1;"/>
</g>
<defs>
<clipPath id="clip0_322_2370">
<rect width="24" height="24" fill="white" style="fill:white;fill-opacity:1;"/>
</clipPath>
</defs>
</svg>
